<?xml version="1.0" encoding="utf-8" ?>
<svg baseProfile="full" height="300mm" version="1.1" viewBox="0,0,200,300" width="200mm" xmlns="http://www.w3.org/2000/svg" xmlns:ev="http://www.w3.org/2001/xml-events" xmlns:xlink="http://www.w3.org/1999/xlink"><defs /><rect fill="#222222" height="300" width="200" x="0" y="0" /><text fill="#555555" style="font-size:6px; font-family:Arial;" x="11" y="19">Running for 2756 Days</text><text fill="#555555" style="font-size:6px; font-family:Arial;" x="11" y="39">Races</text><text fill="#555555" style="font-size:8px; font-family:Arial;" x="11" y="59">1</text><text fill="#FFFFFF" style="font-size:10px; font-family:Arial; font-weight:bold;" x="23" y="59">Full</text><text fill="#555555" style="font-size:6px; font-family:Arial;" x="49" y="59">1x</text><text fill="#555555" style="font-size:8px; font-family:Arial;" x="11" y="77">2</text><text fill="#FFFFFF" style="font-size:10px; font-family:Arial; font-weight:bold;" x="23" y="77">Half</text><text fill="#555555" style="font-size:6px; font-family:Arial;" x="49" y="77">14x</text><text fill="#555555" style="font-size:8px; font-family:Arial;" x="11" y="95">3</text><text fill="#FFFFFF" style="font-size:10px; font-family:Arial; font-weight:bold;" x="23" y="95">10K</text><text fill="#555555" style="font-size:6px; font-family:Arial;" x="49" y="95">136x</text><text fill="#555555" style="font-size:6px; font-family:Arial;" x="11" y="133">Stats</text><text fill="#555555" style="font-size:5px; font-family:Arial;" x="11" y="139">Distance</text><text fill="#FFFFFF" style="font-size:10px; font-family:Arial; font-weight:bold;" x="11" y="150">2641</text><text fill="#555555" style="font-size:6px; font-family:Arial;" x="35" y="150">km</text><text fill="#555555" style="font-size:5px; font-family:Arial;" x="53" y="139">Runs</text><text fill="#FFFFFF" style="font-size:10px; font-family:Arial; font-weight:bold;" x="53" y="150">220</text><text fill="#555555" style="font-size:5px; font-family:Arial;" x="11" y="167">Avg Pace</text><text fill="#FFFFFF" style="font-size:10px; font-family:Arial; font-weight:bold;" x="11" y="178">4'55"</text><text fill="#555555" style="font-size:5px; font-family:Arial;" x="53" y="167">Streak</text><text fill="#FFFFFF" style="font-size:10px; font-family:Arial; font-weight:bold;" x="53" y="178">8</text><text fill="#555555" style="font-size:6px; font-family:Arial;" x="59" y="178">d</text><text fill="#555555" style="font-size:5px; font-family:Arial;" x="11" y="195">Time</text><text fill="#FFFFFF" style="font-size:10px; font-family:Arial; font-weight:bold;" x="11" y="206">217</text><text fill="#555555" style="font-size:6px; font-family:Arial;" x="29" y="206">h</text><text fill="#555555" style="font-size:5px; font-family:Arial;" x="53" y="195">Longest</text><text fill="#FFFFFF" style="font-size:10px; font-family:Arial; font-weight:bold;" x="53" y="206">42.7</text><text fill="#555555" style="font-size:5px; font-family:Arial;" x="11" y="252.0645161290322">Runner</text><text fill="#FFFFFF" style="font-size:8px; font-family:Arial; font-weight:bold;" x="11" y="262.0645161290322">ycc</text><text fill="#555555" style="font-size:7px; font-family:Arial;" x="11" y="285.5806451612903">running_page/2023</text><circle cx="85.41666666666667" cy="17.419354838709676" fill="#555555" r="3.3125"><title>2023-01-01</title></circle><circle cx="85.41666666666667" cy="26.25806451612903" fill="#555555" r="3.3125"><title>2023-01-02</title></circle><circle cx="85.41666666666667" cy="35.096774193548384" fill="#555555" r="3.3125"><title>2023-01-03</title></circle><circle cx="85.41666666666667" cy="43.935483870967744" fill="#555555" r="3.3125"><title>2023-01-04</title></circle><circle cx="85.41666666666667" cy="52.774193548387096" fill="#555555" r="3.3125"><title>2023-01-05</title></circle><circle cx="85.41666666666667" cy="61.61290322580645" fill="#555555" r="3.3125"><title>2023-01-06</title></circle><circle cx="85.41666666666667" cy="70.45161290322581" fill="#555555" r="3.3125"><title>2023-01-07</title></circle><circle cx="85.41666666666667" cy="79.29032258064517" fill="#555555" r="3.3125"><title>2023-01-08</title></circle><circle cx="85.41666666666667" cy="88.12903225806451" fill="#555555" r="3.3125"><title>2023-01-09</title></circle><circle cx="85.41666666666667" cy="96.96774193548387" fill="#555555" r="3.3125"><title>2023-01-10</title></circle><circle cx="85.41666666666667" cy="105.80645161290322" fill="#555555" r="3.3125"><title>2023-01-11</title></circle><circle cx="85.41666666666667" cy="114.64516129032258" fill="#555555" r="3.3125"><title>2023-01-12</title></circle><circle cx="85.41666666666667" cy="123.48387096774194" fill="#555555" r="3.3125"><title>2023-01-13</title></circle><circle cx="85.41666666666667" cy="132.32258064516128" fill="#555555" r="3.3125"><title>2023-01-14</title></circle><circle cx="85.41666666666667" cy="141.16129032258064" fill="#527b89" r="3.3125"><title>2023-01-15: 3 km</title></circle><circle cx="85.41666666666667" cy="149.99999999999997" fill="#50a3bf" r="3.3125"><title>2023-01-16: 6 km</title></circle><circle cx="85.41666666666667" cy="158.83870967741933" fill="#4fabca" r="3.3125"><title>2023-01-17: 6 km</title></circle><circle cx="85.41666666666667" cy="167.6774193548387" fill="#4eb7da" r="3.3125"><title>2023-01-18: 7 km</title></circle><circle cx="85.41666666666667" cy="176.51612903225805" fill="#555555" r="3.3125"><title>2023-01-19</title></circle><circle cx="85.41666666666667" cy="185.35483870967738" fill="#FFFF00" r="3.3125"><title>2023-01-20: 10 km</title></circle><circle cx="85.41666666666667" cy="194.19354838709674" fill="#4fa3bf" r="3.3125"><title>2023-01-21: 6 km</title></circle><circle cx="85.41666666666667" cy="203.0322580645161" fill="#555555" r="3.3125"><title>2023-01-22</title></circle><circle cx="85.41666666666667" cy="211.87096774193546" fill="#4fa4c1" r="3.3125"><title>2023-01-23: 6 km</title></circle><circle cx="85.41666666666667" cy="220.70967741935482" fill="#FFFF00" r="3.3125"><title>2023-01-24: 10 km</title></circle><circle cx="85.41666666666667" cy="229.54838709677418" fill="#FFFF00" r="3.3125"><title>2023-01-25: 14 km</title></circle><circle cx="85.41666666666667" cy="238.3870967741935" fill="#FFFF00" r="3.3125"><title>2023-01-26: 16 km</title></circle><circle cx="85.41666666666667" cy="247.22580645161287" fill="#555555" r="3.3125"><title>2023-01-27</title></circle><circle cx="85.41666666666667" cy="256.06451612903226" fill="#FFFF00" r="3.3125"><title>2023-01-28: 13 km</title></circle><circle cx="85.41666666666667" cy="264.90322580645164" fill="#FFFF00" r="3.3125"><title>2023-01-29: 10 km</title></circle><circle cx="85.41666666666667" cy="273.741935483871" fill="#FFFF00" r="3.3125"><title>2023-01-30: 12 km</title></circle><circle cx="85.41666666666667" cy="282.5806451612903" fill="#4eb7da" r="3.3125"><title>2023-01-31: 7 km</title></circle><circle cx="94.25" cy="17.419354838709676" fill="#555555" r="3.3125"><title>2023-02-01</title></circle><circle cx="94.25" cy="26.25806451612903" fill="#555555" r="3.3125"><title>2023-02-02</title></circle><circle cx="94.25" cy="35.096774193548384" fill="#555555" r="3.3125"><title>2023-02-03</title></circle><circle cx="94.25" cy="43.935483870967744" fill="#555555" r="3.3125"><title>2023-02-04</title></circle><circle cx="94.25" cy="52.774193548387096" fill="#555555" r="3.3125"><title>2023-02-05</title></circle><circle cx="94.25" cy="61.61290322580645" fill="#555555" r="3.3125"><title>2023-02-06</title></circle><circle cx="94.25" cy="70.45161290322581" fill="#555555" r="3.3125"><title>2023-02-07</title></circle><circle cx="94.25" cy="79.29032258064517" fill="#555555" r="3.3125"><title>2023-02-08</title></circle><circle cx="94.25" cy="88.12903225806451" fill="#555555" r="3.3125"><title>2023-02-09</title></circle><circle cx="94.25" cy="96.96774193548387" fill="#FFFF00" r="3.3125"><title>2023-02-10: 10 km</title></circle><circle cx="94.25" cy="105.80645161290322" fill="#555555" r="3.3125"><title>2023-02-11</title></circle><circle cx="94.25" cy="114.64516129032258" fill="#FFFF00" r="3.3125"><title>2023-02-12: 12 km</title></circle><circle cx="94.25" cy="123.48387096774194" fill="#555555" r="3.3125"><title>2023-02-13</title></circle><circle cx="94.25" cy="132.32258064516128" fill="#FFFF00" r="3.3125"><title>2023-02-14: 13 km</title></circle><circle cx="94.25" cy="141.16129032258064" fill="#4eb9dd" r="3.3125"><title>2023-02-15: 8 km</title></circle><circle cx="94.25" cy="149.99999999999997" fill="#FFFF00" r="3.3125"><title>2023-02-16: 11 km</title></circle><circle cx="94.25" cy="158.83870967741933" fill="#555555" r="3.3125"><title>2023-02-17</title></circle><circle cx="94.25" cy="167.6774193548387" fill="#FFFF00" r="3.3125"><title>2023-02-18: 12 km</title></circle><circle cx="94.25" cy="176.51612903225805" fill="#FFFF00" r="3.3125"><title>2023-02-19: 17 km</title></circle><circle cx="94.25" cy="185.35483870967738" fill="#555555" r="3.3125"><title>2023-02-20</title></circle><circle cx="94.25" cy="194.19354838709674" fill="#FFFF00" r="3.3125"><title>2023-02-21: 10 km</title></circle><circle cx="94.25" cy="203.0322580645161" fill="#FFFF00" r="3.3125"><title>2023-02-22: 12 km</title></circle><circle cx="94.25" cy="211.87096774193546" fill="#FFFF00" r="3.3125"><title>2023-02-23: 11 km</title></circle><circle cx="94.25" cy="220.70967741935482" fill="#4fa5c1" r="3.3125"><title>2023-02-24: 6 km</title></circle><circle cx="94.25" cy="229.54838709677418" fill="#555555" r="3.3125"><title>2023-02-25</title></circle><circle cx="94.25" cy="238.3870967741935" fill="#FFFF00" r="3.3125"><title>2023-02-26: 20 km</title></circle><circle cx="94.25" cy="247.22580645161287" fill="#4eb4d6" r="3.3125"><title>2023-02-27: 7 km</title></circle><circle cx="94.25" cy="256.06451612903226" fill="#FFFF00" r="3.3125"><title>2023-02-28: 10 km</title></circle><circle cx="103.08333333333334" cy="17.419354838709676" fill="#FFFF00" r="3.3125"><title>2023-03-01: 12 km</title></circle><circle cx="103.08333333333334" cy="26.25806451612903" fill="#555555" r="3.3125"><title>2023-03-02</title></circle><circle cx="103.08333333333334" cy="35.096774193548384" fill="#FFFF00" r="3.3125"><title>2023-03-03: 11 km</title></circle><circle cx="103.08333333333334" cy="43.935483870967744" fill="#FFFF00" r="3.3125"><title>2023-03-04: 12 km</title></circle><circle cx="103.08333333333334" cy="52.774193548387096" fill="#FFFF00" r="3.3125"><title>2023-03-05: 20 km</title></circle><circle cx="103.08333333333334" cy="61.61290322580645" fill="#555555" r="3.3125"><title>2023-03-06</title></circle><circle cx="103.08333333333334" cy="70.45161290322581" fill="#4dccf7" r="3.3125"><title>2023-03-07: 9 km</title></circle><circle cx="103.08333333333334" cy="79.29032258064517" fill="#FFFF00" r="3.3125"><title>2023-03-08: 12 km</title></circle><circle cx="103.08333333333334" cy="88.12903225806451" fill="#555555" r="3.3125"><title>2023-03-09</title></circle><circle cx="103.08333333333334" cy="96.96774193548387" fill="#555555" r="3.3125"><title>2023-03-10</title></circle><circle cx="103.08333333333334" cy="105.80645161290322" fill="#4fa6c3" r="3.3125"><title>2023-03-11: 6 km</title></circle><circle cx="103.08333333333334" cy="114.64516129032258" fill="#FFFF00" r="3.3125"><title>2023-03-12: 21 km</title></circle><circle cx="103.08333333333334" cy="123.48387096774194" fill="#4fa4c0" r="3.3125"><title>2023-03-13: 6 km</title></circle><circle cx="103.08333333333334" cy="132.32258064516128" fill="#4eb2d4" r="3.3125"><title>2023-03-14: 7 km</title></circle><circle cx="103.08333333333334" cy="141.16129032258064" fill="#555555" r="3.3125"><title>2023-03-15</title></circle><circle cx="103.08333333333334" cy="149.99999999999997" fill="#FFFF00" r="3.3125"><title>2023-03-16: 12 km</title></circle><circle cx="103.08333333333334" cy="158.83870967741933" fill="#555555" r="3.3125"><title>2023-03-17</title></circle><circle cx="103.08333333333334" cy="167.6774193548387" fill="#FFFF00" r="3.3125"><title>2023-03-18: 11 km</title></circle><circle cx="103.08333333333334" cy="176.51612903225805" fill="#FFFF00" r="3.3125"><title>2023-03-19: 13 km</title></circle><circle cx="103.08333333333334" cy="185.35483870967738" fill="#555555" r="3.3125"><title>2023-03-20</title></circle><circle cx="103.08333333333334" cy="194.19354838709674" fill="#FFFF00" r="3.3125"><title>2023-03-21: 10 km</title></circle><circle cx="103.08333333333334" cy="203.0322580645161" fill="#555555" r="3.3125"><title>2023-03-22</title></circle><circle cx="103.08333333333334" cy="211.87096774193546" fill="#FFFF00" r="3.3125"><title>2023-03-23: 12 km</title></circle><circle cx="103.08333333333334" cy="220.70967741935482" fill="#555555" r="3.3125"><title>2023-03-24</title></circle><circle cx="103.08333333333334" cy="229.54838709677418" fill="#FFFF00" r="3.3125"><title>2023-03-25: 11 km</title></circle><circle cx="103.08333333333334" cy="238.3870967741935" fill="#FFFF00" r="3.3125"><title>2023-03-26: 10 km</title></circle><circle cx="103.08333333333334" cy="247.22580645161287" fill="#FFFF00" r="3.3125"><title>2023-03-27: 11 km</title></circle><circle cx="103.08333333333334" cy="256.06451612903226" fill="#555555" r="3.3125"><title>2023-03-28</title></circle><circle cx="103.08333333333334" cy="264.90322580645164" fill="#555555" r="3.3125"><title>2023-03-29</title></circle><circle cx="103.08333333333334" cy="273.741935483871" fill="#4fa3bf" r="3.3125"><title>2023-03-30: 6 km</title></circle><circle cx="103.08333333333334" cy="282.5806451612903" fill="#555555" r="3.3125"><title>2023-03-31</title></circle><circle cx="111.91666666666667" cy="17.419354838709676" fill="#FFFF00" r="3.3125"><title>2023-04-01: 10 km</title></circle><circle cx="111.91666666666667" cy="26.25806451612903" fill="#FFFF00" r="3.3125"><title>2023-04-02: 17 km</title></circle><circle cx="111.91666666666667" cy="35.096774193548384" fill="#4fadcc" r="3.3125"><title>2023-04-03: 7 km</title></circle><circle cx="111.91666666666667" cy="43.935483870967744" fill="#555555" r="3.3125"><title>2023-04-04</title></circle><circle cx="111.91666666666667" cy="52.774193548387096" fill="#FFFF00" r="3.3125"><title>2023-04-05: 15 km</title></circle><circle cx="111.91666666666667" cy="61.61290322580645" fill="#555555" r="3.3125"><title>2023-04-06</title></circle><circle cx="111.91666666666667" cy="70.45161290322581" fill="#FFFF00" r="3.3125"><title>2023-04-07: 12 km</title></circle><circle cx="111.91666666666667" cy="79.29032258064517" fill="#FFFF00" r="3.3125"><title>2023-04-08: 10 km</title></circle><circle cx="111.91666666666667" cy="88.12903225806451" fill="#555555" r="3.3125"><title>2023-04-09</title></circle><circle cx="111.91666666666667" cy="96.96774193548387" fill="#FFFF00" r="3.3125"><title>2023-04-10: 10 km</title></circle><circle cx="111.91666666666667" cy="105.80645161290322" fill="#555555" r="3.3125"><title>2023-04-11</title></circle><circle cx="111.91666666666667" cy="114.64516129032258" fill="#555555" r="3.3125"><title>2023-04-12</title></circle><circle cx="111.91666666666667" cy="123.48387096774194" fill="#FFFF00" r="3.3125"><title>2023-04-13: 17 km</title></circle><circle cx="111.91666666666667" cy="132.32258064516128" fill="#555555" r="3.3125"><title>2023-04-14</title></circle><circle cx="111.91666666666667" cy="141.16129032258064" fill="#FFFF00" r="3.3125"><title>2023-04-15: 10 km</title></circle><circle cx="111.91666666666667" cy="149.99999999999997" fill="#FFFF00" r="3.3125"><title>2023-04-16: 20 km</title></circle><circle cx="111.91666666666667" cy="158.83870967741933" fill="#555555" r="3.3125"><title>2023-04-17</title></circle><circle cx="111.91666666666667" cy="167.6774193548387" fill="#555555" r="3.3125"><title>2023-04-18</title></circle><circle cx="111.91666666666667" cy="176.51612903225805" fill="#4dc5ee" r="3.3125"><title>2023-04-19: 9 km</title></circle><circle cx="111.91666666666667" cy="185.35483870967738" fill="#555555" r="3.3125"><title>2023-04-20</title></circle><circle cx="111.91666666666667" cy="194.19354838709674" fill="#555555" r="3.3125"><title>2023-04-21</title></circle><circle cx="111.91666666666667" cy="203.0322580645161" fill="#FFFF00" r="3.3125"><title>2023-04-22: 21 km</title></circle><circle cx="111.91666666666667" cy="211.87096774193546" fill="#555555" r="3.3125"><title>2023-04-23</title></circle><circle cx="111.91666666666667" cy="220.70967741935482" fill="#555555" r="3.3125"><title>2023-04-24</title></circle><circle cx="111.91666666666667" cy="229.54838709677418" fill="#555555" r="3.3125"><title>2023-04-25</title></circle><circle cx="111.91666666666667" cy="238.3870967741935" fill="#555555" r="3.3125"><title>2023-04-26</title></circle><circle cx="111.91666666666667" cy="247.22580645161287" fill="#555555" r="3.3125"><title>2023-04-27</title></circle><circle cx="111.91666666666667" cy="256.06451612903226" fill="#555555" r="3.3125"><title>2023-04-28</title></circle><circle cx="111.91666666666667" cy="264.90322580645164" fill="#555555" r="3.3125"><title>2023-04-29</title></circle><circle cx="111.91666666666667" cy="273.741935483871" fill="#555555" r="3.3125"><title>2023-04-30</title></circle><circle cx="120.75000000000001" cy="17.419354838709676" fill="#4fa3c0" r="3.3125"><title>2023-05-01: 6 km</title></circle><circle cx="120.75000000000001" cy="26.25806451612903" fill="#4dc9f2" r="3.3125"><title>2023-05-02: 9 km</title></circle><circle cx="120.75000000000001" cy="35.096774193548384" fill="#FFFF00" r="3.3125"><title>2023-05-03: 12 km</title></circle><circle cx="120.75000000000001" cy="43.935483870967744" fill="#555555" r="3.3125"><title>2023-05-04</title></circle><circle cx="120.75000000000001" cy="52.774193548387096" fill="#555555" r="3.3125"><title>2023-05-05</title></circle><circle cx="120.75000000000001" cy="61.61290322580645" fill="#555555" r="3.3125"><title>2023-05-06</title></circle><circle cx="120.75000000000001" cy="70.45161290322581" fill="#555555" r="3.3125"><title>2023-05-07</title></circle><circle cx="120.75000000000001" cy="79.29032258064517" fill="#4fa9c8" r="3.3125"><title>2023-05-08: 6 km</title></circle><circle cx="120.75000000000001" cy="88.12903225806451" fill="#4fa9c8" r="3.3125"><title>2023-05-09: 6 km</title></circle><circle cx="120.75000000000001" cy="96.96774193548387" fill="#4fa9c8" r="3.3125"><title>2023-05-10: 6 km</title></circle><circle cx="120.75000000000001" cy="105.80645161290322" fill="#4eb8db" r="3.3125"><title>2023-05-11: 7 km</title></circle><circle cx="120.75000000000001" cy="114.64516129032258" fill="#555555" r="3.3125"><title>2023-05-12</title></circle><circle cx="120.75000000000001" cy="123.48387096774194" fill="#4dcbf6" r="3.3125"><title>2023-05-13: 9 km</title></circle><circle cx="120.75000000000001" cy="132.32258064516128" fill="#555555" r="3.3125"><title>2023-05-14</title></circle><circle cx="120.75000000000001" cy="141.16129032258064" fill="#4fa9c7" r="3.3125"><title>2023-05-15: 6 km</title></circle><circle cx="120.75000000000001" cy="149.99999999999997" fill="#4eb8dc" r="3.3125"><title>2023-05-16: 7 km</title></circle><circle cx="120.75000000000001" cy="158.83870967741933" fill="#4dc5ed" r="3.3125"><title>2023-05-17: 8 km</title></circle><circle cx="120.75000000000001" cy="167.6774193548387" fill="#FFFF00" r="3.3125"><title>2023-05-18: 10 km</title></circle><circle cx="120.75000000000001" cy="176.51612903225805" fill="#555555" r="3.3125"><title>2023-05-19</title></circle><circle cx="120.75000000000001" cy="185.35483870967738" fill="#FFFF00" r="3.3125"><title>2023-05-20: 11 km</title></circle><circle cx="120.75000000000001" cy="194.19354838709674" fill="#555555" r="3.3125"><title>2023-05-21</title></circle><circle cx="120.75000000000001" cy="203.0322580645161" fill="#FFFF00" r="3.3125"><title>2023-05-22: 10 km</title></circle><circle cx="120.75000000000001" cy="211.87096774193546" fill="#FFFF00" r="3.3125"><title>2023-05-23: 10 km</title></circle><circle cx="120.75000000000001" cy="220.70967741935482" fill="#FFFF00" r="3.3125"><title>2023-05-24: 12 km</title></circle><circle cx="120.75000000000001" cy="229.54838709677418" fill="#FFFF00" r="3.3125"><title>2023-05-25: 12 km</title></circle><circle cx="120.75000000000001" cy="238.3870967741935" fill="#555555" r="3.3125"><title>2023-05-26</title></circle><circle cx="120.75000000000001" cy="247.22580645161287" fill="#FFFF00" r="3.3125"><title>2023-05-27: 23 km</title></circle><circle cx="120.75000000000001" cy="256.06451612903226" fill="#555555" r="3.3125"><title>2023-05-28</title></circle><circle cx="120.75000000000001" cy="264.90322580645164" fill="#4dcbf5" r="3.3125"><title>2023-05-29: 9 km</title></circle><circle cx="120.75000000000001" cy="273.741935483871" fill="#FFFF00" r="3.3125"><title>2023-05-30: 11 km</title></circle><circle cx="120.75000000000001" cy="282.5806451612903" fill="#FFFF00" r="3.3125"><title>2023-05-31: 12 km</title></circle><circle cx="129.58333333333334" cy="17.419354838709676" fill="#FFFF00" r="3.3125"><title>2023-06-01: 11 km</title></circle><circle cx="129.58333333333334" cy="26.25806451612903" fill="#555555" r="3.3125"><title>2023-06-02</title></circle><circle cx="129.58333333333334" cy="35.096774193548384" fill="#518b9f" r="3.3125"><title>2023-06-03: 4 km</title></circle><circle cx="129.58333333333334" cy="43.935483870967744" fill="#FFFF00" r="3.3125"><title>2023-06-04: 23 km</title></circle><circle cx="129.58333333333334" cy="52.774193548387096" fill="#FFFF00" r="3.3125"><title>2023-06-05: 12 km</title></circle><circle cx="129.58333333333334" cy="61.61290322580645" fill="#FFFF00" r="3.3125"><title>2023-06-06: 12 km</title></circle><circle cx="129.58333333333334" cy="70.45161290322581" fill="#FFFF00" r="3.3125"><title>2023-06-07: 10 km</title></circle><circle cx="129.58333333333334" cy="79.29032258064517" fill="#FFFF00" r="3.3125"><title>2023-06-08: 12 km</title></circle><circle cx="129.58333333333334" cy="88.12903225806451" fill="#555555" r="3.3125"><title>2023-06-09</title></circle><circle cx="129.58333333333334" cy="96.96774193548387" fill="#FFFF00" r="3.3125"><title>2023-06-10: 23 km</title></circle><circle cx="129.58333333333334" cy="105.80645161290322" fill="#555555" r="3.3125"><title>2023-06-11</title></circle><circle cx="129.58333333333334" cy="114.64516129032258" fill="#FFFF00" r="3.3125"><title>2023-06-12: 12 km</title></circle><circle cx="129.58333333333334" cy="123.48387096774194" fill="#FFFF00" r="3.3125"><title>2023-06-13: 11 km</title></circle><circle cx="129.58333333333334" cy="132.32258064516128" fill="#FFFF00" r="3.3125"><title>2023-06-14: 12 km</title></circle><circle cx="129.58333333333334" cy="141.16129032258064" fill="#FFFF00" r="3.3125"><title>2023-06-15: 10 km</title></circle><circle cx="129.58333333333334" cy="149.99999999999997" fill="#555555" r="3.3125"><title>2023-06-16</title></circle><circle cx="129.58333333333334" cy="158.83870967741933" fill="#555555" r="3.3125"><title>2023-06-17</title></circle><circle cx="129.58333333333334" cy="167.6774193548387" fill="#555555" r="3.3125"><title>2023-06-18</title></circle><circle cx="129.58333333333334" cy="176.51612903225805" fill="#FFFF00" r="3.3125"><title>2023-06-19: 15 km</title></circle><circle cx="129.58333333333334" cy="185.35483870967738" fill="#FFFF00" r="3.3125"><title>2023-06-20: 12 km</title></circle><circle cx="129.58333333333334" cy="194.19354838709674" fill="#FFFF00" r="3.3125"><title>2023-06-21: 13 km</title></circle><circle cx="129.58333333333334" cy="203.0322580645161" fill="#555555" r="3.3125"><title>2023-06-22</title></circle><circle cx="129.58333333333334" cy="211.87096774193546" fill="#FFFF00" r="3.3125"><title>2023-06-23: 23 km</title></circle><circle cx="129.58333333333334" cy="220.70967741935482" fill="#555555" r="3.3125"><title>2023-06-24</title></circle><circle cx="129.58333333333334" cy="229.54838709677418" fill="#FFFF00" r="3.3125"><title>2023-06-25: 12 km</title></circle><circle cx="129.58333333333334" cy="238.3870967741935" fill="#FFFF00" r="3.3125"><title>2023-06-26: 12 km</title></circle><circle cx="129.58333333333334" cy="247.22580645161287" fill="#51899b" r="3.3125"><title>2023-06-27: 4 km</title></circle><circle cx="129.58333333333334" cy="256.06451612903226" fill="#FFFF00" r="3.3125"><title>2023-06-28: 12 km</title></circle><circle cx="129.58333333333334" cy="264.90322580645164" fill="#555555" r="3.3125"><title>2023-06-29</title></circle><circle cx="129.58333333333334" cy="273.741935483871" fill="#555555" r="3.3125"><title>2023-06-30</title></circle><circle cx="138.41666666666666" cy="17.419354838709676" fill="#555555" r="3.3125"><title>2023-07-01</title></circle><circle cx="138.41666666666666" cy="26.25806451612903" fill="#555555" r="3.3125"><title>2023-07-02</title></circle><circle cx="138.41666666666666" cy="35.096774193548384" fill="#555555" r="3.3125"><title>2023-07-03</title></circle><circle cx="138.41666666666666" cy="43.935483870967744" fill="#4ebee4" r="3.3125"><title>2023-07-04: 8 km</title></circle><circle cx="138.41666666666666" cy="52.774193548387096" fill="#518496" r="3.3125"><title>2023-07-05: 3 km</title></circle><circle cx="138.41666666666666" cy="61.61290322580645" fill="#555555" r="3.3125"><title>2023-07-06</title></circle><circle cx="138.41666666666666" cy="70.45161290322581" fill="#555555" r="3.3125"><title>2023-07-07</title></circle><circle cx="138.41666666666666" cy="79.29032258064517" fill="#536c74" r="3.3125"><title>2023-07-08: 1 km</title></circle><circle cx="138.41666666666666" cy="88.12903225806451" fill="#555555" r="3.3125"><title>2023-07-09</title></circle><circle cx="138.41666666666666" cy="96.96774193548387" fill="#555555" r="3.3125"><title>2023-07-10</title></circle><circle cx="138.41666666666666" cy="105.80645161290322" fill="#555555" r="3.3125"><title>2023-07-11</title></circle><circle cx="138.41666666666666" cy="114.64516129032258" fill="#555555" r="3.3125"><title>2023-07-12</title></circle><circle cx="138.41666666666666" cy="123.48387096774194" fill="#555555" r="3.3125"><title>2023-07-13</title></circle><circle cx="138.41666666666666" cy="132.32258064516128" fill="#4fa9c7" r="3.3125"><title>2023-07-14: 6 km</title></circle><circle cx="138.41666666666666" cy="141.16129032258064" fill="#4dc9f3" r="3.3125"><title>2023-07-15: 9 km</title></circle><circle cx="138.41666666666666" cy="149.99999999999997" fill="#4eb3d5" r="3.3125"><title>2023-07-16: 7 km</title></circle><circle cx="138.41666666666666" cy="158.83870967741933" fill="#FFFF00" r="3.3125"><title>2023-07-17: 12 km</title></circle><circle cx="138.41666666666666" cy="167.6774193548387" fill="#4fa6c3" r="3.3125"><title>2023-07-18: 6 km</title></circle><circle cx="138.41666666666666" cy="176.51612903225805" fill="#555555" r="3.3125"><title>2023-07-19</title></circle><circle cx="138.41666666666666" cy="185.35483870967738" fill="#4dcefa" r="3.3125"><title>2023-07-20: 9 km</title></circle><circle cx="138.41666666666666" cy="194.19354838709674" fill="#555555" r="3.3125"><title>2023-07-21</title></circle><circle cx="138.41666666666666" cy="203.0322580645161" fill="#FFFF00" r="3.3125"><title>2023-07-22: 12 km</title></circle><circle cx="138.41666666666666" cy="211.87096774193546" fill="#4dcffc" r="3.3125"><title>2023-07-23: 9 km</title></circle><circle cx="138.41666666666666" cy="220.70967741935482" fill="#555555" r="3.3125"><title>2023-07-24</title></circle><circle cx="138.41666666666666" cy="229.54838709677418" fill="#4dd0fd" r="3.3125"><title>2023-07-25: 9 km</title></circle><circle cx="138.41666666666666" cy="238.3870967741935" fill="#555555" r="3.3125"><title>2023-07-26</title></circle><circle cx="138.41666666666666" cy="247.22580645161287" fill="#4dcffb" r="3.3125"><title>2023-07-27: 9 km</title></circle><circle cx="138.41666666666666" cy="256.06451612903226" fill="#FFFF00" r="3.3125"><title>2023-07-28: 13 km</title></circle><circle cx="138.41666666666666" cy="264.90322580645164" fill="#555555" r="3.3125"><title>2023-07-29</title></circle><circle cx="138.41666666666666" cy="273.741935483871" fill="#FFFF00" r="3.3125"><title>2023-07-30: 11 km</title></circle><circle cx="138.41666666666666" cy="282.5806451612903" fill="#FFFF00" r="3.3125"><title>2023-07-31: 11 km</title></circle><circle cx="147.25" cy="17.419354838709676" fill="#FFFF00" r="3.3125"><title>2023-08-01: 10 km</title></circle><circle cx="147.25" cy="26.25806451612903" fill="#555555" r="3.3125"><title>2023-08-02</title></circle><circle cx="147.25" cy="35.096774193548384" fill="#555555" r="3.3125"><title>2023-08-03</title></circle><circle cx="147.25" cy="43.935483870967744" fill="#555555" r="3.3125"><title>2023-08-04</title></circle><circle cx="147.25" cy="52.774193548387096" fill="#555555" r="3.3125"><title>2023-08-05</title></circle><circle cx="147.25" cy="61.61290322580645" fill="#555555" r="3.3125"><title>2023-08-06</title></circle><circle cx="147.25" cy="70.45161290322581" fill="#4fa7c5" r="3.3125"><title>2023-08-07: 6 km</title></circle><circle cx="147.25" cy="79.29032258064517" fill="#FFFF00" r="3.3125"><title>2023-08-08: 10 km</title></circle><circle cx="147.25" cy="88.12903225806451" fill="#FFFF00" r="3.3125"><title>2023-08-09: 12 km</title></circle><circle cx="147.25" cy="96.96774193548387" fill="#555555" r="3.3125"><title>2023-08-10</title></circle><circle cx="147.25" cy="105.80645161290322" fill="#FFFF00" r="3.3125"><title>2023-08-11: 20 km</title></circle><circle cx="147.25" cy="114.64516129032258" fill="#4eb4d7" r="3.3125"><title>2023-08-12: 7 km</title></circle><circle cx="147.25" cy="123.48387096774194" fill="#555555" r="3.3125"><title>2023-08-13</title></circle><circle cx="147.25" cy="132.32258064516128" fill="#555555" r="3.3125"><title>2023-08-14</title></circle><circle cx="147.25" cy="141.16129032258064" fill="#555555" r="3.3125"><title>2023-08-15</title></circle><circle cx="147.25" cy="149.99999999999997" fill="#555555" r="3.3125"><title>2023-08-16</title></circle><circle cx="147.25" cy="158.83870967741933" fill="#FFFF00" r="3.3125"><title>2023-08-17: 10 km</title></circle><circle cx="147.25" cy="167.6774193548387" fill="#FFFF00" r="3.3125"><title>2023-08-18: 18 km</title></circle><circle cx="147.25" cy="176.51612903225805" fill="#5099b1" r="3.3125"><title>2023-08-19: 5 km</title></circle><circle cx="147.25" cy="185.35483870967738" fill="#FFFF00" r="3.3125"><title>2023-08-20: 17 km</title></circle><circle cx="147.25" cy="194.19354838709674" fill="#555555" r="3.3125"><title>2023-08-21</title></circle><circle cx="147.25" cy="203.0322580645161" fill="#FFFF00" r="3.3125"><title>2023-08-22: 10 km</title></circle><circle cx="147.25" cy="211.87096774193546" fill="#555555" r="3.3125"><title>2023-08-23</title></circle><circle cx="147.25" cy="220.70967741935482" fill="#4dcffb" r="3.3125"><title>2023-08-24: 9 km</title></circle><circle cx="147.25" cy="229.54838709677418" fill="#FFFF00" r="3.3125"><title>2023-08-25: 18 km</title></circle><circle cx="147.25" cy="238.3870967741935" fill="#555555" r="3.3125"><title>2023-08-26</title></circle><circle cx="147.25" cy="247.22580645161287" fill="#FFFF00" r="3.3125"><title>2023-08-27: 12 km</title></circle><circle cx="147.25" cy="256.06451612903226" fill="#FFFF00" r="3.3125"><title>2023-08-28: 12 km</title></circle><circle cx="147.25" cy="264.90322580645164" fill="#FFFF00" r="3.3125"><title>2023-08-29: 10 km</title></circle><circle cx="147.25" cy="273.741935483871" fill="#4fa8c6" r="3.3125"><title>2023-08-30: 6 km</title></circle><circle cx="147.25" cy="282.5806451612903" fill="#FFFF00" r="3.3125"><title>2023-08-31: 10 km</title></circle><circle cx="156.08333333333334" cy="17.419354838709676" fill="#555555" r="3.3125"><title>2023-09-01</title></circle><circle cx="156.08333333333334" cy="26.25806451612903" fill="#555555" r="3.3125"><title>2023-09-02</title></circle><circle cx="156.08333333333334" cy="35.096774193548384" fill="#555555" r="3.3125"><title>2023-09-03</title></circle><circle cx="156.08333333333334" cy="43.935483870967744" fill="#FFFF00" r="3.3125"><title>2023-09-04: 11 km</title></circle><circle cx="156.08333333333334" cy="52.774193548387096" fill="#FFFF00" r="3.3125"><title>2023-09-05: 10 km</title></circle><circle cx="156.08333333333334" cy="61.61290322580645" fill="#4eb6d9" r="3.3125"><title>2023-09-06: 7 km</title></circle><circle cx="156.08333333333334" cy="70.45161290322581" fill="#FFFF00" r="3.3125"><title>2023-09-07: 10 km</title></circle><circle cx="156.08333333333334" cy="79.29032258064517" fill="#FFFF00" r="3.3125"><title>2023-09-08: 20 km</title></circle><circle cx="156.08333333333334" cy="88.12903225806451" fill="#555555" r="3.3125"><title>2023-09-09</title></circle><circle cx="156.08333333333334" cy="96.96774193548387" fill="#FFFF00" r="3.3125"><title>2023-09-10: 19 km</title></circle><circle cx="156.08333333333334" cy="105.80645161290322" fill="#FFFF00" r="3.3125"><title>2023-09-11: 13 km</title></circle><circle cx="156.08333333333334" cy="114.64516129032258" fill="#FFFF00" r="3.3125"><title>2023-09-12: 10 km</title></circle><circle cx="156.08333333333334" cy="123.48387096774194" fill="#FFFF00" r="3.3125"><title>2023-09-13: 12 km</title></circle><circle cx="156.08333333333334" cy="132.32258064516128" fill="#555555" r="3.3125"><title>2023-09-14</title></circle><circle cx="156.08333333333334" cy="141.16129032258064" fill="#FFFF00" r="3.3125"><title>2023-09-15: 19 km</title></circle><circle cx="156.08333333333334" cy="149.99999999999997" fill="#FFFF00" r="3.3125"><title>2023-09-16: 12 km</title></circle><circle cx="156.08333333333334" cy="158.83870967741933" fill="#FFFF00" r="3.3125"><title>2023-09-17: 15 km</title></circle><circle cx="156.08333333333334" cy="167.6774193548387" fill="#FFFF00" r="3.3125"><title>2023-09-18: 11 km</title></circle><circle cx="156.08333333333334" cy="176.51612903225805" fill="#FFFF00" r="3.3125"><title>2023-09-19: 10 km</title></circle><circle cx="156.08333333333334" cy="185.35483870967738" fill="#4ec1e8" r="3.3125"><title>2023-09-20: 8 km</title></circle><circle cx="156.08333333333334" cy="194.19354838709674" fill="#FFFF00" r="3.3125"><title>2023-09-21: 12 km</title></circle><circle cx="156.08333333333334" cy="203.0322580645161" fill="#555555" r="3.3125"><title>2023-09-22</title></circle><circle cx="156.08333333333334" cy="211.87096774193546" fill="#555555" r="3.3125"><title>2023-09-23</title></circle><circle cx="156.08333333333334" cy="220.70967741935482" fill="#FFFF00" r="3.3125"><title>2023-09-24: 11 km</title></circle><circle cx="156.08333333333334" cy="229.54838709677418" fill="#FFFF00" r="3.3125"><title>2023-09-25: 14 km</title></circle><circle cx="156.08333333333334" cy="238.3870967741935" fill="#FFFF00" r="3.3125"><title>2023-09-26: 10 km</title></circle><circle cx="156.08333333333334" cy="247.22580645161287" fill="#555555" r="3.3125"><title>2023-09-27</title></circle><circle cx="156.08333333333334" cy="256.06451612903226" fill="#FFFF00" r="3.3125"><title>2023-09-28: 30 km</title></circle><circle cx="156.08333333333334" cy="264.90322580645164" fill="#555555" r="3.3125"><title>2023-09-29</title></circle><circle cx="156.08333333333334" cy="273.741935483871" fill="#FFFF00" r="3.3125"><title>2023-09-30: 24 km</title></circle><circle cx="164.91666666666666" cy="17.419354838709676" fill="#FFFF00" r="3.3125"><title>2023-10-01: 12 km</title></circle><circle cx="164.91666666666666" cy="26.25806451612903" fill="#555555" r="3.3125"><title>2023-10-02</title></circle><circle cx="164.91666666666666" cy="35.096774193548384" fill="#FFFF00" r="3.3125"><title>2023-10-03: 20 km</title></circle><circle cx="164.91666666666666" cy="43.935483870967744" fill="#FFFF00" r="3.3125"><title>2023-10-04: 10 km</title></circle><circle cx="164.91666666666666" cy="52.774193548387096" fill="#4dcaf4" r="3.3125"><title>2023-10-05: 9 km</title></circle><circle cx="164.91666666666666" cy="61.61290322580645" fill="#FFFF00" r="3.3125"><title>2023-10-06: 17 km</title></circle><circle cx="164.91666666666666" cy="70.45161290322581" fill="#FFFF00" r="3.3125"><title>2023-10-07: 10 km</title></circle><circle cx="164.91666666666666" cy="79.29032258064517" fill="#FFFF00" r="3.3125"><title>2023-10-08: 23 km</title></circle><circle cx="164.91666666666666" cy="88.12903225806451" fill="#FFFF00" r="3.3125"><title>2023-10-09: 10 km</title></circle><circle cx="164.91666666666666" cy="96.96774193548387" fill="#FFFF00" r="3.3125"><title>2023-10-10: 16 km</title></circle><circle cx="164.91666666666666" cy="105.80645161290322" fill="#555555" r="3.3125"><title>2023-10-11</title></circle><circle cx="164.91666666666666" cy="114.64516129032258" fill="#555555" r="3.3125"><title>2023-10-12</title></circle><circle cx="164.91666666666666" cy="123.48387096774194" fill="#4eb2d4" r="3.3125"><title>2023-10-13: 7 km</title></circle><circle cx="164.91666666666666" cy="132.32258064516128" fill="#FFFF00" r="3.3125"><title>2023-10-14: 13 km</title></circle><circle cx="164.91666666666666" cy="141.16129032258064" fill="#FFFF00" r="3.3125"><title>2023-10-15: 14 km</title></circle><circle cx="164.91666666666666" cy="149.99999999999997" fill="#FFFF00" r="3.3125"><title>2023-10-16: 10 km</title></circle><circle cx="164.91666666666666" cy="158.83870967741933" fill="#FFFF00" r="3.3125"><title>2023-10-17: 10 km</title></circle><circle cx="164.91666666666666" cy="167.6774193548387" fill="#555555" r="3.3125"><title>2023-10-18</title></circle><circle cx="164.91666666666666" cy="176.51612903225805" fill="#4faac9" r="3.3125"><title>2023-10-19: 6 km</title></circle><circle cx="164.91666666666666" cy="185.35483870967738" fill="#4fb0d2" r="3.3125"><title>2023-10-20: 7 km</title></circle><circle cx="164.91666666666666" cy="194.19354838709674" fill="#518495" r="3.3125"><title>2023-10-21: 3 km</title></circle><circle cx="164.91666666666666" cy="203.0322580645161" fill="#555555" r="3.3125"><title>2023-10-22</title></circle><circle cx="164.91666666666666" cy="211.87096774193546" fill="#555555" r="3.3125"><title>2023-10-23</title></circle><circle cx="164.91666666666666" cy="220.70967741935482" fill="#FFFF00" r="3.3125"><title>2023-10-24: 10 km</title></circle><circle cx="164.91666666666666" cy="229.54838709677418" fill="#555555" r="3.3125"><title>2023-10-25</title></circle><circle cx="164.91666666666666" cy="238.3870967741935" fill="#FFFF00" r="3.3125"><title>2023-10-26: 15 km</title></circle><circle cx="164.91666666666666" cy="247.22580645161287" fill="#FFFF00" r="3.3125"><title>2023-10-27: 25 km</title></circle><circle cx="164.91666666666666" cy="256.06451612903226" fill="#555555" r="3.3125"><title>2023-10-28</title></circle><circle cx="164.91666666666666" cy="264.90322580645164" fill="#FFFF00" r="3.3125"><title>2023-10-29: 18 km</title></circle><circle cx="164.91666666666666" cy="273.741935483871" fill="#FFFF00" r="3.3125"><title>2023-10-30: 11 km</title></circle><circle cx="164.91666666666666" cy="282.5806451612903" fill="#FFFF00" r="3.3125"><title>2023-10-31: 15 km</title></circle><circle cx="173.75" cy="17.419354838709676" fill="#555555" r="3.3125"><title>2023-11-01</title></circle><circle cx="173.75" cy="26.25806451612903" fill="#FFFF00" r="3.3125"><title>2023-11-02: 13 km</title></circle><circle cx="173.75" cy="35.096774193548384" fill="#FFFF00" r="3.3125"><title>2023-11-03: 26 km</title></circle><circle cx="173.75" cy="43.935483870967744" fill="#555555" r="3.3125"><title>2023-11-04</title></circle><circle cx="173.75" cy="52.774193548387096" fill="#555555" r="3.3125"><title>2023-11-05</title></circle><circle cx="173.75" cy="61.61290322580645" fill="#4dc6ef" r="3.3125"><title>2023-11-06: 9 km</title></circle><circle cx="173.75" cy="70.45161290322581" fill="#FFFF00" r="3.3125"><title>2023-11-07: 20 km</title></circle><circle cx="173.75" cy="79.29032258064517" fill="#555555" r="3.3125"><title>2023-11-08</title></circle><circle cx="173.75" cy="88.12903225806451" fill="#FFFF00" r="3.3125"><title>2023-11-09: 20 km</title></circle><circle cx="173.75" cy="96.96774193548387" fill="#FFFF00" r="3.3125"><title>2023-11-10: 20 km</title></circle><circle cx="173.75" cy="105.80645161290322" fill="#555555" r="3.3125"><title>2023-11-11</title></circle><circle cx="173.75" cy="114.64516129032258" fill="#FFFF00" r="3.3125"><title>2023-11-12: 11 km</title></circle><circle cx="173.75" cy="123.48387096774194" fill="#FFFF00" r="3.3125"><title>2023-11-13: 15 km</title></circle><circle cx="173.75" cy="132.32258064516128" fill="#FFFF00" r="3.3125"><title>2023-11-14: 20 km</title></circle><circle cx="173.75" cy="141.16129032258064" fill="#FFFF00" r="3.3125"><title>2023-11-15: 14 km</title></circle><circle cx="173.75" cy="149.99999999999997" fill="#FFFF00" r="3.3125"><title>2023-11-16: 15 km</title></circle><circle cx="173.75" cy="158.83870967741933" fill="#555555" r="3.3125"><title>2023-11-17</title></circle><circle cx="173.75" cy="167.6774193548387" fill="#555555" r="3.3125"><title>2023-11-18</title></circle><circle cx="173.75" cy="176.51612903225805" fill="#FFFF00" r="3.3125"><title>2023-11-19: 11 km</title></circle><circle cx="173.75" cy="185.35483870967738" fill="#FFFF00" r="3.3125"><title>2023-11-20: 12 km</title></circle><circle cx="173.75" cy="194.19354838709674" fill="#FFFF00" r="3.3125"><title>2023-11-21: 10 km</title></circle><circle cx="173.75" cy="203.0322580645161" fill="#555555" r="3.3125"><title>2023-11-22</title></circle><circle cx="173.75" cy="211.87096774193546" fill="#4faccc" r="3.3125"><title>2023-11-23: 7 km</title></circle><circle cx="173.75" cy="220.70967741935482" fill="#509ab3" r="3.3125"><title>2023-11-24: 5 km</title></circle><circle cx="173.75" cy="229.54838709677418" fill="#555555" r="3.3125"><title>2023-11-25</title></circle><circle cx="173.75" cy="238.3870967741935" fill="#FFFF00" r="3.3125"><title>2023-11-26: 44 km</title></circle><circle cx="173.75" cy="247.22580645161287" fill="#4fa5c2" r="3.3125"><title>2023-11-27: 6 km</title></circle><circle cx="173.75" cy="256.06451612903226" fill="#555555" r="3.3125"><title>2023-11-28</title></circle><circle cx="173.75" cy="264.90322580645164" fill="#555555" r="3.3125"><title>2023-11-29</title></circle><circle cx="173.75" cy="273.741935483871" fill="#555555" r="3.3125"><title>2023-11-30</title></circle><circle cx="182.58333333333334" cy="17.419354838709676" fill="#FFFF00" r="3.3125"><title>2023-12-01: 26 km</title></circle><circle cx="182.58333333333334" cy="26.25806451612903" fill="#555555" r="3.3125"><title>2023-12-02</title></circle><circle cx="182.58333333333334" cy="35.096774193548384" fill="#555555" r="3.3125"><title>2023-12-03</title></circle><circle cx="182.58333333333334" cy="43.935483870967744" fill="#555555" r="3.3125"><title>2023-12-04</title></circle><circle cx="182.58333333333334" cy="52.774193548387096" fill="#555555" r="3.3125"><title>2023-12-05</title></circle><circle cx="182.58333333333334" cy="61.61290322580645" fill="#555555" r="3.3125"><title>2023-12-06</title></circle><circle cx="182.58333333333334" cy="70.45161290322581" fill="#527a88" r="3.3125"><title>2023-12-07: 3 km</title></circle><circle cx="182.58333333333334" cy="79.29032258064517" fill="#518799" r="3.3125"><title>2023-12-08: 4 km</title></circle><circle cx="182.58333333333334" cy="88.12903225806451" fill="#4ebadf" r="3.3125"><title>2023-12-09: 8 km</title></circle><circle cx="182.58333333333334" cy="96.96774193548387" fill="#555555" r="3.3125"><title>2023-12-10</title></circle><circle cx="182.58333333333334" cy="105.80645161290322" fill="#FFFF00" r="3.3125"><title>2023-12-11: 12 km</title></circle><circle cx="182.58333333333334" cy="114.64516129032258" fill="#FFFF00" r="3.3125"><title>2023-12-12: 18 km</title></circle><circle cx="182.58333333333334" cy="123.48387096774194" fill="#555555" r="3.3125"><title>2023-12-13</title></circle><circle cx="182.58333333333334" cy="132.32258064516128" fill="#FFFF00" r="3.3125"><title>2023-12-14: 13 km</title></circle><circle cx="182.58333333333334" cy="141.16129032258064" fill="#FFFF00" r="3.3125"><title>2023-12-15: 18 km</title></circle><circle cx="182.58333333333334" cy="149.99999999999997" fill="#555555" r="3.3125"><title>2023-12-16</title></circle><circle cx="182.58333333333334" cy="158.83870967741933" fill="#555555" r="3.3125"><title>2023-12-17</title></circle><circle cx="182.58333333333334" cy="167.6774193548387" fill="#FFFF00" r="3.3125"><title>2023-12-18: 12 km</title></circle><circle cx="182.58333333333334" cy="176.51612903225805" fill="#FFFF00" r="3.3125"><title>2023-12-19: 21 km</title></circle><circle cx="182.58333333333334" cy="185.35483870967738" fill="#555555" r="3.3125"><title>2023-12-20</title></circle><circle cx="182.58333333333334" cy="194.19354838709674" fill="#FFFF00" r="3.3125"><title>2023-12-21: 15 km</title></circle><circle cx="182.58333333333334" cy="203.0322580645161" fill="#FFFF00" r="3.3125"><title>2023-12-22: 21 km</title></circle><circle cx="182.58333333333334" cy="211.87096774193546" fill="#555555" r="3.3125"><title>2023-12-23</title></circle><circle cx="182.58333333333334" cy="220.70967741935482" fill="#555555" r="3.3125"><title>2023-12-24</title></circle><circle cx="182.58333333333334" cy="229.54838709677418" fill="#FFFF00" r="3.3125"><title>2023-12-25: 15 km</title></circle><circle cx="182.58333333333334" cy="238.3870967741935" fill="#FFFF00" r="3.3125"><title>2023-12-26: 15 km</title></circle><circle cx="182.58333333333334" cy="247.22580645161287" fill="#555555" r="3.3125"><title>2023-12-27</title></circle><circle cx="182.58333333333334" cy="256.06451612903226" fill="#4ec1e7" r="3.3125"><title>2023-12-28: 8 km</title></circle><circle cx="182.58333333333334" cy="264.90322580645164" fill="#FFFF00" r="3.3125"><title>2023-12-29: 14 km</title></circle><circle cx="182.58333333333334" cy="273.741935483871" fill="#555555" r="3.3125"><title>2023-12-30</title></circle><circle cx="182.58333333333334" cy="282.5806451612903" fill="#FFFF00" r="3.3125"><title>2023-12-31: 15 km</title></circle></svg>