<?xml version="1.0" encoding="utf-8" ?>
<svg baseProfile="full" height="200mm" version="1.1" viewBox="0,0,200,200" width="200mm" xmlns="http://www.w3.org/2000/svg" xmlns:ev="http://www.w3.org/2001/xml-events" xmlns:xlink="http://www.w3.org/1999/xlink"><defs /><rect fill="#1a1a1a" height="200" width="200" x="0" y="0" /><text alignment-baseline="middle" fill="#e1ed5e" style="dominant-baseline: central; font-size:9.0px; font-family:Arial;" text-anchor="middle" x="100.0" y="100.0">2021</text><line stroke="#e1ed5e" stroke-width="0.3" x1="100.0" x2="100.0" y1="15.0" y2="10.0" /><path d="M 100.0 14.0 a86.0,86.0 0 0,1 42.46469731375804,11.215312516191453" fill="none" id="id1" stroke="none" /><text fill="#e1ed5e" style="font-size:6.75px; font-family:Arial;" text-anchor="middle"><textPath startOffset="22.20632615414155" xlink:href="#id1">January</textPath></text><line stroke="#e1ed5e" stroke-width="0.3" x1="143.23703022742887" x2="145.7803849466894" y1="26.81831364943548" y2="22.513508569990506" /><path d="M 143.74570117128098 25.957352633546492 a86.0,86.0 0 0,1 28.547481713284135,27.462654790039103" fill="none" id="id2" stroke="none" /><text fill="#e1ed5e" style="font-size:6.75px; font-family:Arial;" text-anchor="middle"><textPath startOffset="19.985693538727396" xlink:href="#id2">February</textPath></text><line stroke="#e1ed5e" stroke-width="0.3" x1="172.23445277983987" x2="176.4835382374775" y1="55.19839476539836" y2="52.563006222186495" /><path d="M 173.08426987136738 54.67131705675599 a86.0,86.0 0 0,1 12.851231095245387,41.99856678651699" fill="none" id="id3" stroke="none" /><text fill="#e1ed5e" style="font-size:6.75px; font-family:Arial;" text-anchor="middle"><textPath startOffset="22.20632615414155" xlink:href="#id3">March</textPath></text><line stroke="#e1ed5e" stroke-width="0.3" x1="184.98032266829074" x2="189.97916517819016" y1="98.17113171792111" y2="98.06355123074" /><path d="M 185.9800911702706 98.14961562048488 a86.0,86.0 0 0,1 -9.607161424134198,41.387399972396054" fill="none" id="id4" stroke="none" /><text fill="#e1ed5e" style="font-size:6.75px; font-family:Arial;" text-anchor="middle"><textPath startOffset="21.466115282336823" xlink:href="#id4">April</textPath></text><line stroke="#e1ed5e" stroke-width="0.3" x1="174.80103733775053" x2="179.2010983576182" y1="140.37084112569926" y2="142.7455964860345" /><path d="M 175.68104954172406 140.8457921977663 a86.0,86.0 0 0,1 -30.038265399797805,32.042727171017184" fill="none" id="id5" stroke="none" /><text fill="#e1ed5e" style="font-size:6.75px; font-family:Arial;" text-anchor="middle"><textPath startOffset="22.206326154141568" xlink:href="#id5">May</textPath></text><line stroke="#e1ed5e" stroke-width="0.3" x1="143.8653032363475" x2="146.44561519142675" y1="172.8068346515853" y2="177.08958963109032" /><path d="M 144.38136562736335 173.6633856474863 a86.0,86.0 0 0,1 -40.68145358897372,12.25698825130547" fill="none" id="id6" stroke="none" /><text fill="#e1ed5e" style="font-size:6.75px; font-family:Arial;" text-anchor="middle"><textPath startOffset="21.466115282336833" xlink:href="#id6">June</textPath></text><path d="M 103.7750983002368 120.6578951692458 l 4.639034278783619 25.385480375872138 a46.80587632601379,46.80587632601379 0 0,0 -0.7938076664124685,0.13801363788936946 l -4.2013776408991 -25.461572592282515" fill="#fdff18" stroke="none" /><path d="M 103.06178313531738 120.77559828337769 l 3.319500123596484 22.524325865526865 a43.767615965818635,43.767615965818635 0 0,0 -0.7462824718702119,0.1034279504598407 l -2.9312890605394415 -22.57812838147931" fill="#ffd614" stroke="none" /><path d="M 101.26447882468166 120.96189622390904 l 1.5401612326712673 25.532021017015218 a46.57843220050694,46.57843220050694 0 0,0 -0.80073189423699,0.041388692646435105 l -1.1004412700207977 -25.554749516423854" fill="#fffe18" stroke="none" /><line stroke="#e1ed5e" stroke-width="0.3" x1="102.19456741930631" x2="102.32365962044197" y1="184.97166512339345" y2="189.96999836594603" /><path d="M 102.22038585953345 185.97133177190398 a86.0,86.0 0 0,1 -42.740103519485714,-10.115201625700543" fill="none" id="id7" stroke="none" /><text fill="#e1ed5e" style="font-size:6.75px; font-family:Arial;" text-anchor="middle"><textPath startOffset="22.20632615414155" xlink:href="#id7">July</textPath></text><path d="M 99.45781275523022 120.99299961872073 l -0.5698581177462316 22.064390787450588 a43.07174843766791,43.07174843766791 0 0,0 -0.7409974346818526,-0.0255214499024039 l 0.9495759041027272 -22.05131253912209" fill="#ffcc13" stroke="none" /><path d="M 98.73552117531835 120.96189622390904 l -1.6509249888099593 27.36820705368891 a48.41795598968429,48.41795598968429 0 0,0 -0.83149133223081,-0.057344510504814046 l 2.121779081819699 -27.335734198667808" fill="#e7ff1a" stroke="none" /><path d="M 96.22490169976321 120.6578951692458 l -3.023588208213933 16.54552100970014 a37.81952291639924,37.81952291639924 0 0,0 -0.6393883541318889,-0.12254029982648178 l 3.3079441769175166 -16.49102351152519" fill="#ff7d0b" stroke="none" /><path d="M 94.46302465271185 120.25689768951611 l -7.806102257928991 28.55844660211725 a50.60608222624578,50.60608222624578 0 0,0 -0.8382989862307609,-0.23691166705105857 l 8.296532412264366 -28.41984614172767" fill="#c9ff1d" stroke="none" /><path d="M 93.76903079525671 120.05430185196036 l -5.174472511355562 16.653979542765377 a38.43932912647794,38.43932912647794 0 0,0 -0.6301828822509745,-0.201764658377252 l 5.460376738697477 -16.562442037728417" fill="#ff860c" stroke="none" /><line stroke="#e1ed5e" stroke-width="0.3" x1="58.666819895761336" x2="56.23545636021788" y1="174.27360380694188" y2="178.64263932499728" /><path d="M 58.180547188652646 175.14741091055294 a86.0,86.0 0 0,1 -31.652253787137756,-30.449443065178592" fill="none" id="id8" stroke="none" /><text fill="#e1ed5e" style="font-size:6.75px; font-family:Arial;" text-anchor="middle"><textPath startOffset="22.20632615414155" xlink:href="#id8">August</textPath></text><path d="M 89.1626897886671 117.98757091392108 l -10.063746547065156 16.703623975418022 a40.501026856956166,40.501026856956166 0 0,0 -0.5940551760020328,-0.36491720888712903 l 10.349780922999498 -16.527918299702517" fill="#ffa60f" stroke="none" /><path d="M 88.54995079064634 117.60387380957326 l -6.827362115487262 10.496725292247302 a33.521745697661125,33.521745697661125 0 0,0 -0.480997624814768,-0.3187789977284052 l 7.007034439041992 -10.377648273427578" fill="#ff3905" stroke="none" /><path d="M 86.51685102203217 116.09983520530335 l -13.13647699874673 15.685884299259333 a41.46005850891811,41.46005850891811 0 0,0 -0.5431949256637397,-0.46292250001288965 l 13.404537400987525 -15.457437409023493" fill="#ffb410" stroke="none" /><path d="M 85.18274418774928 114.88116024355367 l -18.11844575066607 18.196587681024866 a46.67866584643866,46.67866584643866 0 0,0 -0.5644992762668186,-0.5718347865379252 l 18.42898565198842 -17.882012400506277" fill="#ffff18" stroke="none" /><path d="M 84.19399662182784 113.82643327865904 l -6.848364198689416 5.990663698825957 a30.098799027911433,30.098799027911433 0 0,0 -0.3377622592310044,-0.39289381434691395 l 6.950468967491199 -5.871892785317513" fill="#ff0000" stroke="none" /><path d="M 83.50135304334701 112.99209946851258 l -12.843320601980892 10.113659574953605 a37.347384931031556,37.347384931031556 0 0,0 -0.3933803305465152,-0.5084971054335725 l 13.015507749745476 -9.89108447540678" fill="#ff750a" stroke="none" /><path d="M 83.06392112726016 112.41649034213515 l -14.467896184935462 10.606970751678112 a38.93956099086667,38.93956099086667 0 0,0 -0.3916581979663597,-0.5439789815812409 l 14.64833417527743 -10.356358164645734" fill="#ff8e0d" stroke="none" /><path d="M 82.05923443525364 110.91462005526583 l -14.173890614984943 8.622967075131381 a37.590802763710926,37.590802763710926 0 0,0 -0.3315493128426201,-0.5556957190050765 l 14.320220803525794 -8.377709262240193" fill="#ff790b" stroke="none" /><line stroke="#e1ed5e" stroke-width="0.3" x1="26.63291911575756" x2="22.317208475507996" y1="142.92168965132927" y2="145.44649492493687" /><path d="M 25.769776987707644 143.4266507060508 a86.0,86.0 0 0,1 -11.730757126820373,-40.83630448921669" fill="none" id="id9" stroke="none" /><text fill="#e1ed5e" style="font-size:6.75px; font-family:Arial;" text-anchor="middle"><textPath startOffset="21.46611528233685" xlink:href="#id9">September</textPath></text><path d="M 81.69416730710424 110.29060199501025 l -18.450273953859803 10.371799477428802 a42.16569945389166,42.16569945389166 0 0,0 -0.3502234617493339,-0.6357573123561397 l 18.62607382506065 -10.05267164667484" fill="#ffbe11" stroke="none" /><path d="M 81.18737489456691 109.33194174019688 l -37.51950707744549 18.611429941614492 a62.88196193835846,62.88196193835846 0 0,0 -0.47265299569747987,-0.9738051663297514 l 37.83431332975769 -17.96283581931946" fill="#33ff2f" stroke="none" /><path d="M 80.87730276802145 108.67885076344099 l -22.958984300653448 10.419952583484983 a46.212900903302,46.212900903302 0 0,0 -0.32251964894327606,-0.7271966656663974 l 23.134945034328002 -10.02320758132589" fill="#fff917" stroke="none" /><path d="M 80.58989483394504 108.01547362559985 l -23.9932266540744 9.908090337145788 a46.9585280669538,46.9585280669538 0 0,0 -0.30209401810316855,-0.7497725783819512 l 24.160223286434956 -9.493618390921032" fill="#fbff18" stroke="none" /><path d="M 79.76711848015287 105.62410040840567 l -25.187426353304186 7.00130699136206 a47.142393652655784,47.142393652655784 0 0,0 -0.21059612544804476,-0.7837065264738122 l 25.304210555094006 -6.566709531712708" fill="#f8ff18" stroke="none" /><path d="M 79.07016306316243 101.71520430193888 l -19.36446103065558 1.5869214349228842 a40.4293764863517,40.4293764863517 0 0,0 -0.050870631324981624,-0.6940893475245712 l 19.388908220644897 -1.2533589509015524" fill="#ffa50f" stroke="none" /><path d="M 79.04373962182676 101.35467743843564 l -25.726816234220998 1.663060912889697 a46.780512895389776,46.780512895389776 0 0,0 -0.04502880347470051,-0.8040195346800457 l 25.751631388583228 -1.2199696618742137" fill="#fdff18" stroke="none" /><line stroke="#e1ed5e" stroke-width="0.3" x1="15.007084014347285" x2="10.007500721073583" y1="101.09737516637583" y2="101.16192664675087" /><path d="M 14.007167355692545 101.11028546245083 a86.0,86.0 0 0,1 10.666146001902534,-42.60595125391555" fill="none" id="id10" stroke="none" /><text fill="#e1ed5e" style="font-size:6.75px; font-family:Arial;" text-anchor="middle"><textPath startOffset="22.20632615414155" xlink:href="#id10">October</textPath></text><path d="M 79.00486145842228 99.54816195383935 l -25.218127836495512 -0.5427213346035549 a46.22396713494655,46.22396713494655 0 0,0 0.02396669893511995,-0.7953380585858162 l 25.205049443104745 0.9767295406143655" fill="#fff917" stroke="none" /><path d="M 79.03285615573316 98.82574320788736 l -27.28133978822508 -1.5278808969976045 a48.324090482136874,48.324090482136874 0 0,0 0.053661391918699716,-0.8301179818880087 l 27.250997805301967 1.997257943138625" fill="#e8ff1a" stroke="none" /><path d="M 79.05617556472873 98.46500227214037 l -25.16753807005474 -1.844558708594545 a46.235042487325174,46.235042487325174 0 0,0 0.06500540452694092,-0.7932305878804915 l 25.132058181708302 2.277503213682815" fill="#fff917" stroke="none" /><path d="M 79.12142395522702 97.74499172005258 l -25.805515495657502 -2.7871465461164755 a46.9555931518844,46.9555931518844 0 0,0 0.09370915873821777,-0.8028428448502064 l 25.753715983915693 3.2309331292915435" fill="#fbff18" stroke="none" /><path d="M 79.21141760316559 97.0276538004421 l -29.231769158230303 -4.179550885444238 a50.52905304482489,50.52905304482489 0 0,0 0.13051920656069677,-0.8599584956289276 l 29.155494058230307 4.6821084934652575" fill="#caff1d" stroke="none" /><path d="M 79.26566170972629 96.67025291283419 l -27.535732997152014 -4.421989525619535 a48.88853856076247,48.88853856076247 0 0,0 0.14058513508005907,-0.8297414253107335 l 27.45553600055173 4.895316739246097" fill="#e0ff1b" stroke="none" /><path d="M 79.32604984820605 96.31383870115002 l -25.355806576337546 -4.5209353905069305 a46.755694204229485,46.755694204229485 0 0,0 0.14809148348029538,-0.7911106263913746 l 25.27422936894739 4.956724094360878" fill="#feff18" stroke="none" /><path d="M 79.46518482838121 95.60439243477599 l -28.751130476937647 -6.15436202259263 a50.40244336117363,50.40244336117363 0 0,0 0.1889026286350596,-0.8468134440877993 l 28.640933461300552 6.6483536362303886" fill="#ccff1d" stroke="none" /><path d="M 79.71946130924805 94.55025226153421 l -41.50103114399372 -11.152078062113455 a63.97329904857444,63.97329904857444 0 0,0 0.2949267465912596,-1.0610084257913426 l 41.3029176268361 11.86479779132374" fill="#30ff3a" stroke="none" /><path d="M 79.91906864156998 93.8553929516997 l -24.689553712590865 -7.554809239367656 a46.81955083207576,46.81955083207576 0 0,0 0.24244616216305084,-0.7686205884451498 l 24.55585206665961 7.97867999423922" fill="#fdff18" stroke="none" /><path d="M 80.14247586403 93.16781622104843 l -23.927301727195978 -8.232432281852683 a46.3039267549439,46.3039267549439 0 0,0 0.2657997960341295,-0.7514518163739634 l 23.782048850352037 8.643081724653259" fill="#fffa17" stroke="none" /><path d="M 80.52162464483688 92.15188598940014 l -39.737539826495286 -16.010819042791546 a63.84178331819668,63.84178331819668 0 0,0 0.4194657889724539,-1.0157696797247187 l 39.45605235063663 16.692463292969578" fill="#30ff38" stroke="none" /><path d="M 80.803312248108 91.48605970444005 l -23.914903549576664 -10.606520438668001 a47.16143894363299,47.16143894363299 0 0,0 0.3355147479453869,-0.7392622729324967 l 23.728786484667925 11.01660472044257" fill="#f8ff18" stroke="none" /><path d="M 81.10775173730289 90.83032412892265 l -38.09348385481302 -18.489324028123136 a63.343460123303956,63.343460123303956 0 0,0 0.48454726731874104,-0.9768177234395417 l 37.76957657454087 19.142301340061636" fill="#2fff31" stroke="none" /><line stroke="#e1ed5e" stroke-width="0.3" x1="26.266209847984243" x2="21.928928074336255" y1="57.711370442889674" y2="55.22380399835377" /><path d="M 25.398753493254645 57.213857153982495 a86.0,86.0 0 0,1 29.58750427330803,-30.492523968695096" fill="none" id="id11" stroke="none" /><text fill="#e1ed5e" style="font-size:6.75px; font-family:Arial;" text-anchor="middle"><textPath startOffset="21.46611528233685" xlink:href="#id11">November</textPath></text><path d="M 81.96595687620814 89.24020034530311 l -21.876873844214117 -13.052579392154017 a46.47483931223401,46.47483931223401 0 0,0 0.4158041944740681,-0.6834727673638393 l 21.648953851453832 13.427219932724931" fill="#fffc17" stroke="none" /><path d="M 82.34701348167596 88.62581576622439 l -21.245106904266585 -13.688661674587163 a46.273187883902324,46.273187883902324 0 0,0 0.4371788651848257,-0.6658534047944175 l 21.00633140372384 14.052333143359247" fill="#fff917" stroke="none" /><path d="M 83.39014120810768 87.1503855733568 l -22.34589341834982 -17.287089435391074 a49.25212228862567,49.25212228862567 0 0,0 0.5245255319970409,-0.6660941592344913 l 22.04501380575881 17.669175988578612" fill="#dcff1b" stroke="none" /><path d="M 83.84228863543731 86.58626213691792 l -19.878844295213295 -16.50293165787299 a46.836315600676514,46.836315600676514 0 0,0 0.5203054920478694,-0.6158775897844304 l 19.591828189678303 16.84266819728653" fill="#fdff18" stroke="none" /><path d="M 84.31358615837235 86.03803664274999 l -9.878893721809499 -8.792879847913007 a34.22525149804879,34.22525149804879 0 0,0 0.3954749965484177,-0.4366933687571727 l 9.726075084645036 8.961626003939736" fill="#ff4406" stroke="none" /><path d="M 85.31137513191541 84.99185889309783 l -31.691846853813562 -32.38122790880364 a66.30912797535896,66.30912797535896 0 0,0 0.8226018542394741,-0.7913423320317706 l 31.12976175596166 32.92195332759772" fill="#34ff59" stroke="none" /><path d="M 85.57189188830299 84.74124197986013 l -17.38035994702892 -18.38097584808383 a46.296979760756585,46.296979760756585 0 0,0 0.5837654878455929,-0.5425463998912885 l 17.06138657538847 18.677426834049765" fill="#fffa17" stroke="none" /><path d="M 86.93701828274178 83.55741782278169 l -15.793069534470199 -19.87898699329672 a46.38887884882416,46.38887884882416 0 0,0 0.6294914416461136,-0.4913280550325852 l 15.44854553766466 20.14789343755253" fill="#fffb17" stroke="none" /><path d="M 89.00827224532344 82.1063720568725 l -13.60804422073582 -22.15277577411562 a46.99854499797528,46.99854499797528 0 0,0 0.6929777316166622,-0.41751132951828285 l 13.224704422901508 22.38373371309252" fill="#faff18" stroke="none" /><line stroke="#e1ed5e" stroke-width="0.3" x1="56.762969772571076" x2="54.21961505331055" y1="26.818313649435495" y2="22.513508569990535" /><path d="M 56.25429882871897 25.957352633546506 a86.0,86.0 0 0,1 42.265352541879196,-11.944610805530505" fill="none" id="id12" stroke="none" /><text fill="#e1ed5e" style="font-size:6.75px; font-family:Arial;" text-anchor="middle"><textPath startOffset="22.20632615414155" xlink:href="#id12">December</textPath></text><path d="M 90.58718382345135 81.22770947309562 l -28.23844852964592 -56.31687158071317 a84.0,84.0 0 0,0 1.298114931958296,-0.6369793594606814 l 27.264862330677197 56.79460610030868" fill="#4dd2ff" stroke="none" /><path d="M 91.23893434514133 80.91482961587045 l -10.609331143086807 -23.111445628212213 a46.43023449222364,46.43023449222364 0 0,0 0.7292153133007667,-0.327177654961872 l 10.209933711319266 23.290643613690612" fill="#fffc17" stroke="none" /><path d="M 93.59665428221793 80.00007090966166 l -7.96127435889997 -24.865895059290796 a47.10928238227433,47.10928238227433 0 0,0 0.7744196837838984,-0.24061596543351307 l 7.5320693024053424 24.999251159606835" fill="#f9ff18" stroke="none" /><path d="M 96.04723909329186 79.375362276772 l -4.911199531377287 -25.625559833189975 a47.09193740605323,47.09193740605323 0 0,0 0.7974344142052233,-0.14572604212350618 l 4.469369996069171 25.70630135666422" fill="#f9ff18" stroke="none" /><path d="M 96.75951476605007 79.25152402106235 l -3.9160224175247538 -25.073867398542014 a46.377826106548696,46.377826106548696 0 0,0 0.7898166302851353,-0.11639844040183475 l 3.4838368068109697 25.137560323104818" fill="#fffb17" stroke="none" /><path d="M 97.83486435360386 79.11191278185805 l -4.435548422230442 -42.79183267711515 a64.021099865905,64.021099865905 0 0,0 1.097123103704088,-0.10418505845031197 l 3.698300191436118 42.86184328008065" fill="#30ff3a" stroke="none" /><path d="M 99.27714615592234 79.0124445844662 l -0.8854836625885448 -25.70939836647016 a46.724642770747465,46.724642770747465 0 0,0 0.8040495893991563,-0.02076622871682757 l 0.44280743799450945 25.720831387329348" fill="#feff18" stroke="none" /></svg>