<?xml version="1.0" encoding="utf-8" ?>
<svg baseProfile="full" height="200mm" version="1.1" viewBox="0,0,200,200" width="200mm" xmlns="http://www.w3.org/2000/svg" xmlns:ev="http://www.w3.org/2001/xml-events" xmlns:xlink="http://www.w3.org/1999/xlink"><defs /><rect fill="#1a1a1a" height="200" width="200" x="0" y="0" /><rect fill="#1a1a1a" height="200" width="180" x="10" y="0" /><text alignment-baseline="middle" fill="#e1ed5e" style="dominant-baseline: central; font-size:9.0px; font-family:Arial;" text-anchor="middle" x="100.0" y="100.0">2019</text><line stroke="#e1ed5e" stroke-width="0.3" x1="100.0" x2="100.0" y1="15.0" y2="10.0" /><path d="M 100.0 14.0 a86.0,86.0 0 0,1 42.46469731375804,11.215312516191453" fill="none" id="id13" stroke="none" /><text fill="#e1ed5e" style="font-size:6.75px; font-family:Arial;" text-anchor="middle"><textPath startOffset="22.20632615414155" xlink:href="#id13">January</textPath></text><path d="M 102.16513564639614 79.11191278185805 l 3.333793224730413 -32.162679396706444 a53.334998426481846,53.334998426481846 0 0,0 0.91236701443089,0.10251506467294977 l -3.8869269426710282 32.10052837856289" fill="red" stroke="none" /><path d="M 104.307194497241 79.44645832069477 l 7.6659965317688785 -36.58144050147933 a58.37605238636585,58.37605238636585 0 0,0 0.9817108397828527,0.214563965651228 l -8.29455009570526 36.44406303773223" fill="red" stroke="none" /><path d="M 105.71112130821622 79.79150937346287 l 9.466054434235689 -33.49511627941416 a55.807025169114766,55.807025169114766 0 0,0 0.9221706501637018,0.2692069003670143 l -10.041215302122819 33.32721105012845" fill="red" stroke="none" /><path d="M 107.08798089147638 80.2323363322302 l 12.254807917957155 -34.1774230128942 a57.308078452437215,57.308078452437215 0 0,0 0.9257101470037371,0.3409468595307753 l -12.841300390733469 33.9614128855571" fill="red" stroke="none" /><path d="M 109.73455568895987 81.39251694778311 l 16.13303969401481 -30.83810625559211 a55.8032148974753,55.8032148974753 0 0,0 0.8472919757002448,0.45259402983972763 l -16.661476716243364 30.555833499250628" fill="red" stroke="none" /><line stroke="#e1ed5e" stroke-width="0.3" x1="143.23703022742887" x2="145.7803849466894" y1="26.81831364943548" y2="22.513508569990506" /><path d="M 143.74570117128098 25.957352633546492 a86.0,86.0 0 0,1 28.547481713284135,27.462654790039103" fill="none" id="id14" stroke="none" /><text fill="#e1ed5e" style="font-size:6.75px; font-family:Arial;" text-anchor="middle"><textPath startOffset="19.985693538727396" xlink:href="#id14">February</textPath></text><path d="M 110.68208982089419 81.91981866633111 l 4.470481543809535 -7.56660150926632 a29.78855298860814,29.78855298860814 0 0,0 0.43922219036947824,0.2646264552069794 l -4.600065800396651 7.4885284446007265" fill="red" stroke="none" /><path d="M 110.99172775467656 82.1063720568725 l 20.29699682732222 -33.04183998156441 a59.77797402618704,59.77797402618704 0 0,0 0.8721345881720008,0.546130599103526 l -20.862750567866485 32.68756504113794" fill="red" stroke="none" /><path d="M 114.94478906791727 85.2469230424477 l 21.009653766230645 -20.740141426962634 a50.52217840518042,50.52217840518042 0 0,0 0.6056303704833799,0.6241553331956488 l -21.363548400417134 20.37542189821687" fill="red" stroke="none" /><path d="M 115.19652480421416 85.50635884689758 l 21.339574081387934 -20.352556461455773 a50.48904841617967,50.48904841617967 0 0,0 0.5944067929092884,0.6340717228605328 l -21.686748196267683 19.982215321717185" fill="red" stroke="none" /><path d="M 115.68641384162765 86.03803664274999 l 17.086985070341107 -15.208565950547833 a43.874998077950146,43.874998077950146 0 0,0 0.49726697752659077,0.5684621166017048 l -17.346243911445548 14.91218827774318" fill="red" stroke="none" /><path d="M 115.9244219780498 86.31012108654704 l 20.582023329144388 -17.693917402982386 a48.14211482889657,48.14211482889657 0 0,0 0.5348116397079065,0.6330482931394125 l -20.883545582339412 17.337010160213868" fill="red" stroke="none" /><path d="M 116.60985879189232 87.15038557335679 l 21.16069186295958 -16.37020126701868 a47.75366086429713,47.75366086429713 0 0,0 0.4973749796857113,0.6544871716266093 l -21.439342782869407 16.00352931951104" fill="red" stroke="none" /><path d="M 117.2510076193507 88.02491185347247 l 20.596994433232684 -14.297763315275946 a46.07313732866848,46.07313732866848 0 0,0 0.44663635952388153,0.6553837455692321 l -20.8400552584253 13.941101546436308" fill="red" stroke="none" /><path d="M 117.45458315368197 88.32363383020206 l 21.49846625202686 -14.381550211627752 a46.865286344425186,46.865286344425186 0 0,0 0.44277288074515486,0.6743734742761467 l -21.74283576812994 14.009358673373931" fill="red" stroke="none" /><path d="M 117.65298651832404 88.62581576622439 l 19.45753349229364 -12.536891162664215 a44.14668982010639,44.14668982010639 0 0,0 0.4060915328730547,0.6423392819126102 l -19.670452621412647 12.200104233037399" fill="red" stroke="none" /><line stroke="#e1ed5e" stroke-width="0.3" x1="172.23445277983987" x2="176.4835382374775" y1="55.19839476539836" y2="52.563006222186495" /><path d="M 173.08426987136738 54.67131705675599 a86.0,86.0 0 0,1 12.851231095245387,41.99856678651699" fill="none" id="id15" stroke="none" /><text fill="#e1ed5e" style="font-size:6.75px; font-family:Arial;" text-anchor="middle"><textPath startOffset="22.20632615414155" xlink:href="#id15">March</textPath></text><path d="M 118.03404312379186 89.2402003453031 l 21.56407330103169 -12.865950628242343 a46.11059423631065,46.11059423631065 0 0,0 0.40081156582203786,0.6851168909678446 l -21.782344541324058 12.492854324920604" fill="red" stroke="none" /><path d="M 118.21658344932153 89.55222093294921 l 22.736327693583714 -13.039993432329288 a47.21034196085989,47.21034196085989 0 0,0 0.3982357776351212,0.7084170120706804 l -22.95742111251127 12.646692910323814" fill="red" stroke="none" /><path d="M 118.56541770881063 90.18545643968196 l 20.945222744513245 -11.072619223053234 a44.69188156892574,44.69188156892574 0 0,0 0.353684244337177,0.6832053846254904 l -21.13271642201054 10.710441116167399" fill="red" stroke="none" /><path d="M 118.89224826269711 90.83032412892265 l 20.93543336707833 -10.161370712859734 a44.27113716670374,44.27113716670374 0 0,0 0.326851288905005,0.688432171905003 l -21.107242849825088 9.799496125314189" fill="red" stroke="none" /><path d="M 119.04729006885535 91.15688171328212 l 22.26967852701636 -10.339182146629723 a45.552744635943256,45.552744635943256 0 0,0 0.32407021450334506,0.7140457605233477 l -22.44435105848305 9.954314377264312" fill="red" stroke="none" /><path d="M 119.196687751892 91.48605970444005 l 23.492225602227624 -10.419058161087076 a46.69905517154423,46.69905517154423 0 0,0 0.3195756223676243,0.737624597495174 l -23.66809193443793 10.013134419005299" fill="red" stroke="none" /><path d="M 119.34039704204932 91.81776055985345 l 21.36507791260183 -9.038810462795498 a44.198419101177734,44.198419101177734 0 0,0 0.2904011099941607,0.703229322260283 l -21.51750070948219 8.669706570081912" fill="red" stroke="none" /><path d="M 119.47837535516314 92.15188598940014 l 21.027327113430534 -8.472208668092906 a43.669953799046866,43.669953799046866 0 0,0 0.27492616993343505,0.6996571148497351 l -21.17004683324567 8.109002548347386" fill="red" stroke="none" /><path d="M 119.61058180528143 92.48833698450437 l 9.699822217249617 -3.7154326439501157 a31.387058812675484,31.387058812675484 0 0,0 0.18891334354056225,0.5061938388834644 l -9.762340149291806 3.547915668037318" fill="red" stroke="none" /><path d="M 119.7369772167798 92.82701384747503 l 34.082183260608424 -12.386447321240272 a57.263194744141856,57.263194744141856 0 0,0 0.32870960520924797,0.9293063184380264 l -34.29034594662748 11.797943376375631" fill="red" stroke="none" /><path d="M 120.96714384426684 98.82574320788733 l 23.65494271190487 -1.324785929490609 a44.69201073067623,44.69201073067623 0 0,0 0.03640566878055843,0.7684661284539476 l -23.674241988918926 0.9174086944136617" fill="red" stroke="none" /><line stroke="#e1ed5e" stroke-width="0.3" x1="184.98032266829074" x2="189.97916517819016" y1="98.17113171792111" y2="98.06355123074" /><path d="M 185.9800911702706 98.14961562048488 a86.0,86.0 0 0,1 -9.607161424134198,41.387399972396054" fill="none" id="id16" stroke="none" /><text fill="#e1ed5e" style="font-size:6.75px; font-family:Arial;" text-anchor="middle"><textPath startOffset="21.466115282336823" xlink:href="#id16">April</textPath></text><path d="M 120.99824983174949 100.27111621757518 l 24.63936052904809 0.3181279527404437 a45.641414177654816,45.641414177654816 0 0,0 -0.01690457421149577,0.7854891383593282 l -24.630233892151587 -0.7422069068898867" fill="red" stroke="none" /><path d="M 120.92983693683757 101.71520430193887 l 36.55886426256815 2.996006201404777 a57.681420492229286,57.681420492229286 0 0,0 -0.08961331575575049,0.9888754720075437 l -36.501876350535326 -3.624863061960891" fill="red" stroke="none" /><path d="M 120.81339534386255 102.79330883721812 l 26.867008016172846 3.6057476294138433 a48.10788696501665,48.10788696501665 0 0,0 -0.11721360429291196,0.8197916754231357 l -26.800960360863332 -4.067684776817388" fill="red" stroke="none" /><path d="M 120.5718875245553 104.21870165774334 l 38.113520059375894 7.81598528890454 a59.90668371055057,59.90668371055057 0 0,0 -0.21585222903759788,1.008389753156482 l -37.973333791613854 -8.47088886147719" fill="red" stroke="none" /><path d="M 120.32669344350535 105.2749913415812 l 27.245600917558985 7.070520807319067 a49.148091122589875,49.148091122589875 0 0,0 -0.21955604630189418,0.8170497251433558 l -27.119856794915314 -7.538461465637972" fill="red" stroke="none" /><path d="M 120.02730092923936 106.31721596034902 l 24.76651441927213 7.812107119398153 a46.96939071532033,46.96939071532033 0 0,0 -0.24984975752127728,0.7689584854904695 l -24.62837241073461 -8.237264504866419" fill="red" stroke="none" /><path d="M 119.12269723197855 108.67885076344098 l 44.97167556841357 20.410429350282794 a70.38660982182854,70.38660982182854 0 0,0 -0.5102204118796734,1.0989693758501116 l -44.613680539694066 -21.181518793411733" fill="red" stroke="none" /><path d="M 118.64920377521936 109.65438752849418 l 23.098037585405294 11.957475969753771 a47.00962460059804,47.00962460059804 0 0,0 -0.3781980078838286,0.7154081032756482 l -22.888787069296573 -12.353299088115554" fill="red" stroke="none" /><line stroke="#e1ed5e" stroke-width="0.3" x1="174.80103733775053" x2="179.2010983576182" y1="140.37084112569926" y2="142.7455964860345" /><path d="M 175.68104954172406 140.8457921977663 a86.0,86.0 0 0,1 -30.038265399797805,32.042727171017184" fill="none" id="id17" stroke="none" /><text fill="#e1ed5e" style="font-size:6.75px; font-family:Arial;" text-anchor="middle"><textPath startOffset="22.206326154141568" xlink:href="#id17">May</textPath></text><path d="M 117.35343817320211 111.8261652097733 l 11.672626517830876 7.954758489589658 a35.125451937990064,35.125451937990064 0 0,0 -0.34479660942939316,0.4967052320293351 l -11.533969001239345 -8.154504983806012" fill="red" stroke="none" /><path d="M 115.32070863581623 114.36230785411682 l 33.951781279864605 31.827896902699425 a67.53749534863934,67.53749534863934 0 0,0 -0.8023886964647226,0.8413013403355275 l -33.39888603202092 -32.407605359617456" fill="red" stroke="none" /><path d="M 114.81725581225074 114.88116024355365 l 17.97120524070037 18.04871214651929 a46.46998680704977,46.46998680704977 0 0,0 -0.5716915859379772,0.5595205419691415 l -17.6578637023866 -18.355382791411003" fill="red" stroke="none" /><path d="M 114.55890576462653 115.13401014063108 l 22.56737027184341 23.458824176970392 a53.55153810117876,53.55153810117876 0 0,0 -0.6698128605921425,0.6333498673006615 l -22.160221576860458 -23.843808681016977" fill="red" stroke="none" /><path d="M 113.48314897796784 116.09983520530334 l 33.22455584277974 39.67247374572679 a72.7472345546636,72.7472345546636 0 0,0 -0.9669488680939266,0.7957330888975224 l -32.536736846141125 -40.23850195348149" fill="red" stroke="none" /><line stroke="#e1ed5e" stroke-width="0.3" x1="143.8653032363475" x2="146.44561519142675" y1="172.8068346515853" y2="177.08958963109032" /><path d="M 144.38136562736335 173.6633856474863 a86.0,86.0 0 0,1 -40.68145358897372,12.25698825130547" fill="none" id="id18" stroke="none" /><text fill="#e1ed5e" style="font-size:6.75px; font-family:Arial;" text-anchor="middle"><textPath startOffset="21.466115282336833" xlink:href="#id18">June</textPath></text><path d="M 109.89434966115114 118.52300852407294 l 15.28064463512158 28.606580576085697 a53.43199890110003,53.43199890110003 0 0,0 -0.8149883497246014,0.4263633858477422 l -14.785965382870485 -28.865373380878157" fill="red" stroke="none" /><path d="M 107.59598834532513 119.57807347666477 l 9.545510709303667 24.602816847929038 a47.3896830514156,47.3896830514156 0 0,0 -0.7630410984959859,0.2885168526197915 l -9.120599390047406 -24.76348195065546" fill="red" stroke="none" /><path d="M 106.57524785965236 119.94407469862006 l 8.576965002963027 26.01569315070483 a48.393076110099116,48.393076110099116 0 0,0 -0.7933668166712701,0.2540110009998279 l -8.127876841200816 -26.159476998364365" fill="red" stroke="none" /><path d="M 106.2309692047433 120.05430185196036 l 8.456370554027854 27.216730189166487 a49.50018605442631,49.50018605442631 0 0,0 -0.8158691982524234,0.2458146967563694 l -7.986626381335185 -27.358260255028583" fill="red" stroke="none" /><path d="M 105.88484417918355 120.15858648285463 l 7.258055524432345 24.862534254378378 a46.900289178808045,46.900289178808045 0 0,0 -0.7769118481994359,0.21956304866385795 l -6.8290125081283035 -24.983786096380754" fill="red" stroke="none" /><path d="M 105.18746579009965 120.34920634021253 l 6.391995473120536 25.07429254887393 a46.87620051234161,46.87620051234161 0 0,0 -0.7836064863607679,0.19259140929638374 l -5.959435702016558 -25.180605216484345" fill="red" stroke="none" /><path d="M 104.13013068566511 120.58985236759428 l 5.163475182310134 25.74136263448086 a47.25412779427609,47.25412779427609 0 0,0 -0.7988926529588269,0.15310967832009842 l -4.719614914779602 -25.826429511149428" fill="red" stroke="none" /><path d="M 102.70371172650421 120.8252237178851 l 5.28856247400042 40.734925838218494 a62.07679486141252,62.07679486141252 0 0,0 -1.0608409209821879,0.1284530618632159 l -4.586594129966852 -40.81992442880706" fill="red" stroke="none" /><path d="M 101.98527174616119 120.90594882070398 l 2.446428946770265 25.762175104523585 a46.87807335772372,46.87807335772372 0 0,0 -0.8039716425291926,0.06937005625366345 l -2.0026129864995306 -25.800469413055914" fill="red" stroke="none" /><line stroke="#e1ed5e" stroke-width="0.3" x1="102.19456741930631" x2="102.32365962044197" y1="184.97166512339345" y2="189.96999836594603" /><path d="M 102.22038585953345 185.97133177190398 a86.0,86.0 0 0,1 -42.740103519485714,-10.115201625700543" fill="none" id="id19" stroke="none" /><text fill="#e1ed5e" style="font-size:6.75px; font-family:Arial;" text-anchor="middle"><textPath startOffset="22.20632615414155" xlink:href="#id19">July</textPath></text><path d="M 100.18074693466247 120.99922214144158 l 0.44795018744136117 52.0429600200301 a73.04488780866839,73.04488780866839 0 0,0 -1.2573942442075976,0.0 l 0.44795018744132536 -52.0429600200301" fill="red" stroke="none" /><path d="M 99.81925306533755 120.99922214144158 l -0.44700469102701706 51.933112020255855 a72.93503573987644,72.93503573987644 0 0,0 -1.2553172350242994,-0.021611424620794448 l 1.3408816159439843 -51.9177231183559" fill="red" stroke="none" /><path d="M 99.09653310690486 120.98055641714683 l -1.184837750573476 27.514627775579697 a48.54012676303226,48.54012676303226 0 0,0 -0.8344554724845894,-0.043131816437399884 l 1.6582812914715543 -27.4901561523801" fill="red" stroke="none" /><path d="M 98.37488393609728 120.93702456842531 l -2.1386650077505895 27.55328238118139 a48.636158524521775,48.636158524521775 0 0,0 -0.834123278849032,-0.07197166630680822 l 2.6126326043411634 -27.512386462595916" fill="red" stroke="none" /><path d="M 95.86986931433489 120.58985236759428 l -12.390392056995301 61.76955710278283 a84.0,84.0 0 0,0 -1.415234154282453,-0.29657607709383527 l 13.451817672707142 -61.54712504496245" fill="red" stroke="none" /><path d="M 95.16358092515715 120.4354850818985 l -6.2792422964843295 26.531894835767737 a48.2648184918623,48.2648184918623 0 0,0 -0.80681933304921,-0.1982965622466485 l 6.735014914276751 -26.419877015207057" fill="red" stroke="none" /><path d="M 94.81253420990036 120.34920634021253 l -7.255590228378235 28.461971346217304 a50.37222161286123,50.37222161286123 0 0,0 -0.8383606128815552,-0.22141865760305632 l 7.7444412840712795 -28.332861339310664" fill="red" stroke="none" /><path d="M 93.42475214034765 119.94407469862007 l -8.595891603200116 26.073101409218722 a48.45352380932855,48.45352380932855 0 0,0 -0.7898622736085682,-0.26796416807029033 l 9.04342360974591 -25.92127425425031" fill="red" stroke="none" /><path d="M 90.7491055286396 118.85261126421891 l -4.429608450892068 9.027201254527613 a31.055436018291765,31.055436018291765 0 0,0 -0.47787822831043025,-0.2396180642641353 l 4.584340586885259 -8.949615349354175" fill="red" stroke="none" /><line stroke="#e1ed5e" stroke-width="0.3" x1="58.666819895761336" x2="56.23545636021788" y1="174.27360380694188" y2="178.64263932499728" /><path d="M 58.180547188652646 175.14741091055294 a86.0,86.0 0 0,1 -31.652253787137756,-30.449443065178592" fill="none" id="id20" stroke="none" /><text fill="#e1ed5e" style="font-size:6.75px; font-family:Arial;" text-anchor="middle"><textPath startOffset="22.20632615414155" xlink:href="#id20">August</textPath></text><path d="M 82.24976979558568 111.22182372390057 l -17.114965779428374 10.820204966669774 a41.24842930085565,41.24842930085565 0 0,0 -0.374251635236637,-0.6034128003163517 l 17.298682054332968 -10.523995834988158" fill="red" stroke="none" /><line stroke="#e1ed5e" stroke-width="0.3" x1="26.63291911575756" x2="22.317208475507996" y1="142.92168965132927" y2="145.44649492493687" /><path d="M 25.769776987707644 143.4266507060508 a86.0,86.0 0 0,1 -11.730757126820373,-40.83630448921669" fill="none" id="id21" stroke="none" /><text fill="#e1ed5e" style="font-size:6.75px; font-family:Arial;" text-anchor="middle"><textPath startOffset="21.46611528233685" xlink:href="#id21">September</textPath></text><path d="M 79.58551787078972 104.9243191809786 l -47.4731648928098 11.451332195634128 a69.83476624285895,69.83476624285895 0 0,0 -0.2718216319553934,-1.1710004762307802 l 47.66324709069575 -10.632463062054773" fill="red" stroke="none" /><path d="M 79.35854240842038 103.8639653848113 l -38.69659939762642 7.243786923426063 a60.368759872929445,60.368759872929445 0 0,0 -0.18241012311945712,-1.0230528419173701 l 38.81555596308507 -6.576615330775479" fill="red" stroke="none" /><path d="M 79.04373962182676 101.35467743843564 l -30.46476280265056 1.9693364222095804 a51.52834844149946,51.52834844149946 0 0,0 -0.04959885498768935,-0.8856208744314252 l 30.494148008525784 -1.4446438314427175" fill="red" stroke="none" /><line stroke="#e1ed5e" stroke-width="0.3" x1="15.007084014347285" x2="10.007500721073583" y1="101.09737516637583" y2="101.16192664675087" /><path d="M 14.007167355692545 101.11028546245083 a86.0,86.0 0 0,1 10.666146001902534,-42.60595125391555" fill="none" id="id22" stroke="none" /><text fill="#e1ed5e" style="font-size:6.75px; font-family:Arial;" text-anchor="middle"><textPath startOffset="22.20632615414155" xlink:href="#id22">October</textPath></text><path d="M 79.12142395522702 97.74499172005258 l -32.40820309349817 -3.5002754094598365 a53.5966801329751,53.5966801329751 0 0,0 0.10696275926440695,-0.916391600321152 l 32.34314998123018 4.05761074810585" fill="red" stroke="none" /><path d="M 79.16333360222342 97.38593545837743 l -32.451955407899895 -4.0712609358260785 a53.70633845914132,53.70633845914132 0 0,0 0.12297217281284023,-0.9162855230846523 l 32.37706723602922 4.62926480097539" fill="red" stroke="none" /><path d="M 79.26566170972629 96.67025291283419 l -32.21963914889218 -5.1741824650311035 a53.6324579378609,53.6324579378609 0 0,0 0.1542268712839218,-0.9102557246003432 l 32.12580041608803 5.728023977947275" fill="red" stroke="none" /><path d="M 79.3925641242962 95.95851677861259 l -38.162839944352775 -7.484408940824981 a59.88982810211159,59.88982810211159 0 0,0 0.20710673734787086,-1.0099260037688993 l 38.02835391108991 8.140210600757284" fill="red" stroke="none" /><path d="M 80.2630227832202 92.82701384747504 l -27.495981432684346 -9.992831825283275 a50.25552397129329,50.25552397129329 0 0,0 0.3024794110675207,-0.8104944383592546 l 27.319897433115198 10.46464940067187" fill="red" stroke="none" /><path d="M 80.95270993114464 91.15688171328213 l -15.350242816497332 -7.126683767896474 a37.92393500498708,37.92393500498708 0 0,0 0.27999025618101053,-0.5897308859349544 l 15.22529436647457 7.389857069471961" fill="red" stroke="none" /><path d="M 81.10775173730289 90.83032412892265 l -9.33632680097293 -4.531545923012981 a31.37795290926592,31.37795290926592 0 0,0 0.2400263785187096,-0.4838785324855659 l 9.256940409500809 4.6915840439975085" fill="red" stroke="none" /><line stroke="#e1ed5e" stroke-width="0.3" x1="26.266209847984243" x2="21.928928074336255" y1="57.711370442889674" y2="55.22380399835377" /><path d="M 25.398753493254645 57.213857153982495 a86.0,86.0 0 0,1 29.58750427330803,-30.492523968695096" fill="none" id="id23" stroke="none" /><text fill="#e1ed5e" style="font-size:6.75px; font-family:Arial;" text-anchor="middle"><textPath startOffset="21.46611528233685" xlink:href="#id23">November</textPath></text><path d="M 83.6137871275137 86.86637796730984 l -39.541238952274185 -31.692477764366902 a71.67467537859257,71.67467537859257 0 0,0 0.7798938763782601,-0.9560576767497906 l 38.989846583819535 32.36841961072477" fill="red" stroke="none" /><path d="M 83.84228863543731 86.58626213691792 l -13.377849804268228 -11.10596460088422 a38.387044461369875,38.387044461369875 0 0,0 0.42644238344930785,-0.5047732751522146 l 13.184696807331797 11.334596825665551" fill="red" stroke="none" /><path d="M 87.80319425747018 82.90503203632743 l -22.602901386898683 -31.680087659979254 a59.91682290796406,59.91682290796406 0 0,0 0.8447383561013599,-0.5917932021209701 l 22.054231891213664 32.06446570486417" fill="red" stroke="none" /><path d="M 88.39885842347998 82.49532879139004 l -5.594579145007135 -8.441519986455711 a31.127120789813855,31.127120789813855 0 0,0 0.44916876150995433,-0.29215185692801976 l 5.448443357712893 8.536570767543267" fill="red" stroke="none" /><line stroke="#e1ed5e" stroke-width="0.3" x1="56.762969772571076" x2="54.21961505331055" y1="26.818313649435495" y2="22.513508569990535" /><path d="M 56.25429882871897 25.957352633546506 a86.0,86.0 0 0,1 42.265352541879196,-11.944610805530505" fill="none" id="id24" stroke="none" /><text fill="#e1ed5e" style="font-size:6.75px; font-family:Arial;" text-anchor="middle"><textPath startOffset="22.20632615414155" xlink:href="#id24">December</textPath></text><path d="M 89.63071344664047 81.73862282372117 l -10.755243180384964 -18.94108638322638 a42.78164386005017,42.78164386005017 0 0,0 0.6435090821566035,-0.3581121075076519 l 10.427610009156314 19.123413888294216" fill="red" stroke="none" /><path d="M 89.94658935756843 81.56283822128135 l -16.361581327323254 -30.00584902145802 a55.17678040759758,55.17678040759758 0 0,0 0.8377804642658305,-0.4475133098359686 l 15.842655816529117 30.283041057795735" fill="red" stroke="none" /><path d="M 91.90106846888425 80.62456947434976 l -12.808431478532354 -30.642174625307145 a54.21142548443345,54.21142548443345 0 0,0 0.8640685029641628,-0.35247523782712353 l 12.279079105979811 30.858110749317845" fill="red" stroke="none" /><path d="M 94.63758080256005 79.69619591428918 l -8.259437473248266 -31.272825592425004 a53.34513762389534,53.34513762389534 0 0,0 0.8898251210250452,-0.22683623613207154 l 7.7199034635382215 31.41036482472594" fill="red" stroke="none" /><path d="M 94.98787191387505 79.60689891045804 l -8.17278868310763 -33.253042008137434 a55.242652900347615,55.242652900347615 0 0,0 0.9253836552234648,-0.2190084132446147 l 7.599181340921632 33.38879633352292" fill="red" stroke="none" /><path d="M 95.33964822691252 79.52364482259891 l -2.628740114875846 -11.549989975460491 a32.84535955658566,32.84535955658566 0 0,0 0.5523608431048529,-0.12072468609315679 l 2.429536547617472 11.593528159649516" fill="red" stroke="none" /></svg>