<?xml version="1.0" encoding="utf-8" ?>
<svg baseProfile="full" height="200mm" version="1.1" viewBox="0,0,200,200" width="200mm" xmlns="http://www.w3.org/2000/svg" xmlns:ev="http://www.w3.org/2001/xml-events" xmlns:xlink="http://www.w3.org/1999/xlink"><defs /><rect fill="#1a1a1a" height="200" width="200" x="0" y="0" /><rect fill="#1a1a1a" height="200" width="180" x="10" y="0" /><text alignment-baseline="middle" fill="#e1ed5e" style="dominant-baseline: central; font-size:9.0px; font-family:Arial;" text-anchor="middle" x="100.0" y="100.0">2024</text><line stroke="#e1ed5e" stroke-width="0.3" x1="100.0" x2="100.0" y1="15.0" y2="10.0" /><path d="M 100.0 14.0 a86.0,86.0 0 0,1 42.35913384403234,11.155469271406648" fill="none" id="id73" stroke="none" /><text fill="#e1ed5e" style="font-size:6.75px; font-family:Arial;" text-anchor="middle"><textPath startOffset="22.145653131862478" xlink:href="#id73">January</textPath></text><path d="M 100.0 79.0 l 0.0 -6.865602957203155 a27.865602957203155,27.865602957203155 0 0,0 0.47835012917709824,0.004106060546552836 l -0.11785720432824343 6.864591294851037" fill="#ff5207" stroke="none" /><path d="M 100.36049292484886 79.00309439819443 l 0.1560074033944565 -9.086649130852175 a30.087988266779973,30.087988266779973 0 0,0 0.5163481132258692,0.013299295783846586 l -0.31196883069106707 9.082632117718283" fill="#ff700a" stroke="none" /><path d="M 100.72087961077811 79.0123766808444 l 0.3475220223483953 -10.117724500886577 a31.123691057705074,31.123691057705074 0 0,0 0.533807226381118,0.02292397913193482 l -0.5211550093303495 10.110267953328812" fill="#ff7e0b" stroke="none" /><path d="M 101.08105385017728 79.02784411241856 l 0.605662538371808 -11.749691440365234 a32.76529115892076,32.76529115892076 0 0,0 0.5614654798839016,0.03377636902803563 l -0.8072723703881719 11.737563093512506" fill="#ff940d" stroke="none" /><path d="M 101.44090949804482 79.04949213459386 l 0.5446188799391211 -7.918638986900731 a28.937345471204488,28.937345471204488 0 0,0 0.4952847224405416,0.038338169916403826 l -0.6804725971548962 7.908123049989274" fill="#ff6108" stroke="none" /><path d="M 102.15924093988457 79.11130261209362 l 1.5598659892292452 -15.090288449439468 a36.170695020058915,36.170695020058915 0 0,0 0.6170791161825696,0.06914500207212199 l -1.8186810070126116 15.061287686860375" fill="#ffc111" stroke="none" /><path d="M 102.51750503828377 79.15144685158666 l 0.8600393690002996 -7.1223597258634355 a28.17409755863634,28.17409755863634 0 0,0 0.47966022502023775,0.062101619261122246 l -0.9821774159113291 7.106546510401916" fill="#ff5608" stroke="none" /><path d="M 102.87502721639298 79.19773525538626 l 1.5852528749711037 -11.47010011045455 a32.57912877644314,32.57912877644314 0 0,0 0.553340824558647,0.08132204587231637 l -1.7819188051374326 11.441196991283352" fill="#ff920d" stroke="none" /><path d="M 103.23170211078529 79.25015418208739 l 1.6911752248116732 -10.85855811053969 a31.989465768679754,31.989465768679754 0 0,0 0.541874887582528,0.08916530654412695 l -1.8773276154472718 10.827926805499894" fill="#ff8a0c" stroke="none" /><path d="M 103.58742460773223 79.30868818359171 l 1.537514575972096 -8.867975495608244 a30.000274465927966,30.000274465927966 0 0,0 0.5066693017618983,0.09233202482348284 l -1.689518611285048 8.840275296853395" fill="#ff6f0a" stroke="none" /><path d="M 104.9986988182912 79.60360301121754 l 2.6205371973438556 -10.692686025674243 a32.00912120227187,32.00912120227187 0 0,0 0.53256273888479,0.13537536565412353 l -2.80370522945404 10.646125428184853" fill="#ff8a0c" stroke="none" /><path d="M 105.3480935250658 79.69241777938227 l 3.3294425909435694 -12.642435822694617 a34.07349882385512,34.07349882385512 0 0,0 0.5643522202936514,0.15381670720388677 l -3.5459762121719134 12.583418621346588" fill="#ffa60f" stroke="none" /><path d="M 105.69591212413111 79.78721728523813 l 0.6846452837403063 -2.42956458164114 a23.52418763583711,23.52418763583711 0 0,0 0.38774581033340333,0.11286715432006565 l -0.7262511064553141 2.4174537330185584" fill="#ff1402" stroke="none" /><path d="M 106.04205211174951 79.88797359093562 l 3.7030037995695637 -12.326095312051892 a33.870309350649435,33.870309350649435 0 0,0 0.5554075377348451,0.1720666749319868 l -3.914051970176039 12.260712049313259" fill="#ffa30f" stroke="none" /><path d="M 106.72888874123014 80.10723608172694 l 1.1486450121247842 -3.3957648775038263 a24.58477397713827,24.58477397713827 0 0,0 0.39861779213301995,0.1386599602285326 l -1.2067685763028224 3.375546484706703" fill="#ff2403" stroke="none" /><path d="M 107.40779381753099 80.34994680014964 l 4.125611050512776 -10.943673463563899 a32.69549722830226,32.69549722830226 0 0,0 0.5234825266533935,0.20249428699502153 l -4.312865839659696 10.87123928843084" fill="#ff930d" stroke="none" /><path d="M 107.74402155503746 80.48000691201159 l 3.3900246652260653 -8.545076684384675 a30.19296485214948,30.19296485214948 0 0,0 0.4801336150385321,0.19526616136073252 l -3.5362127414550373 8.48562326644465" fill="#ff720a" stroke="none" /><path d="M 108.07796709384702 80.6158196554323 l 5.1404344338665044 -12.335171331830761 a34.36340218486669,34.36340218486669 0 0,0 0.5425570886816004,0.23158535871943545 l -5.351426597718534 12.245111323451924" fill="#ffa90f" stroke="none" /><path d="M 108.4095320186766 80.7573450057729 l 3.1501627218924804 -7.208188790818318 a28.866480205179435,28.866480205179435 0 0,0 0.45236055915513185,0.20233512431606673 l -3.273436683903244 7.1530499155923986" fill="#ff6008" stroke="none" /><path d="M 109.3889696526874 81.21577127319529 l 4.2952812844173165 -8.593439863698402 a30.607114551376313,30.607114551376313 0 0,0 0.467957681159102,0.2389425263303259 l -4.442166187289997 8.518439385695242" fill="#ff770b" stroke="none" /><path d="M 109.71004243097381 81.37971332152246 l 4.1795125638593 -8.014766430588498 a30.039071092117045,30.039071092117045 0 0,0 0.45517944689972817,0.24235741738979832 l -4.316480826545588 7.941838545476126" fill="#ff700a" stroke="none" /><path d="M 110.02825361518725 81.54914285379988 l 5.217478582474527 -9.599572934893175 a31.92583558776691,31.92583558776691 0 0,0 0.4792764389055392,0.26584656150445296 l -5.381499209536167 9.508593457955575" fill="#ff890c" stroke="none" /><line stroke="#e1ed5e" stroke-width="0.3" x1="143.13028292997686" x2="145.6673583964461" y1="26.7553504044142" y2="22.446841604673864" /><path d="M 143.63769802327073 25.89364864446614 a86.0,86.0 0 0,1 29.32050498858742,28.57503671076993" fill="none" id="id74" stroke="none" /><text fill="#e1ed5e" style="font-size:6.75px; font-family:Arial;" text-anchor="middle"><textPath startOffset="20.669276256404974" xlink:href="#id74">February</textPath></text><path d="M 110.65571695917076 81.90426304109057 l 4.35976627720098 -7.403836274635091 a29.592109960505702,29.592109960505702 0 0,0 0.4355215168163234,0.261518157298637 l -4.486220550574737 7.327904116800532" fill="#ff6a09" stroke="none" /><path d="M 111.27062007382361 82.28071324371311 l 9.509130613281991 -14.949932748692788 a38.71790208266469,38.71790208266469 0 0,0 0.5577486508986862,0.36152593698449975 l -9.764364896437684 14.784492970004393" fill="#ffe115" stroke="none" /><path d="M 111.8722381534696 82.67804972795209 l 5.265465264118098 -7.682471180684177 a30.313725779175442,30.313725779175442 0 0,0 0.4267088640541321,0.29787592699022036 l -5.3965692193459915 7.5909504378888295" fill="#ff730a" stroke="none" /><path d="M 112.16784306229584 82.88440491214696 l 6.8648932532697025 -9.656332074859042 a32.847848265349256,32.847848265349256 0 0,0 0.45677121246840485,0.3306671326356723 l -7.029645476112075 9.537064170850295" fill="#ff950d" stroke="none" /><path d="M 112.7482090630111 83.31218511350987 l 4.34282009444061 -5.684890910020632 a28.15388503063282,28.15388503063282 0 0,0 0.38153884283815603,0.2966869119080096 l -4.439768881913992 5.6095029464918325" fill="#ff5607" stroke="none" /><path d="M 113.03279911837588 83.53348406188908 l 3.928559679203591 -4.963606818754323 a27.330163805483128,27.330163805483128 0 0,0 0.36537725878352173,0.2943220559769356 l -4.013187708342373 4.89543646898398" fill="#ff4a06" stroke="none" /><path d="M 113.31354834802062 83.75963576809568 l 8.995657827167536 -10.973239875641571 a35.18921608517718,35.18921608517718 0 0,0 0.46387038919524803,0.386977176788767 l -9.182702550524676 10.817200514940934" fill="#ffb410" stroke="none" /><path d="M 113.86319453409587 84.22622945171908 l 6.293305320537384 -7.160626208647973 a30.533113843728103,30.533113843728103 0 0,0 0.39072931094252816,0.3493925592013002 l -6.415299658303288 7.051538119563286" fill="#ff760a" stroke="none" /><path d="M 114.13192950727249 84.46653392183569 l 6.1211984424282955 -6.728269364366757 a30.096080420217426,30.096080420217426 0 0,0 0.3791679466347727,0.35095219075638784 l -6.235796160377033 6.6221994274779945" fill="#ff710a" stroke="none" /><path d="M 114.39649973595853 84.71141617570332 l 8.620256359840969 -9.154413528392322 a33.57426366664033,33.57426366664033 0 0,0 0.41620498091614516,0.3987149567801044 l -8.776133826622427 9.005086441306638" fill="#ff9f0e" stroke="none" /><path d="M 114.91283532996326 85.21462403516908 l 6.600607777555693 -6.54419266545931 a30.294863133784173,30.294863133784173 0 0,0 0.36298035341856083,0.37244981943126704 l -6.711974932125066 6.429920153960301" fill="#ff730a" stroke="none" /><path d="M 115.16444852881244 85.47280134310134 l 9.628427616510745 -9.223815852773033 a34.333619060564686,34.333619060564686 0 0,0 0.4040644598828625,0.4291024539741749 l -9.785347910129868 9.057171938854363" fill="#ffa90f" stroke="none" /><path d="M 115.41159269507618 85.73525988315684 l 1.0636900647267615 -0.9845356439404866 a22.44939538704514,22.44939538704514 0 0,0 0.25934642550509046,0.28506715243685127 l -1.0804341910737294 0.9661309159459637" fill="#ff0500" stroke="none" /><path d="M 115.6541949942343 86.00192230759917 l 13.63261731124174 -12.190370462602283 a39.28806678602892,39.28806678602892 0 0,0 0.44524405778718446,0.5066060054374465 l -13.839872432987514 11.954552179353538" fill="#ffe815" stroke="none" /><path d="M 115.8921839302757 86.27271002978787 l 2.707922388971888 -2.339038864219951 a24.578260257866464,24.578260257866464 0 0,0 0.27305913036653967,0.32166296897436875 l -2.74767608284554 2.29220911279603" fill="#ff2303" stroke="none" /><path d="M 116.1254893667686 86.54754324733833 l 2.758644849643326 -2.3013596481764527 a24.592544729953755,24.592544729953755 0 0,0 0.2676525867165361,0.326492636092324 l -2.7977442555984893 2.2536647303856334" fill="#ff2403" stroke="none" /><path d="M 116.35404254752997 86.82634096563983 l 5.573240047931784 -4.489407673650906 a28.15652051573293,28.15652051573293 0 0,0 0.2999789921761472,0.3790136570740427 l -5.64948547074949 4.393074072662185" fill="#ff5607" stroke="none" /><path d="M 116.57777611688842 87.10902102172516 l 8.035524797947042 -6.248472685320849 a31.17905052927937,31.17905052927937 0 0,0 0.3249273122049022,0.4253402819830643 l -8.14160408750625 6.109611490096904" fill="#ff7f0b" stroke="none" /><path d="M 117.01052211995028 87.68569379921539 l 14.952105864986581 -10.824171572725971 a39.4588233653604,39.4588233653604 0 0,0 0.39249297289509494,0.5520905196185721 l -15.135713936411637 10.565903826397895" fill="#ffea16" stroke="none" /><path d="M 117.21940702142032 87.97951657250589 l 5.985472499975443 -4.178324660203194 a28.299608072631326,28.299608072631326 0 0,0 0.27465478901457824,0.40072954533008587 l -6.056317025805346 4.07496037980306" fill="#ff5808" stroke="none" /><path d="M 117.42321728460499 88.27688183743584 l 8.892232387353781 -5.983090797934207 a31.717703687219036,31.717703687219036 0 0,0 0.3000729798192596,0.4543487372378532 l -8.993629806093765 5.829562182357296" fill="#ff860c" stroke="none" /><path d="M 117.62189284568427 88.57770195909679 l 3.050599837333859 -1.977361958258189 a24.63539814621563,24.63539814621563 0 0,0 0.22697684290690817,0.3568452969011995 l -3.0840943718666574 1.9247029866783174" fill="#ff2403" stroke="none" /><path d="M 117.81537515405839 88.88188828441811 l 7.283067652227355 -4.545172868344476 a29.584967724462057,29.584967724462057 0 0,0 0.2651827950617484,0.4331561664726226 l -7.360018411744505 4.4194795857472995" fill="#ff6a09" stroke="none" /><line stroke="#e1ed5e" stroke-width="0.3" x1="172.87174338648825" x2="177.1583165268699" y1="56.24261187166439" y2="53.66864786411523" /><path d="M 173.72905801456457 55.72781907015455 a86.0,86.0 0 0,1 12.242430191666344,42.057860355516425" fill="none" id="id75" stroke="none" /><text fill="#e1ed5e" style="font-size:6.75px; font-family:Arial;" text-anchor="middle"><textPath startOffset="22.145653131862474" xlink:href="#id75">March</textPath></text><path d="M 118.18653347947321 89.5 l 21.659508824984396 -12.505123250619821 a46.010246501239635,46.010246501239635 0 0,0 0.3890421259886729,0.6874001593254607 l -21.870984315994445 12.13146632119524" fill="#c5ff1e" stroke="none" /><path d="M 118.36410011445183 89.81374322990088 l 0.9902198497405754 -0.5492582585284798 a22.132351529067712,22.132351529067712 0 0,0 0.18143748760366757,0.3338245414606272 l -0.9995026869595842 0.5321788835932493" fill="#ff0000" stroke="none" /><path d="M 118.53625476483649 90.13048839642627 l 3.152150164181272 -1.6783424168624552 a24.57111802182282,24.57111802182282 0 0,0 0.1950384338334374,0.3740119136570683 l -3.180496666989654 1.6239842601008887" fill="#ff2303" stroke="none" /><path d="M 118.70294669586156 90.45014215332178 l 3.7466250737138136 -1.9130534583988474 a25.206777029707283,25.206777029707283 0 0,0 0.19346811949050544,0.3870658381363771 l -3.7789131064160557 1.8484557640987198" fill="#ff2c04" stroke="none" /><path d="M 118.8641267826498 90.77261029715802 l 10.167098346789274 -4.973237281209941 a32.31825860494898,32.31825860494898 0 0,0 0.23949482788312476,0.5004520787312522 l -10.250972432632311 4.7979727004135855" fill="#ff8e0d" stroke="none" /><path d="M 119.0197475246899 91.09779779509293 l 6.935420079720208 -3.2461267871981736 a28.657505520778408,28.657505520778408 0 0,0 0.20471766793423293,0.4473450500930798 l -6.990122212509492 3.1265927548904098" fill="#ff5d08" stroke="none" /><path d="M 119.4528033332814 92.08871423366111 l 14.07223765924194 -5.723056548031178 a36.19148606918196,36.19148606918196 0 0,0 0.22911162442771899,0.5775109603482046 l -14.168407958635784 5.4806445704694084" fill="#ffc111" stroke="none" /><path d="M 119.58574465831526 92.42381321644754 l 7.851215633141435 -3.037018870220638 a29.41813937495458,29.41813937495458 0 0,0 0.17814688894116443,0.47255578804006637 l -7.90219320589704 2.901794801986414" fill="#ff6709" stroke="none" /><path d="M 119.71291397450082 92.76114493625339 l 9.19548257385129 -3.3767085718235466 a30.79586956553778,30.79586956553778 0 0,0 0.17797054732488424,0.49781529549299425 l -9.252093291220119 3.2183583199496355" fill="#ff7a0b" stroke="none" /><path d="M 119.83427380445688 93.10060997987247 l 3.3728825063268686 -1.173263620974377 a24.57111802182282,24.57111802182282 0 0,0 0.13515820665650136,0.3995712219404878 l -3.392526134555735 1.1151907245597277" fill="#ff2303" stroke="none" /><path d="M 119.94978838288452 93.4421083053983 l 12.562049322601046 -4.129395126343232 a34.22335007828684,34.22335007828684 0 0,0 0.17867079585178122,0.5596837232239998 l -12.631084834230084 3.9131423694278453" fill="#ffa80f" stroke="none" /><path d="M 120.16314734710363 94.1308016681162 l 19.22175653925692 -5.595173187696259 a41.01953764338181,41.01953764338181 0 0,0 0.19099772596063422,0.6777835489245504 l -19.314972757292136 5.264381714868696" fill="#fffd18" stroke="none" /><path d="M 120.35273937422433 94.82641323984039 l 3.51977633961868 -0.8947133815527606 a24.63171275241711,24.63171275241711 0 0,0 0.10065277130595833,0.41069765477073145 l -3.5346166374409296 0.8341599021739341" fill="#ff2403" stroke="none" /><path d="M 120.43855184770803 95.1765574152323 l 17.42055694605457 -4.111204005551558 a38.89910061109198,38.89910061109198 0 0,0 0.14779646304479435,0.651218486452923 l -17.488564270657033 3.8115511851596096" fill="#ffe315" stroke="none" /><path d="M 120.51834098615036 95.52812308129327 l 4.898251182109022 -1.0675510470406204 a26.013235470339485,26.013235470339485 0 0,0 0.09134645392607679,0.4371258498248471 l -4.915855346859465 0.983308745930369" fill="#ff3805" stroke="none" /><path d="M 120.592083275326 95.88100663000786 l 7.858649396189626 -1.5719499735504696 a29.0143244912829,29.0143244912829 0 0,0 0.09350032929779692,0.4892332323644931 l -7.88447601776958 1.436814176152662" fill="#ff6209" stroke="none" /><path d="M 120.65975698304385 96.23510406497455 l 7.05829110012355 -1.2862557624899182 a28.174533235035003,28.174533235035003 0 0,0 0.08262541768336859,0.47656145234736885 l -7.079331335299153 1.1649012772219567" fill="#ff5608" stroke="none" /><path d="M 120.77682067341334 96.94652285012252 l 26.58676769733134 -3.9073392858795364 a47.87235599806684,47.87235599806684 0 0,0 0.11251253685359808,0.8140846686151155 l -26.64992475074015 3.4503663090643353" fill="#b0ff20" stroke="none" /><path d="M 120.86939407059847 97.66154086499901 l 22.777885626404274 -2.5523095945614678 a43.920435377104965,43.920435377104965 0 0,0 0.07752502193299408,0.7499842621711712 l -22.81834304081893 2.160920810107365" fill="#deff1b" stroke="none" /><path d="M 120.93736805541906 98.37931529534042 l 22.120250223912745 -1.7122472655706695 a43.186420636663456,43.186420636663456 0 0,0 0.0508695703814428,0.7396323890101418 l -22.146383755459254 1.3322714524061934" fill="#e7ff1a" stroke="none" /><path d="M 120.96210409425399 98.7389718711861 l 5.1184294140930815 -0.3079120033703652 a26.127682660702863,26.127682660702863 0 0,0 0.02308991720789102,0.44793822531213057 l -5.122960920757545 0.22000198468150395" fill="#ff3905" stroke="none" /><path d="M 120.99303781780057 99.45929381324524 l 25.438393513088773 -0.6552027807031489 a46.44682996387955,46.44682996387955 0 0,0 0.013687589726504613,0.7972334811400363 l -25.445892534413943 0.21842238359404614" fill="#c0ff1e" stroke="none" /><line stroke="#e1ed5e" stroke-width="0.3" x1="184.99686870605535" x2="189.99668451229388" y1="99.2704041080226" y2="99.22748670261217" /><path d="M 185.99683186730306 99.26182062694052 a86.0,86.0 0 0,1 -10.086455211305974,41.156179273409016" fill="none" id="id76" stroke="none" /><text fill="#e1ed5e" style="font-size:6.75px; font-family:Arial;" text-anchor="middle"><textPath startOffset="21.40746469413373" xlink:href="#id76">April</textPath></text><path d="M 120.99922638620191 99.81974689727618 l 3.5924123850883567 -0.0308365397261096 a24.592544729953755,24.592544729953755 0 0,0 0.0,0.4221792848998725 l -3.5924123850883567 -0.030836539726109162" fill="#ff2403" stroke="none" /><path d="M 120.99922638620191 100.18025310272382 l 23.682303732252873 0.2032840947984421 a44.68317619091401,44.68317619091401 0 0,0 -0.013167852011724986,0.7669613648720158 l -23.675324448642478 -0.609792375639529" fill="#d5ff1c" stroke="none" /><path d="M 120.99303781780057 100.54070618675476 l 7.761707837936578 0.19991406123208108 a28.764281949630913,28.764281949630913 0 0,0 -0.016950809163698143,0.4935043138458879 l -7.7571323417760345 -0.33312463964207967" fill="#ff5e08" stroke="none" /><path d="M 120.98066250479742 100.90099992219065 l 9.19471079414866 0.3948604439063402 a30.20318539192794,30.20318539192794 0 0,0 -0.026691576867745034,0.5178094605221878 l -9.186577627824343 -0.5526416978052585" fill="#ff720a" stroke="none" /><path d="M 120.96210409425399 101.26102812881392 l 21.525959427269306 1.2949482654718047 a42.56487468720124,42.56487468720124 0 0,0 -0.050137447298414545,0.7289874800618218 l -21.500558018805826 -1.6642791696879702" fill="#eeff19" stroke="none" /><path d="M 120.93736805541906 101.62068470465957 l 9.729033746609815 0.7530887426973555 a30.758137132519202,30.758137132519202 0 0,0 -0.04526774244439369,0.526079784758769 l -9.714672381467679 -0.9199895748317818" fill="#ff7a0b" stroke="none" /><path d="M 120.86939407059847 102.33845913500097 l 8.1739940990313 0.915913088116588 a29.22514901481923,29.22514901481923 0 0,0 -0.06014523662718729,0.4980888392980676 l -8.157066776144449 -1.0560956043380643" fill="#ff6509" stroke="none" /><path d="M 120.82617615685814 102.69636545807757 l 7.527335138044853 0.9745642361194581 a28.590161377122875,28.590161377122875 0 0,0 -0.06719434459678365,0.486184804676997 l -7.509496276892858 -1.10363734899654" fill="#ff5c08" stroke="none" /><path d="M 120.7213421655516 103.40968896794604 l 15.333502894027667 2.5231220661300724 a36.53970578748991,36.53970578748991 0 0,0 -0.10715735474774418,0.6180551462261108 l -15.287930721787689 -2.785970245276771" fill="#ffc612" stroke="none" /><path d="M 120.51834098615036 104.47187691870673 l 59.02920452398361 12.865140384332163 a81.41488909071059,81.41488909071059 0 0,0 -0.30933446937743486,1.3629847481169872 l -58.799659193048505 -13.876559466388166" fill="#4aeaff" stroke="none" /><path d="M 120.35273937422433 105.17358676015961 l 3.5561796556916634 0.9039669621444522 a24.66927377177064,24.66927377177064 0 0,0 -0.10785232538840535,0.40953284665732925 l -3.5401378494985276 -0.9648803131745847" fill="#ff2503" stroke="none" /><path d="M 120.26092885502905 105.52220625578681 l 4.403267948817911 1.200130259913147 a25.563888831889564,25.563888831889564 0 0,0 -0.11903217135333202,0.4224031837566693 l -4.382017285389999 -1.2755413675728247" fill="#ff3204" stroke="none" /><path d="M 120.16314734710363 105.8691983318838 l 6.083782955954201 1.770900552475437 a27.336284701772534,27.336284701772534 0 0,0 -0.13502000222363467,0.44943767452667766 l -6.052486633726938 -1.8750758305928383" fill="#ff4a06" stroke="none" /><path d="M 119.94978838288452 106.5578916946017 l 14.326841417796942 4.709517341259204 a36.081045673239075,36.081045673239075 0 0,0 -0.19847079905583126,0.5867436514586896 l -14.243885197168746 -4.954762667192054" fill="#ffc011" stroke="none" /><path d="M 119.83427380445688 106.89939002012753 l 14.459803643693768 5.02987031115235 a36.309654364524086,36.309654364524086 0 0,0 -0.20983492759246844,0.5869456382212778 l -14.371328546057356 -5.277350905754549" fill="#ffc312" stroke="none" /><path d="M 119.71291397450082 107.23885506374661 l 13.111025267664662 4.81455008490937 a34.96706397527562,34.96706397527562 0 0,0 -0.21174941022630991,0.5616904679685998 l -13.026445173623912 -5.038908833072128" fill="#ffb110" stroke="none" /><path d="M 119.58574465831526 107.57618678355244 l 7.811674520574321 3.0217235184398334 a29.3757430617995,29.3757430617995 0 0,0 -0.18596429554715727,0.4687515056478435 l -7.75865155006104 -3.155376041301241" fill="#ff6709" stroke="none" /><path d="M 119.4528033332814 107.91128576633889 l 9.197411919655444 3.7405073582703845 a30.928936565266945,30.928936565266945 0 0,0 -0.20424019797966694,0.4901021241177993 l -9.131845877139293 -3.897841991829462" fill="#ff7c0b" stroke="none" /><path d="M 119.31412917781788 108.2440532568976 l 16.778209650872473 7.161620005940832 a39.24272787162386,39.24272787162386 0 0,0 -0.26977715628052196,0.6173029286410475 l -16.652798612574987 -7.4485850043577235" fill="#ffe815" stroke="none" /><path d="M 119.16976305983485 108.57439118712176 l 4.945838235751914 2.212210534329182 a26.41804312482123,26.41804312482123 0 0,0 -0.1887198512786792,0.4123869335544709 l -4.907133919618179 -2.2967864500983417" fill="#ff3e05" stroke="none" /><path d="M 118.8641267826498 109.22738970284198 l 20.826302284560427 10.187188066694754 a44.18434099891767,44.18434099891767 0 0,0 -0.3391255198518078,0.6784782108832899 l -20.648356851496885 -10.54319813374179" fill="#dbff1b" stroke="none" /><path d="M 118.70294669586154 109.54985784667822 l 3.7958528011254757 1.9381894867766878 a25.262050794449053,25.262050794449053 0 0,0 -0.20052285850379192,0.38452902111097703 l -3.7620218736467343 -2.0030647509921677" fill="#ff2d04" stroke="none" /><path d="M 118.5362547648365 109.86951160357373 l 14.088900808227239 7.501546119887097 a36.96152624822762,36.96152624822762 0 0,0 -0.3030046966165285,0.5574945136441751 l -13.958050761995372 -7.742295467005875" fill="#ffcb12" stroke="none" /><line stroke="#e1ed5e" stroke-width="0.3" x1="174.33088141563837" x2="178.70328620479359" y1="141.23008692659167" y2="143.65538615756765" /><path d="M 175.20536237346943 141.71514677278685 a86.0,86.0 0 0,1 -30.301960400862466,31.631185727798858" fill="none" id="id77" stroke="none" /><text fill="#e1ed5e" style="font-size:6.75px; font-family:Arial;" text-anchor="middle"><textPath startOffset="22.145653131862474" xlink:href="#id77">May</textPath></text><path d="M 118.18653347947321 110.5 l 9.800247987940724 5.658175813962662 a32.31635162792533,32.31635162792533 0 0,0 -0.28150049073515704,0.4780493751538026 l -9.701673787075801 -5.8255763574100135" fill="#ff8e0d" stroke="none" /><path d="M 117.81537515405839 111.11811171558189 l 15.174235098668682 9.469844983144792 a38.88673740050044,38.88673740050044 0 0,0 -0.35828074844698404,0.5632768454092228 l -15.009436658595806 -9.728935503232687" fill="#ffe315" stroke="none" /><path d="M 117.423217284605 111.72311816256416 l 3.756924910874385 2.527826746267873 a25.528177651671335,25.528177651671335 0 0,0 -0.24775736218154248,0.3614853957413442 l -3.712977811877522 -2.5919468770792613" fill="#ff3104" stroke="none" /><path d="M 117.21940702142032 112.02048342749411 l 9.960273811909131 6.953044674559401 a33.14709367110593,33.14709367110593 0 0,0 -0.3297108283574822,0.46377957090305677 l -9.839447885021688 -7.1230014721719614" fill="#ff990e" stroke="none" /><path d="M 117.01052211995028 112.31430620078461 l 6.466959637539287 4.681580059872177 a28.983655729711487,28.983655729711487 0 0,0 -0.29521644884109033,0.40051781081358223 l -6.385641169114369 -4.791904179954637" fill="#ff6109" stroke="none" /><path d="M 116.79662413953412 112.60449989151573 l 6.829867533898222 5.125259925740933 a29.53905028893746,29.53905028893746 0 0,0 -0.3078363212650346,0.40296762621460014 l -6.740879235278882 -5.24174846519641" fill="#ff6909" stroke="none" /><path d="M 116.57777611688842 112.89097897827486 l 8.766947105510365 6.817231095650367 a32.105584242277345,32.105584242277345 0 0,0 -0.34205223613632113,0.4321718263932778 l -8.648628438732482 -6.966722865958328" fill="#ff8c0c" stroke="none" /><path d="M 116.35404254752997 113.17365903436017 l 3.947072057299473 3.1794818507896805 a26.068380674832472,26.068380674832472 0 0,0 -0.28371482478720256,0.3460859548551617 l -3.891910413273643 -3.246770087343335" fill="#ff3905" stroke="none" /><path d="M 115.89218393027572 113.72728997021213 l 3.202715481294552 2.76642935273749 a25.23208197200992,25.23208197200992 0 0,0 -0.2859503020299236,0.3253589525371095 l -3.154754115306043 -2.8210005830858926" fill="#ff2d04" stroke="none" /><path d="M 115.6541949942343 113.99807769240083 l 12.988652274934482 11.614532956250867 a38.42419190984185,38.42419190984185 0 0,0 -0.44389510955335587,0.4879184843769392 l -12.787359464539248 -11.835789016185478" fill="#ffdd14" stroke="none" /><path d="M 115.41159269507618 114.26474011684316 l 2.783521428810927 2.576385878945365 a24.79285588203384,24.79285588203384 0 0,0 -0.29178141410772934,0.3098617504097661 l -2.738884180966938 -2.623789089299628" fill="#ff2703" stroke="none" /><path d="M 115.16444852881244 114.52719865689866 l 5.722255780565326 5.48179159511903 a28.92428232148066,28.92428232148066 0 0,0 -0.3465586285392813,0.35559968303012446 l -5.627310350875238 -5.579213970216892" fill="#ff6008" stroke="none" /><path d="M 114.65682725009322 115.03919595460226 l 19.305171463604584 19.8088066144396 a48.660051784612385,48.660051784612385 0 0,0 -0.6032166818453965,0.5778679358945065 l -18.962282295893875 -20.137286680639686" fill="#a7ff21" stroke="none" /><path d="M 114.13192950727249 115.5334660781643 l 4.317347211443427 4.745520873289237 a27.415563521857,27.415563521857 0 0,0 -0.35083432036515333,0.3137182126222949 l -4.235247864254895 -4.818934615794919" fill="#ff4c07" stroke="none" /><path d="M 113.86319453409587 115.77377054828091 l 2.8297741909520284 3.219763574819924 a25.286548664078758,25.286548664078758 0 0,0 -0.3285090172159922,0.28375826487650546 l -2.7740856939731806 -3.267865972161147" fill="#ff2e04" stroke="none" /><path d="M 113.59037401385872 116.0094264158162 l 9.602063175353345 11.311206276521812 a35.83721687694506,35.83721687694506 0 0,0 -0.4724124487497566,0.3941032666780171 l -9.406476392441693 -11.4743717271117" fill="#ffbd11" stroke="none" /><path d="M 113.03279911837588 116.46651593811092 l 5.069202775771543 6.404772109397815 a29.168103975538635,29.168103975538635 0 0,0 -0.3952834440611376,0.30737479695247916 l -4.958509387075175 -6.490847957971087" fill="#ff6409" stroke="none" /><path d="M 112.7482090630111 116.68781488649013 l 10.87614704031981 14.237225604788966 a38.91617055523629,38.91617055523629 0 0,0 -0.5343505458400585,0.4009866114238824 l -10.630143505568984 -14.421831243476865" fill="#ffe315" stroke="none" /><path d="M 112.16784306229584 117.11559508785304 l 8.166350244466447 11.486994318901502 a35.093981509771204,35.093981509771204 0 0,0 -0.4939977716450345,0.3448488104085942 l -7.967957381647654 -11.625487945115218" fill="#ffb310" stroke="none" /><path d="M 111.8722381534696 117.32195027204791 l 8.562313124003028 12.492670735748266 a36.14529722868771,36.14529722868771 0 0,0 -0.514818693758933,0.346392992789316 l -8.346598142147093 -12.637813402594704" fill="#ffc011" stroke="none" /><path d="M 111.5731344415666 117.5232005979908 l 9.499107316291324 14.382859185266895 a38.236579653447365,38.236579653447365 0 0,0 -0.5508149865960532,0.3570316195536914 l -9.25080669743826 -14.543804646524482" fill="#ffdb14" stroke="none" /><path d="M 111.27062007382361 117.71928675628689 l 1.2070052817852412 1.8976127812149586 a23.248954427659182,23.248954427659182 0 0,0 -0.33858877295768386,0.21130443624296866 l -1.1742523800378426 -1.9180530142994747" fill="#ff1001" stroke="none" /><path d="M 110.96478420261333 117.91015095944535 l 3.6391303724503823 5.944245972132737 a27.969743900955553,27.969743900955553 0 0,0 -0.41164436415537065,0.24718061317205225 l -3.536553251737575 -6.005840585840713" fill="#ff5307" stroke="none" /><line stroke="#e1ed5e" stroke-width="0.3" x1="143.1302829299769" x2="145.66735839644613" y1="173.24464959558577" y2="177.55315839532614" /><path d="M 143.63769802327073 174.10635135553383 a86.0,86.0 0 0,1 -40.68552437913181,11.842963189579606" fill="none" id="id78" stroke="none" /><text fill="#e1ed5e" style="font-size:6.75px; font-family:Arial;" text-anchor="middle"><textPath startOffset="21.407464694133747" xlink:href="#id78">June</textPath></text><path d="M 110.34350942703117 118.27599006163325 l 6.404348161435437 11.315869548467967 a34.002483570873146,34.002483570873146 0 0,0 -0.510451455373556,0.2831388176224293 l -6.209152517905786 -11.42414128152354" fill="#ffa50f" stroke="none" /><path d="M 110.02825361518725 118.45085714620011 l 5.879019736789891 10.816734147900364 a33.31115797526451,33.31115797526451 0 0,0 -0.5047610965157193,0.2687568531127951 l -5.692469824487618 -10.916061468735727" fill="#ff9c0e" stroke="none" /><path d="M 109.71004243097381 118.62028667847754 l 5.429495863568421 10.411774224256703 a32.742421719109004,32.742421719109004 0 0,0 -0.5006047766276129,0.25561236589631164 l -5.249963865227226 -10.50344454182585" fill="#ff940d" stroke="none" /><path d="M 109.3889696526874 118.78422872680471 l 5.559565361109489 11.122854927410463 a33.434897214720664,33.434897214720664 0 0,0 -0.5155975609506414,0.25220460398422323 l -5.367807550896779 -11.21665328149191" fill="#ff9d0e" stroke="none" /><path d="M 109.06512990194946 118.94263497670748 l 3.6433288837285094 7.613156114808984 a29.440023186192313,29.440023186192313 0 0,0 -0.45773808734173,0.21424453742689412 l -3.5121020825152733 -7.674576883806411" fill="#ff6809" stroke="none" /><path d="M 108.73861861582097 119.09545874513695 l 2.7276177175495766 5.960336969469552 a27.554808555763916,27.554808555763916 0 0,0 -0.4318056277419526,0.19314116494312447 l -2.624898686951997 -6.006281885322526" fill="#ff4e07" stroke="none" /><path d="M 108.4095320186766 119.2426549942271 l 4.985729568001735 11.408324952982596 a33.45019588432616,33.45019588432616 0 0,0 -0.5281386516152837,0.22543098530908695 l -4.78915584121602 -11.492230587951088" fill="#ff9d0e" stroke="none" /><path d="M 108.07796709384702 119.3841803445677 l 2.9109362970633854 6.985187423801768 a28.567456208740126,28.567456208740126 0 0,0 -0.454284502668867,0.18475355239333116 l -2.7905973332040777 -7.03412823277439" fill="#ff5c08" stroke="none" /><path d="M 107.407793817531 119.65005319985036 l 7.8277321749244715 20.76398958451474 a43.190463142264164,43.190463142264164 0 0,0 -0.6960057748773703,0.2555829612194884 l -7.470137248392974 -20.89530339474295" fill="#e6ff1a" stroke="none" /><path d="M 107.06938296918513 119.77432235084164 l 3.219997054593129 9.006904846410476 a30.565182483564072,30.565182483564072 0 0,0 -0.495584200573532,0.17238991058001865 l -3.064907081974575 -9.060853189559086" fill="#ff770a" stroke="none" /><path d="M 106.72888874123015 119.89276391827305 l 4.098932924230424 12.117766857837188 a33.792244710692394,33.792244710692394 0 0,0 -0.5510988312978935,0.1811571320612971 l -3.8903113552847968 -12.186344911300504" fill="#ffa20f" stroke="none" /><path d="M 106.38641147887787 120.00534299687104 l 3.4087634996577143 10.67790311216354 a32.208803837580106,32.208803837580106 0 0,0 -0.5281620621652897,0.16362595695521398 l -3.2249608046208005 -10.734845656925398" fill="#ff8d0d" stroke="none" /><path d="M 106.0420521117495 120.11202640906438 l 7.200792964599605 23.969097848164424 a46.02736644103625,46.02736644103625 0 0,0 -0.7586624785717874,0.22083559064681238 l -6.788270473646211 -24.089177133113754" fill="#c5ff1e" stroke="none" /><path d="M 105.3480935250658 120.30758222061773 l 2.2880428727918707 8.688071468037311 a29.984304426134372,29.984304426134372 0 0,0 -0.49887415489569714,0.12681185934227676 l -2.1385634246707763 -8.726068559214857" fill="#ff6f0a" stroke="none" /><path d="M 104.9986988182912 120.39639698878246 l 1.7970272742306928 7.332484515922203 a28.54947920061827,28.54947920061827 0 0,0 -0.4770044894747166,0.11257176070014657 l -1.670890631016097 -7.362252420268574" fill="#ff5b08" stroke="none" /><path d="M 104.64783097203109 120.47920084513623 l 3.6074338700787654 15.895019247786038 a37.29923973731536,37.29923973731536 0 0,0 -0.6256282889054982,0.13635277368355023 l -3.3340431645541315 -15.954603479603307" fill="#ffcf13" stroke="none" /><path d="M 104.29559338865022 120.5559693870025 l 3.6274154474365865 17.35849605515775 a38.73345787276776,38.73345787276776 0 0,0 -0.6520196897886648,0.13042219883414505 l -3.3288992721169635 -17.418207650654757" fill="#ffe115" stroke="none" /><path d="M 103.58742460773223 120.69131181640829 l 5.16851446856859 29.810617975432248 a51.255354664736075,51.255354664736075 0 0,0 -0.8682229877733465,0.14286576224050446 l -4.656013977742171 -29.89494973616842" fill="#8bff24" stroke="none" /><path d="M 103.2317021107853 120.74984581791261 l 2.49377229665221 16.01180705604733 a37.204840803526494,37.204840803526494 0 0,0 -0.6319063173562232,0.09286846776222876 l -2.218540873688301 -16.052256597108443" fill="#ffce13" stroke="none" /><path d="M 102.875027216393 120.80226474461374 l 1.2089357363260487 8.747256757391831 a29.830403523865897,29.830403523865897 0 0,0 -0.5078586115109345,0.06575246494370827 l -1.0585993029243388 -8.766720818535934" fill="#ff6d0a" stroke="none" /><path d="M 102.51750503828377 120.84855314841334 l 1.7801476923667525 14.742176564474574 a35.84926582915068,35.84926582915068 0 0,0 -0.6115954714549497,0.06853054824260434 l -1.5268163193110036 -14.77056287322415" fill="#ffbd11" stroke="none" /><path d="M 102.15924093988457 120.88869738790638 l 0.4984379902807877 4.82193540947228 a25.84762844319547,25.84762844319547 0 0,0 -0.4417488158916549,0.04183407214945217 l -0.4155896110041175 -4.829781237126916" fill="#ff3605" stroke="none" /><path d="M 101.80034050326958 120.92268563240118 l 1.6571630151483538 19.25874618974748 a40.329911899951554,40.329911899951554 0 0,0 -0.6902771797536079,0.05343181933092432 l -1.3263168406195103 -19.284355776073458" fill="#fff517" stroke="none" /><path d="M 101.44090949804482 120.95050786540614 l 1.1697731863939391 17.00824540024315 a38.04842458711357,38.04842458711357 0 0,0 -0.6519971657207047,0.03922253043797041 l -0.8776316685407693 -17.025819908505817" fill="#ffd914" stroke="none" /><path d="M 101.08105385017728 120.97215588758144 l 0.8373692232508598 16.244739226080302 a37.266306886918116,37.266306886918116 0 0,0 -0.6391601780100857,0.027448288180732944 l -0.5583832846399446 -16.256720082686865" fill="#ffcf13" stroke="none" /><line stroke="#e1ed5e" stroke-width="0.3" x1="101.45913802915013" x2="101.54496967792366" y1="184.9874750549273" y2="189.98673829345242" /><path d="M 101.47630435890484 185.9873277026323 a86.0,86.0 0 0,1 -42.54439059252881,-10.42667462771756" fill="none" id="id79" stroke="none" /><text fill="#e1ed5e" style="font-size:6.75px; font-family:Arial;" text-anchor="middle"><textPath startOffset="22.145653131862474" xlink:href="#id79">July</textPath></text><path d="M 100.36049292484886 120.99690560180557 l 0.15078022008103062 8.782191908449393 a29.783486175295188,29.783486175295188 0 0,0 -0.5112731449298817,0.004388665040229074 l -1.075666822993028e-15 -8.783486175295188" fill="#ff6c0a" stroke="none" /><path d="M 100.0 121.0 l 2.1995901556411994e-15 17.961016655354342 a38.96101665535434,38.96101665535434 0 0,0 -0.6688176594844538,-0.005740995218651284 l 0.30832473463559945 -17.958370058330125" fill="#ffe415" stroke="none" /><path d="M 99.63950707515114 120.99690560180557 l -0.2302665345806575 13.411871236785498 a34.41384779804296,34.41384779804296 0 0,0 -0.5905853599052633,-0.015211383920661072 l 0.4604652085566647 -13.405942135514788" fill="#ffaa0f" stroke="none" /><path d="M 99.27912038922189 120.98762331915562 l -0.23008378255214615 6.698638285578229 a27.70258856174299,27.70258856174299 0 0,0 -0.47513136974350884,-0.02040418538124682 l 0.3450409128964937 -6.693701531771154" fill="#ff5007" stroke="none" /><path d="M 98.91894614982273 120.97215588758144 l -1.003779315168631 19.47305055247187 a40.498904346980254,40.498904346980254 0 0,0 -0.6939885457956507,-0.04174862758948174 l 1.337912213096728 -19.452949947057697" fill="#fff717" stroke="none" /><path d="M 98.55909050195518 120.95050786540614 l -0.9988682460669908 14.523325076367826 a35.55763404701655,35.55763404701655 0 0,0 -0.608596007092069,-0.04710917997908133 l 1.2480332479342957 -14.50403812939369" fill="#ffb911" stroke="none" /><path d="M 98.19965949673042 120.92268563240118 l -1.4419528600520357 16.757677968595317 a37.81960162874725,37.81960162874725 0 0,0 -0.6463557874839131,-0.06121056508830544 l 1.729408210920964 -16.73045564800183" fill="#ffd614" stroke="none" /><path d="M 97.84075906011543 120.88869738790638 l -0.8300325753517173 8.029812221675225 a29.072597995163008,29.072597995163008 0 0,0 -0.4959841956599755,-0.05557606364773251 l 0.9677526726124921 -8.014380397520522" fill="#ff6309" stroke="none" /><path d="M 97.48249496171623 120.84855314841334 l -0.9174215057200544 7.597566134183834 a28.652755933809384,28.652755933809384 0 0,0 -0.4878093195374765,-0.06315668269693518 l 1.047708647148325 -7.580697855286502" fill="#ff5d08" stroke="none" /><path d="M 97.12497278360702 120.80226474461374 l -3.1080859272491197 22.488561478301847 a43.70232577280411,43.70232577280411 0 0,0 -0.7422629728434978,-0.10908709577871335 l 3.4936740057003024 -22.43189330922425" fill="#e0ff1b" stroke="none" /><path d="M 96.76829788921471 120.74984581791261 l -2.1617228951171583 13.87981170202381 a35.047142725796974,35.047142725796974 0 0,0 -0.5936693867274362,-0.09768807166830122 l 2.3996697848976583 -13.840657631859841" fill="#ffb210" stroke="none" /><path d="M 96.41257539226777 120.69131181640829 l -2.4658239511616267 14.222217283084841 a35.43439476408344,35.43439476408344 0 0,0 -0.5984451933552705,-0.109056649487598 l 2.7096038780679543 -14.177792459665877" fill="#ffb711" stroke="none" /><path d="M 96.05791012581884 120.62667999033965 l -4.9015491042518615 25.64697611094918 a47.11115790724322,47.11115790724322 0 0,0 -0.7930457090912605,-0.1586313523586844 l 5.34109129887408 -25.559055361927633" fill="#b9ff1f" stroke="none" /><path d="M 95.70440661134978 120.55596938700252 l -3.8311987939673067 18.333673138709127 a39.729699809551704,39.729699809551704 0 0,0 -0.6663949261601737,-0.145237672531636 l 4.145356136746616 -18.265204008043774" fill="#ffee16" stroke="none" /><path d="M 95.35216902796893 120.47920084513623 l -1.916611468709927 8.444943769684855 a29.659704082422763,29.659704082422763 0 0,0 -0.49555411867199667,-0.11694942268268262 l 2.0612977411218116 -8.410798203355945" fill="#ff6b09" stroke="none" /><path d="M 95.00130118170881 120.39639698878247 l -3.373318282385208 13.764289739818144 a35.17162475780167,35.17162475780167 0 0,0 -0.5851799770971012,-0.14875046184958474 l 3.609103552707688 -13.704354046133297" fill="#ffb410" stroke="none" /><path d="M 94.6519064749342 120.30758222061772 l -4.112153509392803 15.614516669240277 a37.14691726921254,37.14691726921254 0 0,0 -0.6152566059129659,-0.1676909238661761 l 4.379591516240464 -15.541625251229958" fill="#ffcd13" stroke="none" /><path d="M 94.30408787586889 120.21278271476187 l -2.6169607387762683 9.286670445958901 a30.648353822292325,30.648353822292325 0 0,0 -0.5051724196463048,-0.1470483288973114 l 2.77599317080418 -9.240378422759074" fill="#ff780b" stroke="none" /><path d="M 93.95794788825049 120.11202640906438 l -2.0987400791085413 6.986023145134834 a28.2944656626799,28.2944656626799 0 0,0 -0.4639744899445592,-0.14374048300391884 l 2.218355201924734 -6.948966074324266" fill="#ff5808" stroke="none" /><path d="M 93.61358852112213 120.00534299687104 l -8.540413613605944 26.75272400477297 a49.08285787392411,49.08285787392411 0 0,0 -0.8004648949088774,-0.26312871020961465 l 8.998401246162565 -26.602174373161333" fill="#a3ff22" stroke="none" /><path d="M 93.27111125876986 119.89276391827306 l -2.6051717062399784 7.701727240822587 a29.130407253700273,29.130407253700273 0 0,0 -0.47232073942203673,-0.1642976711925506 l 2.736998217707037 -7.655871137061446" fill="#ff6309" stroke="none" /><path d="M 92.93061703081489 119.77432235084164 l -5.5477111857704475 15.517935550383717 a37.47978832226268,37.47978832226268 0 0,0 -0.6039793791409982,-0.22178959400669002 l 5.813279716565565 -15.420415107368306" fill="#ffd113" stroke="none" /><path d="M 92.59220618246901 119.65005319985036 l -1.52815292628895 4.0536071924708725 a25.332087561093044,25.332087561093044 0 0,0 -0.40558811842772147,-0.1568901972329863 l 1.5975133072101997 -4.026777107099846" fill="#ff2e04" stroke="none" /><path d="M 92.25597844496254 119.51999308798841 l -2.635817284691893 6.64398140071257 a28.1477284231632,28.1477284231632 0 0,0 -0.4476099206923037,-0.18203905801004064 l 2.7494816665746376 -6.597755086123238" fill="#ff5607" stroke="none" /><path d="M 91.92203290615298 119.3841803445677 l -7.2393473775891355 17.37179831433695 a39.81987053960273,39.81987053960273 0 0,0 -0.6287082086755497,-0.26835814898259325 l 7.536490661435116 -17.244965515694954" fill="#ffef16" stroke="none" /><path d="M 91.26138138417905 119.09545874513695 l -8.754187260990657 19.129479044525866 a42.03741341314196,42.03741341314196 0 0,0 -0.6536042818590887,-0.30591980632495464 l 9.081280256721236 -18.976383006630385" fill="#f4ff19" stroke="none" /><path d="M 90.93487009805054 118.94263497670748 l -7.013525105179339 14.655570014370744 a37.24731568127805,37.24731568127805 0 0,0 -0.574388639327719,-0.2809622664769631 l 7.264073993769127 -14.53301399779656" fill="#ffcf13" stroke="none" /><path d="M 90.6110303473126 118.78422872680471 l -3.945837615731969 7.894318443294136 a29.825525376648084,29.825525376648084 0 0,0 -0.45600782364440257,-0.23284084393721377 l 4.080772661089954 -7.825419647684086" fill="#ff6d0a" stroke="none" /><path d="M 90.28995756902619 118.62028667847754 l -8.168031330709928 15.663277071936767 a38.66507810488589,38.66507810488589 0 0,0 -0.585888585307658,-0.31195267137052357 l 8.435708731804148 -15.52075393284367" fill="#ffe015" stroke="none" /><path d="M 89.97174638481275 118.45085714620012 l -5.848797754296473 10.76112910408531 a33.24787062168177,33.24787062168177 0 0,0 -0.4991230688056739,-0.27685515255568416 l 6.032665011258249 -10.659141036096479" fill="#ff9b0e" stroke="none" /><line stroke="#e1ed5e" stroke-width="0.3" x1="58.13341422392154" x2="55.67067388415222" y1="173.97424548756322" y2="178.32567169271397" /><path d="M 57.64086615596768 174.84453072859336 a86.0,86.0 0 0,1 -31.369924170532247,-30.572349798747897" fill="none" id="id80" stroke="none" /><text fill="#e1ed5e" style="font-size:6.75px; font-family:Arial;" text-anchor="middle"><textPath startOffset="22.145653131862474" xlink:href="#id80">August</textPath></text><path d="M 89.65649057296885 118.27599006163327 l -6.0866611749236625 10.754547083480789 a33.35749680271568,33.35749680271568 0 0,0 -0.49592675024430805,-0.28632344275188976 l 6.27038039302837 -10.64847674345273" fill="#ff9c0e" stroke="none" /><path d="M 89.34428304082925 118.09573695890944 l -8.028464298485993 13.63408756877341 a36.822281214320704,36.822281214320704 0 0,0 -0.5419314739132062,-0.32541427912891296 l 8.261328528956627 -13.494259289108578" fill="#ffc912" stroke="none" /><path d="M 89.03521579738668 117.91015095944536 l -4.104373445790405 6.704185568059322 a28.86078784305265,28.86078784305265 0 0,0 -0.42031734256167996,-0.2623091082947329 l 4.218854917141798 -6.632740662923041" fill="#ff6008" stroke="none" /><path d="M 88.72937992617639 117.7192867562869 l -10.208189452125533 16.04896935394173 a40.02042452770831,40.02042452770831 0 0,0 -0.5765120677526544,-0.37368815709607367 l 10.482187152135197 -15.871367355141762" fill="#fff116" stroke="none" /><path d="M 88.4268655584334 117.5232005979908 l -9.588118236405728 14.51763306320392 a38.39809417933837,38.39809417933837 0 0,0 -0.5469053570971842,-0.36798233186558127 l 9.835919881599917 -14.350901057281218" fill="#ffdd14" stroke="none" /><path d="M 88.1277618465304 117.32195027204791 l -3.978691158845494 5.805029305381417 a28.037637996786447,28.037637996786447 0 0,0 -0.3946696868449061,-0.2755100930102848 l 4.077755936864166 -5.735874396566003" fill="#ff5407" stroke="none" /><path d="M 87.83215693770417 117.11559508785305 l -10.575833036837063 14.876233614167695 a39.25241274369904,39.25241274369904 0 0,0 -0.5458309480856919,-0.3951395131316207 l 10.829644995296709 -14.69249332966301" fill="#ffe815" stroke="none" /><path d="M 87.54013794807813 116.9041958592261 l -9.305351570447273 12.62449654982619 a36.68335043879971,36.68335043879971 0 0,0 -0.5036921169412774,-0.3779799548172622 l 9.520696676299316 -12.462897567744914" fill="#ffc712" stroke="none" /><path d="M 87.2517909369889 116.68781488649013 l -15.487150521777732 20.273177177217633 a46.51183145411278,46.51183145411278 0 0,0 -0.6303240327925183,-0.49014378038028916 l 15.832884499205479 -20.00433234521655" fill="#c0ff1e" stroke="none" /><path d="M 86.68645165197938 116.24036423190432 l -8.16620985514692 9.961448216130165 a33.88089414446612,33.88089414446612 0 0,0 -0.44662386098725065,-0.3725895095636243 l 8.336008050296064 -9.819796522654672" fill="#ffa30f" stroke="none" /><path d="M 86.40962598614128 116.0094264158162 l -6.5098655833709085 7.668605288386756 a31.059118101634475,31.059118101634475 0 0,0 -0.40350308374260047,-0.34853635338672945 l 6.640548146876371 -7.555724802535304" fill="#ff7e0b" stroke="none" /><path d="M 86.13680546590413 115.77377054828092 l -10.036150815029952 11.41929731670967 a36.202785086603015,36.202785086603015 0 0,0 -0.4632835466270252,-0.4142710041419965 l 10.230699388480348 -11.245330782684292" fill="#ffc112" stroke="none" /><path d="M 85.86807049272751 115.53346607816431 l -13.141537214279415 14.444851456971469 a40.528280363827776,40.528280363827776 0 0,0 -0.5105988763861697,-0.4726026971844316 l 13.387565861979553 -14.21713101365466" fill="#fff717" stroke="none" /><path d="M 85.60350026404147 115.28858382429668 l -9.442411076204388 10.027513346278447 a34.773530805200956,34.773530805200956 0 0,0 -0.4310717539144703,-0.412956989012489 l 9.613155315984173 -9.863944226960376" fill="#ffaf10" stroke="none" /><path d="M 85.34317274990678 115.03919595460226 l -10.613287125950794 10.890167570789675 a36.20649904934571,36.20649904934571 0 0,0 -0.44138839525901585,-0.43761586754099907 l 10.798667441339772 -10.706371693020015" fill="#ffc112" stroke="none" /><path d="M 85.08716467003676 114.78537596483092 l -6.506675228273664 6.451062953654656 a30.162588922255853,30.162588922255853 0 0,0 -0.361395499252474,-0.3708236194388336 l 6.616457528676948 -6.3384166421480845" fill="#ff710a" stroke="none" /><path d="M 84.83555147118756 114.52719865689866 l -19.68558499524781 18.858345119499305 a48.26095077672951,48.26095077672951 0 0,0 -0.5679720210862166,-0.603166603931012 l 20.006412850070284 -18.517637055623805" fill="#acff21" stroke="none" /><path d="M 84.58840730492382 114.26474011684316 l -5.692463444065569 5.268859180282395 a28.756611188120036,28.756611188120036 0 0,0 -0.33221047572543055,-0.3651575075318763 l 5.7820716206328795 -5.170364097192845" fill="#ff5e08" stroke="none" /><path d="M 84.3458050057657 113.99807769240083 l -11.824289079765384 10.573352207310899 a36.862206313804684,36.862206313804684 0 0,0 -0.4177522505124395,-0.4753253753602419 l 12.004052394236416 -10.368814554139357" fill="#ffca12" stroke="none" /><path d="M 84.1078160697243 113.72728997021213 l -6.892321894167897 5.953423495750026 a30.10754370906748,30.10754370906748 0 0,0 -0.3344882679415565,-0.3940263385763664 l 6.993504725616566 -5.834230374724105" fill="#ff710a" stroke="none" /><path d="M 83.8745106332314 113.45245675266167 l -14.292050855879578 11.922937138377783 a39.61233858688253,39.61233858688253 0 0,0 -0.4311202848299218,-0.5258966483147383 l 14.49461795994813 -11.67583820836455" fill="#ffec16" stroke="none" /><path d="M 83.64595745247003 113.17365903436017 l -3.4396068586835997 2.7707038083613242 a25.41675162715442,25.41675162715442 0 0,0 -0.2707895506209597,-0.34213375121288786 l 3.486662839946121 -2.711250113233756" fill="#ff2f04" stroke="none" /><path d="M 83.4222238831116 112.89097897827486 l -13.081631688718758 10.17235592468961 a37.57123751256552,37.57123751256552 0 0,0 -0.3915424303798617,-0.5125416100481012 l 13.254326096452914 -9.946293401400638" fill="#ffd313" stroke="none" /><path d="M 83.20337586046588 112.60449989151573 l -14.356591541500284 10.773453940750926 a38.94934624165903,38.94934624165903 0 0,0 -0.3967231666486186,-0.5382311684491107 l 14.539416727732732 -10.525416463032935" fill="#ffe415" stroke="none" /><path d="M 82.98947788004972 112.3143062007846 l -13.45178678020249 9.738056256650871 a37.606634434397826,37.606634434397826 0 0,0 -0.3740694346880466,-0.5261755058874586 l 13.616971313420496 -9.505703524053908" fill="#ffd313" stroke="none" /><path d="M 82.78059297857968 112.02048342749411 l -6.56090792720202 4.580023278974766 a29.001382759571815,29.001382759571815 0 0,0 -0.2814656882356108,-0.41066685083975846 l 6.638563352252956 -4.466721693064956" fill="#ff6209" stroke="none" /><path d="M 82.576782715395 111.72311816256416 l -11.792928037743986 7.934808285450531 a35.213878226235884,35.213878226235884 0 0,0 -0.3331493816368867,-0.5044306253414176 l 11.927401858301598 -7.731197781770052" fill="#ffb410" stroke="none" /><path d="M 82.37810715431573 111.42229804090323 l -14.717226352762701 9.539528313376431 a38.53851053995645,38.53851053995645 0 0,0 -0.35507238002717834,-0.5582327573574583 l 14.878816424415769 -9.285481881340301" fill="#ffdf14" stroke="none" /><path d="M 81.99639281039703 110.81064883170644 l -13.95323557082448 8.37851705125905 a37.27551322917837,37.27551322917837 0 0,0 -0.32469863514391784,-0.5514092683762979 l 14.095007916098169 -8.137756614589193" fill="#ffcf13" stroke="none" /><line stroke="#e1ed5e" stroke-width="0.3" x1="26.387840678322732" x2="22.057713659400548" y1="142.50000000000003" y2="145.00000000000006" /><path d="M 25.521815274538298 143.00000000000003 a86.0,86.0 0 0,1 -11.493303480769221,-40.785679425670985" fill="none" id="id81" stroke="none" /><text fill="#e1ed5e" style="font-size:6.75px; font-family:Arial;" text-anchor="middle"><textPath startOffset="21.40746469413373" xlink:href="#id81">September</textPath></text><path d="M 81.81346652052679 110.50000000000001 l -8.295406090375172 4.7893549393153725 a30.578709878630736,30.578709878630736 0 0,0 -0.2585599340540951,-0.45685062873921456 l 8.376399389450645 -4.646247540477036" fill="#ff770b" stroke="none" /><path d="M 81.63589988554817 110.18625677009913 l -13.393628632975442 7.42922002649473 a36.31608951919941,36.31608951919941 0 0,0 -0.2977135092626746,-0.5477593248719345 l 13.519187491853447 -7.198205868148208" fill="#ffc312" stroke="none" /><path d="M 81.4637452351635 109.86951160357371 l -10.587341102646803 5.637162802800271 a32.994556935921786,32.994556935921786 0 0,0 -0.26190125756975163,-0.5022301943652276 l 10.682550429191505 -5.45458636533054" fill="#ff970e" stroke="none" /><path d="M 81.29705330413844 109.54985784667822 l -15.878553278025837 8.107702442931442 a38.8287210171179,38.8287210171179 0 0,0 -0.29801983921030073,-0.5962393139964519 l 16.015393030447875 -7.833931272771237" fill="#ffe215" stroke="none" /><path d="M 81.1358732173502 109.22738970284198 l -14.126064793474363 6.9097661566221875 a36.725475346985135,36.725475346985135 0 0,0 -0.2721545583463231,-0.5686983542169418 l 14.242598609780599 -6.666255300340142" fill="#ffc812" stroke="none" /><path d="M 80.83023694016515 108.57439118712176 l -31.612174165271277 14.139723413503459 a55.63035277997934,55.63035277997934 0 0,0 -0.3824351463272471,-0.8750864569037 l 31.850243193615494 -13.594974886823909" fill="#5dff2a" stroke="none" /><path d="M 80.5471966667186 107.91128576633889 l -14.158583394131883 5.758172606715139 a36.28469939178758,36.28469939178758 0 0,0 -0.2297017150285762,-0.5789983741380754 l 14.255343784126584 -5.514273215363498" fill="#ffc212" stroke="none" /><path d="M 80.41425534168474 107.57618678355246 l -12.390110368820807 4.792760860545757 a34.28478045049824,34.28478045049824 0 0,0 -0.20761771835533596,-0.5507306644063205 l 12.470558770990579 -4.579361915945292" fill="#ffa80f" stroke="none" /><path d="M 80.28708602549918 107.23885506374661 l -14.53475718816153 5.337364166857769 a36.48375351032399,36.48375351032399 0 0,0 -0.21084105343674328,-0.5897599512747544 l 14.624238411642215 -5.087069259202093" fill="#ffc512" stroke="none" /><path d="M 80.16572619554312 106.89939002012753 l -17.232495199549795 5.994356363828821 a39.24530621883562,39.24530621883562 0 0,0 -0.2158764287205785,-0.638200302784816 l 17.33285704984274 -5.697654386569844" fill="#ffe815" stroke="none" /><path d="M 80.05021161711548 106.5578916946017 l -7.315765487496829 2.4048374253066815 a28.700887462507513,28.700887462507513 0 0,0 -0.149839521637954,-0.4693701673887417 l 7.355969724912039 -2.278898224226548" fill="#ff5d08" stroke="none" /><path d="M 79.94057633289273 106.21446072829308 l -12.288801217124304 3.80710202989756 a33.8650169537411,33.8650169537411 0 0,0 -0.16726686578959513,-0.5567769956137824 l 12.352344402917527 -3.595587430693054" fill="#ffa30f" stroke="none" /><path d="M 79.83685265289637 105.86919833188381 l -14.574994090612195 4.24256836153734 a36.17991564679126,36.17991564679126 0 0,0 -0.16846317659799645,-0.5978163830140281 l 14.645675759284767 -3.9917440546203165" fill="#ffc111" stroke="none" /><path d="M 79.73907114497094 105.5222062557868 l -11.18569943724884 3.048712122218143 a32.59372750691635,32.59372750691635 0 0,0 -0.14249747832947898,-0.5410861354319756 l 11.236386396383052 -2.8562454824133647" fill="#ff920d" stroke="none" /><path d="M 79.64726062577567 105.17358676015961 l -15.43466683211768 3.923431951929169 a36.9255222363316,36.9255222363316 0 0,0 -0.15088906656081996,-0.6156788825883625 l 15.499743425194792 -3.657897244732707" fill="#ffca12" stroke="none" /><path d="M 79.56144815229197 104.8234425847677 l -15.951736757563802 3.7645664404577572 a37.38993185059758,37.38993185059758 0 0,0 -0.1420624023227023,-0.6259531569061787 l 16.01401002144417 -3.490178949612552" fill="#ffd013" stroke="none" /><path d="M 79.48165901384964 104.47187691870673 l -15.020813274773657 3.2737163413457133 a36.37342024792175,36.37342024792175 0 0,0 -0.12772663210614654,-0.6112181721892277 l 15.074797617704169 -3.0153817178710765" fill="#ffc312" stroke="none" /><path d="M 79.407916724674 104.11899336999214 l -7.426442343729158 1.4854964583939123 a28.573555678321398,28.573555678321398 0 0,0 -0.09207992644924944,-0.4818010844557799 l 7.450848562460564 -1.357792808904818" fill="#ff5c08" stroke="none" /><path d="M 79.34024301695615 103.76489593502545 l -8.587472036051176 1.5649234687130598 a29.728898065213606,29.728898065213606 0 0,0 -0.08718379110004486,-0.5028529388741613 l 8.613070644643456 -1.417277496918306" fill="#ff6c09" stroke="none" /><path d="M 79.2786578344484 103.40968896794605 l -32.84758941467601 5.405058338211204 a54.28931939818839,54.28931939818839 0 0,0 -0.14342335395430952,-0.9208808173587089 l 32.935534260768584 -4.840389338921045" fill="#6bff28" stroke="none" /><path d="M 79.22317932658666 103.0534771498775 l -25.754113613883373 3.78496780963083 a47.03075775609989,47.03075775609989 0 0,0 -0.11053456122985703,-0.7997730223291798 l 25.815292691668443 -3.3423064791015644" fill="#baff1f" stroke="none" /><path d="M 79.17382384314188 102.69636545807758 l -8.640128301651782 1.118637590043654 a29.712242370759824,29.712242370759824 0 0,0 -0.06114767275293019,-0.5063904484418776 l 8.658058060664372 -0.9701534646783772" fill="#ff6b09" stroke="none" /><path d="M 79.13060592940153 102.33845913500099 l -21.99069523169354 2.4641032689120905 a43.1283185464484,43.1283185464484 0 0,0 -0.07612683737168721,-0.736458094871313 l 22.02975446154689 -2.086240651757846" fill="#e7ff1a" stroke="none" /><path d="M 79.0935383218832 101.97986365728391 l -12.611679156947684 1.1943391284763263 a33.66810550601779,33.66810550601779 0 0,0 -0.04955043675339316,-0.5758511844046275 l 12.630323216398818 -0.9776668966960369" fill="#ffa00e" stroke="none" /><path d="M 79.03789590574601 101.26102812881392 l -23.722960510280885 1.4271143949908247 a44.76584757311921,44.76584757311921 0 0,0 -0.03956109417078268,-0.7674746580819399 l 23.74396319390824 -1.019667943532154" fill="#d4ff1c" stroke="none" /><path d="M 79.01933749520258 100.90099992219065 l -9.953859308975222 0.4274615475480162 a30.96303360013931,30.96303360013931 0 0,0 -0.01824653487280153,-0.5312279541057552 l 9.95973053084487 -0.2565273288781411" fill="#ff7c0b" stroke="none" /><path d="M 79.00696218219943 100.54070618675478 l -28.83034495977527 0.7425674178896842 a49.83990632560638,49.83990632560638 0 0,0 -0.014687508067242512,-0.8554737115656359 l 28.83884389944118 -0.24754679035499588" fill="#9aff22" stroke="none" /><line stroke="#e1ed5e" stroke-width="0.3" x1="15.003131293944662" x2="10.003315487706104" y1="100.72959589197737" y2="100.7725132973878" /><path d="M 14.003168132696942 100.73817937305945 a86.0,86.0 0 0,1 10.791469493833604,-42.45332614584628" fill="none" id="id82" stroke="none" /><text fill="#e1ed5e" style="font-size:6.75px; font-family:Arial;" text-anchor="middle"><textPath startOffset="22.145653131862435" xlink:href="#id82">October</textPath></text><path d="M 79.00077361379809 100.18025310272382 l -10.956422114170604 0.09404770654450495 a31.95682574996029,31.95682574996029 0 0,0 0.0,-0.5486016185366409 l 10.956422114170604 0.09404770654450093" fill="#ff8a0c" stroke="none" /><path d="M 79.00077361379809 99.81974689727619 l -10.288233410544168 -0.08831211015544498 a31.28861243018889,31.28861243018889 0 0,0 0.009220558009859632,-0.537051278357649 l 10.28520142093564 0.26491030448214636" fill="#ff810b" stroke="none" /><path d="M 79.00696218219943 99.45929381324524 l -22.70912178983949 -0.5849064225055557 a43.71665309830766,43.71665309830766 0 0,0 0.02576225074007925,-0.7500398212163331 l 22.69573485210256 0.9746525082860272" fill="#e0ff1b" stroke="none" /><path d="M 79.06263194458094 98.37931529534042 l -34.53050095917038 -2.67287916039075 a55.633795337752375,55.633795337752375 0 0,0 0.0818780509269102,-0.9515470638061733 l 34.47952928554573 3.265247271572604" fill="#5dff2a" stroke="none" /><path d="M 79.0935383218832 98.0201363427161 l -9.73487309336525 -0.9219026032510792 a30.7784282251192,30.7784282251192 0 0,0 0.054327747499047695,-0.5255716748937 l 9.717612953384538 1.0888788004276921" fill="#ff7a0b" stroke="none" /><path d="M 79.13060592940154 97.66154086499901 l -10.437409584026792 -1.1695335142432546 a31.502729524541348,31.502729524541348 0 0,0 0.06483248796079182,-0.5369060043335285 l 10.415795009806333 1.3485331955002193" fill="#ff840c" stroke="none" /><path d="M 79.17382384314186 97.30363454192245 l -8.662241794263604 -1.121500624389789 a29.73454043168808,29.73454043168808 0 0,0 0.06988393419117539,-0.5056453351644591 l 8.641713343517221 1.270034267754315" fill="#ff6c09" stroke="none" /><path d="M 79.22317932658666 96.9465228501225 l -23.859262740750538 -3.5064899840537667 a45.115552876524234,45.115552876524234 0 0,0 0.11918778833079319,-0.7652711006340237 l 23.795553460281475 3.9155492666192404" fill="#d0ff1d" stroke="none" /><path d="M 79.2786578344484 96.59031103205396 l -11.13406786249354 -1.8321066297635817 a32.28379731603839,32.28379731603839 0 0,0 0.09467635951199714,-0.5460680824017289 l 11.100976685489307 2.022967745085903" fill="#ff8e0d" stroke="none" /><path d="M 79.34024301695615 96.23510406497455 l -13.681226221709492 -2.4931751632196004 a34.90654066704177,34.90654066704177 0 0,0 0.11248833478772889,-0.5885865006552278 l 13.636411594639604 2.727664228908143" fill="#ffb010" stroke="none" /><path d="M 79.407916724674 95.88100663000787 l -21.08613357543678 -4.2178172666999165 a42.50383713797224,42.50383713797224 0 0,0 0.1492538213953508,-0.7142335658683174 l 21.01062204321706 4.579167283853643" fill="#efff19" stroke="none" /><path d="M 79.48165901384962 95.52812308129327 l -7.636457850359409 -1.6643304458557033 a28.815720333617246,28.815720333617246 0 0,0 0.10948483328641372,-0.48241037676740056 l 7.606762155515334 1.7951751565621121" fill="#ff5f08" stroke="none" /><path d="M 79.56144815229197 95.17655741523228 l -13.727485792344762 -3.239649268987454 a35.104580588059974,35.104580588059974 0 0,0 0.14344813766044617,-0.5853173534516257 l 13.669850128168019 3.4748224470471976" fill="#ffb310" stroke="none" /><path d="M 79.64726062577567 94.8264132398404 l -13.824275223865332 -3.5140767024988153 a35.263916731957664,35.263916731957664 0 0,0 0.15417135733428367,-0.5854137554731049 l 13.761914385726323 3.7508709623447047" fill="#ffb510" stroke="none" /><path d="M 79.73907114497095 94.47779374421319 l -17.435170122916965 -4.75203314775873 a39.07116421961945,39.07116421961945 0 0,0 0.18192558827600122,-0.6455897327662886 l 17.35102604256638 5.050630804428032" fill="#ffe515" stroke="none" /><path d="M 79.83685265289637 94.1308016681162 l -2.3660561751314084 -0.6887244693085784 a23.46425713319488,23.46425713319488 0 0,0 0.1158951951540979,-0.38577741179858693 l 2.353884659973681 0.7292394846978889" fill="#ff1302" stroke="none" /><path d="M 79.94057633289273 93.78553927170692 l -29.586373392327708 -9.165934106109356 a51.973663628117606,51.973663628117606 0 0,0 0.27134035161742404,-0.8499697867810951 l 29.424668324933027 9.672472926581843" fill="#83ff25" stroke="none" /><path d="M 80.16572619554312 93.10060997987247 l -13.977339784223759 -4.862044336280928 a35.7988345004465,35.7988345004465 0 0,0 0.206882879409486,-0.5786882340574403 l 13.891816734770329 5.101267526719289" fill="#ffbc11" stroke="none" /><path d="M 80.28708602549916 92.7611449362534 l -17.282176633131364 -6.346254642775308 a39.41055613417745,39.41055613417745 0 0,0 0.2386577844798158,-0.6330681275832033 l 17.17068816483711 6.641991050552656" fill="#ffea16" stroke="none" /><path d="M 80.41425534168474 92.42381321644754 l -24.179410318505703 -9.353115344091915 a46.92536692103986,46.92536692103986 0 0,0 0.2970628788658812,-0.7487925105771356 l 24.01528876467369 9.766808871882633" fill="#bbff1f" stroke="none" /><path d="M 80.5471966667186 92.08871423366112 l -7.519217625789563 -3.058000348728083 a29.117265539379964,29.117265539379964 0 0,0 0.19227677181336253,-0.4613942564510398 l 7.465615009439722 3.186627114620387" fill="#ff6309" stroke="none" /><path d="M 80.68587082218212 91.75594674310238 l -10.669504439143415 -4.554176997119035 a32.600812605071646,32.600812605071646 0 0,0 0.22411679804219933,-0.5128230933135333 l 10.589753759084237 4.736662160208436" fill="#ff920d" stroke="none" /><path d="M 80.9802524753101 91.09779779509293 l -19.041478176406905 -8.912373247155557 a42.023993151615954,42.023993151615954 0 0,0 0.3114192856067784,-0.6507465326765668 l 18.885679632840223 9.237932281897212" fill="#f4ff19" stroke="none" /><path d="M 81.1358732173502 90.77261029715801 l -7.613528290234319 -3.7241582055215594 a29.47556295274549,29.47556295274549 0 0,0 0.2262320854693439,-0.4526157178047513 l 7.548476291553231 3.854305779490081" fill="#ff6809" stroke="none" /><path d="M 81.29705330413844 90.45014215332179 l -7.768515772962245 -3.9666595065409016 a29.722627181967283,29.722627181967283 0 0,0 0.23592962476666982,-0.45242616397716906 l 7.699278079220636 4.099431913622557" fill="#ff6b09" stroke="none" /><path d="M 81.46374523516351 90.13048839642627 l -7.6399672217314 -4.067852222706873 a29.655433025268664,29.655433025268664 0 0,0 0.24311050973669104,-0.44729595580814224 l 7.569011362379358 4.198403011989635" fill="#ff6b09" stroke="none" /><line stroke="#e1ed5e" stroke-width="0.3" x1="26.387840678322718" x2="22.05771365940052" y1="57.49999999999999" y2="54.99999999999999" /><path d="M 25.521815274538284 56.99999999999999 a86.0,86.0 0 0,1 29.574782752854787,-30.34633250058573" fill="none" id="id83" stroke="none" /><text fill="#e1ed5e" style="font-size:6.75px; font-family:Arial;" text-anchor="middle"><textPath startOffset="21.40746469413373" xlink:href="#id83">November</textPath></text><path d="M 82.18462484594161 88.88188828441811 l -53.44612546217515 -33.35433514674566 a84.0,84.0 0 0,0 0.7739292334964403,-1.2167453012853122 l 52.865678537052815 34.266894122709644" fill="#4dd2ff" stroke="none" /><path d="M 82.576782715395 88.27688183743585 l -8.202492972762231 -5.51900333770496 a30.886368838446817,30.886368838446817 0 0,0 0.2997599505611024,-0.43735872630330297 l 8.106543285385815 5.658996799078297" fill="#ff7b0b" stroke="none" /><path d="M 82.78059297857968 87.97951657250589 l -6.465723339857465 -4.513577044600685 a28.88529999715444,28.88529999715444 0 0,0 0.2873191925637046,-0.4041504263091144 l 6.387289048763789 4.623904697619319" fill="#ff6008" stroke="none" /><path d="M 82.98947788004972 87.6856937992154 l -14.50641687017879 -10.501527111040318 a38.90860692726608,38.90860692726608 0 0,0 0.39630821154996443,-0.537668202163353 l 14.324006639045006 10.749001622472534" fill="#ffe315" stroke="none" /><path d="M 83.2033758604659 87.39550010848427 l -7.37874947599284 -5.537151167821111 a30.22529061248302,30.22529061248302 0 0,0 0.31498786116349253,-0.4123292215091909 l 7.282609637475041 5.663001302571186" fill="#ff720a" stroke="none" /><path d="M 83.42222388311158 87.10902102172516 l -7.234707413363775 -5.625752243368254 a30.164610175056204,30.164610175056204 0 0,0 0.32137313822719965,-0.406044461717934 l 7.1370678444950135 5.749116649000871" fill="#ff710a" stroke="none" /><path d="M 83.64595745247003 86.82634096563983 l -23.705687550024788 -19.09562385272564 a51.44014573789332,51.44014573789332 0 0,0 0.5598480441535216,-0.6829235838486502 l 23.374392686632635 19.499749718272785" fill="#89ff24" stroke="none" /><path d="M 83.8745106332314 86.54754324733833 l -9.358579253788513 -7.807259662915587 a33.18754729605713,33.18754729605713 0 0,0 0.36870643847785195,-0.434335257427757 l 9.223178251803546 7.9667617027929" fill="#ff9a0e" stroke="none" /><path d="M 84.10781606972428 86.27271002978789 l -11.995161112140893 -10.361134476431483 a36.850457335512885,36.850457335512885 0 0,0 0.41761910161514243,-0.47517387635692376 l 11.81553094656716 10.565520630599707" fill="#ffc912" stroke="none" /><path d="M 84.34580500576568 86.00192230759919 l -16.11665814635731 -14.411615094718513 a42.620391287968495,42.620391287968495 0 0,0 0.4923716627371651,-0.541202708168141 l 15.86688878277828 14.686155378444312" fill="#edff19" stroke="none" /><path d="M 84.58840730492382 85.73525988315684 l -5.993262139913334 -5.547273962495311 a29.16648268795673,29.16648268795673 0 0,0 0.3432536212743111,-0.36452345070641967 l 5.897152684902751 5.649338873146242" fill="#ff6409" stroke="none" /><path d="M 85.08716467003674 85.21462403516908 l -7.646469620142081 -7.581115571651466 a31.76762791716412,31.76762791716412 0 0,0 0.3872747345285019,-0.38396471395209075 l 7.515202965483603 7.71126029583223" fill="#ff870c" stroke="none" /><path d="M 85.34317274990677 84.96080404539775 l -20.549054028650136 -21.085139706249347 a50.44226108681932,50.44226108681932 0 0,0 0.6253099255269126,-0.5990327635720091 l 20.184071617257924 21.434784600126925" fill="#94ff23" stroke="none" /><path d="M 85.60350026404147 84.71141617570332 l -4.51820316459448 -4.79817518730403 a27.590648296230928,27.590648296230928 0 0,0 0.3476030537776239,-0.32173619716429697 l 4.4351703395029025 4.875029130600692" fill="#ff4e07" stroke="none" /><path d="M 85.86807049272753 84.46653392183569 l -11.849558599563055 -13.024740638057297 a38.60840446187956,38.60840446187956 0 0,0 0.4940680255930876,-0.44179867505996695 l 11.624225547146576 13.226234843000665" fill="#ffe015" stroke="none" /><path d="M 86.13680546590413 84.22622945171909 l -13.078631098893181 -14.881081379343598 a40.81154144531875,40.81154144531875 0 0,0 0.5302012366091394,-0.4579752002261432 l 12.821250382521193 15.103400712034452" fill="#fffb17" stroke="none" /><path d="M 86.40962598614128 83.9905735841838 l -9.617616791685105 -11.329528397451622 a35.86125050123192,35.86125050123192 0 0,0 0.472729264180481,-0.3943675653782587 l 9.421713193342717 11.492958146741763" fill="#ffbd11" stroke="none" /><path d="M 86.68645165197937 83.75963576809568 l -7.5824298275199995 -9.249331503730039 a32.96007422030306,32.96007422030306 0 0,0 0.4406435926849531,-0.35495128674370213 l 7.422535464479801 9.378131084267139" fill="#ff970d" stroke="none" /><path d="M 86.96720088162412 83.53348406188908 l -9.252757582161442 -11.690556941318444 a35.90914633614061,35.90914633614061 0 0,0 0.48663742590015985,-0.37841220578012125 l 9.050710211626036 11.84767019871937" fill="#ffbd11" stroke="none" /><path d="M 87.25179093698888 83.31218511350988 l -7.969925178613385 -10.432887896840166 a34.12877973083293,34.12877973083293 0 0,0 0.4686157917861416,-0.35165802649763234 l 7.789656397916492 10.5681649506018" fill="#ffa60f" stroke="none" /><path d="M 87.54013794807813 83.09580414077388 l -11.246073314098782 -15.257458321492331 a39.954265995236014,39.954265995236014 0 0,0 0.5555906851037407,-0.40220481008322373 l 10.982501618621072 15.448263902948634" fill="#fff016" stroke="none" /><path d="M 87.83215693770416 82.88440491214696 l -8.064327199866776 -11.34348612997615 a34.91790396458721,34.91790396458721 0 0,0 0.4915192294216675,-0.3431185954433948 l 7.868412879271342 11.480249541224671" fill="#ffb110" stroke="none" /><path d="M 88.12776184653039 82.6780497279521 l -10.24692202364677 -14.950565465475375 a39.12508810174897,39.12508810174897 0 0,0 0.5572599561793065,-0.3749493682391089 l 9.988765779370473 15.124264507771594" fill="#ffe615" stroke="none" /><path d="M 88.4268655584334 82.4767994020092 l -2.768029427924866 -4.1911493529753985 a26.022720359805447,26.022720359805447 0 0,0 0.3748688950761315,-0.24298548875084716 l 2.6956749005917087 4.238048683430152" fill="#ff3805" stroke="none" /><path d="M 88.72937992617638 82.28071324371311 l -4.009937256603826 -6.304287400256261 a28.471521694201876,28.471521694201876 0 0,0 0.41464822104901083,-0.2587711571844172 l 3.901124906765116 6.372194354282215" fill="#ff5a08" stroke="none" /><line stroke="#e1ed5e" stroke-width="0.3" x1="56.869717070023135" x2="54.33264160355391" y1="26.7553504044142" y2="22.446841604673864" /><path d="M 56.362301976729285 25.89364864446614 a86.0,86.0 0 0,1 42.16139366436587,-11.88097634709845" fill="none" id="id84" stroke="none" /><text fill="#e1ed5e" style="font-size:6.75px; font-family:Arial;" text-anchor="middle"><textPath startOffset="22.145653131862474" xlink:href="#id84">December</textPath></text><path d="M 89.34428304082924 81.90426304109057 l -20.691762422335533 -35.13913624447185 a61.778768104859815,61.778768104859815 0 0,0 0.9184665108877588,-0.5302768873027011 l 20.085503443587374 35.48916002905073" fill="#31ff43" stroke="none" /><path d="M 89.65649057296885 81.72400993836675 l -5.176954747997178 -9.147182993487936 a31.51055741524518,31.51055741524518 0 0,0 0.4730422075998505,-0.2623885384895422 l 5.019168352241225 9.234704447410625" fill="#ff840c" stroke="none" /><path d="M 89.97174638481275 81.54914285379989 l -4.423579401455401 -8.138887860546287 a30.26334444612356,30.26334444612356 0 0,0 0.4585778416409597,-0.24416687117415753 l 4.283212744027879 8.21362519944302" fill="#ff730a" stroke="none" /><path d="M 90.28995756902619 81.37971332152246 l -7.78892677408907 -14.936294097806787 a37.845185118255586,37.845185118255586 0 0,0 0.5786218443181956,-0.29544843655274305 l 7.531377708057292 15.067800486032365" fill="#ffd614" stroke="none" /><path d="M 90.61103034731259 81.2157712731953 l -3.7445032408634584 -7.491514825006169 a29.37520739409623,29.37520739409623 0 0,0 0.45299332573236273,-0.2215817354007319 l 3.6153496658690427 7.554690310504115" fill="#ff6709" stroke="none" /><path d="M 90.93487009805054 81.0573650232925 l -3.771478326188962 -7.880939162294599 a29.736890227346443,29.736890227346443 0 0,0 0.4623538225520114,-0.2164049345674371 l 3.6356357897654283 7.944520328432579" fill="#ff6c09" stroke="none" /><path d="M 91.26138138417902 80.90454125486306 l -4.528243726721034 -9.89502976076535 a31.88193940504267,31.88193940504267 0 0,0 0.4996151880556595,-0.22347151876866045 l 4.357715135809756 9.971305030443856" fill="#ff890c" stroke="none" /><path d="M 91.5904679813234 80.7573450057729 l -5.315543327463358 -12.163003378794421 a34.273795691463114,34.273795691463114 0 0,0 0.5411423091459032,-0.2309814734636348 l 5.105965943147023 12.25245950191746" fill="#ffa80f" stroke="none" /><path d="M 91.92203290615298 80.6158196554323 l -4.041132447329308 -9.69724675097803 a31.505586418958806,31.505586418958806 0 0,0 0.5010071443900156,-0.20375524403033415 l 3.8740708417488516 9.765189251587655" fill="#ff840c" stroke="none" /><path d="M 92.25597844496254 80.48000691201159 l -2.981449795561155 -7.515201111970125 a29.08500405917082,29.08500405917082 0 0,0 0.4656754814372152,-0.18013328006863338 l 2.8520020516304108 7.565274280176799" fill="#ff6309" stroke="none" /><path d="M 92.592206182469 80.34994680014964 l -5.893649810043577 -15.63360632886023 a37.70762565205497,37.70762565205497 0 0,0 0.607650932667644,-0.223137839317991 l 5.624409725721806 15.732475017186943" fill="#ffd413" stroke="none" /><path d="M 92.93061703081487 80.22567764915836 l -5.425851872279738 -15.177073362421702 a37.11779837286259,37.11779837286259 0 0,0 0.6018283857312877,-0.20934715328024003 l 5.164517714503446 15.267978948270526" fill="#ffcd13" stroke="none" /><path d="M 93.61358852112211 79.99465700312896 l -3.2328179581526486 -10.126756209365219 a31.630254149100637,31.630254149100637 0 0,0 0.5186749667092492,-0.16068683053186544 l 3.058502358571783 10.180759627703727" fill="#ff850c" stroke="none" /><path d="M 93.95794788825049 79.88797359093562 l -8.769937742255616 -29.19227047630071 a51.48114931501989,51.48114931501989 0 0,0 0.8485563993562256,-0.24700240085912983 l 8.267521330517766 29.338516571462357" fill="#88ff25" stroke="none" /><path d="M 94.30408787586887 79.78721728523814 l -2.842402384905338 -10.086683316375169 a31.479524399635544,31.479524399635544 0 0,0 0.5213887655201842,-0.1421068265553784 l 2.6688322184504765 10.133990637074687" fill="#ff830c" stroke="none" /><path d="M 94.6519064749342 79.69241777938228 l -2.0709782670719465 -7.863841804292019 a29.131971403393834,29.131971403393834 0 0,0 0.48469317172645043,-0.12320710887496053 l 1.935679802120118 7.898234145002243" fill="#ff6309" stroke="none" /><path d="M 95.00130118170881 79.60360301121753 l -2.000267915650052 -8.16177568895216 a29.403312092927973,29.403312092927973 0 0,0 0.49127032318852454,-0.11593845861275301 l 1.8598654387216214 8.194910291211144" fill="#ff6709" stroke="none" /><path d="M 95.35216902796891 79.52079915486377 l -1.9853064440623798 -8.747626506161314 a29.970084234171473,29.970084234171473 0 0,0 0.5026947640174295,-0.10955998410795752 l 1.8348492634258318 8.780417948402986" fill="#ff6f0a" stroke="none" /><path d="M 95.70440661134978 79.44403061299748 l -1.3501424668402353 -6.460920460905361 a27.600483155263028,27.600483155263028 0 0,0 0.46461275221088366,-0.0929355626811928 l 1.239033229098375 6.48314542024942" fill="#ff4e07" stroke="none" /><path d="M 96.05791012581881 79.37332000966035 l -2.9837966325649816 -15.612484814023839 a36.89505345736941,36.89505345736941 0 0,0 0.6231139983384094,-0.11355212751665841 l 2.7153479006755337 15.66140511547186" fill="#ffca12" stroke="none" /><path d="M 96.76829788921471 79.25015418208739 l -1.6001337822006882 -10.274006740252892 a31.39786721494854,31.39786721494854 0 0,0 0.5332776653826525,-0.0783734523862732 l 1.4235310112103507 10.29996126593805" fill="#ff820c" stroke="none" /><path d="M 97.12497278360702 79.19773525538626 l -1.3218616791040803 -9.564332625338215 a30.65524608007444,30.65524608007444 0 0,0 0.5219014451915196,-0.06757059091098826 l 1.1574824120217666 9.585614812449599" fill="#ff780b" stroke="none" /><path d="M 97.48249496171623 79.15144685158666 l -1.6721201560980257 -13.847553595645785 a34.948144191996,34.948144191996 0 0,0 0.59622216046051,-0.06680793668001919 l 1.4341620940367164 13.874217292832775" fill="#ffb110" stroke="none" /><path d="M 97.84075906011542 79.11130261209362 l -0.8634978997267566 -8.353558877708725 a29.398069691671935,29.398069691671935 0 0,0 0.5024276213323238,-0.04758041811219974 l 0.7199707150094172 8.367151051326108" fill="#ff6709" stroke="none" /><path d="M 98.1996594967304 79.07731436759882 l -1.427912037497561 -16.594502327212915 a37.65582301403042,37.65582301403042 0 0,0 0.6445081104047364,-0.04988900389949407 l 1.1428349323176075 16.616569098107465" fill="#ffd413" stroke="none" /><path d="M 98.5590905019552 79.04949213459386 l -0.9226027354632933 -13.414441290168972 a34.44613070496024,34.44613070496024 0 0,0 0.5902683181601243,-0.03550907625497455 l 0.6921900651706853 13.42830234424864" fill="#ffaa0f" stroke="none" /><path d="M 98.9189461498227 79.02784411241856 l -2.682907414605541 -52.04768709886912 a73.11678927694157,73.11678927694157 0 0,0 1.2540373316729783,-0.05385375881258112 l 1.7890443223317427 52.086073426107525" fill="#3fffc2" stroke="none" /><path d="M 99.27912038922189 79.0123766808444 l -0.42638307185340685 -12.413677912272362 a33.420998423379736,33.420998423379736 0 0,0 0.5735468029642246,-0.014772531133786083 l 0.2132229548184384 12.419168160756193" fill="#ff9d0e" stroke="none" /><path d="M 99.63950707515114 79.00309439819443 l -0.2479436194369539 -14.441472808573003 a35.4436011063437,35.4436011063437 0 0,0 0.6084365442858025,-0.005222695965130531 l 3.537661972608996e-15 14.4436011063437" fill="#ffb711" stroke="none" /></svg>