<?xml version="1.0" encoding="utf-8" ?>
<svg baseProfile="full" height="200mm" version="1.1" viewBox="0,0,200,200" width="200mm" xmlns="http://www.w3.org/2000/svg" xmlns:ev="http://www.w3.org/2001/xml-events" xmlns:xlink="http://www.w3.org/1999/xlink"><defs /><rect fill="#1a1a1a" height="200" width="200" x="0" y="0" /><rect fill="#1a1a1a" height="200" width="180" x="10" y="0" /><text alignment-baseline="middle" fill="#e1ed5e" style="dominant-baseline: central; font-size:9.0px; font-family:Arial;" text-anchor="middle" x="100.0" y="100.0">2026</text><line stroke="#e1ed5e" stroke-width="0.3" x1="100.0" x2="100.0" y1="15.0" y2="10.0" /><path d="M 100.0 14.0 a86.0,86.0 0 0,1 42.46469731375804,11.215312516191453" fill="none" id="id25" stroke="none" /><text fill="#e1ed5e" style="font-size:6.75px; font-family:Arial;" text-anchor="middle"><textPath startOffset="22.20632615414155" xlink:href="#id25">January</textPath></text><path d="M 100.0 79.0 l 0.0 -27.322903961306643 a48.32290396130664,48.32290396130664 0 0,0 0.831799356370166,0.007159559668706962 l -0.4703188770976376 27.318855778246494" fill="#baff1f" stroke="none" /><path d="M 101.80526077348638 79.07773832637324 l 1.2710518076306272 -14.730990065566274 a35.78572423013135,35.78572423013135 0 0,0 0.6132563313953375,0.05823607808070153 l -1.524433266116209 14.706928442970394" fill="#ffa50f" stroke="none" /><path d="M 102.52436894288641 79.15227682838746 l 2.102696690250179 -17.365305747296325 a38.49214615386779,38.49214615386779 0 0,0 0.6570889268707125,0.08530900128629205 l -2.4013003456287376 17.326538422845896" fill="#ffc912" stroke="none" /><path d="M 102.88285421437855 79.19881850522331 l 2.58610260820614 -18.659975745255405 a39.83832852228909,39.83832852228909 0 0,0 0.6784486689259243,0.09998569785390618 l -2.90692025756072 18.612695563240532" fill="#ffdb14" stroke="none" /><path d="M 103.59715602781102 79.31037775812273 l 5.583691862706341 -32.11550304220141 a53.59728747106576,53.59728747106576 0 0,0 0.9075931866838738,0.16585685367682387 l -6.135680170493115 32.01463070717384" fill="#7eff26" stroke="none" /><path d="M 103.95276090670814 79.375362276772 l 0.6287521438275739 -3.2806905072703416 a24.340398099457833,24.340398099457833 0 0,0 0.4108121282566856,0.08240504820844234 l -0.6851306815513849 3.269381502984691" fill="#ff0000" stroke="none" /><path d="M 104.66035177308747 79.52364482259891 l 2.1386213481239995 -9.396537524708735 a30.636836551685988,30.636836551685988 0 0,0 0.5132054002516139,0.12145913723809106 l -2.300050435338137 9.358332475329776" fill="#ff5d08" stroke="none" /><path d="M 105.36241919743992 79.69619591428918 l 3.018969065908896 -11.430765517977266 a32.82271434772459,32.82271434772459 0 0,0 0.5450166559266074,0.148973640188194 l -3.2152836110592142 11.377105336962778" fill="#ff7c0b" stroke="none" /><path d="M 106.0581310904928 79.89281104454417 l 18.174393271478365 -60.321566866367476 a84.0,84.0 0 0,0 1.380858509157127,0.4290394604699177 l -19.21003715334621 59.99978727101504" fill="#4dd2ff" stroke="none" /><path d="M 107.08798089147638 80.2323363322302 l 4.052610320831192 -11.30232135572774 a33.006919606653774,33.006919606653774 0 0,0 0.5331681191609828,0.19637031787784157 l -4.246560765764752 11.230887770043573" fill="#ff7e0b" stroke="none" /><path d="M 107.4271985657038 80.35727306442388 l 3.3184838612791205 -8.776400920290348 a30.382832634724082,30.382832634724082 0 0,0 0.4875964806142637,0.18917985921250355 l -3.4690635068930513 8.717978357187297" fill="#ff5908" stroke="none" /><path d="M 107.76421540070413 80.48803036053334 l 6.945993915640153 -17.455726741635683 a39.786943007172965,39.786943007172965 0 0,0 0.6341586478223,0.2586892352220873 l -7.24543643305084 17.33357662023002" fill="#ffda14" stroke="none" /><path d="M 108.09893153111575 80.62456947434976 l 12.052851828394363 -28.83456815751588 a52.2522568469488,52.2522568469488 0 0,0 0.826870173445395,0.35402265567587476 l -12.547405759630074 28.622825973877212" fill="#8dff24" stroke="none" /><path d="M 109.08828744355905 81.06846463323043 l 5.7609078015864075 -12.000371958715446 a34.31153581845097,34.31153581845097 0 0,0 0.5302418688613372,0.26018738223510485 l -5.966620937458177 11.89942941634551" fill="#ff910d" stroke="none" /><path d="M 109.41281617654863 81.2277094730956 l 9.060771982070195 -18.07019714984216 a41.21458913619646,41.21458913619646 0 0,0 0.6314458006147439,0.323451064562828 l -9.370478270273694 17.91155355996683" fill="#ffec16" stroke="none" /><path d="M 110.05341064243156 81.56283822128135 l 4.960855591312382 -9.097817681081562 a31.362450229364462,31.362450229364462 0 0,0 0.47174488262540293,0.2625255164336893 l -5.11672456300982 9.011076767087692" fill="#ff6709" stroke="none" /><line stroke="#e1ed5e" stroke-width="0.3" x1="143.23703022742887" x2="145.7803849466894" y1="26.81831364943548" y2="22.513508569990506" /><path d="M 143.74570117128098 25.957352633546492 a86.0,86.0 0 0,1 28.547481713284135,27.462654790039103" fill="none" id="id26" stroke="none" /><text fill="#e1ed5e" style="font-size:6.75px; font-family:Arial;" text-anchor="middle"><textPath startOffset="19.985693538727396" xlink:href="#id26">February</textPath></text><path d="M 110.68208982089419 81.91981866633111 l 7.943059433830019 -13.444181552082693 a36.61531974615687,36.61531974615687 0 0,0 0.5398805690943119,0.32527200211440493 l -8.173302069141968 13.305462940509672" fill="#ffb010" stroke="none" /><path d="M 110.99172775467656 82.1063720568725 l 8.501463947434585 -13.839683464010873 a37.24228209438397,37.24228209438397 0 0,0 0.5433486645556497,0.3402448838978456 l -8.738431764362499 13.691294238790082" fill="#ffb811" stroke="none" /><path d="M 111.2981086023043 82.29822771554956 l 8.58864464883056 -13.456609168604949 a36.96387005774191,36.96387005774191 0 0,0 0.5333938801009963,0.34693421693373044 l -8.819005554715837 13.30677602751169" fill="#ffb510" stroke="none" /><path d="M 111.60114157652 82.49532879139004 l 12.881413961240412 -19.436442061001905 a44.317506419673684,44.317506419673684 0 0,0 0.6322531847115325,0.4269001726346286 l -13.214071840358487 19.211829976068607" fill="#ebff1a" stroke="none" /><path d="M 112.19680574252982 82.90503203632743 l 9.357512179555433 -13.115431556918146 a37.11141145631669,37.11141145631669 0 0,0 0.5168288617676895,0.37549814777482804 l -9.581886357676911 12.952414174326643" fill="#ffb710" stroke="none" /><path d="M 112.77801427241765 83.33499621200491 l 19.14512559570086 -24.96894930401659 a52.4640153734661,52.4640153734661 0 0,0 0.7119303050977619,0.555672895580184 l -19.572088455958053 24.635698019213184" fill="#8aff24" stroke="none" /><path d="M 113.06298171725822 83.55741782278167 l 9.881050442377234 -12.437434837819541 a36.88473931765361,36.88473931765361 0 0,0 0.49372261271557716,0.399222683376414 l -10.093676453657302 12.265506057178998" fill="#ffb410" stroke="none" /><path d="M 113.34407831869373 83.78471172551755 l 11.266240376746248 -13.690367451053564 a38.73004041652174,38.73004041652174 0 0,0 0.5111304187956079,0.42805702641739496 l -11.500228332500974 13.49440926724235" fill="#ffcc13" stroke="none" /><path d="M 113.6212207817346 84.01681056812373 l 12.929805043961561 -15.171879719620081 a40.93403603642456,40.93403603642456 0 0,0 0.532349480379256,0.46164822352600116 l -13.189048322987581 14.947066502674408" fill="#ffe915" stroke="none" /><path d="M 114.16331599549186 84.49514656593476 l 11.067625551669519 -12.115941782021366 a37.4100085501897,37.4100085501897 0 0,0 0.47170834910750503,0.4384015018623892 l -11.27454178457187 11.923635694084338" fill="#ffbb11" stroke="none" /><path d="M 114.42810811169701 84.74124197986012 l 11.812114585919685 -12.492157445548413 a38.1924416135483,38.1924416135483 0 0,0 0.4737986194135096,0.45579389648564206 l -12.025396448945612 12.286980462300468" fill="#ffc512" stroke="none" /><path d="M 114.94478906791727 85.2469230424477 l 6.523818384791447 -6.440130687059328 a30.16708730099949,30.16708730099949 0 0,0 0.36162542541189024,0.372686788659273 l -6.633708073906447 6.32687970284994" fill="#ff5608" stroke="none" /><path d="M 115.19652480421416 85.50635884689758 l 21.38144342410914 -20.392489224803686 a50.54690744700898,50.54690744700898 0 0,0 0.5950879663921514,0.6347983512386034 l -21.729298712471753 20.02142145668703" fill="#a0ff22" stroke="none" /><path d="M 115.9244219780498 86.31012108654704 l 33.604389942040925 -28.88896249428175 a65.31508972542828,65.31508972542828 0 0,0 0.7255865339085265,0.8588655943737579 l -34.09668708943657 28.306237950278884" fill="#35ff64" stroke="none" /><path d="M 116.82858285166822 87.43820079747576 l 5.950757056030082 -4.441979214752719 a28.425812338336257,28.425812338336257 0 0,0 0.2893170888749484,0.3946281840843455 l -6.026336757418657 4.338888586996879" fill="#ff3d05" stroke="none" /><path d="M 117.04232023915458 87.72973835380427 l 13.8990847825224 -10.007170651117145 a38.12682172010692,38.12682172010692 0 0,0 0.3788850733320728,0.5359060665880838 l -14.069282475658357 9.766438084197267" fill="#ffc412" stroke="none" /><path d="M 117.45458315368197 88.32363383020206 l 7.385342540377195 -4.940476838178697 a29.88547105263898,29.88547105263898 0 0,0 0.2823513338455672,0.43004045245836325 l -7.469290509580687 4.812618321742661" fill="#ff5207" stroke="none" /><path d="M 117.65298651832404 88.62581576622439 l 6.911372041527907 -4.453139916404783 a29.22177101429438,29.22177101429438 0 0,0 0.2688018927991192,0.4251800414940226 l -6.987001530572982 4.333512227196554" fill="#ff4806" stroke="none" /><line stroke="#e1ed5e" stroke-width="0.3" x1="172.23445277983987" x2="176.4835382374775" y1="55.19839476539836" y2="52.563006222186495" /><path d="M 173.08426987136738 54.67131705675599 a86.0,86.0 0 0,1 12.851231095245387,41.99856678651699" fill="none" id="id27" stroke="none" /><text fill="#e1ed5e" style="font-size:6.75px; font-family:Arial;" text-anchor="middle"><textPath startOffset="22.20632615414155" xlink:href="#id27">March</textPath></text><path d="M 118.03404312379186 89.2402003453031 l 16.310340624472634 -9.73137283827729 a39.99280991859507,39.99280991859507 0 0,0 0.34763335911365084,0.5942180977342381 l -16.475433658056613 9.449175328189156" fill="#ffdd14" stroke="none" /><path d="M 118.21658344932153 89.55222093294921 l 13.790308031395632 -7.909171990424134 a36.8974085050012,36.8974085050012 0 0,0 0.3112425701320265,0.553665802885622 l -13.92440824282009 7.670622677603718" fill="#ffb410" stroke="none" /><path d="M 118.73160827565052 90.50648371742162 l 29.620396201019986 -15.012150024317155 a54.20741663330655,54.20741663330655 0 0,0 0.41466089075255114,0.8359310528066125 l -29.874417104725943 14.500059383011592" fill="#77ff27" stroke="none" /><path d="M 119.196687751892 91.48605970444005 l 11.039693167120062 -4.896224271653196 a33.07674779659173,33.07674779659173 0 0,0 0.22635409269337484,0.5224564542106038 l -11.122337969656117 4.705468672855989" fill="#ff7f0b" stroke="none" /><path d="M 119.34039704204932 91.81776055985345 l 13.617322677175911 -5.761008651277643 a35.785827591799695,35.785827591799695 0 0,0 0.23512705354751878,0.56937881027591 l -13.714471417609628 5.52575527054843" fill="#ffa50f" stroke="none" /><path d="M 119.47837535516314 92.15188598940014 l 16.088487609458177 -6.48228010369879 a38.345298755066125,38.345298755066125 0 0,0 0.24140456319680687,0.6143482820814494 l -16.197685722536683 6.204382816721556" fill="#ffc712" stroke="none" /><path d="M 120.18372546131832 94.20196356495316 l 10.88950499094642 -3.1281512829796454 a32.32990067904632,32.32990067904632 0 0,0 0.149045813905105,0.5361970937190373 l -10.94173757541789 2.940242885841656" fill="#ff750a" stroke="none" /><path d="M 120.28053869075195 94.5502522615342 l 7.571241651940603 -2.0345296394349117 a28.839834883836485,28.839834883836485 0 0,0 0.12470299027176933,0.4805314910683495 l -7.605140974082675 1.903901722817712" fill="#ff4306" stroke="none" /><path d="M 120.6074358757038 95.95851677861258 l 61.73034007411819 -12.106413197880121 a83.90628049872356,83.90628049872356 0 0,0 0.26576026222804233,1.4197019476081874 l -61.92958606025609 11.04203317280937" fill="#4dd3ff" stroke="none" /><path d="M 120.83666639777658 97.38593545837742 l 10.637157236379082 -1.3344848463019825 a31.720539346341745,31.720539346341745 0 0,0 0.06330460031147386,0.5423551560008041 l -10.658552189694145 1.1511859519763257" fill="#ff6c0a" stroke="none" /><path d="M 120.94382443527127 98.46500227214037 l 46.11067534207922 -3.3795060734449898 a67.23435348096785,67.23435348096785 0 0,0 0.07466025654173282,1.1549611232888828 l -46.16201618962537 2.5852858859030716" fill="#37ff7b" stroke="none" /><line stroke="#e1ed5e" stroke-width="0.3" x1="184.98032266829074" x2="189.97916517819016" y1="98.17113171792111" y2="98.06355123074" /><path d="M 185.9800911702706 98.14961562048488 a86.0,86.0 0 0,1 -9.607161424134198,41.387399972396054" fill="none" id="id28" stroke="none" /><text fill="#e1ed5e" style="font-size:6.75px; font-family:Arial;" text-anchor="middle"><textPath startOffset="21.466115282336823" xlink:href="#id28">April</textPath></text><path d="M 120.99980553446 99.90962569577887 l 10.339482021538922 -0.04449676889484072 a31.339577768756744,31.339577768756744 0 0,0 -0.002321669813365999,0.5394743009763846 l -10.338716054436054 -0.13348701028522864" fill="#ff6709" stroke="none" /><path d="M 120.76222939487914 103.15116336523771 l 4.168137606411046 0.632614266839359 a25.215871430272358,25.215871430272358 0 0,0 -0.06882521488735811,0.428574678802377 l -4.156630637162399 -0.7042681753349409" fill="#ff0d01" stroke="none" /><path d="M 120.5718875245553 104.21870165774334 l 8.909499657874896 1.8270817848617917 a30.094911324595014,30.094911324595014 0 0,0 -0.10843620927991074,0.5065778694828653 l -8.876729409870542 -1.980173473760826" fill="#ff5507" stroke="none" /><line stroke="#e1ed5e" stroke-width="0.3" x1="174.80103733775053" x2="179.2010983576182" y1="140.37084112569926" y2="142.7455964860345" /><path d="M 175.68104954172406 140.8457921977663 a86.0,86.0 0 0,1 -30.038265399797805,32.042727171017184" fill="none" id="id29" stroke="none" /><text fill="#e1ed5e" style="font-size:6.75px; font-family:Arial;" text-anchor="middle"><textPath startOffset="22.206326154141568" xlink:href="#id29">May</textPath></text><line stroke="#e1ed5e" stroke-width="0.3" x1="143.8653032363475" x2="146.44561519142675" y1="172.8068346515853" y2="177.08958963109032" /><path d="M 144.38136562736335 173.6633856474863 a86.0,86.0 0 0,1 -40.68145358897372,12.25698825130547" fill="none" id="id30" stroke="none" /><text fill="#e1ed5e" style="font-size:6.75px; font-family:Arial;" text-anchor="middle"><textPath startOffset="21.466115282336833" xlink:href="#id30">June</textPath></text><line stroke="#e1ed5e" stroke-width="0.3" x1="102.19456741930631" x2="102.32365962044197" y1="184.97166512339345" y2="189.96999836594603" /><path d="M 102.22038585953345 185.97133177190398 a86.0,86.0 0 0,1 -42.740103519485714,-10.115201625700543" fill="none" id="id31" stroke="none" /><text fill="#e1ed5e" style="font-size:6.75px; font-family:Arial;" text-anchor="middle"><textPath startOffset="22.20632615414155" xlink:href="#id31">July</textPath></text><line stroke="#e1ed5e" stroke-width="0.3" x1="58.666819895761336" x2="56.23545636021788" y1="174.27360380694188" y2="178.64263932499728" /><path d="M 58.180547188652646 175.14741091055294 a86.0,86.0 0 0,1 -31.652253787137756,-30.449443065178592" fill="none" id="id32" stroke="none" /><text fill="#e1ed5e" style="font-size:6.75px; font-family:Arial;" text-anchor="middle"><textPath startOffset="22.20632615414155" xlink:href="#id32">August</textPath></text><line stroke="#e1ed5e" stroke-width="0.3" x1="26.63291911575756" x2="22.317208475507996" y1="142.92168965132927" y2="145.44649492493687" /><path d="M 25.769776987707644 143.4266507060508 a86.0,86.0 0 0,1 -11.730757126820373,-40.83630448921669" fill="none" id="id33" stroke="none" /><text fill="#e1ed5e" style="font-size:6.75px; font-family:Arial;" text-anchor="middle"><textPath startOffset="21.46611528233685" xlink:href="#id33">September</textPath></text><line stroke="#e1ed5e" stroke-width="0.3" x1="15.007084014347285" x2="10.007500721073583" y1="101.09737516637583" y2="101.16192664675087" /><path d="M 14.007167355692545 101.11028546245083 a86.0,86.0 0 0,1 10.666146001902534,-42.60595125391555" fill="none" id="id34" stroke="none" /><text fill="#e1ed5e" style="font-size:6.75px; font-family:Arial;" text-anchor="middle"><textPath startOffset="22.20632615414155" xlink:href="#id34">October</textPath></text><line stroke="#e1ed5e" stroke-width="0.3" x1="26.266209847984243" x2="21.928928074336255" y1="57.711370442889674" y2="55.22380399835377" /><path d="M 25.398753493254645 57.213857153982495 a86.0,86.0 0 0,1 29.58750427330803,-30.492523968695096" fill="none" id="id35" stroke="none" /><text fill="#e1ed5e" style="font-size:6.75px; font-family:Arial;" text-anchor="middle"><textPath startOffset="21.46611528233685" xlink:href="#id35">November</textPath></text><line stroke="#e1ed5e" stroke-width="0.3" x1="56.762969772571076" x2="54.21961505331055" y1="26.818313649435495" y2="22.513508569990535" /><path d="M 56.25429882871897 25.957352633546506 a86.0,86.0 0 0,1 42.265352541879196,-11.944610805530505" fill="none" id="id36" stroke="none" /><text fill="#e1ed5e" style="font-size:6.75px; font-family:Arial;" text-anchor="middle"><textPath startOffset="22.20632615414155" xlink:href="#id36">December</textPath></text></svg>