<?xml version="1.0" encoding="utf-8" ?>
<svg baseProfile="full" height="200mm" version="1.1" viewBox="0,0,200,200" width="200mm" xmlns="http://www.w3.org/2000/svg" xmlns:ev="http://www.w3.org/2001/xml-events" xmlns:xlink="http://www.w3.org/1999/xlink"><defs /><rect fill="#1a1a1a" height="200" width="200" x="0" y="0" /><rect fill="#1a1a1a" height="200" width="180" x="10" y="0" /><text alignment-baseline="middle" fill="#e1ed5e" style="dominant-baseline: central; font-size:9.0px; font-family:Arial;" text-anchor="middle" x="100.0" y="100.0">2022</text><line stroke="#e1ed5e" stroke-width="0.3" x1="100.0" x2="100.0" y1="15.0" y2="10.0" /><path d="M 100.0 14.0 a86.0,86.0 0 0,1 42.46469731375804,11.215312516191453" fill="none" id="id49" stroke="none" /><text fill="#e1ed5e" style="font-size:6.75px; font-family:Arial;" text-anchor="middle"><textPath startOffset="22.20632615414155" xlink:href="#id49">January</textPath></text><path d="M 100.72285384407766 79.0124445844662 l 0.061228984771779175 -1.7777407168308983 a22.778794829330977,22.778794829330977 0 0,0 0.3917509799873988,0.016869621268333978 l -0.09182079714850949 1.7764233690383695" fill="#ff0000" stroke="none" /><line stroke="#e1ed5e" stroke-width="0.3" x1="143.23703022742887" x2="145.7803849466894" y1="26.81831364943548" y2="22.513508569990506" /><path d="M 143.74570117128098 25.957352633546492 a86.0,86.0 0 0,1 28.547481713284135,27.462654790039103" fill="none" id="id50" stroke="none" /><text fill="#e1ed5e" style="font-size:6.75px; font-family:Arial;" text-anchor="middle"><textPath startOffset="19.985693538727396" xlink:href="#id50">February</textPath></text><path d="M 113.34407831869373 83.78471172551755 l 3.7207882822679785 -4.521380432904849 a26.855522731619914,26.855522731619914 0 0,0 0.3544193198138836,0.2968159877901408 l -3.7980651390409794 4.456663287720889" fill="#ff3b05" stroke="none" /><path d="M 114.68862486808459 84.99185889309783 l 10.769732122156492 -11.00400213256579 a36.39724627706272,36.39724627706272 0 0,0 0.44398435565127004,0.44207774573033987 l -10.957552277975084 10.81698853618533" fill="#ffbd11" stroke="none" /><path d="M 115.19652480421416 85.50635884689758 l 10.83034907058785 -10.329413797844541 a35.966404057016646,35.966404057016646 0 0,0 0.4234319235289825,0.45168765308364267 l -11.006548316087297 10.141456727882844" fill="#ffb811" stroke="none" /><path d="M 115.9244219780498 86.31012108654704 l 3.0273408196145892 -2.6025389999965713 a24.99224268859095,24.99224268859095 0 0,0 0.2776392840191649,0.32863734034056125 l -3.0716907171208714 2.5500427100269034" fill="#ff2003" stroke="none" /><path d="M 116.38621287248628 86.86637796730983 l 11.990435220006848 -9.610386818020874 a36.36652438117254,36.36652438117254 0 0,0 0.3872964181347312,0.49182712046406074 l -12.154085718735542 9.402567303603776" fill="#ffbd11" stroke="none" /><path d="M 116.82858285166822 87.43820079747576 l 11.794157430530776 -8.80382137409748 a35.71765675245757,35.71765675245757 0 0,0 0.36353326863834823,0.4958589698758025 l -11.943953311682751 8.599499960550183" fill="#ffb410" stroke="none" /><line stroke="#e1ed5e" stroke-width="0.3" x1="172.23445277983987" x2="176.4835382374775" y1="55.19839476539836" y2="52.563006222186495" /><path d="M 173.08426987136738 54.67131705675599 a86.0,86.0 0 0,1 12.851231095245387,41.99856678651699" fill="none" id="id51" stroke="none" /><text fill="#e1ed5e" style="font-size:6.75px; font-family:Arial;" text-anchor="middle"><textPath startOffset="22.20632615414155" xlink:href="#id51">March</textPath></text><path d="M 117.84615892207809 88.93136811851018 l 12.220415929183158 -7.579406075527208 a35.38005430935406,35.38005430935406 0 0,0 0.31654063145252526,0.5203095693529622 l -12.349072358921909 7.367928732967164" fill="#ffb010" stroke="none" /><path d="M 119.04729006885535 91.15688171328212 l 13.420742699393111 -6.230871413062429 a35.796624384278736,35.796624384278736 0 0,0 0.25466346397831424,0.5611171859548622 l -13.526008480334774 5.998932218265504" fill="#ffb510" stroke="none" /><path d="M 119.34039704204932 91.81776055985345 l 13.548278840995295 -5.731798640838467 a35.71085909158532,35.71085909158532 0 0,0 0.2346344808238878,0.5681860063551195 l -13.64493500870538 5.497738064030044" fill="#ffb410" stroke="none" /><line stroke="#e1ed5e" stroke-width="0.3" x1="184.98032266829074" x2="189.97916517819016" y1="98.17113171792111" y2="98.06355123074" /><path d="M 185.9800911702706 98.14961562048488 a86.0,86.0 0 0,1 -9.607161424134198,41.387399972396054" fill="none" id="id52" stroke="none" /><text fill="#e1ed5e" style="font-size:6.75px; font-family:Arial;" text-anchor="middle"><textPath startOffset="21.466115282336823" xlink:href="#id52">April</textPath></text><line stroke="#e1ed5e" stroke-width="0.3" x1="174.80103733775053" x2="179.2010983576182" y1="140.37084112569926" y2="142.7455964860345" /><path d="M 175.68104954172406 140.8457921977663 a86.0,86.0 0 0,1 -30.038265399797805,32.042727171017184" fill="none" id="id53" stroke="none" /><text fill="#e1ed5e" style="font-size:6.75px; font-family:Arial;" text-anchor="middle"><textPath startOffset="22.206326154141568" xlink:href="#id53">May</textPath></text><path d="M 114.81725581225074 114.88116024355365 l 2.1348910175311184 2.1440984577007227 a24.025709479287407,24.025709479287407 0 0,0 -0.2955734851513921,0.2892808651928575 l -2.097667580003932 -2.1805294258161525" fill="#ff1202" stroke="none" /><path d="M 114.55890576462653 115.13401014063108 l 3.259427435063125 3.3881809974172783 a25.701450592710906,25.701450592710906 0 0,0 -0.32146905118477587,0.30396905298168553 l -3.2006225494875418 -3.4437846871448854" fill="#ff2b04" stroke="none" /><line stroke="#e1ed5e" stroke-width="0.3" x1="143.8653032363475" x2="146.44561519142675" y1="172.8068346515853" y2="177.08958963109032" /><path d="M 144.38136562736335 173.6633856474863 a86.0,86.0 0 0,1 -40.68145358897372,12.25698825130547" fill="none" id="id54" stroke="none" /><text fill="#e1ed5e" style="font-size:6.75px; font-family:Arial;" text-anchor="middle"><textPath startOffset="21.466115282336833" xlink:href="#id54">June</textPath></text><path d="M 105.88484417918355 120.15858648285463 l 2.273130323551428 7.786628297857186 a29.111639890727357,29.111639890727357 0 0,0 -0.4822396268260328,0.13628573550247192 l -2.138759528620789 -7.824602826698177" fill="#ff5b08" stroke="none" /><path d="M 104.13013068566511 120.58985236759428 l 1.281777966918295 6.390020344509459 a27.517308858702492,27.517308858702492 0 0,0 -0.46521599069868175,0.08915975184079211 l -1.1715943616479088 -6.411137294698719" fill="#ff4506" stroke="none" /><path d="M 103.41894727170886 120.7198165907248 l 1.481037282428271 8.975517437740814 a30.096888737757098,30.096888737757098 0 0,0 -0.5118823463853124,0.0799454951132343 l -1.3263190724344414 -8.999681240201154" fill="#ff6909" stroke="none" /><path d="M 101.62511606390274 120.93702456842531 l 0.29045994850069945 3.742112463831188 a24.753368177203477,24.753368177203477 0 0,0 -0.4250945886118735,0.029317011684045487 l -0.2260025991098956 -3.7465578200315184" fill="#ff1d02" stroke="none" /><line stroke="#e1ed5e" stroke-width="0.3" x1="102.19456741930631" x2="102.32365962044197" y1="184.97166512339345" y2="189.96999836594603" /><path d="M 102.22038585953345 185.97133177190398 a86.0,86.0 0 0,1 -42.740103519485714,-10.115201625700543" fill="none" id="id55" stroke="none" /><text fill="#e1ed5e" style="font-size:6.75px; font-family:Arial;" text-anchor="middle"><textPath startOffset="22.20632615414155" xlink:href="#id55">July</textPath></text><path d="M 100.54218724476979 120.99299961872073 l 0.17147598351261292 6.639394952989847 a27.641608943223673,27.641608943223673 0 0,0 -0.4757519861097318,0.008190501889990135 l -0.05716430751021318 -6.641362932158997" fill="#ff4606" stroke="none" /><path d="M 99.81925306533755 120.99922214144158 l -0.06837646170305087 7.9439936905687905 a28.94428795401525,28.94428795401525 0 0,0 -0.4981729720921518,-0.008576499496781203 l 0.20510912368787057 -7.941639713792849" fill="#ff5908" stroke="none" /><path d="M 99.45781275523022 120.99299961872073 l -0.16887911730859986 6.538846642869113 a27.541027103997017,27.541027103997017 0 0,0 -0.47381012317386506,-0.016318978657497592 l 0.281409592157108 -6.534970865785522" fill="#ff4506" stroke="none" /><path d="M 99.09653310690486 120.98055641714683 l -0.522542033684214 12.134614673575912 a33.145860342237214,33.145860342237214 0 0,0 -0.5698119555356091,-0.02945276947710549 l 0.7313420576333121 -12.123822097336605" fill="#ff920d" stroke="none" /><path d="M 94.81253420990036 120.34920634021253 l -1.8132051820901542 7.1127768125072235 a28.340252517243464,28.340252517243464 0 0,0 -0.47167567180534953,-0.12457383191726276 l 1.9353712967069931 -7.080511631286379" fill="#ff5007" stroke="none" /><path d="M 94.46302465271185 120.25689768951611 l -1.9482084161187994 7.127475939097578 a28.388939659724596,28.388939659724596 0 0,0 -0.4702679656274759,-0.13290242446606818 l 2.070607549850889 -7.092884721292989" fill="#ff5107" stroke="none" /><path d="M 94.11515582081647 120.15858648285463 l -2.0750358543208267 7.108053917946557 a28.40474201421983,28.40474201421983 0 0,0 -0.46817105027095535,-0.1410560969809526 l 2.197081879032028 -7.0712824518598785" fill="#ff5107" stroke="none" /><path d="M 92.06813273071674 119.44442032107085 l -2.620615186135811 6.424255657471505 a27.9382047178186,27.9382047178186 0 0,0 -0.44372326875215007,-0.18547636232542203 l 2.7308099143854236 -6.37819425212611" fill="#ff4b06" stroke="none" /><path d="M 91.7346041902142 119.30500536409082 l -3.6567564229804472 8.540873780930353 a30.290769208133,30.290769208133 0 0,0 -0.4775546396917465,-0.20934592000366833 l 3.803231737329937 -8.476663307632231" fill="#ff6b09" stroke="none" /><path d="M 91.40352486487194 119.15986991738527 l -3.7486204704976647 8.354945423024592 a30.157361435127136,30.157361435127136 0 0,0 -0.4717932568880309,-0.2165771442393203 l 3.8918817231531153 -8.289181208451199" fill="#ff6a09" stroke="none" /><path d="M 90.7491055286396 118.85261126421891 l -4.036575884022741 8.226231119120165 a30.163232142244077,30.163232142244077 0 0,0 -0.4641490761154253,-0.23273398234103546 l 4.177578867820927 -8.155529295869828" fill="#ff6a09" stroke="none" /><path d="M 90.10565033884886 118.52300852407294 l -3.1752816010395026 5.944379385875056 a27.739292212771034,27.739292212771034 0 0,0 -0.4192294553925422,-0.2285973252851218 l 3.277133868300685 -5.888841408830168" fill="#ff4806" stroke="none" /><line stroke="#e1ed5e" stroke-width="0.3" x1="58.666819895761336" x2="56.23545636021788" y1="174.27360380694188" y2="178.64263932499728" /><path d="M 58.180547188652646 175.14741091055294 a86.0,86.0 0 0,1 -31.652253787137756,-30.449443065178592" fill="none" id="id56" stroke="none" /><text fill="#e1ed5e" style="font-size:6.75px; font-family:Arial;" text-anchor="middle"><textPath startOffset="22.20632615414155" xlink:href="#id56">August</textPath></text><path d="M 89.4739219176387 118.17145234162733 l -4.600849521401048 7.94257055239166 a30.17890207477427,30.17890207477427 0 0,0 -0.4472687591789511,-0.2642542666722199 l 4.73688615160838 -7.862197713425691" fill="#ff6a09" stroke="none" /><path d="M 88.8546689885994 117.79835938074946 l -4.762295720408668 7.605072529702011 a29.973103627544422,29.973103627544422 0 0,0 -0.4349214344974361,-0.2775874370917278 l 4.892498956953028 -7.521970663786479" fill="#ff6709" stroke="none" /><path d="M 88.24862548938628 117.40417183066458 l -6.447277825161482 9.54863033322591 a32.52144663640035,32.52144663640035 0 0,0 -0.4612518563217098,-0.3172532326970458 l 6.610686566106082 -9.436236311163762" fill="#ff8a0c" stroke="none" /><path d="M 87.65650970185807 116.9893568818739 l -6.729153826804409 9.261885667283003 a32.44832028459279,32.44832028459279 0 0,0 -0.4490461694940397,-0.3321936210139558 l 6.8875849667170135 -9.14468209752928" fill="#ff890c" stroke="none" /><path d="M 87.07902340077011 116.55440617244103 l -5.5335056459240395 7.089549254781717 a29.99340832885115,29.99340832885115 0 0,0 -0.40425759501667163,-0.3211666826930797 l 5.654720733658069 -6.993248658083507" fill="#ff6709" stroke="none" /><path d="M 86.51685102203217 116.09983520530335 l -8.054591970194549 9.617753506839668 a33.54502428553445,33.54502428553445 0 0,0 -0.4394949652386469,-0.3745471440160282 l 8.218952412010253 -9.477681972600687" fill="#ff980e" stroke="none" /><path d="M 85.97065885151581 115.62618273729859 l -6.158357459632292 6.859311353777827 a30.218216684840627,30.218216684840627 0 0,0 -0.38405979273772256,-0.3508295146961125 l 6.275516801836869 -6.752289072495139" fill="#ff6a09" stroke="none" /><path d="M 85.44109423537348 115.13401014063109 l -6.742605670634833 7.00895137611202 a30.72564294133707,30.72564294133707 0 0,0 -0.3779986341513702,-0.36995122168356914 l 6.862254257161998 -6.891850051505881" fill="#ff710a" stroke="none" /><path d="M 84.9287848128048 114.62390073753433 l -6.47143636784013 6.2793638002707155 a30.017200141904034,30.017200141904034 0 0,0 -0.35662356101674686,-0.3739183779638506 l 6.578566480235834 -6.167038305724365" fill="#ff6809" stroke="none" /><path d="M 84.19399662182784 113.82643327865904 l -6.883040012423758 6.020996656089727 a30.144869629757995,30.144869629757995 0 0,0 -0.33827925363165795,-0.39349519563365465 l 6.985661775626195 -5.901624361294542" fill="#ff6909" stroke="none" /><path d="M 83.72743513129214 113.27417163493432 l -6.911956122577472 5.638354656718238 a29.91998770601016,29.91998770601016 0 0,0 -0.3221130138984604,-0.4018855119783869 l 7.007987048530793 -5.518541311161591" fill="#ff6609" stroke="none" /><path d="M 83.28015986056508 112.70617746262583 l -6.04532428628296 4.594120671014334 a28.59288419944383,28.59288419944383 0 0,0 -0.2944232886105643,-0.3944281090600328 l 6.123508841588609 -4.489379682444993" fill="#ff5407" stroke="none" /><path d="M 82.6465618267979 111.8261652097733 l -9.833332750078227 6.701301292828549 a32.89965848211732,32.89965848211732 0 0,0 -0.31489186609300496,-0.4707206147196004 l 9.947227721581962 -6.531043763903128" fill="#ff8f0d" stroke="none" /><path d="M 82.24976979558568 111.22182372390057 l -7.556102152498586 4.777022349492541 a29.939497875526623,29.939497875526623 0 0,0 -0.2716444293273302,-0.4379773135449361 l 7.637211221493873 -4.646248704582341" fill="#ff6709" stroke="none" /><line stroke="#e1ed5e" stroke-width="0.3" x1="26.63291911575756" x2="22.317208475507996" y1="142.92168965132927" y2="145.44649492493687" /><path d="M 25.769776987707644 143.4266507060508 a86.0,86.0 0 0,1 -11.730757126820373,-40.83630448921669" fill="none" id="id57" stroke="none" /><text fill="#e1ed5e" style="font-size:6.75px; font-family:Arial;" text-anchor="middle"><textPath startOffset="21.46611528233685" xlink:href="#id57">September</textPath></text><path d="M 81.87401531095188 110.60418214915194 l -7.708449988085441 4.509647843334833 a29.93068445807537,29.93068445807537 0 0,0 -0.2563320882656154,-0.4469366021871262 l 7.784934072503433 -4.3762913952894005" fill="#ff6609" stroke="none" /><path d="M 81.51974371655577 109.97397251340807 l -11.757941116167189 6.345874197209209 a34.36111142899649,34.36111142899649 0 0,0 -0.2764392185968646,-0.5229188227457038 l 11.86543284298894 -6.142540359377379" fill="#ffa30f" stroke="none" /><path d="M 81.02952815118164 109.00673069616217 l -8.245852191289464 3.9149353078388978 a30.128022613094082,30.128022613094082 0 0,0 -0.2183928469588863,-0.47039876320967916 l 8.312019655088177 -3.7724164773503914" fill="#ff6909" stroke="none" /><path d="M 80.87730276802145 108.67885076344099 l -8.162629409796994 3.704615600273916 a29.963966511956393,29.963966511956393 0 0,0 -0.20911840138764687,-0.47150678948348307 l 8.22518889591592 -3.563560474297737" fill="#ff6709" stroke="none" /><path d="M 80.58989483394504 108.01547362559985 l -7.303814399933465 3.0161367590798 a28.902074774269593,28.902074774269593 0 0,0 -0.18593308307339623,-0.4614706639270049 l 7.3546500972642495 -2.8899667273099894" fill="#ff5808" stroke="none" /><path d="M 80.20201598880116 107.00284435728193 l -10.63106946603038 3.7603689739294315 a32.27652485527587,32.27652485527587 0 0,0 -0.18076263182234423,-0.5253808211880988 l 10.694222928795952 -3.576815449652036" fill="#ff870c" stroke="none" /><path d="M 79.97269907076064 106.31721596034903 l -8.639930645824226 2.7252952339885006 a30.0595604571664,30.0595604571664 0 0,0 -0.1514046060286471,-0.494799012713498 l 8.685562024359003 -2.576169248722955" fill="#ff6809" stroke="none" /><path d="M 79.86692584326677 105.97154293290107 l -8.211214715407955 2.435476113712574 a29.564787855107483,29.564787855107483 0 0,0 -0.1405135008019054,-0.4891459299309336 l 8.251920853095964 -2.2937727082770443" fill="#ff6109" stroke="none" /><path d="M 79.76711848015287 105.62410040840567 l -8.309759233793214 2.3098499467159606 a29.62481914592737,29.62481914592737 0 0,0 -0.13234101295745065,-0.49249014127991103 l 8.348288323092438 -2.1664688722605105" fill="#ff6209" stroke="none" /><path d="M 79.58551787078972 104.9243191809786 l -14.483132546823812 3.493577106172661 a35.89853044315583,35.89853044315583 0 0,0 -0.13972978868325212,-0.6019522725791211 l 14.54112290143762 -3.243756176244966" fill="#ffb711" stroke="none" /><path d="M 79.4281124754447 104.21870165774334 l -9.908468481348539 2.0319415200995925 a31.114669247532618,31.114669247532618 0 0,0 -0.10307855357099115,-0.525595323923002 l 9.941976967895195 -1.8610824691086356" fill="#ff770a" stroke="none" /><path d="M 79.35854240842038 103.8639653848113 l -9.965550583092575 1.8654953179936238 a31.138652336757232,31.138652336757232 0 0,0 -0.09408848912049435,-0.5276982140042523 l 9.996185514552257 -1.693678353256158" fill="#ff770b" stroke="none" /><path d="M 79.23777060512086 103.15116336523772 l -10.544872237261139 1.6004357939213043 a31.665632903425152,31.665632903425152 0 0,0 -0.07715248369827404,-0.5396042912903384 l 10.570858771976011 -1.4186860306505653" fill="#ff7e0b" stroke="none" /><path d="M 79.1416061653843 102.43462659150553 l -15.784841986038638 1.8424331397053955 a36.89200416556996,36.89200416556996 0 0,0 -0.06819346165338251,-0.6313867614356087 l 15.814217749193073 -1.5704500563850048" fill="#ffc412" stroke="none" /><path d="M 79.07016306316243 101.71520430193888 l -10.688963497277545 0.8759626856686001 a31.72479609469642,31.72479609469642 0 0,0 -0.0399180137378159,-0.5446495824428913 l 10.702458069679697 -0.6918399667289482" fill="#ff7f0b" stroke="none" /><path d="M 79.04373962182676 101.35467743843564 l -10.8175280017314 0.699278442772848 a31.840106199146287,31.840106199146287 0 0,0 -0.030647844495870092,-0.547237851531203 l 10.827962197114802 -0.5129688749062074" fill="#ff810b" stroke="none" /><path d="M 79.0095281055655 100.63252640178507 l -8.978297688919124 0.2705518179814256 a29.982373165097492,29.982373165097492 0 0,0 -0.011104810430135377,-0.5159969051736658 l 8.981624562034266 -0.11596509701763089" fill="#ff6709" stroke="none" /><line stroke="#e1ed5e" stroke-width="0.3" x1="15.007084014347285" x2="10.007500721073583" y1="101.09737516637583" y2="101.16192664675087" /><path d="M 14.007167355692545 101.11028546245083 a86.0,86.0 0 0,1 10.666146001902534,-42.60595125391555" fill="none" id="id58" stroke="none" /><text fill="#e1ed5e" style="font-size:6.75px; font-family:Arial;" text-anchor="middle"><textPath startOffset="22.20632615414155" xlink:href="#id58">October</textPath></text><path d="M 79.00019446554 99.90962569577889 l -16.053528010055764 -0.06908761235061421 a37.05367667133686,37.05367667133686 0 0,0 0.008234725966076117,-0.6377886010589913 l 16.049960276971973 0.3454124714700774" fill="#ffc612" stroke="none" /><path d="M 79.01574976396665 99.18683210126434 l -14.771000995826814 -0.5723961402906542 a35.78208739522725,35.78208739522725 0 0,0 0.029147733581235315,-0.6152625876314944 l 14.758959654012079 0.8265698345451578" fill="#ffb510" stroke="none" /><path d="M 79.03285615573316 98.82574320788736 l -3.0314939385571726 -0.16977764706719617 a24.03624438228423,24.03624438228423 0 0,0 0.026691000641350576,-0.4128979662051668 l 3.0281223469114087 0.2219346775253747" fill="#ff1302" stroke="none" /><path d="M 79.05617556472873 98.46500227214037 l -8.834098687217873 -0.6474615681809485 a29.857793523094557,29.857793523094557 0 0,0 0.04197936979905922,-0.5122546413930812 l 8.821644833599317 0.799430126781808" fill="#ff6509" stroke="none" /><path d="M 79.08570108090925 98.10471618934814 l -8.113177144343782 -0.73522776709428 a29.146422726878882,29.146422726878882 0 0,0 0.04958066647071086,-0.49927054510908747 l 8.099319352190843 0.8747738429077978" fill="#ff5c08" stroke="none" /><path d="M 79.16333360222342 97.38593545837743 l -11.27874894098525 -1.4149757508062162 a32.36716033357256,32.36716033357256 0 0,0 0.07411155085594026,-0.5522171365224462 l 11.252721391071477 1.6089112293933217" fill="#ff880c" stroke="none" /><path d="M 79.26566170972629 96.67025291283419 l -11.175564214899147 -1.7946944759481722 a32.318752748573196,32.318752748573196 0 0,0 0.09293663411783386,-0.548517275404685 l 11.14301571926109 1.9867975396686852" fill="#ff870c" stroke="none" /><path d="M 79.32604984820605 96.31383870115002 l -11.345676842512598 -2.022931978603973 a32.52461005000973,32.52461005000973 0 0,0 0.10301670917097316,-0.5503193796547422 l 11.309174409431764 2.2179294357212873" fill="#ff8a0c" stroke="none" /><path d="M 79.46518482838121 95.60439243477599 l -14.879880202192618 -3.1851328312310656 a36.21696112843132,36.21696112843132 0 0,0 0.1357370536445983,-0.6084825961271959 l 14.822848761545982 3.4407935969082204" fill="#ffbb11" stroke="none" /><path d="M 79.62865764111835 94.90015583598534 l -13.260581489810608 -3.3197075544099763 a34.66980174306542,34.66980174306542 0 0,0 0.1499116748380739,-0.5776708359719439 l 13.201473483102227 3.547474815930784" fill="#ffa70f" stroke="none" /><path d="M 79.81627453868168 94.20196356495316 l -11.204712592654289 -3.218698747213068 a32.65785597394721,32.65785597394721 0 0,0 0.15985880986176118,-0.5389644367825753 l 11.14764788568082 3.411092570742183" fill="#ff8c0c" stroke="none" /><path d="M 79.91906864156998 93.8553929516997 l -11.228027570645493 -3.4356881221117033 a32.74191449464672,32.74191449464672 0 0,0 0.16954779296300915,-0.5375128368052393 l 11.16722429391428 3.628451125343357" fill="#ff8d0d" stroke="none" /><path d="M 80.14247586403 93.16781622104843 l -14.060476490196548 -4.837650390999172 a35.86942703794952,35.86942703794952 0 0,0 0.2059023296448635,-0.5821136130119376 l 13.975121079741875 5.07896163043772" fill="#ffb610" stroke="none" /><path d="M 80.38941819471856 92.48833698450439 l -9.616010094143252 -3.6833291382183844 a31.29730856443146,31.29730856443146 0 0,0 0.19703362207432523,-0.5014290766946339 l 9.551182922187236 3.8483072198087815" fill="#ff790b" stroke="none" /><path d="M 80.65960295795068 91.81776055985345 l -10.62888985102726 -4.49670818830477 a32.54095680591681,32.54095680591681 0 0,0 0.22268751445801388,-0.5139934861187204 l 10.549911626726566 4.679000819010089" fill="#ff8a0c" stroke="none" /><path d="M 80.803312248108 91.48605970444005 l -10.722368416426772 -4.755487285323883 a32.72961396544931,32.72961396544931 0 0,0 0.23284421395819313,-0.5130413607867192 l 10.638921885505228 4.939350654952673" fill="#ff8d0d" stroke="none" /><line stroke="#e1ed5e" stroke-width="0.3" x1="26.266209847984243" x2="21.928928074336255" y1="57.711370442889674" y2="55.22380399835377" /><path d="M 25.398753493254645 57.213857153982495 a86.0,86.0 0 0,1 29.58750427330803,-30.492523968695096" fill="none" id="id59" stroke="none" /><text fill="#e1ed5e" style="font-size:6.75px; font-family:Arial;" text-anchor="middle"><textPath startOffset="21.46611528233685" xlink:href="#id59">November</textPath></text><path d="M 82.54541684631803 88.32363383020206 l -7.677222234807269 -5.135731812742518 a30.236638051533397,30.236638051533397 0 0,0 0.29311617846294324,-0.4301118232576676 l 7.587681590675585 5.267121659270602" fill="#ff6b09" stroke="none" /><path d="M 82.7489923806493 88.02491185347247 l -14.643578582449427 -10.165095754101497 a38.825923970173996,38.825923970173996 0 0,0 0.3858323979537818,-0.5457325645775357 l 14.466433564691767 10.415654819010818" fill="#ffdc14" stroke="none" /><path d="M 85.05521093208273 85.24692304244772 l -8.237501521238768 -8.131830655387493 a32.575106959346456,32.575106959346456 0 0,0 0.3973607718431034,-0.39565437840797174 l 8.096304949228351 8.272420884445573" fill="#ff8b0c" stroke="none" /><path d="M 85.57189188830299 84.74124197986013 l -16.34682742544795 -17.287941159775404 a44.79268115243076,44.79268115243076 0 0,0 0.5647975634692572,-0.5249177813825611 l 16.04682197818384 17.566763527232613" fill="#d8ff1c" stroke="none" /><path d="M 86.10567301691215 84.25364557470407 l -29.118840457542547 -33.000200934972675 a65.01045479588217,65.01045479588217 0 0,0 0.8454646836928107,-0.7331786423510624 l 28.546481975202962 33.49654457074342" fill="#35ff66" stroke="none" /><path d="M 86.93701828274178 83.55741782278169 l -5.757994869432149 -7.247679424641423 a30.256530773393322,30.256530773393322 0 0,0 0.41057744115400485,-0.3204622052921573 l 5.63238487311872 7.345720019156802" fill="#ff6b09" stroke="none" /><path d="M 87.22198572758235 83.33499621200491 l -5.607102008143601 -7.312746269746363 a30.214979703472892,30.214979703472892 0 0,0 0.41546150492809425,-0.31291699209155593 l 5.480394349457117 7.408179851343773" fill="#ff6a09" stroke="none" /><path d="M 87.51073957382395 83.11751280151077 l -5.483658301563077 -7.412591932425041 a30.220467858246373,30.220467858246373 0 0,0 0.42086273176781674,-0.3057746730818326 l 5.355250253441478 7.505885840323542" fill="#ff6a09" stroke="none" /><path d="M 88.09926311788651 82.69761687909137 l -35.70221064634046 -51.907149362725875 a84.0,84.0 0 0,0 1.198381222373842,-0.8091523508053382 l 34.80342472956008 52.51401362582988" fill="#4dd2ff" stroke="none" /><line stroke="#e1ed5e" stroke-width="0.3" x1="56.762969772571076" x2="54.21961505331055" y1="26.818313649435495" y2="22.513508569990535" /><path d="M 56.25429882871897 25.957352633546506 a86.0,86.0 0 0,1 42.265352541879196,-11.944610805530505" fill="none" id="id60" stroke="none" /><text fill="#e1ed5e" style="font-size:6.75px; font-family:Arial;" text-anchor="middle"><textPath startOffset="22.20632615414155" xlink:href="#id60">December</textPath></text><path d="M 89.3179101791058 81.91981866633112 l -5.847145809534084 -9.896701702881641 a32.4949475298399,32.4949475298399 0 0,0 0.48402503646199496,-0.2803785427731212 l 5.675924040606769 9.99588440304481" fill="#ff8a0c" stroke="none" /><path d="M 89.63071344664047 81.73862282372117 l -6.881059571030195 -12.118251680325512 a34.93560205401182,34.93560205401182 0 0,0 0.5254911963155952,-0.2924352818123841 l 6.671444285642555 12.234902359698081" fill="#ffaa0f" stroke="none" /><path d="M 90.26544431104013 81.39251694778311 l -2.3303639208006635 -4.454461872458531 a26.027208626718828,26.027208626718828 0 0,0 0.3987610196660018,-0.20426088223495759 l 2.253342413545898 4.493915280005994" fill="#ff2f04" stroke="none" /><path d="M 90.91171255644093 81.06846463323043 l -7.900051244128182 -16.45635665204437 a39.254382594849275,39.254382594849275 0 0,0 0.6116613946198142,-0.2871832262578787 l 7.615611638208759 16.589904860942255" fill="#ffe215" stroke="none" /><path d="M 91.23893434514133 80.91482961587045 l -3.7233874782055563 -8.111054890711673 a29.924843178061767,29.924843178061767 0 0,0 0.469988018200111,-0.21086992394448975 l 3.583217341538671 8.173945145172691" fill="#ff6609" stroke="none" /><path d="M 91.56875222667455 80.76684994638697 l -4.0387067160025545 -9.212996033299406 a31.059346293247625,31.059346293247625 0 0,0 0.49150120217436044,-0.21043516437002666 l 3.8795217560378856 9.28115072563222" fill="#ff760a" stroke="none" /><path d="M 91.90106846888425 80.62456947434976 l -4.267877387059866 -10.21023100235791 a32.066327056096235,32.066327056096235 0 0,0 0.5111008051776167,-0.20849085140890328 l 4.09149271229387 10.28218273995039" fill="#ff840c" stroke="none" /><path d="M 92.23578459929587 80.48803036053334 l -6.844510179484782 -17.20069162519833 a39.51245829116811,39.51245829116811 0 0,0 0.6341125541129415,-0.24602581946621443 l 6.547414460372164 17.3159601485551" fill="#ffe515" stroke="none" /><path d="M 92.57280143429618 80.3572730644239 l -7.82758833042712 -20.70163854897717 a43.132080283677276,43.132080283677276 0 0,0 0.6967220932580865,-0.256608626826571 l 7.470083911396463 20.833310443610063" fill="#ecff1a" stroke="none" /><path d="M 93.25333710446033 80.11325718540243 l -5.606290342799365 -16.525333474853404 a38.450419417964596,38.450419417964596 0 0,0 0.6286042608652985,-0.20724094164713566 l 5.321003259691658 16.61938814075977" fill="#ffd814" stroke="none" /><path d="M 93.59665428221793 80.00007090966166 l -4.95653555553438 -15.481025703351229 a37.2551346208236,37.2551346208236 0 0,0 0.6124294006066306,-0.190284795922043 l 4.68932078221702 15.564050634155796" fill="#ffc812" stroke="none" /><path d="M 93.94186890950719 79.89281104454417 l -4.692797110585507 -15.575588712538758 a37.267185019642596,37.267185019642596 0 0,0 0.6158132266536739,-0.17977276757075375 l 4.423993666208411 15.654059809028212" fill="#ffc812" stroke="none" /></svg>