<?xml version="1.0" encoding="utf-8" ?>
<svg baseProfile="full" height="300mm" version="1.1" viewBox="0,0,200,300" width="200mm" xmlns="http://www.w3.org/2000/svg" xmlns:ev="http://www.w3.org/2001/xml-events" xmlns:xlink="http://www.w3.org/1999/xlink"><defs /><rect fill="#222222" height="300" width="200" x="0" y="0" /><text fill="#555555" style="font-size:6px; font-family:Arial;" x="11" y="19">Running for 2763 Days</text><text fill="#555555" style="font-size:6px; font-family:Arial;" x="11" y="39">Races</text><text fill="#555555" style="font-size:8px; font-family:Arial;" x="11" y="59">1</text><text fill="#FFFFFF" style="font-size:10px; font-family:Arial; font-weight:bold;" x="23" y="59">Full</text><text fill="#555555" style="font-size:6px; font-family:Arial;" x="49" y="59">1x</text><text fill="#555555" style="font-size:8px; font-family:Arial;" x="11" y="77">2</text><text fill="#FFFFFF" style="font-size:10px; font-family:Arial; font-weight:bold;" x="23" y="77">Half</text><text fill="#555555" style="font-size:6px; font-family:Arial;" x="49" y="77">1x</text><text fill="#555555" style="font-size:8px; font-family:Arial;" x="11" y="95">3</text><text fill="#FFFFFF" style="font-size:10px; font-family:Arial; font-weight:bold;" x="23" y="95">10K</text><text fill="#555555" style="font-size:6px; font-family:Arial;" x="49" y="95">18x</text><text fill="#555555" style="font-size:6px; font-family:Arial;" x="11" y="133">Stats</text><text fill="#555555" style="font-size:5px; font-family:Arial;" x="11" y="139">Distance</text><text fill="#FFFFFF" style="font-size:10px; font-family:Arial; font-weight:bold;" x="11" y="150">1032</text><text fill="#555555" style="font-size:6px; font-family:Arial;" x="35" y="150">km</text><text fill="#555555" style="font-size:5px; font-family:Arial;" x="53" y="139">Runs</text><text fill="#FFFFFF" style="font-size:10px; font-family:Arial; font-weight:bold;" x="53" y="150">210</text><text fill="#555555" style="font-size:5px; font-family:Arial;" x="11" y="167">Avg Pace</text><text fill="#FFFFFF" style="font-size:10px; font-family:Arial; font-weight:bold;" x="11" y="178">7'18"</text><text fill="#555555" style="font-size:5px; font-family:Arial;" x="53" y="167">Streak</text><text fill="#FFFFFF" style="font-size:10px; font-family:Arial; font-weight:bold;" x="53" y="178">10</text><text fill="#555555" style="font-size:6px; font-family:Arial;" x="65" y="178">d</text><text fill="#555555" style="font-size:5px; font-family:Arial;" x="11" y="195">Time</text><text fill="#FFFFFF" style="font-size:10px; font-family:Arial; font-weight:bold;" x="11" y="206">125</text><text fill="#555555" style="font-size:6px; font-family:Arial;" x="29" y="206">h</text><text fill="#555555" style="font-size:5px; font-family:Arial;" x="53" y="195">Longest</text><text fill="#FFFFFF" style="font-size:10px; font-family:Arial; font-weight:bold;" x="53" y="206">42.8</text><text fill="#555555" style="font-size:5px; font-family:Arial;" x="11" y="252.0645161290322">Runner</text><text fill="#FFFFFF" style="font-size:8px; font-family:Arial; font-weight:bold;" x="11" y="262.0645161290322">ycc</text><text fill="#555555" style="font-size:7px; font-family:Arial;" x="11" y="285.5806451612903">running_page/2022</text><circle cx="85.41666666666667" cy="17.419354838709676" fill="#527581" r="3.3125"><title>2022-01-01: 2 km</title></circle><circle cx="85.41666666666667" cy="26.25806451612903" fill="#555555" r="3.3125"><title>2022-01-02</title></circle><circle cx="85.41666666666667" cy="35.096774193548384" fill="#FFFF00" r="3.3125"><title>2022-01-03: 17 km</title></circle><circle cx="85.41666666666667" cy="43.935483870967744" fill="#555555" r="3.3125"><title>2022-01-04</title></circle><circle cx="85.41666666666667" cy="52.774193548387096" fill="#555555" r="3.3125"><title>2022-01-05</title></circle><circle cx="85.41666666666667" cy="61.61290322580645" fill="#53676d" r="3.3125"><title>2022-01-06: 1 km</title></circle><circle cx="85.41666666666667" cy="70.45161290322581" fill="#53676e" r="3.3125"><title>2022-01-07: 1 km</title></circle><circle cx="85.41666666666667" cy="79.29032258064517" fill="#527f8e" r="3.3125"><title>2022-01-08: 3 km</title></circle><circle cx="85.41666666666667" cy="88.12903225806451" fill="#527784" r="3.3125"><title>2022-01-09: 2 km</title></circle><circle cx="85.41666666666667" cy="96.96774193548387" fill="#4ec0e7" r="3.3125"><title>2022-01-10: 8 km</title></circle><circle cx="85.41666666666667" cy="105.80645161290322" fill="#555555" r="3.3125"><title>2022-01-11</title></circle><circle cx="85.41666666666667" cy="114.64516129032258" fill="#53656a" r="3.3125"><title>2022-01-12: 1 km</title></circle><circle cx="85.41666666666667" cy="123.48387096774194" fill="#4fa8c6" r="3.3125"><title>2022-01-13: 6 km</title></circle><circle cx="85.41666666666667" cy="132.32258064516128" fill="#555555" r="3.3125"><title>2022-01-14</title></circle><circle cx="85.41666666666667" cy="141.16129032258064" fill="#FFFF00" r="3.3125"><title>2022-01-15: 11 km</title></circle><circle cx="85.41666666666667" cy="149.99999999999997" fill="#536d75" r="3.3125"><title>2022-01-16: 1 km</title></circle><circle cx="85.41666666666667" cy="158.83870967741933" fill="#555555" r="3.3125"><title>2022-01-17</title></circle><circle cx="85.41666666666667" cy="167.6774193548387" fill="#536a72" r="3.3125"><title>2022-01-18: 1 km</title></circle><circle cx="85.41666666666667" cy="176.51612903225805" fill="#546368" r="3.3125"><title>2022-01-19: 1 km</title></circle><circle cx="85.41666666666667" cy="185.35483870967738" fill="#555555" r="3.3125"><title>2022-01-20</title></circle><circle cx="85.41666666666667" cy="194.19354838709674" fill="#555555" r="3.3125"><title>2022-01-21</title></circle><circle cx="85.41666666666667" cy="203.0322580645161" fill="#518c9f" r="3.3125"><title>2022-01-22: 4 km</title></circle><circle cx="85.41666666666667" cy="211.87096774193546" fill="#555555" r="3.3125"><title>2022-01-23</title></circle><circle cx="85.41666666666667" cy="220.70967741935482" fill="#555555" r="3.3125"><title>2022-01-24</title></circle><circle cx="85.41666666666667" cy="229.54838709677418" fill="#53676e" r="3.3125"><title>2022-01-25: 1 km</title></circle><circle cx="85.41666666666667" cy="238.3870967741935" fill="#527581" r="3.3125"><title>2022-01-26: 2 km</title></circle><circle cx="85.41666666666667" cy="247.22580645161287" fill="#53717c" r="3.3125"><title>2022-01-27: 2 km</title></circle><circle cx="85.41666666666667" cy="256.06451612903226" fill="#5097af" r="3.3125"><title>2022-01-28: 5 km</title></circle><circle cx="85.41666666666667" cy="264.90322580645164" fill="#527e8d" r="3.3125"><title>2022-01-29: 3 km</title></circle><circle cx="85.41666666666667" cy="273.741935483871" fill="#527783" r="3.3125"><title>2022-01-30: 2 km</title></circle><circle cx="85.41666666666667" cy="282.5806451612903" fill="#5095ac" r="3.3125"><title>2022-01-31: 5 km</title></circle><circle cx="94.25" cy="17.419354838709676" fill="#555555" r="3.3125"><title>2022-02-01</title></circle><circle cx="94.25" cy="26.25806451612903" fill="#555555" r="3.3125"><title>2022-02-02</title></circle><circle cx="94.25" cy="35.096774193548384" fill="#53737e" r="3.3125"><title>2022-02-03: 2 km</title></circle><circle cx="94.25" cy="43.935483870967744" fill="#555555" r="3.3125"><title>2022-02-04</title></circle><circle cx="94.25" cy="52.774193548387096" fill="#555555" r="3.3125"><title>2022-02-05</title></circle><circle cx="94.25" cy="61.61290322580645" fill="#555555" r="3.3125"><title>2022-02-06</title></circle><circle cx="94.25" cy="70.45161290322581" fill="#5190a6" r="3.3125"><title>2022-02-07: 4 km</title></circle><circle cx="94.25" cy="79.29032258064517" fill="#528293" r="3.3125"><title>2022-02-08: 3 km</title></circle><circle cx="94.25" cy="88.12903225806451" fill="#518495" r="3.3125"><title>2022-02-09: 3 km</title></circle><circle cx="94.25" cy="96.96774193548387" fill="#4fa5c1" r="3.3125"><title>2022-02-10: 6 km</title></circle><circle cx="94.25" cy="105.80645161290322" fill="#555555" r="3.3125"><title>2022-02-11</title></circle><circle cx="94.25" cy="114.64516129032258" fill="#53656b" r="3.3125"><title>2022-02-12: 1 km</title></circle><circle cx="94.25" cy="123.48387096774194" fill="#53717c" r="3.3125"><title>2022-02-13: 2 km</title></circle><circle cx="94.25" cy="132.32258064516128" fill="#555555" r="3.3125"><title>2022-02-14</title></circle><circle cx="94.25" cy="141.16129032258064" fill="#FFFF00" r="3.3125"><title>2022-02-15: 10 km</title></circle><circle cx="94.25" cy="149.99999999999997" fill="#555555" r="3.3125"><title>2022-02-16</title></circle><circle cx="94.25" cy="158.83870967741933" fill="#FFFF00" r="3.3125"><title>2022-02-17: 10 km</title></circle><circle cx="94.25" cy="167.6774193548387" fill="#555555" r="3.3125"><title>2022-02-18</title></circle><circle cx="94.25" cy="176.51612903225805" fill="#5095ac" r="3.3125"><title>2022-02-19: 5 km</title></circle><circle cx="94.25" cy="185.35483870967738" fill="#527683" r="3.3125"><title>2022-02-20: 2 km</title></circle><circle cx="94.25" cy="194.19354838709674" fill="#555555" r="3.3125"><title>2022-02-21</title></circle><circle cx="94.25" cy="203.0322580645161" fill="#FFFF00" r="3.3125"><title>2022-02-22: 10 km</title></circle><circle cx="94.25" cy="211.87096774193546" fill="#555555" r="3.3125"><title>2022-02-23</title></circle><circle cx="94.25" cy="220.70967741935482" fill="#FFFF00" r="3.3125"><title>2022-02-24: 10 km</title></circle><circle cx="94.25" cy="229.54838709677418" fill="#555555" r="3.3125"><title>2022-02-25</title></circle><circle cx="94.25" cy="238.3870967741935" fill="#555555" r="3.3125"><title>2022-02-26</title></circle><circle cx="94.25" cy="247.22580645161287" fill="#555555" r="3.3125"><title>2022-02-27</title></circle><circle cx="94.25" cy="256.06451612903226" fill="#555555" r="3.3125"><title>2022-02-28</title></circle><circle cx="103.08333333333334" cy="17.419354838709676" fill="#4dcffb" r="3.3125"><title>2022-03-01: 9 km</title></circle><circle cx="103.08333333333334" cy="26.25806451612903" fill="#555555" r="3.3125"><title>2022-03-02</title></circle><circle cx="103.08333333333334" cy="35.096774193548384" fill="#555555" r="3.3125"><title>2022-03-03</title></circle><circle cx="103.08333333333334" cy="43.935483870967744" fill="#555555" r="3.3125"><title>2022-03-04</title></circle><circle cx="103.08333333333334" cy="52.774193548387096" fill="#527580" r="3.3125"><title>2022-03-05: 2 km</title></circle><circle cx="103.08333333333334" cy="61.61290322580645" fill="#555555" r="3.3125"><title>2022-03-06</title></circle><circle cx="103.08333333333334" cy="70.45161290322581" fill="#53666c" r="3.3125"><title>2022-03-07: 1 km</title></circle><circle cx="103.08333333333334" cy="79.29032258064517" fill="#FFFF00" r="3.3125"><title>2022-03-08: 10 km</title></circle><circle cx="103.08333333333334" cy="88.12903225806451" fill="#555555" r="3.3125"><title>2022-03-09</title></circle><circle cx="103.08333333333334" cy="96.96774193548387" fill="#4dd1fe" r="3.3125"><title>2022-03-10: 9 km</title></circle><circle cx="103.08333333333334" cy="105.80645161290322" fill="#555555" r="3.3125"><title>2022-03-11</title></circle><circle cx="103.08333333333334" cy="114.64516129032258" fill="#5191a7" r="3.3125"><title>2022-03-12: 4 km</title></circle><circle cx="103.08333333333334" cy="123.48387096774194" fill="#536970" r="3.3125"><title>2022-03-13: 1 km</title></circle><circle cx="103.08333333333334" cy="132.32258064516128" fill="#555555" r="3.3125"><title>2022-03-14</title></circle><circle cx="103.08333333333334" cy="141.16129032258064" fill="#555555" r="3.3125"><title>2022-03-15</title></circle><circle cx="103.08333333333334" cy="149.99999999999997" fill="#546266" r="3.3125"><title>2022-03-16: 1 km</title></circle><circle cx="103.08333333333334" cy="158.83870967741933" fill="#527885" r="3.3125"><title>2022-03-17: 2 km</title></circle><circle cx="103.08333333333334" cy="167.6774193548387" fill="#546469" r="3.3125"><title>2022-03-18: 1 km</title></circle><circle cx="103.08333333333334" cy="176.51612903225805" fill="#53727c" r="3.3125"><title>2022-03-19: 2 km</title></circle><circle cx="103.08333333333334" cy="185.35483870967738" fill="#555555" r="3.3125"><title>2022-03-20</title></circle><circle cx="103.08333333333334" cy="194.19354838709674" fill="#555555" r="3.3125"><title>2022-03-21</title></circle><circle cx="103.08333333333334" cy="203.0322580645161" fill="#555555" r="3.3125"><title>2022-03-22</title></circle><circle cx="103.08333333333334" cy="211.87096774193546" fill="#555555" r="3.3125"><title>2022-03-23</title></circle><circle cx="103.08333333333334" cy="220.70967741935482" fill="#555555" r="3.3125"><title>2022-03-24</title></circle><circle cx="103.08333333333334" cy="229.54838709677418" fill="#555555" r="3.3125"><title>2022-03-25</title></circle><circle cx="103.08333333333334" cy="238.3870967741935" fill="#555555" r="3.3125"><title>2022-03-26</title></circle><circle cx="103.08333333333334" cy="247.22580645161287" fill="#555555" r="3.3125"><title>2022-03-27</title></circle><circle cx="103.08333333333334" cy="256.06451612903226" fill="#555555" r="3.3125"><title>2022-03-28</title></circle><circle cx="103.08333333333334" cy="264.90322580645164" fill="#555555" r="3.3125"><title>2022-03-29</title></circle><circle cx="103.08333333333334" cy="273.741935483871" fill="#555555" r="3.3125"><title>2022-03-30</title></circle><circle cx="103.08333333333334" cy="282.5806451612903" fill="#555555" r="3.3125"><title>2022-03-31</title></circle><circle cx="111.91666666666667" cy="17.419354838709676" fill="#555555" r="3.3125"><title>2022-04-01</title></circle><circle cx="111.91666666666667" cy="26.25806451612903" fill="#555555" r="3.3125"><title>2022-04-02</title></circle><circle cx="111.91666666666667" cy="35.096774193548384" fill="#555555" r="3.3125"><title>2022-04-03</title></circle><circle cx="111.91666666666667" cy="43.935483870967744" fill="#555555" r="3.3125"><title>2022-04-04</title></circle><circle cx="111.91666666666667" cy="52.774193548387096" fill="#555555" r="3.3125"><title>2022-04-05</title></circle><circle cx="111.91666666666667" cy="61.61290322580645" fill="#555555" r="3.3125"><title>2022-04-06</title></circle><circle cx="111.91666666666667" cy="70.45161290322581" fill="#555555" r="3.3125"><title>2022-04-07</title></circle><circle cx="111.91666666666667" cy="79.29032258064517" fill="#555555" r="3.3125"><title>2022-04-08</title></circle><circle cx="111.91666666666667" cy="88.12903225806451" fill="#555555" r="3.3125"><title>2022-04-09</title></circle><circle cx="111.91666666666667" cy="96.96774193548387" fill="#555555" r="3.3125"><title>2022-04-10</title></circle><circle cx="111.91666666666667" cy="105.80645161290322" fill="#555555" r="3.3125"><title>2022-04-11</title></circle><circle cx="111.91666666666667" cy="114.64516129032258" fill="#555555" r="3.3125"><title>2022-04-12</title></circle><circle cx="111.91666666666667" cy="123.48387096774194" fill="#555555" r="3.3125"><title>2022-04-13</title></circle><circle cx="111.91666666666667" cy="132.32258064516128" fill="#555555" r="3.3125"><title>2022-04-14</title></circle><circle cx="111.91666666666667" cy="141.16129032258064" fill="#555555" r="3.3125"><title>2022-04-15</title></circle><circle cx="111.91666666666667" cy="149.99999999999997" fill="#555555" r="3.3125"><title>2022-04-16</title></circle><circle cx="111.91666666666667" cy="158.83870967741933" fill="#555555" r="3.3125"><title>2022-04-17</title></circle><circle cx="111.91666666666667" cy="167.6774193548387" fill="#555555" r="3.3125"><title>2022-04-18</title></circle><circle cx="111.91666666666667" cy="176.51612903225805" fill="#555555" r="3.3125"><title>2022-04-19</title></circle><circle cx="111.91666666666667" cy="185.35483870967738" fill="#555555" r="3.3125"><title>2022-04-20</title></circle><circle cx="111.91666666666667" cy="194.19354838709674" fill="#555555" r="3.3125"><title>2022-04-21</title></circle><circle cx="111.91666666666667" cy="203.0322580645161" fill="#555555" r="3.3125"><title>2022-04-22</title></circle><circle cx="111.91666666666667" cy="211.87096774193546" fill="#555555" r="3.3125"><title>2022-04-23</title></circle><circle cx="111.91666666666667" cy="220.70967741935482" fill="#555555" r="3.3125"><title>2022-04-24</title></circle><circle cx="111.91666666666667" cy="229.54838709677418" fill="#555555" r="3.3125"><title>2022-04-25</title></circle><circle cx="111.91666666666667" cy="238.3870967741935" fill="#555555" r="3.3125"><title>2022-04-26</title></circle><circle cx="111.91666666666667" cy="247.22580645161287" fill="#555555" r="3.3125"><title>2022-04-27</title></circle><circle cx="111.91666666666667" cy="256.06451612903226" fill="#555555" r="3.3125"><title>2022-04-28</title></circle><circle cx="111.91666666666667" cy="264.90322580645164" fill="#555555" r="3.3125"><title>2022-04-29</title></circle><circle cx="111.91666666666667" cy="273.741935483871" fill="#555555" r="3.3125"><title>2022-04-30</title></circle><circle cx="120.75000000000001" cy="17.419354838709676" fill="#555555" r="3.3125"><title>2022-05-01</title></circle><circle cx="120.75000000000001" cy="26.25806451612903" fill="#555555" r="3.3125"><title>2022-05-02</title></circle><circle cx="120.75000000000001" cy="35.096774193548384" fill="#555555" r="3.3125"><title>2022-05-03</title></circle><circle cx="120.75000000000001" cy="43.935483870967744" fill="#555555" r="3.3125"><title>2022-05-04</title></circle><circle cx="120.75000000000001" cy="52.774193548387096" fill="#555555" r="3.3125"><title>2022-05-05</title></circle><circle cx="120.75000000000001" cy="61.61290322580645" fill="#555555" r="3.3125"><title>2022-05-06</title></circle><circle cx="120.75000000000001" cy="70.45161290322581" fill="#555555" r="3.3125"><title>2022-05-07</title></circle><circle cx="120.75000000000001" cy="79.29032258064517" fill="#555555" r="3.3125"><title>2022-05-08</title></circle><circle cx="120.75000000000001" cy="88.12903225806451" fill="#555555" r="3.3125"><title>2022-05-09</title></circle><circle cx="120.75000000000001" cy="96.96774193548387" fill="#555555" r="3.3125"><title>2022-05-10</title></circle><circle cx="120.75000000000001" cy="105.80645161290322" fill="#555555" r="3.3125"><title>2022-05-11</title></circle><circle cx="120.75000000000001" cy="114.64516129032258" fill="#555555" r="3.3125"><title>2022-05-12</title></circle><circle cx="120.75000000000001" cy="123.48387096774194" fill="#555555" r="3.3125"><title>2022-05-13</title></circle><circle cx="120.75000000000001" cy="132.32258064516128" fill="#555555" r="3.3125"><title>2022-05-14</title></circle><circle cx="120.75000000000001" cy="141.16129032258064" fill="#555555" r="3.3125"><title>2022-05-15</title></circle><circle cx="120.75000000000001" cy="149.99999999999997" fill="#555555" r="3.3125"><title>2022-05-16</title></circle><circle cx="120.75000000000001" cy="158.83870967741933" fill="#555555" r="3.3125"><title>2022-05-17</title></circle><circle cx="120.75000000000001" cy="167.6774193548387" fill="#536e77" r="3.3125"><title>2022-05-18: 2 km</title></circle><circle cx="120.75000000000001" cy="176.51612903225805" fill="#527c8b" r="3.3125"><title>2022-05-19: 3 km</title></circle><circle cx="120.75000000000001" cy="185.35483870967738" fill="#555555" r="3.3125"><title>2022-05-20</title></circle><circle cx="120.75000000000001" cy="194.19354838709674" fill="#555555" r="3.3125"><title>2022-05-21</title></circle><circle cx="120.75000000000001" cy="203.0322580645161" fill="#555555" r="3.3125"><title>2022-05-22</title></circle><circle cx="120.75000000000001" cy="211.87096774193546" fill="#555555" r="3.3125"><title>2022-05-23</title></circle><circle cx="120.75000000000001" cy="220.70967741935482" fill="#555555" r="3.3125"><title>2022-05-24</title></circle><circle cx="120.75000000000001" cy="229.54838709677418" fill="#555555" r="3.3125"><title>2022-05-25</title></circle><circle cx="120.75000000000001" cy="238.3870967741935" fill="#555555" r="3.3125"><title>2022-05-26</title></circle><circle cx="120.75000000000001" cy="247.22580645161287" fill="#555555" r="3.3125"><title>2022-05-27</title></circle><circle cx="120.75000000000001" cy="256.06451612903226" fill="#555555" r="3.3125"><title>2022-05-28</title></circle><circle cx="120.75000000000001" cy="264.90322580645164" fill="#555555" r="3.3125"><title>2022-05-29</title></circle><circle cx="120.75000000000001" cy="273.741935483871" fill="#555555" r="3.3125"><title>2022-05-30</title></circle><circle cx="120.75000000000001" cy="282.5806451612903" fill="#555555" r="3.3125"><title>2022-05-31</title></circle><circle cx="129.58333333333334" cy="17.419354838709676" fill="#555555" r="3.3125"><title>2022-06-01</title></circle><circle cx="129.58333333333334" cy="26.25806451612903" fill="#555555" r="3.3125"><title>2022-06-02</title></circle><circle cx="129.58333333333334" cy="35.096774193548384" fill="#555555" r="3.3125"><title>2022-06-03</title></circle><circle cx="129.58333333333334" cy="43.935483870967744" fill="#555555" r="3.3125"><title>2022-06-04</title></circle><circle cx="129.58333333333334" cy="52.774193548387096" fill="#555555" r="3.3125"><title>2022-06-05</title></circle><circle cx="129.58333333333334" cy="61.61290322580645" fill="#555555" r="3.3125"><title>2022-06-06</title></circle><circle cx="129.58333333333334" cy="70.45161290322581" fill="#555555" r="3.3125"><title>2022-06-07</title></circle><circle cx="129.58333333333334" cy="79.29032258064517" fill="#555555" r="3.3125"><title>2022-06-08</title></circle><circle cx="129.58333333333334" cy="88.12903225806451" fill="#555555" r="3.3125"><title>2022-06-09</title></circle><circle cx="129.58333333333334" cy="96.96774193548387" fill="#555555" r="3.3125"><title>2022-06-10</title></circle><circle cx="129.58333333333334" cy="105.80645161290322" fill="#555555" r="3.3125"><title>2022-06-11</title></circle><circle cx="129.58333333333334" cy="114.64516129032258" fill="#555555" r="3.3125"><title>2022-06-12</title></circle><circle cx="129.58333333333334" cy="123.48387096774194" fill="#555555" r="3.3125"><title>2022-06-13</title></circle><circle cx="129.58333333333334" cy="132.32258064516128" fill="#555555" r="3.3125"><title>2022-06-14</title></circle><circle cx="129.58333333333334" cy="141.16129032258064" fill="#555555" r="3.3125"><title>2022-06-15</title></circle><circle cx="129.58333333333334" cy="149.99999999999997" fill="#5099b2" r="3.3125"><title>2022-06-16: 5 km</title></circle><circle cx="129.58333333333334" cy="158.83870967741933" fill="#555555" r="3.3125"><title>2022-06-17</title></circle><circle cx="129.58333333333334" cy="167.6774193548387" fill="#555555" r="3.3125"><title>2022-06-18</title></circle><circle cx="129.58333333333334" cy="176.51612903225805" fill="#555555" r="3.3125"><title>2022-06-19</title></circle><circle cx="129.58333333333334" cy="185.35483870967738" fill="#555555" r="3.3125"><title>2022-06-20</title></circle><circle cx="129.58333333333334" cy="194.19354838709674" fill="#518ca0" r="3.3125"><title>2022-06-21: 4 km</title></circle><circle cx="129.58333333333334" cy="203.0322580645161" fill="#555555" r="3.3125"><title>2022-06-22</title></circle><circle cx="129.58333333333334" cy="211.87096774193546" fill="#50a2be" r="3.3125"><title>2022-06-23: 6 km</title></circle><circle cx="129.58333333333334" cy="220.70967741935482" fill="#555555" r="3.3125"><title>2022-06-24</title></circle><circle cx="129.58333333333334" cy="229.54838709677418" fill="#555555" r="3.3125"><title>2022-06-25</title></circle><circle cx="129.58333333333334" cy="238.3870967741935" fill="#555555" r="3.3125"><title>2022-06-26</title></circle><circle cx="129.58333333333334" cy="247.22580645161287" fill="#555555" r="3.3125"><title>2022-06-27</title></circle><circle cx="129.58333333333334" cy="256.06451612903226" fill="#527480" r="3.3125"><title>2022-06-28: 2 km</title></circle><circle cx="129.58333333333334" cy="264.90322580645164" fill="#555555" r="3.3125"><title>2022-06-29</title></circle><circle cx="129.58333333333334" cy="273.741935483871" fill="#555555" r="3.3125"><title>2022-06-30</title></circle><circle cx="138.41666666666666" cy="17.419354838709676" fill="#518da1" r="3.3125"><title>2022-07-01: 4 km</title></circle><circle cx="138.41666666666666" cy="26.25806451612903" fill="#555555" r="3.3125"><title>2022-07-02</title></circle><circle cx="138.41666666666666" cy="35.096774193548384" fill="#5098b0" r="3.3125"><title>2022-07-03: 5 km</title></circle><circle cx="138.41666666666666" cy="43.935483870967744" fill="#518ca0" r="3.3125"><title>2022-07-04: 4 km</title></circle><circle cx="138.41666666666666" cy="52.774193548387096" fill="#4ebce1" r="3.3125"><title>2022-07-05: 8 km</title></circle><circle cx="138.41666666666666" cy="61.61290322580645" fill="#555555" r="3.3125"><title>2022-07-06</title></circle><circle cx="138.41666666666666" cy="70.45161290322581" fill="#555555" r="3.3125"><title>2022-07-07</title></circle><circle cx="138.41666666666666" cy="79.29032258064517" fill="#555555" r="3.3125"><title>2022-07-08</title></circle><circle cx="138.41666666666666" cy="88.12903225806451" fill="#555555" r="3.3125"><title>2022-07-09</title></circle><circle cx="138.41666666666666" cy="96.96774193548387" fill="#555555" r="3.3125"><title>2022-07-10</title></circle><circle cx="138.41666666666666" cy="105.80645161290322" fill="#555555" r="3.3125"><title>2022-07-11</title></circle><circle cx="138.41666666666666" cy="114.64516129032258" fill="#555555" r="3.3125"><title>2022-07-12</title></circle><circle cx="138.41666666666666" cy="123.48387096774194" fill="#555555" r="3.3125"><title>2022-07-13</title></circle><circle cx="138.41666666666666" cy="132.32258064516128" fill="#555555" r="3.3125"><title>2022-07-14</title></circle><circle cx="138.41666666666666" cy="141.16129032258064" fill="#555555" r="3.3125"><title>2022-07-15</title></circle><circle cx="138.41666666666666" cy="149.99999999999997" fill="#555555" r="3.3125"><title>2022-07-16</title></circle><circle cx="138.41666666666666" cy="158.83870967741933" fill="#5193a9" r="3.3125"><title>2022-07-17: 4 km</title></circle><circle cx="138.41666666666666" cy="167.6774193548387" fill="#5093aa" r="3.3125"><title>2022-07-18: 5 km</title></circle><circle cx="138.41666666666666" cy="176.51612903225805" fill="#5093aa" r="3.3125"><title>2022-07-19: 5 km</title></circle><circle cx="138.41666666666666" cy="185.35483870967738" fill="#555555" r="3.3125"><title>2022-07-20</title></circle><circle cx="138.41666666666666" cy="194.19354838709674" fill="#555555" r="3.3125"><title>2022-07-21</title></circle><circle cx="138.41666666666666" cy="203.0322580645161" fill="#555555" r="3.3125"><title>2022-07-22</title></circle><circle cx="138.41666666666666" cy="211.87096774193546" fill="#555555" r="3.3125"><title>2022-07-23</title></circle><circle cx="138.41666666666666" cy="220.70967741935482" fill="#555555" r="3.3125"><title>2022-07-24</title></circle><circle cx="138.41666666666666" cy="229.54838709677418" fill="#518fa5" r="3.3125"><title>2022-07-25: 4 km</title></circle><circle cx="138.41666666666666" cy="238.3870967741935" fill="#4fa3c0" r="3.3125"><title>2022-07-26: 6 km</title></circle><circle cx="138.41666666666666" cy="247.22580645161287" fill="#50a2be" r="3.3125"><title>2022-07-27: 6 km</title></circle><circle cx="138.41666666666666" cy="256.06451612903226" fill="#555555" r="3.3125"><title>2022-07-28</title></circle><circle cx="138.41666666666666" cy="264.90322580645164" fill="#50a2be" r="3.3125"><title>2022-07-29: 6 km</title></circle><circle cx="138.41666666666666" cy="273.741935483871" fill="#555555" r="3.3125"><title>2022-07-30</title></circle><circle cx="138.41666666666666" cy="282.5806451612903" fill="#518ea2" r="3.3125"><title>2022-07-31: 4 km</title></circle><circle cx="147.25" cy="17.419354838709676" fill="#555555" r="3.3125"><title>2022-08-01</title></circle><circle cx="147.25" cy="26.25806451612903" fill="#50a2bf" r="3.3125"><title>2022-08-02: 6 km</title></circle><circle cx="147.25" cy="35.096774193548384" fill="#555555" r="3.3125"><title>2022-08-03</title></circle><circle cx="147.25" cy="43.935483870967744" fill="#50a1bc" r="3.3125"><title>2022-08-04: 6 km</title></circle><circle cx="147.25" cy="52.774193548387096" fill="#555555" r="3.3125"><title>2022-08-05</title></circle><circle cx="147.25" cy="61.61290322580645" fill="#4eb6da" r="3.3125"><title>2022-08-06: 7 km</title></circle><circle cx="147.25" cy="70.45161290322581" fill="#555555" r="3.3125"><title>2022-08-07</title></circle><circle cx="147.25" cy="79.29032258064517" fill="#4eb6d9" r="3.3125"><title>2022-08-08: 7 km</title></circle><circle cx="147.25" cy="88.12903225806451" fill="#555555" r="3.3125"><title>2022-08-09</title></circle><circle cx="147.25" cy="96.96774193548387" fill="#50a1bc" r="3.3125"><title>2022-08-10: 6 km</title></circle><circle cx="147.25" cy="105.80645161290322" fill="#555555" r="3.3125"><title>2022-08-11</title></circle><circle cx="147.25" cy="114.64516129032258" fill="#4ebfe5" r="3.3125"><title>2022-08-12: 8 km</title></circle><circle cx="147.25" cy="123.48387096774194" fill="#555555" r="3.3125"><title>2022-08-13</title></circle><circle cx="147.25" cy="132.32258064516128" fill="#4fa3bf" r="3.3125"><title>2022-08-14: 6 km</title></circle><circle cx="147.25" cy="141.16129032258064" fill="#555555" r="3.3125"><title>2022-08-15</title></circle><circle cx="147.25" cy="149.99999999999997" fill="#4fa7c5" r="3.3125"><title>2022-08-16: 6 km</title></circle><circle cx="147.25" cy="158.83870967741933" fill="#555555" r="3.3125"><title>2022-08-17</title></circle><circle cx="147.25" cy="167.6774193548387" fill="#50a1bd" r="3.3125"><title>2022-08-18: 6 km</title></circle><circle cx="147.25" cy="176.51612903225805" fill="#555555" r="3.3125"><title>2022-08-19</title></circle><circle cx="147.25" cy="185.35483870967738" fill="#555555" r="3.3125"><title>2022-08-20</title></circle><circle cx="147.25" cy="194.19354838709674" fill="#50a2be" r="3.3125"><title>2022-08-21: 6 km</title></circle><circle cx="147.25" cy="203.0322580645161" fill="#555555" r="3.3125"><title>2022-08-22</title></circle><circle cx="147.25" cy="211.87096774193546" fill="#50a0bc" r="3.3125"><title>2022-08-23: 6 km</title></circle><circle cx="147.25" cy="220.70967741935482" fill="#555555" r="3.3125"><title>2022-08-24</title></circle><circle cx="147.25" cy="229.54838709677418" fill="#5095ac" r="3.3125"><title>2022-08-25: 5 km</title></circle><circle cx="147.25" cy="238.3870967741935" fill="#555555" r="3.3125"><title>2022-08-26</title></circle><circle cx="147.25" cy="247.22580645161287" fill="#555555" r="3.3125"><title>2022-08-27</title></circle><circle cx="147.25" cy="256.06451612903226" fill="#4ebade" r="3.3125"><title>2022-08-28: 8 km</title></circle><circle cx="147.25" cy="264.90322580645164" fill="#555555" r="3.3125"><title>2022-08-29</title></circle><circle cx="147.25" cy="273.741935483871" fill="#50a0bc" r="3.3125"><title>2022-08-30: 6 km</title></circle><circle cx="147.25" cy="282.5806451612903" fill="#555555" r="3.3125"><title>2022-08-31</title></circle><circle cx="156.08333333333334" cy="17.419354838709676" fill="#50a0bc" r="3.3125"><title>2022-09-01: 6 km</title></circle><circle cx="156.08333333333334" cy="26.25806451612903" fill="#555555" r="3.3125"><title>2022-09-02</title></circle><circle cx="156.08333333333334" cy="35.096774193548384" fill="#4dc6ef" r="3.3125"><title>2022-09-03: 9 km</title></circle><circle cx="156.08333333333334" cy="43.935483870967744" fill="#555555" r="3.3125"><title>2022-09-04</title></circle><circle cx="156.08333333333334" cy="52.774193548387096" fill="#555555" r="3.3125"><title>2022-09-05</title></circle><circle cx="156.08333333333334" cy="61.61290322580645" fill="#50a2be" r="3.3125"><title>2022-09-06: 6 km</title></circle><circle cx="156.08333333333334" cy="70.45161290322581" fill="#50a1bc" r="3.3125"><title>2022-09-07: 6 km</title></circle><circle cx="156.08333333333334" cy="79.29032258064517" fill="#555555" r="3.3125"><title>2022-09-08</title></circle><circle cx="156.08333333333334" cy="88.12903225806451" fill="#5098b0" r="3.3125"><title>2022-09-09: 5 km</title></circle><circle cx="156.08333333333334" cy="96.96774193548387" fill="#555555" r="3.3125"><title>2022-09-10</title></circle><circle cx="156.08333333333334" cy="105.80645161290322" fill="#555555" r="3.3125"><title>2022-09-11</title></circle><circle cx="156.08333333333334" cy="114.64516129032258" fill="#4eb4d7" r="3.3125"><title>2022-09-12: 7 km</title></circle><circle cx="156.08333333333334" cy="123.48387096774194" fill="#555555" r="3.3125"><title>2022-09-13</title></circle><circle cx="156.08333333333334" cy="132.32258064516128" fill="#50a1bd" r="3.3125"><title>2022-09-14: 6 km</title></circle><circle cx="156.08333333333334" cy="141.16129032258064" fill="#509db7" r="3.3125"><title>2022-09-15: 5 km</title></circle><circle cx="156.08333333333334" cy="149.99999999999997" fill="#509eb8" r="3.3125"><title>2022-09-16: 5 km</title></circle><circle cx="156.08333333333334" cy="158.83870967741933" fill="#555555" r="3.3125"><title>2022-09-17</title></circle><circle cx="156.08333333333334" cy="167.6774193548387" fill="#FFFF00" r="3.3125"><title>2022-09-18: 10 km</title></circle><circle cx="156.08333333333334" cy="176.51612903225805" fill="#555555" r="3.3125"><title>2022-09-19</title></circle><circle cx="156.08333333333334" cy="185.35483870967738" fill="#4faac9" r="3.3125"><title>2022-09-20: 6 km</title></circle><circle cx="156.08333333333334" cy="194.19354838709674" fill="#4fabca" r="3.3125"><title>2022-09-21: 6 km</title></circle><circle cx="156.08333333333334" cy="203.0322580645161" fill="#555555" r="3.3125"><title>2022-09-22</title></circle><circle cx="156.08333333333334" cy="211.87096774193546" fill="#4fafd0" r="3.3125"><title>2022-09-23: 7 km</title></circle><circle cx="156.08333333333334" cy="220.70967741935482" fill="#555555" r="3.3125"><title>2022-09-24</title></circle><circle cx="156.08333333333334" cy="229.54838709677418" fill="#FFFF00" r="3.3125"><title>2022-09-25: 10 km</title></circle><circle cx="156.08333333333334" cy="238.3870967741935" fill="#555555" r="3.3125"><title>2022-09-26</title></circle><circle cx="156.08333333333334" cy="247.22580645161287" fill="#4fb0d0" r="3.3125"><title>2022-09-27: 7 km</title></circle><circle cx="156.08333333333334" cy="256.06451612903226" fill="#4fb1d2" r="3.3125"><title>2022-09-28: 7 km</title></circle><circle cx="156.08333333333334" cy="264.90322580645164" fill="#555555" r="3.3125"><title>2022-09-29</title></circle><circle cx="156.08333333333334" cy="273.741935483871" fill="#50a1bc" r="3.3125"><title>2022-09-30: 6 km</title></circle><circle cx="164.91666666666666" cy="17.419354838709676" fill="#555555" r="3.3125"><title>2022-10-01</title></circle><circle cx="164.91666666666666" cy="26.25806451612903" fill="#FFFF00" r="3.3125"><title>2022-10-02: 10 km</title></circle><circle cx="164.91666666666666" cy="35.096774193548384" fill="#555555" r="3.3125"><title>2022-10-03</title></circle><circle cx="164.91666666666666" cy="43.935483870967744" fill="#FFFF00" r="3.3125"><title>2022-10-04: 10 km</title></circle><circle cx="164.91666666666666" cy="52.774193548387096" fill="#536e78" r="3.3125"><title>2022-10-05: 2 km</title></circle><circle cx="164.91666666666666" cy="61.61290322580645" fill="#50a0bb" r="3.3125"><title>2022-10-06: 6 km</title></circle><circle cx="164.91666666666666" cy="70.45161290322581" fill="#509ab3" r="3.3125"><title>2022-10-07: 5 km</title></circle><circle cx="164.91666666666666" cy="79.29032258064517" fill="#555555" r="3.3125"><title>2022-10-08</title></circle><circle cx="164.91666666666666" cy="88.12903225806451" fill="#4eb5d8" r="3.3125"><title>2022-10-09: 7 km</title></circle><circle cx="164.91666666666666" cy="96.96774193548387" fill="#555555" r="3.3125"><title>2022-10-10</title></circle><circle cx="164.91666666666666" cy="105.80645161290322" fill="#4eb5d7" r="3.3125"><title>2022-10-11: 7 km</title></circle><circle cx="164.91666666666666" cy="114.64516129032258" fill="#4eb6da" r="3.3125"><title>2022-10-12: 7 km</title></circle><circle cx="164.91666666666666" cy="123.48387096774194" fill="#555555" r="3.3125"><title>2022-10-13</title></circle><circle cx="164.91666666666666" cy="132.32258064516128" fill="#FFFF00" r="3.3125"><title>2022-10-14: 10 km</title></circle><circle cx="164.91666666666666" cy="141.16129032258064" fill="#555555" r="3.3125"><title>2022-10-15</title></circle><circle cx="164.91666666666666" cy="149.99999999999997" fill="#4dc9f2" r="3.3125"><title>2022-10-16: 9 km</title></circle><circle cx="164.91666666666666" cy="158.83870967741933" fill="#555555" r="3.3125"><title>2022-10-17</title></circle><circle cx="164.91666666666666" cy="167.6774193548387" fill="#4eb8db" r="3.3125"><title>2022-10-18: 7 km</title></circle><circle cx="164.91666666666666" cy="176.51612903225805" fill="#4eb8dc" r="3.3125"><title>2022-10-19: 7 km</title></circle><circle cx="164.91666666666666" cy="185.35483870967738" fill="#555555" r="3.3125"><title>2022-10-20</title></circle><circle cx="164.91666666666666" cy="194.19354838709674" fill="#FFFF00" r="3.3125"><title>2022-10-21: 10 km</title></circle><circle cx="164.91666666666666" cy="203.0322580645161" fill="#555555" r="3.3125"><title>2022-10-22</title></circle><circle cx="164.91666666666666" cy="211.87096774193546" fill="#4faccb" r="3.3125"><title>2022-10-23: 6 km</title></circle><circle cx="164.91666666666666" cy="220.70967741935482" fill="#555555" r="3.3125"><title>2022-10-24</title></circle><circle cx="164.91666666666666" cy="229.54838709677418" fill="#4eb7da" r="3.3125"><title>2022-10-25: 7 km</title></circle><circle cx="164.91666666666666" cy="238.3870967741935" fill="#4eb8dc" r="3.3125"><title>2022-10-26: 7 km</title></circle><circle cx="164.91666666666666" cy="247.22580645161287" fill="#555555" r="3.3125"><title>2022-10-27</title></circle><circle cx="164.91666666666666" cy="256.06451612903226" fill="#555555" r="3.3125"><title>2022-10-28</title></circle><circle cx="164.91666666666666" cy="264.90322580645164" fill="#555555" r="3.3125"><title>2022-10-29</title></circle><circle cx="164.91666666666666" cy="273.741935483871" fill="#555555" r="3.3125"><title>2022-10-30</title></circle><circle cx="164.91666666666666" cy="282.5806451612903" fill="#555555" r="3.3125"><title>2022-10-31</title></circle><circle cx="173.75" cy="17.419354838709676" fill="#555555" r="3.3125"><title>2022-11-01</title></circle><circle cx="173.75" cy="26.25806451612903" fill="#555555" r="3.3125"><title>2022-11-02</title></circle><circle cx="173.75" cy="35.096774193548384" fill="#555555" r="3.3125"><title>2022-11-03</title></circle><circle cx="173.75" cy="43.935483870967744" fill="#555555" r="3.3125"><title>2022-11-04</title></circle><circle cx="173.75" cy="52.774193548387096" fill="#4dc3eb" r="3.3125"><title>2022-11-05: 8 km</title></circle><circle cx="173.75" cy="61.61290322580645" fill="#FFFF00" r="3.3125"><title>2022-11-06: 22 km</title></circle><circle cx="173.75" cy="70.45161290322581" fill="#555555" r="3.3125"><title>2022-11-07</title></circle><circle cx="173.75" cy="79.29032258064517" fill="#555555" r="3.3125"><title>2022-11-08</title></circle><circle cx="173.75" cy="88.12903225806451" fill="#5094aa" r="3.3125"><title>2022-11-09: 5 km</title></circle><circle cx="173.75" cy="96.96774193548387" fill="#555555" r="3.3125"><title>2022-11-10</title></circle><circle cx="173.75" cy="105.80645161290322" fill="#555555" r="3.3125"><title>2022-11-11</title></circle><circle cx="173.75" cy="114.64516129032258" fill="#5096ae" r="3.3125"><title>2022-11-12: 5 km</title></circle><circle cx="173.75" cy="123.48387096774194" fill="#FFFF00" r="3.3125"><title>2022-11-13: 13 km</title></circle><circle cx="173.75" cy="132.32258064516128" fill="#53666c" r="3.3125"><title>2022-11-14: 1 km</title></circle><circle cx="173.75" cy="141.16129032258064" fill="#555555" r="3.3125"><title>2022-11-15</title></circle><circle cx="173.75" cy="149.99999999999997" fill="#4eb7da" r="3.3125"><title>2022-11-16: 7 km</title></circle><circle cx="173.75" cy="158.83870967741933" fill="#555555" r="3.3125"><title>2022-11-17</title></circle><circle cx="173.75" cy="167.6774193548387" fill="#FFFF00" r="3.3125"><title>2022-11-18: 16 km</title></circle><circle cx="173.75" cy="176.51612903225805" fill="#FFFF00" r="3.3125"><title>2022-11-19: 17 km</title></circle><circle cx="173.75" cy="185.35483870967738" fill="#FFFF00" r="3.3125"><title>2022-11-20: 44 km</title></circle><circle cx="173.75" cy="194.19354838709674" fill="#555555" r="3.3125"><title>2022-11-21</title></circle><circle cx="173.75" cy="203.0322580645161" fill="#527885" r="3.3125"><title>2022-11-22: 2 km</title></circle><circle cx="173.75" cy="211.87096774193546" fill="#FFFF00" r="3.3125"><title>2022-11-23: 12 km</title></circle><circle cx="173.75" cy="220.70967741935482" fill="#4fa3bf" r="3.3125"><title>2022-11-24: 6 km</title></circle><circle cx="173.75" cy="229.54838709677418" fill="#4fa3bf" r="3.3125"><title>2022-11-25: 6 km</title></circle><circle cx="173.75" cy="238.3870967741935" fill="#FFFF00" r="3.3125"><title>2022-11-26: 11 km</title></circle><circle cx="173.75" cy="247.22580645161287" fill="#FFFF00" r="3.3125"><title>2022-11-27: 53 km</title></circle><circle cx="173.75" cy="256.06451612903226" fill="#555555" r="3.3125"><title>2022-11-28</title></circle><circle cx="173.75" cy="264.90322580645164" fill="#555555" r="3.3125"><title>2022-11-29</title></circle><circle cx="173.75" cy="273.741935483871" fill="#555555" r="3.3125"><title>2022-11-30</title></circle><circle cx="182.58333333333334" cy="17.419354838709676" fill="#4eb6d9" r="3.3125"><title>2022-12-01: 7 km</title></circle><circle cx="182.58333333333334" cy="26.25806451612903" fill="#4dcbf6" r="3.3125"><title>2022-12-02: 9 km</title></circle><circle cx="182.58333333333334" cy="35.096774193548384" fill="#555555" r="3.3125"><title>2022-12-03</title></circle><circle cx="182.58333333333334" cy="43.935483870967744" fill="#5191a7" r="3.3125"><title>2022-12-04: 4 km</title></circle><circle cx="182.58333333333334" cy="52.774193548387096" fill="#555555" r="3.3125"><title>2022-12-05</title></circle><circle cx="182.58333333333334" cy="61.61290322580645" fill="#FFFF00" r="3.3125"><title>2022-12-06: 12 km</title></circle><circle cx="182.58333333333334" cy="70.45161290322581" fill="#4ebade" r="3.3125"><title>2022-12-07: 8 km</title></circle><circle cx="182.58333333333334" cy="79.29032258064517" fill="#4faac9" r="3.3125"><title>2022-12-08: 6 km</title></circle><circle cx="182.58333333333334" cy="88.12903225806451" fill="#4eb3d4" r="3.3125"><title>2022-12-09: 7 km</title></circle><circle cx="182.58333333333334" cy="96.96774193548387" fill="#FFFF00" r="3.3125"><title>2022-12-10: 18 km</title></circle><circle cx="182.58333333333334" cy="105.80645161290322" fill="#FFFF00" r="3.3125"><title>2022-12-11: 18 km</title></circle><circle cx="182.58333333333334" cy="114.64516129032258" fill="#53666d" r="3.3125"><title>2022-12-12: 1 km</title></circle><circle cx="182.58333333333334" cy="123.48387096774194" fill="#FFFF00" r="3.3125"><title>2022-12-13: 11 km</title></circle><circle cx="182.58333333333334" cy="132.32258064516128" fill="#FFFF00" r="3.3125"><title>2022-12-14: 11 km</title></circle><circle cx="182.58333333333334" cy="141.16129032258064" fill="#FFFF00" r="3.3125"><title>2022-12-15: 11 km</title></circle><circle cx="182.58333333333334" cy="149.99999999999997" fill="#555555" r="3.3125"><title>2022-12-16</title></circle><circle cx="182.58333333333334" cy="158.83870967741933" fill="#518495" r="3.3125"><title>2022-12-17: 3 km</title></circle><circle cx="182.58333333333334" cy="167.6774193548387" fill="#4fafd0" r="3.3125"><title>2022-12-18: 7 km</title></circle><circle cx="182.58333333333334" cy="176.51612903225805" fill="#555555" r="3.3125"><title>2022-12-19</title></circle><circle cx="182.58333333333334" cy="185.35483870967738" fill="#555555" r="3.3125"><title>2022-12-20</title></circle><circle cx="182.58333333333334" cy="194.19354838709674" fill="#555555" r="3.3125"><title>2022-12-21</title></circle><circle cx="182.58333333333334" cy="203.0322580645161" fill="#555555" r="3.3125"><title>2022-12-22</title></circle><circle cx="182.58333333333334" cy="211.87096774193546" fill="#555555" r="3.3125"><title>2022-12-23</title></circle><circle cx="182.58333333333334" cy="220.70967741935482" fill="#536970" r="3.3125"><title>2022-12-24: 1 km</title></circle><circle cx="182.58333333333334" cy="229.54838709677418" fill="#518ca0" r="3.3125"><title>2022-12-25: 4 km</title></circle><circle cx="182.58333333333334" cy="238.3870967741935" fill="#555555" r="3.3125"><title>2022-12-26</title></circle><circle cx="182.58333333333334" cy="247.22580645161287" fill="#555555" r="3.3125"><title>2022-12-27</title></circle><circle cx="182.58333333333334" cy="256.06451612903226" fill="#555555" r="3.3125"><title>2022-12-28</title></circle><circle cx="182.58333333333334" cy="264.90322580645164" fill="#555555" r="3.3125"><title>2022-12-29</title></circle><circle cx="182.58333333333334" cy="273.741935483871" fill="#4eb6d9" r="3.3125"><title>2022-12-30: 7 km</title></circle><circle cx="182.58333333333334" cy="282.5806451612903" fill="#536b73" r="3.3125"><title>2022-12-31: 1 km</title></circle></svg>