<?xml version="1.0" encoding="utf-8" ?>
<svg baseProfile="full" height="200mm" version="1.1" viewBox="0,0,200,200" width="200mm" xmlns="http://www.w3.org/2000/svg" xmlns:ev="http://www.w3.org/2001/xml-events" xmlns:xlink="http://www.w3.org/1999/xlink"><defs /><rect fill="#1a1a1a" height="200" width="200" x="0" y="0" /><rect fill="#1a1a1a" height="200" width="180" x="10" y="0" /><text alignment-baseline="middle" fill="#e1ed5e" style="dominant-baseline: central; font-size:9.0px; font-family:Arial;" text-anchor="middle" x="100.0" y="100.0">2021</text><line stroke="#e1ed5e" stroke-width="0.3" x1="100.0" x2="100.0" y1="15.0" y2="10.0" /><path d="M 100.0 14.0 a86.0,86.0 0 0,1 42.46469731375804,11.215312516191453" fill="none" id="id37" stroke="none" /><text fill="#e1ed5e" style="font-size:6.75px; font-family:Arial;" text-anchor="middle"><textPath startOffset="22.20632615414155" xlink:href="#id37">January</textPath></text><path d="M 100.36148047927253 79.00311137660856 l 0.10375484699705051 -6.026684956593871 a27.02757800731855,27.02757800731855 0 0,0 0.4650974670018045,0.012012095401471105 l -0.2074789491937228 6.024006069050041" fill="red" stroke="none" /><line stroke="#e1ed5e" stroke-width="0.3" x1="143.23703022742887" x2="145.7803849466894" y1="26.81831364943548" y2="22.513508569990506" /><path d="M 143.74570117128098 25.957352633546492 a86.0,86.0 0 0,1 28.547481713284135,27.462654790039103" fill="none" id="id38" stroke="none" /><text fill="#e1ed5e" style="font-size:6.75px; font-family:Arial;" text-anchor="middle"><textPath startOffset="19.985693538727396" xlink:href="#id38">February</textPath></text><line stroke="#e1ed5e" stroke-width="0.3" x1="172.23445277983987" x2="176.4835382374775" y1="55.19839476539836" y2="52.563006222186495" /><path d="M 173.08426987136738 54.67131705675599 a86.0,86.0 0 0,1 12.851231095245387,41.99856678651699" fill="none" id="id39" stroke="none" /><text fill="#e1ed5e" style="font-size:6.75px; font-family:Arial;" text-anchor="middle"><textPath startOffset="22.20632615414155" xlink:href="#id39">March</textPath></text><line stroke="#e1ed5e" stroke-width="0.3" x1="184.98032266829074" x2="189.97916517819016" y1="98.17113171792111" y2="98.06355123074" /><path d="M 185.9800911702706 98.14961562048488 a86.0,86.0 0 0,1 -9.607161424134198,41.387399972396054" fill="none" id="id40" stroke="none" /><text fill="#e1ed5e" style="font-size:6.75px; font-family:Arial;" text-anchor="middle"><textPath startOffset="21.466115282336823" xlink:href="#id40">April</textPath></text><line stroke="#e1ed5e" stroke-width="0.3" x1="174.80103733775053" x2="179.2010983576182" y1="140.37084112569926" y2="142.7455964860345" /><path d="M 175.68104954172406 140.8457921977663 a86.0,86.0 0 0,1 -30.038265399797805,32.042727171017184" fill="none" id="id41" stroke="none" /><text fill="#e1ed5e" style="font-size:6.75px; font-family:Arial;" text-anchor="middle"><textPath startOffset="22.206326154141568" xlink:href="#id41">May</textPath></text><path d="M 116.71984013943494 112.70617746262583 l 6.676243035243611 5.073584919591936 a29.38531364958697,29.38531364958697 0 0,0 -0.3095157644379752,0.4000908486810058 l -6.587920453587567 -5.187753762386195" fill="red" stroke="none" /><line stroke="#e1ed5e" stroke-width="0.3" x1="143.8653032363475" x2="146.44561519142675" y1="172.8068346515853" y2="177.08958963109032" /><path d="M 144.38136562736335 173.6633856474863 a86.0,86.0 0 0,1 -40.68145358897372,12.25698825130547" fill="none" id="id42" stroke="none" /><text fill="#e1ed5e" style="font-size:6.75px; font-family:Arial;" text-anchor="middle"><textPath startOffset="21.466115282336833" xlink:href="#id42">June</textPath></text><path d="M 110.21172684928248 118.3499491758327 l 1.853131614816203 3.3299824260766817 a24.81088962577124,24.81088962577124 0 0,0 -0.3749719230697424,0.20446458989982105 l -1.7955368798778117 -3.3613876677362735" fill="red" stroke="none" /><path d="M 108.59647513512805 119.15986991738527 l 1.9062912818827076 4.248752239888176 a25.656805992022516,25.656805992022516 0 0,0 -0.4044970484893197,0.17731961898522397 l -1.8328735587356342 -4.280936412167854" fill="red" stroke="none" /><path d="M 108.2653958097858 119.30500536409082 l 3.828168378450907 8.941230738537712 a30.72627782111652,30.72627782111652 0 0,0 -0.48800431413107254,0.20398584288511007 l -3.6736926048223735 -9.005801624442796" fill="red" stroke="none" /><path d="M 106.57524785965236 119.94407469862006 l 3.772687618611077 11.44333495651926 a33.0491944458838,33.0491944458838 0 0,0 -0.5418158195074685,0.17347231542664798 l -3.575150454012668 -11.506580118605616" fill="red" stroke="none" /><path d="M 103.7750983002368 120.6578951692458 l 2.4013563488843923 13.140576423174148 a34.35819078496814,34.35819078496814 0 0,0 -0.5827002374488541,0.10130990537389017 l -2.1748071399634883 -13.179964907069044" fill="red" stroke="none" /><path d="M 103.06178313531738 120.77559828337769 l 1.7183107987318138 11.65952430420633 a32.78546134020287,32.78546134020287 0 0,0 -0.5590255395560071,0.07747584593014513 l -1.5173566679889763 -11.687374715629078" fill="red" stroke="none" /><path d="M 101.26447882468166 120.96189622390904 l 0.7972512665611348 13.216431930555915 a34.24045628205657,34.24045628205657 0 0,0 -0.5886292028947167,0.03042540622731208 l -0.5696339952529386 -13.22819714354543" fill="red" stroke="none" /><line stroke="#e1ed5e" stroke-width="0.3" x1="102.19456741930631" x2="102.32365962044197" y1="184.97166512339345" y2="189.96999836594603" /><path d="M 102.22038585953345 185.97133177190398 a86.0,86.0 0 0,1 -42.740103519485714,-10.115201625700543" fill="none" id="id43" stroke="none" /><text fill="#e1ed5e" style="font-size:6.75px; font-family:Arial;" text-anchor="middle"><textPath startOffset="22.20632615414155" xlink:href="#id43">July</textPath></text><path d="M 99.45781275523022 120.99299961872073 l -0.29498217231799234 11.421442851593586 a32.42525147619096,32.42525147619096 0 0,0 -0.5578373071514062,-0.01921304477156401 l 0.49153983114404165 -11.414673008395928" fill="red" stroke="none" /><path d="M 98.73552117531835 120.96189622390904 l -0.8545871759434799 14.166917900677994 a35.19267001116554,35.19267001116554 0 0,0 -0.6043708263640419,-0.04168095066998915 l 1.0983207630864518 -14.15010860549172" fill="red" stroke="none" /><path d="M 96.93821686468263 120.77559828337769 l -0.38319712193899985 2.600167652934035 a23.628252624392644,23.628252624392644 0 0,0 -0.4018649734776661,-0.0627630440866101 l 0.427897959025183 -2.593186301500319" fill="red" stroke="none" /><path d="M 96.22490169976321 120.6578951692458 l -1.5651345309977562 8.564647194773784 a29.706481934229693,29.706481934229693 0 0,0 -0.5022268163710674,-0.0962529646674098 l 1.7123289619405186 -8.536437031757906" fill="red" stroke="none" /><path d="M 95.16358092515715 120.4354850818985 l -1.4167494105514387 5.986239198068904 a27.15160455725126,27.15160455725126 0 0,0 -0.45388007589401574,-0.11155267980736613 l 1.519582771188665 -5.960965259947508" fill="red" stroke="none" /><path d="M 94.46302465271185 120.25689768951611 l -4.040761954023259 14.783035205390203 a36.32533481046623,36.32533481046623 0 0,0 -0.6017357994631283,-0.1700565475047214 l 4.294628921591002 -14.711289864546961" fill="red" stroke="none" /><path d="M 94.11515582081647 120.15858648285463 l -1.3547775141302025 4.640802517800828 a25.834508260621686,25.834508260621686 0 0,0 -0.42580808723958863,-0.12829248372828647 l 1.434460575810037 -4.6167946649668155" fill="red" stroke="none" /><path d="M 93.76903079525671 120.05430185196036 l -2.678521362538746 8.620789825182452 a30.02731930860683,30.02731930860683 0 0,0 -0.4922745286710473,-0.15761075856322662 l 2.8265172363007336 -8.57340621995952" fill="red" stroke="none" /><path d="M 92.7421414339146 119.70592522655815 l -2.0885801094273244 5.670736497728442 a27.04312992580541,27.04312992580541 0 0,0 -0.43543274056016995,-0.16464340398132837 l 2.1858830707477774 -5.633944843640481" fill="red" stroke="none" /><path d="M 92.40401165467489 119.57807347666478 l -1.9015063836513941 4.900985889266887 a26.256937246521034,26.256937246521034 0 0,0 -0.4199596108951401,-0.167110596153782 l 1.9855870705883922 -4.867528448707039" fill="red" stroke="none" /><line stroke="#e1ed5e" stroke-width="0.3" x1="58.666819895761336" x2="56.23545636021788" y1="174.27360380694188" y2="178.64263932499728" /><path d="M 58.180547188652646 175.14741091055294 a86.0,86.0 0 0,1 -31.652253787137756,-30.449443065178592" fill="none" id="id44" stroke="none" /><text fill="#e1ed5e" style="font-size:6.75px; font-family:Arial;" text-anchor="middle"><textPath startOffset="22.20632615414155" xlink:href="#id44">August</textPath></text><path d="M 89.1626897886671 117.98757091392108 l -5.209412177634292 8.646487840409977 a31.094539474926137,31.094539474926137 0 0,0 -0.4560840441334837,-0.28016407082458533 l 5.357475421700084 -8.555535302757013" fill="red" stroke="none" /><path d="M 88.8546689885994 117.79835938074946 l -6.339373733525641 10.123562220158213 a32.94462939394645,32.94462939394645 0 0,0 -0.4780394333883485,-0.30510738404141735 l 6.512694968960913 -10.01294040729299" fill="red" stroke="none" /><path d="M 88.54995079064634 117.60387380957326 l -3.5341255047714286 5.433539915476265 a27.481774378713727,27.481774378713727 0 0,0 -0.3943311401822054,-0.2613411774929064 l 3.6271313436935957 -5.37190071689204" fill="red" stroke="none" /><path d="M 86.79598089348748 116.32954008644616 l -3.5449255450546353 4.384044231114864 a26.637937649562332,26.637937649562332 0 0,0 -0.3540687672360442,-0.2913744905563117 l 3.6198644408353684 -4.322374621701372" fill="red" stroke="none" /><path d="M 86.51685102203217 116.09983520530335 l -6.799984769930525 8.119663616663123 a31.590973992936153,31.590973992936153 0 0,0 -0.41389369400062326,-0.352729185259266 l 6.938743940508204 -8.001410041180906" fill="red" stroke="none" /><path d="M 86.24171649860922 115.8653595955263 l -3.308518069784541 3.8152164040028818 a26.049967131325065,26.049967131325065 0 0,0 -0.33624013321322377,-0.29669282359073673 l 3.3737005559043527 -3.7577004386398563" fill="red" stroke="none" /><path d="M 85.18274418774928 114.88116024355367 l -12.65619618318622 12.710780313324284 a38.937202624737495,38.937202624737495 0 0,0 -0.4708794114602088,-0.47699835776260646 l 12.873116219701961 -12.491041461581013" fill="red" stroke="none" /><path d="M 84.9287848128048 114.62390073753433 l -3.7729840210925327 3.661001659351181 a26.25721804504927,26.25721804504927 0 0,0 -0.3119525657740005,-0.32708101804411654 l 3.8354431382454908 -3.595513524724564" fill="red" stroke="none" /><path d="M 84.19399662182784 113.82643327865904 l -3.5449970532029518 3.101015737908923 a25.70991536165741,25.70991536165741 0 0,0 -0.2885111492036128,-0.33560364663090775 l 3.597850711977343 -3.039534992116485" fill="red" stroke="none" /><path d="M 83.72743513129214 113.27417163493432 l -3.5882993334350757 2.9271169980789815 a25.630756528557026,25.630756528557026 0 0,0 -0.2759359500756989,-0.34427252481134507 l 3.638153195565635 -2.8649166396893766" fill="red" stroke="none" /><path d="M 83.50135304334701 112.99209946851258 l -6.648234872800146 5.235249228884405 a29.462083751207544,29.462083751207544 0 0,0 -0.3103243845865441,-0.4011360992261241 l 6.737366074604759 -5.120035135545028" fill="red" stroke="none" /><path d="M 83.28015986056508 112.70617746262583 l -3.705158301689454 2.8157206358301137 a25.65365240855157,25.65365240855157 0 0,0 -0.2641577762604653,-0.3538825093477338 l 3.753077344645004 -2.7515252469730718" fill="red" stroke="none" /><path d="M 83.06392112726016 112.41649034213515 l -7.489182504554538 5.49060753300835 a30.286260047406266,30.286260047406266 0 0,0 -0.3046223873990236,-0.4230938530703246 l 7.582584684329169 -5.360880074486888" fill="red" stroke="none" /><path d="M 82.44556493220864 111.52570212397912 l -5.4065490784437635 3.549773829586233 a27.467740500270278,27.467740500270278 0 0,0 -0.25609761923687024,-0.3974691922378557 l 5.4668515610576796 -3.4561830374269293" fill="red" stroke="none" /><path d="M 82.24976979558568 111.22182372390057 l -10.345343889674671 6.54040111909025 a33.23940304893282,33.23940304893282 0 0,0 -0.3015848398643076,-0.4862507885647993 l 10.456393369206936 -6.361353999160186" fill="red" stroke="none" /><path d="M 82.05923443525364 110.91462005526583 l -7.336993040200511 4.463605028052794 a29.588086906780166,29.588086906780166 0 0,0 -0.26096569269706826,-0.437393511678886 l 7.412739608595811 -4.336649422487797" fill="red" stroke="none" /><line stroke="#e1ed5e" stroke-width="0.3" x1="26.63291911575756" x2="22.317208475507996" y1="142.92168965132927" y2="145.44649492493687" /><path d="M 25.769776987707644 143.4266507060508 a86.0,86.0 0 0,1 -11.730757126820373,-40.83630448921669" fill="none" id="id45" stroke="none" /><text fill="#e1ed5e" style="font-size:6.75px; font-family:Arial;" text-anchor="middle"><textPath startOffset="21.46611528233685" xlink:href="#id45">September</textPath></text><path d="M 81.69416730710424 110.29060199501025 l -9.5506262371001 5.368873137753591 a31.956242982431384,31.956242982431384 0 0,0 -0.2654248876874028,-0.48182326902287953 l 9.64162753423902 -5.203679350332889" fill="red" stroke="none" /><path d="M 81.51974371655577 109.97397251340807 l -4.327721749854331 2.3357131587723097 a25.91779742407354,25.91779742407354 0 0,0 -0.2085117555777492,-0.39442566184635147 l 4.367286013656966 -2.260872481839832" fill="red" stroke="none" /><path d="M 81.18737489456691 109.33194174019688 l -19.421651385395833 9.634047253436488 a42.679838768249525,42.679838768249525 0 0,0 -0.3208035027512882,-0.660950234526464 l 19.58460814476184 -9.298308062944741" fill="red" stroke="none" /><path d="M 80.87730276802145 108.67885076344099 l -11.884521519157078 5.393799180545592 a34.051242137795235,34.051242137795235 0 0,0 -0.23764348148894304,-0.535823314710688 l 11.9756060853773 -5.188427529342208" fill="red" stroke="none" /><path d="M 80.58989483394504 108.01547362559985 l -12.419888212399915 5.128838074174301 a34.437209650802146,34.437209650802146 0 0,0 -0.22154176171874407,-0.5498484840782764 l 12.506332588376047 -4.91429022225322" fill="red" stroke="none" /><path d="M 79.86692584326677 105.97154293290107 l -4.6725559985217275 1.3858970832939288 a25.873755254914222,25.873755254914222 0 0,0 -0.12297101361177604,-0.42807823066398204 l 4.695719649019607 -1.3052613771253507" fill="red" stroke="none" /><path d="M 79.76711848015287 105.62410040840567 l -13.038055455245383 3.62416657947273 a34.532386095948524,34.532386095948524 0 0,0 -0.15426426515092748,-0.5740747183418373 l 13.098507796738085 -3.399200927955354" fill="red" stroke="none" /><path d="M 79.67330655649465 105.27499134158121 l -4.607749194505083 1.1957595155722762 a25.76037744916765,25.76037744916765 0 0,0 -0.10768903235836384,-0.43016415323992013 l 4.6276495411585055 -1.1162675229349641" fill="red" stroke="none" /><path d="M 79.1416061653843 102.43462659150553 l -12.028713635491624 1.4040115605628394 a33.1103757244297,33.1103757244297 0 0,0 -0.06120326581227633,-0.5666662294827075 l 12.051099202804952 -1.1967490091953497" fill="red" stroke="none" /><path d="M 79.10278846688536 102.07522291339032 l -8.832126460734763 0.8770850204695168 a29.87556961279349,29.87556961279349 0 0,0 -0.04641440571760608,-0.5121790994437411 l 8.845915462729446 -0.7249245324772096" fill="red" stroke="none" /><path d="M 79.07016306316243 101.71520430193888 l -10.023847344987068 0.8214562846325856 a31.057450274456578,31.057450274456578 0 0,0 -0.039078319779163116,-0.533192625517031 l 10.036502223430567 -0.648790522618794" fill="red" stroke="none" /><path d="M 79.04373962182676 101.35467743843564 l -13.317266005809191 0.8608692330672522 a34.3450616224101,34.3450616224101 0 0,0 -0.03305900116102387,-0.5902906735109575 l 13.330111357857746 -0.631506843220857" fill="red" stroke="none" /><path d="M 79.0235259727143 100.99374915477108 l -4.64543997354646 0.22007521575106806 a25.650650024288133,25.650650024288133 0 0,0 -0.01709782815811079,-0.44121897226923096 l 4.648539934555771 -0.14007899646784033" fill="red" stroke="none" /><line stroke="#e1ed5e" stroke-width="0.3" x1="15.007084014347285" x2="10.007500721073583" y1="101.09737516637583" y2="101.16192664675087" /><path d="M 14.007167355692545 101.11028546245083 a86.0,86.0 0 0,1 10.666146001902534,-42.60595125391555" fill="none" id="id46" stroke="none" /><text fill="#e1ed5e" style="font-size:6.75px; font-family:Arial;" text-anchor="middle"><textPath startOffset="22.20632615414155" xlink:href="#id46">October</textPath></text><path d="M 79.00486145842228 99.54816195383935 l -13.053947814980424 -0.28093504902209543 a34.05697047779466,34.05697047779466 0 0,0 0.01765822383225257,-0.5859904819948981 l 13.047177896692526 0.5055956784419879" fill="red" stroke="none" /><path d="M 79.03285615573316 98.82574320788736 l -14.12195180495721 -0.7908944560130321 a35.144081335388535,35.144081335388535 0 0,0 0.03902567649686163,-0.6037099422331582 l 14.106245537455933 1.033863462499202" fill="red" stroke="none" /><path d="M 79.05617556472873 98.46500227214037 l -13.02776045581675 -0.9548200120079587 a34.06270353906394,34.06270353906394 0 0,0 0.04789137640449078,-0.5843960965429567 l 13.009394595592763 1.1789300257586939" fill="red" stroke="none" /><path d="M 79.12142395522702 97.74499172005258 l -13.35800400422567 -1.442742530357618 a34.43569041716174,34.43569041716174 0 0,0 0.06872322045052116,-0.588778584256594 l 13.33119043077156 1.672464852939074" fill="red" stroke="none" /><path d="M 79.16333360222342 97.38593545837743 l -3.004364838284172 -0.37691267134239353 a24.027915329618175,24.027915329618175 0 0,0 0.05501706206417374,-0.4099410162393136 l 2.9974317771621646 0.42857202964636654" fill="red" stroke="none" /><path d="M 79.21141760316559 97.0276538004421 l -15.131574857783779 -2.163508707005837 a36.285461314661205,36.285461314661205 0 0,0 0.09372725857888378,-0.6175455276724915 l 15.092091705765592 2.4236533470704207" fill="red" stroke="none" /><path d="M 79.26566170972629 96.67025291283419 l -14.253636270011416 -2.2890049919680813 a35.43626304730694,35.43626304730694 0 0,0 0.10190142667174167,-0.6014279885256599 l 14.212122981819451 2.5340187688095694" fill="red" stroke="none" /><path d="M 79.32604984820605 96.31383870115002 l -13.125216035079195 -2.3402234711955097 a34.33221443956833,34.33221443956833 0 0,0 0.10874201857234683,-0.5809042114111734 l 13.082988292596985 2.5658057600692556" fill="red" stroke="none" /><path d="M 79.46518482838121 95.60439243477599 l -14.882776362346881 -3.1857527727001167 a36.219922896664016,36.219922896664016 0 0,0 0.13574815401527981,-0.6085323569123973 l 14.825733821329564 3.4414632991624727" fill="red" stroke="none" /><path d="M 79.71946130924805 94.55025226153421 l -21.482653206220615 -5.772777661977614 a43.24476007318057,43.24476007318057 0 0,0 0.1993649942270244,-0.7172219580880294 l 21.38010144142723 6.1417109234845855" fill="red" stroke="none" /><path d="M 79.91906864156998 93.8553929516997 l -12.780335948368563 -3.910682275950518 a34.36526927587302,34.36526927587302 0 0,0 0.17795402774191518,-0.564162898265175 l 12.711126436858443 4.130095340642107" fill="red" stroke="none" /><path d="M 80.14247586403 93.16781622104843 l -12.385762738821658 -4.261448038269576 a34.09836089002187,34.09836089002187 0 0,0 0.19573582641559129,-0.5533715393467367 l 12.310573831596257 4.474017204042923" fill="red" stroke="none" /><path d="M 80.52162464483688 92.15188598940014 l -20.56979703465817 -8.287863302732012 a43.17668208212861,43.17668208212861 0 0,0 0.2836878933115691,-0.6869727355758114 l 20.424087454460402 8.640710608761134" fill="red" stroke="none" /><path d="M 80.803312248108 91.48605970444005 l -12.379344928400014 -5.49037443233678 a34.542244727649866,34.542244727649866 0 0,0 0.2457395871045606,-0.5414546061682547 l 12.283003024332102 5.702651047347106" fill="red" stroke="none" /><path d="M 81.10775173730289 90.83032412892265 l -19.718765546579647 -9.570840173475942 a42.918729349741,42.918729349741 0 0,0 0.3283078155618275,-0.661848522558182 l 19.551097718064405 9.908848284533084" fill="red" stroke="none" /><line stroke="#e1ed5e" stroke-width="0.3" x1="26.266209847984243" x2="21.928928074336255" y1="57.711370442889674" y2="55.22380399835377" /><path d="M 25.398753493254645 57.213857153982495 a86.0,86.0 0 0,1 29.58750427330803,-30.492523968695096" fill="none" id="id47" stroke="none" /><text fill="#e1ed5e" style="font-size:6.75px; font-family:Arial;" text-anchor="middle"><textPath startOffset="21.46611528233685" xlink:href="#id47">November</textPath></text><path d="M 81.96595687620814 89.24020034530311 l -11.324376312502965 -6.756555892681438 a34.1868323109876,34.1868323109876 0 0,0 0.30586503323204145,-0.5027616928380303 l 11.206395480984707 6.950485358726542" fill="red" stroke="none" /><path d="M 82.34701348167596 88.62581576622439 l -10.997347568784335 -7.085818436465489 a34.08244917678647,34.08244917678647 0 0,0 0.32200345675795794,-0.49043335602971927 l 10.873747476668456 7.274069856472876" fill="red" stroke="none" /><path d="M 83.39014120810768 87.1503855733568 l -11.567160276668266 -8.94851373684901 a35.62446904898457,35.62446904898457 0 0,0 0.379393673038656,-0.4817914367283741 l 11.41141252303564 9.146297567530432" fill="red" stroke="none" /><path d="M 83.84228863543731 86.58626213691792 l -10.290113434840023 -8.542601181690248 a34.37394741470486,34.37394741470486 0 0,0 0.38186081449535,-0.452002759261435 l 10.141542006857549 8.718462890580799" fill="red" stroke="none" /><path d="M 84.31358615837235 86.03803664274999 l -5.113724696391259 -4.55155891913348 a27.8459381289072,27.8459381289072 0 0,0 0.32176161761864197,-0.355297214643099 l 5.0346194381565725 4.638908921046135" fill="red" stroke="none" /><path d="M 85.31137513191541 84.99185889309783 l -30.250966921086093 -30.909005046371895 a64.24913401002716,64.24913401002716 0 0,0 0.7970464758572734,-0.7667580782755936 l 29.71443720161639 31.4251462114098" fill="red" stroke="none" /><path d="M 85.57189188830299 84.74124197986013 l -11.858086058084734 -12.540775570957878 a38.2593527364753,38.2593527364753 0 0,0 0.48241785598715986,-0.44835482134280746 l 11.640460318302717 12.743034978375332" fill="red" stroke="none" /><path d="M 86.93701828274178 83.55741782278169 l -10.388804889104465 -13.076553409434034 a37.70100344571133,37.70100344571133 0 0,0 0.5115980295166689,-0.39931037687123716 l 10.16217430442837 13.253442175528493" fill="red" stroke="none" /><path d="M 88.39885842347998 82.49532879139004 l -3.870714890238446 -5.840424500380877 a28.00663914485132,28.00663914485132 0 0,0 0.4041397694214526,-0.262863747910756 l 3.7696080950327064 5.906187172451168" fill="red" stroke="none" /><path d="M 88.70189139769569 82.29822771554957 l -5.520578228335065 -8.649591017079683 a31.261199186153277,31.261199186153277 0 0,0 0.45608727164351487,-0.28560180766164356 l 5.370871804319307 8.743337166064256" fill="red" stroke="none" /><path d="M 89.00827224532344 82.1063720568725 l -8.994391733892817 -14.642129322439299 a38.184034268988064,38.184034268988064 0 0,0 0.5630107368820925,-0.3392076694013332 l 8.741018930793075 14.794783601299251" fill="red" stroke="none" /><line stroke="#e1ed5e" stroke-width="0.3" x1="56.762969772571076" x2="54.21961505331055" y1="26.818313649435495" y2="22.513508569990535" /><path d="M 56.25429882871897 25.957352633546506 a86.0,86.0 0 0,1 42.265352541879196,-11.944610805530505" fill="none" id="id48" stroke="none" /><text fill="#e1ed5e" style="font-size:6.75px; font-family:Arial;" text-anchor="middle"><textPath startOffset="22.20632615414155" xlink:href="#id48">December</textPath></text><path d="M 90.26544431104013 81.39251694778311 l -1.462415138595502 -2.7953884877953556 a24.15481454847858,24.15481454847858 0 0,0 0.37007420262911117,-0.18956638034664355 l 1.414080448377627 2.8201473934545045" fill="red" stroke="none" /><path d="M 90.58718382345135 81.22770947309562 l -28.23844852964592 -56.31687158071317 a84.0,84.0 0 0,0 1.298114931958296,-0.6369793594606814 l 27.264862330677197 56.79460610030868" fill="red" stroke="none" /><path d="M 91.23893434514133 80.91482961587045 l -5.491829369398099 -11.963441819135667 a34.1637430080668,34.1637430080668 0 0,0 0.5365625401983877,-0.24073997136437958 l 5.285084710732937 12.056202121016575" fill="red" stroke="none" /><path d="M 92.91201910852362 80.23233633223022 l -0.8256733797961133 -2.3027197619660367 a23.446273662584147,23.446273662584147 0 0,0 0.38107786374747604,-0.13295058400149562 l 0.785913511985352 2.3165911991397423" fill="red" stroke="none" /><path d="M 93.59665428221793 80.00007090966166 l -4.121085462633784 -12.871617535660421 a34.51524633052067,34.51524633052067 0 0,0 0.5673889475137182,-0.17629050790038392 l 3.898911142409337 12.94064817844333" fill="red" stroke="none" /><path d="M 95.33964822691252 79.52364482259891 l -1.055433091815072 -4.637294330181092 a25.755884535607233,25.755884535607233 0 0,0 0.43313704855292895,-0.09466698241667838 l 0.9754533191086221 4.654774810693639" fill="red" stroke="none" /><path d="M 96.04723909329186 79.375362276772 l -2.5422403600783987 -13.264851497342834 a34.50626785218515,34.50626785218515 0 0,0 0.5843141524174964,-0.10677967651222942 l 2.313531086558009 13.3066466552058" fill="red" stroke="none" /><path d="M 96.75951476605007 79.25152402106235 l -2.0270954534016496 -12.979272635243815 a34.13661425623781,34.13661425623781 0 0,0 0.5813481981510596,-0.0856756125415731 l 1.8033782748219411 13.012242731946356" fill="red" stroke="none" /><path d="M 97.47563105711357 79.15227682838746 l -0.33639219793559566 -2.778124584131802 a23.79841668015852,23.79841668015852 0 0,0 0.4071039845363171,-0.04574287610495255 l 0.28852150988956055 2.783503413707353" fill="red" stroke="none" /><path d="M 97.83486435360386 79.11191278185805 l -2.296023638631112 -22.150825560731338 a43.26950375673202,43.26950375673202 0 0,0 0.7415051031105941,-0.07041484428498412 l 1.9143934084302814 22.187065949531505" fill="red" stroke="none" /><path d="M 98.19473922651362 79.07773832637324 l -0.3688035723941298 -4.274288214270861 a25.290169671897075,25.290169671897075 0 0,0 0.43403929821156495,-0.03368980313241075 l 0.29517408482023066 4.2800032795917335" fill="red" stroke="none" /><path d="M 98.55514903715128 79.0497635885617 l -0.17638516076622698 -2.557572311981723 a23.56364737355863,23.56364737355863 0 0,0 0.40488848762573787,-0.024423979276081 l 0.13233462430086612 2.5602295606381107" fill="red" stroke="none" /><path d="M 99.27714615592234 79.0124445844662 l -0.45836303144281826 -13.308249795797815 a34.31614093106355,34.31614093106355 0 0,0 0.5905209197802463,-0.015251413151509343 l 0.2292154764676929 13.314168001091685" fill="red" stroke="none" /><path d="M 99.63851952072746 79.00311137660856 l -0.09932290790694966 -5.769252157877189 a26.770107061502905,26.770107061502905 0 0,0 0.460803387179484,-0.003966280234275083 l 1.4132686287214147e-15 5.770107061502905" fill="red" stroke="none" /></svg>