<?xml version="1.0" encoding="utf-8" ?>
<svg baseProfile="full" height="200mm" version="1.1" viewBox="0,0,200,200" width="200mm" xmlns="http://www.w3.org/2000/svg" xmlns:ev="http://www.w3.org/2001/xml-events" xmlns:xlink="http://www.w3.org/1999/xlink"><defs /><rect fill="#1a1a1a" height="200" width="200" x="0" y="0" /><rect fill="#1a1a1a" height="200" width="180" x="10" y="0" /><text alignment-baseline="middle" fill="#e1ed5e" style="dominant-baseline: central; font-size:9.0px; font-family:Arial;" text-anchor="middle" x="100.0" y="100.0">2021</text><line stroke="#e1ed5e" stroke-width="0.3" x1="100.0" x2="100.0" y1="15.0" y2="10.0" /><path d="M 100.0 14.0 a86.0,86.0 0 0,1 42.46469731375804,11.215312516191453" fill="none" id="id37" stroke="none" /><text fill="#e1ed5e" style="font-size:6.75px; font-family:Arial;" text-anchor="middle"><textPath startOffset="22.20632615414155" xlink:href="#id37">January</textPath></text><path d="M 100.36148047927253 79.00311137660856 l 0.5340583470191479 -31.021214903002893 a52.025811711803925,52.025811711803925 0 0,0 0.8952734588101352,0.023122272127082198 l -1.067958441024151 31.00742583873345" fill="red" stroke="none" /><line stroke="#e1ed5e" stroke-width="0.3" x1="143.23703022742887" x2="145.7803849466894" y1="26.81831364943548" y2="22.513508569990506" /><path d="M 143.74570117128098 25.957352633546492 a86.0,86.0 0 0,1 28.547481713284135,27.462654790039103" fill="none" id="id38" stroke="none" /><text fill="#e1ed5e" style="font-size:6.75px; font-family:Arial;" text-anchor="middle"><textPath startOffset="19.985693538727396" xlink:href="#id38">February</textPath></text><line stroke="#e1ed5e" stroke-width="0.3" x1="172.23445277983987" x2="176.4835382374775" y1="55.19839476539836" y2="52.563006222186495" /><path d="M 173.08426987136738 54.67131705675599 a86.0,86.0 0 0,1 12.851231095245387,41.99856678651699" fill="none" id="id39" stroke="none" /><text fill="#e1ed5e" style="font-size:6.75px; font-family:Arial;" text-anchor="middle"><textPath startOffset="22.20632615414155" xlink:href="#id39">March</textPath></text><line stroke="#e1ed5e" stroke-width="0.3" x1="184.98032266829074" x2="189.97916517819016" y1="98.17113171792111" y2="98.06355123074" /><path d="M 185.9800911702706 98.14961562048488 a86.0,86.0 0 0,1 -9.607161424134198,41.387399972396054" fill="none" id="id40" stroke="none" /><text fill="#e1ed5e" style="font-size:6.75px; font-family:Arial;" text-anchor="middle"><textPath startOffset="21.466115282336823" xlink:href="#id40">April</textPath></text><line stroke="#e1ed5e" stroke-width="0.3" x1="174.80103733775053" x2="179.2010983576182" y1="140.37084112569926" y2="142.7455964860345" /><path d="M 175.68104954172406 140.8457921977663 a86.0,86.0 0 0,1 -30.038265399797805,32.042727171017184" fill="none" id="id41" stroke="none" /><text fill="#e1ed5e" style="font-size:6.75px; font-family:Arial;" text-anchor="middle"><textPath startOffset="22.206326154141568" xlink:href="#id41">May</textPath></text><path d="M 116.71984013943494 112.70617746262583 l 34.3646916061826 26.115313684531507 a64.16180763162632,64.16180763162632 0 0,0 -0.6758168782419739,0.8735844161597243 l -33.91006791072256 -26.702976094804484" fill="red" stroke="none" /><line stroke="#e1ed5e" stroke-width="0.3" x1="143.8653032363475" x2="146.44561519142675" y1="172.8068346515853" y2="177.08958963109032" /><path d="M 144.38136562736335 173.6633856474863 a86.0,86.0 0 0,1 -40.68145358897372,12.25698825130547" fill="none" id="id42" stroke="none" /><text fill="#e1ed5e" style="font-size:6.75px; font-family:Arial;" text-anchor="middle"><textPath startOffset="21.466115282336833" xlink:href="#id42">June</textPath></text><path d="M 110.21172684928248 118.3499491758327 l 9.538642633686306 17.140451376925846 a40.61582974788314,40.61582974788314 0 0,0 -0.6138351351907068,0.33471185830498956 l -9.24218468662695 -17.302103886990604" fill="red" stroke="none" /><path d="M 108.59647513512805 119.15986991738527 l 9.812271912156865 21.869644299057047 a44.970023401018636,44.970023401018636 0 0,0 -0.7089830956302036,0.31079735403169867 l -9.434368141868907 -22.0353062063832" fill="red" stroke="none" /><path d="M 108.2653958097858 119.30500536409082 l 19.70476884192777 46.023285145184516 a71.06416573427315,71.06416573427315 0 0,0 -1.128663213303936,0.4717813146983422 l -18.909634169126374 -46.35565150290283" fill="red" stroke="none" /><path d="M 106.57524785965236 119.94407469862006 l 19.41919217973802 58.90239085831666 a83.02093738198016,83.02093738198016 0 0,0 -1.361063650055114,0.43576959977421076 l -18.402407184591965 -59.22793330475057" fill="red" stroke="none" /><line stroke="#e1ed5e" stroke-width="0.3" x1="102.19456741930631" x2="102.32365962044197" y1="184.97166512339345" y2="189.96999836594603" /><path d="M 102.22038585953345 185.97133177190398 a86.0,86.0 0 0,1 -42.740103519485714,-10.115201625700543" fill="none" id="id43" stroke="none" /><text fill="#e1ed5e" style="font-size:6.75px; font-family:Arial;" text-anchor="middle"><textPath startOffset="22.20632615414155" xlink:href="#id43">July</textPath></text><path d="M 96.93821686468263 120.77559828337769 l -1.972434324259134 13.383868598814319 a34.52843064933415,34.52843064933415 0 0,0 -0.5872531958963161,-0.09171687172704432 l 2.202523383763967 -13.34793341974017" fill="red" stroke="none" /><path d="M 95.16358092515715 120.4354850818985 l -7.292448210742026 30.813028051333273 a52.66421479523226,52.66421479523226 0 0,0 -0.8803618864497285,-0.21637153259106126 l 7.821763381934964 -30.68293526042818" fill="red" stroke="none" /><path d="M 94.11515582081647 120.15858648285463 l -6.9734596572211665 23.88764856035561 a45.88471204040647,45.88471204040647 0 0,0 -0.7562784346565548,-0.22786048851542182 l 7.3836130663179675 -23.764072702734463" fill="red" stroke="none" /><path d="M 92.7421414339146 119.70592522655815 l -10.75056899163021 29.189037890866892 a52.10586225518052,52.10586225518052 0 0,0 -0.8389782714971092,-0.31722979376321714 l 11.251417483887602 -28.99965984699704" fill="red" stroke="none" /><path d="M 92.40401165467489 119.57807347666478 l -9.787642558309495 25.226892993832376 a48.059084924873204,48.059084924873204 0 0,0 -0.7686682729037796,-0.30586896929362567 l 10.220431907255133 -25.054677180132686" fill="red" stroke="none" /><line stroke="#e1ed5e" stroke-width="0.3" x1="58.666819895761336" x2="56.23545636021788" y1="174.27360380694188" y2="178.64263932499728" /><path d="M 58.180547188652646 175.14741091055294 a86.0,86.0 0 0,1 -31.652253787137756,-30.449443065178592" fill="none" id="id44" stroke="none" /><text fill="#e1ed5e" style="font-size:6.75px; font-family:Arial;" text-anchor="middle"><textPath startOffset="22.20632615414155" xlink:href="#id44">August</textPath></text><path d="M 88.8546689885994 117.79835938074946 l -32.63072092776112 52.109111638870104 a82.4827086590828,82.4827086590828 0 0,0 -1.1968563021373493,-0.76389031932007 l 33.522859031945394 -51.53970689072623" fill="red" stroke="none" /><path d="M 86.79598089348748 116.32954008644616 l -18.24683021268056 22.56603409954037 a50.02021205628951,50.02021205628951 0 0,0 -0.6648635886399761,-0.5471374697680285 l 18.632563929865228 -22.24860151091516" fill="red" stroke="none" /><path d="M 86.24171649860922 115.8653595955263 l -17.02996768413474 19.638101016138936 a46.99374561010303,46.99374561010303 0 0,0 -0.606572100627662,-0.5352293538750827 l 17.36548213766899 -19.342048520491566" fill="red" stroke="none" /><path d="M 85.18274418774928 114.88116024355367 l -16.869474061870854 16.94222937904721 a44.908540136453,44.908540136453 0 0,0 -0.5430926087010524,-0.5501499453120663 l 17.15860729562744 -16.649338939754475" fill="red" stroke="none" /><path d="M 84.9287848128048 114.62390073753433 l -19.420717855153473 18.844309940363846 a48.06053028190639,48.06053028190639 0 0,0 -0.5709898782185175,-0.5986806045246648 l 19.74221428475095 -18.507222219256683" fill="red" stroke="none" /><path d="M 83.72743513129214 113.27417163493432 l -18.470088541297002 15.066778186952078 a44.83593874086284,44.83593874086284 0 0,0 -0.4826953640721247,-0.6022366844851247 l 18.72670181742399 -14.746613668888694" fill="red" stroke="none" /><path d="M 83.28015986056508 112.70617746262583 l -19.071597860876754 14.493386593128347 a44.95379092972282,44.95379092972282 0 0,0 -0.46289289561415414,-0.6201206785510472 l 19.31825202318599 -14.162953035067993" fill="red" stroke="none" /><path d="M 82.44556493220864 111.52570212397912 l -27.82918338257157 18.271785835456406 a54.29146445198203,54.29146445198203 0 0,0 -0.5061906999921948,-0.7856192074090411 l 28.139578945940812 -17.790045028125917" fill="red" stroke="none" /><path d="M 82.24976979558568 111.22182372390057 l -53.25069061324296 33.6654711717017 a84.0,84.0 0 0,0 -0.7621414413281764,-1.2288146745389432 l 53.82229669423909 -32.743860165797486" fill="red" stroke="none" /><line stroke="#e1ed5e" stroke-width="0.3" x1="26.63291911575756" x2="22.317208475507996" y1="142.92168965132927" y2="145.44649492493687" /><path d="M 25.769776987707644 143.4266507060508 a86.0,86.0 0 0,1 -11.730757126820373,-40.83630448921669" fill="none" id="id45" stroke="none" /><text fill="#e1ed5e" style="font-size:6.75px; font-family:Arial;" text-anchor="middle"><textPath startOffset="21.46611528233685" xlink:href="#id45">September</textPath></text><path d="M 81.51974371655577 109.97397251340807 l -22.276124836382056 12.02263937337089 a46.313427172712224,46.313427172712224 0 0,0 -0.3725970169685303,-0.70481313925243 l 22.479774361575473 -11.637411219032334" fill="red" stroke="none" /><path d="M 79.86692584326677 105.97154293290107 l -24.051093564774437 7.1336417224310935 a46.08672848112212,46.08672848112212 0 0,0 -0.21903784972604215,-0.7624994899626337 l 24.170324051386583 -6.718584756963864" fill="red" stroke="none" /><path d="M 79.67330655649465 105.27499134158121 l -23.717512863434226 6.154944745252248 a45.503137783644696,45.503137783644696 0 0,0 -0.19022193626081102,-0.7598420781328028 l 23.819946113990095 -5.745774827722053" fill="red" stroke="none" /><path d="M 79.0235259727143 100.99374915477108 l -23.911518982042583 1.1327953280798433 a44.93833672759873,44.93833672759873 0 0,0 -0.029954327019091807,-0.7729880813026301 l 23.927475441912875 -0.7210299997632165" fill="red" stroke="none" /><line stroke="#e1ed5e" stroke-width="0.3" x1="15.007084014347285" x2="10.007500721073583" y1="101.09737516637583" y2="101.16192664675087" /><path d="M 14.007167355692545 101.11028546245083 a86.0,86.0 0 0,1 10.666146001902534,-42.60595125391555" fill="none" id="id46" stroke="none" /><text fill="#e1ed5e" style="font-size:6.75px; font-family:Arial;" text-anchor="middle"><textPath startOffset="22.20632615414155" xlink:href="#id46">October</textPath></text><path d="M 79.16333360222342 97.38593545837743 l -15.464396756540014 -1.9400863097356034 a36.58561843280236,36.58561843280236 0 0,0 0.08377061481869522,-0.6241883823187708 l 15.428710142663483 2.2059930341190337" fill="red" stroke="none" /><line stroke="#e1ed5e" stroke-width="0.3" x1="26.266209847984243" x2="21.928928074336255" y1="57.711370442889674" y2="55.22380399835377" /><path d="M 25.398753493254645 57.213857153982495 a86.0,86.0 0 0,1 29.58750427330803,-30.492523968695096" fill="none" id="id47" stroke="none" /><text fill="#e1ed5e" style="font-size:6.75px; font-family:Arial;" text-anchor="middle"><textPath startOffset="21.46611528233685" xlink:href="#id47">November</textPath></text><line stroke="#e1ed5e" stroke-width="0.3" x1="56.762969772571076" x2="54.21961505331055" y1="26.818313649435495" y2="22.513508569990535" /><path d="M 56.25429882871897 25.957352633546506 a86.0,86.0 0 0,1 42.265352541879196,-11.944610805530505" fill="none" id="id48" stroke="none" /><text fill="#e1ed5e" style="font-size:6.75px; font-family:Arial;" text-anchor="middle"><textPath startOffset="22.20632615414155" xlink:href="#id48">December</textPath></text></svg>