<?xml version="1.0" encoding="utf-8" ?>
<svg baseProfile="full" height="200mm" version="1.1" viewBox="0,0,200,200" width="200mm" xmlns="http://www.w3.org/2000/svg" xmlns:ev="http://www.w3.org/2001/xml-events" xmlns:xlink="http://www.w3.org/1999/xlink"><defs /><rect fill="#1a1a1a" height="200" width="200" x="0" y="0" /><rect fill="#1a1a1a" height="200" width="180" x="10" y="0" /><text alignment-baseline="middle" fill="#e1ed5e" style="dominant-baseline: central; font-size:9.0px; font-family:Arial;" text-anchor="middle" x="100.0" y="100.0">2026</text><line stroke="#e1ed5e" stroke-width="0.3" x1="100.0" x2="100.0" y1="15.0" y2="10.0" /><path d="M 100.0 14.0 a86.0,86.0 0 0,1 42.46469731375804,11.215312516191453" fill="none" id="id97" stroke="none" /><text fill="#e1ed5e" style="font-size:6.75px; font-family:Arial;" text-anchor="middle"><textPath startOffset="22.20632615414155" xlink:href="#id97">January</textPath></text><path d="M 100.0 79.0 l 0.0 -23.019390844265402 a44.0193908442654,44.0193908442654 0 0,0 0.7577214523652288,0.006521947761707515 l -0.39624097309270045 23.015980273112252" fill="#e1ff1b" stroke="none" /><path d="M 100.36148047927253 79.00311137660856 l 0.13134091994897784 -7.6290445155223106 a28.63017500828612,28.63017500828612 0 0,0 0.49267536560495995,0.012724351159664506 l -0.2626429207488056 7.625653372220286" fill="#ff5608" stroke="none" /><path d="M 100.72285384407766 79.0124445844662 l 0.3322619977364517 -9.646994544059664 a30.652714735671864,30.652714735671864 0 0,0 0.5271670923305963,0.02270092392119113 l -0.4982699224563796 9.639845893614279" fill="#ff720a" stroke="none" /><path d="M 101.08401301168833 79.027996857942 l 0.21013346024345808 -4.06537517627545 a25.070802303599443,25.070802303599443 0 0,0 0.43078556843704574,0.025986161912480998 l -0.28008107752011574 4.061155744982664" fill="#ff2403" stroke="none" /><path d="M 101.44485096284872 79.0497635885617 l 0.5057985618314289 -7.33404324695283 a28.35146397211638,28.35146397211638 0 0,0 0.4865783695948034,0.037767846247292854 l -0.6319671207885735 7.324250138517073" fill="#ff5207" stroke="none" /><path d="M 101.80526077348638 79.07773832637324 l 1.5082781919782295 -17.480350469395127 a38.54530010108917,38.54530010108917 0 0,0 0.6605469035784696,0.06272688773589374 l -1.8089502226469434 17.451798037144055" fill="#ffda14" stroke="none" /><path d="M 102.16513564639614 79.11191278185805 l 0.8605540656046956 -8.302171925439156 a29.346652741032113,29.346652741032113 0 0,0 0.5020140383388725,0.05640712651053048 l -1.0033348074532935 8.286128845458025" fill="#ff6008" stroke="none" /><path d="M 102.52436894288641 79.15227682838746 l 2.2080527620753405 -18.235398142486407 a39.36859391502532,39.36859391502532 0 0,0 0.6720505275186767,0.08725144645121156 l -2.5216180181018633 18.19468837287106" fill="#ffe515" stroke="none" /><path d="M 102.88285421437855 79.19881850522331 l 2.177217995712812 -15.709676353605944 a36.85983005381525,36.85983005381525 0 0,0 0.6277246953986868,0.09251030270120726 l -2.4473116715401546 15.669871566743769" fill="#ffc512" stroke="none" /><path d="M 103.2404852339499 79.25152402106235 l 2.3894967658258026 -15.299688987335255 a36.48515992500819,36.48515992500819 0 0,0 0.6196757597429889,0.1022518099443893 l -2.652501731707667 15.256290914451242" fill="#ffc011" stroke="none" /><path d="M 103.59715602781102 79.31037775812273 l 4.884726947712419 -28.095293760273147 a49.516768555180846,49.516768555180846 0 0,0 0.8384954516876557,0.15322968426787206 l -5.367617520502976 28.007048594654535" fill="#a1ff22" stroke="none" /><path d="M 103.95276090670814 79.375362276772 l 1.8338693729316151 -9.568727363258839 a30.742875357375514,30.742875357375514 0 0,0 0.5188717950580588,0.10408080079623235 l -1.9983075774567993 9.535742606385398" fill="#ff730a" stroke="none" /><path d="M 104.307194497241 79.44645832069477 l 1.7008412320787012 -8.116260172556212 a29.292559320581383,29.292559320581383 0 0,0 0.49261335486798596,0.10766619932261333 l -1.840297311100215 8.085780475137726" fill="#ff5f08" stroke="none" /><path d="M 104.66035177308747 79.52364482259891 l 3.078704575721468 -13.52701500835384 a34.872943339493546,34.872943339493546 0 0,0 0.5841654967967553,0.1382530994615574 l -3.311093759480747 13.472015996751415" fill="#ffab0f" stroke="none" /><path d="M 105.01212808612495 79.60689891045804 l 1.6123796496317722 -6.560371288332883 a27.7556080093008,27.7556080093008 0 0,0 0.46297822737146654,0.11802345879723504 l -1.725066765688264 6.53164483336678" fill="#ff4a06" stroke="none" /><path d="M 105.36241919743992 79.69619591428918 l 2.8347951506193456 -10.733425202710125 a32.101462972426106,32.101462972426106 0 0,0 0.5330403760710415,0.14570007049707534 l -3.019133415914098 10.683038591386756" fill="#ff860c" stroke="none" /><path d="M 105.71112130821622 79.79150937346287 l 4.063592636790681 -14.378800462968703 a35.94197737488745,35.94197737488745 0 0,0 0.5939151306404382,0.17338011285915472 l -4.310497985154547 14.306722021190845" fill="#ffb911" stroke="none" /><path d="M 106.0581310904928 79.89281104454417 l 14.497773087180372 -48.11871161961692 a71.25530651005153,71.25530651005153 0 0,0 1.1713511466309985,0.3639445031034657 l -15.323909606522088 47.862026981630926" fill="#3dffad" stroke="none" /><path d="M 106.40334571778207 80.00007090966166 l 2.0904135051622643 -6.529105832382265 a27.855585430363544,27.855585430363544 0 0,0 0.4553952845113165,0.15013666540197765 l -2.202491611915998 6.49215544272105" fill="#ff4b07" stroke="none" /><path d="M 106.74666289553966 80.11325718540242 l 2.6643663259133104 -7.8535964680171055 a29.293239740964417,29.293239740964417 0 0,0 0.47610999442285923,0.1661054283893347 l -2.799158324399443 7.806570186455564" fill="#ff5f08" stroke="none" /><path d="M 107.08798089147638 80.2323363322302 l 5.403142794148488 -15.068820181513486 a37.008225814147764,37.008225814147764 0 0,0 0.5978021089504049,0.2201755617859638 l -5.661727228871469 14.973581351921197" fill="#ffc712" stroke="none" /><path d="M 107.4271985657038 80.35727306442388 l 3.3404619769946917 -8.83452648698153 a30.444974561581702,30.444974561581702 0 0,0 0.48859376040047214,0.18956678827588136 l -3.492038902394831 8.7757169948151" fill="#ff6f0a" stroke="none" /><path d="M 107.76421540070413 80.48803036053334 l 6.423983300517041 -16.143880695628546 a38.375052384381746,38.375052384381746 0 0,0 0.611654716116342,0.24950931643915267 l -6.700921886221771 16.030910493005813" fill="#ffd814" stroke="none" /><path d="M 108.09893153111575 80.62456947434976 l 9.950835676087673 -23.80582235736437 a46.801866381385835,46.801866381385835 0 0,0 0.7406200173458056,0.31709484004599847 l -10.359139451223793 23.63100798935558" fill="#c0ff1e" stroke="none" /><path d="M 108.43124777332544 80.76684994638697 l 3.9915982991188934 -9.105533499274733 a30.94201173243842,30.94201173243842 0 0,0 0.48596327428423197,0.2180375556818976 l -4.1477436918699055 9.035475613076303" fill="#ff760a" stroke="none" /><path d="M 108.76106565485865 80.91482961587045 l 2.8896861511312184 -6.294913738080946 a27.926487206508057,27.926487206508057 0 0,0 0.43515024265868857,0.20430887365598102 l -2.997614605089505 6.244239881784962" fill="#ff4c07" stroke="none" /><path d="M 109.08828744355905 81.06846463323043 l 7.249738891485333 -15.101710754237715 a37.751727722816355,37.751727722816355 0 0,0 0.5834057317167975,0.28627465885015785 l -7.508615890212563 14.974680935252724" fill="#ffd013" stroke="none" /><path d="M 109.41281617654863 81.2277094730956 l 9.88511174664285 -19.71420519835713 a43.053691773636174,43.053691773636174 0 0,0 0.6596225618454147,0.3378842960565213 l -10.222994796077021 19.54112837698811" fill="#ecff1a" stroke="none" /><path d="M 110.05341064243156 81.56283822128135 l 7.073242043475176 -12.971767740708215 a35.77489462989375,35.77489462989375 0 0,0 0.5381155918842689,0.29946074427820607 l -7.29548172443148 12.848091598869829" fill="#ffb710" stroke="none" /><path d="M 110.36928655335952 81.73862282372117 l 7.565123579940192 -13.322958563016071 a36.32097645881653,36.32097645881653 0 0,0 0.5410152436365572,0.3133909492319732 l -7.793335556042077 13.190763456394048" fill="#ffbe11" stroke="none" /><line stroke="#e1ed5e" stroke-width="0.3" x1="143.23703022742887" x2="145.7803849466894" y1="26.81831364943548" y2="22.513508569990506" /><path d="M 143.74570117128098 25.957352633546492 a86.0,86.0 0 0,1 28.547481713284135,27.462654790039103" fill="none" id="id98" stroke="none" /><text fill="#e1ed5e" style="font-size:6.75px; font-family:Arial;" text-anchor="middle"><textPath startOffset="19.985693538727396" xlink:href="#id98">February</textPath></text><path d="M 110.68208982089419 81.91981866633111 l 9.456632678604535 -16.006009732349955 a39.590864669781574,39.590864669781574 0 0,0 0.5837539777623001,0.35170523993394764 l -9.730748722584472 15.840857882957394" fill="#ffe715" stroke="none" /><path d="M 110.99172775467656 82.1063720568725 l 11.265625618614935 -18.339511118285788 a42.523289447399094,42.523289447399094 0 0,0 0.6203962602292251,0.3884920812402785 l -11.579641031216424 18.142874695722565" fill="#f3ff19" stroke="none" /><path d="M 111.2981086023043 82.29822771554956 l 9.917026590217976 -15.537905734334572 a39.43295773879378,39.43295773879378 0 0,0 0.5690231650337841,0.37010849494705333 l -10.18301678103604 15.36489831522799" fill="#ffe515" stroke="none" /><path d="M 111.60114157652 82.49532879139004 l 13.712776535376504 -20.690864172774916 a45.822411255262715,45.822411255262715 0 0,0 0.6537228239547405,0.44139656889004714 l -14.066904053737787 20.4517556915862" fill="#cbff1d" stroke="none" /><path d="M 111.90073688211348 82.69761687909136 l 1.819929380166422 -2.6459803036200746 a24.211441221000054,24.211441221000054 0 0,0 0.3413454195875669,0.23913428036978368 l -1.86520593933764 2.6142611804863556" fill="#ff1702" stroke="none" /><path d="M 112.19680574252982 82.90503203632743 l 10.945909707633655 -15.341719769526982 a39.84625439747548,39.84625439747548 0 0,0 0.5549154154428642,0.4031696487650011 l -11.208370439430308 15.151030885945307" fill="#ffeb16" stroke="none" /><path d="M 112.48926042617603 83.11751280151076 l 10.198135034691353 -13.78543470923174 a38.14759949113258,38.14759949113258 0 0,0 0.524536479902347,0.39507000188078645 l -10.433917668352082 13.607848117845107" fill="#ffd513" stroke="none" /><path d="M 112.77801427241765 83.33499621200491 l 18.170503683802693 -23.69785369343289 a50.86227509414576,50.86227509414576 0 0,0 0.6901948843979459,0.5387080549624472 l -18.575731123360068 23.381567249247215" fill="#92ff23" stroke="none" /><path d="M 113.06298171725822 83.55741782278167 l 13.107273953294118 -16.498333516889176 a42.07120403112293,42.07120403112293 0 0,0 0.563146308164216,0.45535848366814347 l -13.389323660022827 16.270268935956903" fill="#f8ff18" stroke="none" /><path d="M 113.34407831869373 83.78471172551755 l 12.49453678111383 -15.182953136452953 a40.6630494918345,40.6630494918345 0 0,0 0.5366408424247774,0.44942127256631564 l -12.754035160497725 14.965630706492819" fill="#fff517" stroke="none" /><path d="M 113.6212207817346 84.01681056812373 l 13.851163589339649 -16.25300514893572 a42.35450559366757,42.35450559366757 0 0,0 0.5508227682324252,0.47766807671346806 l -14.128880156218838 16.012172078802582" fill="#f5ff19" stroke="none" /><path d="M 114.16331599549186 84.49514656593476 l 12.990801105475388 -14.221278914881243 a40.26150791960137,40.26150791960137 0 0,0 0.5076633277924658,0.47181773603492566 l -13.2336723170627 13.995556592771676" fill="#fff016" stroke="none" /><path d="M 114.42810811169701 84.74124197986012 l 13.74994469305186 -14.541551618364448 a41.012938378247775,41.012938378247775 0 0,0 0.5087884607726132,0.4894540961506848 l -13.998216397436892 14.30271443545146" fill="#fff917" stroke="none" /><path d="M 114.68862486808459 84.99185889309783 l 11.469526641158831 -11.719019023618939 a37.397726923210875,37.397726923210875 0 0,0 0.4561885139450139,0.4542294954899017 l -11.669550955271168 11.519853677478919" fill="#ffcc13" stroke="none" /><path d="M 114.94478906791727 85.2469230424477 l 7.0011487183411285 -6.911337815713299 a30.837818547789865,30.837818547789865 0 0,0 0.3696657599008477,0.38097306011549853 l -7.119078741945086 6.789800560047686" fill="#ff750a" stroke="none" /><path d="M 115.19652480421416 85.50635884689758 l 19.328800458491656 -18.434786990747536 a47.71037061814047,47.71037061814047 0 0,0 0.5616934617954576,0.599175422099348 l -19.643261242257577 18.099342151770134" fill="#b5ff1f" stroke="none" /><path d="M 115.4437574822437 85.77008943001954 l 7.13480988926771 -6.5740288122772075 a30.701719794997338,30.701719794997338 0 0,0 0.3547603596324117,0.3917352497667071 l -7.246913889516157 6.450240775240951" fill="#ff730a" stroke="none" /><path d="M 115.68641384162765 86.03803664274999 l 6.25051672539152 -5.56338028340195 a29.36780493989581,29.36780493989581 0 0,0 0.33284650116923165,0.380501089171994 l -6.3453550901386 5.454963638027008" fill="#ff6008" stroke="none" /><path d="M 115.9244219780498 86.31012108654704 l 30.045262286124686 -25.829257927662244 a60.62156421616554,60.62156421616554 0 0,0 0.6734460726400279,0.7971477341799295 l -30.485418972251832 25.308251243853206" fill="#30ff32" stroke="none" /><path d="M 116.15771136456269 86.58626213691792 l 5.671268619068701 -4.708148876464962 a28.370885536527595,28.370885536527595 0 0,0 0.3087042917249599,0.3784349600484737 l -5.751471402870069 4.609829746808388" fill="#ff5307" stroke="none" /><path d="M 116.38621287248628 86.86637796730983 l 11.562152953686779 -9.267116688862698 a35.817652737510265,35.817652737510265 0 0,0 0.38145104178317163,0.4844040861048425 l -11.719958076063914 9.066720208804817" fill="#ffb711" stroke="none" /><path d="M 116.82858285166822 87.43820079747576 l 10.22516380027138 -7.6326364260194355 a33.759745826393996,33.759745826393996 0 0,0 0.3436057083398789,0.4686778000237331 l -10.355032121124886 7.455496182324208" fill="#ff9c0e" stroke="none" /><path d="M 117.04232023915458 87.72973835380427 l 18.245122608299514 -13.136264606530004 a43.482125050907776,43.482125050907776 0 0,0 0.43210336963018564,0.6111795725850978 l -18.468538597733584 12.820258533613112" fill="#e7ff1a" stroke="none" /><path d="M 117.2510076193507 88.02491185347247 l 6.561498800779596 -4.554778958217617 a28.98744501520067,28.98744501520067 0 0,0 0.2810064098984613,0.4123422321562451 l -6.638929676346791 4.441158702790966" fill="#ff5b08" stroke="none" /><path d="M 117.45458315368197 88.32363383020206 l 13.51998248393074 -9.044287377228418 a37.266193793499674,37.266193793499674 0 0,0 0.3520827731444739,0.5362462185096629 l -13.67366189243314 8.810223094741081" fill="#ffca12" stroke="none" /><path d="M 117.65298651832404 88.62581576622439 l 10.694527565703032 -6.890705246912897 a33.72221437696343,33.72221437696343 0 0,0 0.3102000576717723,0.49066199653176146 l -10.811555219620761 6.7055956026669294" fill="#ff9c0e" stroke="none" /><line stroke="#e1ed5e" stroke-width="0.3" x1="172.23445277983987" x2="176.4835382374775" y1="55.19839476539836" y2="52.563006222186495" /><path d="M 173.08426987136738 54.67131705675599 a86.0,86.0 0 0,1 12.851231095245387,41.99856678651699" fill="none" id="id99" stroke="none" /><text fill="#e1ed5e" style="font-size:6.75px; font-family:Arial;" text-anchor="middle"><textPath startOffset="22.20632615414155" xlink:href="#id99">March</textPath></text><path d="M 117.84615892207809 88.93136811851018 l 14.979235653724082 -9.290494724444207 a38.626423148067346,38.626423148067346 0 0,0 0.34558546086824543,0.5680516320887226 l -15.136936912878552 9.031275319148403" fill="#ffdb14" stroke="none" /><path d="M 118.03404312379186 89.2402003453031 l 10.892555714867264 -6.498915213581487 a33.68399262672477,33.68399262672477 0 0,0 0.2927946180581636,0.50048091303132 l -11.002810007395755 6.310454888196271" fill="#ff9b0e" stroke="none" /><path d="M 118.21658344932153 89.55222093294921 l 15.583927164828305 -8.937868534354692 a38.96508502112031,38.96508502112031 0 0,0 0.3286841460896257,0.5846924203308461 l -15.735468952210365 8.668292604089052" fill="#ffe014" stroke="none" /><path d="M 118.3937258080291 89.86733742301442 l 7.563375064590017 -4.166481998944668 a29.635057302368757,29.635057302368757 0 0,0 0.24229044371492411,0.4489273946626566 l -7.633973607523406 4.035673620949553" fill="#ff6409" stroke="none" /><path d="M 118.56541770881063 90.18545643968196 l 6.6951434858814105 -3.5393643394071694 a28.573113377178995,28.573113377178995 0 0,0 0.22612294802541139,0.4367975620962999 l -6.755075867066939 3.4235940550505246" fill="#ff5507" stroke="none" /><path d="M 118.73160827565052 90.50648371742162 l 27.971702397347343 -14.176562324648117 a52.359066541439006,52.359066541439006 0 0,0 0.4005218938565907,0.8074276978376416 l -28.21158430415734 13.692975038311525" fill="#82ff25" stroke="none" /><path d="M 118.89224826269711 90.83032412892265 l 6.367160636275948 -3.090410333481285 a28.077525739792815,28.077525739792815 0 0,0 0.20729477634057422,0.43661566573225197 l -6.419413606458278 2.9803522521084926" fill="#ff4e07" stroke="none" /><path d="M 119.04729006885535 91.15688171328212 l 13.550567421718519 -6.291145361320353 a35.93975861276888,35.93975861276888 0 0,0 0.25568174598306026,0.5633608353739253 l -13.656851484664925 6.056962517104366" fill="#ffb911" stroke="none" /><path d="M 119.196687751892 91.48605970444005 l 7.372652271731842 -3.269851657365355 a29.065229778564753,29.065229778564753 0 0,0 0.19890207332080562,0.4590934085874702 l -7.427845054895328 3.142459104191282" fill="#ff5c08" stroke="none" /><path d="M 119.34039704204932 91.81776055985345 l 14.553223820435992 -6.156955395794396 a36.802038580939715,36.802038580939715 0 0,0 0.24180396202605445,0.5855474737643139 l -14.657049469348243 5.9055333515767785" fill="#ffc412" stroke="none" /><path d="M 119.47837535516314 92.15188598940014 l 17.250685030743853 -6.950545947166963 a39.598285485323885,39.598285485323885 0 0,0 0.2492927978469361,0.6344229788551446 l -17.36777137847249 6.6525739634160335" fill="#ffe715" stroke="none" /><path d="M 119.61058180528143 92.48833698450437 l 5.619452830992354 -2.1524825941940855 a27.017593492257223,27.017593492257223 0 0,0 0.16261427843569826,0.43572541947497034 l -5.6556716979296775 2.055434037689782" fill="#ff3f06" stroke="none" /><path d="M 119.7369772167798 92.82701384747503 l 4.812374129779276 -1.7489554056093766 a26.120331022090184,26.120331022090184 0 0,0 0.1499393063305205,0.4238986100405175 l -4.8417665169196065 1.6658591691422444" fill="#ff3304" stroke="none" /><path d="M 119.85752413597 93.16781622104841 l 10.070908297035162 -3.464998749853037 a31.650324420588078,31.650324420588078 0 0,0 0.17281485005076488,0.5166944053624914 l -10.129060440857696 3.2911312415682317" fill="#ff800b" stroke="none" /><path d="M 119.97218684219823 93.5106431181261 l 4.742565450164176 -1.540952925432021 a25.986628416825184,25.986628416825184 0 0,0 0.13456682550871624,0.4266136105637604 l -4.768387759441098 1.4590891484418413" fill="#ff3104" stroke="none" /><path d="M 120.08093135843002 93.85539295169968 l 1.5613419793615921 -0.4777583648860437 a22.63280183480279,22.63280183480279 0 0,0 0.11078659811700815,0.3735173338824698 l -1.5693344745903026 0.45081164425704395" fill="#ff0000" stroke="none" /><path d="M 120.18372546131832 94.20196356495316 l 12.026977132331846 -3.454904881181465 a33.51337471186908,33.51337471186908 0 0,0 0.15450181119407747,0.5558252188775782 l -12.084665714092287 3.247368358884935" fill="#ff990e" stroke="none" /><path d="M 120.28053869075195 94.5502522615342 l 10.375596112218506 -2.7881104299059816 a31.743675090639808,31.743675090639808 0 0,0 0.1372591494355903,0.5289154943062281 l -10.4220515935244 2.609098510050903" fill="#ff810b" stroke="none" /><path d="M 120.37134235888165 94.90015583598534 l 4.708011751710393 -1.1786226863741514 a25.853300535829096,25.853300535829096 0 0,0 0.10435770906846138,0.4326300770780063 l -4.727602261039674 1.0974073776367388" fill="#ff2f04" stroke="none" /><path d="M 120.53481517161879 95.60439243477599 l 2.619281997392579 -0.56067394164358 a23.67861782468179,23.67861782468179 0 0,0 0.08188370943752839,0.3992940476248943 l -2.628545002745104 0.5155042378552739" fill="#ff0f01" stroke="none" /><path d="M 120.6074358757038 95.95851677861258 l 61.822307627111385 -12.124449664162288 a84.0,84.0 0 0,0 0.26605710436056285,1.4212876901497489 l -62.02185045538181 11.058483896549978" fill="#4dd2ff" stroke="none" /><path d="M 120.67395015179393 96.31383870115 l 4.0937184699465785 -0.7299092085212884 a25.15828069806091,25.15828069806091 0 0,0 0.0723457970813144,0.42698898963467863 l -4.105676128548116 0.6593344305707719" fill="#ff2503" stroke="none" /><path d="M 120.78858239683441 97.02765380044208 l 1.998844114113625 -0.2857942207256538 a23.019172139548004,23.019172139548004 0 0,0 0.052707328325993195,0.3927308170693403 l -2.0034674414974543 0.25134506159164915" fill="#ff0600" stroke="none" /><path d="M 120.83666639777658 97.38593545837742 l 10.180723156605172 -1.2772228965856678 a31.260527389905427,31.260527389905427 0 0,0 0.06238655561107507,0.5344899096482377 l -10.201200065219837 1.1017892486125773" fill="#ff7a0b" stroke="none" /><path d="M 120.87857604477298 97.74499172005257 l 5.1245638040579715 -0.5534828517274617 a26.15436683298904,26.15436683298904 0 0,0 0.04449091234455973,0.4480174156551672 l -5.13333184208476 0.4651899053678596" fill="#ff3304" stroke="none" /><path d="M 120.91429891909075 98.10471618934814 l 5.903424671628868 -0.5349768237905349 a26.9276152924755,26.9276152924755 0 0,0 0.037859606715257434,0.46198309679343713 l -5.91175876216362 0.433279809789329" fill="#ff3e05" stroke="none" /><path d="M 120.94382443527127 98.46500227214037 l 30.808421400977647 -2.2579857368265928 a51.8910558059761,51.8910558059761 0 0,0 0.05762232159772647,0.8913918108736089 l -30.842724313579787 1.7273348616999487" fill="#87ff25" stroke="none" /><path d="M 120.96714384426684 98.82574320788733 l 2.8886553713891834 -0.16177802828657512 a23.893181982712438,23.893181982712438 0 0,0 0.01946314912117345,0.41083631625680544 l -2.8910121287438533 0.11203060540676989" fill="#ff1302" stroke="none" /><path d="M 120.98425023603335 99.18683210126433 l 7.000058523123068 -0.2712616756018389 a28.005312428707104,28.005312428707104 0 0,0 0.014520495170899228,0.481864543389599 l -7.003690712749612 0.1507269847872408" fill="#ff4d07" stroke="none" /><line stroke="#e1ed5e" stroke-width="0.3" x1="184.98032266829074" x2="189.97916517819016" y1="98.17113171792111" y2="98.06355123074" /><path d="M 185.9800911702706 98.14961562048488 a86.0,86.0 0 0,1 -9.607161424134198,41.387399972396054" fill="none" id="id100" stroke="none" /><text fill="#e1ed5e" style="font-size:6.75px; font-family:Arial;" text-anchor="middle"><textPath startOffset="21.466115282336823" xlink:href="#id100">April</textPath></text><path d="M 120.99513854157772 99.54816195383933 l 7.594725767077187 -0.163446697192614 a28.59648433816126,28.59648433816126 0 0,0 0.006355218517359872,0.49221867786605433 l -7.596413992712262 0.032691761266096936" fill="#ff5607" stroke="none" /><path d="M 120.99980553446 99.90962569577887 l 13.576810055436699 -0.05842886308109262 a34.576935781443765,34.576935781443765 0 0,0 -0.0025614967959939196,0.5952016456072282 l -13.575804261351202 -0.17528226072982026" fill="#ffa70f" stroke="none" /><path d="M 120.99824983174949 100.27111621757518 l 4.864131916228589 0.06280261724101793 a25.864537333314026,25.864537333314026 0 0,0 -0.009579654764752425,0.4451289143874511 l -4.86233019877883 -0.1465213474185839" fill="#ff2f04" stroke="none" /><path d="M 120.9904718944345 100.63252640178507 l 5.256656969740554 0.15840398134974762 a26.259043099160664,26.259043099160664 0 0,0 -0.01750336175031336,0.4516839923360323 l -5.253151475139037 -0.2488652206997861" fill="#ff3505" stroke="none" /><path d="M 120.9764740272857 100.99374915477107 l 7.790241356278802 0.3690584868169277 a28.79897843026689,28.79897843026689 0 0,0 -0.027720592608906053,0.4949698026728282 l -7.782734412782366 -0.5031000058251792" fill="#ff5908" stroke="none" /><path d="M 120.95626037817324 101.35467743843564 l 7.798321963972117 0.5041076333090985 a28.81459851558162,28.81459851558162 0 0,0 -0.03625623111843493,0.49468746790130763 l -7.788489174189344 -0.6382682377071764" fill="#ff5908" stroke="none" /><path d="M 120.92983693683757 101.71520430193887 l 6.717464048047403 0.5504975154895552 a27.739982993403586,27.739982993403586 0 0,0 -0.04309657830604077,0.4755671504272108 l -6.706992873464286 -0.6660460544653365" fill="#ff4a06" stroke="none" /><path d="M 120.89721153311464 102.0752229133903 l 6.7744565447166005 0.6727456160878228 a27.8077785025821,27.8077785025821 0 0,0 -0.05140161723041728,0.47591513685909687 l -6.761872625985132 -0.789257074831711" fill="#ff4b06" stroke="none" /><path d="M 120.8583938346157 102.4346265915055 l 4.157210407405713 0.48523654719552733 a25.18543341580972,25.18543341580972 0 0,0 -0.05396697584168742,0.43016989603942457 l -4.148241922317177 -0.5567241975223468" fill="#ff2503" stroke="none" /><path d="M 120.76222939487914 103.15116336523771 l 7.66284403368524 1.1630192949527325 a28.75059949713684,28.75059949713684 0 0,0 -0.07847304401129081,0.4886517199666779 l -7.641689235312661 -1.2947502446126153" fill="#ff5808" stroke="none" /><path d="M 120.70491114924044 103.5080841355445 l 10.308315792821995 1.7465633557335154 a31.4552311327935,31.4552311327935 0 0,0 -0.09504506297232661,0.5330631881673292 l -10.27672428751048 -1.923745294634063" fill="#ff7d0b" stroke="none" /><path d="M 120.5718875245553 104.21870165774334 l 12.738284996720603 2.6122553882490163 a34.003375825958166,34.003375825958166 0 0,0 -0.1225189580231028,0.5723677832225962 l -12.691431999973057 -2.8311369908877815" fill="#ff9f0e" stroke="none" /><path d="M 120.49622156327973 104.57218783832717 l 11.134763518854268 2.483883684920901 a32.40844585300838,32.40844585300838 0 0,0 -0.12614514395691556,0.5434299786412464 l -11.0903578089668 -2.6751823209107126" fill="#ff8a0c" stroke="none" /><path d="M 120.41448212921028 104.9243191809786 l 3.015042877310764 0.7272794567230421 a24.101518815063635,24.101518815063635 0 0,0 -0.10075431715558565,0.40246341317536566 l -3.002077245860117 -0.7790707092958036" fill="#ff1602" stroke="none" /><path d="M 120.32669344350535 105.2749913415812 l 3.8550942839930933 1.0004376277707017 a24.982791406229516,24.982791406229516 0 0,0 -0.11160398667478606,0.41531995211898665 l -3.8373022209765297 -1.0666485130652366" fill="#ff2203" stroke="none" /><path d="M 120.13307415673323 105.97154293290107 l 23.533578738071096 6.980144944839465 a45.54692957728033,45.54692957728033 0 0,0 -0.22941170208689646,0.749730716092226 l -23.409940263478067 -7.384202633483747" fill="#ceff1d" stroke="none" /><path d="M 119.9155931802556 106.66101706037122 l 5.40304702471358 1.807116066484304 a26.697243686995666,26.697243686995666 0 0,0 -0.14951622124445896,0.434564125928189 l -5.37113997252589 -1.8998528955017933" fill="#ff3b05" stroke="none" /><path d="M 119.67450827220406 107.3425965602758 l 5.169422330150261 1.9292468251213881 a26.517691595196048,26.517691595196048 0 0,0 -0.16328043882066837,0.4262737021202382 l -5.135447611736086 -2.01794409407477" fill="#ff3805" stroke="none" /><path d="M 119.54520255179757 107.68017299344265 l 6.61868949050747 2.6007753126254034 a28.111334811307636,28.111334811307636 0 0,0 -0.18084608774965807,0.44884515871494157 l -6.57294078850042 -2.7143198391831587" fill="#ff4f07" stroke="none" /><path d="M 119.41010516605496 108.01547362559984 l 12.787733034270278 5.280740933164037 a34.83518489066776,34.83518489066776 0 0,0 -0.2336429338969076,0.5522628787253552 l -12.694939119181063 -5.500078337555556" fill="#ffaa0f" stroke="none" /><path d="M 119.26925614724726 108.34839909993367 l 4.321559242270741 1.8723141678531825 a25.709717043262728,25.709717043262728 0 0,0 -0.1794280115107853,0.4045627983451651 l -4.288690146028682 -1.9464253026910352" fill="#ff2d04" stroke="none" /><path d="M 119.12269723197855 108.67885076344098 l 5.107510491401341 2.3180475426580296 a26.60892216292914,26.60892216292914 0 0,0 -0.192883493891952,0.4154538861220971 l -5.066852380669558 -2.4056214960589575" fill="#ff3a05" stroke="none" /><path d="M 118.97047184881838 109.00673069616215 l 8.29946081438663 3.9403874123029294 a30.187366476231073,30.187366476231073 0 0,0 -0.22690368998339155,0.4674888080187596 l -8.230403867788525 -4.082665176286965" fill="#ff6c09" stroke="none" /><path d="M 118.81262510543309 109.33194174019688 l 3.993343215075202 1.9808849654336624 a25.45765580542826,25.45765580542826 0 0,0 -0.19811066551649506,0.3908911378277522 l -3.9586538797724375 -2.049330314964109" fill="#ff2904" stroke="none" /><path d="M 118.64920377521936 109.65438752849418 l 7.462756774831017 3.8633470256167324 a29.403462912432463,29.403462912432463 0 0,0 -0.23655434802656405,0.4474716786326256 l -7.395149918579559 -3.9912337193354923" fill="#ff6108" stroke="none" /><line stroke="#e1ed5e" stroke-width="0.3" x1="174.80103733775053" x2="179.2010983576182" y1="140.37084112569926" y2="142.7455964860345" /><path d="M 175.68104954172406 140.8457921977663 a86.0,86.0 0 0,1 -30.038265399797805,32.042727171017184" fill="none" id="id101" stroke="none" /><text fill="#e1ed5e" style="font-size:6.75px; font-family:Arial;" text-anchor="middle"><textPath startOffset="22.206326154141568" xlink:href="#id101">May</textPath></text><path d="M 118.48025628344425 109.97397251340804 l 4.847496028636737 2.616240348992958 a26.508441822452856,26.508441822452856 0 0,0 -0.22017607631038077,0.39968353296786624 l -4.8017435428748465 -2.6992944003586294" fill="#ff3805" stroke="none" /><path d="M 118.30583269289576 110.29060199501025 l 9.055468057417002 5.090520558159106 a31.388209725065245,31.388209725065245 0 0,0 -0.2688146125430215,0.46870093541988056 l -8.966501448721601 -5.245641339437301" fill="#ff7c0b" stroke="none" /><path d="M 118.12598468904814 110.60418214915192 l 3.642346366852549 2.1308693010064808 a25.219868603889914,25.219868603889914 0 0,0 -0.22243818941991728,0.3728192000885318 l -3.6051273017344045 -2.1932505949811167" fill="#ff2603" stroke="none" /><path d="M 117.94076556474637 110.91462005526583 l 4.892306897781865 2.976331795337195 a26.72653627754327,26.72653627754327 0 0,0 -0.24249286762233185,0.39097571401716186 l -4.84034939049157 -3.06010384071963" fill="#ff3b05" stroke="none" /><line stroke="#e1ed5e" stroke-width="0.3" x1="143.8653032363475" x2="146.44561519142675" y1="172.8068346515853" y2="177.08958963109032" /><path d="M 144.38136562736335 173.6633856474863 a86.0,86.0 0 0,1 -40.68145358897372,12.25698825130547" fill="none" id="id102" stroke="none" /><text fill="#e1ed5e" style="font-size:6.75px; font-family:Arial;" text-anchor="middle"><textPath startOffset="21.466115282336833" xlink:href="#id102">June</textPath></text><line stroke="#e1ed5e" stroke-width="0.3" x1="102.19456741930631" x2="102.32365962044197" y1="184.97166512339345" y2="189.96999836594603" /><path d="M 102.22038585953345 185.97133177190398 a86.0,86.0 0 0,1 -42.740103519485714,-10.115201625700543" fill="none" id="id103" stroke="none" /><text fill="#e1ed5e" style="font-size:6.75px; font-family:Arial;" text-anchor="middle"><textPath startOffset="22.20632615414155" xlink:href="#id103">July</textPath></text><line stroke="#e1ed5e" stroke-width="0.3" x1="58.666819895761336" x2="56.23545636021788" y1="174.27360380694188" y2="178.64263932499728" /><path d="M 58.180547188652646 175.14741091055294 a86.0,86.0 0 0,1 -31.652253787137756,-30.449443065178592" fill="none" id="id104" stroke="none" /><text fill="#e1ed5e" style="font-size:6.75px; font-family:Arial;" text-anchor="middle"><textPath startOffset="22.20632615414155" xlink:href="#id104">August</textPath></text><line stroke="#e1ed5e" stroke-width="0.3" x1="26.63291911575756" x2="22.317208475507996" y1="142.92168965132927" y2="145.44649492493687" /><path d="M 25.769776987707644 143.4266507060508 a86.0,86.0 0 0,1 -11.730757126820373,-40.83630448921669" fill="none" id="id105" stroke="none" /><text fill="#e1ed5e" style="font-size:6.75px; font-family:Arial;" text-anchor="middle"><textPath startOffset="21.46611528233685" xlink:href="#id105">September</textPath></text><line stroke="#e1ed5e" stroke-width="0.3" x1="15.007084014347285" x2="10.007500721073583" y1="101.09737516637583" y2="101.16192664675087" /><path d="M 14.007167355692545 101.11028546245083 a86.0,86.0 0 0,1 10.666146001902534,-42.60595125391555" fill="none" id="id106" stroke="none" /><text fill="#e1ed5e" style="font-size:6.75px; font-family:Arial;" text-anchor="middle"><textPath startOffset="22.20632615414155" xlink:href="#id106">October</textPath></text><line stroke="#e1ed5e" stroke-width="0.3" x1="26.266209847984243" x2="21.928928074336255" y1="57.711370442889674" y2="55.22380399835377" /><path d="M 25.398753493254645 57.213857153982495 a86.0,86.0 0 0,1 29.58750427330803,-30.492523968695096" fill="none" id="id107" stroke="none" /><text fill="#e1ed5e" style="font-size:6.75px; font-family:Arial;" text-anchor="middle"><textPath startOffset="21.46611528233685" xlink:href="#id107">November</textPath></text><line stroke="#e1ed5e" stroke-width="0.3" x1="56.762969772571076" x2="54.21961505331055" y1="26.818313649435495" y2="22.513508569990535" /><path d="M 56.25429882871897 25.957352633546506 a86.0,86.0 0 0,1 42.265352541879196,-11.944610805530505" fill="none" id="id108" stroke="none" /><text fill="#e1ed5e" style="font-size:6.75px; font-family:Arial;" text-anchor="middle"><textPath startOffset="22.20632615414155" xlink:href="#id108">December</textPath></text></svg>