<?xml version="1.0" encoding="utf-8" ?>
<svg baseProfile="full" height="200mm" version="1.1" viewBox="0,0,200,200" width="200mm" xmlns="http://www.w3.org/2000/svg" xmlns:ev="http://www.w3.org/2001/xml-events" xmlns:xlink="http://www.w3.org/1999/xlink"><defs /><rect fill="#1a1a1a" height="200" width="200" x="0" y="0" /><rect fill="#1a1a1a" height="200" width="180" x="10" y="0" /><text alignment-baseline="middle" fill="#e1ed5e" style="dominant-baseline: central; font-size:9.0px; font-family:Arial;" text-anchor="middle" x="100.0" y="100.0">2023</text><line stroke="#e1ed5e" stroke-width="0.3" x1="100.0" x2="100.0" y1="15.0" y2="10.0" /><path d="M 100.0 14.0 a86.0,86.0 0 0,1 42.46469731375804,11.215312516191453" fill="none" id="id61" stroke="none" /><text fill="#e1ed5e" style="font-size:6.75px; font-family:Arial;" text-anchor="middle"><textPath startOffset="22.20632615414155" xlink:href="#id61">January</textPath></text><path d="M 100.0 79.0 l 0.0 -1.134976453257785 a22.134976453257785,22.134976453257785 0 0,0 0.38101723319094066,0.0032795356175079823 l -0.019536753918412312 1.134808294248836" fill="#ff0701" stroke="none" /><path d="M 100.36148047927253 79.00311137660856 l 0.03633310390440023 -2.110437989786016 a23.11075072028209,23.11075072028209 0 0,0 0.3976957024267129,0.010271306677071637 l -0.07265544152598098 2.1094998909665845" fill="#ff1502" stroke="none" /><path d="M 101.08401301168833 79.027996857942 l 0.04582259812629086 -0.8865130413749435 a21.887696503894713,21.887696503894713 0 0,0 0.37609102676598843,0.022686837794568395 l -0.06107567373189122 0.8855929342000709" fill="#ff0300" stroke="none" /><path d="M 101.80526077348638 79.07773832637324 l 0.06620384070348417 -0.7672764507713666 a21.770127327415537,21.770127327415537 0 0,0 0.3730724669134699,0.035427726059507836 l -0.07940143470719828 0.7660231801966806" fill="#ff0100" stroke="none" /><path d="M 102.16513564639614 79.11191278185805 l 0.19248441263514623 -1.8569881318743693 a22.8669373773723,22.8669373773723 0 0,0 0.39116977593857755,0.04395248210881489 l -0.22442089208344906 1.8533996962949535" fill="#ff1101" stroke="none" /><path d="M 102.52436894288641 79.15227682838746 l 0.4837114183831731 -3.9947733368442995 a25.023952130559756,25.023952130559756 0 0,0 0.42717706063477984,0.055459842534125 l -0.5524032075257991 3.985855171146038" fill="#ff3004" stroke="none" /><path d="M 104.66035177308747 79.52364482259891 l 0.6225781869396942 -2.7354441686349307 a23.805398082014737,23.805398082014737 0 0,0 0.3987702460800266,0.09437603349722153 l -0.6695721199822444 2.7243222229968405" fill="#ff1f03" stroke="none" /><path d="M 105.01212808612495 79.60689891045804 l 2.4786146620796816 -10.084865848847684 a31.384991566310042,31.384991566310042 0 0,0 0.5235182654463744,0.13345646248270657 l -2.651841816211081 10.04070639019611" fill="#ff870c" stroke="none" /><path d="M 105.36241919743992 79.69619591428918 l 1.0651685088357334 -4.033062676635652 a25.171352119623428,25.171352119623428 0 0,0 0.417966838819329,0.11424612583812928 l -1.1344332368787733 4.014130009971229" fill="#ff3204" stroke="none" /><path d="M 105.71112130821622 79.79150937346287 l 1.2524520944014854 -4.431733287382134 a25.605311735296702,25.605311735296702 0 0,0 0.4231092214470993,0.12351718415919467 l -1.3285515335720117 4.409517774304236" fill="#ff3805" stroke="none" /><path d="M 106.0581310904928 79.89281104454417 l 1.511440407633615 -5.016533550898811 a26.239280577819926,26.239280577819926 0 0,0 0.43134206976242834,0.13402008074079347 l -1.5975678501067616 4.989773335275497" fill="#ff4106" stroke="none" /><path d="M 106.74666289553966 80.11325718540242 l 2.9337260328973382 -8.647572289893153 a30.13166222245586,30.13166222245586 0 0,0 0.4897370744767143,0.17085964904539383 l -3.082145111437326 8.595791787675552" fill="#ff760a" stroke="none" /><path d="M 107.08798089147638 80.2323363322302 l 2.408482635783305 -6.717015102436483 a28.135760680770446,28.135760680770446 0 0,0 0.4544832047976353,0.16738999986851222 l -2.5237481663535166 6.674561834761646" fill="#ff5b08" stroke="none" /><path d="M 107.4271985657038 80.35727306442388 l 0.4768422728542791 -1.2611057149148015 a22.34824559237982,22.34824559237982 0 0,0 0.358654047493047,0.13915219840236143 l -0.4984794853469932 1.2527108126218933" fill="#ff0a01" stroke="none" /><path d="M 107.76421540070413 80.48803036053334 l 1.9874847205307622 -4.994676155221451 a26.375582332164672,26.375582332164672 0 0,0 0.42039680264643114,0.17149041133456225 l -2.073165392765581 4.95972485770331" fill="#ff4306" stroke="none" /><path d="M 108.09893153111575 80.62456947434976 l 3.3913333255249314 -8.113236046703356 a29.79350560779617,29.79350560779617 0 0,0 0.47146980123028537,0.2018587638819275 l -3.530486884545532 8.053657754858637" fill="#ff720a" stroke="none" /><path d="M 108.43124777332544 80.76684994638697 l 4.222162473473835 -9.631490686345627 a31.51628588397887,31.51628588397887 0 0,0 0.4949826020975824,0.2220842651646526 l -4.387327194038198 9.557386090664442" fill="#ff890c" stroke="none" /><path d="M 108.76106565485865 80.91482961587045 l 4.476038782321594 -9.750636072360042 a31.728924782868777,31.728924782868777 0 0,0 0.4943997867138493,0.2321273290395279 l -4.643216780335041 9.67214376068051" fill="#ff8c0c" stroke="none" /><path d="M 109.08828744355905 81.06846463323043 l 0.6149216483948566 -1.280924597365132 a22.420878762526794,22.420878762526794 0 0,0 0.34648663701502563,0.1700194880083298 l -0.636879552420314 1.27014994922197" fill="#ff0b01" stroke="none" /><path d="M 109.41281617654863 81.2277094730956 l 4.0834746633203425 -8.143808537352095 a30.11023505838505,30.11023505838505 0 0,0 0.46131677839394114,0.23630437153425968 l -4.22305192930304 8.072311640505335" fill="#ff760a" stroke="none" /><path d="M 109.73455568895987 81.39251694778311 l 3.3712898696449254 -6.44417897620875 a28.272760003092454,28.272760003092454 0 0,0 0.42928140834772716,0.22930726138271318 l -3.481716324520964 6.385192988324283" fill="#ff5d08" stroke="none" /><path d="M 110.05341064243156 81.56283822128135 l 3.9763407768052836 -7.292295201774746 a29.305953002703028,29.305953002703028 0 0,0 0.4408116476352832,0.24531120465239062 l -4.101276513512603 7.222768599562176" fill="#ff6b09" stroke="none" /><path d="M 110.36928655335952 81.73862282372117 l 2.5899586461878923 -4.5611828225229445 a26.245214440748995,26.245214440748995 0 0,0 0.3909328016292589,0.22645351167001687 l -2.6680881802824796 4.515925153462878" fill="#ff4106" stroke="none" /><line stroke="#e1ed5e" stroke-width="0.3" x1="143.23703022742887" x2="145.7803849466894" y1="26.81831364943548" y2="22.513508569990506" /><path d="M 143.74570117128098 25.957352633546492 a86.0,86.0 0 0,1 28.547481713284135,27.462654790039103" fill="none" id="id62" stroke="none" /><text fill="#e1ed5e" style="font-size:6.75px; font-family:Arial;" text-anchor="middle"><textPath startOffset="19.985693538727396" xlink:href="#id62">February</textPath></text><path d="M 111.60114157652 82.49532879139004 l 1.5843156792362216 -2.390534144657397 a23.867875462471584,23.867875462471584 0 0,0 0.3405096877640846,0.22991366118080342 l -1.625230061406848 2.3629085711779236" fill="#ff2003" stroke="none" /><path d="M 111.90073688211348 82.69761687909136 l 0.8328337428729501 -1.2108501043213553 a22.469615602258905,22.469615602258905 0 0,0 0.3167882612073434,0.22193042157983128 l -0.8535531436639444 1.1963348399775884" fill="#ff0c01" stroke="none" /><path d="M 112.19680574252982 82.90503203632743 l 0.6992365971374366 -0.9800457168396751 a22.203919194079127,22.203919194079127 0 0,0 0.3092209601719262,0.22466217811555492 l -0.7160028736631514 0.9678643039074454" fill="#ff0801" stroke="none" /><path d="M 113.34407831869373 83.78471172551755 l 4.595185920114224 -5.583919892399818 a28.231590074468713,28.231590074468713 0 0,0 0.3725796385142283,0.31202473243887263 l -4.690623095587569 5.503994002567126" fill="#ff5d08" stroke="none" /><path d="M 113.6212207817346 84.01681056812373 l 0.991504169417212 -1.163434556727913 a22.528613909972165,22.528613909972165 0 0,0 0.29298591270029367,0.25407449636256874 l -1.0113838807642699 1.146195066945673" fill="#ff0c01" stroke="none" /><path d="M 113.89432698308785 84.25364557470407 l 6.494793000727358 -7.360508546608007 a30.816283522137418,30.816283522137418 0 0,0 0.3947257938372243,0.3543887150782168 l -6.620529782160572 7.247620822760493" fill="#ff800b" stroke="none" /><path d="M 114.42810811169701 84.74124197986012 l 5.991234361787034 -6.336159575512289 a29.72019537305293,29.72019537305293 0 0,0 0.368695661799665,0.3546849345340877 l -6.099413267199117 6.232091554215899" fill="#ff710a" stroke="none" /><path d="M 114.68862486808459 84.99185889309783 l 3.7436204466097234 -3.8250540413405925 a26.35217081822417,26.35217081822417 0 0,0 0.32145155959544897,0.32007114444157686 l -3.808907806372495 3.760047046248897" fill="#ff4306" stroke="none" /><path d="M 114.94478906791727 85.2469230424477 l 5.903823266583029 -5.828088881004566 a29.295887485250518,29.295887485250518 0 0,0 0.35118199078906726,0.36192391127663365 l -6.003269521075205 5.725600774177819" fill="#ff6b09" stroke="none" /><path d="M 115.19652480421416 85.50635884689758 l 0.8423733802605304 -0.8034111514124802 a22.164071471167247,22.164071471167247 0 0,0 0.2609372736121305,0.2783496901641623 l -0.8560779758431238 0.7887920443702631" fill="#ff0701" stroke="none" /><path d="M 115.4437574822437 85.77008943001954 l 10.28895639873071 -9.48026602856855 a34.99064214921576,34.99064214921576 0 0,0 0.40431913506837097,0.446459287406238 l -10.450619174415115 9.301753953892764" fill="#ffb610" stroke="none" /><path d="M 115.68641384162765 86.03803664274999 l 10.447796137842392 -9.299241261470998 a34.98686284257335,34.98686284257335 0 0,0 0.3965313344961101,0.4533038627012059 l -10.60631933591635 9.118021842566844" fill="#ffb610" stroke="none" /><path d="M 116.15771136456269 86.58626213691792 l 5.594511141943546 -4.644426691190228 a28.2711246865372,28.2711246865372 0 0,0 0.3076187915033149,0.37710426512772793 l -5.673628425523269 4.547438256454399" fill="#ff5d08" stroke="none" /><path d="M 116.38621287248628 86.86637796730983 l 6.403945078894857 -5.132790281611282 a29.207073086582383,29.207073086582383 0 0,0 0.31104965302895266,0.3950014717599479 l -6.491348812517773 5.0217964158982955" fill="#ff6a09" stroke="none" /><path d="M 116.60985879189232 87.15038557335679 l 5.861392839602999 -4.534453840676226 a28.410613851319788,28.410613851319788 0 0,0 0.29590880010884274,0.3893812949035722 l -5.938577579935956 4.43288776989162" fill="#ff5f08" stroke="none" /><path d="M 116.82858285166822 87.43820079747576 l 4.4801160946954806 -3.3442102214793974 a26.59063343704421,26.59063343704421 0 0,0 0.27063869154484005,0.36915087111728284 l -4.537017398753948 3.2665969066906206" fill="#ff4606" stroke="none" /><path d="M 117.04232023915458 87.72973835380427 l 9.609810905795753 -6.9189460431374075 a32.841464436166575,32.841464436166575 0 0,0 0.32636186547559776,0.46161571389772577 l -9.727485391075234 6.752503828907889" fill="#ff9a0e" stroke="none" /><path d="M 117.2510076193507 88.02491185347247 l 14.162165530559637 -9.830914478521848 a38.23989013883157,38.23989013883157 0 0,0 0.37070028894197954,0.5439569320092503 l -14.32929028517035 9.58567952324219" fill="#ffdf14" stroke="none" /><path d="M 117.45458315368197 88.32363383020206 l 4.227551299426 -2.82805017679785 a26.086261671578136,26.086261671578136 0 0,0 0.24645724221784304,0.3753712883572609 l -4.275605177001768 2.754860824462915" fill="#ff3f05" stroke="none" /><path d="M 117.65298651832404 88.62581576622439 l 6.924417336325472 -4.461545269587226 a29.23728970233419,29.23728970233419 0 0,0 0.2689446443358697,0.4254058401433061 l -7.000189576907298 4.341691781729714" fill="#ff6a09" stroke="none" /><line stroke="#e1ed5e" stroke-width="0.3" x1="172.23445277983987" x2="176.4835382374775" y1="55.19839476539836" y2="52.563006222186495" /><path d="M 173.08426987136738 54.67131705675599 a86.0,86.0 0 0,1 12.851231095245387,41.99856678651699" fill="none" id="id63" stroke="none" /><text fill="#e1ed5e" style="font-size:6.75px; font-family:Arial;" text-anchor="middle"><textPath startOffset="22.20632615414155" xlink:href="#id63">March</textPath></text><path d="M 117.84615892207809 88.93136811851018 l 6.9291210248437745 -4.297613297133879 a29.153661645459295,29.153661645459295 0 0,0 0.26083392596622146,0.42874239262545216 l -7.0020707490962195 4.177703131301346" fill="#ff6909" stroke="none" /><path d="M 118.21658344932153 89.55222093294921 l 6.4328482173005765 -3.6894391933154265 a28.415760092397758,28.415760092397758 0 0,0 0.23969689367789004,0.4263940277548256 l -6.4954027522709 3.5781616556258067" fill="#ff5f08" stroke="none" /><path d="M 118.3937258080291 89.86733742301442 l 9.742578240736634 -5.366952784529079 a32.12303973598222,32.12303973598222 0 0,0 0.2626317024357891,0.4866166577706199 l -9.833518042390887 5.198455143426001" fill="#ff910d" stroke="none" /><path d="M 118.56541770881063 90.18545643968196 l 15.00290289760544 -7.931232484464448 a37.97031361164554,37.97031361164554 0 0,0 0.30049085439083434,0.580452686365121 l -15.13720318515639 7.671807075838982" fill="#ffdc14" stroke="none" /><path d="M 118.89224826269711 90.83032412892265 l 5.728341454075294 -2.780348515557111 a27.36743540857998,27.36743540857998 0 0,0 0.20205221979358642,0.42557350462568666 l -5.775351867710637 2.681332595290884" fill="#ff5107" stroke="none" /><path d="M 119.04729006885535 91.15688171328212 l 12.699948472231942 -5.896227031204035 a35.001935023447565,35.001935023447565 0 0,0 0.24900990449059732,0.5486603170313865 l -12.799560693685885 5.676744705330585" fill="#ffb610" stroke="none" /><path d="M 119.34039704204932 91.81776055985345 l 4.994009043941297 -2.1127889812677414 a26.42254586060218,26.42254586060218 0 0,0 0.17360658600085602,0.42040211835195246 l -5.02963731682835 2.0265122924624857" fill="#ff4406" stroke="none" /><path d="M 119.47837535516314 92.15188598940014 l 10.355790663307106 -4.172495103601979 a32.16477118672036,32.16477118672036 0 0,0 0.20249477226017448,0.5153271082414984 l -10.426078985448981 3.993618990464696" fill="#ff920d" stroke="none" /><path d="M 119.61058180528143 92.48833698450437 l 20.60267458132853 -7.891675535663006 a43.06238297791747,43.06238297791747 0 0,0 0.25918512459973747,0.6944872751905966 l -20.735464294429892 7.5358651234430765" fill="#e4ff1a" stroke="none" /><path d="M 119.7369772167798 92.82701384747503 l 3.9816792937369208 -1.4470569694678976 a25.23647776709131,25.23647776709131 0 0,0 0.14486569743021876,0.4095548344598423 l -4.005998071976949 1.378304508581441" fill="#ff3304" stroke="none" /><path d="M 119.85752413597 93.16781622104841 l 8.09834180137403 -2.7863171215554194 a29.564268972525024,29.564268972525024 0 0,0 0.1614247184785243,0.48263936172480293 l -8.145103813624324 2.6465046569083026" fill="#ff6f0a" stroke="none" /><path d="M 119.97218684219823 93.5106431181261 l 6.434158941055479 -2.0905849686419846 a27.76527507126473,27.76527507126473 0 0,0 0.14377720979368416,0.4558130457115814 l -6.46919163461737 1.9795217565039842" fill="#ff5608" stroke="none" /><path d="M 120.08093135843002 93.85539295169968 l 14.751197706772736 -4.513750472129183 a36.42633388426893,36.42633388426893 0 0,0 0.17830534824490596,0.6011569939450828 l -14.826708952129344 4.25916409143757" fill="#ffc912" stroke="none" /><path d="M 120.28053869075195 94.5502522615342 l 16.86136479407344 -4.530953839793764 a38.45952935840944,38.45952935840944 0 0,0 0.1662983971564458,0.6408155616293519 l -16.93685952310019 4.240041852615562" fill="#ffe215" stroke="none" /><path d="M 120.37134235888165 94.90015583598534 l 12.97007561954326 -3.246981140951559 a34.37033088993558,34.37033088993558 0 0,0 0.13873698588804273,0.5751543746417271 l -13.024045405692123 3.0232415346504258" fill="#ffae10" stroke="none" /><path d="M 120.53481517161879 95.60439243477599 l 7.1300752314485205 -1.5262378729022104 a28.29159617990442,28.29159617990442 0 0,0 0.09783598258444014,0.4770829968237323 l -7.155290509947958 1.4032792199150663" fill="#ff5d08" stroke="none" /><path d="M 120.6074358757038 95.95851677861258 l 3.59271987668434 -0.7045960103112043 a24.661159877698488,24.661159877698488 0 0,0 0.07811043794325419,0.41726908284509223 l -3.6043160385374535 0.6426488500035493" fill="#ff2b04" stroke="none" /><path d="M 120.67395015179393 96.31383870115 l 16.55677777051509 -2.95207026249102 a37.81789549785901,37.81789549785901 0 0,0 0.1087501100161164,0.6418493053058782 l -16.60513974205143 2.6666351688693037" fill="#ffda14" stroke="none" /><path d="M 120.78858239683441 97.02765380044208 l 11.009752755898598 -1.5741716360154807 a32.12172073402549,32.12172073402549 0 0,0 0.07354956428756211,0.5480296838248808 l -11.035218319243997 1.3844236101259355" fill="#ff910d" stroke="none" /><path d="M 120.83666639777658 97.38593545837742 l 25.10791696302007 -3.1499143958094167 a46.30473186822651,46.30473186822651 0 0,0 0.09241023651718286,0.7917144724988319 l -25.158417552540843 2.717256184985732" fill="#bfff1e" stroke="none" /><path d="M 120.87857604477298 97.74499172005257 l 7.357943464368855 -0.7947009125505354 a28.400735204373753,28.400735204373753 0 0,0 0.04831218543991177,0.4864971142379628 l -7.370532775490996 0.6679282676081376" fill="#ff5f08" stroke="none" /><path d="M 120.91429891909075 98.10471618934814 l 0.9059441737395914 -0.08209796237901693 a21.909656485361094,21.909656485361094 0 0,0 0.03080447224132575,0.3758925862111501 l -0.9072231298004119 0.06649145896009802" fill="#ff0300" stroke="none" /><path d="M 120.94382443527127 98.46500227214037 l 8.422198005758277 -0.6172728788086523 a29.444788040863514,29.444788040863514 0 0,0 0.03269690738634244,0.5058066852729591 l -8.431575504149036 0.47220712928265796" fill="#ff6d0a" stroke="none" /><path d="M 120.96714384426684 98.82574320788733 l 4.190709922464145 -0.23469909048070187 a25.19727689309532,25.19727689309532 0 0,0 0.020525451903921684,0.4332598490210309 l -4.194128982601563 0.16252813483667125" fill="#ff3204" stroke="none" /><line stroke="#e1ed5e" stroke-width="0.3" x1="184.98032266829074" x2="189.97916517819016" y1="98.17113171792111" y2="98.06355123074" /><path d="M 185.9800911702706 98.14961562048488 a86.0,86.0 0 0,1 -9.607161424134198,41.387399972396054" fill="none" id="id64" stroke="none" /><text fill="#e1ed5e" style="font-size:6.75px; font-family:Arial;" text-anchor="middle"><textPath startOffset="21.466115282336823" xlink:href="#id64">April</textPath></text><path d="M 120.99513854157772 99.54816195383933 l 9.822735445231006 -0.21139587065534027 a30.825009915574014,30.825009915574014 0 0,0 0.006850481041539594,0.5305773061622249 l -9.824918933390261 0.042282306432652635" fill="#ff800b" stroke="none" /><path d="M 120.99980553446 99.90962569577887 l 11.994395204830969 -0.05161881710814291 a32.994506277123364,32.994506277123364 0 0,0 -0.0024442687069919362,0.5679619662156726 l -11.993506638834473 -0.1548526273112144" fill="#ff9c0e" stroke="none" /><path d="M 120.99824983174949 100.27111621757518 l 4.7070098904418005 0.060773956296873155 a25.70740221167481,25.70740221167481 0 0,0 -0.00952145537779559,0.4424246175656668 l -4.705266372378997 -0.14178838965265478" fill="#ff3a05" stroke="none" /><path d="M 120.9764740272857 100.99374915477107 l 20.680103900177535 0.9797087796856215 a41.70329748168468,41.70329748168468 0 0,0 -0.04014170581560748,0.7167571230103673 l -20.6601758434744 -1.335537619031412" fill="#f5ff19" stroke="none" /><path d="M 120.92983693683757 101.71520430193887 l 8.362315707198835 0.6852934362767961 a29.390348686477125,29.390348686477125 0 0,0 -0.045660571021611654,0.5038605963894685 l -8.349280539900148 -0.8291354212148351" fill="#ff6c0a" stroke="none" /><path d="M 120.89721153311464 102.0752229133903 l 8.640236461079091 0.858029151531931 a29.68273575137693,29.68273575137693 0 0,0 -0.05486740414385228,0.5080040193126985 l -8.624186755434186 -1.006629492729421" fill="#ff700a" stroke="none" /><path d="M 120.8583938346157 102.4346265915055 l 4.528902322175949 0.5286210487406765 a25.559648720787862,25.559648720787862 0 0,0 -0.05476883888648489,0.4365615334665478 l -4.519131974042615 -0.6065003364946192" fill="#ff3805" stroke="none" /><path d="M 120.81339534386255 102.79330883721812 l 7.570132111907448 1.0159667165182227 a28.638002917046126,28.638002917046126 0 0,0 -0.06977574267809543,0.48801138177634296 l -7.5515223182127515 -1.146123570274975" fill="#ff6209" stroke="none" /><path d="M 120.64145759157962 103.86396538481128 l 12.314115046610064 2.305133446782127 a33.52801139800815,33.52801139800815 0 0,0 -0.11107361905486306,0.5663619905787082 l -12.272611494579538 -2.51675916442878" fill="#ffa30f" stroke="none" /><path d="M 120.49622156327973 104.57218783832717 l 8.099417936104627 1.8067749741411736 a29.298494243588785,29.298494243588785 0 0,0 -0.11404011135990014,0.49128181503144097 l -8.067117258814175 -1.9459254465211795" fill="#ff6b09" stroke="none" /><path d="M 120.41448212921028 104.9243191809786 l 18.04111216846278 4.351822110159227 a39.55855824016312,39.55855824016312 0 0,0 -0.16537113506124812,0.6605754804000928 l -17.96352971910647 -4.661725429956715" fill="#fff016" stroke="none" /><path d="M 120.13307415673323 105.97154293290107 l 5.77601899571615 1.7131882168444637 a27.024733131451427,27.024733131451427 0 0,0 -0.13611872597495547,0.4448438722629305 l -5.745673497235062 -1.8123590616594514" fill="#ff4c07" stroke="none" /><path d="M 120.02730092923936 106.31721596034902 l 0.79582005296259 0.2510256952698626 a21.834471962610547,21.834471962610547 0 0,0 -0.11614665300914724,0.35746264186426163 l -0.7913811489371958 -0.26468723711191944" fill="#ff0200" stroke="none" /><path d="M 119.79798401119884 107.00284435728193 l 18.664312298476638 6.601847642063037 a40.7974984749104,40.7974984749104 0 0,0 -0.2398810130156046,0.6600495230233244 l -18.547907024455807 -6.922144962092492" fill="#ffff18" stroke="none" /><path d="M 119.67450827220406 107.3425965602758 l 0.7626657213296621 0.28462956352444035 a21.8140472903483,21.8140472903483 0 0,0 -0.13431814761237137,0.3506622989147096 l -0.757653294123784 -0.29771542927229383" fill="#ff0200" stroke="none" /><path d="M 119.12269723197855 108.67885076344098 l 0.6504748805802848 0.29521852202328075 a21.714332937789898,21.714332937789898 0 0,0 -0.15740345959631133,0.33903304870131545 l -0.6452968041441421 -0.3063716380034268" fill="#ff0100" stroke="none" /><path d="M 118.97047184881838 109.00673069616215 l 1.0065652911799823 0.47789335858437454 a22.11425120488483,22.11425120488483 0 0,0 -0.16622202548072385,0.34246660582794103 l -0.9981900090845441 -0.495148920377591" fill="#ff0601" stroke="none" /><path d="M 118.81262510543309 109.33194174019688 l 2.020565661493269 1.002295050776938 a23.25550015766297,23.25550015766297 0 0,0 -0.18097356050242439,0.3570780038374168 l -2.0030134312045758 -1.036927266317049" fill="#ff1702" stroke="none" /><line stroke="#e1ed5e" stroke-width="0.3" x1="174.80103733775053" x2="179.2010983576182" y1="140.37084112569926" y2="142.7455964860345" /><path d="M 175.68104954172406 140.8457921977663 a86.0,86.0 0 0,1 -30.038265399797805,32.042727171017184" fill="none" id="id65" stroke="none" /><text fill="#e1ed5e" style="font-size:6.75px; font-family:Arial;" text-anchor="middle"><textPath startOffset="22.206326154141568" xlink:href="#id65">May</textPath></text><path d="M 118.48025628344425 109.97397251340804 l 8.590404974499391 4.63632439835039 a30.761688458081572,30.761688458081572 0 0,0 -0.2555030548663164,0.46381226046145674 l -8.509325510181565 -4.7835071772096525" fill="#ff7f0b" stroke="none" /><path d="M 118.30583269289576 110.29060199501025 l 8.544394497495702 4.803221166563325 a30.80191873582702,30.80191873582702 0 0,0 -0.263793504729291,0.45994621071620423 l -8.460448996614032 -4.9495872231378435" fill="#ff7f0b" stroke="none" /><path d="M 118.12598468904814 110.60418214915192 l 13.060072780443779 7.640489221459206 a36.130848508055415,36.130848508055415 0 0,0 -0.3186725771877161,0.5341135693790049 l -12.926619327557836 -7.864164884724315" fill="#ffc512" stroke="none" /><path d="M 117.55443506779139 111.5257021239791 l 3.4866976060512047 2.2892584038475303 a25.171062722572,25.171062722572 0 0,0 -0.24091930670233014,0.3601416751591984 l -3.4467751939381537 -2.3489369932125355" fill="#ff3204" stroke="none" /><path d="M 117.35343817320211 111.8261652097733 l 1.098401677252647 0.7485478999741616 a22.329214129908028,22.329214129908028 0 0,0 -0.219186854501031,0.31575501163682174 l -1.0853539155894798 -0.7673441737980029" fill="#ff0a01" stroke="none" /><path d="M 117.14729908036423 112.12312394758627 l 3.703866479791894 2.618630036682918 a25.536061085252708,25.536061085252708 0 0,0 -0.2568443868731603,0.3567343891219172 l -3.6582423005431304 -2.6819980312559664" fill="#ff3705" stroke="none" /><path d="M 116.93607887273984 112.41649034213515 l 3.6445531757693264 2.6719620077570556 a25.5190871668853,25.5190871668853 0 0,0 -0.262772146860229,0.3520262323297998 l -3.5980197622140055 -2.7343011195961706" fill="#ff3705" stroke="none" /><path d="M 116.71984013943494 112.70617746262583 l 7.032805596590765 5.344553250821356 a29.83315368429099,29.83315368429099 0 0,0 -0.3142328674214682,0.40618834015905175 l -6.939765911951229 -5.46481958509366" fill="#ff720a" stroke="none" /><path d="M 116.498646956653 112.99209946851258 l 10.11243704981558 7.963185609429431 a33.87142991810571,33.87142991810571 0 0,0 -0.3646535046463346,0.45496131508583554 l -9.973865633114391 -8.136074758093516" fill="#ffa80f" stroke="none" /><path d="M 116.27256486870786 113.27417163493432 l 7.00167417545816 5.711541203663919 a30.03577025938732,30.03577025938732 0 0,0 -0.3302561666271941,0.3978148276935995 l -6.902322008937422 -5.831217288471289" fill="#ff750a" stroke="none" /><path d="M 116.0416608686014 113.55231037782055 l 11.683121205100573 9.870130409197726 a36.29427328733341,36.29427328733341 0 0,0 -0.40728654094501493,0.4737662608261 l -11.51149215458478 -10.069773769185353" fill="#ffc712" stroke="none" /><path d="M 115.56566222782051 114.09645910891815 l 8.115210773134761 7.349236746207091 a31.94842119413585,31.94842119413585 0 0,0 -0.3726609776366277,0.40444988978759316 l -7.987503387502412 -7.487837890796019" fill="#ff8f0d" stroke="none" /><path d="M 115.32070863581623 114.36230785411682 l 3.876687103294732 3.6341774362473522 a26.313750891317834,26.313750891317834 0 0,0 -0.31262421219189207,0.3277852366280693 l -3.8135563397238754 -3.700369789457929" fill="#ff4206" stroke="none" /><path d="M 115.07121518719521 114.62390073753431 l 4.293469978705728 4.166039566704709 a26.98245519242698,26.98245519242698 0 0,0 -0.3263070216731321,0.3305472901901245 l -4.22112233197706 -4.239327350875499" fill="#ff4b07" stroke="none" /><path d="M 114.81725581225074 114.88116024355365 l 11.842991467966854 11.894068377502286 a37.784674839836356,37.784674839836356 0 0,0 -0.46484154973032626,0.45494529258841454 l -11.636499965860734 -12.096163773013274" fill="#ffda14" stroke="none" /><path d="M 114.55890576462653 115.13401014063108 l 8.755424212276381 9.10128006570806 a33.628964802048124,33.628964802048124 0 0,0 -0.4206249514300414,0.39772714566282397 l -8.597463426455532 -9.250641848116807" fill="#ffa50f" stroke="none" /><path d="M 114.29624159901734 115.38237550388516 l 6.343774198790059 6.825732215126686 a30.318481172264754,30.318481172264754 0 0,0 -0.38533410877894597,0.3519935721860306 l -6.225340540544249 -6.933918553899299" fill="#ff790b" stroke="none" /><path d="M 114.0293411484842 115.62618273729858 l 9.963712164108772 11.09779749243822 a35.91431088828368,35.91431088828368 0 0,0 -0.463564219350452,0.409041525889189 l -9.771205591851732 -11.267662160099697" fill="#ffc212" stroke="none" /><path d="M 113.75828350139079 115.86535959552629 l 4.962900113941377 5.722966454092829 a28.575138452571753,28.575138452571753 0 0,0 -0.37438129047110574,0.3190558577681182 l -4.863653346893224 -5.807546702083894" fill="#ff6109" stroke="none" /><path d="M 113.48314897796784 116.09983520530334 l 5.4010995564083615 6.449295556082894 a29.412210743196177,29.412210743196177 0 0,0 -0.39094412399832396,0.3217203987101666 l -5.289285303865347 -6.541311073650239" fill="#ff6d0a" stroke="none" /><path d="M 113.20401910651253 116.32954008644616 l 7.664310991142133 9.478528662770275 a33.18951059640623,33.18951059640623 0 0,0 -0.4473353473662316,0.3553902544713936 l -7.50001815105855 -9.609052831246794" fill="#ff9f0e" stroke="none" /><path d="M 112.92097659922987 116.55440617244103 l 6.869575651707634 8.80132741494614 a32.1648750060006,32.1648750060006 0 0,0 -0.43938945670567786,0.33690509887429626 l -6.717057466508463 -8.91827185564781" fill="#ff920d" stroke="none" /><path d="M 112.34349029814194 116.9893568818739 l 15.48163578517979 21.308643594040998 a47.33893199055011,47.33893199055011 0 0,0 -0.6633597149351953,0.4732895433134405 l -15.11254874239571 -21.57197739919866" fill="#b3ff20" stroke="none" /><path d="M 112.04921762599082 117.19931262002967 l 15.535726658419673 22.17603066618331 a48.07646836115512,48.07646836115512 0 0,0 -0.6818688149055155,0.4689955885038221 l -15.151700958891274 -22.440167044052227" fill="#abff21" stroke="none" /><path d="M 111.7513745106137 117.40417183066458 l 6.158475647053451 9.120904816664204 a32.00534992492282,32.00534992492282 0 0,0 -0.45923912895524927,0.3043586531272338 l -6.0005618193582375 -9.225561490882756" fill="#ff8f0d" stroke="none" /><path d="M 111.45004920935366 117.60387380957326 l 4.655690828628333 7.157890096804842 a29.538784909441787,29.538784909441787 0 0,0 -0.42861930034897266,0.27356511690302104 l -4.53178972623243 -7.236969642531672" fill="#ff6e0a" stroke="none" /><path d="M 111.1453310114006 117.79835938074945 l 8.839674666040471 14.116378091791042 a37.6556890770642,37.6556890770642 0 0,0 -0.5523207369817876,0.3392805077573911 l -8.595374729126375 -14.266447066376811" fill="#ffd814" stroke="none" /><line stroke="#e1ed5e" stroke-width="0.3" x1="143.8653032363475" x2="146.44561519142675" y1="172.8068346515853" y2="177.08958963109032" /><path d="M 144.38136562736335 173.6633856474863 a86.0,86.0 0 0,1 -40.68145358897372,12.25698825130547" fill="none" id="id66" stroke="none" /><text fill="#e1ed5e" style="font-size:6.75px; font-family:Arial;" text-anchor="middle"><textPath startOffset="21.466115282336833" xlink:href="#id66">June</textPath></text><path d="M 110.8373102113329 117.98757091392108 l 5.483621572959654 9.101615620965747 a31.625888784814013,31.625888784814013 0 0,0 -0.4687139379579657,0.2769244562966998 l -5.326139763973306 -9.194658649556196" fill="#ff8a0c" stroke="none" /><path d="M 110.21172684928248 118.3499491758327 l 5.387357322675921 9.680804678995045 a32.078880726636704,32.078880726636704 0 0,0 -0.4848145220676646,0.2643595328965623 l -5.2199199887396075 -9.772104863651379" fill="#ff900d" stroke="none" /><path d="M 109.89434966115114 118.52300852407294 l 17.174691679899038 32.152387097676346 a57.45196881347313,57.45196881347313 0 0,0 -0.8763042037485476,0.458440942706843 l -16.618696573623993 -32.4432574593279" fill="#48ff2c" stroke="none" /><path d="M 109.57404056367764 118.69057910512821 l 3.7937812302289777 7.406274051120978 a29.321398400698385,29.321398400698385 0 0,0 -0.4511950149744114,0.22623854716303313 l -3.665732307571806 -7.470480439193313" fill="#ff6b09" stroke="none" /><path d="M 109.2508944713604 118.85261126421891 l 7.087862216819569 14.444517930858414 a37.08980699261208,37.08980699261208 0 0,0 -0.5755761069146983,0.27631150902147017 l -6.838173441904638 -14.564383716379444" fill="#ffd113" stroke="none" /><path d="M 108.92500713936063 119.00905698771935 l 2.8853868770491307 6.145483440069689 a27.78914016223101,27.78914016223101 0 0,0 -0.434743900637993,0.19956960194109974 l -2.779174980643718 -6.194240112344863" fill="#ff5708" stroke="none" /><path d="M 108.59647513512805 119.15986991738527 l 3.6753746528474367 8.191694751544583 a29.97843203133356,29.97843203133356 0 0,0 -0.47263043103582375,0.20718729163806804 l -3.533823547153859 -8.253746596477106" fill="#ff740a" stroke="none" /><path d="M 108.2653958097858 119.30500536409082 l 5.030115877042565 11.748549763743453 a33.78008166200952,33.78008166200952 0 0,0 -0.5365057778469816,0.22425945865194524 l -4.827138639698122 -11.833394265415372" fill="#ffa70f" stroke="none" /><path d="M 107.93186726928326 119.44442032107085 l 8.503930528040158 20.846793567605985 a43.51456498527368,43.51456498527368 0 0,0 -0.6959821554171431,0.2769456630751909 l -8.143827296581147 -20.990086075087245" fill="#dfff1b" stroke="none" /><path d="M 107.59598834532513 119.57807347666477 l 12.652410976767216 32.61061240471214 a55.97907295706084,55.97907295706084 0 0,0 -0.9013424562388311,0.3408105921413717 l -12.08919829976811 -32.82357124696015" fill="#57ff2a" stroke="none" /><path d="M 107.2578585660854 119.70592522655815 l 2.9508313797645775 8.011848398030347 a29.537981060228745,29.537981060228745 0 0,0 -0.4786284368231052,0.17161912866064738 l -2.8124833823117377 -8.061455067730954" fill="#ff6e0a" stroke="none" /><path d="M 106.91757812671514 119.82793768551818 l 2.582116573402851 7.401151902636658 a28.83864627882544,28.83864627882544 0 0,0 -0.4701114991599599,0.1594873447963974 l -2.4543353413056646 -7.444502234331179" fill="#ff6509" stroke="none" /><path d="M 106.57524785965236 119.94407469862006 l 6.9937902368031235 21.213599530627544 a43.33673895004022,43.33673895004022 0 0,0 -0.7104721044697572,0.22747073188163572 l -6.6275967872424255 -21.33084310916889" fill="#e1ff1b" stroke="none" /><path d="M 106.2309692047433 120.05430185196036 l 3.9152902508326215 12.601316095169123 a34.19555474690751,34.19555474690751 0 0,0 -0.563616060038254,0.16981289547648587 l -3.6977992163541216 -12.666844359751334" fill="#ffac0f" stroke="none" /><path d="M 105.53697534728816 120.25689768951611 l 5.427572686246524 19.8566505558953 a41.58507023460028,41.58507023460028 0 0,0 -0.6921133087308534,0.1827934153557926 l -5.084968934704173 -19.947135320554676" fill="#f6ff19" stroke="none" /><path d="M 104.83641907484287 120.43548508189849 l 2.559707321423935 10.815617913070259 a32.11439122997196,32.11439122997196 0 0,0 -0.5390321820514141,0.12268196969678645 l -2.3731549899796587 -10.858076616344729" fill="#ff910d" stroke="none" /><path d="M 104.48393922423573 120.51570834832081 l 3.3625493814656253 15.38492806595379 a36.748103058380316,36.748103058380316 0 0,0 -0.6191329827775306,0.1297453362582667 l -3.0972249372587166 -15.440529382938598" fill="#ffcd13" stroke="none" /><path d="M 104.13013068566511 120.58985236759428 l 1.8809648909140186 9.37713412967002 a30.56392562741229,30.56392562741229 0 0,0 -0.5167230201692001,0.09903119662658029 l -1.7192742561731142 -9.40812252464507" fill="#ff7c0b" stroke="none" /><path d="M 103.41894727170886 120.7198165907248 l 4.7926812018816065 29.045044450529787 a50.43780562875094,50.43780562875094 0 0,0 -0.8578369185178238,0.1339764843652097 l -4.292008419755266 -29.1232392422421" fill="#91ff24" stroke="none" /><path d="M 103.06178313531738 120.77559828337769 l 0.7133616317269093 4.840484788285577 a25.892767908172647,25.892767908172647 0 0,0 -0.44149808966437165,0.06118761228772684 l -0.6299349508757072 -4.852046966065906" fill="#ff3c05" stroke="none" /><path d="M 102.70371172650421 120.8252237178851 l 2.338668016480346 18.013490183747216 a39.164668912239094,39.164668912239094 0 0,0 -0.6692916979940351,0.08104190382038264 l -2.0282488954349307 -18.05107761629295" fill="#ffeb16" stroke="none" /><path d="M 102.34483914955558 120.86867818915974 l 0.9737769495584013 8.666452789398107 a29.72098879132163,29.72098879132163 0 0,0 -0.5088904174290241,0.052748572493899186 l -0.8244539355237746 -8.681930730347766" fill="#ff710a" stroke="none" /><path d="M 101.98527174616119 120.90594882070398 l 1.1119312472791991 11.709217034247292 a32.761894177970774,32.761894177970774 0 0,0 -0.5618753499879275,0.04848096944513075 l -0.91021157954973 -11.726622255971085" fill="#ff990e" stroke="none" /><path d="M 101.62511606390274 120.93702456842531 l 0.7024685968676522 9.050185766944448 a30.077407369165993,30.077407369165993 0 0,0 -0.5165253884068324,0.03562261494901155 l -0.5465804476818895 -9.060936726409745" fill="#ff760a" stroke="none" /><path d="M 101.26447882468166 120.96189622390904 l 0.3289341238101501 5.452905049277257 a26.46281714266917,26.46281714266917 0 0,0 -0.4549234634236134,0.02351434673803443 l -0.23502259197305705 -5.457759202777494" fill="#ff4406" stroke="none" /><path d="M 100.90346689309514 120.98055641714683 l 0.30585617292903905 7.102676081119616 a28.10925843613998,28.10925843613998 0 0,0 -0.48358585726166503,0.016655674705424457 l -0.18354996399272172 -7.1068885542511335" fill="#ff5b08" stroke="none" /><line stroke="#e1ed5e" stroke-width="0.3" x1="102.19456741930631" x2="102.32365962044197" y1="184.97166512339345" y2="189.96999836594603" /><path d="M 102.22038585953345 185.97133177190398 a86.0,86.0 0 0,1 -42.740103519485714,-10.115201625700543" fill="none" id="id67" stroke="none" /><text fill="#e1ed5e" style="font-size:6.75px; font-family:Arial;" text-anchor="middle"><textPath startOffset="22.20632615414155" xlink:href="#id67">July</textPath></text><path d="M 100.54218724476979 120.99299961872073 l 0.28975097129781374 11.218895480585523 a32.222636563199856,32.222636563199856 0 0,0 -0.5545980834228006,0.009547908959042466 l -0.09659319798234518 -11.222220866823724" fill="#ff920d" stroke="none" /><path d="M 100.18074693466247 120.99922214144158 l 0.15626587700743924 18.1550070021071 a39.15567950452075,39.15567950452075 0 0,0 -0.6740256233397769,0.0 l 0.15626587700742672 -18.1550070021071" fill="#ffeb16" stroke="none" /><path d="M 99.81925306533755 120.99922214144158 l -0.05954174192920623 6.917573832136226 a27.917830074675717,27.917830074675717 0 0,0 -0.48050615046259965,-0.00827234914077283 l 0.1786075822844738 -6.915524005716294" fill="#ff5808" stroke="none" /><path d="M 99.45781275523022 120.99299961872073 l -0.37983117142592754 14.70671933698574 a35.711623478585125,35.711623478585125 0 0,0 -0.6143753700700378,-0.021160329975022693 l 0.6329268931706085 -14.698002208584624" fill="#ffbf11" stroke="none" /><path d="M 99.09653310690486 120.98055641714683 l -0.4633660460421211 10.76041363006897 a31.77038576759434,31.77038576759434 0 0,0 -0.5461661111051349,-0.028230549412509576 l 0.648520225560745 -10.750843273894256" fill="#ff8c0c" stroke="none" /><path d="M 98.73552117531835 120.96189622390904 l -0.0620113415470715 1.0279929413150548 a22.029861589668265,22.029861589668265 0 0,0 -0.3783232601962026,-0.026091387038673884 l 0.07969736252220413 -1.026773209760096" fill="#ff0500" stroke="none" /><path d="M 98.37488393609728 120.93702456842531 l -0.48838132784422295 6.292013282595164 a27.31093871541634,27.31093871541634 0 0,0 -0.46838998886522454,-0.04041465912157917 l 0.5966156344509892 -6.282674371194922" fill="#ff5007" stroke="none" /><path d="M 98.01472825383883 120.90594882070398 l -0.743179180654559 7.826065094322634 a28.86127280757598,28.86127280757598 0 0,0 -0.4941701391465568,-0.051222755462330294 l 0.8777819164067091 -7.8121129704045424" fill="#ff6509" stroke="none" /><path d="M 97.65516085044442 120.86867818915974 l -2.487659956863708 22.139759605125583 a43.279080040112376,43.279080040112376 0 0,0 -0.7396035705695385,-0.08955569239982868 l 2.868390950484636 -22.093658384000406" fill="#e2ff1b" stroke="none" /><path d="M 97.2962882734958 120.8252237178851 l -0.10539334355041276 0.8117877125351377 a21.81860066399177,21.81860066399177 0 0,0 -0.37202938467083224,-0.05155988277590146 l 0.11935131940807603 -0.8098532642666313" fill="#ff0200" stroke="none" /><path d="M 96.93821686468263 120.77559828337769 l -0.13118429174783594 0.8901453910973873 a21.89976004339674,21.89976004339674 0 0,0 -0.37246708967049996,-0.05817169923394717 l 0.14648724502685306 -0.8877553845163344" fill="#ff0300" stroke="none" /><path d="M 96.58105272829116 120.7198165907248 l -0.769490848481606 4.663338736081518 a25.726398664240598,25.726398664240598 0 0,0 -0.43630873069473186,-0.07585786546786027 l 0.8496485506483878 -4.649402292092652" fill="#ff3a05" stroke="none" /><path d="M 96.22490169976321 120.6578951692458 l -0.1253841365485408 0.6861205040789765 a21.697482994642602,21.697482994642602 0 0,0 -0.36682424501800215,-0.07030273960675963 l 0.13717599613823797 -0.6838605661237487" fill="#ff0000" stroke="none" /><path d="M 95.86986931433489 120.58985236759428 l -0.8831200647811438 4.402599612601816 a25.490298920751346,25.490298920751346 0 0,0 -0.42946120994662446,-0.0899977721174483 l 0.958772736157155 -4.386745859757826" fill="#ff3705" stroke="none" /><path d="M 95.51606077576429 120.51570834832081 l -2.965044812576206 13.566195162889045 a34.886437337855206,34.886437337855206 0 0,0 -0.5855602962410696,-0.13327161700381404 l 3.1981252582101383 -13.513146812307543" fill="#ffb510" stroke="none" /><path d="M 95.16358092515715 120.4354850818985 l -9.391244017954204 39.68114095563721 a61.77730265412254,61.77730265412254 0 0,0 -1.0327009130549647,-0.2538127589405253 l 10.07289821575238 -39.51360693838266" fill="#32ff45" stroke="none" /><path d="M 94.81253420990036 120.34920634021253 l -2.0763928512082255 8.145200042228483 a29.40569396305073,29.40569396305073 0 0,0 -0.48940814646889164,-0.12925713964385846 l 2.2162914404886065 -8.108251553281042" fill="#ff6d0a" stroke="none" /><path d="M 94.46302465271185 120.25689768951611 l -1.3923606545822116 5.093919614540723 a26.280784528063165,26.280784528063165 0 0,0 -0.435345991193889,-0.12303312566496229 l 1.4798378138807144 -5.069197695537239" fill="#ff4206" stroke="none" /><path d="M 93.76903079525671 120.05430185196036 l -2.196985253661814 7.0709714642306425 a28.40441636138673,28.40441636138673 0 0,0 -0.4656682980178623,-0.14909228370514832 l 2.3183748967706164 -7.032106333865787" fill="#ff5f08" stroke="none" /><path d="M 93.08242187328487 119.8279376855182 l -5.272851411194189 15.11363764760275 a37.00702986026976,37.00702986026976 0 0,0 -0.599655637173401,-0.21501517676472479 l 5.532226608997316 -15.020634929798067" fill="#ffd013" stroke="none" /><path d="M 92.7421414339146 119.70592522655815 l -8.297811829524266 22.52951858565204 a45.00901682408993,45.00901682408993 0 0,0 -0.7247089963107733,-0.27402293152094687 l 8.684391046595321 -22.38334740402446" fill="#ceff1d" stroke="none" /><path d="M 92.40401165467489 119.57807347666478 l -0.2564096087966388 0.6608759693836268 a21.708874413695398,21.708874413695398 0 0,0 -0.34721682754354516,-0.13816474141822815 l 0.26774751238204214 -0.6563643835593321" fill="#ff0100" stroke="none" /><path d="M 92.06813273071674 119.44442032107085 l -2.495107831137534 6.116583115670024 a27.605917960427867,27.605917960427867 0 0,0 -0.4384457869797285,-0.18327037451653336 l 2.600025077614725 -6.072727698133518" fill="#ff5407" stroke="none" /><path d="M 91.40352486487194 119.15986991738527 l -2.6815862475650833 5.976733820312616 a27.550744382281973,27.550744382281973 0 0,0 -0.4310143461909812,-0.1978575464175708 l 2.7840685895234842 -5.929689203560971" fill="#ff5307" stroke="none" /><path d="M 91.07499286063937 119.00905698771935 l -9.4807435754628 20.192700364028727 a43.3076140977722,43.3076140977722 0 0,0 -0.672066800647528,-0.3226329057430345 l 9.82692304411057 -20.026513181786132" fill="#e2ff1b" stroke="none" /><path d="M 90.7491055286396 118.85261126421891 l -1.0619018922103771 2.1640743645448532 a23.410571194542943,23.410571194542943 0 0,0 -0.3602397428776706,-0.18063168553325198 l 1.0989955427708082 -2.145474838102299" fill="#ff1902" stroke="none" /><path d="M 90.42595943632237 118.69057910512821 l -13.05741178718535 25.490866295523123 a49.64053538389888,49.64053538389888 0 0,0 -0.7571578612818195,-0.3961092075321563 l 13.494260550993664 -25.26232766904625" fill="#9aff23" stroke="none" /><path d="M 90.10565033884886 118.52300852407294 l -3.7186570405408776 6.961621371689903 a28.892565001818728,28.892565001818728 0 0,0 -0.4366590970561788,-0.23810135562873092 l 3.837938949465697 -6.896579364301407" fill="#ff6609" stroke="none" /><line stroke="#e1ed5e" stroke-width="0.3" x1="58.666819895761336" x2="56.23545636021788" y1="174.27360380694188" y2="178.64263932499728" /><path d="M 58.180547188652646 175.14741091055294 a86.0,86.0 0 0,1 -31.652253787137756,-30.449443065178592" fill="none" id="id68" stroke="none" /><text fill="#e1ed5e" style="font-size:6.75px; font-family:Arial;" text-anchor="middle"><textPath startOffset="22.20632615414155" xlink:href="#id68">August</textPath></text><path d="M 89.7882731507175 118.34994917583269 l -7.239769549511818 13.009494401783517 a35.8882909603512,35.8882909603512 0 0,0 -0.5372156436417567,-0.3050450629268464 l 7.462633960074783 -12.882946173062036" fill="#ffc212" stroke="none" /><path d="M 89.1626897886671 117.98757091392108 l -4.597766512040403 7.631289459121843 a29.909322965755834,29.909322965755834 0 0,0 -0.4386996947330993,-0.2694851835464696 l 4.728445406705811 -7.551015808746996" fill="#ff730a" stroke="none" /><path d="M 88.8546689885994 117.79835938074946 l -7.615794513456391 12.161922116246135 a35.34965768347208,35.34965768347208 0 0,0 -0.5129373327412257,-0.3273808745453841 l 7.824013648244541 -12.029026812876946" fill="#ffbb11" stroke="none" /><path d="M 88.54995079064634 117.60387380957326 l -6.113030931565713 9.398477084743933 a32.211624266034605,32.211624266034605 0 0,0 -0.4621989231446683,-0.3063202433233342 l 6.273904553450343 -9.291858820329281" fill="#ff920d" stroke="none" /><path d="M 88.24862548938628 117.40417183066458 l -17.757681508010347 26.299709876533118 a52.73342074422085,52.73342074422085 0 0,0 -0.7479183961405068,-0.5144250927494802 l 18.207756788773743 -25.99014399441854" fill="#78ff26" stroke="none" /><path d="M 87.95078237400918 117.19931262002967 l -3.048941074321557 4.352124123328168 a26.313852280553164,26.313852280553164 0 0,0 -0.3687356011994305,-0.2630830609183673 l 3.1234040033698744 -4.298996800565581" fill="#ff4206" stroke="none" /><path d="M 87.65650970185807 116.9893568818739 l -9.720540541318853 13.379176258278349 a37.53757133818332,37.53757133818332 0 0,0 -0.5194753526124476,-0.3842954469609855 l 9.949400864349865 -13.209870862577596" fill="#ffd714" stroke="none" /><path d="M 87.36589467227662 116.77436683061367 l -7.78551622259173 10.336870058924905 a33.940832487415065,33.940832487415065 0 0,0 -0.4636499891263968,-0.355507040612329 l 7.962294940211613 -10.20132367648521" fill="#ffa90f" stroke="none" /><path d="M 87.07902340077011 116.55440617244103 l -1.1179745904748024 1.432353454017662 a22.817004018207893,22.817004018207893 0 0,0 -0.3075324774281751,-0.24432239941445788 l 1.1424645606203356 -1.4128971405980733" fill="#ff1101" stroke="none" /><path d="M 86.79598089348748 116.32954008644616 l -8.633130203978103 10.676676896645617 a34.73034473981645,34.73034473981645 0 0,0 -0.46163222203921955,-0.3798918909766037 l 8.815632554562011 -10.526489886811833" fill="#ffb310" stroke="none" /><path d="M 86.51685102203217 116.09983520530335 l -6.267778489459764 7.484171609209378 a30.762062890036624,30.762062890036624 0 0,0 -0.4030335958455638,-0.3434739740067263 l 6.395677561882384 -7.375173244979701" fill="#ff7f0b" stroke="none" /><path d="M 86.24171649860922 115.8653595955263 l -14.603047346334977 16.83949871484189 a43.289407994975164,43.289407994975164 0 0,0 -0.558758336913558,-0.49303926660836767 l 14.890748036155124 -16.585636306461236" fill="#e2ff1b" stroke="none" /><path d="M 85.70375840098266 115.38237550388516 l -4.265003384287924 4.589030139709401 a27.264938267145872,27.264938267145872 0 0,0 -0.3410248695393217,-0.3224602998485456 l 4.343364088218063 -4.514935203114924" fill="#ff4f07" stroke="none" /><path d="M 85.44109423537348 115.13401014063109 l -5.694899224617176 5.919858539412658 a29.214414300800897,29.214414300800897 0 0,0 -0.3594069202821519,-0.35175531662547216 l 5.7959560972751225 -5.820953119864616" fill="#ff6a09" stroke="none" /><path d="M 85.18274418774928 114.88116024355367 l -9.689515329780589 9.731304644522575 a34.73262529200297,34.73262529200297 0 0,0 -0.4200321813970215,-0.4254903821607313 l 9.855588136233143 -9.56307376838118" fill="#ffb310" stroke="none" /><path d="M 84.9287848128048 114.62390073753433 l -9.79020603668618 9.499632212945178 a34.641522877669935,34.641522877669935 0 0,0 -0.41156347658260056,-0.4315226597877603 l 9.952276064647739 -9.329702436574918" fill="#ffb210" stroke="none" /><path d="M 84.67929136418377 114.36230785411682 l -19.50159577321246 18.28165581627476 a47.7307159852951,47.7307159852951 0 0,0 -0.5567528728349387,-0.6042452834344822 l 19.81339505404313 -17.943259278038934" fill="#afff20" stroke="none" /><path d="M 84.43433777217949 114.09645910891817 l -26.919364787742005 24.378514669953084 a57.31754642164916,57.31754642164916 0 0,0 -0.6559888115387585,-0.7370103838534464 l 27.335012448929103 -23.911530116358776" fill="#4aff2c" stroke="none" /><path d="M 83.95833913139862 113.55231037782056 l -5.108023441282455 4.315358594130312 a27.68686946729375,27.68686946729375 0 0,0 -0.3044289957344591,-0.3667043365756416 l 5.181548436910451 -4.226793000440909" fill="#ff5507" stroke="none" /><path d="M 83.72743513129214 113.27417163493432 l -0.5848946464543806 0.47712158396859966 a21.75481570819618,21.75481570819618 0 0,0 -0.2342082932462239,-0.2922108569960288 l 0.5930208517554654 -0.46698289339431126" fill="#ff0100" stroke="none" /><path d="M 83.50135304334701 112.99209946851258 l -8.33965819147337 6.567185117766665 a31.614980881830398,31.614980881830398 0 0,0 -0.3330008688019992,-0.43044851189543404 l 8.451465877493439 -6.422658611757978" fill="#ff8a0c" stroke="none" /><path d="M 83.28015986056508 112.70617746262583 l -10.32487967593241 7.846352139051596 a33.96797525493019,33.96797525493019 0 0,0 -0.3497710448599428,-0.4685754733571336 l 10.458411987487438 -7.667463786185154" fill="#ffa90f" stroke="none" /><path d="M 82.85270091963577 112.12312394758628 l -20.41563127261751 14.433831662129235 a46.0026697916475,46.0026697916475 0 0,0 -0.4515689818557202,-0.6505187979692993 l 20.661061161635363 -14.080271601972923" fill="#c2ff1e" stroke="none" /><path d="M 82.6465618267979 111.8261652097733 l -6.855948165611822 4.6722485116162185 a29.2966216861959,29.2966216861959 0 0,0 -0.2804061895658108,-0.4191692073894803 l 6.935357460588363 -4.553542390020917" fill="#ff6b09" stroke="none" /><path d="M 82.44556493220864 111.52570212397912 l -6.0549407179584 3.9754878367795383 a28.243397727473802,28.243397727473802 0 0,0 -0.2633295198451034,-0.40869326258128297 l 6.122475101180549 -3.870672974276807" fill="#ff5d08" stroke="none" /><path d="M 82.24976979558568 111.22182372390057 l -3.7521367655592113 2.3721279603799483 a25.439090150906768,25.439090150906768 0 0,0 -0.2308117242105893,-0.37214199148039684 l 3.7924131294377568 -2.3071896375342873" fill="#ff3605" stroke="none" /><path d="M 82.05923443525364 110.91462005526583 l -13.046454657708074 7.937069081207291 a36.27111799232425,36.27111799232425 0 0,0 -0.3199097481897335,-0.5361871391403306 l 13.181145281596038 -7.711319848180849" fill="#ffc712" stroke="none" /><line stroke="#e1ed5e" stroke-width="0.3" x1="26.63291911575756" x2="22.317208475507996" y1="142.92168965132927" y2="145.44649492493687" /><path d="M 25.769776987707644 143.4266507060508 a86.0,86.0 0 0,1 -11.730757126820373,-40.83630448921669" fill="none" id="id69" stroke="none" /><text fill="#e1ed5e" style="font-size:6.75px; font-family:Arial;" text-anchor="middle"><textPath startOffset="21.46611528233685" xlink:href="#id69">September</textPath></text><path d="M 81.69416730710424 110.29060199501025 l -1.272728814063059 0.7154629834559324 a22.460043120884457,22.460043120884457 0 0,0 -0.18655054119135395,-0.33864341952991417 l 1.2848557647059295 -0.6934490455281956" fill="#ff0b01" stroke="none" /><path d="M 81.51974371655577 109.97397251340807 l -18.154286127757995 9.798043277192955 a41.62958450551665,41.62958450551665 0 0,0 -0.334914946945104,-0.6335328636269701 l 18.320253582927986 -9.484095398479859" fill="#f5ff19" stroke="none" /><path d="M 81.35079622478065 109.6543875284942 l -7.032908616593937 3.6408216702155287 a28.919430916655074,28.919430916655074 0 0,0 -0.22505008902018744,-0.44404517614431377 l 7.094537375400391 -3.51922228236853" fill="#ff6609" stroke="none" /><path d="M 81.18737489456691 109.33194174019688 l -7.144921486605118 3.5442151575126974 a28.975673271423187,28.975673271423187 0 0,0 -0.2177959839661944,-0.44872423600992034 l 7.204870727186031 -3.4207019655374924" fill="#ff6709" stroke="none" /><path d="M 81.02952815118164 109.00673069616217 l -5.3551346842536836 2.5424911054995523 a26.928045926613688,26.928045926613688 0 0,0 -0.19519676709207204,-0.4204364707967024 l 5.398106068185583 -2.4499345674240227" fill="#ff4b06" stroke="none" /><path d="M 80.87730276802145 108.67885076344099 l -7.209603991772896 3.272084285446352 a28.91738121409173,28.91738121409173 0 0,0 -0.20181428681663566,-0.4550379393557847 l 7.264859363320812 -3.147498009597871" fill="#ff6609" stroke="none" /><path d="M 80.73074385275274 108.34839909993369 l -12.287454084939727 5.3235355760134855 a34.39109998911901,34.39109998911901 0 0,0 -0.23066441377069943,-0.5452225369876194 l 12.377269479902733 -5.111238513359708" fill="#ffaf10" stroke="none" /><path d="M 80.58989483394504 108.01547362559985 l -5.329966927406285 2.201029255970162 a26.766548121093013,26.766548121093013 0 0,0 -0.17219479411969024,-0.4273733574127837 l 5.367064335783363 -2.1089565307145732" fill="#ff4806" stroke="none" /><path d="M 80.45479744820244 107.68017299344265 l -23.71496503491948 9.318656765973218 a46.480128149785116,46.480128149785116 0 0,0 -0.2861974502378087,-0.7471712320924855 l 23.871856764750795 -8.909061967047574" fill="#bdff1f" stroke="none" /><path d="M 80.32549172779594 107.34259656027581 l -8.666162981820982 3.2342428903804996 a30.25001123790999,30.25001123790999 0 0,0 -0.17786392820005728,-0.48940514088903014 l 8.720551171026264 -3.0845899524853526" fill="#ff780b" stroke="none" /><path d="M 80.20201598880116 107.00284435728193 l -7.118905820235639 2.518063931411362 a28.55112349521975,28.55112349521975 0 0,0 -0.15989875761476482,-0.46474063657783965 l 7.161195408793633 -2.3951505917442257" fill="#ff6108" stroke="none" /><path d="M 80.0844068197444 106.66101706037122 l -7.633851088597277 2.553236144022665 a29.049515342554578,29.049515342554578 0 0,0 -0.15452647466598576,-0.4755835871372353 l 7.676669814279512 -2.4214536569076266" fill="#ff6809" stroke="none" /><path d="M 79.86692584326677 105.97154293290107 l -12.235281934216939 3.6290290691593317 a33.76213054292185,33.76213054292185 0 0,0 -0.16046234393315037,-0.5585904699131502 l 12.295936915036192 -3.4178811237415854" fill="#ffa60f" stroke="none" /><path d="M 79.76711848015287 105.62410040840567 l -8.193057577107568 2.2774105813994816 a29.50369281065997,29.50369281065997 0 0,0 -0.13179991321854087,-0.49047650785738395 l 8.231045566667884 -2.1360431403665587" fill="#ff6e0a" stroke="none" /><path d="M 79.67330655649465 105.27499134158121 l -9.887162892029373 2.5658230539666116 a31.214667786951722,31.214667786951722 0 0,0 -0.13049022189204124,-0.5212435712068092 l 9.929864428216472 -2.3952516433624105" fill="#ff850c" stroke="none" /><path d="M 79.58551787078972 104.9243191809786 l -7.7110940999036455 1.860046624849423 a28.93225980816202,28.93225980816202 0 0,0 -0.11261459728901467,-0.48514073772323685 l 7.741969263123216 -1.727037229777612" fill="#ff6609" stroke="none" /><path d="M 79.50377843672027 104.57218783832718 l -6.993059554111978 1.5599744444259491 a28.16494258139023,28.16494258139023 0 0,0 -0.10148225974722966,-0.4740913323551754 l 7.0188758525836485 -1.43936929265461" fill="#ff5c08" stroke="none" /><path d="M 79.4281124754447 104.21870165774334 l -5.670977691718 1.162954199536603 a26.7889939065595,26.7889939065595 0 0,0 -0.08874819531399084,-0.45252513590534216 l 5.690155820007657 -1.065165336563306" fill="#ff4906" stroke="none" /><path d="M 79.35854240842038 103.8639653848113 l -11.787436346471528 2.2065421405614507 a32.992184281447294,32.992184281447294 0 0,0 -0.09968911750756798,-0.5591095122914997 l 11.823671906318285 -2.0033138775367374" fill="#ff9c0e" stroke="none" /><path d="M 79.18660465613746 102.79330883721812 l -20.950069804357 2.8116515425775237 a42.137899829555195,42.137899829555195 0 0,0 -0.09029247123035616,-0.7197198352608133 l 20.995363784834204 -2.450613953029302" fill="#efff19" stroke="none" /><path d="M 79.1416061653843 102.43462659150553 l -9.478583707522313 1.1063561330330063 a30.542933144144268,30.542933144144268 0 0,0 -0.05645744619347246,-0.5227258339253641 l 9.496223455216839 -0.94303397722286" fill="#ff7c0b" stroke="none" /><path d="M 79.10278846688536 102.07522291339032 l -10.463464817747841 1.0390870527790144 a31.51493213936732,31.51493213936732 0 0,0 -0.048961304016544416,-0.5402839099429138 l 10.47980071804146 -0.8588217542875346" fill="#ff890c" stroke="none" /><path d="M 79.07016306316243 101.71520430193888 l -3.372057149921853 0.2763407544637866 a24.383361292400902,24.383361292400902 0 0,0 -0.030680586508384358,-0.418612227067409 l 3.3763142950945726 -0.2182553908996169" fill="#ff2703" stroke="none" /><path d="M 79.04373962182676 101.35467743843564 l -24.93224285920203 1.6116972342134692 a45.9842810976222,45.9842810976222 0 0,0 -0.04426238679983081,-0.7903346501006457 l 24.956291596889393 -1.1822908677773858" fill="#c3ff1e" stroke="none" /><path d="M 79.0095281055655 100.63252640178507 l -26.33784426249162 0.7936639988806853 a47.349799675488654,47.349799675488654 0 0,0 -0.017537322559685955,-0.8148904677628025 l 26.34760364773631 -0.3401837153277539" fill="#b3ff20" stroke="none" /><line stroke="#e1ed5e" stroke-width="0.3" x1="15.007084014347285" x2="10.007500721073583" y1="101.09737516637583" y2="101.16192664675087" /><path d="M 14.007167355692545 101.11028546245083 a86.0,86.0 0 0,1 10.666146001902534,-42.60595125391555" fill="none" id="id70" stroke="none" /><text fill="#e1ed5e" style="font-size:6.75px; font-family:Arial;" text-anchor="middle"><textPath startOffset="22.20632615414155" xlink:href="#id70">October</textPath></text><path d="M 79.00175016825051 100.2711162175752 l -8.200222132496906 0.10587611946961045 a29.20090560700256,29.20090560700256 0 0,0 -0.0021632346667514544,-0.5026595526095513 l 8.20082966445316 0.0352929113436162" fill="#ff6a09" stroke="none" /><path d="M 79.00486145842228 99.54816195383935 l -17.80693698335248 -0.38322450688906745 a38.8110602085268,38.8110602085268 0 0,0 0.020123175335752173,-0.6677902220679358 l 17.79770211356108 0.6896848763819977" fill="#ffe615" stroke="none" /><path d="M 79.01574976396665 99.18683210126434 l -7.32850052112372 -0.28398924443877605 a28.334000939396418,28.334000939396418 0 0,0 0.023080596208653714,-0.4871949068642511 l 7.322526316681567 0.41009525792603624" fill="#ff5e08" stroke="none" /><path d="M 79.03285615573316 98.82574320788736 l -10.451029932960449 -0.5853058945225393 a31.467407016534615,31.467407016534615 0 0,0 0.034942920678531865,-0.5405515167940971 l 10.439406421277504 0.7651164755696482" fill="#ff880c" stroke="none" /><path d="M 79.05617556472873 98.46500227214037 l -11.75198252883898 -0.8613167349337691 a32.78350371816522,32.78350371816522 0 0,0 0.046092850927822136,-0.5624495302296181 l 11.73541519409166 1.0634801823711655" fill="#ff9a0e" stroke="none" /><path d="M 79.08570108090925 98.10471618934814 l -10.370237118951875 -0.9397657841750351 a31.412731516388646,31.412731516388646 0 0,0 0.05343585999704028,-0.5380918178027201 l 10.352524133272606 1.1181331326821855" fill="#ff880c" stroke="none" /><path d="M 79.12142395522702 97.74499172005258 l -21.661364128879093 -2.339553969620804 a42.78734056053327,42.78734056053327 0 0,0 0.08539058756224627,-0.7315744070802901 l 21.617883188313257 2.712072115025956" fill="#e8ff1a" stroke="none" /><path d="M 79.16333360222342 97.38593545837743 l -11.391842779863198 -1.4291639413950123 a32.48114068777598,32.48114068777598 0 0,0 0.07437253330636433,-0.5541617589165441 l 11.365554247499 1.6250440423762158" fill="#ff960d" stroke="none" /><path d="M 79.21141760316559 97.0276538004421 l -16.7802189161499 -2.3992314132378145 a37.95087190229995,37.95087190229995 0 0,0 0.09802910188284523,-0.6458893001607627 l 16.73643392082775 2.687719825790669" fill="#ffdc14" stroke="none" /><path d="M 79.32604984820605 96.31383870115002 l -9.615738139086513 -1.7144842435977714 a30.767388401257932,30.767388401257932 0 0,0 0.09745097936637102,-0.5205870284852719 l 9.58480143581028 1.879749349545616" fill="#ff7f0b" stroke="none" /><path d="M 79.3925641242962 95.95851677861259 l -11.519070094541043 -2.2590936977249316 a32.73850417123282,32.73850417123282 0 0,0 0.11321396302880068,-0.5520714908490254 l 11.478476835597247 2.4570408447373597" fill="#ff990e" stroke="none" /><path d="M 79.46518482838121 95.60439243477599 l -8.57920465702944 -1.8364332271256003 a29.773553416084418,29.773553416084418 0 0,0 0.11158789394002391,-0.5002266483459509 l 8.546322376087378 1.9838380450215105" fill="#ff720a" stroke="none" /><path d="M 79.54389044137918 95.25157060432595 l -26.43468854113134 -6.136223106084052 a48.1375384343212,48.1375384343212 0 0,0 0.19430877787689577,-0.8055353293992318 l 26.325146962993628 6.5903436671426805" fill="#aaff21" stroke="none" /><path d="M 79.62865764111835 94.90015583598534 l -6.854519511229384 -1.715988112645259 a28.06604931574668,28.06604931574668 0 0,0 0.1213571537037452,-0.4676386179191252 l 6.823966025655332 1.833723156113248" fill="#ff5a08" stroke="none" /><path d="M 79.71946130924805 94.55025226153421 l -7.071998434518142 -1.9003739527157422 a28.322880786820683,28.322880786820683 0 0,0 0.13057283599219444,-0.46973996346011665 l 7.038238827959587 2.0218252195948017" fill="#ff5e08" stroke="none" /><path d="M 79.81627453868168 94.20196356495316 l -4.0260053428901 -1.1565221549662026 a25.18882591138702,25.18882591138702 0 0,0 0.12329822677954377,-0.4157003258687649 l 4.00550121899885 1.2256518675815067" fill="#ff3204" stroke="none" /><path d="M 79.91906864156998 93.8553929516997 l -10.480328954801038 -3.20689822671706 a31.9599950381997,31.9599950381997 0 0,0 0.16549877139045865,-0.5246763319253317 l 10.423574699642376 3.386824725068806" fill="#ff8f0d" stroke="none" /><path d="M 80.02781315780177 93.51064311812611 l -4.667898522739752 -1.5166921700546314 a25.90811896323846,25.90811896323846 0 0,0 0.14146166826703735,-0.42295238253744694 l 4.641099560700942 1.5968176555144005" fill="#ff3c05" stroke="none" /><path d="M 80.14247586403 93.16781622104843 l -2.3961283975464247 -0.8244124221079399 a23.533986412602538,23.533986412602538 0 0,0 0.1350928361096685,-0.3819256394789919 l 2.381582480626947 0.8655356880135427" fill="#ff1b02" stroke="none" /><path d="M 80.2630227832202 92.82701384747504 l -59.210931650339425 -21.518958457574875 a84.0,84.0 0 0,0 0.5055816459934896,-1.3547074518826343 l 58.83174541584431 22.534989046486853" fill="#4dd2ff" stroke="none" /><path d="M 80.52162464483688 92.15188598940014 l -6.562004675984436 -2.643924860066129 a28.07461970944851,28.07461970944851 0 0,0 0.18446136518195974,-0.44668782713235317 l 6.5155216239162765 2.7564872576517936" fill="#ff5a08" stroke="none" /><path d="M 80.65960295795068 91.81776055985345 l -5.998615128745334 -2.53780236186294 a27.51335737471003,27.51335737471003 0 0,0 0.18828214562686776,-0.434581151261234 l 5.954042273275785 2.6406826577107734" fill="#ff5307" stroke="none" /><path d="M 80.803312248108 91.48605970444005 l -13.3863922973606 -5.937010919054971 a35.643892835985014,35.643892835985014 0 0,0 0.2535769049572738,-0.5587230971808593 l 13.282213075439977 6.166556025077901" fill="#ffbf11" stroke="none" /><path d="M 80.95270993114464 91.15688171328213 l -15.72398917037559 -7.300203633695084 a38.3359974770275,38.3359974770275 0 0,0 0.2830324899864952,-0.5961386061956548 l 15.595998486547344 7.5697846555312704" fill="#ffe015" stroke="none" /><path d="M 81.26839172434947 90.50648371742162 l -26.398039141442766 -13.379001457296111 a50.594833172489345,50.594833172489345 0 0,0 0.4003992382907367,-0.7734438838598442 l 26.163830469991915 13.83141806341629" fill="#8fff24" stroke="none" /><path d="M 81.43458229118936 90.18545643968196 l -6.7359640136105146 -3.5609439695472607 a28.61928691853187,28.61928691853187 0 0,0 0.23398570333593624,-0.433539972011866 l 6.673670211056106 3.6763649248915993" fill="#ff6209" stroke="none" /><path d="M 81.6062741919709 89.86733742301443 l -12.789338377894003 -7.0453399011484725 a35.60150644512364,35.60150644512364 0 0,0 0.30031118215390157,-0.5342200834295955 l 12.666169554447672 7.264443494512852" fill="#ffbe11" stroke="none" /><line stroke="#e1ed5e" stroke-width="0.3" x1="26.266209847984243" x2="21.928928074336255" y1="57.711370442889674" y2="55.22380399835377" /><path d="M 25.398753493254645 57.213857153982495 a86.0,86.0 0 0,1 29.58750427330803,-30.492523968695096" fill="none" id="id71" stroke="none" /><text fill="#e1ed5e" style="font-size:6.75px; font-family:Arial;" text-anchor="middle"><textPath startOffset="21.46611528233685" xlink:href="#id71">November</textPath></text><path d="M 81.78341655067845 89.55222093294921 l -4.66081921562592 -2.6731252636804492 a26.372972588435054,26.372972588435054 0 0,0 0.22924433340372052,-0.3918528764294385 l 4.614115207751874 2.7529575524637795" fill="#ff4306" stroke="none" /><path d="M 81.96595687620814 89.24020034530311 l -13.288297060895644 -7.928306101181798 a36.473747975608376,36.473747975608376 0 0,0 0.3263257629479472,-0.5363937527043379 l 13.149855499661479 8.15586762709321" fill="#ffc912" stroke="none" /><path d="M 82.15384107792192 88.93136811851018 l -22.84625955805135 -14.169818728006298 a47.883737436941516,47.883737436941516 0 0,0 0.4404674600676752,-0.6967137433377315 l 22.598964501737715 14.560980119058245" fill="#adff20" stroke="none" /><path d="M 82.34701348167596 88.62581576622439 l -4.015384183884671 -2.5871950578722225 a25.77670267147429,25.77670267147429 0 0,0 0.24353259711423736,-0.3709168532161021 l 3.970254951412513 2.6559299750659915" fill="#ff3b05" stroke="none" /><path d="M 82.54541684631803 88.32363383020206 l -16.681399385523935 -11.159139449797298 a41.06976528809893,41.06976528809893 0 0,0 0.39813330539924563,-0.5842114986038559 l 16.486841614455948 11.44462897167157" fill="#fcff18" stroke="none" /><path d="M 82.7489923806493 88.02491185347247 l -5.62834830056134 -3.9070162454149577 a27.851502064100114,27.851502064100114 0 0,0 0.2767741428706634,-0.3914773969179482 l 5.560261537886799 4.003320142664692" fill="#ff5708" stroke="none" /><path d="M 82.95767976084542 87.72973835380427 l -14.580755039806359 -10.497964879598243 a38.9667939305853,38.9667939305853 0 0,0 0.3966028920687099,-0.5409658990704302 l 14.397889535224015 10.747393222340174" fill="#ffe815" stroke="none" /><path d="M 83.17141714833178 87.43820079747576 l -0.5378998931144562 -0.4015186844858553 a21.671232857512052,21.671232857512052 0 0,0 0.2257152395687487,-0.2970147972294901 l 0.5309087133215986 0.410718257596372" fill="#ff0000" stroke="none" /><path d="M 83.39014120810768 87.1503855733568 l -10.669614002721625 -8.254159636986692 a34.48969289049731,34.48969289049731 0 0,0 0.3673085274536596,-0.4664445291011777 l 10.525951394673996 8.436596560040918" fill="#ffb010" stroke="none" /><path d="M 83.6137871275137 86.86637796730984 l -16.004415335914103 -12.82760961985431 a41.51070156781141,41.51070156781141 0 0,0 0.45167894777198875,-0.5537049828485037 l 15.781237896065722 13.101198772310896" fill="#f7ff19" stroke="none" /><path d="M 83.84228863543731 86.58626213691792 l -4.119355857336517 -3.4197887552473487 a26.353881564798467,26.353881564798467 0 0,0 0.2927657553564201,-0.34654231126920604 l 4.059879488492973 3.4901900161456707" fill="#ff4306" stroke="none" /><path d="M 84.07557802195018 86.31012108654704 l -18.25016823273992 -15.689272339098888 a45.06702946052385,45.06702946052385 0 0,0 0.5107771283800812,-0.5839065544929622 l 17.977399240781995 16.001094449794792" fill="#cdff1d" stroke="none" /><path d="M 84.31358615837235 86.03803664274999 l -7.68784787336446 -6.842701677242599 a31.292014922634593,31.292014922634593 0 0,0 0.36158125804356683,-0.39926705615425706 l 7.568922974704849 6.974021520666412" fill="#ff860c" stroke="none" /><path d="M 84.5562425177563 85.77008943001954 l -16.042901047989048 -14.781962709425017 a42.814699071460964,42.814699071460964 0 0,0 0.5040567957364919,-0.5376926453479621 l 15.7860769302821 15.05592477165103" fill="#e7ff1a" stroke="none" /><path d="M 84.80347519578584 85.50635884689758 l -11.814659360755511 -11.268196862577868 a37.326617418941915,37.326617418941915 0 0,0 0.4474496914013976,-0.4611362389274268 l 11.618945405650996 11.469897297055418" fill="#ffd413" stroke="none" /><path d="M 85.05521093208273 85.24692304244772 l -10.748421415382166 -10.610540409282272 a36.10338143263481,36.10338143263481 0 0,0 0.44039970552119895,-0.43850848922712543 l 10.564185909693656 10.793984749159508" fill="#ffc412" stroke="none" /><path d="M 85.83668400450813 84.49514656593479 l -11.880611175812755 -13.005932724139347 a38.615425283985786,38.615425283985786 0 0,0 0.4946250052714711,-0.444079213470401 l 11.654975182945313 13.208510946379027" fill="#ffe415" stroke="none" /><path d="M 86.10567301691215 84.25364557470407 l -5.518739952397589 -6.254353692501111 a29.3410689226916,29.3410689226916 0 0,0 0.3815822798628338,-0.3309043929228224 l 5.410263873887982 6.348423078843614" fill="#ff6c09" stroke="none" /><path d="M 86.37877921826538 84.01681056812374 l -7.082312430082194 -8.3104108654878 a31.918886303580344,31.918886303580344 0 0,0 0.4212418460807797,-0.3527779318256901 l 6.938213047042304 8.431089954707302" fill="#ff8e0d" stroke="none" /><path d="M 86.93701828274178 83.55741782278169 l -3.6485651433233692 -4.592506787234516 a26.865419524285485,26.865419524285485 0 0,0 0.3645604741145578,-0.28454523260883263 l 3.568972114049386 4.65463040906657" fill="#ff4a06" stroke="none" /><path d="M 87.22198572758235 83.33499621200491 l -2.2511697687446315 -2.9359610909599634 a24.699680101757526,24.699680101757526 0 0,0 0.3396251252533261,-0.255798603173553 l 2.2002984897329156 2.974276283639371" fill="#ff2b04" stroke="none" /><path d="M 87.80319425747018 82.90503203632743 l -33.568446713424066 -47.049328592258746 a78.79688517328877,78.79688517328877 0 0,0 1.1109192379815611,-0.7782699203775834 l 32.75359633585885 47.62018335540027" fill="#47fffc" stroke="none" /><path d="M 88.09926311788651 82.69761687909137 l -2.4434076736514636 -3.5524502481545195 a25.31162890625712,25.31162890625712 0 0,0 0.3611069141542081,-0.24382100038345594 l 2.381896065090716 3.593983160836641" fill="#ff3404" stroke="none" /><path d="M 88.70189139769569 82.29822771554957 l -3.0952463466096227 -4.849603408909138 a26.75319069472787,26.75319069472787 0 0,0 0.3903173924665603,-0.24441671535477474 l 3.01130980177082 4.902164465586843" fill="#ff4806" stroke="none" /><path d="M 89.00827224532344 82.1063720568725 l -2.4694818564853565 -4.020113174059688 a25.718013413689985,25.718013413689985 0 0,0 0.3792034540191309,-0.2284658381101227 l 2.3999163362485763 4.06202562162843" fill="#ff3a05" stroke="none" /><line stroke="#e1ed5e" stroke-width="0.3" x1="56.762969772571076" x2="54.21961505331055" y1="26.818313649435495" y2="22.513508569990535" /><path d="M 56.25429882871897 25.957352633546506 a86.0,86.0 0 0,1 42.265352541879196,-11.944610805530505" fill="none" id="id72" stroke="none" /><text fill="#e1ed5e" style="font-size:6.75px; font-family:Arial;" text-anchor="middle"><textPath startOffset="22.20632615414155" xlink:href="#id72">December</textPath></text><path d="M 89.3179101791058 81.91981866633112 l -9.12551428081152 -15.445568772257872 a38.93991654350272,38.93991654350272 0 0,0 0.580025387254066,-0.3359881423457722 l 8.858292161092134 15.600361071993692" fill="#ffe815" stroke="none" /><path d="M 89.63071344664047 81.73862282372117 l -7.130968809012303 -12.558367481074514 a35.44172115590161,35.44172115590161 0 0,0 0.5331040930940464,-0.2966718506272838 l 6.91374062684621 12.679254729261983" fill="#ffbc11" stroke="none" /><path d="M 89.94658935756843 81.56283822128135 l -6.73641275305749 -12.35404940211461 a35.07131100535568,35.07131100535568 0 0,0 0.5325076780382867,-0.2844471596993043 l 6.522760028490898 12.468175288315663" fill="#ffb711" stroke="none" /><path d="M 90.91171255644093 81.06846463323043 l -3.5687903762138506 -7.434038771711772 a29.24628384235411,29.24628384235411 0 0,0 0.45571530055878434,-0.2139644440873971 l 3.440296864355458 7.494368198439177" fill="#ff6a09" stroke="none" /><path d="M 91.23893434514133 80.91482961587045 l -3.0701594327271664 -6.688058072883566 a28.359076010521065,28.359076010521065 0 0,0 0.44539668438237034,-0.1998365092806448 l 2.9545806298780213 6.73991491268074" fill="#ff5e08" stroke="none" /><path d="M 91.56875222667455 80.76684994638697 l -1.0769887929387358 -2.4567997071778986 a23.682493180104107,23.682493180104107 0 0,0 0.37476557808423094,-0.16045506231825285 l 1.0345394570641966 2.4749742974589375" fill="#ff1d02" stroke="none" /><path d="M 91.90106846888425 80.62456947434976 l -7.345337562164057 -17.572574490397262 a40.04598010401929,40.04598010401929 0 0,0 0.6382874047122877,-0.2603734588244239 l 7.041766287863389 17.69640883540526" fill="#fff517" stroke="none" /><path d="M 92.23578459929587 80.48803036053334 l -0.8392022326213571 -2.108968857664041 a23.26980396286407,23.26980396286407 0 0,0 0.3734436039353542,-0.14489031653243029 l 0.8027754636863266 2.1231018780870228" fill="#ff1702" stroke="none" /><path d="M 92.57280143429618 80.3572730644239 l -2.921739155578954 -7.727129401794801 a29.261058557190168,29.261058557190168 0 0,0 0.47266039186679537,-0.17408481126967557 l 2.788296437939589 7.776277480870799" fill="#ff6b09" stroke="none" /><path d="M 92.91201910852362 80.23233633223022 l -6.577448309103677 -18.343839798278584 a40.48741349702007,40.48741349702007 0 0,0 0.658051563593523,-0.22958126935662418 l 6.2607147414468685 18.454341920807416" fill="#fffb17" stroke="none" /><path d="M 93.25333710446033 80.11325718540243 l -2.189452497383484 -6.453720808998692 a27.814999231019875,27.814999231019875 0 0,0 0.45473176358682377,-0.14991791298530538 l 2.078037911554251 6.49045244624323" fill="#ff5708" stroke="none" /><path d="M 93.59665428221793 80.00007090966166 l -3.8974220574117187 -12.17303706824591 a33.78173423908072,33.78173423908072 0 0,0 0.5553308949775936,-0.17254401228181795 l 3.6873057897233963 12.238321215410254" fill="#ffa70f" stroke="none" /><path d="M 93.94186890950719 79.89281104454417 l -3.487173625242833 -11.574074241027317 a33.08799298599239,33.08799298599239 0 0,0 0.546755106763723,-0.15961280867654293 l 3.2874283007556886 11.632385378622558" fill="#ff9e0e" stroke="none" /><path d="M 94.28887869178378 79.79150937346287 l -2.5819333785145964 -9.136030152781352 a30.493862592412945,30.493862592412945 0 0,0 0.5063463929379125,-0.13840359653573772 l 2.4242890963529615 9.179120290143386" fill="#ff7b0b" stroke="none" /><path d="M 94.98787191387505 79.60689891045804 l -2.012064811243906 -8.186590683505575 a29.430223711379565,29.430223711379565 0 0,0 0.4929931232884244,-0.11667554431338174 l 1.8708480009929476 8.220012139959827" fill="#ff6d0a" stroke="none" /><path d="M 95.33964822691252 79.52364482259891 l -4.609285647814537 -20.251984106388615 a41.769891054807346,41.769891054807346 0 0,0 0.7024448065390464,-0.1535272274017745 l 4.259998117121969 20.32832483188626" fill="#f4ff19" stroke="none" /><path d="M 95.692805502759 79.44645832069477 l -1.9340578887643831 -9.229148916393488 a30.429621924449506,30.429621924449506 0 0,0 0.5135847693923897,-0.10302027318545408 l 1.7749067099048568 9.261073145656152" fill="#ff7a0b" stroke="none" /><path d="M 96.04723909329186 79.375362276772 l -3.1852022006366667 -16.619685079325865 a37.922158408279586,37.922158408279586 0 0,0 0.6421573594425314,-0.11735015287158004 l 2.898649720091242 16.67205071354818" fill="#ffdb14" stroke="none" /><path d="M 96.40284397218896 79.31037775812273 l -2.447456058093695 -14.076937698575875 a35.28811450562621,35.28811450562621 0 0,0 0.5993447530754098,-0.09889701964145045 l 2.2047820988793996 14.116980981156953" fill="#ffba11" stroke="none" /><path d="M 96.75951476605007 79.25152402106235 l -2.3840897758933566 -15.265068616423951 a36.45011986761432,36.45011986761432 0 0,0 0.6207473110358511,-0.09148201761986317 l 2.120973484428857 15.303845118204784" fill="#ffc912" stroke="none" /><path d="M 97.47563105711357 79.15227682838746 l -1.2620842352721031 -10.423033776561915 a31.49916614423607,31.49916614423607 0 0,0 0.5388356805090004,-0.060544467042061595 l 1.0824818512533847 10.443214197074576" fill="#ff890c" stroke="none" /><path d="M 97.83486435360386 79.11191278185805 l -2.1245661808274705 -20.49669440328418 a41.60651020717329,41.60651020717329 0 0,0 0.7130065510964415,-0.06770856337874903 l 1.7714345026407925 20.53022851117811" fill="#f6ff19" stroke="none" /><path d="M 98.19473922651362 79.07773832637324 l -0.5819764759719711 -6.744878245299445 a27.769939376574836,27.769939376574836 0 0,0 0.4765980281967046,-0.036993179671522894 l 0.46578825841293237 6.75389668715943" fill="#ff5608" stroke="none" /><path d="M 98.55514903715128 79.0497635885617 l -0.8993119959934391 -13.039960112258136 a34.07093423575457,34.07093423575457 0 0,0 0.585432671607125,-0.0353148974986174 l 0.6747172755466911 13.05350827913706" fill="#ffaa0f" stroke="none" /><path d="M 98.91598698831166 79.02799685794201 l -0.490561925166749 -9.490722090085924 a30.503391857314327,30.503391857314327 0 0,0 0.5245990291661863,-0.022590337719270194 l 0.3271220636112387 9.497760154329386" fill="#ff7b0b" stroke="none" /><path d="M 99.27714615592234 79.0124445844662 l -0.4647964816794279 -13.495040520451438 a34.50304241339735,34.50304241339735 0 0,0 0.5937371682353906,-0.01533447936024851 l 0.23243267824915823 13.501041791954046" fill="#ffb010" stroke="none" /><path d="M 99.63851952072746 79.00311137660856 l -0.2978965240342817 -17.303562695919013 a38.30612678535066,38.30612678535066 0 0,0 0.6593770033068131,-0.005675466040210971 l 4.238778554663593e-15 17.306126785350664" fill="#ffe015" stroke="none" /></svg>