<?xml version="1.0" encoding="utf-8" ?>
<svg baseProfile="full" height="200mm" version="1.1" viewBox="0,0,200,200" width="200mm" xmlns="http://www.w3.org/2000/svg" xmlns:ev="http://www.w3.org/2001/xml-events" xmlns:xlink="http://www.w3.org/1999/xlink"><defs /><rect fill="#1a1a1a" height="200" width="200" x="0" y="0" /><rect fill="#1a1a1a" height="200" width="180" x="10" y="0" /><text alignment-baseline="middle" fill="#e1ed5e" style="dominant-baseline: central; font-size:9.0px; font-family:Arial;" text-anchor="middle" x="100.0" y="100.0">2025</text><line stroke="#e1ed5e" stroke-width="0.3" x1="100.0" x2="100.0" y1="15.0" y2="10.0" /><path d="M 100.0 14.0 a86.0,86.0 0 0,1 42.46469731375804,11.215312516191453" fill="none" id="id13" stroke="none" /><text fill="#e1ed5e" style="font-size:6.75px; font-family:Arial;" text-anchor="middle"><textPath startOffset="22.20632615414155" xlink:href="#id13">January</textPath></text><path d="M 101.08401301168833 79.027996857942 l 0.251283970063181 -4.861499034505156 a25.867988958091964,25.867988958091964 0 0,0 0.44448343506083077,0.026812454634478868 l -0.33492945396362367 4.856453310490374" fill="#ff3d05" stroke="none" /><path d="M 101.80526077348638 79.07773832637324 l 0.39064757180742254 -4.527451567973417 a25.54427367416444,25.54427367416444 0 0,0 0.4377496305743785,0.04156960207475418 l -0.46852232947204525 4.520056421383484" fill="#ff3805" stroke="none" /><path d="M 102.16513564639614 79.11191278185805 l 0.7213923211982235 -6.959612783969395 a27.996900526938624,27.996900526938624 0 0,0 0.4789247079905939,0.05381277121658624 l -0.8410837326985426 6.946164059282208" fill="#ff5a08" stroke="none" /><path d="M 102.88285421437855 79.19881850522331 l 1.3426246460441753 -9.687683408488104 a30.780278664908323,30.780278664908323 0 0,0 0.5241896400772027,0.07725192689062453 l -1.5091832665500338 9.66313699743651" fill="#ff800b" stroke="none" /><path d="M 103.59715602781102 79.31037775812273 l 1.119440275049326 -6.4386410358762625 a27.53523105316654,27.53523105316654 0 0,0 0.466269643050711,0.08520779694696308 l -1.2301050392029378 6.418417757578561" fill="#ff5407" stroke="none" /><path d="M 104.307194497241 79.44645832069477 l 1.43564363261903 -6.85076126898045 a27.999571601494065,27.999571601494065 0 0,0 0.47086916341199453,0.10291376127302528 l -1.5533555201845526 6.825034009611554" fill="#ff5a08" stroke="none" /><path d="M 104.66035177308747 79.52364482259891 l 1.5375045378903458 -6.755388978684662 a27.928145528015964,27.928145528015964 0 0,0 0.46783143161045443,0.1107205848348594 l -1.6535596564633237 6.727922481708934" fill="#ff5908" stroke="none" /><path d="M 105.01212808612495 79.60689891045804 l 2.3599591249173666 -9.602086015091324 a30.887844199444746,30.887844199444746 0 0,0 0.5152255843213002,0.13134247341967764 l -2.524893597923692 9.560040545502778" fill="#ff810b" stroke="none" /><path d="M 105.71112130821622 79.79150937346287 l 1.8802211167841736 -6.653059664428271 a27.91364117860072,27.91364117860072 0 0,0 0.46125269275869596,0.1346523093979021 l -1.9944640272662966 6.619709026111666" fill="#ff5908" stroke="none" /><path d="M 106.0581310904928 79.89281104454417 l 2.522928481455823 -8.373704520416211 a29.745518596274316,29.745518596274316 0 0,0 0.48898038646377323,0.15192858630885042 l -2.6666942406303145 8.32903579922484" fill="#ff720a" stroke="none" /><path d="M 106.40334571778207 80.00007090966166 l 4.0319870809862595 -12.593331559305 a34.22304501935267,34.22304501935267 0 0,0 0.5594932966816595,0.18445614334519161 l -4.248163199910336 12.522061691700571" fill="#ffad10" stroke="none" /><path d="M 107.08798089147638 80.2323363322302 l 2.93072934606808 -8.173508492948192 a29.683053356060924,29.683053356060924 0 0,0 0.4794769677815003,0.1765954137065123 l -3.0709886396221564 8.121849811435355" fill="#ff710a" stroke="none" /><path d="M 107.4271985657038 80.35727306442388 l 3.1042980509625115 -8.209943278380571 a29.77723390502019,29.77723390502019 0 0,0 0.477877577415929,0.1854090757637702 l -3.2451587933781076 8.155291498726253" fill="#ff720a" stroke="none" /><path d="M 108.76106565485865 80.91482961587045 l 6.127419291048481 -13.348015617233647 a35.687232145173795,35.687232145173795 0 0,0 0.5560780922052502,0.2610861204835248 l -6.356275594553329 13.240564514110119" fill="#ffc011" stroke="none" /><path d="M 109.08828744355905 81.06846463323043 l 2.833904329933337 -5.9032199830119465 a27.548207382104394,27.548207382104394 0 0,0 0.42572308751658133,0.20890047014931684 l -2.93509868446035 5.853564352727798" fill="#ff5407" stroke="none" /><path d="M 109.73455568895987 81.39251694778311 l 4.119550514284706 -7.874469963147805 a29.88695525139293,29.88695525139293 0 0,0 0.45379065362349236,0.242399251400111 l -4.254486214436509 7.80239198524594" fill="#ff740a" stroke="none" /><line stroke="#e1ed5e" stroke-width="0.3" x1="143.23703022742887" x2="145.7803849466894" y1="26.81831364943548" y2="22.513508569990506" /><path d="M 143.74570117128098 25.957352633546492 a86.0,86.0 0 0,1 28.547481713284135,27.462654790039103" fill="none" id="id14" stroke="none" /><text fill="#e1ed5e" style="font-size:6.75px; font-family:Arial;" text-anchor="middle"><textPath startOffset="19.985693538727396" xlink:href="#id14">February</textPath></text><path d="M 111.2981086023043 82.29822771554956 l 9.881194523061376 -15.481764382218527 a39.36635602369475,39.36635602369475 0 0,0 0.5680620928521495,0.36948338686615617 l -10.146223641697805 15.309382071192843" fill="#ffee16" stroke="none" /><path d="M 111.90073688211348 82.69761687909136 l 2.772636710496176 -4.031113627274906 a25.892585349729988,25.892585349729988 0 0,0 0.3650470589394101,0.25573879340773636 l -2.841614909019237 3.9827899911032336" fill="#ff3d05" stroke="none" /><path d="M 112.19680574252982 82.90503203632743 l 1.7283845184870632 -2.42249311796578 a23.975867260201188,23.975867260201188 0 0,0 0.3338978416536044,0.242590981970542 l -1.7698276764944563 2.392382901178563" fill="#ff2203" stroke="none" /><path d="M 112.48926042617603 83.11751280151076 l 2.8215384822926404 -3.814043881054298 a25.744260757343127,25.744260757343127 0 0,0 0.3539883005871406,0.26661664905513144 l -2.886772936638164 3.764910642493319" fill="#ff3b05" stroke="none" /><path d="M 112.77801427241765 83.33499621200491 l 4.573853364887055 -5.965190054303732 a28.516889448931174,28.516889448931174 0 0,0 0.3869707200506151,0.302036785027358 l -4.675856640097101 5.88557488005315" fill="#ff6109" stroke="none" /><path d="M 113.06298171725822 83.55741782278167 l 9.305149824215622 -11.712539599887553 a35.9589236621501,35.9589236621501 0 0,0 0.4813300587004426,0.38920209987387294 l -9.505383281480556 11.55063140274955" fill="#ffc312" stroke="none" /><path d="M 113.89432698308785 84.25364557470407 l 4.51851956912714 -5.120810147890961 a27.829327614584614,27.829327614584614 0 0,0 0.3564658738530837,0.3200385811526737 l -4.605996430576214 5.042272557968991" fill="#ff5808" stroke="none" /><path d="M 114.16331599549186 84.49514656593476 l 4.796363108593464 -5.2506706084203705 a28.111584978582897,28.111584978582897 0 0,0 0.3544631464933315,0.3294348638762989 l -4.886034138881643 5.167331158469431" fill="#ff5c08" stroke="none" /><path d="M 114.94478906791727 85.2469230424477 l 9.014941879993351 -8.899297990690073 a33.66754442766073,33.66754442766073 0 0,0 0.40358686122883153,0.41593173678297274 l -9.16679300492529 8.742802058356986" fill="#ffa60f" stroke="none" /><path d="M 115.19652480421416 85.50635884689758 l 2.5827840005321274 -2.463322697917493 a24.569136016948676,24.569136016948676 0 0,0 0.2892520616353417,0.3085539318358219 l -2.6248033841379317 2.4184993492036164" fill="#ff2b04" stroke="none" /><path d="M 115.4437574822437 85.77008943001954 l 4.648279337008985 -4.282934340685875 a27.320603401692836,27.320603401692836 0 0,0 0.3156913408394255,0.34859426340941296 l -4.721314318464446 4.202287290006913" fill="#ff5107" stroke="none" /><path d="M 115.68641384162765 86.03803664274999 l 4.664974844017438 -4.15214136846375 a27.24517960022156,27.24517960022156 0 0,0 0.3087892582445505,0.3529995017941465 l -4.735755965839837 4.071226310466655" fill="#ff5007" stroke="none" /><path d="M 116.82858285166822 87.43820079747576 l 20.210878530373826 -15.086534620471431 a46.22068868655669,46.22068868655669 0 0,0 0.4704328213183625,0.6416698395952084 l -20.467573964205812 14.73640233720473" fill="#bfff1e" stroke="none" /><path d="M 117.45458315368197 88.32363383020206 l 5.985065923707729 -4.00375194642501 a28.200766886910692,28.200766886910692 0 0,0 0.2664346207547571,0.40579820643814174 l -6.05309717982041 3.9001356760091945" fill="#ff5d08" stroke="none" /><line stroke="#e1ed5e" stroke-width="0.3" x1="172.23445277983987" x2="176.4835382374775" y1="55.19839476539836" y2="52.563006222186495" /><path d="M 173.08426987136738 54.67131705675599 a86.0,86.0 0 0,1 12.851231095245387,41.99856678651699" fill="none" id="id15" stroke="none" /><text fill="#e1ed5e" style="font-size:6.75px; font-family:Arial;" text-anchor="middle"><textPath startOffset="22.20632615414155" xlink:href="#id15">March</textPath></text><path d="M 118.21658344932153 89.55222093294921 l 4.117935997729102 -2.361764797236521 a25.747139121498215,25.747139121498215 0 0,0 0.21718614066447944,0.3863499099612891 l -4.1579797796860145 2.290531377340438" fill="#ff3b05" stroke="none" /><path d="M 118.3937258080291 89.86733742301442 l 5.926359058291374 -3.2646891268497673 a27.766086519012546,27.766086519012546 0 0,0 0.227010103414944,0.42061524476829265 l -5.981677260924783 3.1621928987490158" fill="#ff5708" stroke="none" /><path d="M 118.56541770881063 90.18545643968196 l 6.101130061395656 -3.225341206641221 a27.901203802621946,27.901203802621946 0 0,0 0.22080556549870753,0.42652607154357325 l -6.15574506005448 3.119842412837303" fill="#ff5908" stroke="none" /><path d="M 119.04729006885535 91.15688171328212 l 1.9129189198179757 -0.8881141737065767 a23.10902953496059,23.10902953496059 0 0,0 0.16440168903565217,0.36223732952036986 l -1.927922925816975 0.8550548353441441" fill="#ff1602" stroke="none" /><path d="M 119.34039704204932 91.81776055985345 l 7.5588404077882325 -3.1978786149999734 a29.207465866312592,29.207465866312592 0 0,0 0.19190461288394192,0.4647122418358182 l -7.612766707558372 3.067291802710852" fill="#ff6b09" stroke="none" /><path d="M 119.61058180528143 92.48833698450437 l 6.570479926096136 -2.5167652619883376 a28.036001267991892,28.036001267991892 0 0,0 0.16874390081127577,0.4521497599850061 l -6.612828415409037 2.403292364973998" fill="#ff5b08" stroke="none" /><path d="M 119.7369772167798 92.82701384747503 l 5.602084310612413 -2.0359588372599036 a26.96057690246728,26.96057690246728 0 0,0 0.1547625945325066,0.43753469529850675 l -5.636299985954729 1.939226515534782" fill="#ff4c07" stroke="none" /><path d="M 119.97218684219823 93.5106431181261 l 18.073480513724 -5.872429798390555 a40.00358202068722,40.00358202068722 0 0,0 0.20715096068469127,0.656725154475191 l -18.1718869581769 5.560454477488944" fill="#fff617" stroke="none" /><path d="M 120.18372546131832 94.20196356495316 l 5.5484519176633444 -1.5938646429952181 a26.77284359590768,26.77284359590768 0 0,0 0.12342692617340413,0.44403232379937846 l -5.575065614403112 1.4981210157768878" fill="#ff4906" stroke="none" /><path d="M 120.28053869075195 94.5502522615342 l 6.20186519652517 -1.666553405923342 a27.421879177519994,27.421879177519994 0 0,0 0.11857177220610393,0.4569054067800855 l -6.229633300601576 1.559551573594406" fill="#ff5207" stroke="none" /><path d="M 120.37134235888165 94.90015583598534 l 5.5592129592589865 -1.391715836263034 a26.730769729739485,26.730769729739485 0 0,0 0.10789964270775565,0.4473136786734362 l -5.582345402227562 1.2958169259301917" fill="#ff4906" stroke="none" /><path d="M 120.67395015179393 96.31383870115 l 12.277674537613581 -2.189106986721647 a33.471306324955634,33.471306324955634 0 0,0 0.09625094673573599,0.5680785360880082 l -12.313537345869541 1.977442662317801" fill="#ffa30f" stroke="none" /><path d="M 120.73433829027371 96.67025291283417 l 6.506249732799179 -1.0448448266286843 a27.58961199899373,27.58961199899373 0 0,0 0.0712654215829422,0.4695500865332581 l -6.523271047821422 0.9326956277033441" fill="#ff5507" stroke="none" /><path d="M 120.91429891909075 98.10471618934814 l 3.6475761726284 -0.33054859236958084 a24.662522942869295,24.662522942869295 0 0,0 0.034674939057227114,0.4231220848980909 l -3.652725595505122 0.2677125902637212" fill="#ff2c04" stroke="none" /><path d="M 120.98425023603335 99.18683210126433 l 7.042312021434528 -0.2728990554486137 a28.0475976404521,28.0475976404521 0 0,0 0.014542419661636717,0.4825921105003572 l -7.04596613555181 0.15163679752325743" fill="#ff5b08" stroke="none" /><line stroke="#e1ed5e" stroke-width="0.3" x1="184.98032266829074" x2="189.97916517819016" y1="98.17113171792111" y2="98.06355123074" /><path d="M 185.9800911702706 98.14961562048488 a86.0,86.0 0 0,1 -9.607161424134198,41.387399972396054" fill="none" id="id16" stroke="none" /><text fill="#e1ed5e" style="font-size:6.75px; font-family:Arial;" text-anchor="middle"><textPath startOffset="21.466115282336823" xlink:href="#id16">April</textPath></text><path d="M 120.99513854157772 99.54816195383933 l 6.556331180636553 -0.14109932472102982 a27.55784930976794,27.55784930976794 0 0,0 0.0061243945990359224,0.4743411110149816 l -6.557788582353305 0.028221955645585498" fill="#ff5407" stroke="none" /><path d="M 120.99980553446 99.90962569577887 l 3.7132271285214835 -0.015980163130771732 a24.7132615143027,24.7132615143027 0 0,0 -0.0018307851391915037,0.42540999048067046 l -3.712952046092789 -0.04793930555358347" fill="#ff2d04" stroke="none" /><path d="M 120.92983693683757 101.71520430193887 l 6.414678242971315 0.5256841585102436 a27.436182159895584,27.436182159895584 0 0,0 -0.04262459617058555,0.47035886689209944 l -6.404679050523654 -0.6360244139509137" fill="#ff5307" stroke="none" /><path d="M 120.89721153311464 102.0752229133903 l 3.899210082553374 0.3872157820967994 a24.918389379552615,24.918389379552615 0 0,0 -0.04606069171499354,0.42646479979610286 l -3.8919670893373284 -0.45427690377769364" fill="#ff2f04" stroke="none" /><path d="M 120.5718875245553 104.21870165774334 l 6.387096939970449 1.3098096330080535 a27.520015996552505,27.520015996552505 0 0,0 -0.09915849831894517,0.4632354925822512 l -6.36360440292706 -1.4195589450064738" fill="#ff5407" stroke="none" /><path d="M 120.49622156327973 104.57218783832717 l 5.257486234594418 1.1728120008739102 a26.38671045224668,26.38671045224668 0 0,0 -0.10270641806290524,0.44245656093829905 l -5.23651925060096 -1.2631372191607741" fill="#ff4406" stroke="none" /><path d="M 120.41448212921028 104.9243191809786 l 6.223434586382108 1.5011979295539724 a27.401931995474037,27.401931995474037 0 0,0 -0.11455140931708505,0.4575759379780241 l -6.196671862769962 -1.6081017069293924" fill="#ff5207" stroke="none" /><path d="M 120.02730092923936 106.31721596034902 l 12.072284507630883 3.807963371546368 a33.658619129755955,33.658619129755955 0 0,0 -0.17904421794697742,0.5510414420018344 l -12.004948038667658 -4.015203713525998" fill="#ffa60f" stroke="none" /><path d="M 119.67450827220406 107.3425965602758 l 6.029073404153223 2.250071667688314 a27.43525824053716,27.43525824053716 0 0,0 -0.16893027768242083,0.44102364856438725 l -5.989448846877296 -2.353518883085845" fill="#ff5307" stroke="none" /><path d="M 119.26925614724726 108.34839909993367 l 9.128768281711269 3.9550359559379538 a30.94870442590088,30.94870442590088 0 0,0 -0.2159908833158327,0.4870024219492888 l -9.059336313664161 -4.11158671437993" fill="#ff820c" stroke="none" /><path d="M 119.12269723197855 108.67885076344098 l 5.679479325837639 2.5776360355987977 a27.237042002795448,27.237042002795448 0 0,0 -0.19743662642976878,0.4252609285428684 l -5.634268082568039 -2.675017031420497" fill="#ff5007" stroke="none" /><path d="M 118.64920377521936 109.65438752849418 l 6.535445189306406 3.3832929968107943 a28.359260514800194,28.359260514800194 0 0,0 -0.22815361583677718,0.43158065922813366 l -6.476239065244736 -3.495288671125062" fill="#ff5f08" stroke="none" /><line stroke="#e1ed5e" stroke-width="0.3" x1="174.80103733775053" x2="179.2010983576182" y1="140.37084112569926" y2="142.7455964860345" /><path d="M 175.68104954172406 140.8457921977663 a86.0,86.0 0 0,1 -30.038265399797805,32.042727171017184" fill="none" id="id17" stroke="none" /><text fill="#e1ed5e" style="font-size:6.75px; font-family:Arial;" text-anchor="middle"><textPath startOffset="22.206326154141568" xlink:href="#id17">May</textPath></text><path d="M 118.48025628344425 109.97397251340804 l 10.77835485914342 5.8171820485607855 a33.24796066517681,33.24796066517681 0 0,0 -0.27615374655405317,0.5012992642735763 l -10.676624703137858 -6.001851831232167" fill="#ffa00e" stroke="none" /><path d="M 117.75023020441432 111.22182372390056 l 2.5326298405269707 1.6011468753355118 a23.996311937286293,23.996311937286293 0 0,0 -0.2237314844860899,0.34723623234706186 l -2.5046934926638302 -1.6445047076040267" fill="#ff2203" stroke="none" /><path d="M 117.55443506779139 111.5257021239791 l 3.6586699448702835 2.4021701519692025 a25.37678960021028,25.37678960021028 0 0,0 -0.242888376394656,0.3630851671823414 l -3.6167784630649065 -2.464792233357351" fill="#ff3605" stroke="none" /><path d="M 117.35343817320211 111.8261652097733 l 5.257394391778429 3.5828528058560867 a27.36215608258192,27.36215608258192 0 0,0 -0.2685909539500702,0.3869253016250139 l -5.194942530666222 -3.67281936966812" fill="#ff5207" stroke="none" /><path d="M 116.93607887273984 112.41649034213515 l 2.4465235382976203 1.7936404355068052 a24.033582607302684,24.033582607302684 0 0,0 -0.2474757837991428,0.33153425431354877 l -2.4152864878033853 -1.835487569329669" fill="#ff2303" stroke="none" /><path d="M 116.498646956653 112.99209946851258 l 9.385111767926206 7.390442739477891 a32.94566728073273,32.94566728073273 0 0,0 -0.3546869165511494,0.442526464004116 l -9.256506939320204 -7.550897037060257" fill="#ff9d0e" stroke="none" /><path d="M 116.0416608686014 113.55231037782055 l 5.069615333840845 4.282910670106915 a27.636589744833554,27.636589744833554 0 0,0 -0.31013187539473464,0.36075343572078766 l -4.995140948875332 -4.369541204989231" fill="#ff5507" stroke="none" /><path d="M 115.32070863581623 114.36230785411682 l 3.0299214721620857 2.840381994815758 a25.15309450939205,25.15309450939205 0 0,0 -0.2988348710780503,0.3133271675992655 l -2.980580049705071 -2.8921162789975305" fill="#ff3304" stroke="none" /><path d="M 115.07121518719521 114.62390073753431 l 3.3962944430398903 3.2954922475430424 a25.732344566643466,25.732344566643466 0 0,0 -0.3111890543809695,0.3152328691397155 l -3.3390647636033854 -3.3534656106634224" fill="#ff3b05" stroke="none" /><path d="M 114.81725581225074 114.88116024355365 l 8.609791428616353 8.646924068550094 a33.20236879837462,33.20236879837462 0 0,0 -0.4084682647760251,0.3997721682569443 l -8.459673211464533 -8.79384633972961" fill="#ffa00e" stroke="none" /><path d="M 114.29624159901734 115.38237550388516 l 2.9747556092274015 3.2007578702761856 a25.369670683102427,25.369670683102427 0 0,0 -0.3224369778665396,0.29453853437412747 l -2.919219081893998 -3.251489171236896" fill="#ff3605" stroke="none" /><path d="M 114.0293411484842 115.62618273729858 l 2.377486664838883 2.648095921758727 a24.55877153696636,24.55877153696636 0 0,0 -0.3169925156340365,0.2797090389592263 l -2.3315517962982586 -2.688628102490242" fill="#ff2a04" stroke="none" /><path d="M 113.48314897796784 116.09983520530334 l 3.9884866184858514 4.762535619914067 a27.212066567318075,27.212066567318075 0 0,0 -0.361700030617562,0.2976545007855404 l -3.905916459323598 -4.830485239556786" fill="#ff4f07" stroke="none" /><path d="M 112.92097659922987 116.55440617244103 l 7.741349865075332 9.91824797492992 a33.58173837852716,33.58173837852716 0 0,0 -0.4587445708593775,0.35174577506294546 l -7.569476565722461 -10.050033091820238" fill="#ffa50f" stroke="none" /><path d="M 112.34349029814194 116.9893568818739 l 3.951032687519718 5.4381299582927705 a27.72189829892796,27.72189829892796 0 0,0 -0.3884665280727139,0.2771605533538525 l -3.85683883159812 -5.505334773490842" fill="#ff5708" stroke="none" /><path d="M 112.04921762599082 117.19931262002967 l 3.7432165937552657 5.343147945274606 a27.523871583105926,27.523871583105926 0 0,0 -0.39037122188342677,0.26850088600626654 l -3.6506884872489556 -5.4067896206459665" fill="#ff5407" stroke="none" /><path d="M 111.7513745106137 117.40417183066458 l 3.9868081218657596 5.904593845270712 a28.12452577216081,28.12452577216081 0 0,0 -0.4035538667186666,0.26745349774136806 l -3.8845795564071293 -5.972345364103399" fill="#ff5c08" stroke="none" /><path d="M 111.1453310114006 117.79835938074945 l 7.499967974121853 11.97695476347788 a35.13141765780238,35.13141765780238 0 0,0 -0.5152955892604051,0.31653663797739895 l -7.292693184929139 -12.104279868283657" fill="#ffb911" stroke="none" /><line stroke="#e1ed5e" stroke-width="0.3" x1="143.8653032363475" x2="146.44561519142675" y1="172.8068346515853" y2="177.08958963109032" /><path d="M 144.38136562736335 173.6633856474863 a86.0,86.0 0 0,1 -40.68145358897372,12.25698825130547" fill="none" id="id18" stroke="none" /><text fill="#e1ed5e" style="font-size:6.75px; font-family:Arial;" text-anchor="middle"><textPath startOffset="21.466115282336833" xlink:href="#id18">June</textPath></text><path d="M 109.89434966115114 118.52300852407294 l 3.018309570697448 5.650515275989872 a27.406131090506868,27.406131090506868 0 0,0 -0.41802062451622873,0.21868863387207135 l -2.920598043654724 -5.70163332880666" fill="#ff5207" stroke="none" /><path d="M 108.92500713936063 119.00905698771935 l 4.893356383644101 10.422186661082563 a32.51377051602983,32.51377051602983 0 0,0 -0.5086578187042602,0.23349985647657395 l -4.7132305691724214 -10.504873587893211" fill="#ff970d" stroke="none" /><path d="M 107.93186726928326 119.44442032107085 l 2.9735498342529847 7.289450372773346 a28.87261616960407,28.87261616960407 0 0,0 -0.46179539290013466,0.18375791720571158 l -2.8476333653109838 -7.339555134385127" fill="#ff6609" stroke="none" /><path d="M 107.2578585660854 119.70592522655815 l 1.1760498953923058 3.19311145157821 a24.402800919632554,24.402800919632554 0 0,0 -0.3954188485141751,0.1417831307484138 l -1.120911486248396 -3.2128821233665836" fill="#ff2803" stroke="none" /><path d="M 106.91757812671514 119.82793768551818 l 0.8636935064391064 2.475615123004524 a23.6219528428852,23.6219528428852 0 0,0 -0.3850718773928153,0.13063728794314658 l -0.8209518961090642 -2.4901153978457935" fill="#ff1d02" stroke="none" /><path d="M 106.2309692047433 120.05430185196036 l 2.3860049893861826 7.6793292833173625 a29.041462432355903,29.041462432355903 0 0,0 -0.47866556793770604,0.14421800906610344 l -2.2534644470082306 -7.719262661489192" fill="#ff6909" stroke="none" /><path d="M 105.53697534728816 120.25689768951611 l 1.6164484328319269 5.9137396268690505 a27.130678747936976,27.130678747936976 0 0,0 -0.45154435787690334,0.11925696893809486 l -1.514413632143526 -5.940687945110729" fill="#ff4e07" stroke="none" /><path d="M 105.18746579009965 120.34920634021253 l 0.919990846838339 3.608907380006177 a24.72432485636382,24.72432485636382 0 0,0 -0.4133044298937284,0.10158017322105821 l -0.8577331322013994 -3.6242088115412656" fill="#ff2d04" stroke="none" /><path d="M 104.83641907484287 120.43548508189849 l 1.3745824173420935 5.808069575597514 a26.968513132853737,26.968513132853737 0 0,0 -0.45265988000785345,0.10302391495574487 l -1.274402387941378 -5.830870224130944" fill="#ff4c07" stroke="none" /><path d="M 104.48393922423573 120.51570834832081 l 0.8869660238892944 4.058203144821635 a25.154000661070505,25.154000661070505 0 0,0 -0.42379524824275305,0.08881041475328606 l -0.8169793142171632 -4.072869540301462" fill="#ff3304" stroke="none" /><path d="M 104.13013068566511 120.58985236759428 l 2.3376406613314176 11.653790102176469 a32.88593234067468,32.88593234067468 0 0,0 -0.5559795717115841,0.1065548081610583 l -2.136693475048129 -11.692302108685995" fill="#ff9c0e" stroke="none" /><path d="M 103.06178313531738 120.77559828337769 l 0.9619578181948156 6.527323560523282 a27.597826589699707,27.597826589699707 0 0,0 -0.47057107843596785,0.06521686361779305 l -0.8494581485720174 -6.542914989633678" fill="#ff5507" stroke="none" /><path d="M 102.70371172650421 120.8252237178851 l 0.8730840312122627 6.724892338288286 a27.781331188426527,27.781331188426527 0 0,0 -0.4747599006977946,0.057486812290428235 l -0.7571967074630879 -6.738924679304065" fill="#ff5708" stroke="none" /><path d="M 102.34483914955558 120.86867818915974 l 0.4255789375669961 3.7875817170032287 a24.811416101015183,24.811416101015183 0 0,0 -0.42482745057047483,0.0440351022662762 l -0.3603188903909186 -3.7943461877252633" fill="#ff2e04" stroke="none" /><path d="M 101.26447882468166 120.96189622390904 l 0.8315143544634149 13.784428229821017 a34.80948506443181,34.80948506443181 0 0,0 -0.5984114019353648,0.030931034181454507 l -0.5941148841145706 -13.796699070764673" fill="#ffb510" stroke="none" /><line stroke="#e1ed5e" stroke-width="0.3" x1="102.19456741930631" x2="102.32365962044197" y1="184.97166512339345" y2="189.96999836594603" /><path d="M 102.22038585953345 185.97133177190398 a86.0,86.0 0 0,1 -42.740103519485714,-10.115201625700543" fill="none" id="id19" stroke="none" /><text fill="#e1ed5e" style="font-size:6.75px; font-family:Arial;" text-anchor="middle"><textPath startOffset="22.20632615414155" xlink:href="#id19">July</textPath></text><path d="M 100.54218724476979 120.99299961872073 l 0.10724094891817687 4.152272524792449 a25.15365715259109,25.15365715259109 0 0,0 -0.43293074483647787,0.0074532953878202945 l -0.03575051418903107 -4.153503297459429" fill="#ff3304" stroke="none" /><path d="M 100.18074693466247 120.99922214144158 l 0.04995594629795255 5.8038938007754455 a26.804108790094322,26.804108790094322 0 0,0 -0.461405761920812,0.0 l 0.04995594629794855 -5.8038938007754455" fill="#ff4a06" stroke="none" /><path d="M 99.81925306533755 120.99922214144158 l -0.05440340185576193 6.320600252241012 a27.320834381532443,27.320834381532443 0 0,0 -0.47023099291676884,-0.008095452985304835 l 0.1631940846651987 -6.318727321976547" fill="#ff5107" stroke="none" /><path d="M 99.45781275523022 120.99299961872073 l -0.10739936498466396 4.1584062515731945 a25.15979292474062,25.15979292474062 0 0,0 -0.43284386379948075,-0.014908017853346998 l 0.17896358045878777 -4.155941435293753" fill="#ff3304" stroke="none" /><path d="M 99.09653310690486 120.98055641714683 l -0.26152113297245644 6.073115602285829 a27.07874381938561,27.07874381938561 0 0,0 -0.46551188624631895,-0.02406164725269365 l 0.3660210876322643 -6.067714148270934" fill="#ff4e07" stroke="none" /><path d="M 98.37488393609728 120.93702456842531 l -0.43663074302232713 5.625289662102253 a26.642209690210628,26.642209690210628 0 0,0 -0.45692110513574846,-0.03942507557485402 l 0.5333961658996172 -5.616940334248735" fill="#ff4806" stroke="none" /><path d="M 98.01472825383883 120.90594882070398 l -0.593739342276421 6.25238551169184 a27.280513593121256,27.280513593121256 0 0,0 -0.46710397314021074,-0.04841723668889682 l 0.7012759120222251 -6.241238906547182" fill="#ff5007" stroke="none" /><path d="M 97.65516085044442 120.86867818915974 l -0.7743906938334273 6.891948296476038 a27.935317748163726,27.935317748163726 0 0,0 -0.4773914032457989,-0.05780545060170668 l 0.8929095201306155 -6.877597317148982" fill="#ff5908" stroke="none" /><path d="M 96.93821686468263 120.77559828337769 l -0.995812375239006 6.757042206856798 a27.83002647666342,27.83002647666342 0 0,0 -0.4733279701090282,-0.07392409444967371 l 1.1119762089565515 -6.738899805060019" fill="#ff5808" stroke="none" /><path d="M 96.22490169976321 120.6578951692458 l -2.242018913951422 12.268658458236608 a33.47183343279474,33.47183343279474 0 0,0 -0.5658849937287621,-0.10845320586575075 l 2.452871522251879 -12.228248054022389" fill="#ffa30f" stroke="none" /><path d="M 95.51606077576429 120.51570834832081 l -1.4786210966094708 6.765247622392738 a27.924947345621423,27.924947345621423 0 0,0 -0.4687133937427055,-0.1066776424160408 l 1.594854639745039 -6.73879324639901" fill="#ff5908" stroke="none" /><path d="M 95.16358092515715 120.4354850818985 l -1.4431110985344024 6.097626129840739 a27.26606846930591,27.26606846930591 0 0,0 -0.4557935130531694,-0.11202295610739131 l 1.5478578963307823 -6.0718819154193175" fill="#ff5007" stroke="none" /><path d="M 94.81253420990036 120.34920634021253 l -0.9740385918895165 3.820923952408198 a24.943121990070406,24.943121990070406 0 0,0 -0.4151361676975482,-0.10964123500283622 l 1.039665202398554 -3.80359136810178" fill="#ff3004" stroke="none" /><path d="M 94.46302465271185 120.25689768951611 l -1.285482045050437 4.7029066656491825 a25.87542769343927,25.87542769343927 0 0,0 -0.4286311812623925,-0.12113545330589788 l 1.3662443944174434 -4.680082419004764" fill="#ff3d05" stroke="none" /><path d="M 93.08242187328487 119.8279376855182 l -2.3616673577254668 6.76927565473542 a28.169418776884193,28.169418776884193 0 0,0 -0.4564524856287325,-0.16366762154489642 l 2.4778394039839258 -6.727620492150566" fill="#ff5d08" stroke="none" /><path d="M 92.40401165467489 119.57807347666478 l -0.21728414804292928 0.5600331151530884 a21.60070749209479,21.60070749209479 0 0,0 -0.34548678043711295,-0.13747631997047566 l 0.22689200452190036 -0.5562099507765461" fill="#ff0000" stroke="none" /><path d="M 92.06813273071674 119.44442032107085 l -1.203442332482042 2.9501550833521724 a24.18617144288227,24.18617144288227 0 0,0 -0.38413230769946094,-0.16056733577242785 l 1.2540460996789653 -2.9290027045597715" fill="#ff2503" stroke="none" /><path d="M 90.42595943632237 118.69057910512821 l -4.38256709882007 8.555710256210157 a30.61285973911405,30.61285973911405 0 0,0 -0.4669322606723143,-0.2442768902022489 l 4.52919026201888 -8.479003947063191" fill="#ff7e0b" stroke="none" /><path d="M 90.10565033884886 118.52300852407294 l -1.5995060327818804 2.994402350247837 a24.394829153886157,24.394829153886157 0 0,0 -0.3686839181812047,-0.20103586827635245 l 1.6508127628317257 -2.9664258302117186" fill="#ff2803" stroke="none" /><line stroke="#e1ed5e" stroke-width="0.3" x1="58.666819895761336" x2="56.23545636021788" y1="174.27360380694188" y2="178.64263932499728" /><path d="M 58.180547188652646 175.14741091055294 a86.0,86.0 0 0,1 -31.652253787137756,-30.449443065178592" fill="none" id="id20" stroke="none" /><text fill="#e1ed5e" style="font-size:6.75px; font-family:Arial;" text-anchor="middle"><textPath startOffset="22.20632615414155" xlink:href="#id20">August</textPath></text><path d="M 89.4739219176387 118.17145234162733 l -6.236635449167551 10.766471894841668 a33.44236869684502,33.44236869684502 0 0,0 -0.49563521939870797,-0.292830023897842 l 6.42103853959464 -10.657523298650078" fill="#ffa30f" stroke="none" /><path d="M 89.1626897886671 117.98757091392108 l -3.6232737498316814 6.013844048451412 a28.020999423537493,28.020999423537493 0 0,0 -0.4110024124349683,-0.2524712505680315 l 3.7262553621989585 -5.950584331055003" fill="#ff5b08" stroke="none" /><path d="M 88.54995079064634 117.60387380957326 l -4.095641323722541 6.296842198126676 a28.511624293100162,28.511624293100162 0 0,0 -0.4091082752157824,-0.27113465682061627 l 4.203424297678285 -6.2254095202147415" fill="#ff6109" stroke="none" /><path d="M 88.24862548938628 117.40417183066458 l -3.2943157704658375 4.878989915764443 a26.887024629952812,26.887024629952812 0 0,0 -0.38133881804791553,-0.26228831628634364 l 3.377811473136643 -4.821560810112998" fill="#ff4b07" stroke="none" /><path d="M 87.95078237400918 117.19931262002967 l -2.284270495213733 3.260616877824905 a24.98114482520551,24.98114482520551 0 0,0 -0.3500603924336751,-0.2497587953215469 l 2.340058215496295 -3.220813820659139" fill="#ff3004" stroke="none" /><path d="M 87.65650970185807 116.9893568818739 l -2.5671573493048587 3.53338896258791 a25.367508948706117,25.367508948706117 0 0,0 -0.35105616016836017,-0.2597029547250836 l 2.627598479891783 -3.4886760591230597" fill="#ff3605" stroke="none" /><path d="M 87.07902340077011 116.55440617244103 l -7.7052080784501795 9.871942975381653 a33.52299842854742,33.52299842854742 0 0,0 -0.45183016794514885,-0.35896121178283874 l 7.8739957391126865 -9.737847849593683" fill="#ffa40f" stroke="none" /><path d="M 86.51685102203217 116.09983520530335 l -3.9524493066782385 4.719504516253287 a27.155938466293865,27.155938466293865 0 0,0 -0.3557874375250733,-0.30320977290248863 l 4.033102220780369 -4.6507703531278475" fill="#ff4f07" stroke="none" /><path d="M 86.24171649860922 115.8653595955263 l -4.32086582293498 4.982604845870011 a27.59516736026425,27.59516736026425 0 0,0 -0.35618481599153123,-0.3142916872140898 l 4.4059929918331 -4.907490016883632" fill="#ff5507" stroke="none" /><path d="M 85.44109423537348 115.13401014063109 l -2.3615780202072774 2.4548648286841406 a24.406378145866448,24.406378145866448 0 0,0 -0.30025661696757006,-0.29386429534357983 l 2.403484589550642 -2.413850430417991" fill="#ff2803" stroke="none" /><path d="M 84.9287848128048 114.62390073753433 l -7.118868833480298 6.907580436698488 a30.919322605791024,30.919322605791024 0 0,0 -0.36734135361644576,-0.3851559406554647 l 7.236716738475701 -6.784017379460524" fill="#ff820b" stroke="none" /><path d="M 84.67929136418377 114.36230785411682 l -4.444619082005795 4.166581916506007 a27.092211720802627,27.092211720802627 0 0,0 -0.3160159322071817,-0.3429728805062712 l 4.515681422208706 -4.089457781198392" fill="#ff4e07" stroke="none" /><path d="M 84.43433777217949 114.09645910891817 l -4.6577176664091455 4.218087586924053 a27.283836149275587,27.283836149275587 0 0,0 -0.3122585031487213,-0.35082573851725546 l 4.729635019206205 -4.137287678665934" fill="#ff5007" stroke="none" /><path d="M 84.19399662182784 113.82643327865904 l -2.8922899436772123 2.530054750210612 a24.842722753121752,24.842722753121752 0 0,0 -0.2787796999728374,-0.3242837726576947 l 2.935412153220829 -2.479893878391387" fill="#ff2e04" stroke="none" /><path d="M 83.72743513129214 113.27417163493432 l -5.05137520012008 4.120605567705388 a27.51887886503445,27.51887886503445 0 0,0 -0.2962631234150641,-0.3696337989979862 l 5.121556235590005 -4.033043935129141" fill="#ff5407" stroke="none" /><path d="M 83.50135304334701 112.99209946851258 l -10.241218676412123 8.064596574028842 a34.03534724815301,34.03534724815301 0 0,0 -0.3584946088051057,-0.4634026074401854 l 10.378520102435298 -7.887115972475405" fill="#ffab0f" stroke="none" /><path d="M 83.28015986056508 112.70617746262583 l -2.512556600082787 1.9094076127107438 a24.15575317477418,24.15575317477418 0 0,0 -0.24873378421615935,-0.3332195514516297 l 2.545051650994031 -1.865875181749806" fill="#ff2503" stroke="none" /><path d="M 83.06392112726016 112.41649034213515 l -5.268087258911004 3.862237242947593 a27.532198702451716,27.532198702451716 0 0,0 -0.2769217488708515,-0.3846200889210053 l 5.333788800157463 -3.7709835485754497" fill="#ff5407" stroke="none" /><path d="M 82.85270091963577 112.12312394758628 l -4.909652642606011 3.471119693367063 a27.012766501098213,27.012766501098213 0 0,0 -0.26516129436083263,-0.38198462119062254 l 4.968674844128977 -3.386093809989428" fill="#ff4d07" stroke="none" /><path d="M 82.44556493220864 111.52570212397912 l -0.519835973888306 0.34130831127446964 a21.621868798938678,21.621868798938678 0 0,0 -0.20159317883484723,-0.3128770903490401 l 0.525634016100199 -0.33230962100398126" fill="#ff0000" stroke="none" /><line stroke="#e1ed5e" stroke-width="0.3" x1="26.63291911575756" x2="22.317208475507996" y1="142.92168965132927" y2="145.44649492493687" /><path d="M 25.769776987707644 143.4266507060508 a86.0,86.0 0 0,1 -11.730757126820373,-40.83630448921669" fill="none" id="id21" stroke="none" /><text fill="#e1ed5e" style="font-size:6.75px; font-family:Arial;" text-anchor="middle"><textPath startOffset="21.46611528233685" xlink:href="#id21">September</textPath></text><path d="M 81.87401531095188 110.60418214915194 l -5.859187677799229 3.4277803080673563 a27.788207280574795,27.788207280574795 0 0,0 -0.23798350523406453,-0.41494430106495056 l 5.91732317918567 -3.326416161144099" fill="#ff5708" stroke="none" /><path d="M 81.69416730710424 110.29060199501025 l -6.0378420175468674 3.394165682254786 a27.926463520978835,27.926463520978835 0 0,0 -0.2319540018404939,-0.42106388893474517 l 6.0953724288388775 -3.289731274922218" fill="#ff5908" stroke="none" /><path d="M 81.51974371655577 109.97397251340807 l -4.539586735857191 2.4500587346417957 a26.158549751196077,26.158549751196077 0 0,0 -0.210448636616148,-0.39808951083832456 l 4.581087880698225 -2.371554208717345" fill="#ff4106" stroke="none" /><path d="M 81.35079622478065 109.6543875284942 l -3.181026426936224 1.6467653114945016 a24.58200573980671,24.58200573980671 0 0,0 -0.1912963846343257,-0.3774459151762427 l 3.208901481356816 -1.5917651846155738" fill="#ff2b04" stroke="none" /><path d="M 81.18737489456691 109.33194174019688 l -8.887832656549415 4.408780597216341 a30.921235592667756,30.921235592667756 0 0,0 -0.23241982570245934,-0.47885368142547036 l 8.962405738866593 -4.2551379598255865" fill="#ff820c" stroke="none" /><path d="M 80.87730276802145 108.67885076344099 l -6.254821752294869 2.8387556358583343 a27.868866625077132,27.868866625077132 0 0,0 -0.1944967077304734,-0.4385387303009489 l 6.302759544756622 -2.7306685690646897" fill="#ff5908" stroke="none" /><path d="M 80.58989483394504 108.01547362559985 l -6.453408184690107 2.6649584150670074 a27.982011211124036,27.982011211124036 0 0,0 -0.18001412202111064,-0.4467802880056951 l 6.498324920968606 -2.553478759218507" fill="#ff5a08" stroke="none" /><path d="M 80.45479744820244 107.68017299344265 l -5.374461607710673 2.1118632454406403 a26.77449599014486,26.77449599014486 0 0,0 -0.16486169012030397,-0.4304018502949057 l 5.410017577424486 -2.0190378283125767" fill="#ff4906" stroke="none" /><path d="M 80.32549172779594 107.34259656027581 l -3.449482694725619 1.2873592274123886 a24.68187786891626,24.68187786891626 0 0,0 -0.14512443379253487,-0.39932011333286965 l 3.471131389523378 -1.2277913170734018" fill="#ff2c04" stroke="none" /><path d="M 80.20201598880116 107.00284435728193 l -9.502201938417326 3.3610715711538655 a31.079119196878302,31.079119196878302 0 0,0 -0.17405663732196258,-0.5058900621635454 l 9.558649406682518 -3.1970088059010235" fill="#ff840c" stroke="none" /><path d="M 79.97269907076064 106.31721596034903 l -11.127730517462139 3.510022497576994 a32.66818942264629,32.66818942264629 0 0,0 -0.16454380150544726,-0.5377386637604435 l 11.186501091473717 -3.317956861264503" fill="#ff990e" stroke="none" /><path d="M 79.86692584326677 105.97154293290107 l -4.114415867258906 1.220350692789212 a25.291581729635702,25.291581729635702 0 0,0 -0.12020409911497745,-0.41844623831554595 l 4.134812603259987 -1.14934697896907" fill="#ff3505" stroke="none" /><path d="M 79.67330655649465 105.27499134158121 l -5.961976369900974 1.5471957511115964 a27.15946238948785,27.15946238948785 0 0,0 -0.11353778607742512,-0.4535270169965228 l 5.987725470273457 -1.4443408947176817" fill="#ff4f07" stroke="none" /><path d="M 79.50377843672027 104.57218783832718 l -6.337921725680166 1.4138297902839156 a27.493702062517414,27.493702062517414 0 0,0 -0.0990636855040098,-0.4627925586756772 l 6.361319449908617 -1.3045234121920746" fill="#ff5307" stroke="none" /><path d="M 79.4281124754447 104.21870165774334 l -18.114978843154475 3.714860446538114 a39.49196167596038,39.49196167596038 0 0,0 -0.13083135336757026,-0.6671062521764453 l 18.17624012949771 -3.4024904672937137" fill="#ffef16" stroke="none" /><path d="M 79.35854240842038 103.8639653848113 l -3.3234318278782364 0.6221278456100982 a24.381159885429486,24.381159885429486 0 0,0 -0.0736700635536933,-0.4131808399333287 l 3.3336483337711185 -0.5648282549435558" fill="#ff2803" stroke="none" /><path d="M 79.29508885075956 103.50808413554451 l -6.124209123804103 1.0376398485903315 a27.211492078999054,27.211492078999054 0 0,0 -0.07427214224665993,-0.4624927006682551 l 6.141163020412054 -0.9320679182288629" fill="#ff4f07" stroke="none" /><path d="M 79.23777060512086 103.15116336523772 l -3.587297386343416 0.5444579138908126 a24.628379384527566,24.628379384527566 0 0,0 -0.06000640014917057,-0.4196846228827497 l 3.5961378375091853 -0.4826278190276622" fill="#ff2b04" stroke="none" /><path d="M 79.18660465613746 102.79330883721812 l -6.97934974348337 0.9366794314151616 a28.041923827981783,28.041923827981783 0 0,0 -0.06008782143209655,-0.4789590577486635 l 6.994439074162314 -0.8164026193790895" fill="#ff5b08" stroke="none" /><path d="M 79.04373962182676 101.35467743843564 l -11.036811867006517 0.7134536295447473 a32.05984775072453,32.05984775072453 0 0,0 -0.030859357763443042,-0.5510145630102945 l 11.047457575657491 -0.5233673501990151" fill="#ff910d" stroke="none" /><line stroke="#e1ed5e" stroke-width="0.3" x1="15.007084014347285" x2="10.007500721073583" y1="101.09737516637583" y2="101.16192664675087" /><path d="M 14.007167355692545 101.11028546245083 a86.0,86.0 0 0,1 10.666146001902534,-42.60595125391555" fill="none" id="id22" stroke="none" /><text fill="#e1ed5e" style="font-size:6.75px; font-family:Arial;" text-anchor="middle"><textPath startOffset="22.20632615414155" xlink:href="#id22">October</textPath></text><path d="M 79.00175016825051 100.2711162175752 l -10.706071526075116 0.13823007348214067 a31.706963858846784,31.706963858846784 0 0,0 -0.002348886172230378,-0.5457984242815109 l 10.706864709536848 0.046077829003045655" fill="#ff8c0c" stroke="none" /><path d="M 79.01574976396665 99.18683210126434 l -6.755366145469768 -0.26177951710987657 a27.76043639678219,27.76043639678219 0 0,0 0.022613376219637854,-0.47733263134173437 l 6.749859161016632 0.37802325507462003" fill="#ff5708" stroke="none" /><path d="M 79.12142395522702 97.74499172005258 l -5.897630511245482 -0.6369785758573615 a26.931929479796175,26.931929479796175 0 0,0 0.05374798368716643,-0.46047990089114593 l 5.885792174554727 0.7384022150733692" fill="#ff4c07" stroke="none" /><path d="M 79.16333360222342 97.38593545837743 l -6.356211520514698 -0.7974186867340401 a27.40603632954703,27.40603632954703 0 0,0 0.06275199412814185,-0.46757524445648985 l 6.341543527328722 0.9067122732551894" fill="#ff5207" stroke="none" /><path d="M 79.21141760316559 97.0276538004421 l -4.668725167717876 -0.6675331316078433 a25.71620559067101,25.71620559067101 0 0,0 0.06642631411415097,-0.4376664144768221 l 4.656542960164423 0.7477986584767575" fill="#ff3b05" stroke="none" /><path d="M 79.26566170972629 96.67025291283419 l -13.460627226085757 -2.1616549161112477 a34.63309346025285,34.63309346025285 0 0,0 0.09959181161241941,-0.5877965097057273 l 13.421423552953113 2.393037214132803" fill="#ffb210" stroke="none" /><path d="M 79.32604984820605 96.31383870115002 l -0.9991033605904558 -0.17813993524792962 a22.014860267067974,22.014860267067974 0 0,0 0.06972869018521793,-0.3724934511660673 l 0.9958889464953762 0.1953114638765696" fill="#ff0601" stroke="none" /><path d="M 79.3925641242962 95.95851677861259 l -6.016522234682981 -1.179946588660444 a27.131134785056197,27.131134785056197 0 0,0 0.09382295765314111,-0.45751406206191964 l 5.995319981114845 1.2833363068857664" fill="#ff4e07" stroke="none" /><path d="M 79.54389044137918 95.25157060432595 l -4.7249604431455605 -1.096794138559655 a25.85058847684166,25.85058847684166 0 0,0 0.10434676175199606,-0.43258469338369426 l 4.70538088113275 1.177964063602746" fill="#ff3d05" stroke="none" /><path d="M 79.81627453868168 94.20196356495316 l -60.551176383954946 -17.394109305140535 a84.0,84.0 0 0,0 0.4111764115531722,-1.3862824530138431 l 60.24279407529007 18.433821144900918" fill="#4dd2ff" stroke="none" /><path d="M 80.2630227832202 92.82701384747504 l -6.573190409393778 -2.3888867715977486 a27.99382671830387,27.99382671830387 0 0,0 0.16849005940353093,-0.45146959121425523 l 6.531095761488619 2.5016794998413454" fill="#ff5a08" stroke="none" /><path d="M 80.52162464483688 92.15188598940014 l -14.616741483784063 -5.889292691846326 a36.75858178942536,36.75858178942536 0 0,0 0.2415184337028842,-0.5848560442818493 l 14.513201363194979 6.1400233065814875" fill="#ffcd13" stroke="none" /><path d="M 80.95270993114464 91.15688171328213 l -7.0609071663865635 -3.2781795761061057 a28.78478460495397,28.78478460495397 0 0,0 0.21251642833467657,-0.44761379651911265 l 7.003432544210136 3.3992357882657505" fill="#ff6509" stroke="none" /><path d="M 81.10775173730289 90.83032412892265 l -6.257895661846308 -3.037376709020629 a27.956070398368308,27.956070398368308 0 0,0 0.21385060888892216,-0.4311097781790283 l 6.204685040003973 3.1446460756986188" fill="#ff5a08" stroke="none" /><path d="M 81.26839172434947 90.50648371742162 l -7.504890983998864 -3.8036138545660756 a29.413730863080566,29.413730863080566 0 0,0 0.23277545738148608,-0.44964809272104317 l 7.438306093457265 3.9322346695474546" fill="#ff6e0a" stroke="none" /><path d="M 81.6062741919709 89.86733742301443 l -15.635100613594417 -8.613002092573193 a38.850495126015154,38.850495126015154 0 0,0 0.3277175401704405,-0.5829729362574121 l 15.484525432131546 8.880858538765391" fill="#ffe715" stroke="none" /><line stroke="#e1ed5e" stroke-width="0.3" x1="26.266209847984243" x2="21.928928074336255" y1="57.711370442889674" y2="55.22380399835377" /><path d="M 25.398753493254645 57.213857153982495 a86.0,86.0 0 0,1 29.58750427330803,-30.492523968695096" fill="none" id="id23" stroke="none" /><text fill="#e1ed5e" style="font-size:6.75px; font-family:Arial;" text-anchor="middle"><textPath startOffset="21.46611528233685" xlink:href="#id23">November</textPath></text><path d="M 81.96595687620814 89.24020034530311 l -6.168922975972603 -3.680615314663025 a28.183490779420175,28.183490779420175 0 0,0 0.25215393650472023,-0.41447477220029605 l 6.1046532411816665 3.7862578600703953" fill="#ff5d08" stroke="none" /><path d="M 82.15384107792192 88.93136811851018 l -5.872919586857713 -3.642530880754357 a27.91080427236556,27.91080427236556 0 0,0 0.2567427215238719,-0.40610532855282955 l 5.809349269087878 3.743083857021402" fill="#ff5908" stroke="none" /><path d="M 82.54541684631803 88.32363383020206 l -6.304088614005408 -4.217164418988354 a28.584590232175632,28.584590232175632 0 0,0 0.2771011061978695,-0.4066116808647938 l 6.230563042138798 4.3250541231235635" fill="#ff6209" stroke="none" /><path d="M 82.95767976084542 87.72973835380427 l -5.406985487922734 -3.8929632657393625 a27.66263124110911,27.66263124110911 0 0,0 0.2815494539273052,-0.3840331387452072 l 5.339173421481796 3.98545884815607" fill="#ff5607" stroke="none" /><path d="M 83.17141714833178 87.43820079747576 l -2.8511538611698075 -2.128261340554079 a24.557889075527868,24.557889075527868 0 0,0 0.2557810094345458,-0.3365778261029496 l 2.814096911511153 2.177023942538055" fill="#ff2a04" stroke="none" /><path d="M 83.39014120810768 87.1503855733568 l -9.7189131401026 -7.518684418756989 a33.28771288782897,33.28771288782897 0 0,0 0.3545076739867823,-0.450188745145266 l 9.588051385521847 7.684865557855303" fill="#ffa10e" stroke="none" /><path d="M 83.84228863543731 86.58626213691792 l -5.36155472329643 -4.451031954599738 a27.968353787787343,27.968353787787343 0 0,0 0.31070095699657024,-0.36777193295733773 l 5.284143152812735 4.5426628371861915" fill="#ff5a08" stroke="none" /><path d="M 84.31358615837235 86.03803664274999 l -3.3937598754700837 -3.0206745469684786 a25.54335567736601,25.54335567736601 0 0,0 0.2951551283390054,-0.32591766464440874 l 3.3412611065150335 3.0786449988824436" fill="#ff3805" stroke="none" /><path d="M 84.5562425177563 85.77008943001954 l -3.4667837433517685 -3.1943018200121793 a25.714037933714707,25.714037933714707 0 0,0 0.3027309743478843,-0.3229322961275485 l 3.4112854470334284 3.2535035330177777" fill="#ff3b05" stroke="none" /><path d="M 84.80347519578584 85.50635884689758 l -9.050295703574111 -8.631693097404241 a33.506557402015474,33.506557402015474 0 0,0 0.4016570427795283,-0.4139428892351354 l 8.900374397091465 8.7862001821895" fill="#ffa40f" stroke="none" /><path d="M 85.31137513191541 84.99185889309783 l -2.07869060604617 -2.123907596069004 a23.97185768708803,23.97185768708803 0 0,0 0.29738431472498417,-0.28608347514814797 l 2.0418230477087587 2.1593741579794656" fill="#ff2203" stroke="none" /><path d="M 85.57189188830299 84.74124197986013 l -4.185772649070658 -4.4267544632348 a27.092359784802373,27.092359784802373 0 0,0 0.3416115847813789,-0.317490737878834 l 4.108953180494423 4.498149787188281" fill="#ff4e07" stroke="none" /><path d="M 85.83668400450813 84.49514656593479 l -5.540278282972932 -6.065048805574332 a29.214590705980434,29.214590705980434 0 0,0 0.3742097096090281,-0.3359691720901948 l 5.435057585767932 6.159516986433805" fill="#ff6b09" stroke="none" /><path d="M 86.37877921826538 84.01681056812374 l -1.930926953230231 -2.265756628361781 a23.97693332099937,23.97693332099937 0 0,0 0.3164298265118544,-0.26500087966903274 l 1.8916395897592662 2.298658665424626" fill="#ff2203" stroke="none" /><path d="M 86.65592168130627 83.78471172551755 l -7.945286701250964 -9.65485297727239 a33.50375010858026,33.50375010858026 0 0,0 0.44846620432696,-0.36262848183173296 l 7.777917098359503 9.790187556368256" fill="#ffa40f" stroke="none" /><path d="M 87.22198572758235 83.33499621200491 l -3.744776764325824 -4.883913699908415 a27.154345297656583,27.154345297656583 0 0,0 0.37337722127957695,-0.2812199821461914 l 3.660153389287857 4.9476502715604616" fill="#ff4f07" stroke="none" /><path d="M 87.51073957382395 83.11751280151077 l -2.662453600403087 -3.5989992434755482 a25.476768335399647,25.476768335399647 0 0,0 0.3548000106598712,-0.25777729668115257 l 2.600108273389434 3.6442957749733687" fill="#ff3705" stroke="none" /><path d="M 87.80319425747018 82.90503203632743 l -3.0539277544428 -4.280366370313413 a26.258137597426114,26.258137597426114 0 0,0 0.3702008035773997,-0.2593493208807699 l 2.97979581128174 4.332300533958125" fill="#ff4206" stroke="none" /><path d="M 89.00827224532344 82.1063720568725 l -13.230261811377385 -21.53777711081248 a46.27678125222096,46.27678125222096 0 0,0 0.6823355680493108,-0.41109954504493446 l 12.857564177110426 21.762323265316034" fill="#bfff1e" stroke="none" /><line stroke="#e1ed5e" stroke-width="0.3" x1="56.762969772571076" x2="54.21961505331055" y1="26.818313649435495" y2="22.513508569990535" /><path d="M 56.25429882871897 25.957352633546506 a86.0,86.0 0 0,1 42.265352541879196,-11.944610805530505" fill="none" id="id24" stroke="none" /><text fill="#e1ed5e" style="font-size:6.75px; font-family:Arial;" text-anchor="middle"><textPath startOffset="22.20632615414155" xlink:href="#id24">December</textPath></text><path d="M 90.26544431104013 81.39251694778311 l -1.4636491517168404 -2.7977472886461805 a24.15747663973124,24.15747663973124 0 0,0 0.3701149883406171,-0.18958727237220252 l 1.4152736757874596 2.8225270863308882" fill="#ff2503" stroke="none" /><path d="M 90.58718382345135 81.22770947309562 l -3.1565667805729962 -6.29524549944188 a28.042302871821136,28.042302871821136 0 0,0 0.43335871529057174,-0.2126472395368459 l 3.0477367982719987 6.348647899113556" fill="#ff5b08" stroke="none" /><path d="M 91.56875222667455 80.76684994638697 l -2.4796414018227395 -5.656495508445686 a27.176128473299407,27.176128473299407 0 0,0 0.4300508996216508,-0.1841253517773813 l 2.3819067444107804 5.698340388185854" fill="#ff4f07" stroke="none" /><path d="M 91.90106846888425 80.62456947434976 l -2.6892640653214577 -6.433644840998581 a27.973085913219265,27.973085913219265 0 0,0 0.4458591939306922,-0.18187716006198215 l 2.5781210018023852 6.478982887244141" fill="#ff5a08" stroke="none" /><path d="M 93.59665428221793 80.00007090966166 l -3.8514715048627375 -12.029517128335527 a33.63103776788303,33.63103776788303 0 0,0 0.5528536270662451,-0.17177431308303967 l 3.6438325050857636 12.094031576301093" fill="#ffa50f" stroke="none" /><path d="M 94.28887869178378 79.79150937346287 l -1.8648309881405318 -6.598602535319688 a27.8570511178973,27.8570511178973 0 0,0 0.4625625011815928,-0.12643580497264242 l 1.7509705977352166 6.6297248811186265" fill="#ff5808" stroke="none" /><path d="M 94.63758080256005 79.69619591428918 l -1.7264539695530532 -6.536897223092468 a27.761040497901156,27.761040497901156 0 0,0 0.4630688441557397,-0.11804655903321065 l 1.613676236712314 6.565646778294542" fill="#ff5708" stroke="none" /><path d="M 96.75951476605007 79.25152402106235 l -0.9152320626753733 -5.860131769348163 a26.931171392117466,26.931171392117466 0 0,0 0.4586391563435131,-0.06759148954147176 l 0.8142239259032114 5.875017743050603" fill="#ff4c07" stroke="none" /><path d="M 97.11714578562143 79.19881850522333 l -1.0203145650757266 -7.362060954747006 a28.432427820915322,28.432427820915322 0 0,0 0.4853622193600746,-0.06301394606190713 l 0.8934376172077941 7.378533223973051" fill="#ff6008" stroke="none" /><path d="M 97.83486435360386 79.11191278185805 l -0.3244573400778746 -3.130193357350959 a24.146964095749183,24.146964095749183 0 0,0 0.41380407786258877,-0.039295683313510195 l 0.2705281351250495 3.1353145851796493" fill="#ff2503" stroke="none" /><path d="M 98.19473922651362 79.07773832637324 l -1.2226532487687622 -14.170069821795146 a35.22271984260656,35.22271984260656 0 0,0 0.6045054185055897,-0.04692125488600803 l 0.9785576409008384 14.189016338869616" fill="#ffba11" stroke="none" /><path d="M 98.91598698831166 79.02799685794201 l -0.16839670183496658 -3.257909381082678 a24.26225857107241,24.26225857107241 0 0,0 0.41726367189921426,-0.017968251449432107 l 0.11229219754642825 3.2603253590563024" fill="#ff2603" stroke="none" /></svg>