<?xml version="1.0" encoding="utf-8" ?>
<svg baseProfile="full" height="200mm" version="1.1" viewBox="0,0,200,200" width="200mm" xmlns="http://www.w3.org/2000/svg" xmlns:ev="http://www.w3.org/2001/xml-events" xmlns:xlink="http://www.w3.org/1999/xlink"><defs /><rect fill="#1a1a1a" height="200" width="200" x="0" y="0" /><rect fill="#1a1a1a" height="200" width="180" x="10" y="0" /><text alignment-baseline="middle" fill="#e1ed5e" style="dominant-baseline: central; font-size:9.0px; font-family:Arial;" text-anchor="middle" x="100.0" y="100.0">2023</text><line stroke="#e1ed5e" stroke-width="0.3" x1="100.0" x2="100.0" y1="15.0" y2="10.0" /><path d="M 100.0 14.0 a86.0,86.0 0 0,1 42.46469731375804,11.215312516191453" fill="none" id="id61" stroke="none" /><text fill="#e1ed5e" style="font-size:6.75px; font-family:Arial;" text-anchor="middle"><textPath startOffset="22.20632615414155" xlink:href="#id61">January</textPath></text><path d="M 105.01212808612495 79.60689891045804 l 1.0497898621505137 -4.271333536123449 a25.398448468663336,25.398448468663336 0 0,0 0.42365955903639063,0.1080002547719544 l -1.1231583098719295 4.252630285182627" fill="#ff1a02" stroke="none" /><path d="M 105.36241919743992 79.69619591428918 l 2.2799535077554323 -8.632620397915854 a29.928623798326324,29.928623798326324 0 0,0 0.49696068052885095,0.13583812678699966 l -2.428212077507994 8.592095730302562" fill="#ff5b08" stroke="none" /><path d="M 105.71112130821622 79.79150937346287 l 2.6808270449597695 -9.485959986788936 a30.85749818746869,30.85749818746869 0 0,0 0.5098977965539644,0.14885314913231695 l -2.843715059237161 9.438408508737917" fill="#ff6809" stroke="none" /><path d="M 106.0581310904928 79.89281104454417 l 3.2351818802023855 -10.737703162710003 a32.214484874859934,32.214484874859934 0 0,0 0.529567209018618,0.16453910964316942 l -3.419534461931722 10.680423918184314" fill="#ff7b0b" stroke="none" /><path d="M 106.74666289553966 80.11325718540242 l 4.749539575864221 -13.999939450866771 a35.78365417650982,35.78365417650982 0 0,0 0.5816002443247238,0.20290890522474114 l -4.989821824252218 13.916109692469822" fill="#ffac0f" stroke="none" /><path d="M 107.08798089147638 80.2323363322302 l 3.0347025446292535 -8.463479254874361 a29.991101191292863,29.991101191292863 0 0,0 0.4844529330299846,0.17842810370142725 l -3.1799378034318146 8.40998788336661" fill="#ff5c08" stroke="none" /><path d="M 107.76421540070413 80.48803036053334 l 3.3752048133903845 -8.482105460376893 a30.128971495918318,30.128971495918318 0 0,0 0.48022155963788343,0.19589443182156602 l -3.5207102426166554 8.422750142371749" fill="#ff5e08" stroke="none" /><path d="M 108.09893153111575 80.62456947434976 l 6.053686283761329 -14.482500261233916 a36.6968127796327,36.6968127796327 0 0,0 0.5807117582857083,0.24863046878796335 l -6.302081799837353 14.376150264483162" fill="#ffb811" stroke="none" /><path d="M 108.43124777332544 80.76684994638697 l 8.069170457477572 -18.40718840073129 a41.09816152517054,41.09816152517054 0 0,0 0.6454718366258013,0.28960439804156896 l -8.384824412570152 18.26556367217319" fill="#fff116" stroke="none" /><path d="M 108.76106565485865 80.91482961587045 l 9.580794247999382 -20.870873229554253 a43.964863765906,43.964863765906 0 0,0 0.685060064830917,0.32164488609070835 l -9.938632524129897 20.702863360823542" fill="#e9ff1a" stroke="none" /><path d="M 109.41281617654863 81.2277094730956 l 8.740525377194965 -17.431518757083307 a40.500118718816466,40.500118718816466 0 0,0 0.6204994499614058,0.31784391859962224 l -9.039285314745126 17.278482313171185" fill="#ffe915" stroke="none" /><path d="M 109.73455568895987 81.39251694778311 l 7.2161203604853 -13.793525005231606 a36.56707182250278,36.56707182250278 0 0,0 0.55521866593143,0.2965785829004999 l -7.452484072945042 13.667267695829352" fill="#ffb610" stroke="none" /><path d="M 110.05341064243156 81.56283822128135 l 8.511209284639373 -15.608886187451551 a38.77858294408605,38.77858294408605 0 0,0 0.5832962005694677,0.3246037040955121 l -8.778629574280876 15.46006708579586" fill="#ffd313" stroke="none" /><path d="M 110.36928655335952 81.73862282372117 l 5.5437099870441635 -9.763041893804946 a32.227186087379316,32.227186087379316 0 0,0 0.48003662436096006,0.2780681970500175 l -5.710943343870452 9.66616953936488" fill="#ff7b0b" stroke="none" /><line stroke="#e1ed5e" stroke-width="0.3" x1="143.23703022742887" x2="145.7803849466894" y1="26.81831364943548" y2="22.513508569990506" /><path d="M 143.74570117128098 25.957352633546492 a86.0,86.0 0 0,1 28.547481713284135,27.462654790039103" fill="none" id="id62" stroke="none" /><text fill="#e1ed5e" style="font-size:6.75px; font-family:Arial;" text-anchor="middle"><textPath startOffset="19.985693538727396" xlink:href="#id62">February</textPath></text><path d="M 113.34407831869373 83.78471172551755 l 9.835824257332126 -11.95217248735396 a36.47894912416809,36.47894912416809 0 0,0 0.4814221814007139,0.40317723196234095 l -10.040103975691958 11.781094097997801" fill="#ffb510" stroke="none" /><path d="M 113.89432698308785 84.25364557470407 l 11.885557444704189 -13.469828390704404 a38.96392920956853,38.96392920956853 0 0,0 0.499088992260076,0.44808702506446313 l -12.115657424560256 13.263242356870643" fill="#ffd614" stroke="none" /><path d="M 114.42810811169701 84.74124197986012 l 12.824013933599856 -13.562313502562672 a39.665253304227,39.665253304227 0 0,0 0.49206967295757276,0.4733706355188941 l -13.055566850169846 13.339559780281476" fill="#ffdf14" stroke="none" /><path d="M 114.68862486808459 84.99185889309783 l 8.01308008840982 -8.187385663927365 a32.456122228448564,32.456122228448564 0 0,0 0.39590936096771917,0.3942092003521432 l -8.152825249544861 8.048240612925104" fill="#ff7f0b" stroke="none" /><path d="M 114.94478906791727 85.2469230424477 l 11.238720626981554 -11.094550050909234 a36.792336184474756,36.792336184474756 0 0,0 0.4410450399753093,0.4545356826480879 l -11.42802993065997 10.899450172711031" fill="#ffb911" stroke="none" /><path d="M 115.4437574822437 85.77008943001954 l 13.422610538757018 -12.36762153263498 a39.251699538663445,39.251699538663445 0 0,0 0.45355592903263353,0.5008277850627618 l -13.633510108405687 12.134740960302668" fill="#ffd914" stroke="none" /><path d="M 115.68641384162765 86.03803664274999 l 18.52701792686459 -16.490292046710213 a45.80282494088438,45.80282494088438 0 0,0 0.5191164289071403,0.5934398165892513 l -18.80812621934958 16.168936673918015" fill="#d3ff1c" stroke="none" /><path d="M 116.15771136456269 86.58626213691792 l 11.97484266239991 -9.94122229323729 a36.5635714883439,36.5635714883439 0 0,0 0.3978491057218383,0.4877159614071913 l -12.144190260198156 9.733622162221998" fill="#ffb610" stroke="none" /><path d="M 116.38621287248628 86.86637796730983 l 13.707405847041553 -10.986546363376721 a38.56693416763822,38.56693416763822 0 0,0 0.41073035479016723,0.5215858402629381 l -13.894490282425684 10.748968129160746" fill="#ffd113" stroke="none" /><path d="M 116.60985879189232 87.15038557335679 l 12.546092992922249 -9.705829504014373 a36.86214284855765,36.86214284855765 0 0,0 0.3839351207559615,0.505213614545856 l -12.711304053902325 9.488431113587485" fill="#ffba11" stroke="none" /><path d="M 116.82858285166822 87.43820079747576 l 7.333600530498288 -5.474211233806455 a30.151430782847978,30.151430782847978 0 0,0 0.30688038307153104,0.4185844976304572 l -7.426743526083445 5.3471642925045035" fill="#ff5e08" stroke="none" /><path d="M 117.2510076193507 88.02491185347247 l 24.424454074450367 -16.954661253773494 a50.732381254537,50.732381254537 0 0,0 0.49180341056142407,0.7216608196454605 l -24.712681950680526 16.53172241085763" fill="#9aff23" stroke="none" /><path d="M 117.45458315368197 88.32363383020206 l 9.048916048858501 -6.053336037643779 a31.886953607135737,31.886953607135737 0 0,0 0.30126089923054683,0.45884101785039855 l -9.151773583446973 5.896676955815706" fill="#ff770a" stroke="none" /><path d="M 117.65298651832404 88.62581576622439 l 13.167286676485066 -8.483955072521002 a36.66380962899179,36.66380962899179 0 0,0 0.3372588684196676,0.5334625369474753 l -13.311373141150689 8.256044887859321" fill="#ffb811" stroke="none" /><line stroke="#e1ed5e" stroke-width="0.3" x1="172.23445277983987" x2="176.4835382374775" y1="55.19839476539836" y2="52.563006222186495" /><path d="M 173.08426987136738 54.67131705675599 a86.0,86.0 0 0,1 12.851231095245387,41.99856678651699" fill="none" id="id63" stroke="none" /><text fill="#e1ed5e" style="font-size:6.75px; font-family:Arial;" text-anchor="middle"><textPath startOffset="22.20632615414155" xlink:href="#id63">March</textPath></text><path d="M 117.84615892207809 88.93136811851018 l 14.831525392655786 -9.198881144624456 a38.452608967885595,38.452608967885595 0 0,0 0.34403036855919866,0.5654954692166408 l -14.987671559501209 8.942217902200735" fill="#ffcf13" stroke="none" /><path d="M 118.21658344932153 89.55222093294921 l 13.769271937943259 -7.897107134385918 a36.87315818584949,36.87315818584949 0 0,0 0.3110380101923148,0.5533019135782864 l -13.903167589428007 7.658921710872837" fill="#ffba11" stroke="none" /><path d="M 118.3937258080291 89.86733742301442 l 15.90420809148017 -8.761246950565479 a39.15773342534514,39.15773342534514 0 0,0 0.32014598486162676,0.5931818882000243 l -16.05266217556026 8.486184079032997" fill="#ffd814" stroke="none" /><path d="M 118.56541770881063 90.18545643968196 l 25.70727269217948 -13.590060380630867 a50.078404537031766,50.078404537031766 0 0,0 0.3963123064974433,0.7655492324794526 l -25.93739443183704 13.145538425891068" fill="#a1ff22" stroke="none" /><path d="M 118.89224826269711 90.83032412892265 l 12.261301459348667 -5.95123240899777 a34.62925825798789,34.62925825798789 0 0,0 0.25566584505898676,0.5384974726137332 l -12.361925498249411 5.739292520743497" fill="#ff9c0e" stroke="none" /><path d="M 119.04729006885535 91.15688171328212 l 16.209676971763106 -7.525694748838478 a38.87147752653938,38.87147752653938 0 0,0 0.2765385085083958,0.6093159469298636 l -16.336817797234847 7.245556793066552" fill="#ffd413" stroke="none" /><path d="M 119.47837535516314 92.15188598940014 l 8.642439402010508 -3.4821615519746105 a30.3175752152303,30.3175752152303 0 0,0 0.1908656664476257,0.4857323023957685 l -8.701098618339833 3.3328802446830577" fill="#ff6108" stroke="none" /><path d="M 119.61058180528143 92.48833698450437 l 28.59800001721644 -10.954215493423778 a51.62418067575159,51.62418067575159 0 0,0 0.3107171218941937,0.8325674078425934 l -28.78232172761226 10.46032494855185" fill="#90ff24" stroke="none" /><path d="M 119.7369772167798 92.82701384747503 l 8.522636181232285 -3.0973715295680724 a30.06802282031913,30.06802282031913 0 0,0 0.1726003579585625,0.4879644545630228 l -8.574689620000658 2.950209448578435" fill="#ff5d08" stroke="none" /><path d="M 119.85752413597 93.16781622104841 l 10.134964542512384 -3.4870379546548715 a31.718066055739108,31.718066055739108 0 0,0 0.17318472810841928,0.5178002936759103 l -10.193486564392574 3.312064558056647" fill="#ff740a" stroke="none" /><path d="M 120.08093135843002 93.85539295169968 l 17.56906338179425 -5.375995204649121 a39.37316827751583,39.37316827751583 0 0,0 0.19272997671224865,0.6497896702700351 l -17.658999255618202 5.072776147632556" fill="#ffdb14" stroke="none" /><path d="M 120.28053869075195 94.5502522615342 l 15.294076126051186 -4.109795013377962 a36.836640413971494,36.836640413971494 0 0,0 0.15928105100777445,0.6137748643628714 l -15.362553508929263 3.8459237234662402" fill="#ffba11" stroke="none" /><path d="M 120.37134235888165 94.90015583598534 l 19.120884498471867 -4.786799490305322 a40.71095313180692,40.71095313180692 0 0,0 0.16433111884268073,0.6812585792256525 l -19.200448417575366 4.456955679420263" fill="#ffec16" stroke="none" /><path d="M 120.53481517161879 95.60439243477599 l 15.261660384862317 -3.2668553032947574 a36.60738995718185,36.60738995718185 0 0,0 0.12659306825737227,0.6173127594360539 l -15.315632749034686 3.003666887695292" fill="#ffb711" stroke="none" /><path d="M 120.67395015179393 96.31383870115 l 17.503632431997243 -3.120894264830426 a38.779683049107405,38.779683049107405 0 0,0 0.11151585096054084,0.6581728649194896 l -17.554760144478006 2.8191356115950987" fill="#ffd313" stroke="none" /><path d="M 120.78858239683441 97.02765380044208 l 16.12114721237577 -2.3049975094268778 a37.2850975115765,37.2850975115765 0 0,0 0.08537222208930066,0.6361222167965851 l -16.158435433522907 2.027156950565628" fill="#ffc011" stroke="none" /><path d="M 120.83666639777658 97.38593545837742 l 14.19160655301542 -1.7804083806253583 a35.30285113386108,35.30285113386108 0 0,0 0.07045381090414138,0.6036052264094474 l -14.220150716923152 1.5358594158910581" fill="#ffa50f" stroke="none" /><path d="M 120.87857604477298 97.74499172005257 l 15.749403847650772 -1.701027694825945 a36.84099797282235,36.84099797282235 0 0,0 0.06266982572973338,0.6310765925758337 l -15.776350799062733 1.4296755715456764" fill="#ffba11" stroke="none" /><path d="M 120.94382443527127 98.46500227214037 l 18.027401042139424 -1.3212495991083775 a39.075754170636245,39.075754170636245 0 0,0 0.043391594919808714,0.6712487678349371 l -18.047473228063645 1.010741767020405" fill="#ffd714" stroke="none" /><path d="M 120.96714384426684 98.82574320788733 l 8.970058454085502 -0.5023646588964331 a29.984114810053292,29.984114810053292 0 0,0 0.024424762605361527,0.5155681350310032 l -8.97737682492436 0.3478854172424301" fill="#ff5c08" stroke="none" /><line stroke="#e1ed5e" stroke-width="0.3" x1="184.98032266829074" x2="189.97916517819016" y1="98.17113171792111" y2="98.06355123074" /><path d="M 185.9800911702706 98.14961562048488 a86.0,86.0 0 0,1 -9.607161424134198,41.387399972396054" fill="none" id="id64" stroke="none" /><text fill="#e1ed5e" style="font-size:6.75px; font-family:Arial;" text-anchor="middle"><textPath startOffset="21.466115282336823" xlink:href="#id64">April</textPath></text><path d="M 120.99513854157772 99.54816195383933 l 14.408310966549227 -0.3100824061107481 a35.41164723435049,35.41164723435049 0 0,0 0.00786980502822293,0.609525072265295 l -14.411513778695165 0.06202107578499042" fill="#ffa70f" stroke="none" /><path d="M 120.99980553446 99.90962569577887 l 25.67355605598044 -0.11048815483714797 a46.67379380208405,46.67379380208405 0 0,0 -0.0034576451203371245,0.8034349559870947 l -25.6716541135706 -0.3314562793536315" fill="#c9ff1d" stroke="none" /><path d="M 120.99824983174949 100.27111621757518 l 10.075179299548092 0.1300843891739572 a31.076019048530483,31.076019048530483 0 0,0 -0.011509872769475446,0.5348185604209191 l -10.07144736409361 -0.3034927653849912" fill="#ff6b09" stroke="none" /><path d="M 120.9764740272857 100.99374915477107 l 21.4281439612959 1.015146774531863 a42.45217650029629,42.45217650029629 0 0,0 -0.04086254284941255,0.7296281524798864 l -21.40749506755896 -1.3838466433471728" fill="#fcff18" stroke="none" /><path d="M 120.92983693683757 101.71520430193887 l 17.899225213131583 1.4668450680999325 a38.95922876084089,38.95922876084089 0 0,0 -0.06052669366934342,0.6679070210331681 l -17.871323923185166 -1.7747334776816712" fill="#ffd614" stroke="none" /><path d="M 120.89721153311464 102.0752229133903 l 15.625540668997825 1.5517132503076712 a36.70239902720872,36.70239902720872 0 0,0 -0.06784298379172737,0.6281417717157556 l -15.596515383705045 -1.8204513439082182" fill="#ffb811" stroke="none" /><path d="M 120.81339534386255 102.79330883721812 l 14.327086160625788 1.9227990302823146 a35.455537138579444,35.455537138579444 0 0,0 -0.08638648592435963,0.604186881352734 l -14.291865623684828 -2.169131383615458" fill="#ffa70f" stroke="none" /><path d="M 120.64145759157962 103.86396538481128 l 24.161237015809956 4.522848402013759 a45.5809180422893,45.5809180422893 0 0,0 -0.15100321539203937,0.7699621420544366 l -24.07980386744225 -4.9380742711361405" fill="#d6ff1c" stroke="none" /><path d="M 120.49622156327973 104.57218783832717 l 14.721498909305856 3.2839934944723668 a36.083339928823136,36.083339928823136 0 0,0 -0.14044913262464234,0.605051187451649 l -14.662789210750661 -3.536913339272581" fill="#ffb010" stroke="none" /><path d="M 120.41448212921028 104.9243191809786 l 28.33827036480078 6.835671237208318 a50.15105432967637,50.15105432967637 0 0,0 -0.2096521498247279,0.837456122775533 l -28.216406900680994 -7.322455199381247" fill="#a0ff22" stroke="none" /><path d="M 120.13307415673323 105.97154293290107 l 12.36335346088976 3.6670155492197134 a33.89571680198949,33.89571680198949 0 0,0 -0.17072663639831115,0.5579445259267528 l -12.298400051985316 -3.8792870476985235" fill="#ff920d" stroke="none" /><path d="M 119.79798401119884 107.00284435728193 l 28.441024200457345 10.060017511117843 a51.16779424974584,51.16779424974584 0 0,0 -0.30085624798666083,0.8278271818422935 l -28.263643691465457 -10.548092489966267" fill="#95ff23" stroke="none" /><line stroke="#e1ed5e" stroke-width="0.3" x1="174.80103733775053" x2="179.2010983576182" y1="140.37084112569926" y2="142.7455964860345" /><path d="M 175.68104954172406 140.8457921977663 a86.0,86.0 0 0,1 -30.038265399797805,32.042727171017184" fill="none" id="id65" stroke="none" /><text fill="#e1ed5e" style="font-size:6.75px; font-family:Arial;" text-anchor="middle"><textPath startOffset="22.206326154141568" xlink:href="#id65">May</textPath></text><path d="M 118.48025628344425 109.97397251340804 l 7.921016873705139 4.275049185727639 a30.001030710641537,30.001030710641537 0 0,0 -0.24918511889074413,0.4523433714972362 l -7.846255345362886 -4.41076307562268" fill="#ff5c08" stroke="none" /><path d="M 118.30583269289576 110.29060199501025 l 11.573267733060188 6.505898640100448 a34.27656744555433,34.27656744555433 0 0,0 -0.29355105875387033,0.5118310144297517 l -11.459564678153939 -6.704149500388516" fill="#ff980e" stroke="none" /><path d="M 118.12598468904814 110.60418214915192 l 15.000240424262662 8.775538789683617 a38.37864476404663,38.37864476404663 0 0,0 -0.33849804643264453,0.5673421961923653 l -14.84696150213179 -9.032443079762086" fill="#ffce13" stroke="none" /><path d="M 117.14729908036423 112.12312394758627 l 7.927988203565635 5.60508003017735 a30.70926975114858,30.70926975114858 0 0,0 -0.30887706346815347,0.4290032260058617 l -7.830331347721879 -5.7407168616343425" fill="#ff6609" stroke="none" /><path d="M 116.93607887273984 112.41649034213515 l 7.801030286164724 5.719235127251048 a30.672937711287176,30.672937711287176 0 0,0 -0.3158417713061467,0.4231216667891869 l -7.701427248163485 -5.85266967354955" fill="#ff6609" stroke="none" /><path d="M 116.71984013943494 112.70617746262583 l 7.712199493277167 5.860855999312468 a30.68646757434213,30.68646757434213 0 0,0 -0.32322083005253693,0.4178064934492634 l -7.610171846006561 -5.992740486874984" fill="#ff6609" stroke="none" /><path d="M 116.498646956653 112.99209946851258 l 8.912634279446703 7.018383470430776 a32.34428298030265,32.34428298030265 0 0,0 -0.348212525203594,0.4344486653148617 l -8.790503842188256 -7.170759969323888" fill="#ff7d0b" stroke="none" /><path d="M 116.0416608686014 113.55231037782055 l 10.337261879100705 8.733121999642387 a34.53242044195149,34.53242044195149 0 0,0 -0.38751540665700124,0.4507679649772139 l -10.185403962872925 -8.909767063781128" fill="#ff9b0e" stroke="none" /><path d="M 115.56566222782051 114.09645910891815 l 7.15334823139308 6.478161954167216 a30.650749878843307,30.650749878843307 0 0,0 -0.3575243466879694,0.38802206641374437 l -7.040777476709389 -6.600335275382295" fill="#ff6509" stroke="none" /><path d="M 115.32070863581623 114.36230785411682 l 8.297904309326645 7.778821402291001 a32.373885806332076,32.373885806332076 0 0,0 -0.38462249595644676,0.4032751493098597 l -8.162775261991234 -7.920503668183368" fill="#ff7e0b" stroke="none" /><path d="M 115.07121518719521 114.62390073753431 l 9.190012525898263 8.917252476735706 a33.80522244867367,33.80522244867367 0 0,0 -0.4088168172820829,0.4141292775247397 l -9.035155083560644 -9.07412224824111" fill="#ff910d" stroke="none" /><path d="M 114.81725581225074 114.88116024355365 l 10.100929993247762 10.144493672989011 a35.31570950424066,35.31570950424066 0 0,0 -0.4344673920144376,0.42521778635064744 l -9.92481264885753 -10.31686156226223" fill="#ffa60f" stroke="none" /><path d="M 114.29624159901734 115.38237550388516 l 10.842876827618412 11.666646912029371 a36.9272919251475,36.9272919251475 0 0,0 -0.46932908818050023,0.4287209943676108 l -10.640448189971048 -11.851560672983565" fill="#ffbb11" stroke="none" /><path d="M 113.75828350139079 115.86535959552629 l 9.664946900391895 11.145129988845195 a35.75212259492346,35.75212259492346 0 0,0 -0.46841158150063084,0.3991905117270781 l -9.471669842314217 -11.30984489079522" fill="#ffab0f" stroke="none" /><path d="M 113.48314897796784 116.09983520530334 l 9.246461410472023 11.040930066414886 a35.40136053804683,35.40136053804683 0 0,0 -0.47055129601562173,0.3872316816517249 l -9.05503998591171 -11.19845686692379" fill="#ffa70f" stroke="none" /><path d="M 113.20401910651253 116.32954008644616 l 10.822652020237003 13.384480026914748 a38.21261462828991,38.21261462828991 0 0,0 -0.5150378216293716,0.40917719462352475 l -10.59065670589028 -13.5687911355434" fill="#ffcc13" stroke="none" /><path d="M 112.92097659922987 116.55440617244103 l 11.315531164680445 14.497503150667393 a39.39072709662305,39.39072709662305 0 0,0 -0.5380984746559069,0.4125909646700762 l -11.064303961531044 -14.69013345716484" fill="#ffdb14" stroke="none" /><path d="M 112.34349029814194 116.9893568818739 l 19.42185899404077 26.731895581338165 a54.04244010596023,54.04244010596023 0 0,0 -0.7572958695022631,0.5403104954374499 l -18.958835796689623 -27.062250338619833" fill="#75ff27" stroke="none" /><path d="M 111.7513745106137 117.40417183066458 l 7.564786160782044 11.203696902483312 a34.51846196655055,34.51846196655055 0 0,0 -0.4952993310049492,0.3282573887430574 l -7.37081213103713 -11.332252312317687" fill="#ff9b0e" stroke="none" /><path d="M 111.45004920935366 117.60387380957326 l 8.58259227257126 13.195303230831405 a36.74093127711285,36.74093127711285 0 0,0 -0.5331252557085427,0.34026576214164184 l -8.354185214815786 -13.341083421796855" fill="#ffb911" stroke="none" /><path d="M 111.1453310114006 117.79835938074945 l 9.671317569175697 15.444457020205965 a39.222668195762,39.222668195762 0 0,0 -0.5753046494499142,0.35339910401914 l -9.404033719793473 -15.608644591053483" fill="#ffd914" stroke="none" /><line stroke="#e1ed5e" stroke-width="0.3" x1="143.8653032363475" x2="146.44561519142675" y1="172.8068346515853" y2="177.08958963109032" /><path d="M 144.38136562736335 173.6633856474863 a86.0,86.0 0 0,1 -40.68145358897372,12.25698825130547" fill="none" id="id66" stroke="none" /><text fill="#e1ed5e" style="font-size:6.75px; font-family:Arial;" text-anchor="middle"><textPath startOffset="21.466115282336833" xlink:href="#id66">June</textPath></text><path d="M 110.8373102113329 117.98757091392108 l 8.146439180167523 13.521311985327555 a36.78576412850297,36.78576412850297 0 0,0 -0.5451862707410358,0.32210565843878575 l -7.9124850383981045 -13.659536216060092" fill="#ffb911" stroke="none" /><path d="M 110.21172684928248 118.3499491758327 l 3.028851142724503 5.442690090566082 a27.228708908492173,27.228708908492173 0 0,0 -0.41151290808687246,0.22438964843459935 l -2.934715422768982 -5.494020390760452" fill="#ff3505" stroke="none" /><path d="M 109.89434966115114 118.52300852407294 l 15.485893267615877 28.99082232005534 a53.86762341711079,53.86762341711079 0 0,0 -0.821632849513208,0.42983947409868745 l -14.984569515576174 -29.253091213098745" fill="#77ff27" stroke="none" /><path d="M 109.57404056367764 118.69057910512821 l 8.120447376886537 15.852853667921757 a38.811643243039754,38.811643243039754 0 0,0 -0.5972300404951947,0.2994635405965537 l -7.846363428708581 -15.990285049427612" fill="#ffd413" stroke="none" /><path d="M 109.2508944713604 118.85261126421891 l 7.878908287511249 16.056608968001658 a38.885521724409514,38.885521724409514 0 0,0 -0.6034428061041336,0.28968921808892006 l -7.601352813406883 -16.18985246259014" fill="#ffd513" stroke="none" /><path d="M 108.92500713936063 119.00905698771935 l 6.176063108315361 13.154178338744522 a35.53190157155593,35.53190157155593 0 0,0 -0.5558746113094308,0.2551747701241741 l -5.948720501238511 -13.258540179202772" fill="#ffa80f" stroke="none" /><path d="M 108.59647513512805 119.15986991738527 l 7.123304118243742 15.87645844862808 a38.401246921758286,38.401246921758286 0 0,0 -0.6054218534836544,0.2653991488590163 l -6.848961590102334 -15.996722150781551" fill="#ffce13" stroke="none" /><path d="M 107.93186726928326 119.44442032107085 l 12.555283269217748 30.77840272015021 a54.24071617721329,54.24071617721329 0 0,0 -0.8675387325867112,0.3452115656552068 l -12.023623460589171 -30.989961130211487" fill="#73ff27" stroke="none" /><path d="M 107.2578585660854 119.70592522655815 l 6.3161446280858655 17.149062995356584 a39.27523035645807,39.27523035645807 0 0,0 -0.6364091734316156,0.22819368723873582 l -6.020015894024516 -17.25524422363528" fill="#ffda14" stroke="none" /><path d="M 106.91757812671514 119.82793768551818 l 5.526924322423013 15.841889899928999 a37.77833031225883,37.77833031225883 0 0,0 -0.6158412335705342,0.20892678297342093 l -5.253413355915251 -15.934679669800543" fill="#ffc612" stroke="none" /><path d="M 106.57524785965236 119.94407469862006 l 5.611109676202742 17.019645937766054 a38.920739372171354,38.920739372171354 0 0,0 -0.638075228529392,0.20429153842352035 l -5.317313102582409 -17.11371032284928" fill="#ffd513" stroke="none" /><path d="M 106.2309692047433 120.05430185196036 l 4.253847938570376 13.6909600720686 a35.33658292549016,35.33658292549016 0 0,0 -0.5824226508704597,0.17547916702141245 l -4.017550313259671 -13.762154608195738" fill="#ffa60f" stroke="none" /><path d="M 104.83641907484287 120.43548508189849 l 5.00273977379107 21.138245556036566 a42.722173704110986,42.722173704110986 0 0,0 -0.7170812097541541,0.16320534872406384 l -4.638138414644055 -21.221227638338313" fill="#f9ff18" stroke="none" /><path d="M 104.48393922423573 120.51570834832081 l 3.8438257862458567 17.586948624580465 a39.00210428251768,39.00210428251768 0 0,0 -0.6571084532084084,0.13770346531564007 l -3.5405258716080703 -17.650508070622646" fill="#ffd614" stroke="none" /><path d="M 104.13013068566511 120.58985236759428 l 3.697716232060265 18.434145820041323 a39.801352011155714,39.801352011155714 0 0,0 -0.6728937594186621,0.12896169049323178 l -3.3798548580698986 -18.495064708883024" fill="#ffe015" stroke="none" /><path d="M 103.41894727170886 120.7198165907248 l 5.47621105184206 33.18743449048716 a54.63621107593264,54.63621107593264 0 0,0 -0.9292426259351549,0.14512858733125383 l -4.904132562298388 -33.27678138516552" fill="#6fff28" stroke="none" /><path d="M 102.70371172650421 120.8252237178851 l 2.2833627501856797 17.587503739973194 a38.735107365124875,38.735107365124875 0 0,0 -0.6619508475478011,0.0801530290627746 l -1.980284479586498 -17.62420229776132" fill="#ffd313" stroke="none" /><path d="M 102.34483914955558 120.86867818915974 l 1.9228368167044096 17.11292765888775 a38.22061539208165,38.22061539208165 0 0,0 -0.6544232110793683,0.06783364160344972 l -1.6279810090194387 -17.14349066894696" fill="#ffcc13" stroke="none" /><path d="M 101.98527174616119 120.90594882070398 l 0.5636711089895035 5.9357513040873275 a26.96245491916575,26.96245491916575 0 0,0 -0.4624133974654794,0.03989897366742407 l -0.46141339378248236 -5.944574530033415" fill="#ff3104" stroke="none" /><path d="M 101.62511606390274 120.93702456842531 l 1.3664672324601028 17.604747533698422 a38.65769997543983,38.65769997543983 0 0,0 -0.6638764854180492,0.045784809313426246 l -1.063227986263123 -17.625660687528136" fill="#ffd213" stroke="none" /><line stroke="#e1ed5e" stroke-width="0.3" x1="102.19456741930631" x2="102.32365962044197" y1="184.97166512339345" y2="189.96999836594603" /><path d="M 102.22038585953345 185.97133177190398 a86.0,86.0 0 0,1 -42.740103519485714,-10.115201625700543" fill="none" id="id67" stroke="none" /><text fill="#e1ed5e" style="font-size:6.75px; font-family:Arial;" text-anchor="middle"><textPath startOffset="22.20632615414155" xlink:href="#id67">July</textPath></text><path d="M 99.45781275523022 120.99299961872073 l -0.3123610234495902 12.094336245340523 a33.09836925475198,33.09836925475198 0 0,0 -0.5694174859285525,-0.019611889543069472 l 0.5204988610527858 -12.087167557371359" fill="#ff870c" stroke="none" /><path d="M 99.09653310690486 120.98055641714683 l -0.23552495861560152 5.469425298974906 a26.474494050339047,26.474494050339047 0 0,0 -0.45512420166135686,-0.02352472261201252 l 0.3296372286904473 -5.464560769600691" fill="#ff2a04" stroke="none" /><path d="M 98.01472825383883 120.90594882070398 l -0.2528775340775884 2.662932566060247 a23.67491250298498,23.67491250298498 0 0,0 -0.40536794353752775,-0.04201804479718364 l 0.29867807422070947 -2.658185152807303" fill="#ff0000" stroke="none" /><path d="M 95.86986931433489 120.58985236759428 l -1.890285595907985 9.423600441366599 a30.61131754301261,30.61131754301261 0 0,0 -0.5157402630292508,-0.1080783865664331 l 2.0522173203666223 -9.389666074073626" fill="#ff6509" stroke="none" /><path d="M 95.51606077576429 120.51570834832081 l -2.846337761593803 13.023065759243003 a34.33048687867935,34.33048687867935 0 0,0 -0.5762288041079613,-0.13114779977504873 l 3.0700867150946265 -12.972141225890269" fill="#ff980e" stroke="none" /><path d="M 95.16358092515715 120.4354850818985 l -2.485725703295682 10.503020879976393 a31.79315893875583,31.79315893875583 0 0,0 -0.5314706672898699,-0.13062255940275733 l 2.6661496553287627 -10.458677062259605" fill="#ff750a" stroke="none" /><path d="M 94.81253420990036 120.34920634021253 l -4.444441537015596 17.434497221427364 a38.99207475362161,38.99207475362161 0 0,0 -0.6489572752856951,-0.17139551468384237 l 4.74388925511278 -17.35541035743994" fill="#ffd614" stroke="none" /><path d="M 94.46302465271185 120.25689768951611 l -2.452044434338666 8.970748490125223 a30.29983066410648,30.29983066410648 0 0,0 -0.5019222237976534,-0.14184823401079902 l 2.606097826240933 -8.927211462775901" fill="#ff6108" stroke="none" /><path d="M 93.76903079525671 120.05430185196036 l -4.116007436340042 13.247322020214899 a34.87202429075429,34.87202429075429 0 0,0 -0.5716996960369972,-0.18304018898968621 l 4.343428477467979 -13.174508984565506" fill="#ffa00e" stroke="none" /><path d="M 93.08242187328487 119.8279376855182 l -5.912223148222047 16.94627657519371 a38.94799911737606,38.94799911737606 0 0,0 -0.6311067739168449,-0.22629243542307648 l 6.203049482768619 -16.841996598730677" fill="#ffd513" stroke="none" /><path d="M 92.7421414339146 119.70592522655815 l -4.851729393534233 13.173006304536873 a35.03806871358921,35.03806871358921 0 0,0 -0.5641625923386646,-0.21331801894840036 l 5.077762206633181 -13.08754003548184" fill="#ffa20f" stroke="none" /><path d="M 92.06813273071674 119.44442032107085 l -5.340685351323474 13.092318271117941 a35.13972127497886,35.13972127497886 0 0,0 -0.5580999976433177,-0.23328584427815766 l 5.565256808464254 -12.99844738381981" fill="#ffa30f" stroke="none" /><path d="M 91.40352486487194 119.15986991738527 l -5.739835453985998 12.79297606482632 a35.021624286581556,35.021624286581556 0 0,0 -0.547891638969098,-0.2515101790627951 l 5.959195088722516 -12.69227881542945" fill="#ffa20e" stroke="none" /><path d="M 91.07499286063937 119.00905698771935 l -8.285012911458125 17.645955921238663 a40.494132433050865,40.494132433050865 0 0,0 -0.628405941916753,-0.3016730402862466 l 8.587531521375121 -17.500728604452853" fill="#ffe915" stroke="none" /><path d="M 90.42595943632237 118.69057910512821 l -7.182394933482274 14.021574253384651 a36.75408967613461,36.75408967613461 0 0,0 -0.5606032996487106,-0.2932811506279935 l 7.42268913565748 -13.89586368381194" fill="#ffb911" stroke="none" /><path d="M 90.10565033884886 118.52300852407294 l -7.959646847791024 14.901091174201559 a37.89374132995463,37.89374132995463 0 0,0 -0.5726956700513373,-0.31227934175933203 l 8.214965329711001 -14.761871180682462" fill="#ffc812" stroke="none" /><line stroke="#e1ed5e" stroke-width="0.3" x1="58.666819895761336" x2="56.23545636021788" y1="174.27360380694188" y2="178.64263932499728" /><path d="M 58.180547188652646 175.14741091055294 a86.0,86.0 0 0,1 -31.652253787137756,-30.449443065178592" fill="none" id="id68" stroke="none" /><text fill="#e1ed5e" style="font-size:6.75px; font-family:Arial;" text-anchor="middle"><textPath startOffset="22.20632615414155" xlink:href="#id68">August</textPath></text><path d="M 89.7882731507175 118.34994917583269 l -7.35688995574341 13.21995376223474 a36.12914430153083,36.12914430153083 0 0,0 -0.5408210029175169,-0.3070922800177202 l 7.583359725582135 -13.091358316422387" fill="#ffb010" stroke="none" /><path d="M 87.95078237400918 117.19931262002967 l -5.438273701380209 7.762708949796456 a30.4781048258802,30.4781048258802 0 0,0 -0.4270892071054049,-0.30471680934794954 l 5.5710902363345 -7.667947878604286" fill="#ff6309" stroke="none" /><path d="M 87.65650970185807 116.9893568818739 l -8.409465498240376 11.574636272604168 a35.307037247773536,35.307037247773536 0 0,0 -0.4886074130568837,-0.36146008322599044 l 8.607457881715824 -11.428166240638411" fill="#ffa50f" stroke="none" /><path d="M 87.36589467227662 116.77436683061367 l -10.64765671183845 14.136948754012684 a38.6981895550573,38.6981895550573 0 0,0 -0.5286380401266361,-0.4053371068866535 l 10.889423480458575 -13.951572305298663" fill="#ffd213" stroke="none" /><path d="M 86.79598089348748 116.32954008644616 l -18.478893553644017 22.853029112065634 a50.38929135865351,50.38929135865351 0 0,0 -0.6697693533173894,-0.5511745801147807 l 18.869533035506095 -22.53155941309367" fill="#9eff22" stroke="none" /><path d="M 86.51685102203217 116.09983520530335 l -7.029968665328071 8.394280682885904 a31.949173832694683,31.949173832694683 0 0,0 -0.41858670077215365,-0.3567286674425718 l 7.173420842677281 -8.272027625220382" fill="#ff780b" stroke="none" /><path d="M 85.18274418774928 114.88116024355367 l -10.634523099066282 10.680388079696627 a36.07195312749811,36.07195312749811 0 0,0 -0.4362290794897868,-0.4418977544158468 l 10.816792803611602 -10.495749831300115" fill="#ffb010" stroke="none" /><path d="M 84.9287848128048 114.62390073753433 l -19.351790847228173 18.77742868961432 a47.96448844662949,47.96448844662949 0 0,0 -0.5698488397092257,-0.5974842302094842 l 19.67214623831636 -18.441537342822336" fill="#baff1f" stroke="none" /><path d="M 84.67929136418377 114.36230785411682 l -5.684410920580017 5.328817455598343 a28.791586679816824,28.791586679816824 0 0,0 -0.33583821793921215,-0.3644860567194113 l 5.7752955465149585 -5.230180144077588" fill="#ff4b07" stroke="none" /><path d="M 84.43433777217949 114.09645910891817 l -18.843831861576437 17.065210680036394 a46.42265554149274,46.42265554149274 0 0,0 -0.5312987826295861,-0.5969198145440691 l 19.13478949385436 -16.73831669575146" fill="#ccff1d" stroke="none" /><path d="M 83.95833913139862 113.55231037782056 l -10.933533864400907 9.236864291701721 a35.31299495938274,35.31299495938274 0 0,0 -0.38828151389813625,-0.4677100964548002 l 11.09091137819258 -9.04729293813316" fill="#ffa60f" stroke="none" /><path d="M 83.50135304334701 112.99209946851258 l -10.988586718474425 8.653122406939369 a34.98662094499271,34.98662094499271 0 0,0 -0.3685143829337108,-0.47635451618055247 l 11.135907918626204 -8.462689896645564" fill="#ffa10e" stroke="none" /><path d="M 83.28015986056508 112.70617746262583 l -20.667263196021747 15.706006256368612 a46.957935213316276,46.957935213316276 0 0,0 -0.4835297347210368,-0.6477670969587648 l 20.93455419743787 -15.34792627990054" fill="#c5ff1e" stroke="none" /><path d="M 82.85270091963577 112.12312394758628 l -14.958165434320819 10.575408566613758 a39.31900596406142,39.31900596406142 0 0,0 -0.3859611533675366,-0.5560058277690002 l 15.13798749485049 -10.316361476657745" fill="#ffda14" stroke="none" /><path d="M 82.6465618267979 111.8261652097733 l -14.674901613700156 10.000773863290478 a38.75860960876311,38.75860960876311 0 0,0 -0.37096953190281956,-0.5545491163876612 l 14.844874251013707 -9.746687832696995" fill="#ffd313" stroke="none" /><path d="M 82.44556493220864 111.52570212397912 l -12.960375015451575 8.509383598292589 a36.504222965503054,36.504222965503054 0 0,0 -0.3403499677545456,-0.5282307081365616 l 13.104929846583165 -8.285031290234578" fill="#ffb510" stroke="none" /><path d="M 82.24976979558568 111.22182372390057 l -8.031308951825313 5.077451519876895 a30.501707079065824,30.501707079065824 0 0,0 -0.2767454166215365,-0.44620172925291013 l 8.117519008114805 -4.938453459258721" fill="#ff6309" stroke="none" /><path d="M 82.05923443525364 110.91462005526583 l -12.81445707358551 7.795928756102488 a35.999560502261104,35.999560502261104 0 0,0 -0.317514622451301,-0.5321727706353426 l 12.946752571735043 -7.574193891581034" fill="#ffaf10" stroke="none" /><line stroke="#e1ed5e" stroke-width="0.3" x1="26.63291911575756" x2="22.317208475507996" y1="142.92168965132927" y2="145.44649492493687" /><path d="M 25.769776987707644 143.4266507060508 a86.0,86.0 0 0,1 -11.730757126820373,-40.83630448921669" fill="none" id="id69" stroke="none" /><text fill="#e1ed5e" style="font-size:6.75px; font-family:Arial;" text-anchor="middle"><textPath startOffset="21.46611528233685" xlink:href="#id69">September</textPath></text><path d="M 81.35079622478065 109.6543875284942 l -15.053678865941357 7.793043137553012 a37.951246819707734,37.951246819707734 0 0,0 -0.29533539231173106,-0.5827247475069823 l 15.185592928039355 -7.532764178343345" fill="#ffc812" stroke="none" /><path d="M 81.18737489456691 109.33194174019688 l -13.54574333309491 6.719322099051204 a36.1207292124713,36.1207292124713 0 0,0 -0.27150187975667534,-0.5593742884991919 l 13.659398469466304 -6.485158854586727" fill="#ffb010" stroke="none" /><path d="M 81.02952815118164 109.00673069616217 l -10.047669470087659 4.77039547367752 a32.122604674958765,32.122604674958765 0 0,0 -0.23285122879754155,-0.5015408314121101 l 10.128295315725026 -4.5967345749865824" fill="#ff7a0b" stroke="none" /><path d="M 80.87730276802145 108.67885076344099 l -13.751624832186403 6.241185447092216 a36.10164167599673,36.10164167599673 0 0,0 -0.2519532115930524,-0.5680879784370352 l 13.857019128510736 -6.003549132162486" fill="#ffb010" stroke="none" /><path d="M 80.73074385275274 108.34839909993369 l -26.300837670241798 11.394829559371221 a49.66315060916246,49.66315060916246 0 0,0 -0.3330955254380587,-0.7873394273080193 l 26.493084176872163 -10.940415606397043" fill="#a6ff21" stroke="none" /><path d="M 80.45479744820244 107.68017299344265 l -25.619877420497325 10.067180943188452 a48.52682784456294,48.52682784456294 0 0,0 -0.2987998301658559,-0.7800720693651884 l 25.78937153025669 -9.624685306990107" fill="#b3ff20" stroke="none" /><path d="M 80.32549172779594 107.34259656027581 l -18.549598983901333 6.9227764073836955 a40.7993044233928,40.7993044233928 0 0,0 -0.23989163162624966,-0.6600787408793225 l 18.666014876532806 -6.602449869498256" fill="#ffed16" stroke="none" /><path d="M 80.20201598880116 107.00284435728193 l -13.68984853297664 4.842305080000649 a35.52101481796788,35.52101481796788 0 0,0 -0.1989331922283082,-0.5781929751786187 l 13.771172556148176 -4.6059394017327335" fill="#ffa80f" stroke="none" /><path d="M 80.0844068197444 106.66101706037122 l -16.339973837711437 5.465106839344387 a38.229687686738345,38.229687686738345 0 0,0 -0.20335963599225484,-0.6258766038193175 l 16.43162572471994 -5.183031335547267" fill="#ffcc13" stroke="none" /><path d="M 79.86692584326677 105.97154293290107 l -26.189165125418285 7.7678015143538595 a48.316864943342665,48.316864943342665 0 0,0 -0.22963708971072716,-0.7993968348389744 l 26.318994852015116 -7.315847204010289" fill="#b6ff1f" stroke="none" /><path d="M 79.76711848015287 105.62410040840567 l -17.536934491788806 4.874712499092329 a39.20183763574708,39.20183763574708 0 0,0 -0.175123799978421,-0.6517008073723668 l 17.618246368109002 -4.572120758544423" fill="#ffd914" stroke="none" /><path d="M 79.67330655649465 105.27499134158121 l -21.16310380042234 5.492048651123886 a42.864115826023294,42.864115826023294 0 0,0 -0.17918973296528412,-0.7157739099539066 l 21.254504847682682 -5.1269469017725875" fill="#f7ff18" stroke="none" /><path d="M 79.58551787078972 104.9243191809786 l -16.505309625539077 3.981360499992118 a37.97870658400723,37.97870658400723 0 0,0 -0.14782657061267854,-0.6368329972186194 l 16.57139676208231 -3.6966588454249245" fill="#ffc912" stroke="none" /><path d="M 79.50377843672027 104.57218783832718 l -14.968383432371114 3.339067177704434 a36.33629264834579,36.33629264834579 0 0,0 -0.13092478630605336,-0.6116370145162038 l 15.023642257401608 -3.0809163437720666" fill="#ffb310" stroke="none" /><path d="M 79.4281124754447 104.21870165774334 l -12.138516463247425 2.489260135460212 a33.39112577413853,33.39112577413853 0 0,0 -0.11062013610117948,-0.5640496907677645 l 12.179566532324271 -2.279946717624493" fill="#ff8c0c" stroke="none" /><path d="M 79.35854240842038 103.8639653848113 l -17.377272832376374 3.252928259006037 a38.679116305660926,38.679116305660926 0 0,0 -0.11687273984621341,-0.6554843919711398 l 17.430692014561778 -2.9533251163016834" fill="#ffd213" stroke="none" /><path d="M 79.18660465613746 102.79330883721812 l -16.608466240698547 2.228976808267968 a37.757371168540125,37.757371168540125 0 0,0 -0.08090593892337505,-0.6448999372826583 l 16.64437368886877 -1.942759116697901" fill="#ffc612" stroke="none" /><path d="M 79.1416061653843 102.43462659150553 l -20.288555278582425 2.3681140828059726 a41.426292850179124,41.426292850179124 0 0,0 -0.07657492122797063,-0.7089886676682158 l 20.32631250131145 -2.0185290932529747" fill="#fff517" stroke="none" /><path d="M 79.10278846688536 102.07522291339032 l -15.187041191848744 1.5081675283797855 a36.261742674300656,36.261742674300656 0 0,0 -0.05633590449742213,-0.6216620117338536 l 15.210751692623242 -1.2465241280973658" fill="#ffb210" stroke="none" /><path d="M 79.04373962182676 101.35467743843564 l -42.78958358996208 2.7660509290937956 a63.87889342724101,63.87889342724101 0 0,0 -0.0614869303538577,-1.097890446051695 l 42.830856871203466 -2.029088766706663" fill="#33ff56" stroke="none" /><path d="M 79.0095281055655 100.63252640178507 l -34.93245104144443 1.0526536837238376 a55.94830776362097,55.94830776362097 0 0,0 -0.02072202050787403,-0.9628708673848009 l 34.945395124637315 -0.4511930005489079" fill="#61ff29" stroke="none" /><line stroke="#e1ed5e" stroke-width="0.3" x1="15.007084014347285" x2="10.007500721073583" y1="101.09737516637583" y2="101.16192664675087" /><path d="M 14.007167355692545 101.11028546245083 a86.0,86.0 0 0,1 10.666146001902534,-42.60595125391555" fill="none" id="id70" stroke="none" /><text fill="#e1ed5e" style="font-size:6.75px; font-family:Arial;" text-anchor="middle"><textPath startOffset="22.20632615414155" xlink:href="#id70">October</textPath></text><path d="M 79.00175016825051 100.2711162175752 l -17.55226995566699 0.22662388905594122 a38.553732907381864,38.553732907381864 0 0,0 -0.0028561022277995636,-0.663657572661219 l 17.553570355184295 0.07554316180895325" fill="#ffd013" stroke="none" /><path d="M 79.00486145842228 99.54816195383935 l -29.212510923737945 -0.6286847706715092 a50.21927512807912,50.21927512807912 0 0,0 0.026038229133835706,-0.8640820608786892 l 29.197361000148465 1.1314369789751928" fill="#a0ff22" stroke="none" /><path d="M 79.01574976396665 99.18683210126434 l -15.686382324602018 -0.6078683970207898 a36.698155764983454,36.698155764983454 0 0,0 0.029893953791613873,-0.6310141168644912 l 15.673594762576906 0.8777936205082901" fill="#ffb811" stroke="none" /><path d="M 79.03285615573316 98.82574320788736 l -13.364635060288602 -0.7484812242532418 a34.38557785221673,34.38557785221673 0 0,0 0.038183397785020654,-0.5906802633623607 l 13.34977107149917 0.9784205518686143" fill="#ff990e" stroke="none" /><path d="M 79.05617556472873 98.46500227214037 l -25.154680754685238 -1.843616380705025 a46.22215068604055,46.22215068604055 0 0,0 0.06498727895134926,-0.7930094099478737 l 25.11921899191439 2.2763397078606773" fill="#ceff1d" stroke="none" /><path d="M 79.08570108090925 98.10471618934814 l -14.646714315294869 -1.3273062907062994 a35.706732547483554,35.706732547483554 0 0,0 0.06074033900438237,-0.6116469245677317 l 14.621696850608258 1.5792287459784615" fill="#ffab0f" stroke="none" /><path d="M 79.12142395522702 97.74499172005258 l -34.04823999286911 -3.677408983108248 a55.24625502797432,55.24625502797432 0 0,0 0.11025481171886214,-0.94459589532837 l 33.979894828146655 4.26294861676148" fill="#68ff28" stroke="none" /><path d="M 79.16333360222342 97.38593545837743 l -14.203528532261418 -1.7819040528513166 a35.31486656662688,35.31486656662688 0 0,0 0.08086095606010278,-0.6025080449169719 l 14.17075157714348 2.0261304398329476" fill="#ffa60f" stroke="none" /><path d="M 79.21141760316559 97.0276538004421 l -23.52189610430441 -3.3631546950825957 a44.76111120812213,44.76111120812213 0 0,0 0.11562030886422003,-0.7617933750523393 l 23.46051990200089 3.7675471825270272" fill="#e0ff1b" stroke="none" /><path d="M 79.3925641242962 95.95851677861259 l -10.521731309949221 -2.063497894914792 a31.722166447182374,31.722166447182374 0 0,0 0.10969933630933901,-0.5349329227706566 l 10.484652677724887 2.2443064738488507" fill="#ff740a" stroke="none" /><path d="M 79.46518482838121 95.60439243477599 l -18.363467929525992 -3.9308169019380426 a39.77946420735404,39.77946420735404 0 0,0 0.149088910246205,-0.6683363512362158 l 18.29308463227775 4.246331422724217" fill="#ffe015" stroke="none" /><path d="M 79.54389044137918 95.25157060432595 l -19.935741804372725 -4.627637632521251 a41.46579662140082,41.46579662140082 0 0,0 0.16737806974051025,-0.6938901577984826 l 19.8531309343714 4.970113021979131" fill="#fff617" stroke="none" /><path d="M 79.62865764111835 94.90015583598534 l -14.671843632222494 -3.6730086218644815 a36.12461529774158,36.12461529774158 0 0,0 0.15620226565756878,-0.6019110484929511 l 14.606445034694618 3.9250160959062965" fill="#ffb010" stroke="none" /><path d="M 79.71946130924805 94.55025226153421 l -15.1373491648232 -4.067679642798655 a36.67435349270305,36.67435349270305 0 0,0 0.1690744094771166,-0.6082506083774522 l 15.065087984779723 4.32764155459505" fill="#ffb811" stroke="none" /><path d="M 79.91906864156998 93.8553929516997 l -9.344180568465083 -2.8592457569194267 a30.771847153662513,30.771847153662513 0 0,0 0.1593461729658954,-0.5051709135703315 l 9.293578911730982 3.0196668369161728" fill="#ff6709" stroke="none" /><path d="M 80.02781315780177 93.51064311812611 l -9.991462874169676 -3.2464230819975697 a31.505645777068516,31.505645777068516 0 0,0 0.17202488601269555,-0.514332513437183 l 9.934100694385206 3.4179286983570747" fill="#ff710a" stroke="none" /><path d="M 80.14247586403 93.16781622104843 l -5.128823561437888 -1.76462407406002 a26.423903506434513,26.423903506434513 0 0,0 0.15168191241331197,-0.42882519209843223 l 5.097688568214767 1.8526468925850634" fill="#ff2904" stroke="none" /><path d="M 80.2630227832202 92.82701384747504 l -56.82479869633249 -20.651768996433685 a81.46117191686554,81.46117191686554 0 0,0 0.49030087359866087,-1.313762578986549 l 56.4608932342322 21.62685471244958" fill="#4aeaff" stroke="none" /><path d="M 80.52162464483688 92.15188598940014 l -14.04572652572243 -5.659222657209803 a36.14295990614977,36.14295990614977 0 0,0 0.2374735542281077,-0.5750610477967162 l 13.946231284608121 5.90015827545983" fill="#ffb110" stroke="none" /><path d="M 80.803312248108 91.48605970444005 l -20.529879164003496 -9.105225220958168 a43.4584297049673,43.4584297049673 0 0,0 0.30917089077776994,-0.681217075674248 l 20.370105956262375 9.457264305474487" fill="#f0ff19" stroke="none" /><path d="M 80.95270993114464 91.15688171328213 l -33.656612984260605 -15.625813891329429 a58.10705670541337,58.10705670541337 0 0,0 0.42900109629271677,-0.903585717712305 l 33.38265369412614 16.202842024682266" fill="#4aff2c" stroke="none" /><path d="M 81.26839172434947 90.50648371742162 l -23.82301839586199 -12.07393458762823 a47.70797824463514,47.70797824463514 0 0,0 0.3775531403457554,-0.7293124943970647 l 23.61165582235612 12.48221980428563" fill="#bdff1f" stroke="none" /><path d="M 81.43458229118936 90.18545643968196 l -14.418080006638709 -7.6220678953078975 a37.30879977430952,37.30879977430952 0 0,0 0.3050294642442215,-0.5651732712975719 l 14.284742443176016 7.869122149937942" fill="#ffc011" stroke="none" /><path d="M 81.6062741919709 89.86733742301443 l -19.55325852366122 -10.771421351423063 a43.32383114124954,43.32383114124954 0 0,0 0.3654516969813995,-0.6500977907337444 l 19.364949185387392 11.10640265209159" fill="#f1ff19" stroke="none" /><line stroke="#e1ed5e" stroke-width="0.3" x1="26.266209847984243" x2="21.928928074336255" y1="57.711370442889674" y2="55.22380399835377" /><path d="M 25.398753493254645 57.213857153982495 a86.0,86.0 0 0,1 29.58750427330803,-30.492523968695096" fill="none" id="id71" stroke="none" /><text fill="#e1ed5e" style="font-size:6.75px; font-family:Arial;" text-anchor="middle"><textPath startOffset="21.46611528233685" xlink:href="#id71">November</textPath></text><path d="M 81.96595687620814 89.24020034530311 l -16.84747792117457 -10.051849486797302 a40.61828714260477,40.61828714260477 0 0,0 0.36340640260807217,-0.5973445746078614 l 16.67195572028028 10.340361834612237" fill="#ffeb16" stroke="none" /><path d="M 82.15384107792192 88.93136811851018 l -31.589575803324728 -19.592641048761006 a58.172205782003225,58.172205782003225 0 0,0 0.5351078486944796,-0.8464121102068475 l 31.247640358384288 20.13350080668207" fill="#4aff2c" stroke="none" /><path d="M 82.7489923806493 88.02491185347247 l -10.67407658868855 -7.409596636485758 a33.993769019672854,33.993769019672854 0 0,0 0.3378128857003626,-0.4778123699261782 l 10.544951083184309 7.592235506743722" fill="#ff940d" stroke="none" /><path d="M 82.95767976084542 87.72973835380427 l -23.26717947976496 -16.7520839873547 a49.67043701904422,49.67043701904422 0 0,0 0.5055442592265059,-0.6895618014428944 l 22.97537260802482 17.150108232469094" fill="#a6ff21" stroke="none" /><path d="M 83.39014120810768 87.1503855733568 l -22.83791125076638 -17.667721174456283 a49.8741850412477,49.8741850412477 0 0,0 0.5311503794369646,-0.6745070427194038 l 22.530406790735444 18.058220611128736" fill="#a4ff21" stroke="none" /><path d="M 83.6137871275137 86.86637796730984 l -22.855642855907593 -18.318898754676024 a50.29099626064075,50.29099626064075 0 0,0 0.5472175466922341,-0.6708240085136293 l 22.53692681713897 18.709606932797733" fill="#9fff22" stroke="none" /><path d="M 84.07557802195018 86.31012108654704 l -11.926569867631917 -10.253012483955349 a36.72791574887308,36.72791574887308 0 0,0 0.4162639420028216,-0.4758616442074904 l 11.748314062051252 10.456789684365782" fill="#ffb811" stroke="none" /><path d="M 84.31358615837235 86.03803664274999 l -16.45555194372587 -14.646547998875526 a43.02967448819943,43.02967448819943 0 0,0 0.4972106741325296,-0.5490324449433968 l 16.200997628977294 14.927633231088478" fill="#f5ff19" stroke="none" /><path d="M 84.5562425177563 85.77008943001954 l -21.306939147582266 -19.6322584668082 a49.97259443588606,49.97259443588606 0 0,0 0.588326588117543,-0.6275857843187113 l 20.965845237494268 19.99611366800496" fill="#a2ff22" stroke="none" /><path d="M 84.80347519578584 85.50635884689758 l -14.908211279244867 -14.218662970634528 a41.60158101260914,41.60158101260914 0 0,0 0.49869545844397767,-0.5139495064949026 l 14.66125155709777 14.473176672679553" fill="#fff717" stroke="none" /><path d="M 85.05521093208273 85.24692304244772 l -16.152426367316494 -15.945222656891369 a43.69693818843024,43.69693818843024 0 0,0 0.5330281526751242,-0.5307391603917481 l 15.875562414474057 16.220897667933226" fill="#edff1a" stroke="none" /><path d="M 85.83668400450813 84.49514656593479 l -10.752486370884009 -11.770952881754905 a36.942750543759395,36.942750543759395 0 0,0 0.4731997135359158,-0.42484337500510283 l 10.548275669752122 11.954295265529286" fill="#ffbb11" stroke="none" /><path d="M 86.10567301691215 84.25364557470407 l -11.812657254214187 -13.387211057851621 a38.85374726249377,38.85374726249377 0 0,0 0.5052952058665713,-0.43818702326584663 l 11.580468249700841 13.588563074537149" fill="#ffd413" stroke="none" /><path d="M 86.37877921826538 84.01681056812374 l -9.606963401951289 -11.272845391684177 a35.81117108912211,35.81117108912211 0 0,0 0.4726093409532381,-0.39579673153130523 l 9.41149652403894 11.436543280609294" fill="#ffac0f" stroke="none" /><path d="M 86.93701828274178 83.55741782278169 l -6.250789163268185 -7.867967414645895 a31.04874501624758,31.04874501624758 0 0,0 0.4213276920374567,-0.32885294662434533 l 6.114428916071303 7.974398750493462" fill="#ff6b09" stroke="none" /><path d="M 87.22198572758235 83.33499621200491 l -4.818545017269031 -6.284315328927863 a28.919027417356624,28.919027417356624 0 0,0 0.3976419236346809,-0.29949565290002017 l 4.70965693987596 6.366327571333737" fill="#ff4d07" stroke="none" /><path d="M 87.80319425747018 82.90503203632743 l -36.59041722758948 -51.284903891017706 a84.0,84.0 0 0,0 1.184275441665359,-0.8296606289442297 l 35.70221064634046 51.907149362725875" fill="#4dd2ff" stroke="none" /><path d="M 88.09926311788651 82.69761687909137 l -5.2300230904379035 -7.603887401120697 a30.22888103376762,30.22888103376762 0 0,0 0.43125861195523674,-0.29118773988914254 l 5.098359784076127 7.692787053308505" fill="#ff6008" stroke="none" /><line stroke="#e1ed5e" stroke-width="0.3" x1="56.762969772571076" x2="54.21961505331055" y1="26.818313649435495" y2="22.513508569990535" /><path d="M 56.25429882871897 25.957352633546506 a86.0,86.0 0 0,1 42.265352541879196,-11.944610805530505" fill="none" id="id72" stroke="none" /><text fill="#e1ed5e" style="font-size:6.75px; font-family:Arial;" text-anchor="middle"><textPath startOffset="22.20632615414155" xlink:href="#id72">December</textPath></text><path d="M 89.3179101791058 81.91981866633112 l -19.532823325156247 -33.06066449530931 a59.39972296675034,59.39972296675034 0 0,0 0.8847822587930606,-0.5125229930360997 l 18.960844333897867 33.39199164573546" fill="#3dff2e" stroke="none" /><path d="M 91.23893434514133 80.91482961587045 l -1.7975668025845102 -3.91583285135577 a25.308711330492095,25.308711330492095 0 0,0 0.3974888359694689,-0.17834165417803807 l 1.729895848148267 3.9461948360503367" fill="#ff1802" stroke="none" /><path d="M 91.56875222667455 80.76684994638697 l -2.3052543854848757 -5.258688239248911 a26.74177670929583,26.74177670929583 0 0,0 0.42317746409732604,-0.1811825053958277 l 2.2143931635972414 5.297590272607525" fill="#ff2d04" stroke="none" /><path d="M 91.90106846888425 80.62456947434976 l -4.489253102790836 -10.739837875033938 a32.64033981475329,32.64033981475329 0 0,0 0.5202499161006924,-0.21222300347492018 l 4.303719317101764 10.815521764692436" fill="#ff810b" stroke="none" /><path d="M 92.57280143429618 80.3572730644239 l -6.253873806117127 -16.53963259180347 a38.682488056116014,38.682488056116014 0 0,0 0.6248468396060016,-0.23013636432629048 l 5.968244640738556 16.64483222393608" fill="#ffd213" stroke="none" /><path d="M 92.91201910852362 80.23233633223022 l -8.737763879761493 -24.368741991280235 a46.88791424306039,46.88791424306039 0 0,0 0.762080424909234,-0.26587489640943923 l 8.317001450788974 24.515537740861884" fill="#c6ff1e" stroke="none" /><path d="M 93.59665428221793 80.00007090966166 l -5.693845360138024 -17.783906800140066 a39.67316834554954,39.67316834554954 0 0,0 0.6521789535139714,-0.20263517550126253 l 5.3868810339133235 17.879282110523853" fill="#ffdf14" stroke="none" /><path d="M 93.94186890950719 79.89281104454417 l -7.4641652218153745 -24.773874693024315 a46.873898619346654,46.873898619346654 0 0,0 0.774557207350186,-0.2261144885826339 l 7.036617796741767 24.898687510525647" fill="#c6ff1e" stroke="none" /><path d="M 94.98787191387505 79.60689891045804 l -4.306749764167381 -17.52309234697337 a39.04457976600487,39.04457976600487 0 0,0 0.6540456340086876,-0.15479147020294004 l 4.004480443196159 17.59462972931718" fill="#ffd714" stroke="none" /><path d="M 95.33964822691252 79.52364482259891 l -6.6868165120353895 -29.38010617508308 a51.13144792280623,51.13144792280623 0 0,0 0.8598782313573504,-0.18793607630736658 l 6.180095556524519 29.490855749486315" fill="#95ff23" stroke="none" /><path d="M 96.04723909329186 79.375362276772 l -4.114256914592915 -21.467288400813498 a42.8579866694757,42.8579866694757 0 0,0 0.7257385313987009,-0.13262407780916396 l 3.744123262091321 21.5349279599734" fill="#f7ff18" stroke="none" /><path d="M 96.40284397218896 79.31037775812273 l -5.238688506504227 -30.131160673726118 a51.58317676131894,51.58317676131894 0 0,0 0.8761053621589433,-0.14456489151663846 l 4.719253938206397 30.216871828182384" fill="#90ff24" stroke="none" /><path d="M 97.47563105711357 79.15227682838746 l -2.7014442836248183 -22.310115463609236 a43.473073960121816,43.473073960121816 0 0,0 0.7436655079647809,-0.08355948476678429 l 2.3170120721503196 22.35331090184662" fill="#efff19" stroke="none" /><path d="M 97.83486435360386 79.11191278185805 l -2.2849723703252045 -22.044208750542513 a43.162315722203864,43.162315722203864 0 0,0 0.7396682326199624,-0.07024041129857994 l 1.9051790106150057 22.08027470635627" fill="#f3ff19" stroke="none" /><path d="M 98.55514903715128 79.0497635885617 l -0.8495689414330325 -12.318689351699623 a33.34795022381955,33.34795022381955 0 0,0 0.5730098111505373,-0.03456551663051574 l 0.6373970814428722 12.331488137710446" fill="#ff8b0c" stroke="none" /><path d="M 98.91598698831166 79.02799685794201 l -1.0500295237583597 -20.314537034215277 a41.34165619892511,41.34165619892511 0 0,0 0.7109961019262158,-0.030616987768976114 l 0.7001925894428197 20.329601748508445" fill="#fff417" stroke="none" /><path d="M 99.63851952072746 79.00311137660856 l -0.3738716720201751 -21.71664116592608 a42.71985919744266,42.71985919744266 0 0,0 0.7353521512927055,-0.006329408125135788 l 5.31983120881587e-15 21.71985919744266" fill="#f9ff18" stroke="none" /></svg>