<?xml version="1.0" encoding="utf-8" ?>
<svg baseProfile="full" height="200mm" version="1.1" viewBox="0,0,200,200" width="200mm" xmlns="http://www.w3.org/2000/svg" xmlns:ev="http://www.w3.org/2001/xml-events" xmlns:xlink="http://www.w3.org/1999/xlink"><defs /><rect fill="#1a1a1a" height="200" width="200" x="0" y="0" /><rect fill="#1a1a1a" height="200" width="180" x="10" y="0" /><text alignment-baseline="middle" fill="#e1ed5e" style="dominant-baseline: central; font-size:9.0px; font-family:Arial;" text-anchor="middle" x="100.0" y="100.0">2022</text><line stroke="#e1ed5e" stroke-width="0.3" x1="100.0" x2="100.0" y1="15.0" y2="10.0" /><path d="M 100.0 14.0 a86.0,86.0 0 0,1 42.46469731375804,11.215312516191453" fill="none" id="id49" stroke="none" /><text fill="#e1ed5e" style="font-size:6.75px; font-family:Arial;" text-anchor="middle"><textPath startOffset="22.20632615414155" xlink:href="#id49">January</textPath></text><path d="M 100.0 79.0 l 0.0 -3.04340210470588 a24.04340210470588,24.04340210470588 0 0,0 0.41386764362624756,0.0035622894713693786 l -0.05238716435371919 3.0429511918430694" fill="#ff1a02" stroke="none" /><path d="M 100.72285384407766 79.0124445844662 l 0.7188370142372736 -20.870929572618824 a41.88330500371654,41.88330500371654 0 0,0 0.7203114081869529,0.031018124451826733 l -1.0779892548135581 20.8554637216428" fill="#f7ff19" stroke="none" /><path d="M 101.80526077348638 79.07773832637324 l 0.14800255725676417 -1.7152913732855322 a22.721664674732658,22.721664674732658 0 0,0 0.3893788660532144,0.036976215141319 l -0.1775065504002228 1.712489613629035" fill="#ff0701" stroke="none" /><path d="M 102.16513564639614 79.11191278185805 l 0.18336145123152686 -1.7689746100408836 a22.778452302640424,22.778452302640424 0 0,0 0.3896561195059052,0.04378240517197514 l -0.21378427424715732 1.7655562513983076" fill="#ff0801" stroke="none" /><path d="M 102.52436894288641 79.15227682838746 l 0.4784155423803531 -3.9510368786022902 a24.979896210614847,24.979896210614847 0 0,0 0.42642499404324236,0.055362202706087736 l -0.5463552649314416 3.9422163527320655" fill="#ff2803" stroke="none" /><path d="M 102.88285421437855 79.19881850522331 l 0.4483032361524439 -3.2347237447499233 a24.26564136065088,24.26564136065088 0 0,0 0.4132450504934359,0.06090157833704913 l -0.5039172670745355 3.226527682251905" fill="#ff1e03" stroke="none" /><path d="M 103.2404852339499 79.25152402106235 l 1.5612361133843562 -9.996425737919614 a31.11760770812336,31.11760770812336 0 0,0 0.5285115163959722,0.08720892866675242 l -1.7330768359192035 9.968070546313237" fill="#ff7d0b" stroke="none" /><path d="M 103.95276090670814 79.375362276772 l 0.2844425078557269 -1.4841584948016662 a22.51116973830447,22.51116973830447 0 0,0 0.37993879606867836,0.07621214821275778 l -0.3099477133915306 1.4790423905117" fill="#ff0400" stroke="none" /><path d="M 104.307194497241 79.44645832069477 l 1.6057787053748696 -7.662630412860235 a28.829075941305334,28.829075941305334 0 0,0 0.4848189487905933,0.10596264404942175 l -1.7374403783189907 7.633854270714942" fill="#ff5e08" stroke="none" /><path d="M 105.01212808612495 79.60689891045804 l 3.112593217062166 -12.664366719176645 a34.041258410624735,34.041258410624735 0 0,0 0.5678262018675226,0.14475154203381507 l -3.3301283076147135 12.608912180973961" fill="#ffa40f" stroke="none" /><path d="M 105.36241919743992 79.69619591428918 l 0.5806679724124989 -2.198591403734134 a23.273978771835672,23.273978771835672 0 0,0 0.38646121542388784,0.10563444883233658 l -0.6184270770600976 2.188270414075504" fill="#ff0f01" stroke="none" /><path d="M 106.0581310904928 79.89281104454417 l 0.5863376477560707 -1.9460790298233388 a23.032489957538356,23.032489957538356 0 0,0 0.37862630648741563,0.11764103648406017 l -0.6197493269542045 1.935697858456758" fill="#ff0c01" stroke="none" /><path d="M 106.40334571778207 80.00007090966166 l 0.40223592598196894 -1.2563260445060593 a22.31914702374482,22.31914702374482 0 0,0 0.3648831698166009,0.12029624425372516 l -0.4238019180409873 1.249216075993098" fill="#ff0100" stroke="none" /><path d="M 107.4271985657038 80.35727306442388 l 1.8253422641387953 -4.827486345121972 a26.16105597659921,26.16105597659921 0 0,0 0.4198436326428577,0.16289280680324586 l -1.90816906178132 4.795350834428179" fill="#ff3905" stroke="none" /><path d="M 108.43124777332544 80.76684994638697 l 0.6950911748161204 -1.585624479982246 a22.73128759390987,22.73128759390987 0 0,0 0.3570088151783673,0.16017944881335505 l -0.722282108461268 1.5734247006523598" fill="#ff0701" stroke="none" /><path d="M 108.76106565485865 80.91482961587045 l 1.267215676746707 -2.760512026381013 a24.03747629113164,24.03747629113164 0 0,0 0.3745517137060762,0.17585705177516797 l -1.3145456017523813 2.738289991965842" fill="#ff1a02" stroke="none" /><path d="M 109.08828744355905 81.06846463323043 l 1.1737916544510145 -2.4450897220693686 a23.712240881084885,23.712240881084885 0 0,0 0.36644302330866285,0.17981200009298348 l -1.215705944770109 2.424522561841553" fill="#ff1602" stroke="none" /><path d="M 109.41281617654863 81.2277094730956 l 2.7942600897158907 -5.57268528653176 a27.23399637084484,27.23399637084484 0 0,0 0.4172501292078676,0.21373172226321252 l -2.8897707065125138 5.523761038956047" fill="#ff4806" stroke="none" /><path d="M 109.73455568895987 81.39251694778311 l 1.7908294904174302 -3.423148467900242 a24.863290785979814,24.863290785979814 0 0,0 0.3775134965103173,0.20165463571548975 l -1.8494880334560586 3.391815105682998" fill="#ff2603" stroke="none" /><path d="M 110.05341064243156 81.56283822128135 l 1.550624467490714 -2.843722909765783 a24.239011612623152,24.239011612623152 0 0,0 0.36459618443480274,0.20289738189805442 l -1.5993447409975519 2.8166101303075486" fill="#ff1d03" stroke="none" /><path d="M 110.36928655335952 81.73862282372117 l 2.9737261969190087 -5.237036841587264 a27.022424957970394,27.022424957970394 0 0,0 0.40250965826493346,0.23315957426779052 l -3.0634325876492703 5.185073109929424" fill="#ff4506" stroke="none" /><line stroke="#e1ed5e" stroke-width="0.3" x1="143.23703022742887" x2="145.7803849466894" y1="26.81831364943548" y2="22.513508569990506" /><path d="M 143.74570117128098 25.957352633546492 a86.0,86.0 0 0,1 28.547481713284135,27.462654790039103" fill="none" id="id50" stroke="none" /><text fill="#e1ed5e" style="font-size:6.75px; font-family:Arial;" text-anchor="middle"><textPath startOffset="19.985693538727396" xlink:href="#id50">February</textPath></text><path d="M 111.2981086023043 82.29822771554956 l 1.5320578660678164 -2.40041412473255 a23.84766382763061,23.84766382763061 0 0,0 0.344125166561121,0.22382858079561432 l -1.5731500584132174 2.373686619777408" fill="#ff1802" stroke="none" /><path d="M 112.48926042617603 83.11751280151076 l 3.3374829477274144 -4.511477158574712 a26.611792813238264,26.611792813238264 0 0,0 0.3659170252479796,0.27560111716127805 l -3.414646126733777 4.453359451907587" fill="#ff3f05" stroke="none" /><path d="M 112.77801427241765 83.33499621200491 l 2.6172060020502874 -3.4133431852771974 a25.301241560020355,25.301241560020355 0 0,0 0.34333476945966807,0.26797823344914445 l -2.675573326669386 3.3677865626048287" fill="#ff2c04" stroke="none" /><path d="M 113.06298171725822 83.55741782278167 l 2.781924989602054 -3.5016530867494597 a25.47221209109255,25.47221209109255 0 0,0 0.3409596309452663,0.27569897607144056 l -2.8417880191118114 3.4532480134138894" fill="#ff2f04" stroke="none" /><path d="M 113.34407831869373 83.78471172551755 l 4.771729879156781 -5.798450347079712 a28.509422911728066,28.509422911728066 0 0,0 0.37624627074430894,0.31509543148486724 l -4.870833686860207 5.715453758201026" fill="#ff5a08" stroke="none" /><path d="M 113.89432698308785 84.25364557470407 l 1.0482950536173368 -1.1880262697599733 a22.584401759995984,22.584401759995984 0 0,0 0.28928361548365256,0.2597216862567359 l -1.0685896566969795 1.16980557473394" fill="#ff0500" stroke="none" /><path d="M 114.16331599549186 84.49514656593476 l 1.8289848101074264 -2.002224720741499 a23.7118424120793,23.7118424120793 0 0,0 0.2989861395913134,0.2778750320635024 l -1.8631788334935866 1.9704451026033563" fill="#ff1602" stroke="none" /><path d="M 114.68862486808459 84.99185889309783 l 8.579197633022384 -8.765817754673943 a33.26548788000762,33.26548788000762 0 0,0 0.40578224213456104,0.40403968422966335 l -8.728815675324267 8.616842219794162" fill="#ff9a0e" stroke="none" /><path d="M 115.19652480421416 85.50635884689758 l 8.627485257505954 -8.228438869214147 a32.922277806395755,32.922277806395755 0 0,0 0.3875934718527436,0.4134576915992108 l -8.767846051329162 8.07871176073688" fill="#ff950d" stroke="none" /><path d="M 115.68641384162765 86.03803664274999 l 4.488334638652854 -3.994919705206807 a27.00870462575593,27.00870462575593 0 0,0 0.30610911691202475,0.34993563694179397 l -4.556435619142728 3.917068512062065" fill="#ff4506" stroke="none" /><path d="M 115.9244219780498 86.31012108654704 l 2.4115878556122303 -2.0731895812602823 a24.1802312848569,24.1802312848569 0 0,0 0.2686186343897087,0.31795973643864395 l -2.446917103489056 2.0313708951925316" fill="#ff1c02" stroke="none" /><path d="M 116.38621287248628 86.86637796730983 l 9.551613010574398 -7.655660039303264 a33.24101473494575,33.24101473494575 0 0,0 0.35401034773269197,0.4495571913068438 l -9.681977438901054 7.490110454043382" fill="#ff9a0e" stroke="none" /><path d="M 116.82858285166822 87.43820079747576 l 9.395257594507578 -7.013147832973693 a32.72412503320806,32.72412503320806 0 0,0 0.333065190113111,0.4543005450080942 l -9.514585397134315 6.850384844294105" fill="#ff930d" stroke="none" /><line stroke="#e1ed5e" stroke-width="0.3" x1="172.23445277983987" x2="176.4835382374775" y1="55.19839476539836" y2="52.563006222186495" /><path d="M 173.08426987136738 54.67131705675599 a86.0,86.0 0 0,1 12.851231095245387,41.99856678651699" fill="none" id="id51" stroke="none" /><text fill="#e1ed5e" style="font-size:6.75px; font-family:Arial;" text-anchor="middle"><textPath startOffset="22.20632615414155" xlink:href="#id51">March</textPath></text><path d="M 117.84615892207809 88.93136811851018 l 9.734816263304065 -6.037775306323785 a32.455190017190574,32.455190017190574 0 0,0 0.29037226037375075,0.47729564780934597 l -9.83730432196404 5.869311885307357" fill="#ff8f0d" stroke="none" /><path d="M 118.56541770881063 90.18545643968196 l 2.6753304191956793 -1.4143041298219226 a24.026160772910963,24.026160772910963 0 0,0 0.19013910846839285,0.36728823749823314 l -2.6992789608241887 1.3680431700633444" fill="#ff1a02" stroke="none" /><path d="M 118.89224826269711 90.83032412892265 l 1.435238979500533 -0.6966177903527533 a22.595364307646904,22.595364307646904 0 0,0 0.1668202901457663,0.3513660755251013 l -1.4470174634880555 0.6718092991871116" fill="#ff0500" stroke="none" /><path d="M 119.04729006885535 91.15688171328212 l 10.690999803343368 -4.963528959892849 a32.787030861535186,32.787030861535186 0 0,0 0.23325268782688544,0.5139413788111163 l -10.7748548081336 4.77876557223967" fill="#ff940d" stroke="none" /><path d="M 119.34039704204932 91.81776055985345 l 10.792595437454565 -4.565966244534206 a32.71870999823747,32.71870999823747 0 0,0 0.21497487680078636,0.5205787158273762 l -10.86959200114155 4.379512958253526" fill="#ff930d" stroke="none" /><path d="M 119.61058180528143 92.48833698450437 l 5.28739622868135 -2.025291197049562 a26.662010536189438,26.662010536189438 0 0,0 0.16047408538550795,0.42999076613750015 l -5.321474902568483 1.9339772938827289" fill="#ff4006" stroke="none" /><path d="M 119.7369772167798 92.82701384747503 l 1.7633287263725186 -0.6408444615250566 a22.876168921264252,22.876168921264252 0 0,0 0.131316746968228,0.3712501269825033 l -1.774098554150556 0.6103967081159387" fill="#ff0901" stroke="none" /><path d="M 120.08093135843002 93.85539295169968 l 1.173482876371972 -0.35907653009271034 a22.22719110801931,22.22719110801931 0 0,0 0.10880115093693299,0.36682339300992045 l -1.1794899244206072 0.33882375033626" fill="#ff0000" stroke="none" /><path d="M 120.18372546131832 94.20196356495316 l 3.2389239339334734 -0.9304228307743218 a24.36991318787787,24.36991318787787 0 0,0 0.11234904746361114,0.40417929999996566 l -3.2544597519634477 0.8745322273554043" fill="#ff1f03" stroke="none" /><path d="M 120.28053869075195 94.5502522615342 l 1.3807279880538144 -0.3710265957463929 a22.42970993972424,22.42970993972424 0 0,0 0.09698571131486157,0.37372550865771387 l -1.3869100312389786 0.34720466153982865" fill="#ff0300" stroke="none" /><path d="M 120.37134235888165 94.90015583598534 l 2.646177341842313 -0.6624547286084278 a23.727838116885845,23.727838116885845 0 0,0 0.09577820919204784,0.3970625111937406 l -2.65718835129518 0.6168069857552811" fill="#ff1602" stroke="none" /><line stroke="#e1ed5e" stroke-width="0.3" x1="184.98032266829074" x2="189.97916517819016" y1="98.17113171792111" y2="98.06355123074" /><path d="M 185.9800911702706 98.14961562048488 a86.0,86.0 0 0,1 -9.607161424134198,41.387399972396054" fill="none" id="id52" stroke="none" /><text fill="#e1ed5e" style="font-size:6.75px; font-family:Arial;" text-anchor="middle"><textPath startOffset="21.466115282336823" xlink:href="#id52">April</textPath></text><line stroke="#e1ed5e" stroke-width="0.3" x1="174.80103733775053" x2="179.2010983576182" y1="140.37084112569926" y2="142.7455964860345" /><path d="M 175.68104954172406 140.8457921977663 a86.0,86.0 0 0,1 -30.038265399797805,32.042727171017184" fill="none" id="id53" stroke="none" /><text fill="#e1ed5e" style="font-size:6.75px; font-family:Arial;" text-anchor="middle"><textPath startOffset="22.206326154141568" xlink:href="#id53">May</textPath></text><path d="M 114.81725581225074 114.88116024355365 l 1.700659938113322 1.7079946097665526 a23.41028832551112,23.41028832551112 0 0,0 -0.2880023382758184,0.28187090445992385 l -1.6710076474617095 -1.7370156171490485" fill="#ff1101" stroke="none" /><path d="M 114.55890576462653 115.13401014063108 l 2.596468678953782 2.6990341137169604 a24.74518821259972,24.74518821259972 0 0,0 -0.3095082959383299,0.2926594123434701 l -2.5496245486246445 -2.743328162806352" fill="#ff2503" stroke="none" /><line stroke="#e1ed5e" stroke-width="0.3" x1="143.8653032363475" x2="146.44561519142675" y1="172.8068346515853" y2="177.08958963109032" /><path d="M 144.38136562736335 173.6633856474863 a86.0,86.0 0 0,1 -40.68145358897372,12.25698825130547" fill="none" id="id54" stroke="none" /><text fill="#e1ed5e" style="font-size:6.75px; font-family:Arial;" text-anchor="middle"><textPath startOffset="21.466115282336833" xlink:href="#id54">June</textPath></text><path d="M 105.88484417918355 120.15858648285463 l 1.8107817418451149 6.202849087097358 a27.461754197886528,27.461754197886528 0 0,0 -0.4549089692674869,0.12856181867786737 l -1.703741604473022 -6.233099699113745" fill="#ff4b07" stroke="none" /><path d="M 104.13013068566511 120.58985236759428 l 1.0210677828487857 5.0903074275911715 a26.191705801040886,26.191705801040886 0 0,0 -0.44280494233236545,0.08486462108264294 l -0.933295225944716 -5.107129247022282" fill="#ff3905" stroke="none" /><path d="M 103.41894727170886 120.7198165907248 l 1.1797982905894504 7.149921379994209 a28.246606084683787,28.246606084683787 0 0,0 -0.4804130794393567,0.07503064281443825 l -1.0565493475415766 -7.169170330155754" fill="#ff5608" stroke="none" /><path d="M 101.62511606390274 120.93702456842531 l 0.23138117776749623 2.9809768737103606 a23.989943205316962,23.989943205316962 0 0,0 -0.4119841374588461,0.028412838213168055 l -0.1800342795297198 -2.9845180564398137" fill="#ff1a02" stroke="none" /><line stroke="#e1ed5e" stroke-width="0.3" x1="102.19456741930631" x2="102.32365962044197" y1="184.97166512339345" y2="189.96999836594603" /><path d="M 102.22038585953345 185.97133177190398 a86.0,86.0 0 0,1 -42.740103519485714,-10.115201625700543" fill="none" id="id55" stroke="none" /><text fill="#e1ed5e" style="font-size:6.75px; font-family:Arial;" text-anchor="middle"><textPath startOffset="22.20632615414155" xlink:href="#id55">July</textPath></text><path d="M 100.54218724476979 120.99299961872073 l 0.13659823059526768 5.2889599127731755 a26.290723583360162,26.290723583360162 0 0,0 -0.4525012992817069,0.007790220230704361 l -0.045537241420892834 -5.290527610283039" fill="#ff3b05" stroke="none" /><path d="M 99.81925306533755 120.99922214144158 l -0.054468873667750786 6.328206783032387 a27.328441194086878,27.328441194086878 0 0,0 -0.47036191714003567,-0.0080977069645407 l 0.1633904807004544 -6.326331598788687" fill="#ff4906" stroke="none" /><path d="M 99.45781275523022 120.99299961872073 l -0.13452955997857613 5.208862857952515 a26.210599819163363,26.210599819163363 0 0,0 -0.4509217278601907,-0.015530656043944739 l 0.22417163951340988 -5.205775403482477" fill="#ff3905" stroke="none" /><path d="M 99.09653310690486 120.98055641714683 l -0.4162583922877232 9.666466751852271 a30.67542508181503,30.67542508181503 0 0,0 -0.5273425933820645,-0.02725758855610796 l 0.5825890540832765 -9.657869356533961" fill="#ff770b" stroke="none" /><path d="M 94.81253420990036 120.34920634021253 l -1.444404134655202 5.666057177832543 a26.84726493727424,26.84726493727424 0 0,0 -0.4468274133309214,-0.11801118101185942 l 1.5417219907976125 -5.640354647517102" fill="#ff4206" stroke="none" /><path d="M 94.46302465271185 120.25689768951611 l -1.5519480747171939 5.677766541688676 a26.886049246186936,26.886049246186936 0 0,0 -0.44537231169299407,-0.1258666639882179 l 1.6494515545148019 -5.650211084361937" fill="#ff4306" stroke="none" /><path d="M 94.11515582081647 120.15858648285463 l -1.6529791537898701 5.662294907297277 a26.898637444365313,26.898637444365313 0 0,0 -0.4433472177596907,-0.1335768798783117 l 1.7502013459898067 -5.63300265831324" fill="#ff4306" stroke="none" /><path d="M 92.06813273071674 119.44442032107085 l -2.087589119854265 5.117579370161178 a26.52699257673042,26.52699257673042 0 0,0 -0.4213099580018357,-0.17610759661401726 l 2.175370537353563 -5.080886730527188" fill="#ff3e05" stroke="none" /><path d="M 91.7346041902142 119.30500536409082 l -2.912982021533458 6.803683071610931 a28.401051789894616,28.401051789894616 0 0,0 -0.44776195550518105,-0.19628568278255965 l 3.0296646516963825 -6.752532835533919" fill="#ff5808" stroke="none" /><path d="M 91.40352486487194 119.15986991738527 l -2.9861611693600016 6.655572040624818 a28.29477879838315,28.29477879838315 0 0,0 -0.4426543041881116,-0.2032008802301658 l 3.1002834693155323 -6.603184090060578" fill="#ff5708" stroke="none" /><path d="M 90.7491055286396 118.85261126421891 l -3.2155472278161756 6.553037879248496 a28.29945541949411,28.29945541949411 0 0,0 -0.4354694492150213,-0.2183534220338849 l 3.3278705847139576 -6.496716616305308" fill="#ff5708" stroke="none" /><path d="M 90.10565033884886 118.52300852407294 l -2.5294378807968823 4.735308638937128 a26.368538339138766,26.368538339138766 0 0,0 -0.3985129787242766,-0.2173010504294753 l 2.6105736713897993 -4.6910669367478866" fill="#ff3c05" stroke="none" /><line stroke="#e1ed5e" stroke-width="0.3" x1="58.666819895761336" x2="56.23545636021788" y1="174.27360380694188" y2="178.64263932499728" /><path d="M 58.180547188652646 175.14741091055294 a86.0,86.0 0 0,1 -31.652253787137756,-30.449443065178592" fill="none" id="id56" stroke="none" /><text fill="#e1ed5e" style="font-size:6.75px; font-family:Arial;" text-anchor="middle"><textPath startOffset="22.20632615414155" xlink:href="#id56">August</textPath></text><path d="M 89.4739219176387 118.17145234162733 l -3.665049128073612 6.327073107325116 a28.31193812997825,28.31193812997825 0 0,0 -0.41959927521456464,-0.24790664783197297 l 3.7734162743165585 -6.263047887199394" fill="#ff5708" stroke="none" /><path d="M 88.8546689885994 117.79835938074946 l -3.793657605301855 6.058221272890725 a28.147998532286525,28.147998532286525 0 0,0 -0.4084384470830568,-0.26068474152468885 l 3.897377854431835 -5.992022102542232" fill="#ff5507" stroke="none" /><path d="M 88.24862548938628 117.40417183066458 l -5.135918890987933 7.606464657081386 a30.17801544094555,30.17801544094555 0 0,0 -0.4280149588014164,-0.29439259151237596 l 5.26609073441224 -7.516931276203908" fill="#ff710a" stroke="none" /><path d="M 87.65650970185807 116.9893568818739 l -5.360462073554723 7.378043083412142 a30.119762792019557,30.119762792019557 0 0,0 -0.4168217026089805,-0.30835473079058817 l 5.486668746582269 -7.284678403881787" fill="#ff700a" stroke="none" /><path d="M 87.07902340077011 116.55440617244103 l -4.408005510384196 5.64755404274995 a28.164173312068794,28.164173312068794 0 0,0 -0.3796027728471819,-0.3015794008555269 l 4.504565775948737 -5.570840727889292" fill="#ff5507" stroke="none" /><path d="M 86.51685102203217 116.09983520530335 l -6.416309670645497 7.661528363469597 a30.993400154795566,30.993400154795566 0 0,0 -0.4060644943260123,-0.34605697144570285 l 6.5472396415485665 -7.549947001800943" fill="#ff7c0b" stroke="none" /><path d="M 85.97065885151581 115.62618273729859 l -4.905764149164731 5.464145910317306 a28.343256254310297,28.343256254310297 0 0,0 -0.36022989827865753,-0.329061471109101 l 4.999093596910243 -5.378891672621629" fill="#ff5708" stroke="none" /><path d="M 85.44109423537348 115.13401014063109 l -5.371177848602864 5.583349555389756 a28.747473377753103,28.747473377753103 0 0,0 -0.35366243410562387,-0.3461331278476686 l 5.466490235084282 -5.490066324619518" fill="#ff5d08" stroke="none" /><path d="M 84.9287848128048 114.62390073753433 l -5.155163651193202 5.002158126230332 a28.183125934465842,28.183125934465842 0 0,0 -0.3348335848719535,-0.35107167509121145 l 5.240503787444114 -4.91267933455662" fill="#ff5507" stroke="none" /><path d="M 84.19399662182784 113.82643327865904 l -5.483048223743573 4.796342162874278 a28.28482779256058,28.28482779256058 0 0,0 -0.3174062635627389,-0.36921519258158453 l 5.5647969968770905 -4.701249871131163" fill="#ff5608" stroke="none" /><path d="M 83.72743513129214 113.27417163493432 l -5.506082875021165 4.491528514951762 a28.10568624604451,28.10568624604451 0 0,0 -0.30258058236365337,-0.37751580039007077 l 5.582581369439679 -4.396084880983431" fill="#ff5407" stroke="none" /><path d="M 83.28015986056508 112.70617746262583 l -4.815721618649363 3.659688907721253 a27.048512016159414,27.048512016159414 0 0,0 -0.27852076076938487,-0.3731240742628144 l 4.878003646113833 -3.5762519539491304" fill="#ff4506" stroke="none" /><path d="M 82.6465618267979 111.8261652097733 l -7.833259369621184 5.338274669926753 a30.479300016527574,30.479300016527574 0 0,0 -0.29172593583698647,-0.4360906921815452 l 7.923988410868901 -5.202647063539388" fill="#ff750a" stroke="none" /><path d="M 82.24976979558568 111.22182372390057 l -6.019211338434925 3.8053888777184484 a28.12122809966138,28.12122809966138 0 0,0 -0.2551470632832659,-0.4113783066061998 l 6.083823041386147 -3.7012142397469843" fill="#ff5407" stroke="none" /><line stroke="#e1ed5e" stroke-width="0.3" x1="26.63291911575756" x2="22.317208475507996" y1="142.92168965132927" y2="145.44649492493687" /><path d="M 25.769776987707644 143.4266507060508 a86.0,86.0 0 0,1 -11.730757126820373,-40.83630448921669" fill="none" id="id57" stroke="none" /><text fill="#e1ed5e" style="font-size:6.75px; font-family:Arial;" text-anchor="middle"><textPath startOffset="21.46611528233685" xlink:href="#id57">September</textPath></text><path d="M 81.87401531095188 110.60418214915194 l -6.140572034842026 3.592397625536828 a28.114207307567483,28.114207307567483 0 0,0 -0.24077543162020293,-0.4198122600513583 l 6.201499462614605 -3.486165519627163" fill="#ff5407" stroke="none" /><path d="M 81.51974371655577 109.97397251340807 l -9.366407580882294 5.05514048767758 a31.643497372638677,31.643497372638677 0 0,0 -0.2545756910523672,-0.481561268116997 l 9.452035780159546 -4.8931642044744565" fill="#ff840c" stroke="none" /><path d="M 81.02952815118164 109.00673069616217 l -6.5686680782175015 3.118648017005819 a28.271407413683264,28.271407413683264 0 0,0 -0.20493456314406186,-0.4414108171776827 l 6.62137725820139 -3.005117132549309" fill="#ff5608" stroke="none" /><path d="M 80.87730276802145 108.67885076344099 l -6.502372586194554 2.951106771146295 a28.140719881384506,28.140719881384506 0 0,0 -0.19639397050936283,-0.4428165570045989 l 6.552207641435196 -2.8387418776490003" fill="#ff5407" stroke="none" /><path d="M 80.58989483394504 108.01547362559985 l -5.818238234824081 2.4026626707951864 a27.29481406133664,27.29481406133664 0 0,0 -0.1755932392389177,-0.4358080194942505 l 5.858734088320387 -2.3021552834581303" fill="#ff4906" stroke="none" /><path d="M 80.20201598880116 107.00284435728193 l -8.468738587455375 2.9955200588560564 a29.98291009003567,29.98291009003567 0 0,0 -0.1679173876949041,-0.4880465290282638 l 8.519046806093506 -2.849300826738496" fill="#ff6e0a" stroke="none" /><path d="M 79.97269907076064 106.31721596034903 l -6.88259203714442 2.170977528087266 a28.216870275765228,28.216870275765228 0 0,0 -0.14212330661159636,-0.46446718920618574 l 6.918942116262147 -2.0521833663290328" fill="#ff5607" stroke="none" /><path d="M 79.86692584326677 105.97154293290107 l -6.541075771582025 1.9401068358106615 a27.822733087549054,27.822733087549054 0 0,0 -0.13223398209952453,-0.4603238391571357 l 6.573502390567654 -1.8272255211489297" fill="#ff5007" stroke="none" /><path d="M 79.76711848015287 105.62410040840567 l -6.619576600505971 1.8400326926176536 a27.870554175600972,27.870554175600972 0 0,0 -0.12450430003018596,-0.4633268171487925 l 6.650268976877931 -1.725814942293322" fill="#ff5107" stroke="none" /><path d="M 79.58551787078972 104.9243191809786 l -11.537302418955633 2.782992937994838 a32.868209502674304,32.868209502674304 0 0,0 -0.1279347068392641,-0.5511393687011931 l 11.583497691725452 -2.583984911945071" fill="#ff950d" stroke="none" /><path d="M 79.4281124754447 104.21870165774334 l -7.893112695642505 1.6186500910096666 a29.057372781697424,29.057372781697424 0 0,0 -0.09626301771303501,-0.49084305341792367 l 7.9198056463312065 -1.482543310523788" fill="#ff6109" stroke="none" /><path d="M 79.35854240842038 103.8639653848113 l -7.938584451728511 1.486058597838231 a29.07647777520836,29.07647777520836 0 0,0 -0.08785742662297531,-0.49275110642471903 l 7.962988320690675 -1.3491887406802983" fill="#ff6109" stroke="none" /><path d="M 79.23777060512086 103.15116336523772 l -8.400073642715594 1.2749114666247259 a29.49627191483279,29.49627191483279 0 0,0 -0.07186689257118371,-0.5026368792581073 l 8.420774586303375 -1.130129115386218" fill="#ff6709" stroke="none" /><path d="M 79.1416061653843 102.43462659150553 l -12.574247666351312 1.4676872044610774 a33.659613347368875,33.659613347368875 0 0,0 -0.062218510595682605,-0.5760661352847836 l 12.597648478448047 -1.2510247472915117" fill="#ff9f0e" stroke="none" /><path d="M 79.07016306316243 101.71520430193888 l -8.514857128771736 0.6977942361299138 a29.543401472444742,29.543401472444742 0 0,0 -0.037173254079196784,-0.5071995176227374 l 8.525606941515267 -0.5511215820104156" fill="#ff6809" stroke="none" /><path d="M 79.04373962182676 101.35467743843564 l -8.617271959502027 0.5570470920737375 a29.635257812411144,29.635257812411144 0 0,0 -0.028525557275124562,-0.5093429875328747 l 8.625583867664682 -0.4086323882054252" fill="#ff6909" stroke="none" /><path d="M 79.0095281055655 100.63252640178507 l -7.152136135575652 0.21552230734327468 a28.15538267088278,28.15538267088278 0 0,0 -0.01042813340446446,-0.48455438274205526 l 7.1547863316651235 -0.0923781088110906" fill="#ff5507" stroke="none" /><line stroke="#e1ed5e" stroke-width="0.3" x1="15.007084014347285" x2="10.007500721073583" y1="101.09737516637583" y2="101.16192664675087" /><path d="M 14.007167355692545 101.11028546245083 a86.0,86.0 0 0,1 10.666146001902534,-42.60595125391555" fill="none" id="id58" stroke="none" /><text fill="#e1ed5e" style="font-size:6.75px; font-family:Arial;" text-anchor="middle"><textPath startOffset="22.20632615414155" xlink:href="#id58">October</textPath></text><path d="M 79.00019446554 99.90962569577889 l -12.788283677194293 -0.05503537819015631 a33.78840210117146,33.78840210117146 0 0,0 0.007509058671901528,-0.5815848694117546 l 12.785441611404677 0.27515650566238287" fill="#ffa10e" stroke="none" /><path d="M 79.01574976396665 99.18683210126434 l -11.76661920123915 -0.4559723079676216 a32.77545065687947,32.77545065687947 0 0,0 0.026698557107629008,-0.5635643432202275 l 11.757027035898021 0.6584477578108582" fill="#ff930d" stroke="none" /><path d="M 79.03285615573316 98.82574320788736 l -2.414896241354581 -0.13524533120581872 a23.41868045763004,23.41868045763004 0 0,0 0.02600522798706815,-0.40228936677357935 l 2.4122104223630996 0.17679376223240986" fill="#ff1101" stroke="none" /><path d="M 79.05617556472873 98.46500227214037 l -7.037266822202993 -0.5157696301269469 a28.056142192320127,28.056142192320127 0 0,0 0.039446289536278024,-0.4813446461301234 l 7.0273460488472175 0.6368281934648486" fill="#ff5307" stroke="none" /><path d="M 79.08570108090925 98.10471618934814 l -6.462978778260281 -0.5856844207119011 a27.489462298904847,27.489462298904847 0 0,0 0.046762028893661475,-0.47088724936638654 l 6.451939623684391 0.696847200782718" fill="#ff4b07" stroke="none" /><path d="M 79.16333360222342 97.38593545837743 l -8.98468180270569 -1.1271734964629758 a30.05511055631014,30.05511055631014 0 0,0 0.06881761734792972,-0.5127711828354645 l 8.963948186299927 1.2816630213630997" fill="#ff6f0a" stroke="none" /><path d="M 79.26566170972629 96.67025291283419 l -8.902484571821851 -1.4296584562559997 a30.01654894364082,30.01654894364082 0 0,0 0.08631635782350405,-0.5094440299631957 l 8.876556352478126 1.5826882745350235" fill="#ff6e0a" stroke="none" /><path d="M 79.32604984820605 96.31383870115002 l -9.037996749433594 -1.6114730659734697 a30.180535424752204,30.180535424752204 0 0,0 0.09559221265667475,-0.5106574223967564 l 9.008918812867057 1.7668085658327988" fill="#ff710a" stroke="none" /><path d="M 79.46518482838121 95.60439243477599 l -11.853352670460467 -2.5372853973166234 a33.12187224473796,33.12187224473796 0 0,0 0.1241370123172523,-0.5564818853962308 l 11.807921271141177 2.7409454522628134" fill="#ff980e" stroke="none" /><path d="M 79.62865764111835 94.90015583598534 l -10.563414952154233 -2.644487984480879 a31.889400908748808,31.889400908748808 0 0,0 0.13788926557013076,-0.5313435888131676 l 10.516329354713795 2.8259279988429102" fill="#ff880c" stroke="none" /><path d="M 79.81627453868168 94.20196356495316 l -8.925704248096707 -2.5640240964482937 a30.28667948685961,30.28667948685961 0 0,0 0.14825200225319055,-0.4998320515796165 l 8.88024634873181 2.7172855347744496" fill="#ff720a" stroke="none" /><path d="M 79.91906864156998 93.8553929516997 l -8.944277022398548 -2.736878417280613 a30.353640730987216,30.353640730987216 0 0,0 0.15718057034118801,-0.4983053614457262 l 8.895840968289155 2.8904339451527536" fill="#ff730a" stroke="none" /><path d="M 80.14247586403 93.16781622104843 l -11.200613465184972 -3.85368533897568 a32.84502565165306,32.84502565165306 0 0,0 0.18854126919188352,-0.5330315572458194 l 11.132619115183278 4.04591452264811" fill="#ff940d" stroke="none" /><path d="M 80.38941819471856 92.48833698450439 l -7.660139556217124 -2.9341499181056756 a29.20286375375343,29.20286375375343 0 0,0 0.18384795000820828,-0.46787297951637064 l 7.608498056327225 3.0655719025178096" fill="#ff6309" stroke="none" /><path d="M 80.65960295795068 91.81776055985345 l -8.467002300269815 -3.58208986146741 a30.193557294562424,30.193557294562424 0 0,0 0.20662355648218642,-0.47691565631332766 l 8.404088033944948 3.727304662367337" fill="#ff710a" stroke="none" /><path d="M 80.803312248108 91.48605970444005 l -8.54146757739253 -3.7882339875645292 a30.343842096278536,30.343842096278536 0 0,0 0.2158714144578061,-0.4756440469174463 l 8.47499384597137 3.9347000433240464" fill="#ff730a" stroke="none" /><line stroke="#e1ed5e" stroke-width="0.3" x1="26.266209847984243" x2="21.928928074336255" y1="57.711370442889674" y2="55.22380399835377" /><path d="M 25.398753493254645 57.213857153982495 a86.0,86.0 0 0,1 29.58750427330803,-30.492523968695096" fill="none" id="id59" stroke="none" /><text fill="#e1ed5e" style="font-size:6.75px; font-family:Arial;" text-anchor="middle"><textPath startOffset="21.46611528233685" xlink:href="#id59">November</textPath></text><path d="M 82.54541684631803 88.32363383020206 l -8.624541773307355 -5.769447881120679 a31.376379409625088,31.376379409625088 0 0,0 0.3041649144616552,-0.4463244799933634 l 8.52395239317696 5.917050384384458" fill="#ff810b" stroke="none" /><path d="M 82.7489923806493 88.02491185347247 l -21.672405823879537 -15.044278909085662 a47.382257334983436,47.382257334983436 0 0,0 0.47086091195315083,-0.6659993676069978 l 21.410232292122508 15.415104777024446" fill="#b6ff1f" stroke="none" /><path d="M 83.39014120810768 87.1503855733568 l -4.688055626434655 -3.626744090066862 a26.92715262595629,26.92715262595629 0 0,0 0.28676894314373624,-0.36416743595041673 l 4.624932602696948 3.7069039199703266" fill="#ff4406" stroke="none" /><path d="M 84.07557802195018 86.31012108654704 l -4.669175576221773 -4.013988598910267 a27.157378097353412,27.157378097353412 0 0,0 0.3077941405268083,-0.35186191021927515 l 4.59938957211712 4.093766065332485" fill="#ff4706" stroke="none" /><path d="M 84.31358615837235 86.03803664274999 l -12.085311007131752 -10.756739631257592 a37.17906640179734,37.17906640179734 0 0,0 0.42960651896926016,-0.47438224829912834 l 11.898360847546448 10.963174666826275" fill="#ffcd13" stroke="none" /><path d="M 84.5562425177563 85.77008943001954 l -1.199390477671042 -1.1051209043762784 a22.63089844295021,22.63089844295021 0 0,0 0.26643322039358186,-0.28421238299680407 l 1.1801899353070042 1.1256027042511327" fill="#ff0601" stroke="none" /><path d="M 85.05521093208273 85.24692304244772 l -6.562015911949999 -6.4778382154290615 a30.220761398819413,30.220761398819413 0 0,0 0.3686417696220535,-0.36705870470932783 l 6.449538342160632 6.589832770788498" fill="#ff710a" stroke="none" /><path d="M 85.57189188830299 84.74124197986013 l -13.021926781939936 -13.771620519014078 a39.95331392748862,39.95331392748862 0 0,0 0.5037772640127696,-0.4682060632702316 l 12.78294163413231 13.993731168358957" fill="#ffef16" stroke="none" /><path d="M 85.83668400450813 84.49514656593479 l -13.684538728365245 -14.980726784859378 a41.290115209400156,41.290115209400156 0 0,0 0.5288851101059576,-0.4748382738619436 l 13.424642630663318 15.2140640674906" fill="#feff18" stroke="none" /><path d="M 86.10567301691215 84.25364557470407 l -34.863078888779995 -39.5101106522096 a73.692343972869,73.692343972869 0 0,0 0.9583731491069327,-0.8310917509396948 l 34.177811941026285 40.104367396568975" fill="#40ffc8" stroke="none" /><path d="M 86.65592168130627 83.78471172551755 l -2.1406495492311732 -2.6012474377340373 a24.368808205425402,24.368808205425402 0 0,0 0.3261899603608855,-0.26375626295394894 l 2.0955561903057873 2.6377097979521205" fill="#ff1f03" stroke="none" /><path d="M 86.93701828274178 83.55741782278169 l -8.993534841779756 -11.320304881409374 a35.45797259502062,35.45797259502062 0 0,0 0.48116037379191123,-0.3755533037839689 l 8.79734191282842 11.473436574416565" fill="#ffb710" stroke="none" /><path d="M 87.22198572758235 83.33499621200491 l -4.466632570871073 -5.8253533863884925 a28.340677666229066,28.340677666229066 0 0,0 0.3896895086293971,-0.2935060587888934 l 4.365696908483286 5.90137603468324" fill="#ff5708" stroke="none" /><path d="M 87.51073957382395 83.11751280151077 l -4.368296981527271 -5.904890710363173 a28.345049545112243,28.345049545112243 0 0,0 0.39474488084058024,-0.28679894364309094 l 4.266006784332909 5.9792088888229316" fill="#ff5708" stroke="none" /><path d="M 87.80319425747018 82.90503203632743 l -7.701651782375648 -10.79458780162264 a34.2604134921921,34.2604134921921 0 0,0 0.4830210276202812,-0.33838709768835085 l 7.514699615171706 10.925559742074933" fill="#ffa70f" stroke="none" /><path d="M 88.09926311788651 82.69761687909137 l -35.70221064634046 -51.907149362725875 a84.0,84.0 0 0,0 1.198381222373842,-0.8091523508053382 l 34.80342472956008 52.51401362582988" fill="#4dd2ff" stroke="none" /><line stroke="#e1ed5e" stroke-width="0.3" x1="56.762969772571076" x2="54.21961505331055" y1="26.818313649435495" y2="22.513508569990535" /><path d="M 56.25429882871897 25.957352633546506 a86.0,86.0 0 0,1 42.265352541879196,-11.944610805530505" fill="none" id="id60" stroke="none" /><text fill="#e1ed5e" style="font-size:6.75px; font-family:Arial;" text-anchor="middle"><textPath startOffset="22.20632615414155" xlink:href="#id60">December</textPath></text><path d="M 89.3179101791058 81.91981866633112 l -4.657852109978659 -7.883739248204212 a30.156906181244196,30.156906181244196 0 0,0 0.44919899010618897,-0.26020504885808743 l 4.5214563874071505 7.962748454452347" fill="#ff700a" stroke="none" /><path d="M 89.63071344664047 81.73862282372117 l -5.481470598792155 -9.653431947330606 a32.101138152782625,32.101138152782625 0 0,0 0.48285601218258684,-0.2687088480024993 l 5.314490497537523 9.746356192893291" fill="#ff8a0c" stroke="none" /><path d="M 90.26544431104013 81.39251694778311 l -2.63202899218168 -5.031090933149419 a26.677979622480446,26.677979622480446 0 0,0 0.408731435993036,-0.20936811673073563 l 2.54503706859988 5.075651575192659" fill="#ff4006" stroke="none" /><path d="M 90.91171255644093 81.06846463323043 l -6.293202111772561 -13.109178059028764 a35.54149037076117,35.54149037076117 0 0,0 0.553807145342772,-0.2600198804815188 l 6.06661675513018 13.21556292215029" fill="#ffb811" stroke="none" /><path d="M 91.23893434514133 80.91482961587045 l -3.9630796401846258 -8.633202073637298 a30.499377783765695,30.499377783765695 0 0,0 0.4790114366058632,-0.21491846875681753 l 3.813886085111988 8.700140872910644" fill="#ff750a" stroke="none" /><path d="M 91.56875222667455 80.76684994638697 l -3.2172446543139053 -7.339097469222863 a29.013302367218202,29.013302367218202 0 0,0 0.4591234103222622,-0.1965726836269628 l 3.090437486201335 7.3933896808126125" fill="#ff6108" stroke="none" /><path d="M 91.90106846888425 80.62456947434976 l -3.399802628494914 -8.133497533130924 a29.815465956724452,29.815465956724452 0 0,0 0.4752246376882945,-0.19385606189308982 l 3.259294121218239 8.190814481207592" fill="#ff6c09" stroke="none" /><path d="M 92.23578459929587 80.48803036053334 l -7.947360813012186 -19.972225768403806 a42.49535638309574,42.49535638309574 0 0,0 0.6819833576400822,-0.26459894751719015 l 7.602394290372428 20.10606741981155" fill="#f0ff19" stroke="none" /><path d="M 92.57280143429618 80.3572730644239 l -7.692417568525022 -20.344152164005976 a42.74989230595824,42.74989230595824 0 0,0 0.6905485257857277,-0.2543348498256221 l 7.341086716966724 20.47355028163792" fill="#ecff1a" stroke="none" /><path d="M 92.91201910852362 80.23233633223022 l -0.5601737022919531 -1.5622679451284784 a22.659661323618597,22.659661323618597 0 0,0 0.36829286626581825,-0.1284901494201513 l 0.5331988319628495 1.5716789477208395" fill="#ff0601" stroke="none" /><path d="M 93.25333710446033 80.11325718540243 l -4.46598599607041 -13.164125181971519 a34.901051137367766,34.901051137367766 0 0,0 0.5705776370121167,-0.18811047607984224 l 4.238725536815884 13.239049382310595" fill="#ffaf10" stroke="none" /><path d="M 93.59665428221793 80.00007090966166 l -3.948389581440878 -12.33222679677526 a33.94888404666335,33.94888404666335 0 0,0 0.5580786358597893,-0.17339774874923342 l 3.7355255728703596 12.398364680407019" fill="#ffa30f" stroke="none" /><path d="M 93.94186890950719 79.89281104454417 l -3.7382948254174257 -12.40755594474209 a33.95848342683848,33.95848342683848 0 0,0 0.5611393304947632,-0.16381195802501944 l 3.5241652771992413 12.470066231685808" fill="#ffa30f" stroke="none" /><path d="M 94.63758080256005 79.69619591428918 l -1.128998105090944 -4.274741584889305 a25.421317941392687,25.421317941392687 0 0,0 0.4240410339420194,-0.10809750121928999 l 1.055248182463925 4.293542082277457" fill="#ff2e04" stroke="none" /><path d="M 94.98787191387505 79.60689891045804 l -2.0277739717033696 -8.250507345605357 a29.49604253403934,29.49604253403934 0 0,0 0.4940956710390778,-0.11693648174407228 l 1.8854546137017578 8.2841897394903" fill="#ff6709" stroke="none" /><path d="M 97.11714578562143 79.19881850522333 l -0.26162739521304607 -1.8877676521722262 a22.905811009128083,22.905811009128083 0 0,0 0.39101885135023723,-0.05076546922143805 l 0.22909381535495107 1.8919914445578008" fill="#ff0a01" stroke="none" /><path d="M 97.47563105711357 79.15227682838746 l -0.6268393195699158 -5.176807710418548 a26.214620369998933,26.214620369998933 0 0,0 0.44843640436933396,-0.05038705506501112 l 0.5376362116908638 5.186830718954158" fill="#ff3905" stroke="none" /><path d="M 99.27714615592234 79.0124445844662 l -0.3144766094830398 -9.130608244652814 a30.13602224467705,30.13602224467705 0 0,0 0.518588369542901,-0.013393607600573546 l 0.15726160474525977 9.134668644395747" fill="#ff700a" stroke="none" /><path d="M 99.63851952072746 79.00311137660856 l -0.036430543083229565 -2.1160978240031363 a23.116411393188987,23.116411393188987 0 0,0 0.39791102235576475,-0.0034249457944091405 l 5.183712876695765e-16 2.1164113931889865" fill="#ff0d01" stroke="none" /></svg>