<?xml version="1.0" encoding="utf-8" ?>
<svg baseProfile="full" height="200mm" version="1.1" viewBox="0,0,200,200" width="200mm" xmlns="http://www.w3.org/2000/svg" xmlns:ev="http://www.w3.org/2001/xml-events" xmlns:xlink="http://www.w3.org/1999/xlink"><defs /><rect fill="#1a1a1a" height="200" width="200" x="0" y="0" /><rect fill="#1a1a1a" height="200" width="180" x="10" y="0" /><text alignment-baseline="middle" fill="#e1ed5e" style="dominant-baseline: central; font-size:9.0px; font-family:Arial;" text-anchor="middle" x="100.0" y="100.0">2025</text><line stroke="#e1ed5e" stroke-width="0.3" x1="100.0" x2="100.0" y1="15.0" y2="10.0" /><path d="M 100.0 14.0 a86.0,86.0 0 0,1 42.46469731375804,11.215312516191453" fill="none" id="id85" stroke="none" /><text fill="#e1ed5e" style="font-size:6.75px; font-family:Arial;" text-anchor="middle"><textPath startOffset="22.20632615414155" xlink:href="#id85">January</textPath></text><path d="M 100.36148047927253 79.00311137660856 l 0.29710708263604435 -17.257707348082178 a38.26026464254248,38.26026464254248 0 0,0 0.6583924082004955,0.01700433345700843 l -0.5941261260314077 17.250036222482812" fill="#ffda14" stroke="none" /><path d="M 100.72285384407766 79.0124445844662 l 0.04354862499492174 -1.264403845728219 a22.265153574800806,22.265153574800806 0 0,0 0.3829173491332742,0.01648922654171927 l -0.06530680651752749 1.263466892662305" fill="#ff0000" stroke="none" /><path d="M 101.08401301168833 79.027996857942 l 0.6725974955566113 -13.012497671208035 a34.02986888016236,34.02986888016236 0 0,0 0.5847270554749732,0.03527233280657463 l -0.8964865998711964 12.998992069021156" fill="#ffa40f" stroke="none" /><path d="M 101.44485096284872 79.0497635885617 l 0.5274733450859388 -7.648326065751915 a28.66649331427585,28.66649331427585 0 0,0 0.49198502033542246,0.0381875064020477 l -0.6590485547837025 7.638113297161403" fill="#ff5b08" stroke="none" /><path d="M 101.80526077348638 79.07773832637324 l 0.7409113280839283 -8.586870612154952 a29.618775812490625,29.618775812490625 0 0,0 0.5075739610125054,0.04820026359613701 l -0.8886104161866779 8.572844804043637" fill="#ff6809" stroke="none" /><path d="M 102.16513564639614 79.11191278185805 l 1.7508723209828643 -16.89149306159889 a37.9819931614174,37.9819931614174 0 0,0 0.6497331719355736,0.07300509234508444 l -2.041372196428163 16.858852015783203" fill="#ffd714" stroke="none" /><path d="M 102.52436894288641 79.15227682838746 l 0.7866474255695346 -6.496597024040202 a27.54404974499149,27.54404974499149 0 0,0 0.4701969595631746,0.061045060094396995 l -0.8983591136405552 6.4820936407816685" fill="#ff4c07" stroke="none" /><path d="M 102.88285421437855 79.19881850522331 l 2.8992321276560493 -20.919356026423678 a42.11930404843639,42.11930404843639 0 0,0 0.7172937928798929,0.10571045936446803 l -3.258894900964598 20.86635108289824" fill="#f4ff19" stroke="none" /><path d="M 103.59715602781102 79.31037775812273 l 2.9656721119657257 -17.057540794853896 a38.313431463571746,38.313431463571746 0 0,0 0.6487830074159875,0.1185609476886514 l -3.2588502404846142 17.003964365814504" fill="#ffdb14" stroke="none" /><path d="M 104.307194497241 79.44645832069477 l 3.6952965098630433 -17.63361995412844 a39.016652546531574,39.016652546531574 0 0,0 0.656143558380067,0.1434075679083627 l -3.998282792396638 17.567398888124206" fill="#ffe415" stroke="none" /><path d="M 104.66035177308747 79.52364482259891 l 4.434251837004482 -19.482931757401214 a40.981171617738795,40.981171617738795 0 0,0 0.6864859740782966,0.16246905059206504 l -4.768961498045303 19.40371679466828" fill="#fffc17" stroke="none" /><path d="M 105.01212808612495 79.60689891045804 l 4.535081958264934 -18.45211918671407 a40.00125445461119,40.00125445461119 0 0,0 0.6672420893761356,0.17009486534683368 l -4.852032936326094 18.37132132519837" fill="#fff016" stroke="none" /><path d="M 105.36241919743992 79.69619591428918 l 1.8250180438554395 -6.910091779661387 a28.1470315001224,28.1470315001224 0 0,0 0.4673775855323515,0.12775194941656873 l -1.9436935186115019 6.877653289418525" fill="#ff5407" stroke="none" /><path d="M 105.71112130821622 79.79150937346287 l 2.9758774745740046 -10.529979806966303 a31.94240930868495,31.94240930868495 0 0,0 0.5278251666474256,0.1540866400634546 l -3.1566928589448575 10.477194837984145" fill="#ff880c" stroke="none" /><path d="M 106.0581310904928 79.89281104454417 l 2.522928481455823 -8.373704520416211 a29.745518596274316,29.745518596274316 0 0,0 0.48898038646377323,0.15192858630885042 l -2.6666942406303145 8.32903579922484" fill="#ff6a09" stroke="none" /><path d="M 106.40334571778207 80.00007090966166 l 7.039468175174729 -21.986766066092265 a44.08618622107957,44.08618622107957 0 0,0 0.7207402395960124,0.23761672523703684 l -7.416891237013159 21.862335616595995" fill="#ddff1b" stroke="none" /><path d="M 106.74666289553966 80.11325718540242 l 3.059090322155102 -9.01710125809641 a30.521877372549326,30.521877372549326 0 0,0 0.49607933414405003,0.17307233890979426 l -3.2138516603624256 8.963108066014408" fill="#ff750a" stroke="none" /><path d="M 107.08798089147638 80.2323363322302 l 6.1335565235217455 -17.105870388284643 a39.17226781026599,39.17226781026599 0 0,0 0.6327583609910571,0.23305024442048236 l -6.427097210285379 16.997756876057835" fill="#ffe515" stroke="none" /><path d="M 107.4271985657038 80.35727306442388 l 6.556616819857015 -17.340297647132132 a39.538477462120994,39.538477462120994 0 0,0 0.6345301207150483,0.24618782882054743 l -6.8541301055717305 17.224867114421038" fill="#ffea16" stroke="none" /><path d="M 108.09893153111575 80.62456947434976 l 3.0878489257279274 -7.387196953608883 a29.00659039913542,29.00659039913542 0 0,0 0.45901719622648585,0.19652720829423653 l -3.214549879744728 7.332950217351855" fill="#ff6008" stroke="none" /><path d="M 108.43124777332544 80.76684994638697 l 8.483374709491189 -19.352060707417202 a42.129834360098414,42.129834360098414 0 0,0 0.6616748913330053,0.29687423638098326 l -8.815231719290976 19.203166140519688" fill="#f4ff19" stroke="none" /><path d="M 108.76106565485865 80.91482961587045 l 7.977876547606676 -17.37906542569806 a40.12272023744389,40.12272023744389 0 0,0 0.6251918230296291,0.29353594381952375 l -8.275846581935904 17.23916449923853" fill="#fff116" stroke="none" /><path d="M 109.08828744355905 81.06846463323043 l 6.661806938389839 -13.877007570892705 a36.393213141088914,36.393213141088914 0 0,0 0.5624115880998518,0.27597292375388727 l -6.899689793500123 13.760279487003986" fill="#ffc212" stroke="none" /><path d="M 109.73455568895987 81.39251694778311 l 4.119550514284706 -7.874469963147805 a29.88695525139293,29.88695525139293 0 0,0 0.45379065362349236,0.242399251400111 l -4.254486214436509 7.80239198524594" fill="#ff6c0a" stroke="none" /><path d="M 110.05341064243156 81.56283822128135 l 3.306238486935522 -6.06338048158279 a27.906214288373395,27.906214288373395 0 0,0 0.4197571837567112,0.2335944182991497 l -3.4101197597642683 6.00557066572346" fill="#ff5107" stroke="none" /><line stroke="#e1ed5e" stroke-width="0.3" x1="143.23703022742887" x2="145.7803849466894" y1="26.81831364943548" y2="22.513508569990506" /><path d="M 143.74570117128098 25.957352633546492 a86.0,86.0 0 0,1 28.547481713284135,27.462654790039103" fill="none" id="id86" stroke="none" /><text fill="#e1ed5e" style="font-size:6.75px; font-family:Arial;" text-anchor="middle"><textPath startOffset="19.985693538727396" xlink:href="#id86">February</textPath></text><path d="M 110.99172775467656 82.1063720568725 l 3.994007494433302 -6.501915413347624 a28.630661826337004,28.630661826337004 0 0,0 0.4177088780236294,0.2615692610977106 l -4.1053355248291945 6.432201810926969" fill="#ff5b08" stroke="none" /><path d="M 111.2981086023043 82.29822771554956 l 14.652828253783362 -22.957916072671924 a48.23547844695811,48.23547844695811 0 0,0 0.6960447855476175,0.4527268902654925 l -15.045840065115259 22.702290258246904" fill="#adff20" stroke="none" /><path d="M 111.60114157652 82.49532879139004 l 4.6434320339765565 -7.006357994871458 a29.40538597605481,29.40538597605481 0 0,0 0.4195102665518919,0.28325520462931575 l -4.763346994934991 6.925390877943472" fill="#ff6509" stroke="none" /><path d="M 111.90073688211348 82.69761687909136 l 8.127717254326162 -11.816821027623325 a35.34214234224274,35.34214234224274 0 0,0 0.498271800378105,0.34907123861788797 l -8.329920194287919 11.675164946241502" fill="#ffb510" stroke="none" /><path d="M 112.19680574252982 82.90503203632743 l 6.97717138666479 -9.779160531858075 a33.01303047805776,33.01303047805776 0 0,0 0.45975311355538634,0.33403018938086415 l -7.144469816573966 9.657611107660536" fill="#ff960d" stroke="none" /><path d="M 112.48926042617603 83.11751280151076 l 2.8215384822926404 -3.814043881054298 a25.744260757343127,25.744260757343127 0 0,0 0.3539883005871406,0.26661664905513144 l -2.886772936638164 3.764910642493319" fill="#ff3204" stroke="none" /><path d="M 112.77801427241765 83.33499621200491 l 10.27381805920894 -13.399047240342082 a37.88448413374381,37.88448413374381 0 0,0 0.5140878401283846,0.40125371354640516 l -10.502938454496755 13.220215137572453" fill="#ffd513" stroke="none" /><path d="M 113.06298171725822 83.55741782278167 l 13.06252488771938 -16.442007158635587 a41.99926560256125,41.99926560256125 0 0,0 0.5621833725555827,0.4545798567069782 l -13.343611658839455 16.21472120466448" fill="#f6ff19" stroke="none" /><path d="M 113.34407831869373 83.78471172551755 l 4.90305584354234 -5.9580333710681925 a28.716094754191197,28.716094754191197 0 0,0 0.3789737728139008,0.31737963602939007 l -5.004887153315359 5.872752577644984" fill="#ff5c08" stroke="none" /><path d="M 113.6212207817346 84.01681056812373 l 5.133313927334772 -6.023449015957589 a28.914091857213283,28.914091857213283 0 0,0 0.3760294187000975,0.3260890064413018 l -5.236237144681634 5.934195016096616" fill="#ff5f08" stroke="none" /><path d="M 113.89432698308785 84.25364557470407 l 4.51851956912714 -5.120810147890961 a27.829327614584614,27.829327614584614 0 0,0 0.3564658738530837,0.3200385811526737 l -4.605996430576214 5.042272557968991" fill="#ff5007" stroke="none" /><path d="M 114.16331599549186 84.49514656593476 l 11.37578109919476 -12.453285565129347 a37.866911898253804,37.866911898253804 0 0,0 0.4774695112234628,0.4437558741750424 l -11.58845849421307 12.255625104879664" fill="#ffd513" stroke="none" /><path d="M 114.94478906791727 85.2469230424477 l 14.5502852848206 -14.363633878387999 a41.44565430750609,41.44565430750609 0 0,0 0.49682630016221213,0.5120231745818911 l -14.79537584868592 14.111046508255994" fill="#fdff18" stroke="none" /><path d="M 115.19652480421416 85.50635884689758 l 8.516736177622628 -8.122812257699646 a32.76923421863384,32.76923421863384 0 0,0 0.3857916920404757,0.41153567852094775 l -8.655295191633567 7.975007162300643" fill="#ff930d" stroke="none" /><path d="M 115.4437574822437 85.77008943001954 l 10.895507739515999 -10.039143707488337 a35.815414111035025,35.815414111035025 0 0,0 0.4138494284768011,0.45698287542089033 l -11.066700808608836 9.850108044797897" fill="#ffbb11" stroke="none" /><path d="M 115.68641384162765 86.03803664274999 l 9.610536639532883 -8.554023995502583 a33.86599164524204,33.86599164524204 0 0,0 0.3838276933129629,0.43878140478244276 l -9.756356196423695 8.387327034517192" fill="#ffa10e" stroke="none" /><path d="M 115.9244219780498 86.31012108654704 l 6.103883305158897 -5.247375601114643 a29.04936904994241,29.04936904994241 0 0,0 0.32270997544035185,0.38198682295537234 l -6.193303894086366 5.141529828530165" fill="#ff6108" stroke="none" /><path d="M 116.38621287248628 86.86637796730983 l 5.670455285605025 -4.544894970786908 a28.267058100877556,28.267058100877556 0 0,0 0.30103867608926654,0.3822885476771718 l -5.747848042288256 4.446614029156698" fill="#ff5607" stroke="none" /><path d="M 116.60985879189232 87.15038557335679 l 8.71199639456701 -6.739719822972568 a32.01465861800165,32.01465861800165 0 0,0 0.33344648120325676,0.4387764831063021 l -8.82671881599438 6.588758563985232" fill="#ff890c" stroke="none" /><path d="M 116.82858285166822 87.43820079747576 l 26.434347002773507 -19.732080949749857 a53.98681130498251,53.98681130498251 0 0,0 0.5494761908117515,0.7494849067534657 l -26.770085806098884 19.274133599324898" fill="#6eff28" stroke="none" /><path d="M 117.04232023915458 87.72973835380427 l 6.777777175369323 -4.87991647582845 a29.351757195346337,29.351757195346337 0 0,0 0.2916829196785408,0.4125648044172309 l -6.860772714851747 4.762525171079425" fill="#ff6509" stroke="none" /><path d="M 117.45458315368197 88.32363383020206 l 11.607745463707612 -7.765082972575617 a34.96553859760548,34.96553859760548 0 0,0 0.3303466906803462,0.5031406736898948 l -11.739688789745884 7.564124234908048" fill="#ffb010" stroke="none" /><line stroke="#e1ed5e" stroke-width="0.3" x1="172.23445277983987" x2="176.4835382374775" y1="55.19839476539836" y2="52.563006222186495" /><path d="M 173.08426987136738 54.67131705675599 a86.0,86.0 0 0,1 12.851231095245387,41.99856678651699" fill="none" id="id87" stroke="none" /><text fill="#e1ed5e" style="font-size:6.75px; font-family:Arial;" text-anchor="middle"><textPath startOffset="22.20632615414155" xlink:href="#id87">March</textPath></text><path d="M 117.84615892207809 88.93136811851018 l 3.326139446475004 -2.0629544587316233 a24.913947459560198,24.913947459560198 0 0,0 0.2229017680942108,0.3663918986732263 l -3.361157012855439 2.0053947868513156" fill="#ff2603" stroke="none" /><path d="M 118.03404312379186 89.2402003453031 l 9.670710130138303 -5.769915420777656 a32.26119702270089,32.26119702270089 0 0,0 0.28042711459527275,0.47934084062809024 l -9.768596919203903 5.602595167795671" fill="#ff8c0c" stroke="none" /><path d="M 118.21658344932153 89.55222093294921 l 10.80897383510169 -6.199283794617436 a33.46053911089401,33.46053911089401 0 0,0 0.2822513724633601,0.502093697157832 l -10.914082848857483 6.01230658752481" fill="#ff9c0e" stroke="none" /><path d="M 118.3937258080291 89.86733742301442 l 14.26671552971823 -7.859191555490775 a37.28821856164144,37.28821856164144 0 0,0 0.30486119626693053,0.5648614962911302 l -14.399884825203626 7.612449075867186" fill="#ffce13" stroke="none" /><path d="M 118.56541770881063 90.18545643968196 l 9.52722215015307 -5.036532884316911 a31.77657762896797,31.77657762896797 0 0,0 0.25147464039951206,0.4857689624814483 l -9.6125062237127 4.871791199575117" fill="#ff860c" stroke="none" /><path d="M 118.73160827565052 90.50648371742162 l 9.092592896131844 -4.608289765620059 a31.19370296500275,31.19370296500275 0 0,0 0.2386169542968227,0.4810372192584771 l -9.170569863382076 4.451092957862632" fill="#ff7e0b" stroke="none" /><path d="M 119.04729006885535 91.15688171328212 l 1.9129189198179757 -0.8881141737065767 a23.10902953496059,23.10902953496059 0 0,0 0.16440168903565217,0.36223732952036986 l -1.927922925816975 0.8550548353441441" fill="#ff0c01" stroke="none" /><path d="M 119.34039704204932 91.81776055985345 l 14.524999463351088 -6.1450146663868885 a36.771392286683486,36.771392286683486 0 0,0 0.24160260374107045,0.5850598687056293 l -14.628623753978356 5.894080227227956" fill="#ffc712" stroke="none" /><path d="M 119.47837535516314 92.15188598940014 l 7.282612089584557 -2.9342678191527103 a28.851520010920073,28.851520010920073 0 0,0 0.18163604957908697,0.4622439341877737 l -7.332041689045344 2.808474880069152" fill="#ff5e08" stroke="none" /><path d="M 119.61058180528143 92.48833698450437 l 15.180009850671453 -5.81457091392561 a37.255520107937244,37.255520107937244 0 0,0 0.22423460926803346,0.6008372704046087 l -15.277849048441112 5.552410506491667" fill="#ffcd13" stroke="none" /><path d="M 119.7369772167798 92.82701384747503 l 11.238496325633776 -4.084393351299939 a32.95767823239223,32.95767823239223 0 0,0 0.18918793212268978,0.5348597604317701 l -11.307137338566276 3.8903359644415545" fill="#ff950d" stroke="none" /><path d="M 119.97218684219823 93.5106431181261 l 25.71574433666576 -8.355551838272522 a48.039133738173206,48.039133738173206 0 0,0 0.24876154088343286,0.7886420648216288 l -25.8557613613174 7.911659607024474" fill="#afff20" stroke="none" /><path d="M 120.18372546131832 94.20196356495316 l 13.991161507193999 -4.019142270974847 a35.556995050996065,35.556995050996065 0 0,0 0.1639232152306083,0.5897190219357237 l -14.05827149299097 3.777711945620172" fill="#ffb811" stroke="none" /><path d="M 120.28053869075195 94.5502522615342 l 11.187818020547965 -3.006369154466849 a32.58471093958876,32.58471093958876 0 0,0 0.14089577515526358,0.5429288966771231 l -11.23791012757353 2.8133438322408755" fill="#ff910d" stroke="none" /><path d="M 120.37134235888165 94.90015583598534 l 17.40243812178392 -4.356596680351405 a38.9394756673033,38.9394756673033 0 0,0 0.15718049102996476,0.6516146105204562 l -17.474851413074706 4.056396838171543" fill="#ffe315" stroke="none" /><path d="M 120.45610955862082 95.25157060432595 l 3.926276772349799 -0.9113975454595191 a25.030669271840992,25.030669271840992 0 0,0 0.0938121032756908,0.4205412642800196 l -3.9413832626275274 0.8436781116295357" fill="#ff2803" stroke="none" /><path d="M 120.53481517161879 95.60439243477599 l 7.215902374854304 -1.5446097178739364 a28.37936760596588,28.37936760596588 0 0,0 0.09813950747773194,0.47856309199809494 l -7.241421178247032 1.4201709697124296" fill="#ff5708" stroke="none" /><path d="M 120.67395015179393 96.31383870115 l 16.02524940961983 -2.857298858923363 a37.27798437797891,37.27798437797891 0 0,0 0.10719752775544539,0.6326858769167555 l -16.072058798895497 2.58102719369077" fill="#ffce13" stroke="none" /><path d="M 120.73433829027371 96.67025291283417 l 13.821391300197892 -2.2195903615598596 a34.99847987626926,34.99847987626926 0 0,0 0.09040291770813658,0.5956422748907849 l -13.857550111345327 1.9813489742769925" fill="#ffb010" stroke="none" /><path d="M 120.78858239683441 97.02765380044208 l 6.624172152082597 -0.9471224418100901 a27.691539256419773,27.691539256419773 0 0,0 0.06340571427122164,0.4724462188367385 l -6.639493865411655 0.8329578809086873" fill="#ff4e07" stroke="none" /><path d="M 120.83666639777658 97.38593545837742 l 9.308216175907859 -1.167762509927925 a30.38118103742945,30.38118103742945 0 0,0 0.06063164631489174,0.5194549185035853 l -9.326938175226339 1.0073638530994868" fill="#ff730a" stroke="none" /><path d="M 120.87857604477298 97.74499172005257 l 5.653995581670773 -0.6106645790456446 a26.686877637654394,26.686877637654394 0 0,0 0.045396760751603336,0.4571391854933766 l -5.663669468104605 0.513249862847833" fill="#ff4006" stroke="none" /><path d="M 120.91429891909075 98.10471618934814 l 11.987062060901788 -1.0862847829227655 a33.036181765058245,33.036181765058245 0 0,0 0.04644811044030189,0.5667845961211893 l -12.003984655161586 0.8797862695938075" fill="#ff970d" stroke="none" /><path d="M 120.98425023603335 99.18683210126433 l 20.49192198826063 -0.7940895174627408 a41.50730223444087,41.50730223444087 0 0,0 0.0215211518595466,0.7141822570074536 l -20.502554834575818 0.4412371130302881" fill="#fcff18" stroke="none" /><line stroke="#e1ed5e" stroke-width="0.3" x1="184.98032266829074" x2="189.97916517819016" y1="98.17113171792111" y2="98.06355123074" /><path d="M 185.9800911702706 98.14961562048488 a86.0,86.0 0 0,1 -9.607161424134198,41.387399972396054" fill="none" id="id88" stroke="none" /><text fill="#e1ed5e" style="font-size:6.75px; font-family:Arial;" text-anchor="middle"><textPath startOffset="21.466115282336823" xlink:href="#id88">April</textPath></text><path d="M 120.99513854157772 99.54816195383933 l 13.051987938317842 -0.2808928703605955 a34.05501014731945,34.05501014731945 0 0,0 0.007568309045888788,0.5861738761732858 l -13.054889254481445 0.056182736126847044" fill="#ffa40f" stroke="none" /><path d="M 120.99980553446 99.90962569577887 l 11.687394661413284 -0.05029761627790886 a32.68750289077333,32.68750289077333 0 0,0 -0.0024215255641216265,0.5626772607716293 l -11.686528838559658 -0.15088912269740518" fill="#ff920d" stroke="none" /><path d="M 120.99824983174949 100.27111621757518 l 10.982934052144 0.14180474858398695 a31.98384946093423,31.98384946093423 0 0,0 -0.011846113152347834,0.5504423297817846 l -10.978865876306644 -0.33083689415588635" fill="#ff880c" stroke="none" /><path d="M 120.95626037817324 101.35467743843564 l 9.371434788018382 0.6057985081308693 a30.390994719332703,30.390994719332703 0 0,0 -0.03823974600470053,0.5217509526144875 l -9.359618483349342 -0.7670225972421271" fill="#ff730a" stroke="none" /><path d="M 120.92983693683757 101.71520430193887 l 13.033645526766273 1.0681098445687962 a34.07733819848134,34.07733819848134 0 0,0 -0.052942234120385526,0.5842131419132386 l -13.013328696368813 -1.2923043750306051" fill="#ffa40f" stroke="none" /><path d="M 120.89721153311464 102.0752229133903 l 12.437768455723232 1.235147667900976 a33.498946912428465,33.498946912428465 0 0,0 -0.06192152482280557,0.5733164158720429 l -12.414664629399374 -1.4490604056578102" fill="#ff9d0e" stroke="none" /><path d="M 120.8583938346157 102.4346265915055 l 7.575501070789277 0.8842251468238151 a28.626930613543372,28.626930613543372 0 0,0 -0.06134136535736437,0.4889510362059362 l -7.559158196185065 -1.0144939373171462" fill="#ff5b08" stroke="none" /><path d="M 120.81339534386255 102.79330883721812 l 6.812884327692416 0.9143385634626751 a27.87396594922843,27.87396594922843 0 0,0 -0.06791418665348635,0.4749916632759658 l -6.796136090022328 -1.03147569871905" fill="#ff5007" stroke="none" /><path d="M 120.64145759157962 103.86396538481128 l 11.97152077481093 2.241001715706774 a33.17946625889371,33.17946625889371 0 0,0 -0.10991893768871078,0.5604742951692777 l -11.931171904146554 -2.4467397379439966" fill="#ff980e" stroke="none" /><path d="M 120.5718875245553 104.21870165774334 l 14.969742135434581 3.069862981088476 a36.28127083471996,36.28127083471996 0 0,0 -0.13072653495275777,0.6107108501948905 l -14.91468156175738 -3.3270876506995357" fill="#ffc111" stroke="none" /><path d="M 120.49622156327973 104.57218783832717 l 12.69382652786609 2.831671149404621 a34.00582920916338,34.00582920916338 0 0,0 -0.13236272545806146,0.5702151570189566 l -12.643203236477476 -3.0497549637721426" fill="#ffa30f" stroke="none" /><path d="M 120.41448212921028 104.9243191809786 l 13.922371392063006 3.358312008931462 a35.32168582003766,35.32168582003766 0 0,0 -0.14765925595351864,0.5898253277447127 l -13.862500821814427 -3.5974651760735705" fill="#ffb510" stroke="none" /><path d="M 120.32669344350535 105.2749913415812 l 6.235608154601084 1.6182060853347286 a27.442158022925383,27.442158022925383 0 0,0 -0.12259055397445531,0.4562050561444106 l -6.206829524284852 -1.7253020746546874" fill="#ff4a06" stroke="none" /><path d="M 120.23288151984713 105.62410040840565 l 2.6292855968950772 0.730858142218017 a23.72897350190255,23.72897350190255 0 0,0 -0.11277744164878635,0.39259306938980487 l -2.616315518360192 -0.7760086871124039" fill="#ff1502" stroke="none" /><path d="M 120.02730092923936 106.31721596034902 l 23.70160634899983 7.476202931330203 a45.85276149230462,45.85276149230462 0 0,0 -0.2439099414759172,0.7506776114338153 l -23.56940415650767 -7.883079442741813" fill="#c8ff1d" stroke="none" /><path d="M 119.9155931802556 106.66101706037122 l 7.086996862926689 2.3703339681367277 a28.472884828206276,28.472884828206276 0 0,0 -0.15946058691878243,0.4634671074321629 l -7.045145445064676 -2.491973778658191" fill="#ff5908" stroke="none" /><path d="M 119.79798401119884 107.00284435728193 l 7.002358629168919 2.4768394391167416 a28.427500251003735,28.427500251003735 0 0,0 -0.1671479333936566,0.4599193255184419 l -6.958686434770035 -2.5970065616413147" fill="#ff5808" stroke="none" /><path d="M 119.67450827220406 107.3425965602758 l 10.259013557702069 3.8287003984251156 a31.950173784831705,31.950173784831705 0 0,0 -0.19673048754096753,0.5136012240640323 l -10.191588790567595 -4.004725189322292" fill="#ff880c" stroke="none" /><path d="M 119.54520255179757 107.68017299344265 l 5.979603935665634 2.3496503828229147 a27.424680548395212,27.424680548395212 0 0,0 -0.17642869747211112,0.43788155831361003 l -5.93827262393613 -2.4522313089793384" fill="#ff4a06" stroke="none" /><path d="M 119.26925614724726 108.34839909993367 l 14.570967304480236 6.31286695243103 a36.87971590889862,36.87971590889862 0 0,0 -0.25738338852509524,0.5803315938939352 l -14.460142831223868 -6.5627468828176525" fill="#ffc912" stroke="none" /><path d="M 119.12269723197855 108.67885076344098 l 11.369415893029414 5.160018098183687 a33.4855678494113,33.4855678494113 0 0,0 -0.2427311141053552,0.5228212254092919 l -11.278910162084227 -5.35495939087181" fill="#ff9c0e" stroke="none" /><path d="M 118.97047184881838 109.00673069616215 l 7.219279991736229 3.4275431430457552 a28.99162409004096,28.99162409004096 0 0,0 -0.21791587847920774,0.4489712542183092 l -7.159210856642307 -3.55130335322934" fill="#ff6008" stroke="none" /><path d="M 118.64920377521936 109.65438752849418 l 13.375319709982154 6.92418407531478 a36.06132472437534,36.06132472437534 0 0,0 -0.29011763629861254,0.5487932341911193 l -13.254149565458649 -7.153392324592033" fill="#ffbe11" stroke="none" /><line stroke="#e1ed5e" stroke-width="0.3" x1="174.80103733775053" x2="179.2010983576182" y1="140.37084112569926" y2="142.7455964860345" /><path d="M 175.68104954172406 140.8457921977663 a86.0,86.0 0 0,1 -30.038265399797805,32.042727171017184" fill="none" id="id89" stroke="none" /><text fill="#e1ed5e" style="font-size:6.75px; font-family:Arial;" text-anchor="middle"><textPath startOffset="22.206326154141568" xlink:href="#id89">May</textPath></text><path d="M 118.48025628344425 109.97397251340804 l 19.083375040604594 10.29948152226455 a42.68535271947033,42.68535271947033 0 0,0 -0.3545396421504184,0.6435924335034635 l -18.903258989002666 -10.626444474165819" fill="#eeff19" stroke="none" /><path d="M 117.94076556474637 110.91462005526583 l 11.142128988316195 6.778534844310247 a34.04206935374154,34.04206935374154 0 0,0 -0.308867521464921,0.4979927901612949 l -11.023796827183311 -6.969323965836816" fill="#ffa40f" stroke="none" /><path d="M 117.75023020441432 111.22182372390056 l 8.224455280848849 5.199560023950348 a30.730215265313767,30.730215265313767 0 0,0 -0.28651555696784586,0.4446785070901377 l -8.133734860503953 -5.3403601309619395" fill="#ff780b" stroke="none" /><path d="M 117.55443506779139 111.5257021239791 l 11.189929764094085 7.346963701830068 a34.38627669523409,34.38627669523409 0 0,0 -0.3291207062966545,0.49199080022966585 l -11.06180595238671 -7.538491416265541" fill="#ffa80f" stroke="none" /><path d="M 117.35343817320211 111.8261652097733 l 8.223967800287365 5.604537897063191 a30.952109897895063,30.952109897895063 0 0,0 -0.3038304693223787,0.4376904518060751 l -8.12627642380285 -5.745269611056286" fill="#ff7b0b" stroke="none" /><path d="M 117.14729908036423 112.12312394758627 l 6.282674003587671 4.441844474211709 a28.694281965748424,28.694281965748424 0 0,0 -0.28861010449706564,0.4008541925933449 l -6.205284106715002 -4.549332272256185" fill="#ff5c08" stroke="none" /><path d="M 116.93607887273984 112.41649034213515 l 10.036937710223517 7.358464794598661 a33.445365512199906,33.445365512199906 0 0,0 -0.34438968920370294,0.4613662680470312 l -9.908786754324723 -7.530143942155008" fill="#ff9c0e" stroke="none" /><path d="M 116.498646956653 112.99209946851258 l 9.385111767926206 7.390442739477891 a32.94566728073273,32.94566728073273 0 0,0 -0.3546869165511494,0.442526464004116 l -9.256506939320204 -7.550897037060257" fill="#ff950d" stroke="none" /><path d="M 116.27256486870786 113.27417163493432 l 5.094184164590163 4.155526524940741 a27.57412450462016,27.57412450462016 0 0,0 -0.3031893165500124,0.36521106313825846 l -5.021898848146607 -4.24259884519277" fill="#ff4c07" stroke="none" /><path d="M 116.0416608686014 113.55231037782055 l 10.944113271304003 9.245801982576639 a35.32684436978885,35.32684436978885 0 0,0 -0.39643026137943355,0.46113795505313154 l -10.783340500353791 -9.432817036791297" fill="#ffb510" stroke="none" /><path d="M 115.80600337817218 113.82643327865902 l 2.2599052002939453 1.9768709217859324 a24.002530625275682,24.002530625275682 0 0,0 -0.2747045629442737,0.30863348859096884 l -2.2255417877013333 -2.0154785801177675" fill="#ff1902" stroke="none" /><path d="M 115.56566222782051 114.09645910891815 l 4.610187874539016 4.175044010766062 a27.219712592265026,27.219712592265026 0 0,0 -0.31750316060949507,0.3445869732058078 l -4.537638305933799 -4.253782238773204" fill="#ff4706" stroke="none" /><path d="M 115.32070863581623 114.36230785411682 l 3.0299214721620857 2.840381994815758 a25.15309450939205,25.15309450939205 0 0,0 -0.2988348710780503,0.3133271675992655 l -2.980580049705071 -2.8921162789975305" fill="#ff2a04" stroke="none" /><path d="M 115.07121518719521 114.62390073753431 l 10.353037043390975 10.04575836613356 a35.42576296674003,35.42576296674003 0 0,0 -0.42841450571257395,0.4339816324372192 l -10.178581912622866 -10.222480492551444" fill="#ffb610" stroke="none" /><path d="M 114.81725581225074 114.88116024355365 l 15.880395726226649 15.948885308279399 a43.50675256446847,43.50675256446847 0 0,0 -0.5352367427145222,0.5238418051475705 l -15.603509031136333 -16.21987721634954" fill="#e4ff1a" stroke="none" /><path d="M 114.29624159901734 115.38237550388516 l 2.9747556092274015 3.2007578702761856 a25.369670683102427,25.369670683102427 0 0,0 -0.3224369778665396,0.29453853437412747 l -2.919219081893998 -3.251489171236896" fill="#ff2d04" stroke="none" /><path d="M 114.0293411484842 115.62618273729858 l 7.526411597085561 8.383079556440128 a32.26600614141269,32.26600614141269 0 0,0 -0.41647370027585306,0.3674896179266248 l -7.38099554390312 -8.511392316139041" fill="#ff8c0c" stroke="none" /><path d="M 113.75828350139079 115.86535959552629 l 4.333495883141197 4.997169195184692 a27.614445293031345,27.614445293031345 0 0,0 -0.36179463072797047,0.30832923327326667 l -4.246835775836178 -5.071022818680905" fill="#ff4d07" stroke="none" /><path d="M 113.48314897796784 116.09983520530334 l 3.9884866184858514 4.762535619914067 a27.212066567318075,27.212066567318075 0 0,0 -0.361700030617562,0.2976545007855404 l -3.905916459323598 -4.830485239556786" fill="#ff4706" stroke="none" /><path d="M 112.92097659922987 116.55440617244103 l 13.050570303378949 16.72044213724595 a42.21062400092054,42.21062400092054 0 0,0 -0.5766197799155774,0.4421274589104683 l -12.760821794969878 -16.94260893798379" fill="#f3ff19" stroke="none" /><path d="M 112.63410532772338 116.77436683061366 l 2.9673025137007167 3.9397028575498725 a25.93215397302246,25.93215397302246 0 0,0 -0.35887017590382225,0.2654835767594429 l -2.8990473673783304 -3.9901963830490845" fill="#ff3505" stroke="none" /><path d="M 112.34349029814194 116.9893568818739 l 3.951032687519718 5.4381299582927705 a27.72189829892796,27.72189829892796 0 0,0 -0.3884665280727139,0.2771605533538525 l -3.85683883159812 -5.505334773490842" fill="#ff4e07" stroke="none" /><path d="M 112.04921762599082 117.19931262002967 l 3.7432165937552657 5.343147945274606 a27.523871583105926,27.523871583105926 0 0,0 -0.39037122188342677,0.26850088600626654 l -3.6506884872489556 -5.4067896206459665" fill="#ff4b07" stroke="none" /><path d="M 111.7513745106137 117.40417183066458 l 3.9868081218657596 5.904593845270712 a28.12452577216081,28.12452577216081 0 0,0 -0.4035538667186666,0.26745349774136806 l -3.8845795564071293 -5.972345364103399" fill="#ff5407" stroke="none" /><path d="M 111.1453310114006 117.79835938074945 l 7.499967974121853 11.97695476347788 a35.13141765780238,35.13141765780238 0 0,0 -0.5152955892604051,0.31653663797739895 l -7.292693184929139 -12.104279868283657" fill="#ffb210" stroke="none" /><line stroke="#e1ed5e" stroke-width="0.3" x1="143.8653032363475" x2="146.44561519142675" y1="172.8068346515853" y2="177.08958963109032" /><path d="M 144.38136562736335 173.6633856474863 a86.0,86.0 0 0,1 -40.68145358897372,12.25698825130547" fill="none" id="id90" stroke="none" /><text fill="#e1ed5e" style="font-size:6.75px; font-family:Arial;" text-anchor="middle"><textPath startOffset="21.466115282336833" xlink:href="#id90">June</textPath></text><path d="M 110.5260780823613 118.17145234162733 l 1.8783858006752885 3.242708042737938 a24.747464298244328,24.747464298244328 0 0,0 -0.3704474246536527,0.2103497158022414 l -1.8222896091004366 -3.2745609243348075" fill="#ff2403" stroke="none" /><path d="M 110.21172684928248 118.3499491758327 l 3.724818320901408 6.6933073990863585 a28.65993704036704,28.65993704036704 0 0,0 -0.4331433442806311,0.23618428689580628 l -3.609052164752128 -6.756432337741935" fill="#ff5b08" stroke="none" /><path d="M 109.89434966115114 118.52300852407294 l 5.9161824368157765 11.075563474109085 a33.556644491849994,33.556644491849994 0 0,0 -0.5118332624487483,0.26776697217927964 l -5.724658271840533 -11.175759865233083" fill="#ff9d0e" stroke="none" /><path d="M 109.57404056367764 118.69057910512821 l 3.237896277468053 6.321067485113122 a28.102102960039076,28.102102960039076 0 0,0 -0.43243260749682655,0.21683068655258209 l -3.128609762288466 -6.375866012575006" fill="#ff5307" stroke="none" /><path d="M 108.92500713936063 119.00905698771935 l 8.578086691753423 18.270163398526893 a41.183717246833126,41.183717246833126 0 0,0 -0.6442937699452372,0.2957636691680006 l -8.262324926040767 -18.41511413802897" fill="#fffe18" stroke="none" /><path d="M 108.59647513512805 119.15986991738527 l 2.2611495110157285 5.039662165459792 a26.523675574572927,26.523675574572927 0 0,0 -0.4181638388012485,0.1833107382280289 l -2.174064997556726 -5.077837456982276" fill="#ff3d05" stroke="none" /><path d="M 108.2653958097858 119.30500536409082 l 2.016298719709046 4.7093519167597275 a26.122836714457026,26.122836714457026 0 0,0 -0.4148910287218567,0.17342448365439483 l -1.9349362314897283 -4.743361443434096" fill="#ff3805" stroke="none" /><path d="M 107.93186726928326 119.44442032107085 l 5.849025198569472 14.338478011344309 a36.48557546413129,36.48557546413129 0 0,0 -0.5835588488993192,0.23221010925912636 l -5.601345273628287 -14.437034965009504" fill="#ffc412" stroke="none" /><path d="M 107.59598834532513 119.57807347666477 l 2.6802705646592266 6.90819043772428 a28.409922092953735,28.409922092953735 0 0,0 -0.45744003264324945,0.17296467875802013 l -2.5609603112557022 -6.953303366588931" fill="#ff5808" stroke="none" /><path d="M 107.2578585660854 119.70592522655815 l 4.110622391433779 11.160815100300274 a32.89373827474135,32.89373827474135 0 0,0 -0.5330045577456903,0.1911164710137701 l -3.9178982730583534 -11.229919112354006" fill="#ff950d" stroke="none" /><path d="M 106.91757812671514 119.82793768551818 l 4.106363123566434 11.770118188292624 a33.465869414884914,33.465869414884914 0 0,0 -0.5455419054421639,0.18507743403343774 l -3.9031514851870432 -11.839058609224185" fill="#ff9c0e" stroke="none" /><path d="M 106.57524785965236 119.94407469862006 l 2.393384479705819 7.259625776037964 a28.64398166375427,28.64398166375427 0 0,0 -0.46959578468748037,0.15034974091081882 l -2.268067349927398 -7.29974836360849" fill="#ff5b08" stroke="none" /><path d="M 106.2309692047433 120.05430185196036 l 2.3860049893861826 7.6793292833173625 a29.041462432355903,29.041462432355903 0 0,0 -0.47866556793770604,0.14421800906610344 l -2.2534644470082306 -7.719262661489192" fill="#ff6008" stroke="none" /><path d="M 105.88484417918355 120.15858648285463 l 1.8517730338618346 6.343265125313962 a27.60803116056229,27.60803116056229 0 0,0 -0.45733207384554525,0.12924661223536407 l -1.7423097919116837 -6.374200530887845" fill="#ff4d07" stroke="none" /><path d="M 105.53697534728816 120.25689768951611 l 4.047963902406216 14.809383368856393 a36.35264952771814,36.35264952771814 0 0,0 -0.6050284970981712,0.1597935251020651 l -3.792444962496547 -14.876868243262043" fill="#ffc212" stroke="none" /><path d="M 105.18746579009965 120.34920634021253 l 2.8297753722255425 11.100542206132419 a32.455551751329196,32.455551751329196 0 0,0 -0.5425435635309922,0.1333440078965983 l -2.6382785239513393 -11.147607472343047" fill="#ff8f0d" stroke="none" /><path d="M 104.83641907484287 120.43548508189849 l 3.423706061319742 14.466301008702022 a35.865921702628825,35.865921702628825 0 0,0 -0.602000701125234,0.1370133996300906 l -3.174185210801646 -14.523091141909797" fill="#ffbc11" stroke="none" /><path d="M 104.48393922423573 120.51570834832081 l 2.212017787764629 10.120813312944042 a31.359724166639403,31.359724166639403 0 0,0 -0.5283494370179287,0.11072076157246019 l -2.0374768893173223 -10.157390055243043" fill="#ff800b" stroke="none" /><path d="M 104.13013068566511 120.58985236759428 l 5.114846865409281 25.49893692399468 a47.00687298985494,47.00687298985494 0 0,0 -0.7947124880530057,0.15230853976702147 l -4.675166762784571 -25.58320266211017" fill="#bbff1f" stroke="none" /><path d="M 103.41894727170886 120.7198165907248 l 1.4687081878560255 8.900799532501246 a30.021160460763888,30.021160460763888 0 0,0 -0.5105943737828031,0.07974434028121676 l -1.3152779504647054 -8.924762180129568" fill="#ff6e0a" stroke="none" /><path d="M 103.06178313531738 120.77559828337769 l 0.9619578181948156 6.527323560523282 a27.597826589699707,27.597826589699707 0 0,0 -0.47057107843596785,0.06521686361779305 l -0.8494581485720174 -6.542914989633678" fill="#ff4c07" stroke="none" /><path d="M 102.70371172650421 120.8252237178851 l 1.5587577156792969 12.006264511406428 a33.10702742765734,33.10702742765734 0 0,0 -0.5657716308605725,0.06850706534972167 l -1.351858661767344 -12.0313171054815" fill="#ff970e" stroke="none" /><path d="M 102.34483914955558 120.86867818915974 l 1.0982162813679155 9.77394213257928 a30.835447311214168,30.835447311214168 0 0,0 -0.5279724629618109,0.05472650453514945 l -0.9298112218005019 -9.791398005570189" fill="#ff790b" stroke="none" /><path d="M 101.62511606390274 120.93702456842531 l 1.2037709534964525 15.508665865738733 a36.55531360801226,36.55531360801226 0 0,0 -0.6277717799263781,0.043294817436077805 l -0.9366364127911438 -15.527089027691096" fill="#ffc412" stroke="none" /><path d="M 101.26447882468166 120.96189622390904 l 1.4775302283725509 24.493755617166066 a45.53827947940134,45.53827947940134 0 0,0 -0.7828505826659753,0.04046443308583263 l -1.055691577293096 -24.5155598570141" fill="#ccff1d" stroke="none" /><path d="M 100.90346689309514 120.98055641714683 l 0.14419384245649167 3.3485090264896074 a24.351612233639916,24.351612233639916 0 0,0 -0.41894009066307925,0.014429143793942003 l -0.08653340011876016 -3.350494968709643" fill="#ff1e03" stroke="none" /><line stroke="#e1ed5e" stroke-width="0.3" x1="102.19456741930631" x2="102.32365962044197" y1="184.97166512339345" y2="189.96999836594603" /><path d="M 102.22038585953345 185.97133177190398 a86.0,86.0 0 0,1 -42.740103519485714,-10.115201625700543" fill="none" id="id91" stroke="none" /><text fill="#e1ed5e" style="font-size:6.75px; font-family:Arial;" text-anchor="middle"><textPath startOffset="22.20632615414155" xlink:href="#id91">July</textPath></text><path d="M 100.54218724476979 120.99299961872073 l 0.2800361787560002 10.842747502016175 a31.846363153328873,31.846363153328873 0 0,0 -0.5481218749490429,0.009436415157034358 l -0.09335461391428934 -10.845961394452369" fill="#ff870c" stroke="none" /><path d="M 100.18074693466247 120.99922214144158 l 0.10825953122229293 12.577618255660465 a33.5780841590134,33.5780841590134 0 0,0 -0.5780129317694881,0.0 l 0.10825953122228427 -12.577618255660465" fill="#ff9e0e" stroke="none" /><path d="M 99.81925306533755 120.99922214144158 l -0.10987366901771747 12.765149171172254 a33.765622021093336,33.765622021093336 0 0,0 -0.5811550902033779,-0.010005111914740962 l 0.3295884491137633 -12.761366581978354" fill="#ffa00e" stroke="none" /><path d="M 99.45781275523022 120.99299961872073 l -0.10739936498466396 4.1584062515731945 a25.15979292474062,25.15979292474062 0 0,0 -0.43284386379948075,-0.014908017853346998 l 0.17896358045878777 -4.155941435293753" fill="#ff2a04" stroke="none" /><path d="M 99.09653310690486 120.98055641714683 l -0.9976028921972238 23.1666084519698 a44.18807794314567,44.18807794314567 0 0,0 -0.7596392081595392,-0.03926467015361822 l 1.3962301687702519 -23.14600397505398" fill="#dcff1b" stroke="none" /><path d="M 98.73552117531835 120.96189622390904 l -0.24245909053065348 4.019365287138355 a25.026671543847815,25.026671543847815 0 0,0 -0.42978808249837086,-0.02964070250203203 l 0.31160993380795443 -4.014596240120039" fill="#ff2803" stroke="none" /><path d="M 98.37488393609728 120.93702456842531 l -0.9736963101184668 12.544521600615825 a33.58225364124628,33.58225364124628 0 0,0 -0.575944736759031,-0.04969493533663364 l 1.1894853646190395 -12.525902413000528" fill="#ff9e0e" stroke="none" /><path d="M 98.01472825383883 120.90594882070398 l -1.45199371907126 15.290252549850656 a36.35903996994724,36.35903996994724 0 0,0 -0.622548837709875,-0.06452973247724628 l 1.7149751533867283 -15.26299344891765" fill="#ffc212" stroke="none" /><path d="M 97.65516085044442 120.86867818915974 l -0.7743906938334273 6.891948296476038 a27.935317748163726,27.935317748163726 0 0,0 -0.4773914032457989,-0.05780545060170668 l 0.8929095201306155 -6.877597317148982" fill="#ff5107" stroke="none" /><path d="M 97.2962882734958 120.8252237178851 l -0.8717122598828688 6.714326328404809 a27.77067650300471,27.77067650300471 0 0,0 -0.4735183456726507,-0.0656253280012341 l 0.9871591967423506 -6.69832643491097" fill="#ff4f07" stroke="none" /><path d="M 96.93821686468263 120.77559828337769 l -2.0910667910780876 14.188844119636517 a35.34210088432282,35.34210088432282 0 0,0 -0.6010919495528487,-0.09387820043985128 l 2.3349946042394536 -14.15074761184956" fill="#ffb510" stroke="none" /><path d="M 96.58105272829116 120.7198165907248 l -0.788058087551132 4.775861614483335 a25.84044313157898,25.84044313157898 0 0,0 -0.43824287613951696,-0.0761941414454511 l 0.8701499351626989 -4.761588894516878" fill="#ff3404" stroke="none" /><path d="M 96.22490169976321 120.6578951692458 l -4.451630082446319 24.359976949386667 a45.76339006205715,45.76339006205715 0 0,0 -0.7736897875722921,-0.14827948918543996 l 4.870287484590306 -24.27974026185276" fill="#c9ff1d" stroke="none" /><path d="M 95.51606077576429 120.51570834832081 l -2.9540491023812 13.51588565328996 a34.83494022726837,34.83494022726837 0 0,0 -0.584695929867434,-0.1330748900313099 l 3.1862651816414966 -13.463034029680964" fill="#ffae10" stroke="none" /><path d="M 95.16358092515715 120.4354850818985 l -2.6317872520062218 11.120179681462224 a32.427366288337296,32.427366288337296 0 0,0 -0.5420724009499789,-0.13322820759751366 l 2.822812937699411 -11.07323021555068" fill="#ff8e0d" stroke="none" /><path d="M 94.81253420990036 120.34920634021253 l -1.9721084822715933 7.736117028013632 a28.98352795053478,28.98352795053478 0 0,0 -0.48238190570248735,-0.12740144559694253 l 2.10498083078557 -7.701024233113108" fill="#ff6008" stroke="none" /><path d="M 94.46302465271185 120.25689768951611 l -3.0114187262541545 11.017206545429236 a32.421360812507544,32.421360812507544 0 0,0 -0.5370657578240878,-0.15178014776594256 l 3.200615652182856 -10.963737604324772" fill="#ff8e0d" stroke="none" /><path d="M 93.76903079525671 120.05430185196036 l -0.8862482988752094 2.8523798332850308 a23.986889144342378,23.986889144342378 0 0,0 -0.3932463776222342,-0.12590507180333557 l 0.9352160215883839 -2.8367019148219885" fill="#ff1902" stroke="none" /><path d="M 93.08242187328487 119.8279376855182 l -4.716028439544091 13.517609242646238 a35.31665756660624,35.31665756660624 0 0,0 -0.5722651311359171,-0.2051939158072099 l 4.948013131309735 -13.43442778579907" fill="#ffb410" stroke="none" /><path d="M 92.7421414339146 119.70592522655815 l -2.0654628441510474 5.607970449474829 a26.976242073640545,26.976242073640545 0 0,0 -0.4343557512893926,-0.164236178793429 l 2.1616888162007233 -5.571586020574767" fill="#ff4406" stroke="none" /><path d="M 92.40401165467489 119.57807347666478 l -2.3727346703071173 6.11554041476277 a27.559703071044773,27.559703071044773 0 0,0 -0.44079635295754366,-0.1754019658417596 l 2.477652099306519 -6.073791604514944" fill="#ff4c07" stroke="none" /><path d="M 92.06813273071674 119.44442032107085 l -3.6847541606516634 9.032918258351016 a30.755563822070506,30.755563822070506 0 0,0 -0.4884694435194203,-0.20418026700716327 l 3.839695063668546 -8.96815294832388" fill="#ff780b" stroke="none" /><path d="M 91.7346041902142 119.30500536409082 l -4.980731276378602 11.63320501768877 a33.6546095566428,33.6546095566428 0 0,0 -0.5305878774604934,-0.23259413293829284 l 5.180239828496839 -11.545746331456025" fill="#ff9f0e" stroke="none" /><path d="M 91.07499286063937 119.00905698771935 l -1.8409442567444703 3.9209620498048374 a25.33163008028735,25.33163008028735 0 0,0 -0.39310749247950755,-0.18871548549314301 l 1.9081644172242198 -3.8886922878121317" fill="#ff2c04" stroke="none" /><path d="M 90.42595943632237 118.69057910512821 l -6.002966559977973 11.719077291188043 a34.167094595128155,34.167094595128155 0 0,0 -0.5211443444313023,-0.27263809020364055 l 6.203801806935771 -11.614009782039686" fill="#ffa50f" stroke="none" /><path d="M 90.10565033884886 118.52300852407294 l -4.150573650556779 7.77020357496757 a29.809274954565502,29.809274954565502 0 0,0 -0.45051351739593126,-0.2456558902452877 l 4.28370997982135 -7.697607032962517" fill="#ff6b09" stroke="none" /><line stroke="#e1ed5e" stroke-width="0.3" x1="58.666819895761336" x2="56.23545636021788" y1="174.27360380694188" y2="178.64263932499728" /><path d="M 58.180547188652646 175.14741091055294 a86.0,86.0 0 0,1 -31.652253787137756,-30.449443065178592" fill="none" id="id92" stroke="none" /><text fill="#e1ed5e" style="font-size:6.75px; font-family:Arial;" text-anchor="middle"><textPath startOffset="22.20632615414155" xlink:href="#id92">August</textPath></text><path d="M 89.7882731507175 118.34994917583269 l -3.328412212940208 5.980985963012224 a27.844744038238304,27.844744038238304 0 0,0 -0.41681093443731304,-0.23667612667068097 l 3.430871914298728 -5.92280667054691" fill="#ff5007" stroke="none" /><path d="M 89.4739219176387 118.17145234162733 l -11.648441681549127 20.109018878094062 a44.239165945618495,44.239165945618495 0 0,0 -0.6556499905325496,-0.38736957117209836 l 11.992859543110058 -19.90553073462821" fill="#dbff1b" stroke="none" /><path d="M 89.1626897886671 117.98757091392108 l -3.6232737498316814 6.013844048451412 a28.020999423537493,28.020999423537493 0 0,0 -0.4110024124349683,-0.2524712505680315 l 3.7262553621989585 -5.950584331055003" fill="#ff5207" stroke="none" /><path d="M 88.8546689885994 117.79835938074946 l -5.8371317012243695 9.321514781829805 a31.998306429869558,31.998306429869558 0 0,0 -0.4643079177552473,-0.2963432810801962 l 5.996721421026541 -9.219657071925806" fill="#ff890c" stroke="none" /><path d="M 88.54995079064634 117.60387380957326 l -4.596170300679219 7.066380283708192 a29.42962109153345,29.42962109153345 0 0,0 -0.42228044958929,-0.27986445573866203 l 4.717125449008471 -6.986217806878211" fill="#ff6609" stroke="none" /><path d="M 88.24862548938628 117.40417183066458 l -6.885994909331348 10.19838475225529 a33.305445032438705,33.305445032438705 0 0,0 -0.4723713098801251,-0.3249012942471146 l 7.060523103834363 -10.078342668643074" fill="#ff9a0e" stroke="none" /><path d="M 87.95078237400918 117.19931262002967 l -4.323401589975625 6.171316498386299 a28.535048017860184,28.535048017860184 0 0,0 -0.3998611823893352,-0.28529033666192777 l 4.428990100213847 -6.095981899880153" fill="#ff5908" stroke="none" /><path d="M 87.65650970185807 116.9893568818739 l -4.025986263000005 5.541294704458513 a27.849416938070327,27.849416938070327 0 0,0 -0.3854028155849069,-0.2851117892896833 l 4.120774049003477 -5.471172966429062" fill="#ff5007" stroke="none" /><path d="M 87.36589467227662 116.77436683061367 l -1.7809751297777585 2.364609868934443 a23.960279082307792,23.960279082307792 0 0,0 -0.32731027266631185,-0.25096755985449515 l 1.821414130937557 -2.3336029672525807" fill="#ff1902" stroke="none" /><path d="M 87.07902340077011 116.55440617244103 l -15.464668921497589 19.81339480670953 a46.13417193022435,46.13417193022435 0 0,0 -0.6218062711685324,-0.4940005082173293 l 15.803432685383479 -19.544260384487067" fill="#c5ff1e" stroke="none" /><path d="M 86.79598089348748 116.32954008644616 l -3.824273993865888 4.729517200833607 a27.082220362099676,27.082220362099676 0 0,0 -0.35997412801891876,-0.2962342004457022 l 3.9051182504294957 -4.662987881530724" fill="#ff4506" stroke="none" /><path d="M 86.51685102203217 116.09983520530335 l -12.462677411649144 14.881319851340018 a40.41061587855255,40.41061587855255 0 0,0 -0.5294455019511041,-0.45120494283760415 l 12.716988390177304 -14.664590518279464" fill="#fff517" stroke="none" /><path d="M 86.24171649860922 115.8653595955263 l -4.32086582293498 4.982604845870011 a27.59516736026425,27.59516736026425 0 0,0 -0.35618481599153123,-0.3142916872140898 l 4.4059929918331 -4.907490016883632" fill="#ff4c07" stroke="none" /><path d="M 85.97065885151581 115.62618273729859 l -7.883522847213193 8.780837768531407 a32.80055271586039,32.80055271586039 0 0,0 -0.4168801094094916,-0.3808100958135759 l 8.03350250608954 -8.643834906131255" fill="#ff930d" stroke="none" /><path d="M 85.70375840098266 115.38237550388516 l -4.051322962721661 4.35911569264335 a26.951059348563525,26.951059348563525 0 0,0 -0.33709892933685764,-0.3187480783422837 l 4.1257577264493355 -4.288732977555136" fill="#ff4306" stroke="none" /><path d="M 85.44109423537348 115.13401014063109 l -5.08933319574558 5.2903715044713655 a28.340936114191468,28.340936114191468 0 0,0 -0.3486610568959971,-0.3412382275976829 l 5.179644205017371 -5.201983173951112" fill="#ff5708" stroke="none" /><path d="M 85.18274418774928 114.88116024355367 l -2.5155115021750625 2.5263604970239997 a24.565150134075477,24.565150134075477 0 0,0 -0.29707381778413294,-0.3009342089896698 l 2.558625945014729 -2.482685794053665" fill="#ff2103" stroke="none" /><path d="M 84.9287848128048 114.62390073753433 l -9.591231194053384 9.306562953977876 a34.364274384871635,34.364274384871635 0 0,0 -0.40826958693530374,-0.4280690296613668 l 9.750007332367646 -9.14008680773401" fill="#ffa80f" stroke="none" /><path d="M 84.67929136418377 114.36230785411682 l -12.912341203139622 12.104598023837315 a38.69886574515394,38.69886574515394 0 0,0 -0.4514012462269761,-0.48990689995049624 l 13.118788857362327 -11.880539869085476" fill="#ffe014" stroke="none" /><path d="M 84.43433777217949 114.09645910891817 l -4.6577176664091455 4.218087586924053 a27.283836149275587,27.283836149275587 0 0,0 -0.3122585031487213,-0.35082573851725546 l 4.729635019206205 -4.137287678665934" fill="#ff4806" stroke="none" /><path d="M 84.19399662182784 113.82643327865904 l -12.704031462738662 11.112957474886601 a37.878691870073695,37.878691870073695 0 0,0 -0.4250665460401577,-0.4944484235900552 l 12.8934405183496 -10.892631952135014" fill="#ffd513" stroke="none" /><path d="M 83.72743513129214 113.27417163493432 l -5.05137520012008 4.120605567705388 a27.51887886503445,27.51887886503445 0 0,0 -0.2962631234150641,-0.3696337989979862 l 5.121556235590005 -4.033043935129141" fill="#ff4b07" stroke="none" /><path d="M 83.50135304334701 112.99209946851258 l -10.241218676412123 8.064596574028842 a34.03534724815301,34.03534724815301 0 0,0 -0.3584946088051057,-0.4634026074401854 l 10.378520102435298 -7.887115972475405" fill="#ffa40f" stroke="none" /><path d="M 83.28015986056508 112.70617746262583 l -7.072180348834097 5.374475940594617 a29.88260809236035,29.88260809236035 0 0,0 -0.3077036819875811,-0.4122193662394153 l 7.163645297516764 -5.2519436948458935" fill="#ff6c0a" stroke="none" /><path d="M 83.06392112726016 112.41649034213515 l -13.650585684505275 10.007769011335997 a37.926131575592734,37.926131575592734 0 0,0 -0.3814650183707965,-0.529821546643685 l 13.820830495251679 -9.771313859241173" fill="#ffd614" stroke="none" /><path d="M 82.85270091963577 112.12312394758628 l -8.04052454993504 5.684643118757708 a30.8470910641543,30.8470910641543 0 0,0 -0.3027995889834197,-0.4362053917911211 l 8.137185046080594 -5.545396464779575" fill="#ff790b" stroke="none" /><path d="M 82.6465618267979 111.8261652097733 l -7.806625561271559 5.320124040952577 a30.447069517317,30.447069517317 0 0,0 -0.2914174486821109,-0.435629545741093 l 7.8970461153644 -5.184957581005663" fill="#ff740a" stroke="none" /><path d="M 82.44556493220864 111.52570212397912 l -6.006397727513836 3.943616002345073 a28.185326773017042,28.185326773017042 0 0,0 -0.26278809077549925,-0.40785295264169463 l 6.07339068166638 -3.8396414497819302" fill="#ff5507" stroke="none" /><path d="M 82.24976979558568 111.22182372390057 l -5.024715777278742 3.1766616019042537 a26.94465706121445,26.94465706121445 0 0,0 -0.2444719020086596,-0.3941665475861866 l 5.078652318955358 -3.089698722952803" fill="#ff4306" stroke="none" /><line stroke="#e1ed5e" stroke-width="0.3" x1="26.63291911575756" x2="22.317208475507996" y1="142.92168965132927" y2="145.44649492493687" /><path d="M 25.769776987707644 143.4266507060508 a86.0,86.0 0 0,1 -11.730757126820373,-40.83630448921669" fill="none" id="id93" stroke="none" /><text fill="#e1ed5e" style="font-size:6.75px; font-family:Arial;" text-anchor="middle"><textPath startOffset="21.46611528233685" xlink:href="#id93">September</textPath></text><path d="M 81.87401531095188 110.60418214915194 l -17.564108220358357 10.275469501451832 a41.34903366383099,41.34903366383099 0 0,0 -0.3541210078794362,-0.6174398261863893 l 17.73838122439017 -9.971609829407136" fill="#feff18" stroke="none" /><path d="M 81.69416730710424 110.29060199501025 l -11.80704122520147 6.6373141296314575 a34.54474663288363,34.54474663288363 0 0,0 -0.28692470201405695,-0.5208516770689766 l 11.919542336667043 -6.433091934164659" fill="#ffaa0f" stroke="none" /><path d="M 81.51974371655577 109.97397251340807 l -11.375224518144984 6.139318358883622 a33.92621223521927,33.92621223521927 0 0,0 -0.2729404029795465,-0.5163003821608301 l 11.479217429349417 -5.942602961636666" fill="#ffa20f" stroke="none" /><path d="M 81.35079622478065 109.6543875284942 l -5.815194034919844 3.010430763864804 a27.548219227224372,27.548219227224372 0 0,0 -0.21437936338726432,-0.422990822138553 l 5.866152068093375 -2.909885730023566" fill="#ff4c07" stroke="none" /><path d="M 81.18737489456691 109.33194174019688 l -11.781190505308178 5.844021385082803 a34.151008922195615,34.151008922195615 0 0,0 -0.2566964543662026,-0.5288707269726719 l 11.8800402162891 -5.640361702144846" fill="#ffa50f" stroke="none" /><path d="M 80.87730276802145 108.67885076344099 l -16.203859513195653 7.354134032494862 a38.794615772510525,38.794615772510525 0 0,0 -0.27074746694694873,-0.6104640627215621 l 16.32804806487388 -7.074121633280605" fill="#ffe115" stroke="none" /><path d="M 80.73074385275274 108.34839909993369 l -6.807304201203791 2.949262381071368 a28.418728939658703,28.418728939658703 0 0,0 -0.19060714699584427,-0.45053899105717776 l 6.857062329391941 -2.8316488643480313" fill="#ff5808" stroke="none" /><path d="M 80.58989483394504 108.01547362559985 l -6.453408184690107 2.6649584150670074 a27.982011211124036,27.982011211124036 0 0,0 -0.18001412202111064,-0.4467802880056951 l 6.498324920968606 -2.553478759218507" fill="#ff5207" stroke="none" /><path d="M 80.45479744820244 107.68017299344265 l -11.657560012296653 4.580770004230195 a33.52526084646356,33.52526084646356 0 0,0 -0.20642895264607114,-0.538920856073198 l 11.734683244536233 -4.379425581323839" fill="#ff9d0e" stroke="none" /><path d="M 80.32549172779594 107.34259656027581 l -12.895950453450364 4.812814639681168 a34.764763813948136,34.764763813948136 0 0,0 -0.2044097572812419,-0.5624478615405191 l 12.976884471736831 -4.590118981134532" fill="#ffad10" stroke="none" /><path d="M 80.20201598880116 107.00284435728193 l -16.070064723587755 5.684223303093649 a38.0457435971486,38.0457435971486 0 0,0 -0.21307277574322064,-0.6192892234652856 l 16.165528330274206 -5.406761376539067" fill="#ffd714" stroke="none" /><path d="M 79.97269907076064 106.31721596034903 l -23.0480097809178 7.270038821343278 a45.167420617954264,45.167420617954264 0 0,0 -0.2275001836349607,-0.743483763191586 l 23.16973673705889 -6.8722280855996445" fill="#d0ff1d" stroke="none" /><path d="M 79.86692584326677 105.97154293290107 l -17.293025891072944 5.129174300178897 a39.03765986681573,39.03765986681573 0 0,0 -0.18553551873543048,-0.6458734806913988 l 17.37875404669448 -4.830743343982903" fill="#ffe415" stroke="none" /><path d="M 79.76711848015287 105.62410040840567 l -5.35825871956788 1.4894262600956836 a26.56141412682852,26.56141412682852 0 0,0 -0.11865606449145423,-0.4415633571121506 l 5.383102860401109 -1.396971969807994" fill="#ff3e05" stroke="none" /><path d="M 79.67330655649465 105.27499134158121 l -13.336132833056793 3.4608671311973085 a34.77788228432575,34.77788228432575 0 0,0 -0.1453859322543869,-0.5807445296108419 l 13.393730079606238 -3.230794762189075" fill="#ffad10" stroke="none" /><path d="M 79.58551787078972 104.9243191809786 l -7.731040226086903 1.8648579686360918 a28.95277801906726,28.95277801906726 0 0,0 -0.11269446142937238,-0.48548479034965913 l 7.761995253446831 -1.7315045209378583" fill="#ff5f08" stroke="none" /><path d="M 79.50377843672027 104.57218783832718 l -9.247891025903007 2.0629702283547515 a30.475195754709,30.475195754709 0 0,0 -0.10980642770670945,-0.5129790738036583 l 9.282031492334157 -1.9034773351349294" fill="#ff740a" stroke="none" /><path d="M 79.4281124754447 104.21870165774334 l -18.114978843154475 3.714860446538114 a39.49196167596038,39.49196167596038 0 0,0 -0.13083135336757026,-0.6671062521764453 l 18.17624012949771 -3.4024904672937137" fill="#ffe915" stroke="none" /><path d="M 79.35854240842038 103.8639653848113 l -3.3234318278782364 0.6221278456100982 a24.381159885429486,24.381159885429486 0 0,0 -0.0736700635536933,-0.4131808399333287 l 3.3336483337711185 -0.5648282549435558" fill="#ff1f03" stroke="none" /><path d="M 79.29508885075956 103.50808413554451 l -13.835526704549771 2.3441873954100023 a35.03271227301084,35.03271227301084 0 0,0 -0.09561969559307901,-0.5954239357342398 l 13.87382815450414 -2.105684229982549" fill="#ffb110" stroke="none" /><path d="M 79.23777060512086 103.15116336523772 l -10.181846097347426 1.5453379211946932 a31.29844936098398,31.29844936098398 0 0,0 -0.07625785063160312,-0.5333472297057265 l 10.206937998995627 -1.3698452195085662" fill="#ff7f0b" stroke="none" /><path d="M 79.18660465613746 102.79330883721812 l -15.546539708170464 2.086458554096536 a36.68592382346936,36.68592382346936 0 0,0 -0.07861005733053429,-0.6265995020496689 l 15.580151274747847 -1.8185412977594586" fill="#ffc612" stroke="none" /><path d="M 79.10278846688536 102.07522291339032 l -7.580947398850471 0.7528351676189586 a28.618236295478212,28.618236295478212 0 0,0 -0.04446102442752536,-0.4906236996803377 l 7.592783019555072 -0.6222300793900548" fill="#ff5b08" stroke="none" /><path d="M 79.04373962182676 101.35467743843564 l -11.036811867006517 0.7134536295447473 a32.05984775072453,32.05984775072453 0 0,0 -0.030859357763443042,-0.5510145630102945 l 11.047457575657491 -0.5233673501990151" fill="#ff8a0c" stroke="none" /><line stroke="#e1ed5e" stroke-width="0.3" x1="15.007084014347285" x2="10.007500721073583" y1="101.09737516637583" y2="101.16192664675087" /><path d="M 14.007167355692545 101.11028546245083 a86.0,86.0 0 0,1 10.666146001902534,-42.60595125391555" fill="none" id="id94" stroke="none" /><text fill="#e1ed5e" style="font-size:6.75px; font-family:Arial;" text-anchor="middle"><textPath startOffset="22.20632615414155" xlink:href="#id94">October</textPath></text><path d="M 79.00175016825051 100.2711162175752 l -10.706071526075116 0.13823007348214067 a31.706963858846784,31.706963858846784 0 0,0 -0.002348886172230378,-0.5457984242815109 l 10.706864709536848 0.046077829003045655" fill="#ff850c" stroke="none" /><path d="M 79.00019446554 99.90962569577889 l -7.85320036529651 -0.03379686148798282 a28.85327308867708,28.85327308867708 0 0,0 0.006412286673117398,-0.4966386694207762 l 7.851455071505677 0.16897178896923104" fill="#ff5e08" stroke="none" /><path d="M 79.01574976396665 99.18683210126434 l -16.299675053340497 -0.6316343145031195 a37.31190880160101,37.31190880160101 0 0,0 0.03039391092934052,-0.6415674218549198 l 16.28638753417766 0.9121128429810482" fill="#ffce13" stroke="none" /><path d="M 79.08570108090925 98.10471618934814 l -10.723196340484321 -0.9717514558429531 a31.767137068344084,31.767137068344084 0 0,0 0.05403873547275573,-0.5441626915690331 l 10.704880479329338 1.1561896781164165" fill="#ff860c" stroke="none" /><path d="M 79.12142395522702 97.74499172005258 l -14.685958607123219 -1.5861693913900283 a35.7713680323902,35.7713680323902 0 0,0 0.07138882889600845,-0.6116158895578843 l 14.65647942522362 1.8387290192727743" fill="#ffba11" stroke="none" /><path d="M 79.16333360222342 97.38593545837743 l -12.535123293531447 -1.5725942288918213 a33.633383101639026,33.633383101639026 0 0,0 0.07701083927368789,-0.5738202028395094 l 12.506196455199925 1.7881327737959902" fill="#ff9e0e" stroke="none" /><path d="M 79.21141760316559 97.0276538004421 l -10.724368552792564 -1.5333674755718445 a31.83343420487094,31.83343420487094 0 0,0 0.08222743796199909,-0.5417760781156576 l 10.696385221391264 1.7177426660795942" fill="#ff860c" stroke="none" /><path d="M 79.26566170972629 96.67025291283419 l -27.616093988306325 -4.434894773545548 a48.96992918874466,48.96992918874466 0 0,0 0.14081918405689453,-0.8311227956207692 l 27.535662942729207 4.909603357482146" fill="#a5ff21" stroke="none" /><path d="M 79.32604984820605 96.31383870115002 l -4.715764363623798 -0.8408198706127568 a25.79013690702483,25.79013690702483 0 0,0 0.08168629936363414,-0.43637147753845346 l 4.700592340350302 0.9218694256137828" fill="#ff3304" stroke="none" /><path d="M 79.3925641242962 95.95851677861259 l -14.685954765832115 -2.880175880888815 a35.96571683845851,35.96571683845851 0 0,0 0.1243740799871806,-0.6064921845729517 l 14.63420138992994 3.1325437216251695" fill="#ffbd11" stroke="none" /><path d="M 79.46518482838121 95.60439243477599 l -4.611004102988942 -0.9870147040032676 a25.715459348112283,25.715459348112283 0 0,0 0.09637861864368381,-0.43204644943164705 l 4.593331097343221 1.066239322984874" fill="#ff3204" stroke="none" /><path d="M 79.54389044137918 95.25157060432595 l -13.385543711419663 -3.107155300192395 a34.74144077270794,34.74144077270794 0 0,0 0.14023498329558132,-0.5813645409980928 l 13.330075927863266 3.3371050728498846" fill="#ffad10" stroke="none" /><path d="M 79.62865764111835 94.90015583598534 l -8.330123985197774 -2.085396899380447 a29.587190800064526,29.587190800064526 0 0,0 0.12793454544280738,-0.4929839913766833 l 8.29299310788466 2.228477316305994" fill="#ff6809" stroke="none" /><path d="M 79.81627453868168 94.20196356495316 l -60.551176383954946 -17.394109305140535 a84.0,84.0 0 0,0 0.4111764115531722,-1.3862824530138431 l 60.24279407529007 18.433821144900918" fill="#4dd2ff" stroke="none" /><path d="M 79.91906864156998 93.8553929516997 l -24.12266050793102 -7.381344377663215 a46.226711930066415,46.226711930066415 0 0,0 0.23937625837246057,-0.7588881545021179 l 23.992028765790355 7.795482698591748" fill="#c4ff1e" stroke="none" /><path d="M 80.02781315780177 93.51064311812611 l -4.638964597562267 -1.5072909678751372 a25.8776960339154,25.8776960339154 0 0,0 0.14129555515239106,-0.42245572546793075 l 4.612331748638104 1.58691979626539" fill="#ff3405" stroke="none" /><path d="M 80.14247586403 93.16781622104843 l -4.9395490761918985 -1.6995022563040678 a26.223739369004818,26.223739369004818 0 0,0 0.15053290431333521,-0.42557679147270316 l 4.909563091068754 1.784276674203382" fill="#ff3905" stroke="none" /><path d="M 80.2630227832202 92.82701384747504 l -15.928322030737307 -5.788811128702211 a37.94761862323607,37.94761862323607 0 0,0 0.22840023196510587,-0.6119990682154539 l 15.826317210270574 6.062133333947005" fill="#ffd614" stroke="none" /><path d="M 80.38941819471856 92.48833698450439 l -8.255266017852964 -3.162107939739117 a29.840155182352802,29.840155182352802 0 0,0 0.1878600470303963,-0.47808332881749727 l 8.199612420940877 3.303740273452378" fill="#ff6b09" stroke="none" /><path d="M 80.52162464483688 92.15188598940014 l -14.616741483784063 -5.889292691846326 a36.75858178942536,36.75858178942536 0 0,0 0.2415184337028842,-0.5848560442818493 l 14.513201363194979 6.1400233065814875" fill="#ffc712" stroke="none" /><path d="M 80.95270993114464 91.15688171328213 l -21.157640360840414 -9.82289426487385 a44.32670138226909,44.32670138226909 0 0,0 0.32726151634973,-0.6892962155246323 l 20.98542065064893 10.185632896039015" fill="#daff1c" stroke="none" /><path d="M 81.10775173730289 90.83032412892265 l -13.532524073667203 -6.568242050793594 a36.04230738424779,36.04230738424779 0 0,0 0.2757064662540324,-0.5558074121315106 l 13.417457594459758 6.8002090514240665" fill="#ffbe11" stroke="none" /><path d="M 81.26839172434947 90.50648371742162 l -16.508605833642132 -8.366858626233318 a39.507792678813374,39.507792678813374 0 0,0 0.31265821237546154,-0.6039561491991668 l 16.362138188106556 8.64978749769282" fill="#ffea16" stroke="none" /><path d="M 81.43458229118936 90.18545643968196 l -4.447881102481029 -2.351356889249981 a26.031155485813493,26.031155485813493 0 0,0 0.212825645947563,-0.39433359932697604 l 4.406747357314994 2.42757147190943" fill="#ff3605" stroke="none" /><path d="M 81.6062741919709 89.86733742301443 l -15.635100613594417 -8.613002092573193 a38.850495126015154,38.850495126015154 0 0,0 0.3277175401704405,-0.5829729362574121 l 15.484525432131546 8.880858538765391" fill="#ffe115" stroke="none" /><line stroke="#e1ed5e" stroke-width="0.3" x1="26.266209847984243" x2="21.928928074336255" y1="57.711370442889674" y2="55.22380399835377" /><path d="M 25.398753493254645 57.213857153982495 a86.0,86.0 0 0,1 29.58750427330803,-30.492523968695096" fill="none" id="id95" stroke="none" /><text fill="#e1ed5e" style="font-size:6.75px; font-family:Arial;" text-anchor="middle"><textPath startOffset="21.46611528233685" xlink:href="#id95">November</textPath></text><path d="M 81.78341655067845 89.55222093294921 l -6.7817980129555435 -3.8895727903007224 a28.81802793417723,28.81802793417723 0 0,0 0.25049772382038,-0.4281818100392353 l 6.713840614664838 4.005734012693849" fill="#ff5d08" stroke="none" /><path d="M 81.96595687620814 89.24020034530311 l -9.604702970141032 -5.7305330253563405 a32.18433403915207,32.18433403915207 0 0,0 0.2879489480302772,-0.47331235948374695 l 9.504638223824537 5.8950131580471625" fill="#ff8b0c" stroke="none" /><path d="M 82.15384107792192 88.93136811851018 l -18.58264131141641 -11.525416587396538 a42.866636358200935,42.866636358200935 0 0,0 0.3943167231506613,-0.6237143606584585 l 18.381496992019784 11.843578595769213" fill="#ebff1a" stroke="none" /><path d="M 82.34701348167596 88.62581576622439 l -3.9886705184008324 -2.5699828908285762 a25.744924084061996,25.744924084061996 0 0,0 0.24323236003489587,-0.370459571546183 l 3.943841523008016 2.6382605263524264" fill="#ff3204" stroke="none" /><path d="M 82.54541684631803 88.32363383020206 l -12.874000754421155 -8.61215335567419 a36.48899870380544,36.48899870380544 0 0,0 0.353727019444754,-0.5190507534135237 l 12.723849269307662 8.832482132358129" fill="#ffc412" stroke="none" /><path d="M 82.7489923806493 88.02491185347247 l -5.5506792264785 -3.853100901515979 a27.756953931508132,27.756953931508132 0 0,0 0.27583457134242256,-0.39014843962345913 l 5.483532035332199 3.9480758414712245" fill="#ff4f07" stroke="none" /><path d="M 82.95767976084542 87.72973835380427 l -5.406985487922734 -3.8929632657393625 a27.66263124110911,27.66263124110911 0 0,0 0.2815494539273052,-0.3840331387452072 l 5.339173421481796 3.98545884815607" fill="#ff4d07" stroke="none" /><path d="M 83.17141714833178 87.43820079747576 l -2.8511538611698075 -2.128261340554079 a24.557889075527868,24.557889075527868 0 0,0 0.2557810094345458,-0.3365778261029496 l 2.814096911511153 2.177023942538055" fill="#ff2103" stroke="none" /><path d="M 83.39014120810768 87.1503855733568 l -14.07217094987209 -10.886424328900944 a38.79157749923571,38.79157749923571 0 0,0 0.4131227626203236,-0.5246239552544169 l 13.882694106657794 11.12704067810841" fill="#ffe115" stroke="none" /><path d="M 83.6137871275137 86.86637796730984 l -6.056666041867024 -4.854444598707417 a28.762012361792834,28.762012361792834 0 0,0 0.31296015217081435,-0.38365214173648593 l 5.972207397619817 4.957980910051985" fill="#ff5d08" stroke="none" /><path d="M 83.84228863543731 86.58626213691792 l -8.085381170913427 -6.71228623303655 a31.508481105905524,31.508481105905524 0 0,0 0.3500282965309161,-0.414323098484567 l 7.968642260895387 6.850468281150233" fill="#ff820c" stroke="none" /><path d="M 84.07557802195018 86.31012108654704 l -3.1778342485552957 -2.73191492474338 a25.190702765327867,25.190702765327867 0 0,0 0.28550439144476897,-0.32638087384577213 l 3.130337993532683 2.7862113547920955" fill="#ff2a04" stroke="none" /><path d="M 84.31358615837235 86.03803664274999 l -6.132499811709795 -5.458337292633259 a29.20981120006859,29.20981120006859 0 0,0 0.3375212592429199,-0.372699404544804 l 6.03763491185083 5.5630894844476195" fill="#ff6309" stroke="none" /><path d="M 84.5562425177563 85.77008943001954 l -3.4667837433517685 -3.1943018200121793 a25.714037933714707,25.714037933714707 0 0,0 0.3027309743478843,-0.3229322961275485 l 3.4112854470334284 3.2535035330177777" fill="#ff3204" stroke="none" /><path d="M 84.80347519578584 85.50635884689758 l -9.050295703574111 -8.631693097404241 a33.506557402015474,33.506557402015474 0 0,0 0.4016570427795283,-0.4139428892351354 l 8.900374397091465 8.7862001821895" fill="#ff9d0e" stroke="none" /><path d="M 85.05521093208273 85.24692304244772 l -17.95772588686183 -17.727363751171545 a46.233694628294494,46.233694628294494 0 0,0 0.5639722566555166,-0.5615503805556449 l 17.649917830039 18.0338499823773" fill="#c4ff1e" stroke="none" /><path d="M 85.31137513191541 84.99185889309783 l -5.133286985234179 -5.244949483597593 a28.338946134034863,28.338946134034863 0 0,0 0.3515604917276618,-0.3382009145009945 l 5.0422432498940895 5.332533484860901" fill="#ff5708" stroke="none" /><path d="M 85.57189188830299 84.74124197986013 l -8.511282646894305 -9.001291184163465 a33.388106202217635,33.388106202217635 0 0,0 0.4209955855889189,-0.39126951504849417 l 8.355079177510529 9.146465285286606" fill="#ff9b0e" stroke="none" /><path d="M 85.83668400450813 84.49514656593479 l -10.401207403221754 -11.38640106424221 a36.42190794423995,36.42190794423995 0 0,0 0.4665282403710261,-0.4188536605260965 l 10.203668175254757 11.563753733537586" fill="#ffc312" stroke="none" /><path d="M 86.10567301691215 84.25364557470407 l -4.243275243329068 -4.808877463937034 a27.413321078334597,27.413321078334597 0 0,0 0.3565118088657284,-0.30916352752265636 l 4.159869635816566 4.8812059848793705" fill="#ff4a06" stroke="none" /><path d="M 86.37877921826538 84.01681056812374 l -1.930926953230231 -2.265756628361781 a23.97693332099937,23.97693332099937 0 0,0 0.3164298265118544,-0.26500087966903274 l 1.8916395897592662 2.298658665424626" fill="#ff1902" stroke="none" /><path d="M 86.65592168130627 83.78471172551755 l -15.72509732353194 -19.108624826350976 a45.74708525440498,45.74708525440498 0 0,0 0.6123500090758711,-0.49514445458400386 l 15.39384391589157 19.376475378199114" fill="#c9ff1d" stroke="none" /><path d="M 87.22198572758235 83.33499621200491 l -3.744776764325824 -4.883913699908415 a27.154345297656583,27.154345297656583 0 0,0 0.37337722127957695,-0.2812199821461914 l 3.660153389287857 4.9476502715604616" fill="#ff4606" stroke="none" /><path d="M 87.51073957382395 83.11751280151077 l -6.668990412363789 -9.014876895961374 a32.21353818246223,32.21353818246223 0 0,0 0.44861905325130313,-0.32594082106057437 l 6.512826042758705 9.128336951838616" fill="#ff8c0c" stroke="none" /><path d="M 87.80319425747018 82.90503203632743 l -8.036066310000336 -11.263301148134053 a34.83619580998622,34.83619580998622 0 0,0 0.49113870450967095,-0.3440740491159227 l 7.840996465907006 11.399960040013918" fill="#ffae10" stroke="none" /><path d="M 88.09926311788651 82.69761687909137 l -2.917895106576966 -4.242303610333508 a26.148907823532532,26.148907823532532 0 0,0 0.37305190620602185,-0.2518863123381363 l 2.844438505964405 4.291901834970309" fill="#ff3805" stroke="none" /><path d="M 89.00827224532344 82.1063720568725 l -26.498733733834968 -43.13775713699863 a71.62656397887733,71.62656397887733 0 0,0 1.0561095844928063,-0.6362942077661284 l 25.75226208312451 43.58749795422338" fill="#3effb2" stroke="none" /><line stroke="#e1ed5e" stroke-width="0.3" x1="56.762969772571076" x2="54.21961505331055" y1="26.818313649435495" y2="22.513508569990535" /><path d="M 56.25429882871897 25.957352633546506 a86.0,86.0 0 0,1 42.265352541879196,-11.944610805530505" fill="none" id="id96" stroke="none" /><text fill="#e1ed5e" style="font-size:6.75px; font-family:Arial;" text-anchor="middle"><textPath startOffset="22.20632615414155" xlink:href="#id96">December</textPath></text><path d="M 89.3179101791058 81.91981866633112 l -3.791824897049014 -6.4179278468590475 a28.454376828237862,28.454376828237862 0 0,0 0.4238391451207563,-0.2455149897777941 l 3.6807890194629374 6.482246994026889" fill="#ff5808" stroke="none" /><path d="M 89.63071344664047 81.73862282372117 l -3.5007795590178867 -6.165231870993135 a28.089819570620044,28.089819570620044 0 0,0 0.42251892117483275,-0.23513132218226623 l 3.3941365487710082 6.224578590735586" fill="#ff5307" stroke="none" /><path d="M 89.94658935756843 81.56283822128135 l -4.525356619887655 -8.299146933789638 a30.452761097467288,30.452761097467288 0 0,0 0.4623816058484555,-0.24698824055517193 l 4.381829967510894 8.375813900846559" fill="#ff740a" stroke="none" /><path d="M 90.26544431104013 81.39251694778311 l -1.4636491517168404 -2.7977472886461805 a24.15747663973124,24.15747663973124 0 0,0 0.3701149883406171,-0.18958727237220252 l 1.4152736757874596 2.8225270863308882" fill="#ff1c02" stroke="none" /><path d="M 90.58718382345135 81.22770947309562 l -7.126767197107875 -14.213147461122077 a36.8998230000643,36.8998230000643 0 0,0 0.5702406097976386,-0.27981459069992237 l 6.881055320299811 14.333717211956829" fill="#ffc912" stroke="none" /><path d="M 90.91171255644093 81.06846463323043 l -4.078416164877953 -8.495624763773444 a30.42385900471661,30.42385900471661 0 0,0 0.4740642648900897,-0.22257952887369514 l 3.9315736886882546 8.564569275287147" fill="#ff730a" stroke="none" /><path d="M 91.23893434514133 80.91482961587045 l -3.4394833200990482 -7.492595967598743 a29.24433380224967,29.24433380224967 0 0,0 0.45930020102421365,-0.2060746119200575 l 3.31000100060806 7.550690910035329" fill="#ff6309" stroke="none" /><path d="M 91.56875222667455 80.76684994638697 l -7.697668506119478 -17.559727506711994 a40.17284878519834,40.17284878519834 0 0,0 0.6357185784359664,-0.27218151848750627 l 7.3942661698932035 17.689628553162287" fill="#fff216" stroke="none" /><path d="M 91.90106846888425 80.62456947434976 l -5.433394848875979 -12.998549747996101 a35.088437639955735,35.088437639955735 0 0,0 0.5592698128112097,-0.22814019907439895 l 5.208841166476389 13.090150833254079" fill="#ffb110" stroke="none" /><path d="M 92.23578459929587 80.48803036053334 l -3.077553567762219 -7.734088852373011 a29.323909318273863,29.323909318273863 0 0,0 0.4706024337276741,-0.1825864330388644 l 2.9439679690348686 7.785917989302427" fill="#ff6409" stroke="none" /><path d="M 92.57280143429618 80.3572730644239 l -2.494894180338645 -6.598251640106251 a28.05417760460087,28.05417760460087 0 0,0 0.4531653752093322,-0.16690463210951845 l 2.3809464793567434 6.640219540022091" fill="#ff5307" stroke="none" /><path d="M 93.25333710446033 80.11325718540243 l -2.581877711786785 -7.610449614577692 a29.036481559404407,29.036481559404407 0 0,0 0.47470109052309745,-0.15650148611068657 l 2.4504937990212783 7.653764824947612" fill="#ff6008" stroke="none" /><path d="M 93.59665428221793 80.00007090966166 l -7.052608007222948 -22.02780644104709 a44.129278767566035,44.129278767566035 0 0,0 0.7254320248709363,-0.22539526134955123 l 6.672390609641282 22.145941837279167" fill="#dcff1b" stroke="none" /><path d="M 93.94186890950719 79.89281104454417 l -4.114998875068118 -13.657852346960704 a35.264296213735605,35.264296213735605 0 0,0 0.5827169405364367,-0.1701110540932104 l 3.8792917168082606 13.726661729972614" fill="#ffb410" stroke="none" /><path d="M 94.28887869178378 79.79150937346287 l -3.8544275183915198 -13.638681122746116 a35.17286965517164,35.17286965517164 0 0,0 0.5840406614674871,-0.1596403750428674 l 3.61908896770031 13.703008038615279" fill="#ffb310" stroke="none" /><path d="M 94.63758080256005 79.69619591428918 l -3.881390120739256 -14.69616262550422 a36.200078459818535,36.200078459818535 0 0,0 0.6038364625419071,-0.1539313592816128 l 3.6278447695123495 14.760796980954696" fill="#ffc011" stroke="none" /><path d="M 94.98787191387505 79.60689891045804 l -1.872752372525352 -7.619763061186254 a28.84652729284859,28.84652729284859 0 0,0 0.48321547690537675,-0.11436149131759904 l 1.7413132086574412 7.650870464644724" fill="#ff5e08" stroke="none" /><path d="M 95.692805502759 79.44645832069477 l -2.401310214363958 -11.458834656174883 a32.70774027825879,32.70774027825879 0 0,0 0.5520343726209346,-0.110732901878013 l 2.2037094322758874 11.498471514130106" fill="#ff920d" stroke="none" /><path d="M 96.04723909329186 79.375362276772 l -0.9654241082222272 -5.037370827960405 a26.129049479886422,26.129049479886422 0 0,0 0.44245797504721524,-0.08085636681967695 l 0.8785710120721187 5.053242676130818" fill="#ff3805" stroke="none" /><path d="M 96.40284397218896 79.31037775812273 l -1.3836520286840934 -7.958297490115121 a29.077684809254087,29.077684809254087 0 0,0 0.4938648059314248,-0.08149192457563059 l 1.246458016613783 7.980935677630379" fill="#ff6108" stroke="none" /><path d="M 96.75951476605007 79.25152402106235 l -2.035251565017769 -13.03149533454071 a34.189470026769975,34.189470026769975 0 0,0 0.5822483344894237,-0.08580826923923819 l 1.8106342500996968 13.064598087940917" fill="#ffa60f" stroke="none" /><path d="M 97.11714578562143 79.19881850522333 l -2.3681703218242025 -17.08748934618868 a38.25081223679861,38.25081223679861 0 0,0 0.6529691814049384,-0.08477414008735078 l 2.0736864119114062 17.12572180944017" fill="#ffda14" stroke="none" /><path d="M 97.47563105711357 79.15227682838746 l -0.9397891409966204 -7.761331364179507 a28.81802201161724,28.81802201161724 0 0,0 0.49297109740775097,-0.05539104673153501 l 0.8060513400791515 7.7763583643816405" fill="#ff5d08" stroke="none" /><path d="M 97.83486435360386 79.11191278185805 l -0.7143725648379708 -6.891889875546907 a27.928814777294825,27.928814777294825 0 0,0 0.4786132699285383,-0.04545009701668713 l 0.5956341678191962 6.903165517078775" fill="#ff5107" stroke="none" /><path d="M 98.19473922651362 79.07773832637324 l -2.1627557269790096 -25.06548744678138 a46.15862025786262,46.15862025786262 0 0,0 0.7921914088777235,-0.06148929997409736 l 1.730974128738952 25.09900200894394" fill="#c5ff1e" stroke="none" /><path d="M 98.55514903715128 79.0497635885617 l -0.4681029694952065 -6.787459833563269 a27.803582246308554,27.803582246308554 0 0,0 0.47774226917509577,-0.028818718334185398 l 0.35119865148048773 6.794511821277761" fill="#ff4f07" stroke="none" /><path d="M 98.91598698831166 79.02799685794201 l -0.6003294315283959 -11.614353876319672 a32.62985861439171,32.62985861439171 0 0,0 0.5611701226870358,-0.024165165935616913 l 0.400318476452036 11.62296676877948" fill="#ff910d" stroke="none" /><path d="M 99.27714615592234 79.0124445844662 l -0.2654430338189221 -7.706952695327305 a28.711522537879002,28.711522537879002 0 0,0 0.494075214675781,-0.012760505131207169 l 0.13274118394826204 7.710379992600872" fill="#ff5c08" stroke="none" /><path d="M 99.63851952072746 79.00311137660856 l -0.26382226075897225 -15.324331307392583 a36.3266021088826,36.3266021088826 0 0,0 0.6253027400315042,-0.005382178098571552 l 3.753934842889629e-15 15.326602108882597" fill="#ffc112" stroke="none" /></svg>