<?xml version="1.0" encoding="utf-8" ?>
<svg baseProfile="full" height="200mm" version="1.1" viewBox="0,0,200,200" width="200mm" xmlns="http://www.w3.org/2000/svg" xmlns:ev="http://www.w3.org/2001/xml-events" xmlns:xlink="http://www.w3.org/1999/xlink"><defs /><rect fill="#1a1a1a" height="200" width="200" x="0" y="0" /><rect fill="#1a1a1a" height="200" width="180" x="10" y="0" /><text alignment-baseline="middle" fill="#e1ed5e" style="dominant-baseline: central; font-size:9.0px; font-family:Arial;" text-anchor="middle" x="100.0" y="100.0">2026</text><line stroke="#e1ed5e" stroke-width="0.3" x1="100.0" x2="100.0" y1="15.0" y2="10.0" /><path d="M 100.0 14.0 a86.0,86.0 0 0,1 42.46469731375804,11.215312516191453" fill="none" id="id97" stroke="none" /><text fill="#e1ed5e" style="font-size:6.75px; font-family:Arial;" text-anchor="middle"><textPath startOffset="22.20632615414155" xlink:href="#id97">January</textPath></text><path d="M 100.0 79.0 l 0.0 -20.846444417570623 a41.84644441757062,41.84644441757062 0 0,0 0.7203177516149832,0.006200002300580386 l -0.3588372723424549 20.8433557918786" fill="#fffc17" stroke="none" /><path d="M 100.36148047927253 79.00311137660856 l 0.19703666990930901 -11.445035762748914 a32.44673171957352,32.44673171957352 0 0,0 0.5583516484967475,0.014420575782851058 l -0.39401495360092426 11.439948394823704" fill="#ff810b" stroke="none" /><path d="M 100.72285384407766 79.0124445844662 l 0.49845697439029046 -14.472349366314779 a35.48093075516868,35.48093075516868 0 0,0 0.610203019885166,0.02627662563240438 l -0.747500826664788 14.46162501415818" fill="#ffaa0f" stroke="none" /><path d="M 101.08401301168833 79.027996857942 l 0.31524065202966006 -6.0988455614325 a27.10698729742391,27.10698729742391 0 0,0 0.4657728456444338,0.02809669001974025 l -0.42017554651370576 6.092515602032456" fill="#ff3605" stroke="none" /><path d="M 101.44485096284872 79.0497635885617 l 0.7587952353835946 -11.00247705674524 a32.02861149888989,32.02861149888989 0 0,0 0.5496869431096213,0.04266628614995119 l -0.948072367855557 10.987785508406825" fill="#ff7b0b" stroke="none" /><path d="M 101.80526077348638 79.07773832637324 l 1.6259898964332105 -18.844582783544126 a39.914601328845144,39.914601328845144 0 0,0 0.6840124800219864,0.06495522696700128 l -1.950127503545441 18.813802012061945" fill="#ffe415" stroke="none" /><path d="M 102.16513564639614 79.11191278185805 l 1.2909968000036527 -12.454856489801971 a33.52158627807124,33.52158627807124 0 0,0 0.5734319020121281,0.06443175563177793 l -1.5051954055255061 12.430788780699594" fill="#ff900d" stroke="none" /><path d="M 102.52436894288641 79.15227682838746 l 2.2591841954255876 -18.65767158665058 a39.79395174688307,39.79395174688307 0 0,0 0.6793116950346213,0.08819415439168427 l -2.580010618968055 18.616019109094758" fill="#ffe215" stroke="none" /><path d="M 102.88285421437855 79.19881850522331 l 1.9707697728370315 -14.220053003283693 a35.35596882532578,35.35596882532578 0 0,0 0.60211386566352,0.08873593213940457 l -2.2152526189292074 14.18402258698332" fill="#ffa90f" stroke="none" /><path d="M 103.2404852339499 79.25152402106235 l 3.5847052516479976 -22.952479470097757 a44.23072158944814,44.23072158944814 0 0,0 0.7512288848742315,0.12395920278171653 l -3.979263342661104 22.887374004376415" fill="#e4ff1a" stroke="none" /><path d="M 103.59715602781102 79.31037775812273 l 4.530948873177962 -26.060482186077756 a47.45143152009412,47.45143152009412 0 0,0 0.8035219313903362,0.14683849697865284 l -4.9788659256712 25.978628207748365" fill="#beff1f" stroke="none" /><path d="M 103.95276090670814 79.375362276772 l 2.4361914917414547 -12.711511808444442 a33.94285754540534,33.94285754540534 0 0,0 0.5728804225125662,0.114914423376819 l -2.654638323721146 12.667693428990413" fill="#ff960d" stroke="none" /><path d="M 104.307194497241 79.44645832069477 l 2.5515893488748316 -12.175953062756635 a33.4404357315869,33.4404357315869 0 0,0 0.5623682469564883,0.12291191696528815 l -2.7608003199848477 12.130227647695476" fill="#ff8f0d" stroke="none" /><path d="M 104.66035177308747 79.52364482259891 l 3.5473334803280023 -15.586046678995864 a36.98463092787863,36.98463092787863 0 0,0 0.6195389098505222,0.1466248434622454 l -3.8150960771410483 15.522675923392748" fill="#ffbe11" stroke="none" /><path d="M 105.01212808612495 79.60689891045804 l 2.4188799417302644 -9.841820146561373 a31.13471282127749,31.13471282127749 0 0,0 0.5193434835541852,0.1323922176229912 l -2.5879323139694748 9.798724932769513" fill="#ff6f0a" stroke="none" /><path d="M 105.36241919743992 79.69619591428918 l 2.740422948118886 -10.376102389972708 a31.731887939303782,31.731887939303782 0 0,0 0.5269036334929477,0.1440226669336884 l -2.918624470835545 10.327393182212726" fill="#ff770b" stroke="none" /><path d="M 105.71112130821622 79.79150937346287 l 6.096171408973409 -21.57096936441728 a43.4158431732606,43.4158431732606 0 0,0 0.7174153469955711,0.2094332126121332 l -6.4665769736924075 21.462837822886446" fill="#eeff19" stroke="none" /><path d="M 106.0581310904928 79.89281104454417 l 12.645211752024942 -41.96998352820948 a64.83355903428017,64.83355903428017 0 0,0 1.0657853770407941,0.33114470462395384 l -13.365782501776453 41.74609868870301" fill="#35ff62" stroke="none" /><path d="M 106.40334571778207 80.00007090966166 l 3.1360227715065916 -9.794915942402467 a31.284698203746082,31.284698203746082 0 0,0 0.5114559187765627,0.16861897511218008 l -3.304161512525572 9.73948324303105" fill="#ff710a" stroke="none" /><path d="M 106.74666289553966 80.11325718540242 l 3.997062518523533 -11.781906929468283 a33.441456493177895,33.441456493177895 0 0,0 0.5435319481646049,0.18962762418506507 l -4.199276470751411 11.71135845211101" fill="#ff8f0d" stroke="none" /><path d="M 107.08798089147638 80.2323363322302 l 6.0756490127701905 -16.944372182533122 a39.00070164150769,39.00070164150769 0 0,0 0.629987014479519,0.23202953411192756 l -6.3664183530222855 16.83727938061487" fill="#ffd814" stroke="none" /><path d="M 107.4271985657038 80.35727306442388 l 3.348982300041475 -8.857060202423538 a30.469065311599977,30.469065311599977 0 0,0 0.4889803788920885,0.18971679024414984 l -3.5009458439332306 8.79810070828884" fill="#ff6609" stroke="none" /><path d="M 107.76421540070413 80.48803036053334 l 6.157701213149476 -15.474696787647508 a37.654834880600006,37.654834880600006 0 0,0 0.6001752677391737,0.2448265612143225 l -6.423160350477037 15.366409340249605" fill="#ffc712" stroke="none" /><path d="M 108.09893153111575 80.62456947434976 l 8.890441037629797 -21.268993570964923 a44.052332406186565,44.052332406186565 0 0,0 0.6971097888474209,0.29846603090915574 l -9.255234584267534 21.112808012092977" fill="#e7ff1a" stroke="none" /><path d="M 108.43124777332544 80.76684994638697 l 5.988166039796113 -13.660053539610631 a35.914931955097764,35.914931955097764 0 0,0 0.5640660368019087,0.253079988582697 l -6.222414195064802 13.554953220511402" fill="#ffb010" stroke="none" /><path d="M 108.76106565485865 80.91482961587045 l 4.335085642183175 -9.443582706742589 a31.391064520257316,31.391064520257316 0 0,0 0.4891352515013489,0.22965555916754862 l -4.4969991049841225 9.367562164935038" fill="#ff730a" stroke="none" /><path d="M 109.08828744355905 81.06846463323043 l 7.9901482324035475 -16.644034950136003 a39.46256667414177,39.46256667414177 0 0,0 0.6098446077750279,0.29924810050915346 l -8.275464107189007 16.504031689492017" fill="#ffde14" stroke="none" /><path d="M 109.41281617654863 81.2277094730956 l 10.290688264870894 -20.523059858669733 a43.9585332921616,43.9585332921616 0 0,0 0.6734855746539775,0.3449854696594059 l -10.642434327113628 20.342881863697826" fill="#e8ff1a" stroke="none" /><path d="M 110.05341064243156 81.56283822128135 l 8.12614525097182 -14.902709136060611 a37.97424449670489,37.97424449670489 0 0,0 0.5711975748665674,0.3178708319907521 l -8.381466914910423 14.76062290650968" fill="#ffcb12" stroke="none" /><path d="M 110.36928655335952 81.73862282372117 l 11.349142051257623 -19.987003209785488 a43.98441477626958,43.98441477626958 0 0,0 0.6551651744103534,0.37951395700436774 l -11.691503958133303 19.78868509539107" fill="#e7ff1a" stroke="none" /><line stroke="#e1ed5e" stroke-width="0.3" x1="143.23703022742887" x2="145.7803849466894" y1="26.81831364943548" y2="22.513508569990506" /><path d="M 143.74570117128098 25.957352633546492 a86.0,86.0 0 0,1 28.547481713284135,27.462654790039103" fill="none" id="id98" stroke="none" /><text fill="#e1ed5e" style="font-size:6.75px; font-family:Arial;" text-anchor="middle"><textPath startOffset="19.985693538727396" xlink:href="#id98">February</textPath></text><path d="M 110.68208982089419 81.91981866633111 l 10.207791673289176 -17.27739867047235 a41.067573736346695,41.067573736346695 0 0,0 0.6055275560560575,0.3648235772297061 l -10.50368129556287 17.099128483784032" fill="#fff316" stroke="none" /><path d="M 110.99172775467656 82.1063720568725 l 12.641903282845602 -20.57997786016833 a45.15270600445923,45.15270600445923 0 0,0 0.6587583018253438,0.4125143881684275 l -12.994280737043209 20.359319130676962" fill="#d9ff1c" stroke="none" /><path d="M 111.2981086023043 82.29822771554956 l 10.57507326739568 -16.568927194826042 a40.65608106918143,40.65608106918143 0 0,0 0.5866730079214034,0.3815884437234813 l -10.858713301101364 16.38443982694303" fill="#ffed16" stroke="none" /><path d="M 111.60114157652 82.49532879139004 l 14.119018506415962 -21.303832481736496 a46.55777693764478,46.55777693764478 0 0,0 0.6642138766374165,0.4484801744924401 l -14.48363707745992 21.057640394945388" fill="#c9ff1d" stroke="none" /><path d="M 111.90073688211348 82.69761687909136 l 2.730244501693819 -3.9694799448142546 a25.817780201639746,25.817780201639746 0 0,0 0.36399241727520276,0.2549999495242504 l -2.7981680585526725 3.921895152526069" fill="#ff2303" stroke="none" /><path d="M 112.19680574252982 82.90503203632743 l 11.733440913070314 -16.44551866667493 a41.202195917188455,41.202195917188455 0 0,0 0.5737988177376461,0.4168892436055942 l -12.01478504716175 16.24111018825266" fill="#fff417" stroke="none" /><path d="M 112.48926042617603 83.11751280151076 l 15.299166225587859 -20.68080647991811 a46.724701045065444,46.724701045065444 0 0,0 0.6424731972024929,0.483897492266692 l -15.652885576548734 20.414392398145573" fill="#c7ff1e" stroke="none" /><path d="M 112.77801427241765 83.33499621200491 l 17.668737998108213 -23.043454122849035 a50.03764936005739,50.03764936005739 0 0,0 0.6790048135220914,0.5299740271498797 l -18.062775366789733 22.73590170647593" fill="#a0ff22" stroke="none" /><path d="M 113.06298171725822 83.55741782278167 l 14.713643704548662 -18.52029658885039 a44.65359796739997,44.65359796739997 0 0,0 0.5977130776430323,0.483309073962327 l -15.030260180756185 18.264281417623934" fill="#dfff1b" stroke="none" /><path d="M 113.34407831869373 83.78471172551755 l 13.100525940747074 -15.919331377046667 a41.6167138850111,41.6167138850111 0 0,0 0.5492265995123655,0.4599614821801735 l -13.372610077218557 15.691468737472675" fill="#fff917" stroke="none" /><path d="M 113.6212207817346 84.01681056812373 l 14.302384973481251 -16.782469943172043 a43.05015903169715,43.05015903169715 0 0,0 0.5598697809904526,0.4855135570264854 l -14.589148553118468 16.533791392725888" fill="#f3ff19" stroke="none" /><path d="M 114.16331599549186 84.49514656593476 l 13.944511515204294 -15.265323976510574 a41.67557780342532,41.67557780342532 0 0,0 0.5254935447924524,0.48838897952916566 l -14.205212943791594 15.023030410906768" fill="#fffa17" stroke="none" /><path d="M 114.42810811169701 84.74124197986012 l 14.710430584759706 -15.557334262205789 a42.41091818056937,42.41091818056937 0 0,0 0.5261311828486216,0.5061377810471841 l -14.976045011220746 15.301813394396303" fill="#fbff18" stroke="none" /><path d="M 114.68862486808459 84.99185889309783 l 17.206498444566638 -17.58078505856916 a45.599747803554465,45.599747803554465 0 0,0 0.5562391861271153,0.5538505182896541 l -17.506573430861074 17.281998689629386" fill="#d4ff1c" stroke="none" /><path d="M 114.94478906791727 85.2469230424477 l 7.235044366280987 -7.142233044706596 a31.166482176591522,31.166482176591522 0 0,0 0.37360558754800927,0.385033398826526 l -7.356914217532105 7.0166354503299555" fill="#ff6f0a" stroke="none" /><path d="M 115.19652480421416 85.50635884689758 l 18.286150187104838 -17.440362339298627 a46.269537534180955,46.269537534180955 0 0,0 0.5447305559887495,0.5810805768891559 l -18.583648065064047 17.123012345531414" fill="#ccff1d" stroke="none" /><path d="M 115.4437574822437 85.77008943001954 l 10.703588657392046 -9.862309062264432 a35.5544477801899,35.5544477801899 0 0,0 0.4108339456308645,0.4536531039462978 l -10.871766243638946 9.676603171048585" fill="#ffab0f" stroke="none" /><path d="M 115.68641384162765 86.03803664274999 l 9.376978638965054 -8.346141666332677 a33.553318649269656,33.553318649269656 0 0,0 0.3802839448805382,0.4347302877253235 l -9.519254447423442 8.183495822404405" fill="#ff900d" stroke="none" /><path d="M 115.9244219780498 86.31012108654704 l 28.239971173271563 -24.277288457589293 a58.24087414011931,58.24087414011931 0 0,0 0.6469989427677358,0.7658426742653119 l -28.653680729526414 23.787586833694874" fill="#48ff2c" stroke="none" /><path d="M 116.15771136456269 86.58626213691792 l 8.507994943971452 -7.063129879220332 a32.05774758517207,32.05774758517207 0 0,0 0.3488211268497943,0.42761345644354165 l -8.628314562897655 6.91563225316869" fill="#ff7c0b" stroke="none" /><path d="M 116.38621287248628 86.86637796730983 l 17.345455748760763 -13.90245943719461 a43.22933227820978,43.22933227820978 0 0,0 0.46038398869853586,0.5846409129210955 l -17.582193818053263 13.601826130320475" fill="#f1ff19" stroke="none" /><path d="M 116.82858285166822 87.43820079747576 l 12.358755850237566 -9.225269338013 a36.422206084885005,36.422206084885005 0 0,0 0.3707041511939819,0.505640045622887 l -12.515722613945174 9.011166848718618" fill="#ffb710" stroke="none" /><path d="M 117.04232023915458 87.72973835380427 l 20.408620543385283 -14.693956596938435 a46.148044714382834,46.148044714382834 0 0,0 0.45859593107703917,0.648651421961394 l -20.658529094266207 14.340478674645247" fill="#cdff1d" stroke="none" /><path d="M 117.2510076193507 88.02491185347247 l 9.843511632336474 -6.8330454701309264 a32.98270552307868,32.98270552307868 0 0,0 0.3197367571691219,0.46917423770210215 l -9.95967285517433 6.662593209158418" fill="#ff890c" stroke="none" /><path d="M 117.45458315368197 88.32363383020206 l 16.582980108714057 -11.093301182330201 a40.9513548514354,40.9513548514354 0 0,0 0.3868993613893499,0.5892742710354296 l -16.771476105461332 10.806208847317096" fill="#fff116" stroke="none" /><path d="M 117.65298651832404 88.62581576622439 l 12.581683387921565 -8.106638764874578 a35.96717571681674,35.96717571681674 0 0,0 0.33085075187912294,0.5233264354928494 l -12.719361736046643 7.888864681667523" fill="#ffb110" stroke="none" /><line stroke="#e1ed5e" stroke-width="0.3" x1="172.23445277983987" x2="176.4835382374775" y1="55.19839476539836" y2="52.563006222186495" /><path d="M 173.08426987136738 54.67131705675599 a86.0,86.0 0 0,1 12.851231095245387,41.99856678651699" fill="none" id="id99" stroke="none" /><text fill="#e1ed5e" style="font-size:6.75px; font-family:Arial;" text-anchor="middle"><textPath startOffset="22.20632615414155" xlink:href="#id99">March</textPath></text><path d="M 117.84615892207809 88.93136811851018 l 22.4717377656799 -13.937530992059548 a47.443028729026196,47.443028729026196 0 0,0 0.4244664561731824,0.6977112480088365 l -22.708320020139308 13.54865197084363" fill="#beff1f" stroke="none" /><path d="M 118.03404312379186 89.2402003453031 l 8.170465379796042 -4.874812041247787 a30.514215519943832,30.514215519943832 0 0,0 0.2652416587758637,0.45338397419489346 l -8.253166713042232 4.733448654698998" fill="#ff6609" stroke="none" /><path d="M 118.21658344932153 89.55222093294921 l 16.470805701772672 -9.446521050842305 a39.987474830254655,39.987474830254655 0 0,0 0.33730836239003703,0.6000339388133629 l -16.630971705455142 9.161603602094148" fill="#ffe515" stroke="none" /><path d="M 118.3937258080291 89.86733742301442 l 11.346518941551844 -6.250525263779587 a33.95424865301503,33.95424865301503 0 0,0 0.27760330908785863,0.5143567711039204 l -11.452430349858169 6.054287509343208" fill="#ff960d" stroke="none" /><path d="M 118.56541770881063 90.18545643968196 l 10.044004393570129 -5.309728021575178 a32.36112828556903,32.36112828556903 0 0,0 0.2561006787312814,0.4947049960999991 l -10.133914505461526 5.136050303214834" fill="#ff800b" stroke="none" /><path d="M 118.73160827565052 90.50648371742162 l 27.12496510569402 -13.747420622180075 a51.40978963669858,51.40978963669858 0 0,0 0.3932603781574892,0.7927889252919471 l -27.35758549680492 13.278472108389177" fill="#91ff24" stroke="none" /><path d="M 118.89224826269711 90.83032412892265 l 9.551966965335797 -4.636210565595391 a31.61765140298949,31.61765140298949 0 0,0 0.23343132285720106,0.4916658983466537 l -9.630356482034754 4.4711022516081975" fill="#ff760a" stroke="none" /><path d="M 119.04729006885535 91.15688171328212 l 20.328460324430427 -9.43792941599239 a43.412514602855175,43.412514602855175 0 0,0 0.3088442426886394,0.6804973499086896 l -20.487906884082413 9.086610057241636" fill="#eeff19" stroke="none" /><path d="M 119.196687751892 91.48605970444005 l 5.5301990867184525 -2.452703583837816 a27.04969890233493,27.04969890233493 0 0,0 0.18510919182017957,0.4272575364085395 l -5.571598988381313 2.3571469028426737" fill="#ff3505" stroke="none" /><path d="M 119.34039704204932 91.81776055985345 l 15.011206991801417 -6.350711912763632 a37.299321370830924,37.299321370830924 0 0,0 0.24507130681127895,0.5934596083251987 l -15.118299985498895 6.09137773398513" fill="#ffc212" stroke="none" /><path d="M 119.47837535516314 92.15188598940014 l 17.820018160426823 -7.179938349268876 a40.21209415803607,40.21209415803607 0 0,0 0.2531570581169886,0.6442570997474119 l -17.94096876842551 6.872132244625679" fill="#ffe815" stroke="none" /><path d="M 119.61058180528143 92.48833698450437 l 8.430261284611857 -3.2291383565952714 a30.027548939377752,30.027548939377752 0 0,0 0.18073068592763034,0.4842683846422204 l -8.484596559041114 3.083546834923718" fill="#ff6008" stroke="none" /><path d="M 119.7369772167798 92.82701384747503 l 7.219487827995811 -2.623769873661817 a28.681482464245754,28.681482464245754 0 0,0 0.1646411594701094,0.4654627286389707 l -7.2635820682757295 2.499109518596232" fill="#ff4c07" stroke="none" /><path d="M 119.85752413597 93.16781622104841 l 15.108301621312668 -5.1981653179845475 a36.977537374503505,36.977537374503505 0 0,0 0.2019021192864804,0.6036616380797715 l -15.195541034370917 4.937330576982462" fill="#ffbe11" stroke="none" /><path d="M 119.97218684219823 93.5106431181261 l 7.114761366756853 -2.3117261020562543 a28.480902811614655,28.480902811614655 0 0,0 0.14748295229017963,0.4675612621109278 l -7.153499802815238 2.1889146735189073" fill="#ff4a06" stroke="none" /><path d="M 120.08093135843002 93.85539295169968 l 2.34231360890823 -0.7167295407633181 a23.449517151823905,23.449517151823905 0 0,0 0.11478438470407087,0.38699588284787506 l -2.3543038907240033 0.6763042711689131" fill="#ff0000" stroke="none" /><path d="M 120.18372546131832 94.20196356495316 l 12.58781719378278 -3.6160134494068097 a34.09689638694543,34.09689638694543 0 0,0 0.15719193585163302,0.5655030285746797 l -12.648195900200776 3.398799117413178" fill="#ff980e" stroke="none" /><path d="M 120.28053869075195 94.5502522615342 l 11.772671303147998 -3.1635298148805324 a33.190312157676786,33.190312157676786 0 0,0 0.14351438525174956,0.5530194695771693 l -11.825382020270052 2.9604139197545125" fill="#ff8b0c" stroke="none" /><path d="M 120.37134235888165 94.90015583598534 l 7.062924165684802 -1.7681609759771906 a28.28088531754092,28.28088531754092 0 0,0 0.11415673592918335,0.47325336963478787 l -7.092313701874804 1.6463223746829967" fill="#ff4706" stroke="none" /><path d="M 120.53481517161879 95.60439243477599 l 3.9294273446548535 -0.8411188714780822 a25.018442510834,25.018442510834 0 0,0 0.08651699572604465,0.42188759704583306 l -3.943323636295895 0.7733556182688373" fill="#ff1702" stroke="none" /><path d="M 120.6074358757038 95.95851677861258 l 61.822307627111385 -12.124449664162288 a84.0,84.0 0 0,0 0.26605710436056285,1.4212876901497489 l -62.02185045538181 11.058483896549978" fill="#4dd2ff" stroke="none" /><path d="M 120.67395015179393 96.31383870115 l 6.141365959503341 -1.0950043584211504 a27.238221733275253,27.238221733275253 0 0,0 0.07832692885580461,0.46228996794017674 l -6.159304749879368 0.9891286021651358" fill="#ff3805" stroke="none" /><path d="M 120.78858239683441 97.02765380044208 l 2.998651053044016 -0.42874636140042655 a24.02914700540203,24.02914700540203 0 0,0 0.055019882249864,0.409962029898445 l -3.005586934351716 0.3770659894373172" fill="#ff0901" stroke="none" /><path d="M 120.83666639777658 97.38593545837742 l 9.944491370606576 -1.2475864315391765 a31.02244383991396,31.02244383991396 0 0,0 0.06191141287127532,0.5304191768184147 l -9.96449313648144 1.076223516395909" fill="#ff6d0a" stroke="none" /><path d="M 120.87857604477298 97.74499172005257 l 7.687832452229005 -0.8303308519435695 a28.73254273426502,28.73254273426502 0 0,0 0.04887661966314966,0.49218088983788705 l -7.700986197574383 0.6978744314012474" fill="#ff4d07" stroke="none" /><path d="M 120.91429891909075 98.10471618934814 l 8.856273724975237 -0.8025682466613983 a29.892564314202957,29.892564314202957 0 0,0 0.04202825673027587,0.5128511857799535 l -8.868776465525007 0.6500031436736761" fill="#ff5e08" stroke="none" /><path d="M 120.94382443527127 98.46500227214037 l 46.21856433143225 -3.387413385408466 a67.34253185036815,67.34253185036815 0 0,0 0.07478038300080524,1.156819426441504 l -46.27002530543747 2.591334894713927" fill="#38ff7f" stroke="none" /><path d="M 120.96714384426684 98.82574320788733 l 4.333539274091195 -0.24269819314851573 a25.34033006268514,25.34033006268514 0 0,0 0.020641981597371375,0.4357196066734718 l -4.337074863922063 0.16806747985204415" fill="#ff1c02" stroke="none" /><path d="M 120.98425023603335 99.18683210126433 l 10.501435661500247 -0.4069447454408633 a31.50931753152749,31.50931753152749 0 0,0 0.016337289370350998,0.54215509801932 l -10.506884645326243 0.2261194999965442" fill="#ff740a" stroke="none" /><line stroke="#e1ed5e" stroke-width="0.3" x1="184.98032266829074" x2="189.97916517819016" y1="98.17113171792111" y2="98.06355123074" /><path d="M 185.9800911702706 98.14961562048488 a86.0,86.0 0 0,1 -9.607161424134198,41.387399972396054" fill="none" id="id100" stroke="none" /><text fill="#e1ed5e" style="font-size:6.75px; font-family:Arial;" text-anchor="middle"><textPath startOffset="21.466115282336823" xlink:href="#id100">April</textPath></text><path d="M 120.99513854157772 99.54816195383933 l 11.393551031929997 -0.245201517813478 a32.396189227172876,32.396189227172876 0 0,0 0.00719965640649314,0.5576213229826302 l -11.396083695454205 0.04904393677038507" fill="#ff800b" stroke="none" /><path d="M 120.99980553446 99.90962569577887 l 15.18839239577794 -0.06536443362551506 a36.18853304560083,36.18853304560083 0 0,0 -0.002680885664188142,0.6229434139855925 l -15.18726721282425 -0.19608845856376214" fill="#ffb410" stroke="none" /><path d="M 120.99824983174949 100.27111621757518 l 7.2971344737465165 0.09421601864496032 a28.29774267743863,28.29774267743863 0 0,0 -0.010480860414328903,0.4870043997036678 l -7.29443155064718 -0.21981023413874298" fill="#ff4706" stroke="none" /><path d="M 120.9904718944345 100.63252640178507 l 7.8859976355853085 0.23763647306304309 a28.889577289169992,28.889577289169992 0 0,0 -0.019256784041842806,0.4969320305236014 l -7.880738718692262 -0.37334575060065067" fill="#ff4f07" stroke="none" /><path d="M 120.9764740272857 100.99374915477107 l 11.686862062693354 0.5536587932567011 a32.699969356018485,32.699969356018485 0 0,0 -0.03147550983576677,0.562016372169143 l -11.675600201970058 -0.7547468817612675" fill="#ff850c" stroke="none" /><path d="M 120.95626037817324 101.35467743843564 l 11.698984530172286 0.7562585170080564 a32.7234024916727,32.7234024916727 0 0,0 -0.04117451933533238,0.561793603022692 l -11.684233452172617 -0.9575252565275186" fill="#ff850c" stroke="none" /><path d="M 120.92983693683757 101.71520430193887 l 10.077489534692933 0.8258522727535862 a31.11127228880015,31.11127228880015 0 0,0 -0.04833418184552111,0.5333636690429127 l -10.061780756570338 -0.9991973303450694" fill="#ff6f0a" stroke="none" /><path d="M 120.89721153311464 102.0752229133903 l 10.162989253728547 1.0092479627942692 a31.21297860674379,31.21297860674379 0 0,0 -0.05769599965765229,0.5341933007711922 l -10.144110952569843 -1.184037585450253" fill="#ff700a" stroke="none" /><path d="M 120.8583938346157 102.4346265915055 l 6.23661609120561 0.7279482541681558 a27.27895603821457,27.27895603821457 0 0,0 -0.05845294528767785,0.46592748630867764 l -6.223161636671084 -0.8351934947642283" fill="#ff3805" stroke="none" /><path d="M 120.76222939487914 103.15116336523771 l 9.40776414795658 1.427852528165848 a30.515502567167264,30.515502567167264 0 0,0 -0.0832902415206489,0.5186484134558249 l -9.381792152074643 -1.5895801713148778" fill="#ff6609" stroke="none" /><path d="M 120.5718875245553 104.21870165774334 l 14.646775627891035 3.0036318518766714 a35.95158321367309,35.95158321367309 0 0,0 -0.12953862396384525,0.6051613255306224 l -14.592902965202747 -3.255306996823463" fill="#ffb010" stroke="none" /><path d="M 120.49622156327973 104.57218783832717 l 16.70428930172709 3.726303804701549 a38.114865501099544,38.114865501099544 0 0,0 -0.14835654931871298,0.6391161316133831 l -16.637672186477825 -4.013288593663497" fill="#ffcd13" stroke="none" /><path d="M 120.41448212921028 104.9243191809786 l 4.523144869168532 1.0910592243592308 a25.652875426931715,25.652875426931715 0 0,0 -0.10723962944204118,0.42836901198245686 l -4.50369392543143 -1.1687560757390836" fill="#ff2103" stroke="none" /><line stroke="#e1ed5e" stroke-width="0.3" x1="174.80103733775053" x2="179.2010983576182" y1="140.37084112569926" y2="142.7455964860345" /><path d="M 175.68104954172406 140.8457921977663 a86.0,86.0 0 0,1 -30.038265399797805,32.042727171017184" fill="none" id="id101" stroke="none" /><text fill="#e1ed5e" style="font-size:6.75px; font-family:Arial;" text-anchor="middle"><textPath startOffset="22.206326154141568" xlink:href="#id101">May</textPath></text><line stroke="#e1ed5e" stroke-width="0.3" x1="143.8653032363475" x2="146.44561519142675" y1="172.8068346515853" y2="177.08958963109032" /><path d="M 144.38136562736335 173.6633856474863 a86.0,86.0 0 0,1 -40.68145358897372,12.25698825130547" fill="none" id="id102" stroke="none" /><text fill="#e1ed5e" style="font-size:6.75px; font-family:Arial;" text-anchor="middle"><textPath startOffset="21.466115282336833" xlink:href="#id102">June</textPath></text><line stroke="#e1ed5e" stroke-width="0.3" x1="102.19456741930631" x2="102.32365962044197" y1="184.97166512339345" y2="189.96999836594603" /><path d="M 102.22038585953345 185.97133177190398 a86.0,86.0 0 0,1 -42.740103519485714,-10.115201625700543" fill="none" id="id103" stroke="none" /><text fill="#e1ed5e" style="font-size:6.75px; font-family:Arial;" text-anchor="middle"><textPath startOffset="22.20632615414155" xlink:href="#id103">July</textPath></text><line stroke="#e1ed5e" stroke-width="0.3" x1="58.666819895761336" x2="56.23545636021788" y1="174.27360380694188" y2="178.64263932499728" /><path d="M 58.180547188652646 175.14741091055294 a86.0,86.0 0 0,1 -31.652253787137756,-30.449443065178592" fill="none" id="id104" stroke="none" /><text fill="#e1ed5e" style="font-size:6.75px; font-family:Arial;" text-anchor="middle"><textPath startOffset="22.20632615414155" xlink:href="#id104">August</textPath></text><line stroke="#e1ed5e" stroke-width="0.3" x1="26.63291911575756" x2="22.317208475507996" y1="142.92168965132927" y2="145.44649492493687" /><path d="M 25.769776987707644 143.4266507060508 a86.0,86.0 0 0,1 -11.730757126820373,-40.83630448921669" fill="none" id="id105" stroke="none" /><text fill="#e1ed5e" style="font-size:6.75px; font-family:Arial;" text-anchor="middle"><textPath startOffset="21.46611528233685" xlink:href="#id105">September</textPath></text><line stroke="#e1ed5e" stroke-width="0.3" x1="15.007084014347285" x2="10.007500721073583" y1="101.09737516637583" y2="101.16192664675087" /><path d="M 14.007167355692545 101.11028546245083 a86.0,86.0 0 0,1 10.666146001902534,-42.60595125391555" fill="none" id="id106" stroke="none" /><text fill="#e1ed5e" style="font-size:6.75px; font-family:Arial;" text-anchor="middle"><textPath startOffset="22.20632615414155" xlink:href="#id106">October</textPath></text><line stroke="#e1ed5e" stroke-width="0.3" x1="26.266209847984243" x2="21.928928074336255" y1="57.711370442889674" y2="55.22380399835377" /><path d="M 25.398753493254645 57.213857153982495 a86.0,86.0 0 0,1 29.58750427330803,-30.492523968695096" fill="none" id="id107" stroke="none" /><text fill="#e1ed5e" style="font-size:6.75px; font-family:Arial;" text-anchor="middle"><textPath startOffset="21.46611528233685" xlink:href="#id107">November</textPath></text><line stroke="#e1ed5e" stroke-width="0.3" x1="56.762969772571076" x2="54.21961505331055" y1="26.818313649435495" y2="22.513508569990535" /><path d="M 56.25429882871897 25.957352633546506 a86.0,86.0 0 0,1 42.265352541879196,-11.944610805530505" fill="none" id="id108" stroke="none" /><text fill="#e1ed5e" style="font-size:6.75px; font-family:Arial;" text-anchor="middle"><textPath startOffset="22.20632615414155" xlink:href="#id108">December</textPath></text></svg>