<?xml version="1.0" encoding="utf-8" ?>
<svg baseProfile="full" height="200mm" version="1.1" viewBox="0,0,200,200" width="200mm" xmlns="http://www.w3.org/2000/svg" xmlns:ev="http://www.w3.org/2001/xml-events" xmlns:xlink="http://www.w3.org/1999/xlink"><defs /><rect fill="#1a1a1a" height="200" width="200" x="0" y="0" /><rect fill="#1a1a1a" height="200" width="180" x="10" y="0" /><text alignment-baseline="middle" fill="#e1ed5e" style="dominant-baseline: central; font-size:9.0px; font-family:Arial;" text-anchor="middle" x="100.0" y="100.0">2025</text><line stroke="#e1ed5e" stroke-width="0.3" x1="100.0" x2="100.0" y1="15.0" y2="10.0" /><path d="M 100.0 14.0 a86.0,86.0 0 0,1 42.46469731375804,11.215312516191453" fill="none" id="id85" stroke="none" /><text fill="#e1ed5e" style="font-size:6.75px; font-family:Arial;" text-anchor="middle"><textPath startOffset="22.20632615414155" xlink:href="#id85">January</textPath></text><path d="M 100.36148047927253 79.00311137660856 l 0.24659975597208647 -14.323948062483689 a35.32607062443766,35.32607062443766 0 0,0 0.6079000479474655,0.015700264758645704 l -0.4931264391144198 14.317581005582683" fill="#ffb711" stroke="none" /><path d="M 100.72285384407766 79.0124445844662 l 0.036145487348825556 -1.04945892585369 a22.050081203197955,22.050081203197955 0 0,0 0.3792185225283152,0.016329947287421293 l -0.05420484226647235 1.0486812520420739" fill="#ff0000" stroke="none" /><path d="M 101.08401301168833 79.027996857942 l 0.5582579075534121 -10.80041149418883 a31.814829648919677,31.814829648919677 0 0,0 0.5466665689063307,0.03297642031807378 l -0.7440865252993547 10.789201804490451" fill="#ff890c" stroke="none" /><path d="M 101.44485096284872 79.0497635885617 l 0.4378044340979714 -6.348133220774843 a27.363212090699243,27.363212090699243 0 0,0 0.46961762324033385,0.036451365900892804 l -0.5470122467006464 6.339656592685485" fill="#ff4c07" stroke="none" /><path d="M 101.80526077348638 79.07773832637324 l 0.6826620124382864 -7.911783975284093 a28.941180837557376,28.941180837557376 0 0,0 0.49596208456067714,0.04709757601006104 l -0.8187492240892078 7.898860854758854" fill="#ff6209" stroke="none" /><path d="M 102.16513564639614 79.11191278185805 l 1.453229196900586 -14.019989123238538 a35.09510447334291,35.09510447334291 0 0,0 0.60034905098236,0.06745621094838754 l -1.6943449513926712 13.99289695881955" fill="#ffb410" stroke="none" /><path d="M 102.52436894288641 79.15227682838746 l 0.6529196862639287 -5.392194714993773 a26.431580613515532,26.431580613515532 0 0,0 0.4512063024858508,0.058579527770252826 l -0.7456407172576256 5.3801568640593835" fill="#ff3f05" stroke="none" /><path d="M 102.88285421437855 79.19881850522331 l 2.4063712276500215 -17.36312727868787 a38.52908472742307,38.52908472742307 0 0,0 0.656152183534239,0.09669977549355076 l -2.7048923916129164 17.319133019033348" fill="#ffdf14" stroke="none" /><path d="M 103.59715602781102 79.31037775812273 l 2.461516610830355 -14.157809232194218 a35.370199242898394,35.370199242898394 0 0,0 0.5989435913493881,0.10945311296801069 l -2.7048553232826436 14.113340637875469" fill="#ffb711" stroke="none" /><path d="M 104.307194497241 79.44645832069477 l 3.06710701573217 -14.635956635606115 a35.95387481843071,35.95387481843071 0 0,0 0.6046367850953362,0.13215018224445876 l -3.318586524981034 14.580992955265787" fill="#ffbf11" stroke="none" /><path d="M 104.66035177308747 79.52364482259891 l 3.680442119461685 -16.170890893508044 a37.584431448935746,37.584431448935746 0 0,0 0.6295863201293522,0.14900274085643792 l -3.958252126553561 16.105142240510737" fill="#ffd413" stroke="none" /><path d="M 105.01212808612495 79.60689891045804 l 3.7641314178683563 -15.315313415754678 a36.771097309755554,36.771097309755554 0 0,0 0.6133613590907314,0.15635946749257976 l -4.027201665644113 15.248250952093231" fill="#ffc912" stroke="none" /><path d="M 105.36241919743992 79.69619591428918 l 1.5147703658438705 -5.735396583246885 a26.932057250934015,26.932057250934015 0 0,0 0.4472031052832645,0.12223750186908676 l -1.6132713603508457 5.708472540551505" fill="#ff4606" stroke="none" /><path d="M 105.71112130821622 79.79150937346287 l 2.469987091932588 -8.739914335767718 a30.08223204013593,30.08223204013593 0 0,0 0.49708708526861495,0.14511335121528995 l -2.62006439492463 8.696102655633725" fill="#ff710a" stroke="none" /><path d="M 106.0581310904928 79.89281104454417 l 2.0940380900450273 -6.950199480254594 a28.25880626121752,28.25880626121752 0 0,0 0.4645406319574394,0.14433503561710354 l -2.2133640947131847 6.91312430975497" fill="#ff5808" stroke="none" /><path d="M 106.40334571778207 80.00007090966166 l 5.842779373583191 -18.249080763771488 a40.16160273909841,40.16160273909841 0 0,0 0.6565794336480221,0.21646391627707653 l -6.156041629473631 18.145803123235176" fill="#fff417" stroke="none" /><path d="M 106.74666289553966 80.11325718540242 l 2.5390540011599874 -7.484220672538099 a28.90318633818368,28.90318633818368 0 0,0 0.46977036367307723,0.16389365570264863 l -2.6675063688963383 7.439406163663242" fill="#ff6109" stroke="none" /><path d="M 107.08798089147638 80.2323363322302 l 5.09087002747192 -14.197922937463412 a36.083035946876265,36.083035946876265 0 0,0 0.5828573110935183,0.2146712666109352 l -5.3345096643380145 14.108188403046151" fill="#ffc011" stroke="none" /><path d="M 107.4271985657038 80.35727306442388 l 5.442011322765633 -14.392498254591798 a36.38699103936625,36.38699103936625 0 0,0 0.5839537407272709,0.2265649791364968 l -5.6889482284925705 14.296690571564755" fill="#ffc412" stroke="none" /><path d="M 108.09893153111575 80.62456947434976 l 2.562923727052197 -6.131395286558168 a27.64549367547023,27.64549367547023 0 0,0 0.43747840820304157,0.1873054233260755 l -2.668085893045554 6.086370335269302" fill="#ff5007" stroke="none" /><path d="M 108.43124777332544 80.76684994638697 l 7.041226061052846 -16.062267535547235 a38.53782491719952,38.53782491719952 0 0,0 0.605260179670899,0.2715625997075701 l -7.316668359190525 15.938684605323134" fill="#ffe014" stroke="none" /><path d="M 108.76106565485865 80.91482961587045 l 6.6216610939067655 -14.424675625286277 a36.87191426820617,36.87191426820617 0 0,0 0.5745377971262047,0.2697531994615323 l -6.868977102332568 14.30855744318474" fill="#ffcb12" stroke="none" /><path d="M 109.08828744355905 81.06846463323043 l 5.5293194317838354 -11.517957263903268 a33.776412364658725,33.776412364658725 0 0,0 0.5219722052207563,0.25612949420142667 l -5.726762904015024 11.421072609567009" fill="#ffa30f" stroke="none" /><path d="M 109.73455568895987 81.39251694778311 l 3.419239092262714 -6.535833323436878 a28.376199102641245,28.376199102641245 0 0,0 0.4308519830750501,0.23014620800960184 l -3.5312361218660753 6.476008388925522" fill="#ff5a08" stroke="none" /><path d="M 110.05341064243156 81.56283822128135 l 2.744187707778689 -5.032623705426369 a26.732178254027268,26.732178254027268 0 0,0 0.4020976741466475,0.22376692032069462 l -2.8304094709973717 4.984641387545495" fill="#ff4306" stroke="none" /><line stroke="#e1ed5e" stroke-width="0.3" x1="143.23703022742887" x2="145.7803849466894" y1="26.81831364943548" y2="22.513508569990506" /><path d="M 143.74570117128098 25.957352633546492 a86.0,86.0 0 0,1 28.547481713284135,27.462654790039103" fill="none" id="id86" stroke="none" /><text fill="#e1ed5e" style="font-size:6.75px; font-family:Arial;" text-anchor="middle"><textPath startOffset="19.985693538727396" xlink:href="#id86">February</textPath></text><path d="M 110.99172775467656 82.1063720568725 l 3.3150380150461216 -5.39660899382462 a27.333471849896366,27.333471849896366 0 0,0 0.3987834416181015,0.2497181545567919 l -3.4074406090364864 5.338746497944883" fill="#ff4b07" stroke="none" /><path d="M 111.2981086023043 82.29822771554956 l 12.161890721771378 -19.055138137126683 a43.605527539813984,43.605527539813984 0 0,0 0.6292339382207291,0.4092712566994603 l -12.488091685776388 18.842967956267692" fill="#e1ff1b" stroke="none" /><path d="M 111.60114157652 82.49532879139004 l 3.8540623006766053 -5.815297826154107 a27.976495181992842,27.976495181992842 0 0,0 0.39912507730871694,0.26949103385480006 l -3.953592072391864 5.748094880000638" fill="#ff5407" stroke="none" /><path d="M 111.90073688211348 82.69761687909136 l 6.7460293229771455 -9.807996349071923 a32.904020497708984,32.904020497708984 0 0,0 0.4638978977082328,0.32499012310623787 l -6.913858360269029 9.690421383201748" fill="#ff970d" stroke="none" /><path d="M 112.19680574252982 82.90503203632743 l 5.791072855151874 -8.116732120190452 a30.970850772356805,30.970850772356805 0 0,0 0.431312874518268,0.31336714621375955 l -5.929931046023931 8.015845739160019" fill="#ff7d0b" stroke="none" /><path d="M 112.48926042617603 83.11751280151076 l 2.3418852725620107 -3.1656676844926728 a24.93775043882723,24.93775043882723 0 0,0 0.3428986359916636,0.2582641435946761 l -2.396030062312057 3.1248869513921496" fill="#ff2a04" stroke="none" /><path d="M 112.77801427241765 83.33499621200491 l 8.527299328660227 -11.121248778086038 a35.01417169242083,35.01417169242083 0 0,0 0.47513804954277,0.37085278418299195 l -8.717469933362427 10.972817604679822" fill="#ffb310" stroke="none" /><path d="M 113.06298171725822 83.55741782278167 l 10.841934231628155 -13.646914496406351 a38.42945246286229,38.42945246286229 0 0,0 0.5143994515399064,0.4159419157279321 l -11.075237081732553 13.45826648341429" fill="#ffde14" stroke="none" /><path d="M 113.34407831869373 83.78471172551755 l 4.06955082930887 -4.945185292599677 a27.404381432306533,27.404381432306533 0 0,0 0.361662750869584,0.30288215298936444 l -4.154071117137572 4.874401982216494" fill="#ff4c07" stroke="none" /><path d="M 113.6212207817346 84.01681056812373 l 4.2606657188296 -4.999480471036211 a27.568719612518272,27.568719612518272 0 0,0 0.35853277569272934,0.3109160900400954 l -4.346092293169093 4.925399387576444" fill="#ff4f07" stroke="none" /><path d="M 113.89432698308785 84.25364557470407 l 3.750384585973751 -4.250287544966444 a26.668362087729257,26.668362087729257 0 0,0 0.34159506573384923,0.30668742279456684 l -3.82299063930359 4.185101113402579" fill="#ff4206" stroke="none" /><path d="M 114.16331599549186 84.49514656593476 l 9.441931906045289 -10.33626379473944 a34.99958668507172,34.99958668507172 0 0,0 0.4413149821259925,0.4101541796418679 l -9.618454771966128 10.17220502902293" fill="#ffb310" stroke="none" /><path d="M 114.94478906791727 85.2469230424477 l 13.085414407735115 -12.917554399828248 a39.38725868352006,39.38725868352006 0 0,0 0.4721514554958111,0.48659357817308435 l -13.305830126934035 12.690396626105048" fill="#ffea16" stroke="none" /><path d="M 115.19652480421416 85.50635884689758 l 7.963783497335877 -7.59543525368226 a32.00511173434048,32.00511173434048 0 0,0 0.37679568974836,0.4019393705038393 l -8.0933465090547 7.457226466300366" fill="#ff8b0c" stroke="none" /><path d="M 115.4437574822437 85.77008943001954 l 9.043303599221115 -8.332518923717476 a33.29683746342105,33.29683746342105 0 0,0 0.38474711227968317,0.4248473710029776 l -9.185394352116834 8.175618765444948" fill="#ff9c0e" stroke="none" /><path d="M 115.68641384162765 86.03803664274999 l 9.019102089632607 -8.027607467334375 a33.07421567443691,33.07421567443691 0 0,0 0.37485392553795477,0.4285228369429958 l -9.15594787874841 7.871169074188432" fill="#ff990e" stroke="none" /><path d="M 115.9244219780498 86.31012108654704 l 5.066241168603049 -4.355337244901364 a27.68100008196927,27.68100008196927 0 0,0 0.30750873938979373,0.3639933541881801 l -5.14046052147996 4.267484941084077" fill="#ff5007" stroke="none" /><path d="M 116.38621287248628 86.86637796730983 l 4.706494632421073 -3.7722762472403106 a27.031679684010236,27.031679684010236 0 0,0 0.2878821360009492,0.3655810778325731 l -4.770730849015986 3.690702775454699" fill="#ff4706" stroke="none" /><path d="M 116.60985879189232 87.15038557335679 l 7.230982734806353 -5.593987356071319 a30.142199180227554,30.142199180227554 0 0,0 0.3139440083463223,0.41311351488074854 l -7.326202683376788 5.468689065309537" fill="#ff720a" stroke="none" /><path d="M 116.82858285166822 87.43820079747576 l 21.94058607532692 -16.377685458917586 a48.37915079618194,48.37915079618194 0 0,0 0.49240158571358283,0.6716352095412949 l -22.21925027355413 15.997587805704796" fill="#aaff21" stroke="none" /><path d="M 117.04232023915458 87.72973835380427 l 5.625575070947438 -4.050345085773688 a27.931983135634155,27.931983135634155 0 0,0 0.2775739230598865,0.39260862927706985 l -5.694461613811208 3.9529099561648247" fill="#ff5407" stroke="none" /><path d="M 117.45458315368197 88.32363383020206 l 10.454815787617342 -6.993822556470132 a33.578423077015785,33.578423077015785 0 0,0 0.31724152942166817,0.48318061399949425 l -10.573653952396935 6.8128238784929644" fill="#ffa00e" stroke="none" /><line stroke="#e1ed5e" stroke-width="0.3" x1="172.23445277983987" x2="176.4835382374775" y1="55.19839476539836" y2="52.563006222186495" /><path d="M 173.08426987136738 54.67131705675599 a86.0,86.0 0 0,1 12.851231095245387,41.99856678651699" fill="none" id="id87" stroke="none" /><text fill="#e1ed5e" style="font-size:6.75px; font-family:Arial;" text-anchor="middle"><textPath startOffset="22.20632615414155" xlink:href="#id87">March</textPath></text><path d="M 117.84615892207809 88.93136811851018 l 2.7607055629657946 -1.7122582928389203 a24.248587949676896,24.248587949676896 0 0,0 0.2169488852195873,0.356606924432507 l -2.7897702464716057 1.664483595199332" fill="#ff2003" stroke="none" /><path d="M 118.03404312379186 89.2402003453031 l 8.026717966499163 -4.789046838329157 a30.346826784178198,30.346826784178198 0 0,0 0.2637866495226895,0.45089689173303954 l -8.107964290492179 4.650170534242222" fill="#ff750a" stroke="none" /><path d="M 118.21658344932153 89.55222093294921 l 8.971480203014764 -5.145423856579937 a31.342284259144485,31.342284259144485 0 0,0 0.2643831505213287,0.47030812411274137 l -9.058720994828525 4.990232222532402" fill="#ff820c" stroke="none" /><path d="M 118.3937258080291 89.86733742301442 l 11.841416020571414 -6.523152199963018 a34.51926950674953,34.51926950674953 0 0,0 0.2822228092954244,0.5229160034080478 l -11.951946929085302 6.318355213222511" fill="#ffac0f" stroke="none" /><path d="M 118.56541770881063 90.18545643968196 l 7.907622519378401 -4.180337167321575 a29.944591256254842,29.944591256254842 0 0,0 0.2369765997459817,0.4577633625724844 l -7.978408552284499 4.043601082488745" fill="#ff6f0a" stroke="none" /><path d="M 118.73160827565052 90.50648371742162 l 7.546878955041165 -3.8248941141624067 a29.460803563881946,29.460803563881946 0 0,0 0.2253611001373421,0.45431422615614925 l -7.611600068131915 3.6944202995073074" fill="#ff6909" stroke="none" /><path d="M 119.04729006885535 91.15688171328212 l 1.5877283524720343 -0.7371373868581853 a22.750500742172843,22.750500742172843 0 0,0 0.16185105232401323,0.35661733962598174 l -1.6001817217593943 0.7096980383901408" fill="#ff0a01" stroke="none" /><path d="M 119.34039704204932 91.81776055985345 l 12.055792448222578 -5.100380319886924 a34.09030217229955,34.09030217229955 0 0,0 0.2239867803463663,0.5424017550807753 l -12.141800915455141 4.892103994352846" fill="#ffa70f" stroke="none" /><path d="M 119.47837535516314 92.15188598940014 l 6.044589540569384 -2.4354509550558254 a27.516784795314567,27.516784795314567 0 0,0 0.17323316364084473,0.4408595060215303 l -6.08561625409193 2.331042444138511" fill="#ff4e07" stroke="none" /><path d="M 119.61058180528143 92.48833698450437 l 12.59945300400358 -4.826111029513683 a34.49212969361355,34.49212969361355 0 0,0 0.2076022345752188,0.5562707753243058 l -12.680659827080424 4.608517117160044" fill="#ffac0f" stroke="none" /><path d="M 119.7369772167798 92.82701384747503 l 9.327985138575277 -3.3900585431630654 a30.924908244994214,30.924908244994214 0 0,0 0.1775191626273034,0.5018705777349136 l -9.38495738201239 3.2289903390015375" fill="#ff7d0b" stroke="none" /><path d="M 119.97218684219823 93.5106431181261 l 21.34414374035863 -6.935132700468816 a43.44256085169877,43.44256085169877 0 0,0 0.22495906017563086,0.7131816963634909 l -21.460358284302465 6.566700837678905" fill="#e3ff1b" stroke="none" /><path d="M 120.18372546131832 94.20196356495316 l 12.833587635368845 -3.6866141904694305 a34.352606329255075,34.352606329255075 0 0,0 0.1583707980094085,0.5697440229799101 l -12.895145203944617 3.465158864070568" fill="#ffaa0f" stroke="none" /><path d="M 120.28053869075195 94.5502522615342 l 9.285921995696418 -2.4952952762883447 a30.615344290561076,30.615344290561076 0 0,0 0.13238026488745389,0.510115161919996 l -9.327498592454175 2.3350836888194983" fill="#ff790b" stroke="none" /><path d="M 120.37134235888165 94.90015583598534 l 14.44407503205923 -3.615988110116907 a35.88981778076091,35.88981778076091 0 0,0 0.1448704453535502,0.6005815238672486 l -14.5041782776736 3.366821354590252" fill="#ffbe11" stroke="none" /><path d="M 120.45610955862082 95.25157060432595 l 3.2588213157018453 -0.7564626541710372 a24.345467398560057,24.345467398560057 0 0,0 0.09124404453931327,0.4090291605105542 l -3.271359747243196 0.7002553241105192" fill="#ff2103" stroke="none" /><path d="M 120.53481517161879 95.60439243477599 l 5.989220280343438 -1.2820306272079967 a27.124896904893703,27.124896904893703 0 0,0 0.09380138626030962,0.4574088722895516 l -6.0104009625187444 1.1787460987550333" fill="#ff4906" stroke="none" /><path d="M 120.6074358757038 95.95851677861258 l 2.066461076320097 -0.4052696229638348 a23.105826404821457,23.105826404821457 0 0,0 0.0731841579419599,0.3909526980941639 l -2.073130958171916 0.3696388474071081" fill="#ff0f01" stroke="none" /><path d="M 120.67395015179393 96.31383870115 l 16.48699461651792 -2.9396279396795886 a37.747011790431024,37.747011790431024 0 0,0 0.10854627500944394,0.6406462595580593 l -16.535152753047587 2.6553958918056915" fill="#ffd614" stroke="none" /><path d="M 120.73433829027371 96.67025291283417 l 11.471795594986688 -1.842266554746391 a32.618779636084554,32.618779636084554 0 0,0 0.08425602659332215,0.5551419426011284 l -11.50180751501931 1.6445254997531804" fill="#ff930d" stroke="none" /><path d="M 120.78858239683441 97.02765380044208 l 5.498082448009888 -0.7861144236408716 a26.553997343550915,26.553997343550915 0 0,0 0.060801068251691306,0.45303858062180574 l -5.510799515319415 0.6913575009544015" fill="#ff4106" stroke="none" /><path d="M 120.83666639777658 97.38593545837742 l 7.725846914010365 -0.9692463317488131 a28.78640796454514,28.78640796454514 0 0,0 0.05744896171851255,0.49218762051453635 l -7.741386228732466 0.836114972909424" fill="#ff6008" stroke="none" /><path d="M 120.87857604477298 97.74499172005257 l 4.692833029548644 -0.5068534039557885 a25.720125233118743,25.720125233118743 0 0,0 0.04375222862571618,0.4405789714142434 l -4.700862383856588 0.4259989018371101" fill="#ff3505" stroke="none" /><path d="M 120.91429891909075 98.10471618934814 l 9.94929690943026 -0.901619577723411 a30.99006640893506,30.99006640893506 0 0,0 0.04357131939009259,0.5316804586641105 l -9.963342712639847 0.7302252018515316" fill="#ff7e0b" stroke="none" /><path d="M 120.96714384426684 98.82574320788733 l 2.28332679760636 -0.1278768353294468 a23.286904840539105,23.286904840539105 0 0,0 0.018969281772930915,0.4004115570974179 l -2.285189687612787 0.08855417160902916" fill="#ff1202" stroke="none" /><path d="M 120.98425023603335 99.18683210126433 l 17.814839970999433 -0.6903489913904197 a38.828210928812595,38.828210928812595 0 0,0 0.020132067825408245,0.6680853205075664 l -17.82408373328049 0.38359352345785425" fill="#ffe315" stroke="none" /><line stroke="#e1ed5e" stroke-width="0.3" x1="184.98032266829074" x2="189.97916517819016" y1="98.17113171792111" y2="98.06355123074" /><path d="M 185.9800911702706 98.14961562048488 a86.0,86.0 0 0,1 -9.607161424134198,41.387399972396054" fill="none" id="id88" stroke="none" /><text fill="#e1ed5e" style="font-size:6.75px; font-family:Arial;" text-anchor="middle"><textPath startOffset="21.466115282336823" xlink:href="#id88">April</textPath></text><path d="M 120.99513854157772 99.54816195383933 l 10.833188532508307 -0.23314191190142397 a31.8356969749045,31.8356969749045 0 0,0 0.007075093865925898,0.5479738169429613 l -10.83559663349195 0.046631836897999906" fill="#ff890c" stroke="none" /><path d="M 120.99980553446 99.90962569577887 l 9.700572082909774 -0.041747170044088365 a30.700661913598225,30.700661913598225 0 0,0 -0.0022743382358588744,0.5284761092685184 l -9.699853447384413 -0.1252384174281147" fill="#ff7a0b" stroke="none" /><path d="M 120.99824983174949 100.27111621757518 l 9.115867696880184 0.11769836008699672 a30.11662748887936,30.11662748887936 0 0,0 -0.011154535273689762,0.5183074232636372 l -9.112491098921485 -0.2745955991407487" fill="#ff720a" stroke="none" /><path d="M 120.95626037817324 101.35467743843564 l 7.7783185487523925 0.5028145507265761 a28.79455334950553,28.79455334950553 0 0,0 -0.03623100910558374,0.4943433335749356 l -7.76851098098247 -0.6366310207982819" fill="#ff6008" stroke="none" /><path d="M 120.92983693683757 101.71520430193887 l 10.817964276753704 0.8865343252173744 a31.854229323305635,31.854229323305635 0 0,0 -0.04948843295026055,0.5461007338015191 l -10.801101247526368 -1.072616447567464" fill="#ff890c" stroke="none" /><path d="M 120.89721153311464 102.0752229133903 l 10.323384548108928 1.0251762118609302 a31.374162847839806,31.374162847839806 0 0,0 -0.057993942575445,0.5369518821571025 l -10.304208304032432 -1.202724415902824" fill="#ff830c" stroke="none" /><path d="M 120.8583938346157 102.4346265915055 l 6.287688259897036 0.7339094830608449 a27.33037493225904,27.33037493225904 0 0,0 -0.058563124936639635,0.46680572651762664 l -6.274123625713548 -0.8420329638658665" fill="#ff4b07" stroke="none" /><path d="M 120.81339534386255 102.79330883721812 l 8.262227050614495 1.1088508844564633 a29.336302904757346,29.336302904757346 0 0,0 -0.0714771322755402,0.49991089665817556 l -8.241915867322353 -1.250907253095048" fill="#ff6709" stroke="none" /><path d="M 120.64145759157962 103.86396538481128 l 9.936397596080017 1.860038041918 a31.108992961950605,31.108992961950605 0 0,0 -0.10305974882964271,0.5254994389519948 l -9.90290791427471 -2.0308012079379396" fill="#ff7f0b" stroke="none" /><path d="M 120.5718875245553 104.21870165774334 l 13.454255497684896 2.759080317935612 a34.734246073148825,34.734246073148825 0 0,0 -0.1251523865860259,0.5846702847550622 l -13.404769072374426 -2.990264422106843" fill="#ffaf10" stroke="none" /><path d="M 120.49622156327973 104.57218783832717 l 10.535913504150217 2.3502954161876386 a31.794876650999193,31.794876650999193 0 0,0 -0.12375691541716922,0.5331415525977671 l -10.493896022802495 -2.5313056261339706" fill="#ff880c" stroke="none" /><path d="M 120.41448212921028 104.9243191809786 l 11.555609369438102 2.7874088848131535 a32.887041523868795,32.887041523868795 0 0,0 -0.13748143581448574,0.5491699955715537 l -11.505916619328556 -2.985906719782103" fill="#ff970d" stroke="none" /><path d="M 120.32669344350535 105.2749913415812 l 5.175573182635497 1.343115829537204 a26.347010183305166,26.347010183305166 0 0,0 -0.11769827180660201,0.43799905422419017 l -5.151686834487118 -1.4320058169369427" fill="#ff3e05" stroke="none" /><path d="M 120.23288151984713 105.62410040840565 l 2.182314809941819 0.6066144163313538 a23.26505606548545,23.26505606548545 0 0,0 -0.11057256659967436,0.38491761009141434 l -2.1715496064560447 -0.6440895019273501" fill="#ff1202" stroke="none" /><path d="M 120.13307415673323 105.97154293290107 l 1.2789972997140635 0.3793552453465131 a22.334070648372034,22.334070648372034 0 0,0 -0.11249270169306474,0.3676326579170953 l -1.2722778255148661 -0.40131487581566555" fill="#ff0400" stroke="none" /><path d="M 120.02730092923936 106.31721596034902 l 19.6724032626637 6.205270510909592 a41.62786543107225,41.62786543107225 0 0,0 -0.22143595915731756,0.6815098060370929 l -19.562675052490135 -6.54297921692448" fill="#f9ff18" stroke="none" /><path d="M 119.9155931802556 106.66101706037122 l 5.8822283247738465 1.9673841933647374 a27.202516475518074,27.202516475518074 0 0,0 -0.15234596947327406,0.44278869885691025 l -5.847491524357342 -2.068345595310948" fill="#ff4a06" stroke="none" /><path d="M 119.79798401119884 107.00284435728193 l 5.8119783408105095 2.0557840487984658 a27.164847142415187,27.164847142415187 0 0,0 -0.15972378931379858,0.43949126955367923 l -5.7757302904914845 -2.1555231153582763" fill="#ff4906" stroke="none" /><path d="M 119.67450827220406 107.3425965602758 l 8.515011548690481 3.177832637192474 a30.088676578266934,30.088676578266934 0 0,0 -0.18526847623956125,0.4836775294286894 l -8.459048792857413 -3.323933733454307" fill="#ff710a" stroke="none" /><path d="M 119.54520255179757 107.68017299344265 l 9.871028633658042 3.878762951103172 a31.605753547831835,31.605753547831835 0 0,0 -0.20332641327320117,0.5046394830662978 l -9.802799606127449 -4.048101802012283" fill="#ff860c" stroke="none" /><path d="M 119.26925614724726 108.34839909993367 l 12.093945892106975 5.239698212986591 a34.180211098627595,34.180211098627595 0 0,0 -0.23854355534623656,0.5378527436463137 l -12.001961252029465 -5.447099293125592" fill="#ffa80f" stroke="none" /><path d="M 119.12269723197855 108.67885076344098 l 9.436648766131016 4.2828302594940375 a31.363058186025967,31.363058186025967 0 0,0 -0.22734540711630793,0.48968178133163404 l -9.361528742174876 -4.444632108104503" fill="#ff830c" stroke="none" /><path d="M 118.97047184881838 109.00673069616215 l 5.992023712329844 2.844870930573837 a27.633071594724964,27.633071594724964 0 0,0 -0.2077043029028466,0.42793238396222844 l -5.942166152812283 -2.9475922705013406" fill="#ff5007" stroke="none" /><path d="M 118.64920377521936 109.65438752849418 l 11.101554857817744 5.747093230255026 a33.500943998689856,33.500943998689856 0 0,0 -0.2695190695560463,0.5098285086867408 l -11.000983280036804 -5.937336754027902" fill="#ff9f0e" stroke="none" /><line stroke="#e1ed5e" stroke-width="0.3" x1="174.80103733775053" x2="179.2010983576182" y1="140.37084112569926" y2="142.7455964860345" /><path d="M 175.68104954172406 140.8457921977663 a86.0,86.0 0 0,1 -30.038265399797805,32.042727171017184" fill="none" id="id89" stroke="none" /><text fill="#e1ed5e" style="font-size:6.75px; font-family:Arial;" text-anchor="middle"><textPath startOffset="22.206326154141568" xlink:href="#id89">May</textPath></text><path d="M 118.48025628344425 109.97397251340804 l 15.839257638639612 8.548600078782915 a38.99890679597432,38.99890679597432 0 0,0 -0.3239204452771317,0.588009697231508 l -15.689760783910971 -8.819980294412227" fill="#ffe515" stroke="none" /><path d="M 117.94076556474637 110.91462005526583 l 9.247999964020194 5.626203938405871 a31.824956078019497,31.824956078019497 0 0,0 -0.28875140351793804,0.46555920291936315 l -9.149783920834293 -5.784559472690508" fill="#ff890c" stroke="none" /><path d="M 117.75023020441432 111.22182372390056 l 6.826322170667139 4.315650174651262 a29.076107404418863,29.076107404418863 0 0,0 -0.27109335341484525,0.4207429046936571 l -6.751023953875244 -4.432514679266372" fill="#ff6409" stroke="none" /><path d="M 117.55443506779139 111.5257021239791 l 9.287674749075872 6.09800156876931 a32.110649187933824,32.110649187933824 0 0,0 -0.3073400366676405,0.4594316543743523 l -9.181331606997512 -6.2569701373494695" fill="#ff8d0d" stroke="none" /><path d="M 117.35343817320211 111.8261652097733 l 6.825917560361535 4.651783005271323 a29.260280604736323,29.260280604736323 0 0,0 -0.2872232238115089,0.4137664760207681 l -6.74483342938789 -4.768590743479111" fill="#ff6609" stroke="none" /><path d="M 117.14729908036423 112.12312394758627 l 5.214637976284087 3.6867440307654316 a27.38627675348389,27.38627675348389 0 0,0 -0.2754540505680986,0.3825815843470033 l -5.150404133340386 -3.7759592205635664" fill="#ff4c07" stroke="none" /><path d="M 116.93607887273984 112.41649034213515 l 8.330687939473165 6.107547509731014 a31.32969012741937,31.32969012741937 0 0,0 -0.32260440514230687,0.43218131994655046 l -8.224322267635767 -6.250041709186879" fill="#ff820c" stroke="none" /><path d="M 116.498646956653 112.99209946851258 l 7.789670482465249 6.134089298414543 a30.914939119647393,30.914939119647393 0 0,0 -0.33282447546985516,0.4152497072512114 l -7.68292809494054 -6.267266839244005" fill="#ff7d0b" stroke="none" /><path d="M 116.27256486870786 113.27417163493432 l 4.228187900197837 3.4490992873476483 a26.456542752820823,26.456542752820823 0 0,0 -0.2909010262197054,0.35040902582787475 l -4.168190874084588 -3.5213695702892935" fill="#ff3f05" stroke="none" /><path d="M 116.0416608686014 113.55231037782055 l 9.0836463341417 7.6740429492306745 a32.89132313539595,32.89132313539595 0 0,0 -0.36909936509447594,0.4293459481090612 l -8.950204459476446 -7.829265996501263" fill="#ff970d" stroke="none" /><path d="M 115.80600337817218 113.82643327865902 l 1.8757279899490564 1.6408087029615035 a23.49210928572415,23.49210928572415 0 0,0 -0.2688628842818046,0.30207030068647445 l -1.8472062560189135 -1.6728531733888445" fill="#ff1502" stroke="none" /><path d="M 115.56566222782051 114.09645910891815 l 3.826469550170428 3.465298858219568 a26.16237981895553,26.16237981895553 0 0,0 -0.30516994819206616,0.3312017069657242 l -3.7662531939826396 -3.5306518199866272" fill="#ff3b05" stroke="none" /><path d="M 115.32070863581623 114.36230785411682 l 2.5148437695275243 2.3575254436027997 a24.447080707260273,24.447080707260273 0 0,0 -0.2904469749700547,0.30453249206439886 l -2.473890243178505 -2.4004650522497055" fill="#ff2303" stroke="none" /><path d="M 115.07121518719521 114.62390073753431 l 8.593051319472158 8.338009109926693 a32.97342586298102,32.97342586298102 0 0,0 -0.3987576486638236,0.40393939282265107 l -8.448253045752798 -8.484688996730009" fill="#ff980e" stroke="none" /><path d="M 114.81725581225074 114.88116024355365 l 13.180775349017425 13.237621904377157 a39.68067109299105,39.68067109299105 0 0,0 -0.4881668222206992,0.47777398103933616 l -12.950958574420932 -13.462545988339066" fill="#ffee16" stroke="none" /><path d="M 114.29624159901734 115.38237550388516 l 2.469055940381939 2.6566384844576105 a24.626839571008976,24.626839571008976 0 0,0 -0.3129959322242647,0.28591436302494094 l -2.4229604586908104 -2.6987456140691344" fill="#ff2503" stroke="none" /><path d="M 114.0293411484842 115.62618273729858 l 6.2469438517572815 6.957980787839776 a30.350818366910755,30.350818366910755 0 0,0 -0.3917534006616358,0.3456768276970298 l -6.126248098189057 -7.064480757309094" fill="#ff750a" stroke="none" /><path d="M 113.75828350139079 115.86535959552629 l 3.596814380213685 4.147665189097287 a26.49000912627305,26.49000912627305 0 0,0 -0.3470626684012764,0.2957743353753608 l -3.524886235235362 -4.208963914695595" fill="#ff4006" stroke="none" /><path d="M 113.48314897796784 116.09983520530334 l 3.3104556717060882 3.9529186287284324 a26.156033595670152,26.156033595670152 0 0,0 -0.34766334739715,0.28610326610766956 l -3.241922195764247 -4.0093170136932805" fill="#ff3b05" stroke="none" /><path d="M 112.92097659922987 116.55440617244103 l 10.832011891322624 13.878016350896702 a38.60488055766102,38.60488055766102 0 0,0 -0.5273633891396676,0.4043597588637538 l -10.591519773689463 -14.062415451587826" fill="#ffe015" stroke="none" /><path d="M 112.63410532772338 116.77436683061366 l 2.46286984908512 3.269965006066354 a25.093702362706782,25.093702362706782 0 0,0 -0.3472670025926559,0.2568998265365386 l -2.4062178760739 -3.3118747813426617" fill="#ff2c04" stroke="none" /><path d="M 112.34349029814194 116.9893568818739 l 3.2793687983993425 4.51366392467413 a26.579195438485716,26.579195438485716 0 0,0 -0.37245385072904424,0.2657359332320966 l -3.2011876198214133 -4.569444119750446" fill="#ff4106" stroke="none" /><path d="M 112.04921762599082 117.19931262002967 l 3.1068808268750696 4.434828573378555 a26.414832679562572,26.414832679562572 0 0,0 -0.37464171702124704,0.25768198913277635 l -3.0300822252309394 -4.487651351876425" fill="#ff3f05" stroke="none" /><path d="M 111.7513745106137 117.40417183066458 l 3.309062514554663 4.900830328376003 a26.91337743026444,26.91337743026444 0 0,0 -0.38617531248092773,0.25593593961619315 l -3.2242125033337707 -4.957064289083514" fill="#ff4606" stroke="none" /><path d="M 111.1453310114006 117.79835938074945 l 6.224995566606987 9.940907822720645 a32.72911838733437,32.72911838733437 0 0,0 -0.48005948719890085,0.2948917461630027 l -6.0529568794757775 -10.046588035712025" fill="#ff950d" stroke="none" /><line stroke="#e1ed5e" stroke-width="0.3" x1="143.8653032363475" x2="146.44561519142675" y1="172.8068346515853" y2="177.08958963109032" /><path d="M 144.38136562736335 173.6633856474863 a86.0,86.0 0 0,1 -40.68145358897372,12.25698825130547" fill="none" id="id90" stroke="none" /><text fill="#e1ed5e" style="font-size:6.75px; font-family:Arial;" text-anchor="middle"><textPath startOffset="21.466115282336833" xlink:href="#id90">June</textPath></text><path d="M 110.5260780823613 118.17145234162733 l 1.5590657616041714 2.6914572514835267 a24.110406434144846,24.110406434144846 0 0,0 -0.3609112377430708,0.20493481999522267 l -1.5125057569399014 -2.717895237273378" fill="#ff1e03" stroke="none" /><path d="M 110.21172684928248 118.3499491758327 l 4.561548892409335 8.196869302733901 a30.380639352621024,30.380639352621024 0 0,0 -0.45914866149369227,0.25036445930886014 l -4.419777419046994 -8.274174413802532" fill="#ff750a" stroke="none" /><path d="M 109.89434966115114 118.52300852407294 l 4.910448893580566 9.192750390654291 a31.422052009145858,31.422052009145858 0 0,0 -0.4792747199911917,0.25073388157723336 l -4.751483271062878 -9.27591369117624" fill="#ff830c" stroke="none" /><path d="M 109.57404056367764 118.69057910512821 l 2.687463472099945 5.246504679329645 a26.894766429986802,26.894766429986802 0 0,0 -0.4138542226492909,0.20751509870908488 l -2.5967553417678935 -5.291987618948032" fill="#ff4506" stroke="none" /><path d="M 108.92500713936063 119.00905698771935 l 7.119837286023575 15.164289574227368 a37.75254491921966,37.75254491921966 0 0,0 -0.5906152022472267,0.27112247150533203 l -6.857754088008929 -15.284599116066774" fill="#ffd614" stroke="none" /><path d="M 108.59647513512805 119.15986991738527 l 1.8767607715227004 4.182934479911219 a25.58466703881063,25.58466703881063 0 0,0 -0.403359728681687,0.17682105140430598 l -1.8044803681832595 -4.2146200846099795" fill="#ff3304" stroke="none" /><path d="M 108.2653958097858 119.30500536409082 l 2.070349632500891 4.8355954972722515 a26.26016458050851,26.26016458050851 0 0,0 -0.4170721126615938,0.17433617691809608 l -1.9868060603418363 -4.870516717210321" fill="#ff3c05" stroke="none" /><path d="M 107.93186726928326 119.44442032107085 l 4.854708187514716 11.900979092242176 a33.853073365538215,33.853073365538215 0 0,0 -0.5414539930806063,0.21545571818366874 l -4.6491331183922435 -11.982781654831914" fill="#ffa40f" stroke="none" /><path d="M 107.59598834532513 119.57807347666477 l 2.2246324837492977 5.733818463824247 a27.15025721932379,27.15025721932379 0 0,0 -0.4371576418986528,0.16529561407360116 l -2.12560462109037 -5.771262328004479" fill="#ff4906" stroke="none" /><path d="M 107.2578585660854 119.70592522655815 l 3.4118287239308875 9.263509492148765 a30.871837891323487,30.871837891323487 0 0,0 -0.5002420267536741,0.1793689930350529 l -3.2518671365474785 -9.32086602622378" fill="#ff7c0b" stroke="none" /><path d="M 106.91757812671514 119.82793768551818 l 3.4082935190229877 9.769232854509715 a31.346708427197807,31.346708427197807 0 0,0 -0.5109965270200716,0.17335776606238995 l -3.2396272590656894 -9.826453607470228" fill="#ff820c" stroke="none" /><path d="M 106.57524785965236 119.94407469862006 l 1.9865161860373344 6.025510832445045 a27.344527354287386,27.344527354287386 0 0,0 -0.4482922426980023,0.14352901950947067 l -1.8825025982483916 -6.058812698614222" fill="#ff4c07" stroke="none" /><path d="M 106.2309692047433 120.05430185196036 l 1.9803911872797322 6.373865982909482 a27.674437566023514,27.674437566023514 0 0,0 -0.45613406713770044,0.13742945270378115 l -1.870382145701786 -6.407010804718989" fill="#ff5007" stroke="none" /><path d="M 105.88484417918355 120.15858648285463 l 1.5369770865590915 5.264928786247988 a26.484685377382224,26.484685377382224 0 0,0 -0.43872364596890395,0.12398768464286318 l -1.4461222724855818 -5.29060526422937" fill="#ff4006" stroke="none" /><path d="M 105.53697534728816 120.25689768951611 l 3.359821993001807 12.29183192960345 a33.742744445772956,33.742744445772956 0 0,0 -0.5615910318841386,0.14832129574206132 l -3.147740518306171 -12.347844574649097" fill="#ffa20f" stroke="none" /><path d="M 105.18746579009965 120.34920634021253 l 2.3487219155306005 9.21348281199812 a30.508141782886838,30.508141782886838 0 0,0 -0.5099896648319437,0.12534305162879253 l -2.189778965955446 -9.25254712194094" fill="#ff770b" stroke="none" /><path d="M 104.83641907484287 120.43548508189849 l 2.841686141409996 12.007072557521992 a33.3387589135974,33.3387589135974 0 0,0 -0.5595828933948667,0.12735924469118443 l -2.634583098622267 -12.054208535790861" fill="#ff9d0e" stroke="none" /><path d="M 104.48393922423573 120.51570834832081 l 1.8359812961338517 8.400304937423465 a29.59860165151604,29.59860165151604 0 0,0 -0.49867799971699467,0.10450282339606835 l -1.691111834987479 -8.430663741546075" fill="#ff6b09" stroke="none" /><path d="M 104.13013068566511 120.58985236759428 l 4.245338002896533 21.16419294758967 a42.58578138223497,42.58578138223497 0 0,0 -0.7199681690220372,0.13798361313175775 l -3.8804022193027916 -21.234133759069895" fill="#edff1a" stroke="none" /><path d="M 103.7750983002368 120.6578951692458 l 0.3157728605391716 1.7279557064519047 a22.756571496669803,22.756571496669803 0 0,0 -0.38594173068137055,0.06710091690772134 l -0.2859821583857511 -1.7331352018806323" fill="#ff0a01" stroke="none" /><path d="M 103.41894727170886 120.7198165907248 l 2.087776893616687 12.652536257591798 a33.823629989484054,33.823629989484054 0 0,0 -0.5752660759437682,0.08984473011802932 l -1.8696749540644015 -12.686599295056933" fill="#ffa30f" stroke="none" /><path d="M 103.06178313531738 120.77559828337769 l 0.7984278298504061 5.417697831012979 a26.476215553431253,26.476215553431253 0 0,0 -0.4514464668218229,0.06256636671193046 l -0.7050527718417527 -5.4306387632175115" fill="#ff3f06" stroke="none" /><path d="M 102.70371172650421 120.8252237178851 l 1.2937735071667662 9.965235000055685 a31.048868518105976,31.048868518105976 0 0,0 -0.5305994026872173,0.06424819833954248 l -1.1220466814281687 -9.986028727120578" fill="#ff7e0b" stroke="none" /><path d="M 102.34483914955558 120.86867818915974 l 0.9115227566676829 8.112400833378649 a29.163450313275977,29.163450313275977 0 0,0 -0.49934410015076985,0.05175905767547172 l -0.7717460599113104 -8.126889259509879" fill="#ff6509" stroke="none" /><path d="M 101.62511606390274 120.93702456842531 l 0.9991334462468913 12.872238467060448 a33.91095623090249,33.91095623090249 0 0,0 -0.5823596968790098,0.04016293430944475 l -0.7774109885889512 -12.887529745886178" fill="#ffa40f" stroke="none" /><path d="M 101.26447882468166 120.96189622390904 l 1.2263544528300283 20.32988949453033 a41.36684443166861,41.36684443166861 0 0,0 -0.7111392577102753,0.03675777670156518 l -0.8762271267062733 -20.347987077994098" fill="#fcff18" stroke="none" /><path d="M 100.90346689309514 120.98055641714683 l 0.11968131505638666 2.7792723804373183 a23.781848051536127,23.781848051536127 0 0,0 -0.40913798574218224,0.014091539481203466 l -0.07182297763955212 -2.7809207183446154" fill="#ff1902" stroke="none" /><line stroke="#e1ed5e" stroke-width="0.3" x1="102.19456741930631" x2="102.32365962044197" y1="184.97166512339345" y2="189.96999836594603" /><path d="M 102.22038585953345 185.97133177190398 a86.0,86.0 0 0,1 -42.740103519485714,-10.115201625700543" fill="none" id="id91" stroke="none" /><text fill="#e1ed5e" style="font-size:6.75px; font-family:Arial;" text-anchor="middle"><textPath startOffset="22.20632615414155" xlink:href="#id91">July</textPath></text><path d="M 100.54218724476979 120.99299961872073 l 0.23243085533972188 8.99951244629049 a30.002513447557376,30.002513447557376 0 0,0 -0.5163865602135495,0.008890062933797314 l -0.0774846052335045 -9.002179986503448" fill="#ff700a" stroke="none" /><path d="M 100.18074693466247 120.99922214144158 l 0.08985573061472052 10.43946029504598 a31.43984699620477,31.43984699620477 0 0,0 -0.5412053305543447,0.0 l 0.08985573061471332 -10.43946029504598" fill="#ff840c" stroke="none" /><path d="M 99.81925306533755 120.99922214144158 l -0.1010418900367175 11.739070974756434 a32.73950581642648,32.73950581642648 0 0,0 -0.5634941492880947,-0.00970106280056182 l 0.3030957292174801 -11.735592434676711" fill="#ff950d" stroke="none" /><path d="M 99.45781275523022 120.99299961872073 l -0.08914179009733954 3.4514894689566775 a24.452640411780614,24.452640411780614 0 0,0 -0.4206781585045006,-0.014489006364668156 l 0.14854030027648316 -3.4494436641659156" fill="#ff2303" stroke="none" /><path d="M 99.09653310690486 120.98055641714683 l -0.8280133465355424 19.228353428231447 a40.246173169308776,40.246173169308776 0 0,0 -0.691873748324637,-0.035761969924818435 l 1.1588751632736682 -19.211251651544426" fill="#fff517" stroke="none" /><path d="M 98.73552117531835 120.96189622390904 l -0.2012417611441334 3.3360850578751777 a24.342149272520068,24.342149272520068 0 0,0 -0.4180326433499435,-0.028829978592346615 l 0.25863716527300695 -3.3321267347665455" fill="#ff2103" stroke="none" /><path d="M 98.37488393609728 120.93702456842531 l -0.8081708128118684 10.411989973621505 a31.443307678770925,31.443307678770925 0 0,0 -0.5392612347385888,-0.04652972842618337 l 0.9872763652919989 -10.39653599291666" fill="#ff840c" stroke="none" /><path d="M 98.01472825383883 120.90594882070398 l -1.205159074698328 12.690954769879008 a33.748048531694664,33.748048531694664 0 0,0 -0.5778427704842795,-0.059895765817233174 l 1.4234344417882008 -12.668329635606014" fill="#ffa20f" stroke="none" /><path d="M 97.65516085044442 120.86867818915974 l -0.6427465627277187 5.72033743862369 a26.756334211598396,26.756334211598396 0 0,0 -0.4572435527721233,-0.0553658264958512 l 0.7411175385512313 -5.7084260834024905" fill="#ff4306" stroke="none" /><path d="M 97.2962882734958 120.8252237178851 l -0.7235237499481695 5.5729106805907875 a26.619681491915884,26.619681491915884 0 0,0 -0.45389270733181714,-0.06290539335641852 l 0.8193450484668177 -5.5596307217417635" fill="#ff4206" stroke="none" /><path d="M 96.93821686468263 120.77559828337769 l -1.735591611704755 11.776782520242252 a32.90398608751301,32.90398608751301 0 0,0 -0.5596249416563787,-0.08740190661851231 l 1.938052416969651 -11.745162306276633" fill="#ff970d" stroke="none" /><path d="M 96.58105272829116 120.7198165907248 l -0.6540905398744672 3.9639792435737973 a25.01758209347826,25.01758209347826 0 0,0 -0.42428750447022423,-0.07376782119979028 l 0.7222270158167414 -3.9521328438530006" fill="#ff2b04" stroke="none" /><path d="M 96.22490169976321 120.6578951692458 l -3.6948661144979456 20.218852805212887 a41.55368688004491,41.55368688004491 0 0,0 -0.7025192655411049,-0.13463948925089322 l 4.042352994610746 -20.152256117613526" fill="#f9ff18" stroke="none" /><path d="M 95.51606077576429 120.51570834832081 l -2.451869478551397 11.21822500586721 a32.48304124446639,32.48304124446639 0 0,0 -0.5452198821483331,-0.12409027009341987 l 2.644609510092593 -11.174358002196103" fill="#ff920d" stroke="none" /><path d="M 95.16358092515715 120.4354850818985 l -2.1843911910716836 9.229781974513104 a30.484747765369335,30.484747765369335 0 0,0 -0.509598598498317,-0.1252469370385835 l 2.342943074313211 -9.190813779160491" fill="#ff770a" stroke="none" /><path d="M 94.81253420990036 120.34920634021253 l -1.6368558641006872 6.420999978706746 a27.626351775026198,27.626351775026198 0 0,0 -0.4597939988392111,-0.1214357740960605 l 1.7471403057513875 -6.391872855307104" fill="#ff5007" stroke="none" /><path d="M 94.46302465271185 120.25689768951611 l -2.4994864357836537 9.144313967516714 a30.479763202695928,30.479763202695928 0 0,0 -0.5049028391318955,-0.14269058567681767 l 2.6565204430201628 -9.099934588501377" fill="#ff770a" stroke="none" /><path d="M 93.76903079525671 120.05430185196036 l -0.7355887052380533 2.367483684962999 a23.479126810358796,23.479126810358796 0 0,0 -0.3849220093671222,-0.12323987196293398 l 0.7762320596961159 -2.354470966340359" fill="#ff1502" stroke="none" /><path d="M 93.08242187328487 119.8279376855182 l -3.9143175316814305 11.219655590122832 a32.882868058671825,32.882868058671825 0 0,0 -0.5328284186075989,-0.19105331378557994 l 4.106865510918756 -11.150614735297294" fill="#ff970d" stroke="none" /><path d="M 92.7421414339146 119.70592522655815 l -1.714340260144535 4.654632033909621 a25.960298569506683,25.960298569506683 0 0,0 -0.4179976202049732,-0.1580509333269379 l 1.794208101109791 -4.62443285047605" fill="#ff3805" stroke="none" /><path d="M 92.40401165467489 119.57807347666478 l -1.9693767832556515 5.075916603998767 a26.44457292036545,26.44457292036545 0 0,0 -0.4229606998583317,-0.16830479138765342 l 2.0564585591558413 -5.041264968205047" fill="#ff3f05" stroke="none" /><path d="M 92.06813273071674 119.44442032107085 l -3.0583568347542096 7.497348829458456 a29.097146781383543,29.097146781383543 0 0,0 -0.4621299475610936,-0.1931703555603863 l 3.1869582418127655 -7.443593430878097" fill="#ff6409" stroke="none" /><path d="M 91.7346041902142 119.30500536409082 l -4.134021667945569 9.655594518591501 a31.50336330222361,31.50336330222361 0 0,0 -0.4966720127672477,-0.21772641455216118 l 4.29961435537056 -9.583003550744888" fill="#ff840c" stroke="none" /><path d="M 91.07499286063937 119.00905698771935 l -1.5279891695733179 3.2544100802946723 a24.59526575833511,24.59526575833511 0 0,0 -0.3816802637051825,-0.1832297212499179 l 1.5837821012787423 -3.227626082545192" fill="#ff2503" stroke="none" /><path d="M 90.7491055286396 118.85261126421891 l -1.0856196119722519 2.2124092528228028 a23.464411622248754,23.464411622248754 0 0,0 -0.3610682344882335,-0.18104710842599195 l 1.123541754143246 -2.1933943034875085" fill="#ff1502" stroke="none" /><path d="M 90.42595943632237 118.69057910512821 l -4.98247997208658 9.726868759184512 a31.928727397581273,31.928727397581273 0 0,0 -0.4870029455331814,-0.25477692392230644 l 5.149173820146257 -9.63966241631749" fill="#ff8a0c" stroke="none" /><path d="M 90.10565033884886 118.52300852407294 l -3.4449883869826707 6.44929191333918 a28.311724226877516,28.311724226877516 0 0,0 -0.427880734584613,-0.23331469248860334 l 3.5554919334359245 -6.389036569090811" fill="#ff5908" stroke="none" /><line stroke="#e1ed5e" stroke-width="0.3" x1="58.666819895761336" x2="56.23545636021788" y1="174.27360380694188" y2="178.64263932499728" /><path d="M 58.180547188652646 175.14741091055294 a86.0,86.0 0 0,1 -31.652253787137756,-30.449443065178592" fill="none" id="id92" stroke="none" /><text fill="#e1ed5e" style="font-size:6.75px; font-family:Arial;" text-anchor="middle"><textPath startOffset="22.20632615414155" xlink:href="#id92">August</textPath></text><path d="M 89.7882731507175 118.34994917583269 l -2.7625919658436016 4.964236011694309 a26.681157764887914,26.681157764887914 0 0,0 -0.39939308777915816,-0.22678581876030643 l 2.847633820543967 -4.915947027139369" fill="#ff4206" stroke="none" /><path d="M 89.4739219176387 118.17145234162733 l -9.668240994590846 16.690545052575175 a40.288576362228724,40.288576362228724 0 0,0 -0.5970999711643832,-0.352777187701853 l 9.954108836783611 -16.52164929257957" fill="#fff517" stroke="none" /><path d="M 89.1626897886671 117.98757091392108 l -3.6888583014995477 6.12270009769044 a28.148085901470452,28.148085901470452 0 0,0 -0.4128664733211919,-0.253616309012559 l 3.7937039747530483 -6.058295321849503" fill="#ff5708" stroke="none" /><path d="M 88.8546689885994 117.79835938074946 l -4.844836549595704 7.736884796197566 a30.128626815788422,30.128626815788422 0 0,0 -0.43717813667179933,-0.27902777119157435 l 4.977296488314426 -7.652342596182188" fill="#ff720a" stroke="none" /><path d="M 88.54995079064634 117.60387380957326 l -3.81483492247163 5.8651165031398635 a27.99661039940861,27.99661039940861 0 0,0 -0.4017184315648437,-0.2662370714046321 l 3.9152280527764356 -5.798581410643913" fill="#ff5507" stroke="none" /><path d="M 88.24862548938628 117.40417183066458 l -5.715396109712707 8.464689461127296 a31.213555716019698,31.213555716019698 0 0,0 -0.44270203221220467,-0.3044944945282015 l 5.860255026547802 -8.365054177233993" fill="#ff810b" stroke="none" /><path d="M 87.95078237400918 117.19931262002967 l -3.588436087076898 5.122210918118131 a27.254112106504355,27.254112106504355 0 0,0 -0.3819114474612875,-0.27248367738578677 l 3.6760748623870723 -5.059682978888125" fill="#ff4a06" stroke="none" /><path d="M 87.65650970185807 116.9893568818739 l -3.3415804873926915 4.599290968646555 a26.685036285547994,26.685036285547994 0 0,0 -0.3692891718812484,-0.2731913009005309 l 3.4202546296925043 -4.541089719006257" fill="#ff4206" stroke="none" /><path d="M 87.36589467227662 116.77436683061367 l -1.478214617096673 1.9626331741230545 a23.457040380288163,23.457040380288163 0 0,0 -0.32043576188918527,-0.24569647813477233 l 1.511779107479345 -1.9368973541609154" fill="#ff1402" stroke="none" /><path d="M 87.07902340077011 116.55440617244103 l -12.835720873413328 16.445176200321306 a41.86143692557617,41.86143692557617 0 0,0 -0.5642174317080595,-0.4482484512178767 l 13.116895797838746 -16.2217938350983" fill="#f6ff19" stroke="none" /><path d="M 86.79598089348748 116.32954008644616 l -3.174158708336743 3.925513243385267 a26.04826086189126,26.04826086189126 0 0,0 -0.3462308431435296,-0.2849244126313278 l 3.241259680024961 -3.8702937118967586" fill="#ff3905" stroke="none" /><path d="M 86.51685102203217 116.09983520530335 l -10.344059055085845 12.351539422499823 a37.1108685005083,37.1108685005083 0 0,0 -0.4862133866047083,-0.4143615962386927 l 10.55513791826761 -12.171653436038179" fill="#ffce13" stroke="none" /><path d="M 86.24171649860922 115.8653595955263 l -3.5863313929448104 4.135576736156255 a26.474008385146874,26.474008385146874 0 0,0 -0.3417134486671038,-0.30152238810731 l 3.6569871945185017 -4.073231206276656" fill="#ff3f05" stroke="none" /><path d="M 85.97065885151581 115.62618273729859 l -6.543347243945138 7.288121278491626 a30.79449360226688,30.79449360226688 0 0,0 -0.39138401030405207,-0.3575200137874321 l 6.667830803716044 -7.174408498117617" fill="#ff7b0b" stroke="none" /><path d="M 85.70375840098266 115.38237550388516 l -3.362610022983238 3.618078897758095 a25.939396833325883,25.939396833325883 0 0,0 -0.32444523931576325,-0.3067832246238303 l 3.424391096689818 -3.559661036388334" fill="#ff3805" stroke="none" /><path d="M 85.44109423537348 115.13401014063109 l -4.2241615817314795 4.391023971658247 a27.09299865322926,27.09299865322926 0 0,0 -0.33330845201639625,-0.3262124724279989 l 4.29911998612367 -4.317661396307678" fill="#ff4806" stroke="none" /><path d="M 85.18274418774928 114.88116024355367 l -2.0878819753389832 2.096886673101667 a23.959085139494434,23.959085139494434 0 0,0 -0.2897444898222509,-0.29350963846007316 l 2.123667090216767 -2.060636540660929" fill="#ff1c02" stroke="none" /><path d="M 84.9287848128048 114.62390073753433 l -7.960750214840177 7.724474734926366 a32.09238720535817,32.09238720535817 0 0,0 -0.38127811230222053,-0.3997685764190726 l 8.092534878521356 -7.586299041924793" fill="#ff8c0c" stroke="none" /><path d="M 84.67929136418377 114.36230785411682 l -10.717281329920912 10.046852105761108 a35.690110834834016,35.690110834834016 0 0,0 -0.41630575466776876,-0.45181767530674166 l 10.88863349258441 -9.860883175653022" fill="#ffbb11" stroke="none" /><path d="M 84.43433777217949 114.09645910891817 l -3.865919417782424 3.501025153542288 a26.215602560636977,26.215602560636977 0 0,0 -0.30003276555168856,-0.33708999272283463 l 3.925611032982451 -3.4339609910785893" fill="#ff3c05" stroke="none" /><path d="M 84.19399662182784 113.82643327865904 l -10.544383630230554 9.223787521727509 a35.009364096469554,35.009364096469554 0 0,0 -0.3928675659284236,-0.45699373536354304 l 10.701593705729756 -9.040916687202435" fill="#ffb310" stroke="none" /><path d="M 83.72743513129214 113.27417163493432 l -4.192656333268909 3.4201147897175472 a26.410688708819293,26.410688708819293 0 0,0 -0.28433255463614165,-0.3547485800374693 l 4.250906799959911 -3.3474383761018185" fill="#ff3f05" stroke="none" /><path d="M 83.50135304334701 112.99209946851258 l -8.50024174466993 6.693638971929269 a31.81937671053003,31.81937671053003 0 0,0 -0.33515377184473355,-0.4332314292924189 l 8.614202333732733 -6.546329548523596" fill="#ff890c" stroke="none" /><path d="M 83.28015986056508 112.70617746262583 l -5.869930574322482 4.460830902008575 a28.372590947806646,28.372590947806646 0 0,0 -0.2921549108158193,-0.39138924631097055 l 5.945846751833386 -4.359128776188296" fill="#ff5a08" stroke="none" /><path d="M 83.06392112726016 112.41649034213515 l -11.330026429557334 8.306477833258707 a35.04873919214411,35.04873919214411 0 0,0 -0.3525239032922792,-0.4896248690610812 l 11.47133012522522 -8.11021935874649" fill="#ffb310" stroke="none" /><path d="M 82.85270091963577 112.12312394758628 l -6.673659120844543 4.718270575835758 a29.173114662601343,29.173114662601343 0 0,0 -0.2863675900858901,-0.4125338718228405 l 6.753887618092567 -4.602695441825905" fill="#ff6509" stroke="none" /><path d="M 82.6465618267979 111.8261652097733 l -6.479522269528921 4.415718664799592 a28.841095597426467,28.841095597426467 0 0,0 -0.2760462215064274,-0.41265164670893667 l 6.554571596446079 -4.303530103884834" fill="#ff6008" stroke="none" /><path d="M 82.44556493220864 111.52570212397912 l -4.985327851273894 3.273212927802244 a26.963842440525983,26.963842440525983 0 0,0 -0.2513994864058381,-0.390177585752247 l 5.040932201056777 -3.186913742128549" fill="#ff4606" stroke="none" /><path d="M 82.24976979558568 111.22182372390057 l -4.170528933582909 2.63663851055044 a25.934082915919618,25.934082915919618 0 0,0 -0.23530284920313588,-0.3793831149737111 l 4.215296422454 -2.564459064211465" fill="#ff3805" stroke="none" /><line stroke="#e1ed5e" stroke-width="0.3" x1="26.63291911575756" x2="22.317208475507996" y1="142.92168965132927" y2="145.44649492493687" /><path d="M 25.769776987707644 143.4266507060508 a86.0,86.0 0 0,1 -11.730757126820373,-40.83630448921669" fill="none" id="id93" stroke="none" /><text fill="#e1ed5e" style="font-size:6.75px; font-family:Arial;" text-anchor="middle"><textPath startOffset="21.46611528233685" xlink:href="#id93">September</textPath></text><path d="M 81.87401531095188 110.60418214915194 l -15.06939545754931 8.815996319692765 a38.45876486366788,38.45876486366788 0 0,0 -0.32936819481789337,-0.5742812101927668 l 15.21891564851958 -8.55529526364169" fill="#ffdf14" stroke="none" /><path d="M 81.69416730710424 110.29060199501025 l -9.799879084181136 5.508990328184897 a32.24217970415905,32.24217970415905 0 0,0 -0.2677998452908981,-0.4861345069262918 l 9.89325533892355 -5.3394853028607825" fill="#ff8e0d" stroke="none" /><path d="M 81.51974371655577 109.97397251340807 l -9.44146994213034 5.0956523678375 a31.728794327509434,31.728794327509434 0 0,0 -0.25526191517529434,-0.4828593455472623 l 9.52778436553052 -4.932378007204112" fill="#ff880c" stroke="none" /><path d="M 81.35079622478065 109.6543875284942 l -4.826628221779031 2.49866642408295 a26.435041296081685,26.435041296081685 0 0,0 -0.2057166482314591,-0.4058984633041493 l 4.868923539796757 -2.415213749076116" fill="#ff3f05" stroke="none" /><path d="M 81.18737489456691 109.33194174019688 l -9.778422910330177 4.850555007544065 a31.91537624154481,31.91537624154481 0 0,0 -0.23989229541161042,-0.4942491822987397 l 9.860468462356506 -4.68151686928004" fill="#ff8a0c" stroke="none" /><path d="M 80.87730276802145 108.67885076344099 l -13.449251247419603 6.1039529643957255 a35.7695836402985,35.7695836402985 0 0,0 -0.24963577990170976,-0.5628627817571568 l 13.552328112052592 -5.871541846145873" fill="#ffbc11" stroke="none" /><path d="M 80.73074385275274 108.34839909993369 l -5.650082589586034 2.4478964857286134 a27.157566928096333,27.157566928096333 0 0,0 -0.18214841214412536,-0.4305450405375957 l 5.691381982922465 -2.3502769195248585" fill="#ff4906" stroke="none" /><path d="M 80.58989483394504 108.01547362559985 l -10.712695630591902 4.423846679422211 a32.5901797706825,32.5901797706825 0 0,0 -0.20965943275718907,-0.5203575180584027 l 10.78725767760648 -4.238789793521003" fill="#ff930d" stroke="none" /><path d="M 80.45479744820244 107.68017299344265 l -14.136628241711128 5.554905361179959 a36.18885221522714,36.18885221522714 0 0,0 -0.22282979077971335,-0.5817382691056359 l 14.23015231208435 -5.310743525241165" fill="#ffc212" stroke="none" /><path d="M 80.32549172779594 107.34259656027581 l -13.566757872483597 5.0631623576243685 a35.48076421430375,35.48076421430375 0 0,0 -0.20861969435526398,-0.574031800272201 l 13.651901827844085 -4.828882760346051" fill="#ffb911" stroke="none" /><path d="M 80.20201598880116 107.00284435728193 l -21.225056701863583 7.507621405975364 a43.51371606760607,43.51371606760607 0 0,0 -0.24369580901349708,-0.7082940924728387 l 21.351143341820308 -7.141154610413228" fill="#e2ff1b" stroke="none" /><path d="M 79.97269907076064 106.31721596034903 l -19.12991618102565 6.034153690799124 a41.059030481487675,41.059030481487675 0 0,0 -0.20680696056172018,-0.6758571128863616 l 19.2309499140935 -5.703969605360714" fill="#ffff18" stroke="none" /><path d="M 79.86692584326677 105.97154293290107 l -17.76823995117075 5.270124516728078 a39.533336542139374,39.533336542139374 0 0,0 -0.18789133692215026,-0.6540743928536814 l 17.856323924979 -4.963492648369801" fill="#ffec16" stroke="none" /><path d="M 79.76711848015287 105.62410040840567 l -4.447370560665459 1.2362281942902893 a25.61599014862814,25.61599014862814 0 0,0 -0.11443263391680711,-0.42584640078915037 l 4.467991270924041 -1.1594908603256" fill="#ff3304" stroke="none" /><path d="M 79.67330655649465 105.27499134158121 l -16.017487627522215 4.156706981580432 a37.548054956052894,37.548054956052894 0 0,0 -0.15696639977946655,-0.6270027408506922 l 16.08666534159674 -3.8803764013323474" fill="#ffd313" stroke="none" /><path d="M 79.58551787078972 104.9243191809786 l -6.416786218115303 1.5478376210627236 a27.60082924110082,27.60082924110082 0 0,0 -0.10743219819118884,-0.46281509804578874 l 6.442478982237047 -1.4371538656683607" fill="#ff4f07" stroke="none" /><path d="M 79.50377843672027 104.57218783832718 l -12.93627042271839 2.885754240968504 a34.25423215388075,34.25423215388075 0 0,0 -0.12342282874664558,-0.5765903663289209 l 12.984027290189477 -2.6626500552234194" fill="#ffa90f" stroke="none" /><path d="M 79.4281124754447 104.21870165774334 l -30.070971832367064 6.166690274178068 a51.69676556057097,51.69676556057097 0 0,0 -0.17126416404715145,-0.8732722827427931 l 30.172665929389883 -5.64815426436732" fill="#86ff25" stroke="none" /><path d="M 79.35854240842038 103.8639653848113 l -5.516916557440633 1.0327359157784928 a26.612745475567323,26.612745475567323 0 0,0 -0.08041301807363838,-0.4509989098220912 l 5.53387601785346 -0.937618255223188" fill="#ff4106" stroke="none" /><path d="M 79.29508885075956 103.50808413554451 l -16.5666394911215 2.8069265672854886 a37.8027492031191,37.8027492031191 0 0,0 -0.10318034593537621,-0.6425041126329296 l 16.612501591418166 -2.5213432249593453" fill="#ffd614" stroke="none" /><path d="M 79.23777060512086 103.15116336523772 l -11.428429809947401 1.7345367231218085 a32.55930904356971,32.55930904356971 0 0,0 -0.0793299021646702,-0.5548331509729006 l 11.45659376312867 -1.5375581001685072" fill="#ff930d" stroke="none" /><path d="M 79.18660465613746 102.79330883721812 l -18.69655476586786 2.5092134555754497 a39.86418066810051,39.86418066810051 0 0,0 -0.08542037929407126,-0.6808844688346077 l 18.736976654408778 -2.187011232453433" fill="#fff016" stroke="none" /><path d="M 79.10278846688536 102.07522291339032 l -6.292208728271328 0.6248554123142852 a27.323158622589848,27.323158622589848 0 0,0 -0.04244900385940495,-0.4684212203700985 l 6.302032328407808 -0.5164528033956206" fill="#ff4b07" stroke="none" /><path d="M 79.04373962182676 101.35467743843564 l -18.321172693023055 1.1843372264438812 a39.359412395649116,39.359412395649116 0 0,0 -0.037885588163742344,-0.6764726267622542 l 18.338844632074327 -0.8687928833461893" fill="#ffea16" stroke="none" /><line stroke="#e1ed5e" stroke-width="0.3" x1="15.007084014347285" x2="10.007500721073583" y1="101.09737516637583" y2="101.16192664675087" /><path d="M 14.007167355692545 101.11028546245083 a86.0,86.0 0 0,1 10.666146001902534,-42.60595125391555" fill="none" id="id94" stroke="none" /><text fill="#e1ed5e" style="font-size:6.75px; font-family:Arial;" text-anchor="middle"><textPath startOffset="22.20632615414155" xlink:href="#id94">October</textPath></text><path d="M 79.00175016825051 100.2711162175752 l -8.88607098264285 0.11473136919612442 a29.886811621478476,29.886811621478476 0 0,0 -0.002214047326078424,-0.5144666251369863 l 8.886729327258433 0.03824473414453727" fill="#ff6f0a" stroke="none" /><path d="M 79.00019446554 99.90962569577889 l -6.5181794944092495 -0.028051494840223873 a27.518239855029883,27.518239855029883 0 0,0 0.0061155918826867,-0.4736593309327884 l 6.5167308954088465 0.14024708383348425" fill="#ff4e07" stroke="none" /><path d="M 79.01574976396665 99.18683210126434 l -19.135752144326794 -0.7415361133660362 a40.1501145149718,40.1501145149718 0 0,0 0.032705885160142556,-0.6903695437700298 l 19.120152650933154 1.070816763759075" fill="#fff316" stroke="none" /><path d="M 79.08570108090925 98.10471618934814 l -8.900284629173626 -0.8065565780198608 a29.936755563058185,29.936755563058185 0 0,0 0.050925093164808054,-0.5128087384453476 l 8.88508241032659 0.9596408471696387" fill="#ff6f0a" stroke="none" /><path d="M 79.12142395522702 97.74499172005258 l -17.084439906180815 -1.8452193944685666 a38.18379822744746,38.18379822744746 0 0,0 0.07620330974735764,-0.652863421338336 l 17.05014624342987 2.1390265541317643" fill="#ffdb14" stroke="none" /><path d="M 79.16333360222342 97.38593545837743 l -15.679863721589427 -1.9671177236131516 a36.802774391421565,36.802774391421565 0 0,0 0.08426783992911631,-0.6278932869323245 l 15.643679882602477 2.2367293526101353" fill="#ffca12" stroke="none" /><path d="M 79.21141760316559 97.0276538004421 l -12.776313302252335 -1.826754011571927 a33.9062470074032,33.9062470074032 0 0,0 0.08758162265442473,-0.5770534655189942 l 12.742975786158608 2.0464065894830132" fill="#ffa40f" stroke="none" /><path d="M 79.26566170972629 96.67025291283419 l -34.09379987331139 -5.475155716535483 a55.530631617763945,55.530631617763945 0 0,0 0.15968530819061957,-0.9424717282080712 l 33.994502703600546 6.061213233059383" fill="#5dff2a" stroke="none" /><path d="M 79.32604984820605 96.31383870115002 l -4.743357111250673 -0.8457396521583409 a25.818164821182982,25.818164821182982 0 0,0 0.08177507347889824,-0.43684571241194814 l 4.728096313861913 0.9272634420328617" fill="#ff3605" stroke="none" /><path d="M 79.3925641242962 95.95851677861259 l -17.183117009033985 -3.36991363224493 a38.510449110029796,38.510449110029796 0 0,0 0.13317409185714926,-0.649404167711523 l 17.122563621261843 3.6651934561198556" fill="#ffdf14" stroke="none" /><path d="M 79.46518482838121 95.60439243477599 l -3.827147022194265 -0.8192251190666786 a24.913845184112454,24.913845184112454 0 0,0 0.09337425987390022,-0.4185784981622614 l 3.812478375318327 0.8849817867788993" fill="#ff2904" stroke="none" /><path d="M 79.54389044137918 95.25157060432595 l -15.031771939603349 -3.489290450979241 a36.431439190676336,36.431439190676336 0 0,0 0.14705671822200198,-0.6096450363574427 l 14.969482421120532 3.7475207189960806" fill="#ffc512" stroke="none" /><path d="M 79.62865764111835 94.90015583598534 l -6.914027507326019 -1.7308855848520093 a28.12739372280705,28.12739372280705 0 0,0 0.12162240595042721,-0.46866074302879224 l 6.883208769505285 1.8496427534296653" fill="#ff5708" stroke="none" /><path d="M 79.81627453868168 94.20196356495316 l -50.25765521179987 -14.437162089649474 a73.29018604471557,73.29018604471557 0 0,0 0.3587523297610777,-1.2095345106179671 l 50.00169698492709 15.300125987013981" fill="#40ffc4" stroke="none" /><path d="M 79.91906864156998 93.8553929516997 l -20.021879457987716 -6.126537631240076 a41.938245398724106,41.938245398724106 0 0,0 0.2171692479759335,-0.6884858629323012 l 19.91345472624358 6.470273660598792" fill="#f5ff19" stroke="none" /><path d="M 80.02781315780177 93.51064311812611 l -3.8503543152599997 -1.2510559545033384 a25.04850211242869,25.04850211242869 0 0,0 0.13676804948450236,-0.4089190597927422 l 3.828248972003725 1.3171481172184027" fill="#ff2b04" stroke="none" /><path d="M 80.14247586403 93.16781622104843 l -4.099840320175829 -1.4105918915167235 a25.33571910245027,25.33571910245027 0 0,0 0.1454353753937351,-0.4111653907763668 l 4.074951863972284 1.4809549087197014" fill="#ff2f04" stroke="none" /><path d="M 80.2630227832202 92.82701384747504 l -18.67632179236368 -6.787513413291657 a40.87147035394041,40.87147035394041 0 0,0 0.24599839590142034,-0.6591533983081338 l 18.556718807960632 7.1079899486291325" fill="#fffc17" stroke="none" /><path d="M 80.38941819471856 92.48833698450439 l -6.851895173367455 -2.6245589279750896 a28.337354907133086,28.337354907133086 0 0,0 0.17839909990546218,-0.45400625033937375 l 6.805702523580302 2.742114183210227" fill="#ff5908" stroke="none" /><path d="M 80.52162464483688 92.15188598940014 l -24.263877512802676 -9.776260780867913 a47.15933918912761,47.15933918912761 0 0,0 0.3098555270893981,-0.7503397363669168 l 24.092000298827077 10.192475087688141" fill="#b8ff1f" stroke="none" /><path d="M 80.95270993114464 91.15688171328213 l -23.421477796945904 -10.873929984759018 a46.82262526363792,46.82262526363792 0 0,0 0.3456887804735837,-0.7281087333077232 l 23.23083082263057 11.275481133707274" fill="#bcff1f" stroke="none" /><path d="M 81.10775173730289 90.83032412892265 l -16.42610684065597 -7.972691945294088 a39.258718541978844,39.258718541978844 0 0,0 0.30031047800233784,-0.6054075984589465 l 16.286436349700217 8.254259132251995" fill="#ffe815" stroke="none" /><path d="M 81.26839172434947 90.50648371742162 l -19.931273107820367 -10.101528016020714 a43.344943856653,43.344943856653 0 0,0 0.3430247994847712,-0.6626147300038051 l 19.75443887517548 10.443115468284855" fill="#e4ff1a" stroke="none" /><path d="M 81.43458229118936 90.18545643968196 l -3.6917544500556785 -1.9516331618477027 a25.175873910683794,25.175873910683794 0 0,0 0.20583303074101839,-0.3813773453434468 l 3.6576133200961882 2.014891490523622" fill="#ff2d04" stroke="none" /><path d="M 81.6062741919709 89.86733742301443 l -25.954359395945854 -14.297634362155007 a50.63192737585253,50.63192737585253 0 0,0 0.4270980495842318,-0.7597597733293114 l 25.70440370506919 14.742277645419103" fill="#91ff24" stroke="none" /><line stroke="#e1ed5e" stroke-width="0.3" x1="26.266209847984243" x2="21.928928074336255" y1="57.711370442889674" y2="55.22380399835377" /><path d="M 25.398753493254645 57.213857153982495 a86.0,86.0 0 0,1 29.58750427330803,-30.492523968695096" fill="none" id="id95" stroke="none" /><text fill="#e1ed5e" style="font-size:6.75px; font-family:Arial;" text-anchor="middle"><textPath startOffset="21.46611528233685" xlink:href="#id95">November</textPath></text><path d="M 81.78341655067845 89.55222093294921 l -5.628912378017903 -3.2283569022109257 a27.48898627271287,27.48898627271287 0 0,0 0.23894516679532266,-0.40843474526703194 l 5.572507536752256 3.3247710598318494" fill="#ff4e07" stroke="none" /><path d="M 81.96595687620814 89.24020034530311 l -13.092156231653384 -7.811280983061248 a36.24534897568287,36.24534897568287 0 0,0 0.32428230753017434,-0.533034849287944 l 12.955758125836994 8.035483605556268" fill="#ffc312" stroke="none" /><path d="M 82.15384107792192 88.93136811851018 l -20.29818791192215 -12.589441281979285 a44.88536087858223,44.88536087858223 0 0,0 0.41288633591824564,-0.6530870285546251 l 20.078473979757938 12.936975958248127" fill="#d2ff1c" stroke="none" /><path d="M 82.34701348167596 88.62581576622439 l -3.3106083091785976 -2.1330933887803525 a24.938301001962753,24.938301001962753 0 0,0 0.23561156320220755,-0.35885257513718055 l 3.2734001106184696 2.1897640278952" fill="#ff2a04" stroke="none" /><path d="M 82.54541684631803 88.32363383020206 l -15.917870618909015 -10.648371510988667 a40.151146724840316,40.151146724840316 0 0,0 0.3892281499296273,-0.5711442817906606 l 15.732218003310647 10.920793816049745" fill="#fff316" stroke="none" /><path d="M 82.7489923806493 88.02491185347247 l -4.607080149636488 -3.198085126814792 a26.608291717049724,26.608291717049724 0 0,0 0.2644197471392987,-0.3740029803006816 l 4.551347782693311 3.2769146074472597" fill="#ff4106" stroke="none" /><path d="M 82.95767976084542 87.72973835380427 l -8.97562787575565 -6.462342036114281 a32.060007249354385,32.060007249354385 0 0,0 0.32630581867957054,-0.44508076996908336 l 8.863059444562445 6.615885249754865" fill="#ff8c0c" stroke="none" /><path d="M 83.17141714833178 87.43820079747576 l -4.732932287443496 -3.5329264239332674 a26.906116926920006,26.906116926920006 0 0,0 0.2802388155743223,-0.368761432071085 l 4.671417531645065 3.6138726318853793" fill="#ff4606" stroke="none" /><path d="M 83.39014120810768 87.1503855733568 l -19.746669975969564 -15.27629455376442 a45.965899752126504,45.965899752126504 0 0,0 0.4895279005423662,-0.6216507213521736 l 19.480787994833225 15.61393766906964" fill="#c5ff1e" stroke="none" /><path d="M 83.6137871275137 86.86637796730984 l -5.027050700633931 -4.029203352542466 a27.44249318221475,27.44249318221475 0 0,0 0.298602432062828,-0.3660512745600299 l 4.95694977649471 4.115138796710578" fill="#ff4d07" stroke="none" /><path d="M 83.84228863543731 86.58626213691792 l -11.160996605636592 -9.265587147886897 a35.50582470685891,35.50582470685891 0 0,0 0.39443486016651536,-0.46688646327792893 l 10.999851131982954 9.456332560793943" fill="#ffb911" stroke="none" /><path d="M 84.07557802195018 86.31012108654704 l -2.6376118107337367 -2.267497455129628 a24.478295670747592,24.478295670747592 0 0,0 0.277430168351675,-0.3171506410797745 l 2.598189778804218 2.3125636524123454" fill="#ff2303" stroke="none" /><path d="M 84.31358615837235 86.03803664274999 l -7.906823679440133 -7.037604872543965 a31.585166179130574,31.585166179130574 0 0,0 0.3649686397888119,-0.40300748768218686 l 7.784511399035275 7.172665147495708" fill="#ff860c" stroke="none" /><path d="M 84.5562425177563 85.77008943001954 l -5.754881475296197 -5.302559874334724 a28.82533079272768,28.82533079272768 0 0,0 0.3393601774749307,-0.36200577612615087 l 5.662753975850811 5.400835067338925" fill="#ff6008" stroke="none" /><path d="M 84.80347519578584 85.50635884689758 l -15.023544515158573 -14.32866170757574 a41.76095942217263,41.76095942217263 0 0,0 0.5006059937430868,-0.5159184810614286 l 14.774674257712368 14.585144384187293" fill="#f7ff18" stroke="none" /><path d="M 85.05521093208273 85.24692304244772 l -14.904965516889046 -14.713764263985825 a41.94404105887395,41.94404105887395 0 0,0 0.5116457959807527,-0.5094486263323128 l 14.64948392074098 14.968148740968246" fill="#f5ff19" stroke="none" /><path d="M 85.31137513191541 84.99185889309783 l -5.985962651378028 -6.116173088995411 a29.557997553063704,29.557997553063704 0 0,0 0.36668350703980757,-0.3527492432493292 l 5.879795900725792 6.218305419007054" fill="#ff6a09" stroke="none" /><path d="M 85.57189188830299 84.74124197986013 l -10.538593457171466 -11.145317611339607 a36.33884143972986,36.33884143972986 0 0,0 0.45820184406044034,-0.42584867741324156 l 10.345183729316169 11.325070874827496" fill="#ffc412" stroke="none" /><path d="M 85.83668400450813 84.49514656593479 l -13.231480196195085 -14.484754927662447 a40.61836368040781,40.61836368040781 0 0,0 0.5202806443743124,-0.46711309957087677 l 12.9801885642248 14.710367036002603" fill="#fff917" stroke="none" /><path d="M 86.10567301691215 84.25364557470407 l -3.521930982739884 -3.9913824961191664 a26.323075434136697,26.323075434136697 0 0,0 0.3423331018929289,-0.2968678925551433 l 3.4527040822001815 4.05141538209399" fill="#ff3d05" stroke="none" /><path d="M 86.37877921826538 84.01681056812374 l -3.205350202814906 -3.76116945081698 a25.94172698157683,25.94172698157683 0 0,0 0.34235971958135747,-0.28671641941093773 l 3.140132946274438 3.81578702762173" fill="#ff3805" stroke="none" /><path d="M 86.65592168130627 83.78471172551755 l -19.646488738974465 -23.873771636783207 a51.91830350999105,51.91830350999105 0 0,0 0.6949551747121547,-0.5619387537243362 l 19.23263016569781 24.208416487771675" fill="#83ff25" stroke="none" /><path d="M 87.22198572758235 83.33499621200491 l -6.216351651268321 -8.107325724272759 a31.21624971560901,31.21624971560901 0 0,0 0.42922915098193654,-0.3232864976660739 l 6.075876346527994 8.213128811444687" fill="#ff810b" stroke="none" /><path d="M 87.51073957382395 83.11751280151077 l -7.745126041517209 -10.46955438390478 a34.02300066791551,34.02300066791551 0 0,0 0.47381837604906213,-0.34424920075008136 l 7.5637623491143655 10.60132281947153" fill="#ffa60f" stroke="none" /><path d="M 87.80319425747018 82.90503203632743 l -9.20472779536491 -12.901289903093229 a36.8483530674458,36.8483530674458 0 0,0 0.5195071381379817,-0.3639479497797157 l 8.981289517643269 13.057822695636888" fill="#ffca12" stroke="none" /><path d="M 88.09926311788651 82.69761687909137 l -2.421861555267852 -3.5211245244842475 a25.27360869872393,25.27360869872393 0 0,0 0.3605645010258922,-0.24345476061793705 l 2.3608923598354203 3.56229119740085" fill="#ff2e04" stroke="none" /><path d="M 89.00827224532344 82.1063720568725 l -32.97518326402967 -53.68088382938249 a84.0,84.0 0 0,0 1.2385517351294033,-0.746213562165523 l 32.046269462682616 54.240544001006626" fill="#4dd2ff" stroke="none" /><line stroke="#e1ed5e" stroke-width="0.3" x1="56.762969772571076" x2="54.21961505331055" y1="26.818313649435495" y2="22.513508569990535" /><path d="M 56.25429882871897 25.957352633546506 a86.0,86.0 0 0,1 42.265352541879196,-11.944610805530505" fill="none" id="id96" stroke="none" /><text fill="#e1ed5e" style="font-size:6.75px; font-family:Arial;" text-anchor="middle"><textPath startOffset="22.20632615414155" xlink:href="#id96">December</textPath></text><path d="M 89.3179101791058 81.91981866633112 l -3.147225862153611 -5.326899065616199 a27.187154780888488,27.187154780888488 0 0,0 0.4049633738301434,-0.23458092469953792 l 3.055065755858147 5.380284147705784" fill="#ff4906" stroke="none" /><path d="M 89.63071344664047 81.73862282372117 l -4.396862117372539 -7.743325165550372 a29.90457641320638,29.90457641320638 0 0,0 0.44981596740172314,-0.250322098853646 l 4.26292206089877 7.817862661964202" fill="#ff6f0a" stroke="none" /><path d="M 89.94658935756843 81.56283822128135 l -3.756059358295408 -6.888316463179221 a28.845819625758956,28.845819625758956 0 0,0 0.43798249879163187,-0.2339550825600045 l 3.636931812975471 6.951950272240976" fill="#ff6008" stroke="none" /><path d="M 90.26544431104013 81.39251694778311 l -2.429666240877994 -4.644277031663007 a26.241429880184867,26.241429880184867 0 0,0 0.40204308831544405,-0.20594208527343985 l 2.3493626649737864 4.685411642248952" fill="#ff3c05" stroke="none" /><path d="M 90.58718382345135 81.22770947309562 l -8.535197491630722 -17.02202656592691 a40.04203205102493,40.04203205102493 0 0,0 0.6187995203736684,-0.30364223723054684 l 8.240926704246627 17.166423963292285" fill="#fff216" stroke="none" /><path d="M 90.91171255644093 81.06846463323043 l -3.385097460781643 -7.051393642282637 a28.821830803425392,28.821830803425392 0 0,0 0.4491014775769952,-0.21085916551576306 l 3.2632177719050395 7.108617790438408" fill="#ff6008" stroke="none" /><path d="M 91.23893434514133 80.91482961587045 l -2.8547813127884956 -6.218876779422603 a27.8428214021329,27.8428214021329 0 0,0 0.4372885890837822,-0.19619864326547337 l 2.747310605237939 6.267095753204605" fill="#ff5307" stroke="none" /><path d="M 91.56875222667455 80.76684994638697 l -8.44719720872674 -19.269533503914882 a42.039725809563656,42.039725809563656 0 0,0 0.6652611287885707,-0.28483009678570276 l 8.11425232214786 19.412083128663372" fill="#f4ff19" stroke="none" /><path d="M 91.90106846888425 80.62456947434976 l -6.7418307968659095 -16.128778681299558 a38.48112651529966,38.48112651529966 0 0,0 0.6133454171943367,-0.2501989958598416 l 6.463201510083192 16.242438563342976" fill="#ffdf14" stroke="none" /><path d="M 92.23578459929587 80.48803036053334 l -2.554378549537533 -6.4193165869356426 a27.908869315426696,27.908869315426696 0 0,0 0.44789327643441684,-0.17377563281700717 l 2.44350210810344 6.462334923643201" fill="#ff5307" stroke="none" /><path d="M 92.57280143429618 80.3572730644239 l -2.070769537329936 -5.4765683465239 a26.85498824344517,26.85498824344517 0 0,0 0.43379460254030766,-0.15977021305884145 l 1.976192609017059 5.511401827389063" fill="#ff4506" stroke="none" /><path d="M 93.25333710446033 80.11325718540243 l -2.14296612530215 -6.3166956544476385 a27.670303426764796,27.670303426764796 0 0,0 0.45236621334157523,-0.14913802826154599 l 2.0339170897181655 6.352647406968418" fill="#ff5007" stroke="none" /><path d="M 93.59665428221793 80.00007090966166 l -9.05041823089797 -28.26767924667986 a50.68116844309445,50.68116844309445 0 0,0 0.8331371749841727,-0.25885977577153946 l 8.56249568320307 28.419279157333925" fill="#91ff24" stroke="none" /><path d="M 93.94186890950719 79.89281104454417 l -3.415461218271542 -11.336057780854448 a32.83940798116137,32.83940798116137 0 0,0 0.5426474196968832,-0.15841366218153646 l 3.219823580851237 11.393169771954684" fill="#ff960d" stroke="none" /><path d="M 94.28887869178378 79.79150937346287 l -4.747001397689115 -16.797005013945522 a38.45489615288998,38.45489615288998 0 0,0 0.6385382599140614,-0.17453662735702416 l 4.457165248551331 16.87622818212884" fill="#ffde14" stroke="none" /><path d="M 94.63758080256005 79.69619591428918 l -4.654527184834924 -17.62350248888048 a39.227793703296726,39.227793703296726 0 0,0 0.6543403547982568,-0.16680592593382534 l 4.350477941351667 17.701011410983167" fill="#ffe815" stroke="none" /><path d="M 94.98787191387505 79.60689891045804 l -1.5543899996037012 -6.324425842636203 a27.512640824571292,27.512640824571292 0 0,0 0.4608712071996075,-0.10907332459264373 l 1.4452951054415597 6.350245079369718" fill="#ff4e07" stroke="none" /><path d="M 95.692805502759 79.44645832069477 l -1.9930945692090034 -9.510866603603477 a30.717459004974003,30.717459004974003 0 0,0 0.518442823198999,-0.10399475307686251 l 1.829085336542868 9.54376531275755" fill="#ff7a0b" stroke="none" /><path d="M 96.04723909329186 79.375362276772 l -0.8013048608094264 -4.181032663020197 a25.257126214854168,25.257126214854168 0 0,0 0.4276932051867693,-0.07815819950171429 l 0.7292165345197639 4.194206343872647" fill="#ff2e04" stroke="none" /><path d="M 96.40284397218896 79.31037775812273 l -1.1484352698577678 -6.605410418370042 a27.70450224581697,27.70450224581697 0 0,0 0.4705422290258363,-0.07764349955065834 l 1.0345638346930457 6.624200180860327" fill="#ff5107" stroke="none" /><path d="M 96.75951476605007 79.25152402106235 l -2.4489101269941944 -15.680106303888639 a36.87018886186749,36.87018886186749 0 0,0 0.6279011064027594,-0.09253630109748681 l 2.178640040162786 15.719937089147095" fill="#ffcb12" stroke="none" /><path d="M 97.11714578562143 79.19881850522333 l -2.8124524362697954 -20.293198761313597 a41.48716194772862,41.48716194772862 0 0,0 0.7082160244890461,-0.09194676591468146 l 2.4627216832728918 20.338603850392417" fill="#faff18" stroke="none" /><path d="M 97.47563105711357 79.15227682838746 l -0.780027762309789 -6.441927952184643 a27.488981356970587,27.488981356970587 0 0,0 0.4702360661916405,-0.05283650107326721 l 0.6690249926084305 6.454400406728508" fill="#ff4e07" stroke="none" /><path d="M 97.83486435360386 79.11191278185805 l -0.8622318898289925 -8.318358688976145 a29.362926228916706,29.362926228916706 0 0,0 0.5031894926138174,-0.047783905491150074 l 0.7189172701249387 8.331968138982475" fill="#ff6809" stroke="none" /><path d="M 98.19473922651362 79.07773832637324 l -2.809899467098967 -32.56562862865114 a53.68662881048497,53.68662881048497 0 0,0 0.9213898915886448,-0.07151758880755567 l 2.248919386147988 32.60917147964716" fill="#70ff27" stroke="none" /><path d="M 98.55514903715128 79.0497635885617 l -0.388526847031558 -5.63361170584218 a26.646993356031714,26.646993356031714 0 0,0 0.4578688803416506,-0.02761990124788129 l 0.2914959178502844 5.639464876470368" fill="#ff4206" stroke="none" /><path d="M 98.91598698831166 79.02799685794201 l -0.6380449593227938 -12.344022394021836 a33.360501212905156,33.360501212905156 0 0,0 0.57373575472037,-0.024706268483481474 l 0.42546837221309974 12.35317638902951" fill="#ff9d0e" stroke="none" /><path d="M 99.27714615592234 79.0124445844662 l -0.22031850194706615 -6.396793496452175 a27.400586479265243,27.400586479265243 0 0,0 0.4715162920783707,-0.012177874715820595 l 0.11017557467381645 6.399638163310355" fill="#ff4c07" stroke="none" /><path d="M 99.63851952072746 79.00311137660856 l -0.21897325552101787 -12.719240239276472 a33.721125011219065,33.721125011219065 0 0,0 0.5804537347935504,-0.004996148551152211 l 3.115777005308553e-15 12.721125011219065" fill="#ffa20f" stroke="none" /></svg>