<?xml version="1.0" encoding="utf-8" ?>
<svg baseProfile="full" height="200mm" version="1.1" viewBox="0,0,200,200" width="200mm" xmlns="http://www.w3.org/2000/svg" xmlns:ev="http://www.w3.org/2001/xml-events" xmlns:xlink="http://www.w3.org/1999/xlink"><defs /><rect fill="#1a1a1a" height="200" width="200" x="0" y="0" /><rect fill="#1a1a1a" height="200" width="180" x="10" y="0" /><text alignment-baseline="middle" fill="#e1ed5e" style="dominant-baseline: central; font-size:9.0px; font-family:Arial;" text-anchor="middle" x="100.0" y="100.0">2024</text><line stroke="#e1ed5e" stroke-width="0.3" x1="100.0" x2="100.0" y1="15.0" y2="10.0" /><path d="M 100.0 14.0 a86.0,86.0 0 0,1 42.35913384403234,11.155469271406648" fill="none" id="id1" stroke="none" /><text fill="#e1ed5e" style="font-size:6.75px; font-family:Arial;" text-anchor="middle"><textPath startOffset="22.145653131862478" xlink:href="#id1">January</textPath></text><line stroke="#e1ed5e" stroke-width="0.3" x1="143.13028292997686" x2="145.6673583964461" y1="26.7553504044142" y2="22.446841604673864" /><path d="M 143.63769802327073 25.89364864446614 a86.0,86.0 0 0,1 29.32050498858742,28.57503671076993" fill="none" id="id2" stroke="none" /><text fill="#e1ed5e" style="font-size:6.75px; font-family:Arial;" text-anchor="middle"><textPath startOffset="20.669276256404974" xlink:href="#id2">February</textPath></text><line stroke="#e1ed5e" stroke-width="0.3" x1="172.87174338648825" x2="177.1583165268699" y1="56.24261187166439" y2="53.66864786411523" /><path d="M 173.72905801456457 55.72781907015455 a86.0,86.0 0 0,1 12.242430191666344,42.057860355516425" fill="none" id="id3" stroke="none" /><text fill="#e1ed5e" style="font-size:6.75px; font-family:Arial;" text-anchor="middle"><textPath startOffset="22.145653131862474" xlink:href="#id3">March</textPath></text><path d="M 120.43855184770803 95.1765574152323 l 8.902720413034539 -2.1010177766252554 a30.14727863631349,30.14727863631349 0 0,0 0.11454406613202014,0.5047022901762531 l -8.937475340724225 1.9478811525099757" fill="#ff4906" stroke="none" /><path d="M 120.65975698304385 96.23510406497455 l 8.532228202793824 -1.554856202024659 a29.672744428006908,29.672744428006908 0 0,0 0.08701911338595679,0.5019031215807008 l -8.557662133672014 1.4081600475233655" fill="#ff4206" stroke="none" /><path d="M 120.86939407059847 97.66154086499901 l 14.67344213216697 -1.644189796780725 a35.765272232298685,35.765272232298685 0 0,0 0.06313014637586736,0.6107268991343884 l -14.699504671024503 1.3920583753634053" fill="#ff990e" stroke="none" /><path d="M 120.96210409425399 98.7389718711861 l 6.187277795920036 -0.37221126783640157 a27.198463337940257,27.198463337940257 0 0,0 0.024036202322659624,0.4662959037365415 l -6.192755587699268 0.2659435707231294" fill="#ff1c02" stroke="none" /><path d="M 120.99303781780057 99.45929381324524 l 18.413708266131366 -0.4742718070155724 a39.41981503319521,39.41981503319521 0 0,0 0.011616772461945798,0.6766187571735321 l -18.419136470191976 0.15810613387297384" fill="#ffcb12" stroke="none" /><line stroke="#e1ed5e" stroke-width="0.3" x1="184.99686870605535" x2="189.99668451229388" y1="99.2704041080226" y2="99.22748670261217" /><path d="M 185.99683186730306 99.26182062694052 a86.0,86.0 0 0,1 -10.086455211305974,41.156179273409016" fill="none" id="id4" stroke="none" /><text fill="#e1ed5e" style="font-size:6.75px; font-family:Arial;" text-anchor="middle"><textPath startOffset="21.40746469413373" xlink:href="#id4">April</textPath></text><path d="M 120.99922638620191 100.18025310272382 l 6.924026385044883 0.059434438978478554 a27.92428146693463,27.92428146693463 0 0,0 -0.008229110757912494,0.47930444638591907 l -6.921985842688302 -0.1782858013334687" fill="#ff2703" stroke="none" /><path d="M 120.99303781780057 100.54070618675476 l 9.38253489085044 0.24166081664576805 a30.38564653757682,30.38564653757682 0 0,0 -0.017906280319320084,0.5213218140313405 l -9.377003923534275 -0.40268889524121915" fill="#ff4c07" stroke="none" /><path d="M 120.96210409425399 101.26102812881392 l 26.02108577164349 1.5653639039659442 a47.068127452639686,47.068127452639686 0 0,0 -0.055441858502672116,0.806112454813492 l -25.990379951975754 -2.0118197829337796" fill="#d1ff1d" stroke="none" /><path d="M 120.7213421655516 103.40968896794604 l 9.152775078943295 1.5060856562007163 a30.275860372468905,30.275860372468905 0 0,0 -0.08878782793419658,0.5121045970773541 l -9.125572433516863 -1.6629832861986584" fill="#ff4a06" stroke="none" /><path d="M 120.51834098615036 104.47187691870673 l 35.60726246707836 7.760437126585391 a57.44312726420569,57.44312726420569 0 0,0 -0.2182541730402109,0.9616681570126805 l -35.468797432480486 -8.370539617537087" fill="#59ff2a" stroke="none" /><path d="M 119.94978838288452 106.5578916946017 l 17.31862269037643 5.692975269882961 a39.23032252361763,39.23032252361763 0 0,0 -0.21579400799504025,0.6379566405549547 l -17.218343260809025 -5.989433584912076" fill="#ffc912" stroke="none" /><path d="M 119.71291397450082 107.23885506374661 l 9.859656931693605 3.6206025957966927 a31.503408873664945,31.503408873664945 0 0,0 -0.19077461733228832,0.5060523378619043 l -9.796051630546877 -3.789323213852756" fill="#ff5c08" stroke="none" /><path d="M 119.4528033332814 107.91128576633889 l 6.103996725683426 2.4824423290734297 a27.58948373883186,27.58948373883186 0 0,0 -0.18218801700747017,0.4371849175991309 l -6.06048286413947 -2.5868597561138387" fill="#ff2203" stroke="none" /><path d="M 119.31412917781788 108.2440532568976 l 10.934291757789836 4.6671989582219595 a32.888712392858146,32.888712392858146 0 0,0 -0.22609598731511632,0.517351865694966 l -10.852561888457753 -4.85421289369277" fill="#ff700a" stroke="none" /><path d="M 118.8641267826498 109.22738970284198 l 3.9346326913848437 1.9246260163148667 a25.380127819914662,25.380127819914662 0 0,0 -0.1947986287957701,0.3897277480197504 l -3.9010141493773416 -1.9918856204983628" fill="#ff0100" stroke="none" /><path d="M 118.5362547648365 109.86951160357373 l 14.310373731389642 7.619467976959069 a37.212436232224675,37.212436232224675 0 0,0 -0.3050616166438158,0.5612790148186528 l -14.177466765130488 -7.864001825252325" fill="#ffad10" stroke="none" /><line stroke="#e1ed5e" stroke-width="0.3" x1="174.33088141563837" x2="178.70328620479359" y1="141.23008692659167" y2="143.65538615756765" /><path d="M 175.20536237346943 141.71514677278685 a86.0,86.0 0 0,1 -30.301960400862466,31.631185727798858" fill="none" id="id5" stroke="none" /><text fill="#e1ed5e" style="font-size:6.75px; font-family:Arial;" text-anchor="middle"><textPath startOffset="22.145653131862474" xlink:href="#id5">May</textPath></text><path d="M 118.18653347947321 110.5 l 11.846770144634243 6.839735932032199 a34.6794718640644,34.6794718640644 0 0,0 -0.30208510108345193,0.5130065437508728 l -11.727611333421025 -7.042093644076621" fill="#ff8a0c" stroke="none" /><path d="M 117.81537515405839 111.11811171558189 l 18.342972091703405 11.447371225573178 a42.62190863760854,42.62190863760854 0 0,0 -0.39269453669118676,0.6173810365074054 l -18.14375986338633 -11.760565936759257" fill="#fff517" stroke="none" /><path d="M 116.57777611688842 112.89097897827486 l 10.597691747897429 8.240829202730522 a34.424691293732955,34.424691293732955 0 0,0 -0.3667599551052015,0.46338922217295997 l -10.454665362150665 -8.421538368818165" fill="#ff860c" stroke="none" /><path d="M 115.6541949942343 113.99807769240083 l 7.15315587929195 6.396396095810878 a30.595911736148558,30.595911736148558 0 0,0 -0.35345897771564533,0.3885133334088028 l -7.0422992007344245 -6.518247004777352" fill="#ff4f07" stroke="none" /><path d="M 114.65682725009322 115.03919595460226 l 15.938594234298092 16.354401797904682 a43.836489317163185,43.836489317163185 0 0,0 -0.5434211567775664,0.5205851755090247 l -15.655500591655214 -16.625599103719285" fill="#f9ff18" stroke="none" /><path d="M 114.13192950727249 115.5334660781643 l 3.0228544046506483 3.322646516861442 a25.491951538889005,25.491951538889005 0 0,0 -0.32621804347728983,0.29170618603767146 l -2.9653713343499803 -3.3740482327825005" fill="#ff0200" stroke="none" /><path d="M 113.59037401385872 116.0094264158162 l 5.041566057824793 5.9389521392800715 a28.790285028679655,28.790285028679655 0 0,0 -0.3795185629872891,0.3166078832894314 l -4.93887316067561 -6.024622206481372" fill="#ff3405" stroke="none" /><path d="M 113.03279911837588 116.46651593811092 l 6.12777147833441 7.742239084374797 a30.873796095236592,30.873796095236592 0 0,0 -0.41839882571733245,0.3253494575404724 l -5.993962707981847 -7.846289593536063" fill="#ff5307" stroke="none" /><path d="M 112.7482090630111 116.68781488649013 l 6.386425612666726 8.36003613399706 a31.520296396388368,31.520296396388368 0 0,0 -0.43279920259739657,0.32478059024652767 l -6.241973421158564 -8.468435751507602" fill="#ff5d08" stroke="none" /><path d="M 112.16784306229584 117.11559508785304 l 2.6563538226044416 3.736494315796166 a25.58449619945772,25.58449619945772 0 0,0 -0.3601382222098107,0.2514044488462978 l -2.5918205092208724 -3.7815435804475857" fill="#ff0400" stroke="none" /><path d="M 111.8722381534696 117.32195027204791 l 3.6261374900626007 5.290642966433133 a27.41402963004583,27.41402963004583 0 0,0 -0.3904589533602592,0.26271820945021246 l -3.534782248605338 -5.352110849940466" fill="#ff2003" stroke="none" /><path d="M 111.5731344415666 117.5232005979908 l 5.057533587936165 7.657750459907808 a30.17713398067832,30.17713398067832 0 0,0 -0.4347150764981148,0.28177706050752704 l -4.925332879181041 -7.7434413621192295" fill="#ff4906" stroke="none" /><line stroke="#e1ed5e" stroke-width="0.3" x1="143.1302829299769" x2="145.66735839644613" y1="173.24464959558577" y2="177.55315839532614" /><path d="M 143.63769802327073 174.10635135553383 a86.0,86.0 0 0,1 -40.68552437913181,11.842963189579606" fill="none" id="id6" stroke="none" /><text fill="#e1ed5e" style="font-size:6.75px; font-family:Arial;" text-anchor="middle"><textPath startOffset="21.407464694133747" xlink:href="#id6">June</textPath></text><path d="M 110.34350942703117 118.27599006163325 l 7.741726606112026 13.678889115083987 a36.71770779301314,36.71770779301314 0 0,0 -0.5512128942539836,0.3057485006543784 l -7.505769523701948 -13.809770531171509" fill="#ffa60f" stroke="none" /><path d="M 109.3889696526874 118.78422872680471 l 1.9811332835286017 3.963593675631401 a25.431135736197895,25.431135736197895 0 0,0 -0.3921720313234669,0.19183099251140925 l -1.9128010029430655 -3.997018418240034" fill="#ff0100" stroke="none" /><path d="M 109.06512990194946 118.94263497670748 l 4.404141599268638 9.20296207589234 a31.202498429145734,31.202498429145734 0 0,0 -0.48514132821536576,0.22707063782650275 l -4.245511557181766 -9.277208945289377" fill="#ff5808" stroke="none" /><path d="M 108.4095320186766 119.2426549942271 l 6.02686710255728 13.790651381432934 a36.05008945475426,36.05008945475426 0 0,0 -0.5691878666745156,0.24295245428066312 l -5.789244160712333 -13.892078485373002" fill="#ff9d0e" stroke="none" /><path d="M 108.07796709384702 119.3841803445677 l 3.5188082239772878 8.443858760390167 a30.147718955157508,30.147718955157508 0 0,0 -0.47941410715996347,0.19497354377030682 l -3.373339655626883 -8.503019560739766" fill="#ff4906" stroke="none" /><path d="M 107.407793817531 119.65005319985036 l 3.6630768049135622 9.716746424737842 a31.384281042101634,31.384281042101634 0 0,0 -0.5057514843896626,0.18571895045588738 l -3.4957361688697723 -9.778196224202452" fill="#ff5b08" stroke="none" /><path d="M 107.06938296918513 119.77432235084164 l 3.8924081328455875 10.887758305842423 a32.5626174372018,32.5626174372018 0 0,0 -0.5279706325939685,0.1836555928062633 l -3.7049317282065974 -10.952972331217277" fill="#ff6c09" stroke="none" /><path d="M 106.72888874123015 119.89276391827305 l 1.9085996843516488 5.6424358308466855 a26.95649518259939,26.95649518259939 0 0,0 -0.4396184129880324,0.14451130428037842 l -1.8114585337158824 -5.674368056529083" fill="#ff1902" stroke="none" /><path d="M 106.0420521117495 120.11202640906438 l 3.7404271149088935 12.450665357542855 a34.00037933475264,34.00037933475264 0 0,0 -0.5604233753310452,0.16313107686107986 l -3.5261437271962417 -12.513040128706454" fill="#ff800b" stroke="none" /><path d="M 104.64783097203109 120.47920084513623 l 2.209290515568122 9.73454165305037 a30.98209726345881,30.98209726345881 0 0,0 -0.5196694794357912,0.11325954432738262 l -2.041858619513195 -9.77103265551147" fill="#ff5507" stroke="none" /><path d="M 104.29559338865022 120.5559693870025 l 1.9895361005582262 9.52065046134687 a30.726306549896975,30.726306549896975 0 0,0 -0.5172313024781764,0.10346074640309935 l -1.825808312549091 -9.55340060441283" fill="#ff5107" stroke="none" /><path d="M 103.58742460773223 120.69131181640829 l 3.349593157039029 19.319563210058448 a40.607786640646786,40.607786640646786 0 0,0 -0.6878620599666175,0.11318744020529059 l -3.017453594019339 -19.37421664875941" fill="#ffdb14" stroke="none" /><path d="M 103.2317021107853 120.74984581791261 l 1.9509405453113564 12.5264378112152 a33.677452948032645,33.677452948032645 0 0,0 -0.5719953320781754,0.08406361607444093 l -1.7356201076254956 -12.558082500588522" fill="#ff7c0b" stroke="none" /><path d="M 102.51750503828377 120.84855314841334 l 0.8004999366269535 6.629287814830338 a27.677443903201116,27.677443903201116 0 0,0 -0.4721825945702287,0.052909044600237376 l -0.6865814404559256 -6.642052619937546" fill="#ff2403" stroke="none" /><path d="M 101.80034050326958 120.92268563240118 l 0.9631616973346937 11.193398898656126 a32.234761206169395,32.234761206169395 0 0,0 -0.5517225058816047,0.04270681129223097 l -0.7708701966778532 -11.208283476943409" fill="#ff6709" stroke="none" /><path d="M 101.44090949804482 120.95050786540614 l 0.7293465631404594 10.604538958494581 a31.62959044043533,31.62959044043533 0 0,0 -0.542004131415602,0.032605622630974385 l -0.5471980795923922 -10.615496558950248" fill="#ff5e08" stroke="none" /><path d="M 101.08105385017728 120.97215588758144 l 1.0122316013075012 19.6370226455193 a40.663094140936295,40.663094140936295 0 0,0 -0.697419000182314,0.029950172677091793 l -0.6749868405243576 -19.65150538662222" fill="#ffdc14" stroke="none" /><line stroke="#e1ed5e" stroke-width="0.3" x1="101.45913802915013" x2="101.54496967792366" y1="184.9874750549273" y2="189.98673829345242" /><path d="M 101.47630435890484 185.9873277026323 a86.0,86.0 0 0,1 -42.54439059252881,-10.42667462771756" fill="none" id="id7" stroke="none" /><text fill="#e1ed5e" style="font-size:6.75px; font-family:Arial;" text-anchor="middle"><textPath startOffset="22.145653131862474" xlink:href="#id7">July</textPath></text><path d="M 100.0 121.0 l 1.1675327264261846e-15 9.533628203977393 a30.533628203977393,30.533628203977393 0 0,0 -0.5241503303571055,-0.004499200189711167 l 0.16365740550825217 -9.532223401982117" fill="#ff4e07" stroke="none" /><path d="M 99.63950707515114 120.99690560180557 l -0.13997020015092268 8.15256244173729 a29.15376391756321,29.15376391756321 0 0,0 -0.5003156362197396,-0.012886356047276674 l 0.2798991504414062 -8.148958368339965" fill="#ff3a05" stroke="none" /><path d="M 99.27912038922189 120.98762331915562 l -0.2781306849844348 8.097471426125312 a29.102246612813374,29.102246612813374 0 0,0 -0.49913712088461304,-0.021435095625635833 l 0.4170935664698866 -8.091503762073847" fill="#ff3905" stroke="none" /><path d="M 98.91894614982273 120.97215588758144 l -0.458368071015488 8.892218123685993 a29.904024059251867,29.904024059251867 0 0,0 -0.512434854842333,-0.030826808379316003 l 0.6109472779902674 -8.883039337481986" fill="#ff4506" stroke="none" /><path d="M 98.55909050195518 120.95050786540614 l -1.2074554164844233 17.556136755646033 a38.59761024587552,38.59761024587552 0 0,0 -0.660627516664223,-0.051136747890231114 l 1.5086519279238826 -17.532822240760748" fill="#ffc011" stroke="none" /><path d="M 97.84075906011543 120.88869738790638 l -0.45196524126085397 4.372353719383802 a25.395651217591922,25.395651217591922 0 0,0 -0.4332547660348159,-0.04854710021716416 l 0.5269559088964691 -4.363950858659667" fill="#ff0100" stroke="none" /><path d="M 97.48249496171623 120.84855314841334 l -1.1090006821647251 9.184116540835198 a30.250831267982598,30.250831267982598 0 0,0 -0.5150163373592005,-0.06667917585743019 l 1.2664948414147197 -9.163725768777372" fill="#ff4a06" stroke="none" /><path d="M 97.12497278360702 120.80226474461374 l -1.8076834807728197 13.079497170353447 a34.20382390809355,34.20382390809355 0 0,0 -0.580935489534886,-0.08537751134934708 l 2.0319440759153906 -13.046538585705218" fill="#ff830c" stroke="none" /><path d="M 96.76829788921471 120.74984581791261 l -0.8938263349174254 5.7390062579189 a26.808194069194332,26.808194069194332 0 0,0 -0.45410846347294576,-0.07472337485593503 l 0.9922123014434346 -5.722816884567297" fill="#ff1602" stroke="none" /><path d="M 96.41257539226777 120.69131181640829 l -1.7797167961296148 10.264933538741468 a31.418073354954135,31.418073354954135 0 0,0 -0.5306142551308209,-0.09669559297566578 l 1.955665784811493 -10.232869771834437" fill="#ff5b08" stroke="none" /><path d="M 96.05791012581884 120.62667999033965 l -4.081342040678522 21.355306167818423 a42.741813502426,42.741813502426 0 0,0 -0.7194943470422829,-0.14391902002285695 l 4.447332873251764 -21.282097751132703" fill="#fff717" stroke="none" /><path d="M 95.70440661134978 120.55596938700252 l -0.9445038529848593 4.519792850776189 a25.617425142027837,25.617425142027837 0 0,0 -0.42968666306990766,-0.0936482083105757 l 1.0219529326739034 -4.502913184331895" fill="#ff0400" stroke="none" /><path d="M 95.00130118170881 120.39639698878247 l -2.140013332055665 8.73198467612734 a29.990395622301538,29.990395622301538 0 0,0 -0.4989754992623301,-0.126837620683974 l 2.289594124543374 -8.693961823608102" fill="#ff4606" stroke="none" /><path d="M 94.6519064749342 120.30758222061772 l -2.7331291354978164 10.378136503887108 a31.731994789628867,31.731994789628867 0 0,0 -0.5255703796798222,-0.14324654408940007 l 2.9108809161123337 -10.329689465653564" fill="#ff6008" stroke="none" /><path d="M 94.30408787586889 120.21278271476187 l -2.456234258454764 8.716308868664976 a30.05577865378646,30.05577865378646 0 0,0 -0.4954050881468006,-0.14420520104842022 l 2.6054993589831716 -8.67285997331404" fill="#ff4706" stroke="none" /><path d="M 93.95794788825049 120.11202640906438 l -2.537006343219564 8.444868999983083 a29.81772156582479,29.81772156582479 0 0,0 -0.48895293941034595,-0.15147887049873604 l 2.6815999155015438 -8.400073541677699" fill="#ff4406" stroke="none" /><path d="M 93.61358852112213 120.00534299687104 l -5.348748324478236 16.754877944996966 a38.58792323130717,38.58792323130717 0 0,0 -0.6293088718151009,-0.20686632582809944 l 5.63557993394108 -16.660590697766846" fill="#ffc011" stroke="none" /><path d="M 92.93061703081489 119.77432235084164 l -3.1996498053018834 8.949989968804934 a30.504739834328834,30.504739834328834 0 0,0 -0.4915778517097912,-0.18051419621056844 l 3.3528168086657932 -8.893744923585645" fill="#ff4e07" stroke="none" /><path d="M 91.92203290615298 119.3841803445677 l -4.224734551426647 10.137824962812521 a31.982890193689585,31.982890193689585 0 0,0 -0.5049716468049067,-0.21554236855079686 l 4.398141273401985 -10.063807944602322" fill="#ff6309" stroke="none" /><path d="M 91.26138138417905 119.09545874513695 l -4.369204520915727 9.547500394073909 a31.499748183667638,31.499748183667638 0 0,0 -0.4897630139130248,-0.2292338200955976 l 4.5324562487002416 -9.471090342407784" fill="#ff5c08" stroke="none" /><path d="M 90.28995756902619 118.62028667847754 l -4.953760587082421 9.499489103547322 a31.713544566694324,31.713544566694324 0 0,0 -0.48055259867492606,-0.2558671915616358 l 5.116102001543909 -9.413051444263113" fill="#ff5f08" stroke="none" /><path d="M 89.97174638481275 118.45085714620012 l -4.416795820865183 8.1264068363109 a30.249139062229126,30.249139062229126 0 0,0 -0.45410556631628535,-0.25188470278425124 l 4.5556455753375715 -8.0493892180935" fill="#ff4a06" stroke="none" /><line stroke="#e1ed5e" stroke-width="0.3" x1="58.13341422392154" x2="55.67067388415222" y1="173.97424548756322" y2="178.32567169271397" /><path d="M 57.64086615596768 174.84453072859336 a86.0,86.0 0 0,1 -31.369924170532247,-30.572349798747897" fill="none" id="id8" stroke="none" /><text fill="#e1ed5e" style="font-size:6.75px; font-family:Arial;" text-anchor="middle"><textPath startOffset="22.145653131862474" xlink:href="#id8">August</textPath></text><path d="M 89.65649057296885 118.27599006163327 l -4.621963525633981 8.166566681803992 a30.38378165776687,30.38378165776687 0 0,0 -0.45171645183046893,-0.2607986150617059 l 4.76147244532485 -8.086021169466115" fill="#ff4c07" stroke="none" /><path d="M 89.34428304082925 118.09573695890944 l -9.70499637107153 16.481205552943678 a40.126345470081134,40.126345470081134 0 0,0 -0.5905589992315401,-0.35461371090028654 l 9.986488126860499 -16.31217784150747" fill="#ffd513" stroke="none" /><path d="M 89.03521579738668 117.91015095944536 l -4.9614631037756425 8.104177111589777 a30.502305130132513,30.502305130132513 0 0,0 -0.44422376492362364,-0.27722848395993877 l 5.0998509974889785 -8.01781283078829" fill="#ff4e07" stroke="none" /><path d="M 88.4268655584334 117.5232005979908 l -5.725758577068549 8.669528262047638 a31.38965983896089,31.38965983896089 0 0,0 -0.44708398920026426,-0.30081806065842726 l 5.873738854365819 -8.56996052733209" fill="#ff5b08" stroke="none" /><path d="M 88.1277618465304 117.32195027204791 l -2.67014620359275 3.895823109327893 a25.723041228671843,25.723041228671843 0 0,0 -0.362088440815953,-0.2527658528949923 l 2.7366297355824685 -3.8494124406277717" fill="#ff0600" stroke="none" /><path d="M 87.83215693770417 117.11559508785305 l -6.340171296653474 8.918244930147408 a31.94225135449778,31.94225135449778 0 0,0 -0.44417828413912597,-0.3215508236642137 l 6.492330591166554 -8.808093335110128" fill="#ff6309" stroke="none" /><path d="M 87.54013794807813 116.9041958592261 l -5.652658471144062 7.668916840599706 a30.527057956128456,30.527057956128456 0 0,0 -0.41916123423797386,-0.3145464045388033 l 5.7834726942928025 -7.5707514087968875" fill="#ff4e07" stroke="none" /><path d="M 87.2517909369889 116.68781488649013 l -12.202204784496926 15.973077758942258 a41.10057249672296,41.10057249672296 0 0,0 -0.5569911524936285,-0.43311968910991155 l 12.474605881625783 -15.761257018211554" fill="#ffe115" stroke="none" /><path d="M 86.68645165197938 116.24036423190432 l -6.734782751031337 8.21533989590062 a31.62304609369486,31.62304609369486 0 0,0 -0.4168605138436304,-0.3477598668062931 l 6.87481759903686 -8.098517845182457" fill="#ff5e08" stroke="none" /><path d="M 86.13680546590413 115.77377054828092 l -4.43601668687997 5.04737268131782 a27.71968861111815,27.71968861111815 0 0,0 -0.3547261797796832,-0.3171983373091614 l 4.522007893483024 -4.9704788141252765" fill="#ff2403" stroke="none" /><path d="M 85.86807049272751 115.53346607816431 l -8.072855664943212 8.873482531934481 a32.99623652782622,32.99623652782622 0 0,0 -0.4157058020926386,-0.3847710842896794 l 8.223991238349818 -8.733593701512426" fill="#ff720a" stroke="none" /><path d="M 85.60350026404147 115.28858382429668 l -6.317316235478545 6.708770922244842 a30.214992767560847,30.214992767560847 0 0,0 -0.3745616169893628,-0.35882155614924915 l 6.431550338333222 -6.599337235790011" fill="#ff4a06" stroke="none" /><path d="M 85.34317274990678 115.03919595460226 l -12.829590966969453 13.164290557386607 a39.381973513718336,39.381973513718336 0 0,0 -0.4801001628923669,-0.47599676735367585 l 13.053683049991783 -12.942113779804272" fill="#ffcb12" stroke="none" /><path d="M 84.83555147118756 114.52719865689866 l -13.431580968194398 12.867150732876656 a39.60029395702472,39.60029395702472 0 0,0 -0.46604674446705585,-0.49492549227284455 l 13.650483546397707 -12.634683780659321" fill="#ffce13" stroke="none" /><path d="M 84.3458050057657 113.99807769240083 l -6.853166224494288 6.128143496662798 a30.193477580123847,30.193477580123847 0 0,0 -0.3421768383182745,-0.38933442947034824 l 6.957354126771155 -6.009596789381149" fill="#ff4906" stroke="none" /><path d="M 84.1078160697243 113.72728997021213 l -8.331600725156164 7.196638270235781 a32.00941292876441,32.00941292876441 0 0,0 -0.35561762167745087,-0.4189166641482456 l 8.453912910340728 -7.052554823637982" fill="#ff6409" stroke="none" /><path d="M 83.8745106332314 113.45245675266167 l -7.633162045316631 6.367855261018825 a30.940560519173328,30.940560519173328 0 0,0 -0.33674112005698725,-0.41076941312929266 l 7.741349984612248 -6.2358835661910375" fill="#ff5407" stroke="none" /><path d="M 83.4222238831116 112.89097897827486 l -7.6317199894694765 5.934471623857149 a30.66752830107229,30.66752830107229 0 0,0 -0.3195965680057555,-0.4183621667071883 l 7.732468534829527 -5.802588543909091" fill="#ff5007" stroke="none" /><path d="M 83.20337586046588 112.60449989151573 l -17.35458533925242 13.023204377780099 a42.697591676562304,42.697591676562304 0 0,0 -0.43490136325004425,-0.5900272244739038 l 17.575588722086295 -12.723370844037316" fill="#fff617" stroke="none" /><path d="M 82.78059297857968 112.02048342749411 l -3.9698118347661024 2.771236971790906 a25.84140066068383,25.84140066068383 0 0,0 -0.2507972699864098,-0.36592071207739074 l 4.016798841567837 -2.7026815246434643" fill="#ff0801" stroke="none" /><path d="M 82.576782715395 111.72311816256416 l -7.138765477885088 4.803280006501853 a29.60427053091105,29.60427053091105 0 0,0 -0.2800783360986357,-0.4240742982281911 l 7.22016825290445 -4.680025829934602" fill="#ff4106" stroke="none" /><path d="M 82.37810715431573 111.42229804090323 l -7.635501931015639 4.949240102167134 a30.09922344639601,30.09922344639601 0 0,0 -0.27731748727032557,-0.4359891511992744 l 7.719337109911855 -4.817437276289187" fill="#ff4806" stroke="none" /><path d="M 81.99639281039703 110.81064883170644 l -9.388590807615559 5.637579023848793 a31.95116133581198,31.95116133581198 0 0,0 -0.2783194000097727,-0.47264718764923846 l 9.4839839177551 -5.475580667905995" fill="#ff6309" stroke="none" /><line stroke="#e1ed5e" stroke-width="0.3" x1="26.387840678322732" x2="22.057713659400548" y1="142.50000000000003" y2="145.00000000000006" /><path d="M 25.521815274538298 143.00000000000003 a86.0,86.0 0 0,1 -11.493303480769221,-40.785679425670985" fill="none" id="id9" stroke="none" /><text fill="#e1ed5e" style="font-size:6.75px; font-family:Arial;" text-anchor="middle"><textPath startOffset="21.40746469413373" xlink:href="#id9">September</textPath></text><path d="M 81.81346652052679 110.50000000000001 l -10.027681884172752 5.789484835175079 a32.57896967035015,32.57896967035015 0 0,0 -0.2754732388302215,-0.4867348176770673 l 10.125588488024352 -5.61649324739889" fill="#ff6c09" stroke="none" /><path d="M 81.4637452351635 109.86951160357371 l -8.602153206637391 4.580162064328181 a30.74550790497719,30.74550790497719 0 0,0 -0.24404895633460053,-0.4679960528326745 l 8.679510231946942 -4.431819768391003" fill="#ff5107" stroke="none" /><path d="M 81.29705330413844 109.54985784667822 l -9.2126798715766 4.704059985369996 a31.34416022507926,31.34416022507926 0 0,0 -0.2405740221611189,-0.4813091984708209 l 9.292073806949457 -4.545218930735423" fill="#ff5a08" stroke="none" /><path d="M 81.1358732173502 109.22738970284198 l -8.188911778649729 4.005607102539827 a30.116093701713787,30.116093701713787 0 0,0 -0.22317565948616766,-0.4663512932587222 l 8.256466696095808 -3.8644433072160003" fill="#ff4806" stroke="none" /><path d="M 80.83023694016515 108.57439118712176 l -23.71149830038808 10.605851591681173 a46.97535831579755,46.97535831579755 0 0,0 -0.32293572004350635,-0.7389401255989717 l 23.890067902448553 -10.19724939630635" fill="#d2ff1c" stroke="none" /><path d="M 80.41425534168474 107.57618678355246 l -8.086789954238684 3.1281440783338605 a29.67072414154613,29.67072414154613 0 0,0 -0.17967646189575848,-0.47661316202632664 l 8.139297099948879 -2.988862636113389" fill="#ff4106" stroke="none" /><path d="M 80.28708602549918 107.23885506374661 l -8.080231177360508 2.967172811190663 a29.607801715366,29.607801715366 0 0,0 -0.17110465626426016,-0.47861017622722607 l 8.12997600366871 -2.828027678582515" fill="#ff4106" stroke="none" /><path d="M 80.16572619554312 106.89939002012753 l -10.889095783658021 3.787792763105909 a32.52908413543402,32.52908413543402 0 0,0 -0.17893254478769785,-0.52898227443523 l 10.952513750018086 -3.600308814196518" fill="#ff6b09" stroke="none" /><path d="M 80.05021161711548 106.5578916946017 l -8.84346929476365 2.907024010808592 a30.309013791312438,30.309013791312438 0 0,0 -0.15823511150103056,-0.4956692330576841 l 8.892069122041935 -2.7547857440595163" fill="#ff4b07" stroke="none" /><path d="M 79.83685265289637 105.86919833188381 l -17.618595474660708 5.1285163665120095 a39.34983887180801,39.34983887180801 0 0,0 -0.18322317054799475,-0.6501943944862507 l 17.704037137283276 -4.825314048122763" fill="#ffca12" stroke="none" /><path d="M 79.73907114497094 105.5222062557868 l -13.521536424701862 3.685354880154167 a35.01477034693096,35.01477034693096 0 0,0 -0.15308210690737067,-0.581277694183296 l 13.582808012413965 -3.4526966815980686" fill="#ff8f0d" stroke="none" /><path d="M 79.56144815229197 104.8234425847677 l -6.54487358377552 1.5445723450041873 a27.724661623944684,27.724661623944684 0 0,0 -0.10533937450379885,-0.46414472048272526 l 6.570423819836985 -1.4319932905824357" fill="#ff2403" stroke="none" /><path d="M 79.48165901384964 104.47187691870673 l -8.49407074666722 1.8512431849886024 a29.69346531478412,29.69346531478412 0 0,0 -0.10426971932711641,-0.4989683530435542 l 8.524598176818703 -1.705158380659639" fill="#ff4206" stroke="none" /><path d="M 79.407916724674 104.11899336999214 l -8.97725808028505 1.7957030388328732 a30.155092137369063,30.155092137369063 0 0,0 -0.09717651864328297,-0.508468608429831 l 9.00676089121049 -1.6413318653697277" fill="#ff4906" stroke="none" /><path d="M 79.34024301695615 103.76489593502545 l -10.380738064971077 1.8917162760166948 a31.551697173558665,31.551697173558665 0 0,0 -0.0925293823268269,-0.5336848885346516 l 10.411682264790139 -1.7132383545614507" fill="#ff5d08" stroke="none" /><path d="M 79.2786578344484 103.40968896794605 l -21.389887245746962 3.5196978064809525 a42.67753558490253,42.67753558490253 0 0,0 -0.11274695206982772,-0.7239163114944461 l 21.447155689955057 -3.1519933130550566" fill="#fff617" stroke="none" /><path d="M 79.22317932658666 103.0534771498775 l -9.762958982757835 1.434818764508534 a30.86783020658532,30.86783020658532 0 0,0 -0.07254746108274439,-0.5249172889174374 l 9.786150960395792 -1.267013167391011" fill="#ff5307" stroke="none" /><path d="M 79.13060592940153 102.33845913500099 l -11.421894048069264 1.279847051877293 a32.493375140554626,32.493375140554626 0 0,0 -0.057354841745527026,-0.5548560657698622 l 11.442181282296456 -1.0835864638244994" fill="#ff6b09" stroke="none" /><path d="M 79.0935383218832 101.97986365728391 l -9.509101741416158 0.9005218214879143 a30.551646741770746,30.551646741770746 0 0,0 -0.04496384387650022,-0.5225480227456183 l 9.523159207990398 -0.7371527513666339" fill="#ff4e07" stroke="none" /><path d="M 79.03789590574601 101.26102812881392 l -23.170529643381855 1.3938815258450368 a44.212418005518714,44.212418005518714 0 0,0 -0.039072009736382605,-0.7579865507145352 l 23.19104324257481 -0.9959231817537707" fill="#f4ff19" stroke="none" /><path d="M 79.00696218219943 100.54070618675478 l -11.760573104110964 0.302910645537091 a32.76447340922312,32.76447340922312 0 0,0 -0.009655484991745969,-0.5623835946192596 l 11.764040020701376 -0.10098013494877908" fill="#ff6f0a" stroke="none" /><line stroke="#e1ed5e" stroke-width="0.3" x1="15.003131293944662" x2="10.003315487706104" y1="100.72959589197737" y2="100.7725132973878" /><path d="M 14.003168132696942 100.73817937305945 a86.0,86.0 0 0,1 10.791469493833604,-42.45332614584628" fill="none" id="id10" stroke="none" /><text fill="#e1ed5e" style="font-size:6.75px; font-family:Arial;" text-anchor="middle"><textPath startOffset="22.145653131862435" xlink:href="#id10">October</textPath></text><path d="M 79.00077361379809 100.18025310272382 l -13.244380606887129 0.11368707847329454 a34.24486853131807,34.24486853131807 0 0,0 0.0,-0.5878803623942193 l 13.244380606887129 0.11368707847328967" fill="#ff840c" stroke="none" /><path d="M 79.00696218219943 99.45929381324524 l -15.206134082693183 -0.3916560740991443 a36.21117708204142,36.21117708204142 0 0,0 0.021339269076320836,-0.6212695359722933 l 15.197170126620012 0.6526318746355763" fill="#ff9f0e" stroke="none" /><path d="M 79.06263194458094 98.37931529534042 l -25.408947156374 -1.9668132073162246 a46.484955361700756,46.484955361700756 0 0,0 0.06841340806129963,-0.7950675037906626 l 25.37144012561496 2.402701758482568" fill="#d8ff1c" stroke="none" /><path d="M 79.17382384314186 97.30363454192245 l -10.471121506329148 -1.3556963181501465 a31.5585177987895,31.5585177987895 0 0,0 0.07417075727430156,-0.5366626515154294 l 10.446306232499637 1.5352472778656427" fill="#ff5d08" stroke="none" /><path d="M 79.22317932658666 96.9465228501225 l -12.087453501820415 -1.7764394104457408 a33.21729385492775,33.21729385492775 0 0,0 0.08775456658457557,-0.5634472683514804 l 12.055177443097572 1.9836748607286714" fill="#ff750a" stroke="none" /><path d="M 79.2786578344484 96.59031103205396 l -9.154001834900106 -1.5062875184265752 a30.277103625675537,30.277103625675537 0 0,0 0.08879147393303628,-0.5121256262297683 l 9.126795543474834 1.6632061775769362" fill="#ff4a06" stroke="none" /><path d="M 79.407916724674 95.88100663000787 l -25.489413942855126 -5.098596661242529 a46.994343828307166,46.994343828307166 0 0,0 0.1650224043907695,-0.7896919437926984 l 25.39813382763999 5.535405056320636" fill="#d2ff1c" stroke="none" /><path d="M 79.56144815229197 95.17655741523228 l -8.97141391919702 -2.117229257036885 a30.217859156898363,30.217859156898363 0 0,0 0.12347948750645603,-0.5038384465047723 l 8.933746905174267 2.2709235281497753" fill="#ff4a06" stroke="none" /><path d="M 79.64726062577567 94.8264132398404 l -4.210632578641165 -1.0703263359399655 a25.344539696874804,25.344539696874804 0 0,0 0.1108045403969199,-0.42074288790611586 l 4.19163855743952 1.142449728218866" fill="#ff0000" stroke="none" /><path d="M 79.73907114497095 94.47779374421319 l -8.971364486786086 -2.445185284759381 a30.298618813112537,30.298618813112537 0 0,0 0.14107831598112291,-0.500637173563483 l 8.92806767873038 2.5988303822258767" fill="#ff4b07" stroke="none" /><path d="M 79.94057633289273 93.78553927170692 l -17.485918300137325 -5.417182187169741 a39.30582425481209,39.30582425481209 0 0,0 0.205205010180262,-0.642801771685069 l 17.390348574179807 5.716552992546203" fill="#ffca12" stroke="none" /><path d="M 80.28708602549916 92.7611449362534 l -10.466087601781044 -3.8432923377928288 a32.14943432116141,32.14943432116141 0 0,0 0.19468674182737142,-0.5164297128734648 l 10.398570176139236 4.022390330860438" fill="#ff6609" stroke="none" /><path d="M 80.41425534168474 92.42381321644754 l -14.018689956567483 -5.4227304309603905 a36.030957169296634,36.030957169296634 0 0,0 0.22809538992023148,-0.5749493855358223 l 13.92353589168112 5.662580833709796" fill="#ff9d0e" stroke="none" /><path d="M 80.68587082218212 91.75594674310238 l -12.897547776670738 -5.505196210263099 a35.023334980132205,35.023334980132205 0 0,0 0.24077061475717576,-0.5509302850896836 l 12.801143279896586 5.725788565128649" fill="#ff8f0d" stroke="none" /><path d="M 80.9802524753101 91.09779779509293 l -16.453598539145872 -7.70111490721422 a39.1666748664003,39.1666748664003 0 0,0 0.29024509552154065,-0.6065006191540452 l 16.318974185664427 7.982428028433352" fill="#ffc812" stroke="none" /><path d="M 81.46374523516351 90.13048839642627 l -8.45497295824441 -4.501796872019382 a30.57876520234042,30.57876520234042 0 0,0 0.2506798396477713,-0.46122267029313446 l 8.376447768981288 4.646274375787136" fill="#ff4f07" stroke="none" /><line stroke="#e1ed5e" stroke-width="0.3" x1="26.387840678322718" x2="22.05771365940052" y1="57.49999999999999" y2="54.99999999999999" /><path d="M 25.521815274538284 56.99999999999999 a86.0,86.0 0 0,1 29.574782752854787,-30.34633250058573" fill="none" id="id11" stroke="none" /><text fill="#e1ed5e" style="font-size:6.75px; font-family:Arial;" text-anchor="middle"><textPath startOffset="21.40746469413373" xlink:href="#id11">November</textPath></text><path d="M 82.18462484594161 88.88188828441811 l -31.22476728031208 -19.48656415671784 a57.80641621162713,57.80641621162713 0 0,0 0.5325961355933426,-0.8373295870195286 l 30.885653453092846 20.019707418416044" fill="#55ff2b" stroke="none" /><path d="M 82.576782715395 88.27688183743585 l -4.897691489246694 -3.295385410991588 a26.90313026544525,26.90313026544525 0 0,0 0.26110162189963354,-0.3809550694680711 l 4.840400130531747 3.378975215529694" fill="#ff1802" stroke="none" /><path d="M 82.78059297857968 87.97951657250589 l -7.8159183645498125 -5.456118033265965 a30.531935998223922,30.531935998223922 0 0,0 0.3036981163180093,-0.4271894337583611 l 7.721105149701831 5.589484693733846" fill="#ff4e07" stroke="none" /><path d="M 82.98947788004972 87.6856937992154 l -6.684162849929007 -4.838818435408223 a29.251799613127886,29.251799613127886 0 0,0 0.2979476600374708,-0.4042232233457722 l 6.600113170307717 4.9528479680228585" fill="#ff3b05" stroke="none" /><path d="M 83.64595745247003 86.82634096563983 l -28.6559923658291 -23.08323899864604 a57.79676373187008,57.79676373187008 0 0,0 0.629030199458681,-0.7673145644598418 l 28.25551534713179 23.571755844804375" fill="#55ff2b" stroke="none" /><path d="M 84.10781606972428 86.27271002978789 l -7.244818778149914 -6.257901908613029 a30.573334603264225,30.573334603264225 0 0,0 0.3464816844508952,-0.39423255413956554 l 7.1363260297404265 6.381346740563894" fill="#ff4f07" stroke="none" /><path d="M 84.34580500576568 86.00192230759919 l -9.801858840145153 -8.76488261611876 a34.14912940070454,34.14912940070454 0 0,0 0.39450749080283604,-0.433632839932721 l 9.64995364850045 8.931853031609137" fill="#ff820c" stroke="none" /><path d="M 84.58840730492382 85.73525988315684 l -3.8136452079021614 -3.529853070017157 a26.196513491531093,26.196513491531093 0 0,0 0.30830073742290304,-0.32740469931100796 l 3.752488636742987 3.594799229272676" fill="#ff0d01" stroke="none" /><path d="M 85.08716467003674 85.21462403516908 l -9.24323222424766 -9.1642307141387 a34.016161743514616,34.016161743514616 0 0,0 0.4146862977383489,-0.41114199170469856 l 9.084554006379333 9.321552716072071" fill="#ff810b" stroke="none" /><path d="M 85.86807049272753 84.46653392183569 l -4.160077143977837 -4.5726535194837945 a27.18186072741002,27.18186072741002 0 0,0 0.34784364826051567,-0.31104393518492657 l 4.080968468893929 4.643392984552122" fill="#ff1c02" stroke="none" /><path d="M 86.13680546590413 84.22622945171909 l -7.893886761336135 -8.981794073594394 a32.95767841101496,32.95767841101496 0 0,0 0.4281681414238969,-0.36984144275699077 l 7.738539140149389 9.115979648816095" fill="#ff710a" stroke="none" /><path d="M 86.40962598614128 83.9905735841838 l -6.619322884768549 -7.7975457142067075 a31.228252764669243,31.228252764669243 0 0,0 0.4116562792637985,-0.34341830922478345 l 6.484492271342841 7.910026207343373" fill="#ff5808" stroke="none" /><path d="M 86.68645165197937 83.75963576809568 l -2.949242559601144 -3.5975963825810067 a25.651959953323185,25.651959953323185 0 0,0 0.34294133313207503,-0.2762492624279734 l 2.8870504561138235 3.6476939388023792" fill="#ff0500" stroke="none" /><path d="M 86.96720088162412 83.53348406188908 l -11.184950872138208 -14.131820043429261 a39.02252656405351,39.02252656405351 0 0,0 0.5288296664446012,-0.4112211472249643 l 10.940711261058363 14.32174224227503" fill="#ffc612" stroke="none" /><path d="M 87.54013794807813 83.09580414077388 l -3.89040996004125 -5.278088285662641 a27.556943312888816,27.556943312888816 0 0,0 0.38319765444817305,-0.2774055504600226 l 3.799231295219109 5.344094607495744" fill="#ff2203" stroke="none" /><path d="M 87.83215693770416 82.88440491214696 l -3.9337148353567284 -5.533262548534442 a27.789043145902042,27.789043145902042 0 0,0 0.3911703602625082,-0.27306729128437607 l 3.838149383920455 5.599974655623946" fill="#ff2503" stroke="none" /><path d="M 88.12776184653039 82.6780497279521 l -4.535261242578521 -6.617081690846361 a29.022117216905336,29.022117216905336 0 0,0 0.4133629993743171,-0.27812907378357016 l 4.421001955107215 6.693960438687041" fill="#ff3805" stroke="none" /><path d="M 88.72937992617638 82.28071324371311 l -4.847306418352452 -7.620770805846009 a30.031751058827723,30.031751058827723 0 0,0 0.437370797573689,-0.27295172549031 l 4.715771491989065 7.702858328177855" fill="#ff4706" stroke="none" /><line stroke="#e1ed5e" stroke-width="0.3" x1="56.869717070023135" x2="54.33264160355391" y1="26.7553504044142" y2="22.446841604673864" /><path d="M 56.362301976729285 25.89364864446614 a86.0,86.0 0 0,1 42.16139366436587,-11.88097634709845" fill="none" id="id12" stroke="none" /><text fill="#e1ed5e" style="font-size:6.75px; font-family:Arial;" text-anchor="middle"><textPath startOffset="22.145653131862474" xlink:href="#id12">December</textPath></text><path d="M 89.34428304082924 81.90426304109057 l -18.828195533414107 -31.97439225244678 a58.10610067034535,58.10610067034535 0 0,0 0.8638648710735093,-0.49875261585774927 l 18.2765381944802 32.292891765580706" fill="#52ff2b" stroke="none" /><path d="M 90.28995756902619 81.37971332152246 l -4.713381651835062 -9.038530800059847 a31.193674784859773,31.193674784859773 0 0,0 0.47692570610180474,-0.24352166376578013 l 4.557528724019676 9.118110415498462" fill="#ff5808" stroke="none" /><path d="M 90.93487009805054 81.0573650232925 l -4.559051657754927 -9.52666451853414 a31.561358287018543,31.561358287018543 0 0,0 0.4907209374407669,-0.22968217667497376 l 4.394842006442637 9.603522926779656" fill="#ff5d08" stroke="none" /><path d="M 91.26138138417902 80.90454125486306 l -5.473847463386304 -11.961344579682825 a34.15434415721013,34.15434415721013 0 0,0 0.5352255664949696,-0.23939958809883627 l 5.267708494035715 12.053547918691507" fill="#ff820c" stroke="none" /><path d="M 92.592206182469 80.34994680014964 l -3.509909668073649 -9.31045239691942 a30.9500748596852,30.9500748596852 0 0,0 0.4987543376016354,-0.18314950123474194 l 3.349566178817886 9.369332747162883" fill="#ff5407" stroke="none" /><path d="M 92.93061703081487 80.22567764915836 l -3.192319798244886 -8.929486634495422 a30.482965635807115,30.482965635807115 0 0,0 0.49425113571156226,-0.17192620142204432 l 3.0385628904883197 8.982971268486052" fill="#ff4d07" stroke="none" /><path d="M 93.95794788825049 79.88797359093562 l -10.601306899896715 -35.288302781549845 a57.84632981978173,57.84632981978173 0 0,0 0.9534727565517965,-0.2775420233713879 l 9.993974130963293 35.465088499223754" fill="#55ff2b" stroke="none" /><path d="M 95.70440661134978 79.44403061299748 l -1.6320839520436106 -7.810112531570068 a28.978819197243794,28.978819197243794 0 0,0 0.48781497292324194,-0.09757665663975361 l 1.497772493589392 7.836978584872687" fill="#ff3705" stroke="none" /><path d="M 97.48249496171623 79.15144685158666 l -0.5321796477125237 -4.407210909656091 a25.439225515743832,25.439225515743832 0 0,0 0.4339981520653288,-0.048630398172438014 l 0.45644559404639556 4.4156970683355" fill="#ff0100" stroke="none" /><path d="M 97.84075906011542 79.11130261209362 l -1.0438165596447144 -10.097978340513263 a31.151784058758516,31.151784058758516 0 0,0 0.5323994714297211,-0.05041878347803835 l 0.8703175248299777 10.114408879496485" fill="#ff5708" stroke="none" /><path d="M 98.9189461498227 79.02784411241856 l -3.24316155053188 -62.91646766274432 a84.0,84.0 0 0,0 1.4406969575967197,-0.061869726296685634 l 2.1626388323343404 62.96286995746683" fill="#4dd2ff" stroke="none" /></svg>